<svg xmlns="http://www.w3.org/2000/svg" xml:space="preserve" style="fill-rule:evenodd;clip-rule:evenodd;stroke-linejoin:round;stroke-miterlimit:1.5" viewBox="0 0 320 320"><path d="M289.74 0h320v320h-320z" style="fill:none" transform="translate(-289.74)"/><style>@media (prefers-color-scheme:dark){g{stroke:#fff}}</style><path d="M72.245 45.492a4.509 4.509 0 0 1-5.679 2.899L30.654 36.752a4.51 4.51 0 0 1 2.781-8.578l35.912 11.639a4.508 4.508 0 0 1 2.898 5.679" style="fill:#00d4b9;fill-rule:nonzero" transform="matrix(3.76379 .8867 -.88671 3.7638 5.81 -6.928)"/><path d="M72.245 22.056a4.509 4.509 0 0 1-5.679 2.899L30.654 13.316a4.509 4.509 0 1 1 2.781-8.578l35.912 11.639a4.508 4.508 0 0 1 2.898 5.679" style="fill:#00d4b9;fill-rule:nonzero" transform="matrix(3.76379 .8867 -.88671 3.7638 5.639 -6.317)"/><g style="stroke:#000"><path d="M329.986 43.599V99.47" style="fill:none;stroke-width:7.24px" transform="matrix(3.12296 .72265 -.72264 3.12296 -818.461 -307.513)"/><circle cx="43.338" cy="25.176" r="10.329" style="fill:none;stroke-width:9.3px;stroke-linecap:round" transform="rotate(13.029 -805.455 276.052)scale(2.49377)"/><circle cx="43.338" cy="25.176" r="10.329" style="fill:none;stroke-width:9.3px;stroke-linecap:round" transform="matrix(2.42957 .5622 .5622 -2.42957 66.051 82.58)"/></g><path d="M72.245 45.492a4.509 4.509 0 0 1-5.679 2.899L30.654 36.752a4.51 4.51 0 0 1 2.781-8.578l35.912 11.639a4.508 4.508 0 0 1 2.898 5.679" style="fill:#00fede;fill-rule:nonzero" transform="matrix(-3.76379 -.8867 -.88671 3.7638 392.486 37.927)"/><path d="M72.245 45.492a4.509 4.509 0 0 1-5.679 2.899L30.654 36.752a4.51 4.51 0 0 1 2.781-8.578l35.912 11.639a4.508 4.508 0 0 1 2.898 5.679" style="fill:#00fede;fill-rule:nonzero" transform="matrix(-3.76379 -.8867 -.88671 3.7638 371.784 125.553)"/></svg>