M48
; DRILL file {KiCad 9.0.5} date 2026-03-05T20:50:51+1100
; FORMAT={-:-/ absolute / metric / decimal}
; #@! TF.CreationDate,2026-03-05T20:50:51+11:00
; #@! TF.GenerationSoftware,Kicad,Pcbnew,9.0.5
; #@! TF.FileFunction,Plated,1,2,PTH
FMAT,2
METRIC
; #@! TA.AperFunction,Plated,PTH,ViaDrill
T1C0.300
; #@! TA.AperFunction,Plated,PTH,ComponentDrill
T2C0.800
; #@! TA.AperFunction,Plated,PTH,ComponentDrill
T3C1.000
%
G90
G05
T1
X140.9Y-127.1
X148.4Y-77.8
X152.1Y-108.4
X154.9Y-127.7
X156.3Y-78.3
X162.5Y-108.4
X163.7Y-78.2
X165.9Y-127.7
X169.7Y-82.8
X170.0Y-114.0
X170.5Y-108.7
X170.6Y-92.8
X171.7Y-97.3
X172.4Y-90.9
X172.4Y-105.3
X172.4Y-107.9
X172.4Y-111.5
X172.8Y-114.8
X172.9Y-101.2
X173.8Y-98.4
X174.9Y-104.0
X176.4Y-97.6
X176.9Y-127.1
X177.499Y-110.391
X177.7Y-97.5
X177.9Y-100.1
X178.2Y-94.0
X178.2Y-111.1
X178.3Y-114.5
X179.9Y-92.3
X182.7Y-112.7
X183.9Y-92.2
X184.2Y-82.0
X184.4Y-115.0
T2
X141.0Y-77.5
X141.0Y-79.5
X141.0Y-81.5
X141.0Y-83.5
X141.0Y-86.75
X141.0Y-88.75
X141.0Y-90.75
X170.8Y-77.9
X170.8Y-123.4
X172.8Y-77.9
X172.8Y-123.4
X174.8Y-77.9
X174.8Y-123.4
X179.0Y-77.9
X179.0Y-123.4
X181.0Y-77.9
X181.0Y-123.4
X183.0Y-77.9
X183.0Y-123.4
T3
X141.0Y-94.3
X141.0Y-96.84
X141.0Y-99.38
X141.0Y-101.92
X141.0Y-104.46
X141.0Y-107.0
X141.0Y-111.25
X141.0Y-113.79
X141.0Y-116.33
X141.0Y-118.87
X146.232Y-81.95
X146.232Y-84.49
X146.232Y-87.03
X146.232Y-89.57
X146.232Y-92.11
X146.232Y-94.65
X146.232Y-97.19
X146.232Y-99.73
X146.232Y-102.27
X146.232Y-104.81
X146.232Y-107.35
X146.232Y-109.89
X166.552Y-81.95
X166.552Y-84.49
X166.552Y-87.03
X166.552Y-89.57
X166.552Y-92.11
X166.552Y-94.65
X166.552Y-97.19
X166.552Y-99.73
X166.552Y-102.27
X166.552Y-104.81
X166.552Y-107.35
X166.552Y-109.89
X166.552Y-112.43
X166.552Y-114.97
X166.552Y-117.51
X166.552Y-120.05
M30
