%TF.GenerationSoftware,KiCad,Pcbnew,9.0.5*%
%TF.CreationDate,2026-03-05T20:50:43+11:00*%
%TF.ProjectId,BODAQS shield Proto E SMD,424f4441-5153-4207-9368-69656c642050,rev?*%
%TF.SameCoordinates,Original*%
%TF.FileFunction,Copper,L2,Bot*%
%TF.FilePolarity,Positive*%
%FSLAX46Y46*%
G04 Gerber Fmt 4.6, Leading zero omitted, Abs format (unit mm)*
G04 Created by KiCad (PCBNEW 9.0.5) date 2026-03-05 20:50:43*
%MOMM*%
%LPD*%
G01*
G04 APERTURE LIST*
G04 Aperture macros list*
%AMRoundRect*
0 Rectangle with rounded corners*
0 $1 Rounding radius*
0 $2 $3 $4 $5 $6 $7 $8 $9 X,Y pos of 4 corners*
0 Add a 4 corners polygon primitive as box body*
4,1,4,$2,$3,$4,$5,$6,$7,$8,$9,$2,$3,0*
0 Add four circle primitives for the rounded corners*
1,1,$1+$1,$2,$3*
1,1,$1+$1,$4,$5*
1,1,$1+$1,$6,$7*
1,1,$1+$1,$8,$9*
0 Add four rect primitives between the rounded corners*
20,1,$1+$1,$2,$3,$4,$5,0*
20,1,$1+$1,$4,$5,$6,$7,0*
20,1,$1+$1,$6,$7,$8,$9,0*
20,1,$1+$1,$8,$9,$2,$3,0*%
G04 Aperture macros list end*
%TA.AperFunction,ComponentPad*%
%ADD10R,1.700000X1.700000*%
%TD*%
%TA.AperFunction,ComponentPad*%
%ADD11C,1.700000*%
%TD*%
%TA.AperFunction,ComponentPad*%
%ADD12R,1.350000X1.350000*%
%TD*%
%TA.AperFunction,ComponentPad*%
%ADD13C,1.350000*%
%TD*%
%TA.AperFunction,ComponentPad*%
%ADD14RoundRect,0.250000X1.050000X0.550000X-1.050000X0.550000X-1.050000X-0.550000X1.050000X-0.550000X0*%
%TD*%
%TA.AperFunction,ComponentPad*%
%ADD15O,2.600000X1.600000*%
%TD*%
%TA.AperFunction,ViaPad*%
%ADD16C,0.600000*%
%TD*%
%TA.AperFunction,Conductor*%
%ADD17C,0.500000*%
%TD*%
G04 APERTURE END LIST*
D10*
%TO.P,J4,1,Pin_1*%
%TO.N,GND*%
X141000000Y-107000000D03*
D11*
%TO.P,J4,2,Pin_2*%
%TO.N,Enter*%
X141000000Y-104460000D03*
%TO.P,J4,3,Pin_3*%
%TO.N,Right*%
X141000000Y-101920000D03*
%TO.P,J4,4,Pin_4*%
%TO.N,Left*%
X141000000Y-99380000D03*
%TO.P,J4,5,Pin_5*%
%TO.N,Down*%
X141000000Y-96840000D03*
%TO.P,J4,6,Pin_6*%
%TO.N,Up*%
X141000000Y-94300000D03*
%TD*%
D12*
%TO.P,J1,1,Pin_1*%
%TO.N,Net-(J1-Pin_1)*%
X179000000Y-123400000D03*
D13*
%TO.P,J1,2,Pin_2*%
%TO.N,Net-(J1-Pin_2)*%
X181000000Y-123400000D03*
%TO.P,J1,3,Pin_3*%
%TO.N,Net-(J1-Pin_3)*%
X183000000Y-123400000D03*
%TD*%
D10*
%TO.P,J9,1,Pin_1*%
%TO.N,+3V3*%
X141000000Y-118870000D03*
D11*
%TO.P,J9,2,Pin_2*%
%TO.N,GND*%
X141000000Y-116330000D03*
%TO.P,J9,3,Pin_3*%
%TO.N,RXI*%
X141000000Y-113790000D03*
%TO.P,J9,4,Pin_4*%
%TO.N, TXO*%
X141000000Y-111250000D03*
%TD*%
D12*
%TO.P,J5,1,Pin_1*%
%TO.N,GND*%
X141000000Y-83500000D03*
D13*
%TO.P,J5,2,Pin_2*%
%TO.N,+3V3*%
X141000000Y-81500000D03*
%TO.P,J5,3,Pin_3*%
%TO.N,SCL*%
X141000000Y-79500000D03*
%TO.P,J5,4,Pin_4*%
%TO.N,SDA*%
X141000000Y-77500000D03*
%TD*%
D12*
%TO.P,J3,1,Pin_1*%
%TO.N,GND*%
X141000000Y-90750000D03*
D13*
%TO.P,J3,2,Pin_2*%
%TO.N,Mark*%
X141000000Y-88750000D03*
%TO.P,J3,3,Pin_3*%
%TO.N, LED*%
X141000000Y-86750000D03*
%TD*%
D12*
%TO.P,J6,1,Pin_1*%
%TO.N,Net-(J6-Pin_1)*%
X183000000Y-77900000D03*
D13*
%TO.P,J6,2,Pin_2*%
%TO.N,Net-(J6-Pin_2)*%
X181000000Y-77900000D03*
%TO.P,J6,3,Pin_3*%
%TO.N,Net-(J6-Pin_3)*%
X179000000Y-77900000D03*
%TD*%
D12*
%TO.P,J8,1,Pin_1*%
%TO.N,Net-(J8-Pin_1)*%
X174800000Y-123400000D03*
D13*
%TO.P,J8,2,Pin_2*%
%TO.N,Net-(J8-Pin_2)*%
X172800000Y-123400000D03*
%TO.P,J8,3,Pin_3*%
%TO.N,Net-(J8-Pin_3)*%
X170800000Y-123400000D03*
%TD*%
D14*
%TO.P,U1,1,RESET*%
%TO.N,unconnected-(U1-RESET-Pad1)*%
X166252500Y-120050000D03*
D15*
%TO.P,U1,2,3.3V*%
%TO.N,+3V3*%
X166252500Y-117510000D03*
%TO.P,U1,3,NC*%
%TO.N,unconnected-(U1-NC-Pad3)*%
X166252500Y-114970000D03*
%TO.P,U1,4,GND*%
%TO.N,GND*%
X166252500Y-112430000D03*
%TO.P,U1,5,GPIO10*%
%TO.N,ANALOG4*%
X166252500Y-109890000D03*
%TO.P,U1,6,GPIO14*%
%TO.N,unconnected-(U1-GPIO14-Pad6)*%
X166252500Y-107350000D03*
%TO.P,U1,7,GPIO15*%
%TO.N,ANALOG1*%
X166252500Y-104810000D03*
%TO.P,U1,8,GPIO16*%
%TO.N,unconnected-(U1-GPIO16-Pad8)*%
X166252500Y-102270000D03*
%TO.P,U1,9,GPIO17*%
%TO.N,ANALOG2*%
X166252500Y-99730000D03*
%TO.P,U1,10,GPIO18*%
%TO.N,ANALOG3*%
X166252500Y-97190000D03*
%TO.P,U1,11,GPIO12*%
%TO.N,unconnected-(U1-GPIO12-Pad11)*%
X166252500Y-94650000D03*
%TO.P,U1,12,GPIO11*%
%TO.N,unconnected-(U1-GPIO11-Pad12)*%
X166252500Y-92110000D03*
%TO.P,U1,13,GPIO13*%
%TO.N,unconnected-(U1-GPIO13-Pad13)*%
X166252500Y-89570000D03*
%TO.P,U1,14,GPIO44*%
%TO.N,RXI*%
X166252500Y-87030000D03*
%TO.P,U1,15,GPIO43*%
%TO.N, TXO*%
X166252500Y-84490000D03*
%TO.P,U1,16,GPIO42*%
%TO.N,unconnected-(U1-GPIO42-Pad16)*%
X166252500Y-81950000D03*
%TO.P,U1,17,GPIO21*%
%TO.N,SDA*%
X146532500Y-81950000D03*
%TO.P,U1,18,GPIO22*%
%TO.N,SCL*%
X146532500Y-84490000D03*
%TO.P,U1,19,GPIO9*%
%TO.N, LED*%
X146532500Y-87030000D03*
%TO.P,U1,20,GPIO2*%
%TO.N,Mark*%
X146532500Y-89570000D03*
%TO.P,U1,21,GPIO4*%
%TO.N,Up*%
X146532500Y-92110000D03*
%TO.P,U1,22,GPIO5*%
%TO.N,Down*%
X146532500Y-94650000D03*
%TO.P,U1,23,GPIO6*%
%TO.N,Left*%
X146532500Y-97190000D03*
%TO.P,U1,24,GPIO7*%
%TO.N,Right*%
X146532500Y-99730000D03*
%TO.P,U1,25,GPIO21*%
%TO.N,Enter*%
X146532500Y-102270000D03*
%TO.P,U1,26,VUSB*%
%TO.N,unconnected-(U1-VUSB-Pad26)*%
X146532500Y-104810000D03*
%TO.P,U1,27,3V3EN*%
%TO.N,unconnected-(U1-3V3EN-Pad27)*%
X146532500Y-107350000D03*
%TO.P,U1,28,VBAT*%
%TO.N,VBAT*%
X146532500Y-109890000D03*
%TD*%
D12*
%TO.P,J7,1,Pin_1*%
%TO.N,Net-(J7-Pin_1)*%
X170800000Y-77900000D03*
D13*
%TO.P,J7,2,Pin_2*%
%TO.N,Net-(J7-Pin_2)*%
X172800000Y-77900000D03*
%TO.P,J7,3,Pin_3*%
%TO.N,Net-(J7-Pin_3)*%
X174800000Y-77900000D03*
%TD*%
D16*
%TO.N,AGND*%
X183900000Y-92200000D03*
X170600000Y-92800000D03*
X176900000Y-127100000D03*
%TO.N,GND*%
X156300000Y-78300000D03*
X148400000Y-77800000D03*
X163700000Y-78200000D03*
X162500000Y-108400000D03*
X152100000Y-108400000D03*
X154900000Y-127700000D03*
X140900000Y-127100000D03*
X165900000Y-127700000D03*
X170000000Y-114000000D03*
X178300000Y-114500000D03*
%TO.N,Net-(U2B--)*%
X172400000Y-105300000D03*
X177499000Y-110391000D03*
%TO.N,Net-(U2C--)*%
X179900000Y-92300000D03*
X178200000Y-94000000D03*
%TO.N,Net-(U2D--)*%
X172400000Y-90900000D03*
X171700000Y-97300000D03*
%TO.N,Net-(U2A-+)*%
X172800000Y-114800000D03*
X176400000Y-97600000D03*
%TO.N,Net-(U2A--)*%
X173800000Y-98400000D03*
X170500000Y-108700000D03*
%TO.N,AGND*%
X182700000Y-112700000D03*
X174900000Y-104000000D03*
X172400000Y-111500000D03*
X184400000Y-115000000D03*
X172400000Y-107900000D03*
X172900000Y-101200000D03*
%TO.N,VBAT*%
X178200000Y-111100000D03*
%TO.N,A3V3*%
X177700000Y-97500000D03*
X169700000Y-82800000D03*
X177900000Y-100100000D03*
X184200000Y-82000000D03*
%TD*%
D17*
%TO.N,GND*%
X177249000Y-115551000D02*
X171551000Y-115551000D01*
X171551000Y-115551000D02*
X170000000Y-114000000D01*
X178300000Y-114500000D02*
X177249000Y-115551000D01*
%TO.N,AGND*%
X184400000Y-115000000D02*
X184400000Y-114400000D01*
%TO.N,Net-(U2B--)*%
X172408000Y-105300000D02*
X172400000Y-105300000D01*
X177499000Y-110391000D02*
X172408000Y-105300000D01*
%TO.N,Net-(U2C--)*%
X178200000Y-94000000D02*
X179900000Y-92300000D01*
%TO.N,Net-(U2D--)*%
X171700000Y-97300000D02*
X171700000Y-91600000D01*
X171700000Y-91600000D02*
X172400000Y-90900000D01*
%TO.N,Net-(U2A-+)*%
X176400000Y-99662075D02*
X176400000Y-97600000D01*
X172800000Y-114800000D02*
X175562075Y-114800000D01*
X178951000Y-102213075D02*
X176400000Y-99662075D01*
X175562075Y-114800000D02*
X178951000Y-111411075D01*
X178951000Y-111411075D02*
X178951000Y-102213075D01*
%TO.N,Net-(U2A--)*%
X169200000Y-108100000D02*
X168100000Y-107000000D01*
X170500000Y-108700000D02*
X169900000Y-108100000D01*
X168100000Y-107000000D02*
X168100000Y-104100000D01*
X169900000Y-108100000D02*
X169200000Y-108100000D01*
X168100000Y-104100000D02*
X173800000Y-98400000D01*
%TO.N,AGND*%
X174900000Y-104000000D02*
X174900000Y-103200000D01*
%TO.N,VBAT*%
X169200000Y-113500000D02*
X169200000Y-121700000D01*
X169500000Y-113200000D02*
X169200000Y-113500000D01*
X158042500Y-121700000D02*
X146232500Y-109890000D01*
X169500000Y-113200000D02*
X176100000Y-113200000D01*
X176100000Y-113200000D02*
X178200000Y-111100000D01*
X169200000Y-121700000D02*
X158042500Y-121700000D01*
%TO.N,A3V3*%
X177700000Y-97500000D02*
X175800000Y-95600000D01*
X177700000Y-88500000D02*
X172000000Y-82800000D01*
X177900000Y-97700000D02*
X177700000Y-97500000D01*
X177900000Y-100100000D02*
X177900000Y-97700000D01*
X175800000Y-90400000D02*
X177700000Y-88500000D01*
X177700000Y-88500000D02*
X184200000Y-82000000D01*
X172000000Y-82800000D02*
X169700000Y-82800000D01*
X175800000Y-95600000D02*
X175800000Y-90400000D01*
%TO.N,RXI*%
X145514319Y-108639000D02*
X141000000Y-113153319D01*
X148283500Y-107868181D02*
X147512681Y-108639000D01*
X159300000Y-95815319D02*
X148283500Y-106831819D01*
X166523319Y-87030000D02*
X159300000Y-94253319D01*
X159300000Y-94253319D02*
X159300000Y-95815319D01*
X148283500Y-106831819D02*
X148283500Y-107868181D01*
X147512681Y-108639000D02*
X145514319Y-108639000D01*
X141000000Y-113153319D02*
X141000000Y-113790000D01*
X166552500Y-87030000D02*
X166523319Y-87030000D01*
%TO.N, TXO*%
X141000000Y-111250000D02*
X141000000Y-110047919D01*
X158672000Y-92341319D02*
X166523319Y-84490000D01*
X166523319Y-84490000D02*
X166552500Y-84490000D01*
X144948919Y-106099000D02*
X147512681Y-106099000D01*
X141000000Y-110047919D02*
X144948919Y-106099000D01*
X158672000Y-94939681D02*
X158672000Y-92341319D01*
X147512681Y-106099000D02*
X158672000Y-94939681D01*
%TD*%
%TA.AperFunction,Conductor*%
%TO.N,AGND*%
G36*
X184819623Y-82591526D02*
G01*
X184841502Y-82593091D01*
X184852457Y-82601292D01*
X184865572Y-82605193D01*
X184879876Y-82621818D01*
X184897435Y-82634963D01*
X184902216Y-82647783D01*
X184911142Y-82658157D01*
X184914187Y-82679877D01*
X184921852Y-82700427D01*
X184922168Y-82709273D01*
X184922168Y-128425500D01*
X184902483Y-128492539D01*
X184849679Y-128538294D01*
X184798168Y-128549500D01*
X169064864Y-128549500D01*
X168997825Y-128529815D01*
X168952070Y-128477011D01*
X168940864Y-128425839D01*
X168940863Y-128425500D01*
X168926851Y-123307486D01*
X169624500Y-123307486D01*
X169624500Y-123492513D01*
X169653445Y-123675265D01*
X169710619Y-123851232D01*
X169710620Y-123851235D01*
X169794622Y-124016096D01*
X169903379Y-124165787D01*
X170034213Y-124296621D01*
X170183904Y-124405378D01*
X170237224Y-124432546D01*
X170348764Y-124489379D01*
X170348767Y-124489380D01*
X170436750Y-124517967D01*
X170524736Y-124546555D01*
X170707486Y-124575500D01*
X170707487Y-124575500D01*
X170892513Y-124575500D01*
X170892514Y-124575500D01*
X171075264Y-124546555D01*
X171251235Y-124489379D01*
X171416096Y-124405378D01*
X171565787Y-124296621D01*
X171696621Y-124165787D01*
X171699680Y-124161576D01*
X171755006Y-124118909D01*
X171824619Y-124112926D01*
X171886415Y-124145529D01*
X171900315Y-124161570D01*
X171903379Y-124165787D01*
X172034213Y-124296621D01*
X172183904Y-124405378D01*
X172237224Y-124432546D01*
X172348764Y-124489379D01*
X172348767Y-124489380D01*
X172436750Y-124517967D01*
X172524736Y-124546555D01*
X172707486Y-124575500D01*
X172707487Y-124575500D01*
X172892513Y-124575500D01*
X172892514Y-124575500D01*
X173075264Y-124546555D01*
X173251235Y-124489379D01*
X173416096Y-124405378D01*
X173531608Y-124321453D01*
X173597412Y-124297974D01*
X173665466Y-124313799D01*
X173703758Y-124347460D01*
X173767455Y-124432547D01*
X173882664Y-124518793D01*
X173882671Y-124518797D01*
X174017517Y-124569091D01*
X174017516Y-124569091D01*
X174024444Y-124569835D01*
X174077127Y-124575500D01*
X175522872Y-124575499D01*
X175582483Y-124569091D01*
X175717331Y-124518796D01*
X175832546Y-124432546D01*
X175918796Y-124317331D01*
X175969091Y-124182483D01*
X175975500Y-124122873D01*
X175975499Y-122677135D01*
X177824500Y-122677135D01*
X177824500Y-124122870D01*
X177824501Y-124122876D01*
X177830908Y-124182483D01*
X177881202Y-124317328D01*
X177881206Y-124317335D01*
X177967452Y-124432544D01*
X177967455Y-124432547D01*
X178082664Y-124518793D01*
X178082671Y-124518797D01*
X178217517Y-124569091D01*
X178217516Y-124569091D01*
X178224444Y-124569835D01*
X178277127Y-124575500D01*
X179722872Y-124575499D01*
X179782483Y-124569091D01*
X179917331Y-124518796D01*
X180032546Y-124432546D01*
X180096241Y-124347459D01*
X180152174Y-124305590D01*
X180221866Y-124300606D01*
X180268392Y-124321453D01*
X180383904Y-124405378D01*
X180437224Y-124432546D01*
X180548764Y-124489379D01*
X180548767Y-124489380D01*
X180636750Y-124517967D01*
X180724736Y-124546555D01*
X180907486Y-124575500D01*
X180907487Y-124575500D01*
X181092513Y-124575500D01*
X181092514Y-124575500D01*
X181275264Y-124546555D01*
X181451235Y-124489379D01*
X181616096Y-124405378D01*
X181765787Y-124296621D01*
X181896621Y-124165787D01*
X181899680Y-124161576D01*
X181955006Y-124118909D01*
X182024619Y-124112926D01*
X182086415Y-124145529D01*
X182100315Y-124161570D01*
X182103379Y-124165787D01*
X182234213Y-124296621D01*
X182383904Y-124405378D01*
X182437224Y-124432546D01*
X182548764Y-124489379D01*
X182548767Y-124489380D01*
X182636750Y-124517967D01*
X182724736Y-124546555D01*
X182907486Y-124575500D01*
X182907487Y-124575500D01*
X183092513Y-124575500D01*
X183092514Y-124575500D01*
X183275264Y-124546555D01*
X183451235Y-124489379D01*
X183616096Y-124405378D01*
X183765787Y-124296621D01*
X183896621Y-124165787D01*
X184005378Y-124016096D01*
X184089379Y-123851235D01*
X184146555Y-123675264D01*
X184175500Y-123492514D01*
X184175500Y-123307486D01*
X184146555Y-123124736D01*
X184089379Y-122948765D01*
X184089379Y-122948764D01*
X184005377Y-122783903D01*
X183999999Y-122776501D01*
X183896621Y-122634213D01*
X183765787Y-122503379D01*
X183616096Y-122394622D01*
X183562778Y-122367455D01*
X183451235Y-122310620D01*
X183451232Y-122310619D01*
X183275265Y-122253445D01*
X183132972Y-122230908D01*
X183092514Y-122224500D01*
X182907486Y-122224500D01*
X182867028Y-122230908D01*
X182724734Y-122253445D01*
X182548767Y-122310619D01*
X182548764Y-122310620D01*
X182383903Y-122394622D01*
X182306995Y-122450500D01*
X182234213Y-122503379D01*
X182234211Y-122503381D01*
X182234210Y-122503381D01*
X182103381Y-122634210D01*
X182100314Y-122638432D01*
X182044981Y-122681094D01*
X181975367Y-122687069D01*
X181913574Y-122654459D01*
X181899686Y-122638432D01*
X181896621Y-122634213D01*
X181765787Y-122503379D01*
X181616096Y-122394622D01*
X181562778Y-122367455D01*
X181451235Y-122310620D01*
X181451232Y-122310619D01*
X181275265Y-122253445D01*
X181132972Y-122230908D01*
X181092514Y-122224500D01*
X180907486Y-122224500D01*
X180867028Y-122230908D01*
X180724734Y-122253445D01*
X180548767Y-122310619D01*
X180548764Y-122310620D01*
X180383900Y-122394624D01*
X180268392Y-122478545D01*
X180202586Y-122502025D01*
X180134532Y-122486199D01*
X180096241Y-122452539D01*
X180052884Y-122394622D01*
X180032546Y-122367454D01*
X180032544Y-122367453D01*
X180032544Y-122367452D01*
X179917335Y-122281206D01*
X179917328Y-122281202D01*
X179782482Y-122230908D01*
X179782483Y-122230908D01*
X179722883Y-122224501D01*
X179722881Y-122224500D01*
X179722873Y-122224500D01*
X179722864Y-122224500D01*
X178277129Y-122224500D01*
X178277123Y-122224501D01*
X178217516Y-122230908D01*
X178082671Y-122281202D01*
X178082664Y-122281206D01*
X177967455Y-122367452D01*
X177967452Y-122367455D01*
X177881206Y-122482664D01*
X177881202Y-122482671D01*
X177830908Y-122617517D01*
X177824501Y-122677116D01*
X177824500Y-122677135D01*
X175975499Y-122677135D01*
X175975499Y-122677128D01*
X175969091Y-122617517D01*
X175955775Y-122581816D01*
X175918797Y-122482671D01*
X175918793Y-122482664D01*
X175832547Y-122367455D01*
X175832544Y-122367452D01*
X175717335Y-122281206D01*
X175717328Y-122281202D01*
X175582482Y-122230908D01*
X175582483Y-122230908D01*
X175522883Y-122224501D01*
X175522881Y-122224500D01*
X175522873Y-122224500D01*
X175522864Y-122224500D01*
X174077129Y-122224500D01*
X174077123Y-122224501D01*
X174017516Y-122230908D01*
X173882671Y-122281202D01*
X173882664Y-122281206D01*
X173767455Y-122367452D01*
X173703758Y-122452539D01*
X173647823Y-122494410D01*
X173578132Y-122499393D01*
X173531607Y-122478545D01*
X173416099Y-122394624D01*
X173416098Y-122394623D01*
X173416096Y-122394622D01*
X173358130Y-122365087D01*
X173251235Y-122310620D01*
X173251232Y-122310619D01*
X173075265Y-122253445D01*
X172932972Y-122230908D01*
X172892514Y-122224500D01*
X172707486Y-122224500D01*
X172667028Y-122230908D01*
X172524734Y-122253445D01*
X172348767Y-122310619D01*
X172348764Y-122310620D01*
X172183903Y-122394622D01*
X172106995Y-122450500D01*
X172034213Y-122503379D01*
X172034211Y-122503381D01*
X172034210Y-122503381D01*
X171903381Y-122634210D01*
X171900314Y-122638432D01*
X171844981Y-122681094D01*
X171775367Y-122687069D01*
X171713574Y-122654459D01*
X171699686Y-122638432D01*
X171696621Y-122634213D01*
X171565787Y-122503379D01*
X171416096Y-122394622D01*
X171362778Y-122367455D01*
X171251235Y-122310620D01*
X171251232Y-122310619D01*
X171075265Y-122253445D01*
X170932972Y-122230908D01*
X170892514Y-122224500D01*
X170707486Y-122224500D01*
X170667028Y-122230908D01*
X170524734Y-122253445D01*
X170348767Y-122310619D01*
X170348764Y-122310620D01*
X170183903Y-122394622D01*
X170106995Y-122450500D01*
X170034213Y-122503379D01*
X170034211Y-122503381D01*
X170034210Y-122503381D01*
X169903381Y-122634210D01*
X169903381Y-122634211D01*
X169903379Y-122634213D01*
X169872198Y-122677130D01*
X169794622Y-122783903D01*
X169710620Y-122948764D01*
X169710619Y-122948767D01*
X169653445Y-123124734D01*
X169624500Y-123307486D01*
X168926851Y-123307486D01*
X168924845Y-122574837D01*
X168944346Y-122507746D01*
X168997025Y-122461847D01*
X169048845Y-122450500D01*
X169273920Y-122450500D01*
X169371462Y-122431096D01*
X169418913Y-122421658D01*
X169555495Y-122365084D01*
X169678416Y-122282951D01*
X169782951Y-122178416D01*
X169865084Y-122055495D01*
X169921658Y-121918913D01*
X169950500Y-121773918D01*
X169950500Y-115311229D01*
X169970185Y-115244190D01*
X170022989Y-115198435D01*
X170092147Y-115188491D01*
X170155703Y-115217516D01*
X170162181Y-115223548D01*
X171072580Y-116133948D01*
X171072584Y-116133951D01*
X171195498Y-116216080D01*
X171195511Y-116216087D01*
X171332082Y-116272656D01*
X171332087Y-116272658D01*
X171332091Y-116272658D01*
X171332092Y-116272659D01*
X171477079Y-116301500D01*
X171477082Y-116301500D01*
X177322920Y-116301500D01*
X177420462Y-116282096D01*
X177467913Y-116272658D01*
X177604495Y-116216084D01*
X177653729Y-116183186D01*
X177727416Y-116133952D01*
X178615297Y-115246069D01*
X178655522Y-115219192D01*
X178679179Y-115209394D01*
X178810289Y-115121789D01*
X178921789Y-115010289D01*
X179009394Y-114879179D01*
X179069737Y-114733497D01*
X179100500Y-114578842D01*
X179100500Y-114421158D01*
X179100500Y-114421155D01*
X179100499Y-114421153D01*
X179093805Y-114387500D01*
X179069737Y-114266503D01*
X179069735Y-114266498D01*
X179009397Y-114120827D01*
X179009390Y-114120814D01*
X178921789Y-113989711D01*
X178921786Y-113989707D01*
X178810292Y-113878213D01*
X178810288Y-113878210D01*
X178679185Y-113790609D01*
X178679172Y-113790602D01*
X178533501Y-113730264D01*
X178533489Y-113730261D01*
X178378845Y-113699500D01*
X178378842Y-113699500D01*
X178221158Y-113699500D01*
X178221155Y-113699500D01*
X178066510Y-113730261D01*
X178066502Y-113730263D01*
X178005136Y-113755681D01*
X177935666Y-113763148D01*
X177873188Y-113731872D01*
X177837536Y-113671783D01*
X177840031Y-113601958D01*
X177870002Y-113553440D01*
X179533952Y-111889491D01*
X179593427Y-111800479D01*
X179616084Y-111766570D01*
X179646607Y-111692881D01*
X179672659Y-111629987D01*
X179701500Y-111484992D01*
X179701500Y-111337157D01*
X179701500Y-102139157D01*
X179701500Y-102139154D01*
X179672659Y-101994167D01*
X179672658Y-101994166D01*
X179672658Y-101994162D01*
X179627652Y-101885507D01*
X179616085Y-101857582D01*
X179598547Y-101831335D01*
X179560906Y-101775000D01*
X179560904Y-101774997D01*
X179533954Y-101734661D01*
X178548803Y-100749510D01*
X178515318Y-100688187D01*
X178520302Y-100618495D01*
X178533377Y-100592944D01*
X178609394Y-100479179D01*
X178669737Y-100333497D01*
X178700500Y-100178842D01*
X178700500Y-100021158D01*
X178700500Y-100021155D01*
X178700499Y-100021153D01*
X178669739Y-99866511D01*
X178669738Y-99866508D01*
X178669737Y-99866503D01*
X178659937Y-99842844D01*
X178650500Y-99795396D01*
X178650500Y-97626081D01*
X178650499Y-97626080D01*
X178640124Y-97573918D01*
X178621659Y-97481088D01*
X178574196Y-97366503D01*
X178565084Y-97344505D01*
X178512965Y-97266503D01*
X178482952Y-97221584D01*
X178441701Y-97180333D01*
X178437788Y-97175551D01*
X178434046Y-97166707D01*
X178419191Y-97144475D01*
X178409394Y-97120821D01*
X178359141Y-97045612D01*
X178321789Y-96989710D01*
X178210292Y-96878213D01*
X178210288Y-96878210D01*
X178079185Y-96790609D01*
X178079175Y-96790604D01*
X178055523Y-96780807D01*
X178015295Y-96753927D01*
X176586819Y-95325451D01*
X176553334Y-95264128D01*
X176550500Y-95237770D01*
X176550500Y-93921153D01*
X177399500Y-93921153D01*
X177399500Y-94078846D01*
X177430261Y-94233489D01*
X177430264Y-94233501D01*
X177490602Y-94379172D01*
X177490609Y-94379185D01*
X177578210Y-94510288D01*
X177578213Y-94510292D01*
X177689707Y-94621786D01*
X177689711Y-94621789D01*
X177820814Y-94709390D01*
X177820827Y-94709397D01*
X177901666Y-94742881D01*
X177966503Y-94769737D01*
X178090411Y-94794384D01*
X178121153Y-94800499D01*
X178121156Y-94800500D01*
X178121158Y-94800500D01*
X178278844Y-94800500D01*
X178278845Y-94800499D01*
X178433497Y-94769737D01*
X178579179Y-94709394D01*
X178710289Y-94621789D01*
X178821789Y-94510289D01*
X178909394Y-94379179D01*
X178919191Y-94355524D01*
X178946069Y-94315297D01*
X180215297Y-93046069D01*
X180255524Y-93019191D01*
X180279179Y-93009394D01*
X180410289Y-92921789D01*
X180521789Y-92810289D01*
X180609394Y-92679179D01*
X180669737Y-92533497D01*
X180700500Y-92378842D01*
X180700500Y-92221158D01*
X180700500Y-92221155D01*
X180700499Y-92221153D01*
X180688088Y-92158761D01*
X180669737Y-92066503D01*
X180635855Y-91984703D01*
X180609397Y-91920827D01*
X180609390Y-91920814D01*
X180521789Y-91789711D01*
X180521786Y-91789707D01*
X180410292Y-91678213D01*
X180410288Y-91678210D01*
X180279185Y-91590609D01*
X180279172Y-91590602D01*
X180133501Y-91530264D01*
X180133489Y-91530261D01*
X179978845Y-91499500D01*
X179978842Y-91499500D01*
X179821158Y-91499500D01*
X179821155Y-91499500D01*
X179666510Y-91530261D01*
X179666498Y-91530264D01*
X179520827Y-91590602D01*
X179520814Y-91590609D01*
X179389711Y-91678210D01*
X179389707Y-91678213D01*
X179278213Y-91789707D01*
X179278207Y-91789715D01*
X179190607Y-91920818D01*
X179190606Y-91920819D01*
X179180805Y-91944480D01*
X179153927Y-91984703D01*
X177884703Y-93253927D01*
X177844480Y-93280805D01*
X177820819Y-93290606D01*
X177820818Y-93290607D01*
X177689715Y-93378207D01*
X177689707Y-93378213D01*
X177578213Y-93489707D01*
X177578210Y-93489711D01*
X177490609Y-93620814D01*
X177490602Y-93620827D01*
X177430264Y-93766498D01*
X177430261Y-93766510D01*
X177399500Y-93921153D01*
X176550500Y-93921153D01*
X176550500Y-90762230D01*
X176570185Y-90695191D01*
X176586819Y-90674549D01*
X177443076Y-89818292D01*
X178282952Y-88978416D01*
X178282952Y-88978415D01*
X184515297Y-82746068D01*
X184536299Y-82729205D01*
X184545470Y-82723355D01*
X184579179Y-82709394D01*
X184710289Y-82621789D01*
X184720066Y-82612011D01*
X184731494Y-82604724D01*
X184752559Y-82598618D01*
X184771810Y-82588107D01*
X184785459Y-82589083D01*
X184798602Y-82585274D01*
X184819623Y-82591526D01*
G37*
%TD.AperFunction*%
%TA.AperFunction,Conductor*%
G36*
X169258252Y-83479026D02*
G01*
X169266554Y-83479175D01*
X169298392Y-83494408D01*
X169320812Y-83509389D01*
X169320827Y-83509397D01*
X169420060Y-83550500D01*
X169466503Y-83569737D01*
X169621153Y-83600499D01*
X169621156Y-83600500D01*
X169621158Y-83600500D01*
X169778844Y-83600500D01*
X169778845Y-83600499D01*
X169855152Y-83585320D01*
X169933488Y-83569739D01*
X169933489Y-83569738D01*
X169933497Y-83569737D01*
X169957155Y-83559937D01*
X170004604Y-83550500D01*
X171637770Y-83550500D01*
X171704809Y-83570185D01*
X171725451Y-83586819D01*
X176550951Y-88412318D01*
X176584436Y-88473641D01*
X176579452Y-88543333D01*
X176550951Y-88587680D01*
X175217047Y-89921584D01*
X175206031Y-89938071D01*
X175195063Y-89954488D01*
X175186610Y-89967139D01*
X175134914Y-90044507D01*
X175078343Y-90181082D01*
X175078340Y-90181092D01*
X175049500Y-90326079D01*
X175049500Y-90326082D01*
X175049500Y-95673918D01*
X175049500Y-95673920D01*
X175049499Y-95673920D01*
X175078340Y-95818907D01*
X175078343Y-95818917D01*
X175134913Y-95955490D01*
X175134914Y-95955492D01*
X175164665Y-96000017D01*
X175164666Y-96000019D01*
X175217043Y-96078410D01*
X175217047Y-96078415D01*
X175919026Y-96780394D01*
X175952511Y-96841717D01*
X175947527Y-96911409D01*
X175905655Y-96967342D01*
X175900241Y-96971174D01*
X175889711Y-96978210D01*
X175889707Y-96978213D01*
X175778213Y-97089707D01*
X175778210Y-97089711D01*
X175690609Y-97220814D01*
X175690602Y-97220827D01*
X175630264Y-97366498D01*
X175630261Y-97366510D01*
X175599500Y-97521153D01*
X175599500Y-97678846D01*
X175630261Y-97833489D01*
X175630263Y-97833497D01*
X175640061Y-97857151D01*
X175649500Y-97904604D01*
X175649500Y-99735993D01*
X175649500Y-99735995D01*
X175649499Y-99735995D01*
X175678340Y-99880982D01*
X175678343Y-99880992D01*
X175734914Y-100017567D01*
X175767812Y-100066802D01*
X175767813Y-100066805D01*
X175817046Y-100140489D01*
X175817052Y-100140496D01*
X178164181Y-102487624D01*
X178197666Y-102548947D01*
X178200500Y-102575305D01*
X178200500Y-109664986D01*
X178198268Y-109672585D01*
X178199538Y-109680405D01*
X178188563Y-109705635D01*
X178180815Y-109732025D01*
X178174829Y-109737211D01*
X178171670Y-109744476D01*
X178148798Y-109759767D01*
X178128011Y-109777780D01*
X178120171Y-109778907D01*
X178113586Y-109783310D01*
X178086081Y-109783808D01*
X178058853Y-109787724D01*
X178049869Y-109784465D01*
X178043728Y-109784577D01*
X178018804Y-109773198D01*
X178011363Y-109770500D01*
X178009311Y-109769233D01*
X178009289Y-109769211D01*
X177878179Y-109681606D01*
X177845316Y-109667993D01*
X177836837Y-109662759D01*
X177830606Y-109655827D01*
X177814293Y-109644926D01*
X173140415Y-104971047D01*
X173113535Y-104930818D01*
X173109397Y-104920828D01*
X173109396Y-104920827D01*
X173109394Y-104920821D01*
X173031887Y-104804823D01*
X173021789Y-104789710D01*
X172910292Y-104678213D01*
X172910288Y-104678210D01*
X172779185Y-104590609D01*
X172779172Y-104590602D01*
X172633501Y-104530264D01*
X172633489Y-104530261D01*
X172478845Y-104499500D01*
X172478842Y-104499500D01*
X172321158Y-104499500D01*
X172321155Y-104499500D01*
X172166510Y-104530261D01*
X172166498Y-104530264D01*
X172020827Y-104590602D01*
X172020814Y-104590609D01*
X171889711Y-104678210D01*
X171889707Y-104678213D01*
X171778213Y-104789707D01*
X171778210Y-104789711D01*
X171690609Y-104920814D01*
X171690602Y-104920827D01*
X171630264Y-105066498D01*
X171630261Y-105066510D01*
X171599500Y-105221153D01*
X171599500Y-105378846D01*
X171630261Y-105533489D01*
X171630264Y-105533501D01*
X171690602Y-105679172D01*
X171690609Y-105679185D01*
X171778210Y-105810288D01*
X171778213Y-105810292D01*
X171889707Y-105921786D01*
X171889711Y-105921789D01*
X172020814Y-106009390D01*
X172020816Y-106009391D01*
X172020821Y-106009394D01*
X172058135Y-106024849D01*
X172098360Y-106051728D01*
X176752926Y-110706293D01*
X176779806Y-110746520D01*
X176789606Y-110770178D01*
X176789609Y-110770185D01*
X176877210Y-110901288D01*
X176877213Y-110901292D01*
X176988706Y-111012785D01*
X176988709Y-111012787D01*
X176988711Y-111012789D01*
X177005230Y-111023827D01*
X177050035Y-111077437D01*
X177058744Y-111146761D01*
X177028590Y-111209790D01*
X177024021Y-111214610D01*
X175825451Y-112413181D01*
X175764128Y-112446666D01*
X175737770Y-112449500D01*
X169426080Y-112449500D01*
X169281092Y-112478340D01*
X169281086Y-112478342D01*
X169144508Y-112534914D01*
X169144500Y-112534919D01*
X169107654Y-112559537D01*
X169040975Y-112580412D01*
X168973596Y-112561925D01*
X168926908Y-112509944D01*
X168914770Y-112455795D01*
X168932917Y-108962524D01*
X168952949Y-108895591D01*
X169005990Y-108850111D01*
X169075199Y-108840526D01*
X169081107Y-108841554D01*
X169126079Y-108850500D01*
X169126082Y-108850500D01*
X169126083Y-108850500D01*
X169273917Y-108850500D01*
X169537770Y-108850500D01*
X169567210Y-108859144D01*
X169597197Y-108865668D01*
X169602212Y-108869422D01*
X169604809Y-108870185D01*
X169625451Y-108886819D01*
X169753927Y-109015295D01*
X169780806Y-109055521D01*
X169790606Y-109079179D01*
X169790607Y-109079181D01*
X169878207Y-109210284D01*
X169878213Y-109210292D01*
X169989707Y-109321786D01*
X169989711Y-109321789D01*
X170120814Y-109409390D01*
X170120827Y-109409397D01*
X170222076Y-109451335D01*
X170266503Y-109469737D01*
X170421153Y-109500499D01*
X170421156Y-109500500D01*
X170421158Y-109500500D01*
X170578844Y-109500500D01*
X170578845Y-109500499D01*
X170733497Y-109469737D01*
X170879179Y-109409394D01*
X171010289Y-109321789D01*
X171121789Y-109210289D01*
X171209394Y-109079179D01*
X171269737Y-108933497D01*
X171300500Y-108778842D01*
X171300500Y-108621158D01*
X171300500Y-108621155D01*
X171300499Y-108621153D01*
X171269737Y-108466503D01*
X171250352Y-108419703D01*
X171209397Y-108320827D01*
X171209390Y-108320814D01*
X171121789Y-108189711D01*
X171121786Y-108189707D01*
X171010292Y-108078213D01*
X171010284Y-108078207D01*
X170879181Y-107990607D01*
X170879179Y-107990606D01*
X170855521Y-107980806D01*
X170815295Y-107953927D01*
X170378421Y-107517052D01*
X170378418Y-107517049D01*
X170301546Y-107465686D01*
X170255495Y-107434916D01*
X170255492Y-107434914D01*
X170255491Y-107434914D01*
X170118917Y-107378343D01*
X170118907Y-107378340D01*
X169973920Y-107349500D01*
X169973918Y-107349500D01*
X169562230Y-107349500D01*
X169495191Y-107329815D01*
X169474549Y-107313181D01*
X168980825Y-106819457D01*
X168947340Y-106758134D01*
X168944509Y-106731143D01*
X168956851Y-104355231D01*
X168976883Y-104288298D01*
X168993159Y-104268207D01*
X174115295Y-99146070D01*
X174155519Y-99119193D01*
X174179179Y-99109394D01*
X174310289Y-99021789D01*
X174421789Y-98910289D01*
X174509394Y-98779179D01*
X174569737Y-98633497D01*
X174600500Y-98478842D01*
X174600500Y-98321158D01*
X174600500Y-98321155D01*
X174600499Y-98321153D01*
X174591989Y-98278372D01*
X174569737Y-98166503D01*
X174542398Y-98100500D01*
X174509397Y-98020827D01*
X174509390Y-98020814D01*
X174421789Y-97889711D01*
X174421786Y-97889707D01*
X174310292Y-97778213D01*
X174310288Y-97778210D01*
X174179185Y-97690609D01*
X174179172Y-97690602D01*
X174033501Y-97630264D01*
X174033489Y-97630261D01*
X173878845Y-97599500D01*
X173878842Y-97599500D01*
X173721158Y-97599500D01*
X173721155Y-97599500D01*
X173566510Y-97630261D01*
X173566498Y-97630264D01*
X173420827Y-97690602D01*
X173420814Y-97690609D01*
X173289711Y-97778210D01*
X173289707Y-97778213D01*
X173178213Y-97889707D01*
X173178207Y-97889715D01*
X173090607Y-98020818D01*
X173090605Y-98020822D01*
X173080805Y-98044480D01*
X173053927Y-98084704D01*
X169181446Y-101957183D01*
X169120123Y-101990668D01*
X169050431Y-101985684D01*
X168994498Y-101943812D01*
X168970081Y-101878348D01*
X168969767Y-101868882D01*
X168993911Y-97221158D01*
X170899500Y-97221158D01*
X170899500Y-97229001D01*
X170899500Y-97378846D01*
X170930261Y-97533489D01*
X170930264Y-97533501D01*
X170990602Y-97679172D01*
X170990609Y-97679185D01*
X171078210Y-97810288D01*
X171078213Y-97810292D01*
X171189707Y-97921786D01*
X171189711Y-97921789D01*
X171320814Y-98009390D01*
X171320827Y-98009397D01*
X171466498Y-98069735D01*
X171466503Y-98069737D01*
X171621153Y-98100499D01*
X171621156Y-98100500D01*
X171621158Y-98100500D01*
X171778844Y-98100500D01*
X171778845Y-98100499D01*
X171933497Y-98069737D01*
X172051599Y-98020818D01*
X172079172Y-98009397D01*
X172079172Y-98009396D01*
X172079179Y-98009394D01*
X172210289Y-97921789D01*
X172321789Y-97810289D01*
X172409394Y-97679179D01*
X172469737Y-97533497D01*
X172500500Y-97378842D01*
X172500500Y-97221158D01*
X172500500Y-97221155D01*
X172500499Y-97221153D01*
X172469739Y-97066511D01*
X172469738Y-97066508D01*
X172469737Y-97066503D01*
X172459937Y-97042844D01*
X172450500Y-96995396D01*
X172450500Y-91962229D01*
X172470185Y-91895190D01*
X172486819Y-91874548D01*
X172571660Y-91789707D01*
X172715297Y-91646069D01*
X172755522Y-91619192D01*
X172779179Y-91609394D01*
X172910289Y-91521789D01*
X173021789Y-91410289D01*
X173109394Y-91279179D01*
X173169737Y-91133497D01*
X173200500Y-90978842D01*
X173200500Y-90821158D01*
X173200500Y-90821155D01*
X173200499Y-90821153D01*
X173169738Y-90666510D01*
X173169737Y-90666503D01*
X173119194Y-90544480D01*
X173109397Y-90520827D01*
X173109390Y-90520814D01*
X173021789Y-90389711D01*
X173021786Y-90389707D01*
X172910292Y-90278213D01*
X172910288Y-90278210D01*
X172779185Y-90190609D01*
X172779172Y-90190602D01*
X172633501Y-90130264D01*
X172633489Y-90130261D01*
X172478845Y-90099500D01*
X172478842Y-90099500D01*
X172321158Y-90099500D01*
X172321155Y-90099500D01*
X172166510Y-90130261D01*
X172166498Y-90130264D01*
X172020827Y-90190602D01*
X172020814Y-90190609D01*
X171889711Y-90278210D01*
X171889707Y-90278213D01*
X171778213Y-90389707D01*
X171778207Y-90389715D01*
X171690607Y-90520818D01*
X171690606Y-90520819D01*
X171680805Y-90544480D01*
X171653927Y-90584703D01*
X171117049Y-91121581D01*
X171067812Y-91195271D01*
X171034921Y-91244496D01*
X171034914Y-91244508D01*
X170978342Y-91381086D01*
X170978340Y-91381092D01*
X170949500Y-91526079D01*
X170949500Y-96995396D01*
X170948049Y-97002687D01*
X170946408Y-97022916D01*
X170944079Y-97033147D01*
X170930263Y-97066503D01*
X170899500Y-97221158D01*
X168993911Y-97221158D01*
X169006813Y-94737648D01*
X169018016Y-94686787D01*
X169065338Y-94583170D01*
X169085023Y-94516131D01*
X169085024Y-94516127D01*
X169105500Y-94373711D01*
X169105500Y-83597509D01*
X169108363Y-83587757D01*
X169107097Y-83577673D01*
X169118041Y-83554797D01*
X169125185Y-83530470D01*
X169132865Y-83523815D01*
X169137252Y-83514646D01*
X169158827Y-83501318D01*
X169177989Y-83484715D01*
X169188048Y-83483268D01*
X169196696Y-83477927D01*
X169222047Y-83478379D01*
X169247147Y-83474771D01*
X169258252Y-83479026D01*
G37*
%TD.AperFunction*%
%TD*%
%TA.AperFunction,Conductor*%
%TO.N,GND*%
G36*
X168543039Y-73047517D02*
G01*
X168588794Y-73100321D01*
X168600000Y-73151832D01*
X168600000Y-94373711D01*
X168580315Y-94440750D01*
X168527511Y-94486505D01*
X168479645Y-94497657D01*
X168450626Y-94498510D01*
X168450625Y-94498511D01*
X168427272Y-102660350D01*
X168407396Y-102727333D01*
X168390954Y-102747676D01*
X167517050Y-103621581D01*
X167517044Y-103621589D01*
X167476104Y-103682860D01*
X167476105Y-103682861D01*
X167434914Y-103744506D01*
X167388596Y-103856330D01*
X167344755Y-103910733D01*
X167278461Y-103932798D01*
X167226582Y-103923438D01*
X167226415Y-103923369D01*
X167226414Y-103923368D01*
X167044335Y-103847949D01*
X167044329Y-103847947D01*
X166851043Y-103809500D01*
X166851041Y-103809500D01*
X165653959Y-103809500D01*
X165653957Y-103809500D01*
X165460670Y-103847947D01*
X165460660Y-103847950D01*
X165278592Y-103923364D01*
X165278579Y-103923371D01*
X165114718Y-104032860D01*
X165114714Y-104032863D01*
X164975363Y-104172214D01*
X164975360Y-104172218D01*
X164865871Y-104336079D01*
X164865864Y-104336092D01*
X164790450Y-104518160D01*
X164790447Y-104518170D01*
X164752000Y-104711456D01*
X164752000Y-104711459D01*
X164752000Y-104908541D01*
X164752000Y-104908543D01*
X164751999Y-104908543D01*
X164790447Y-105101829D01*
X164790450Y-105101839D01*
X164865864Y-105283907D01*
X164865871Y-105283920D01*
X164975360Y-105447781D01*
X164975363Y-105447785D01*
X165114714Y-105587136D01*
X165114718Y-105587139D01*
X165278579Y-105696628D01*
X165278592Y-105696635D01*
X165460660Y-105772049D01*
X165460665Y-105772051D01*
X165460669Y-105772051D01*
X165460670Y-105772052D01*
X165653956Y-105810500D01*
X165653959Y-105810500D01*
X166851043Y-105810500D01*
X167018218Y-105777246D01*
X167044335Y-105772051D01*
X167120574Y-105740472D01*
X167178048Y-105716666D01*
X167247517Y-105709197D01*
X167309996Y-105740472D01*
X167345648Y-105800561D01*
X167349500Y-105831227D01*
X167349500Y-106328773D01*
X167329815Y-106395812D01*
X167277011Y-106441567D01*
X167207853Y-106451511D01*
X167178048Y-106443334D01*
X167044339Y-106387950D01*
X167044329Y-106387947D01*
X166851043Y-106349500D01*
X166851041Y-106349500D01*
X165653959Y-106349500D01*
X165653957Y-106349500D01*
X165460670Y-106387947D01*
X165460660Y-106387950D01*
X165278592Y-106463364D01*
X165278579Y-106463371D01*
X165114718Y-106572860D01*
X165114714Y-106572863D01*
X164975363Y-106712214D01*
X164975360Y-106712218D01*
X164865871Y-106876079D01*
X164865864Y-106876092D01*
X164790450Y-107058160D01*
X164790447Y-107058170D01*
X164752000Y-107251456D01*
X164752000Y-107251459D01*
X164752000Y-107448541D01*
X164752000Y-107448543D01*
X164751999Y-107448543D01*
X164790447Y-107641829D01*
X164790450Y-107641839D01*
X164865864Y-107823907D01*
X164865871Y-107823920D01*
X164975360Y-107987781D01*
X164975363Y-107987785D01*
X165114714Y-108127136D01*
X165114718Y-108127139D01*
X165278579Y-108236628D01*
X165278592Y-108236635D01*
X165415516Y-108293350D01*
X165460665Y-108312051D01*
X165460669Y-108312051D01*
X165460670Y-108312052D01*
X165653956Y-108350500D01*
X165653959Y-108350500D01*
X166851043Y-108350500D01*
X166981082Y-108324632D01*
X167044335Y-108312051D01*
X167226414Y-108236632D01*
X167390282Y-108127139D01*
X167529639Y-107987782D01*
X167600930Y-107881087D01*
X167642517Y-107818849D01*
X167643985Y-107819830D01*
X167687070Y-107775946D01*
X167755203Y-107760466D01*
X167820889Y-107784279D01*
X167835177Y-107796545D01*
X168374463Y-108335831D01*
X168407948Y-108397154D01*
X168410781Y-108423867D01*
X168398198Y-112821658D01*
X168405572Y-112835208D01*
X168408362Y-112862730D01*
X168379226Y-115568282D01*
X168324128Y-120684701D01*
X168322597Y-120826835D01*
X168302191Y-120893659D01*
X168248898Y-120938843D01*
X168198604Y-120949500D01*
X167832250Y-120949500D01*
X167765211Y-120929815D01*
X167719456Y-120877011D01*
X167709512Y-120807853D01*
X167715209Y-120784545D01*
X167750145Y-120684701D01*
X167750146Y-120684699D01*
X167753000Y-120654269D01*
X167753000Y-119445730D01*
X167750146Y-119415300D01*
X167750146Y-119415298D01*
X167705293Y-119287119D01*
X167705292Y-119287117D01*
X167624650Y-119177850D01*
X167515382Y-119097207D01*
X167515380Y-119097206D01*
X167387200Y-119052353D01*
X167356770Y-119049500D01*
X167356766Y-119049500D01*
X165148234Y-119049500D01*
X165148230Y-119049500D01*
X165117800Y-119052353D01*
X165117798Y-119052353D01*
X164989619Y-119097206D01*
X164989617Y-119097207D01*
X164880350Y-119177850D01*
X164799707Y-119287117D01*
X164799706Y-119287119D01*
X164754853Y-119415298D01*
X164754853Y-119415300D01*
X164752000Y-119445730D01*
X164752000Y-120654269D01*
X164754853Y-120684699D01*
X164754854Y-120684701D01*
X164789791Y-120784545D01*
X164793353Y-120854324D01*
X164758625Y-120914951D01*
X164696631Y-120947179D01*
X164672750Y-120949500D01*
X158404729Y-120949500D01*
X158337690Y-120929815D01*
X158317048Y-120913181D01*
X155012410Y-117608543D01*
X164751999Y-117608543D01*
X164790447Y-117801829D01*
X164790450Y-117801839D01*
X164865864Y-117983907D01*
X164865871Y-117983920D01*
X164975360Y-118147781D01*
X164975363Y-118147785D01*
X165114714Y-118287136D01*
X165114718Y-118287139D01*
X165278579Y-118396628D01*
X165278592Y-118396635D01*
X165460660Y-118472049D01*
X165460665Y-118472051D01*
X165460669Y-118472051D01*
X165460670Y-118472052D01*
X165653956Y-118510500D01*
X165653959Y-118510500D01*
X166851043Y-118510500D01*
X166981082Y-118484632D01*
X167044335Y-118472051D01*
X167226414Y-118396632D01*
X167390282Y-118287139D01*
X167529639Y-118147782D01*
X167639132Y-117983914D01*
X167644014Y-117972129D01*
X167714549Y-117801839D01*
X167714551Y-117801835D01*
X167742276Y-117662454D01*
X167753000Y-117608543D01*
X167753000Y-117411456D01*
X167714552Y-117218170D01*
X167714551Y-117218169D01*
X167714551Y-117218165D01*
X167662175Y-117091716D01*
X167639135Y-117036092D01*
X167639128Y-117036079D01*
X167529639Y-116872218D01*
X167529636Y-116872214D01*
X167390285Y-116732863D01*
X167390281Y-116732860D01*
X167226420Y-116623371D01*
X167226407Y-116623364D01*
X167044339Y-116547950D01*
X167044329Y-116547947D01*
X166851043Y-116509500D01*
X166851041Y-116509500D01*
X165653959Y-116509500D01*
X165653957Y-116509500D01*
X165460670Y-116547947D01*
X165460660Y-116547950D01*
X165278592Y-116623364D01*
X165278579Y-116623371D01*
X165114718Y-116732860D01*
X165114714Y-116732863D01*
X164975363Y-116872214D01*
X164975360Y-116872218D01*
X164865871Y-117036079D01*
X164865864Y-117036092D01*
X164790450Y-117218160D01*
X164790447Y-117218170D01*
X164752000Y-117411456D01*
X164752000Y-117411459D01*
X164752000Y-117608541D01*
X164752000Y-117608543D01*
X164751999Y-117608543D01*
X155012410Y-117608543D01*
X154896915Y-117493048D01*
X153026316Y-115622449D01*
X149583868Y-112180000D01*
X164475891Y-112180000D01*
X166119488Y-112180000D01*
X166086575Y-112237007D01*
X166052500Y-112364174D01*
X166052500Y-112495826D01*
X166086575Y-112622993D01*
X166119488Y-112680000D01*
X164475891Y-112680000D01*
X164484509Y-112734413D01*
X164547744Y-112929029D01*
X164640640Y-113111349D01*
X164760917Y-113276894D01*
X164760917Y-113276895D01*
X164905604Y-113421582D01*
X165071150Y-113541859D01*
X165253468Y-113634755D01*
X165448082Y-113697990D01*
X165636768Y-113727875D01*
X165699903Y-113757804D01*
X165736834Y-113817116D01*
X165735836Y-113886978D01*
X165697226Y-113945211D01*
X165641562Y-113971965D01*
X165460670Y-114007947D01*
X165460660Y-114007950D01*
X165278592Y-114083364D01*
X165278579Y-114083371D01*
X165114718Y-114192860D01*
X165114714Y-114192863D01*
X164975363Y-114332214D01*
X164975360Y-114332218D01*
X164865871Y-114496079D01*
X164865864Y-114496092D01*
X164790450Y-114678160D01*
X164790447Y-114678170D01*
X164752000Y-114871456D01*
X164752000Y-114871459D01*
X164752000Y-115068541D01*
X164752000Y-115068543D01*
X164751999Y-115068543D01*
X164790447Y-115261829D01*
X164790450Y-115261839D01*
X164865864Y-115443907D01*
X164865871Y-115443920D01*
X164975360Y-115607781D01*
X164975363Y-115607785D01*
X165114714Y-115747136D01*
X165114718Y-115747139D01*
X165278579Y-115856628D01*
X165278592Y-115856635D01*
X165455474Y-115929901D01*
X165460665Y-115932051D01*
X165460669Y-115932051D01*
X165460670Y-115932052D01*
X165653956Y-115970500D01*
X165653959Y-115970500D01*
X166851043Y-115970500D01*
X166981082Y-115944632D01*
X167044335Y-115932051D01*
X167226414Y-115856632D01*
X167390282Y-115747139D01*
X167529639Y-115607782D01*
X167639132Y-115443914D01*
X167714551Y-115261835D01*
X167738686Y-115140500D01*
X167753000Y-115068543D01*
X167753000Y-114871456D01*
X167714552Y-114678170D01*
X167714551Y-114678169D01*
X167714551Y-114678165D01*
X167711080Y-114669786D01*
X167639135Y-114496092D01*
X167639128Y-114496079D01*
X167529639Y-114332218D01*
X167529636Y-114332214D01*
X167390285Y-114192863D01*
X167390281Y-114192860D01*
X167226420Y-114083371D01*
X167226407Y-114083364D01*
X167044339Y-114007950D01*
X167044329Y-114007947D01*
X166863437Y-113971965D01*
X166801526Y-113939580D01*
X166766952Y-113878864D01*
X166770692Y-113809095D01*
X166811559Y-113752423D01*
X166868231Y-113727875D01*
X167056917Y-113697990D01*
X167251531Y-113634755D01*
X167433849Y-113541859D01*
X167599394Y-113421582D01*
X167599395Y-113421582D01*
X167744082Y-113276895D01*
X167744082Y-113276894D01*
X167864359Y-113111349D01*
X167957255Y-112929029D01*
X168020490Y-112734413D01*
X168029109Y-112680000D01*
X166985512Y-112680000D01*
X167018425Y-112622993D01*
X167052500Y-112495826D01*
X167052500Y-112364174D01*
X167018425Y-112237007D01*
X166985512Y-112180000D01*
X168029109Y-112180000D01*
X168020490Y-112125586D01*
X167957255Y-111930970D01*
X167864359Y-111748650D01*
X167744082Y-111583105D01*
X167744082Y-111583104D01*
X167599395Y-111438417D01*
X167433849Y-111318140D01*
X167251531Y-111225244D01*
X167056917Y-111162009D01*
X166868231Y-111132124D01*
X166805096Y-111102194D01*
X166768165Y-111042883D01*
X166769163Y-110973020D01*
X166807773Y-110914788D01*
X166863438Y-110888034D01*
X167044335Y-110852051D01*
X167226414Y-110776632D01*
X167390282Y-110667139D01*
X167529639Y-110527782D01*
X167639132Y-110363914D01*
X167714551Y-110181835D01*
X167753000Y-109988541D01*
X167753000Y-109791459D01*
X167753000Y-109791456D01*
X167714552Y-109598170D01*
X167714551Y-109598169D01*
X167714551Y-109598165D01*
X167702677Y-109569499D01*
X167639135Y-109416092D01*
X167639128Y-109416079D01*
X167529639Y-109252218D01*
X167529636Y-109252214D01*
X167390285Y-109112863D01*
X167390281Y-109112860D01*
X167226420Y-109003371D01*
X167226407Y-109003364D01*
X167044339Y-108927950D01*
X167044329Y-108927947D01*
X166851043Y-108889500D01*
X166851041Y-108889500D01*
X165653959Y-108889500D01*
X165653957Y-108889500D01*
X165460670Y-108927947D01*
X165460660Y-108927950D01*
X165278592Y-109003364D01*
X165278579Y-109003371D01*
X165114718Y-109112860D01*
X165114714Y-109112863D01*
X164975363Y-109252214D01*
X164975360Y-109252218D01*
X164865871Y-109416079D01*
X164865864Y-109416092D01*
X164790450Y-109598160D01*
X164790447Y-109598170D01*
X164752000Y-109791456D01*
X164752000Y-109791459D01*
X164752000Y-109988541D01*
X164752000Y-109988543D01*
X164751999Y-109988543D01*
X164790447Y-110181829D01*
X164790450Y-110181839D01*
X164865864Y-110363907D01*
X164865871Y-110363920D01*
X164975360Y-110527781D01*
X164975363Y-110527785D01*
X165114714Y-110667136D01*
X165114718Y-110667139D01*
X165278579Y-110776628D01*
X165278592Y-110776635D01*
X165460660Y-110852049D01*
X165460665Y-110852051D01*
X165593174Y-110878409D01*
X165641561Y-110888034D01*
X165703472Y-110920419D01*
X165738046Y-110981134D01*
X165734307Y-111050904D01*
X165693440Y-111107576D01*
X165636769Y-111132124D01*
X165448081Y-111162010D01*
X165253468Y-111225244D01*
X165071150Y-111318140D01*
X164905605Y-111438417D01*
X164905604Y-111438417D01*
X164760917Y-111583104D01*
X164760917Y-111583105D01*
X164640640Y-111748650D01*
X164547744Y-111930970D01*
X164484509Y-112125586D01*
X164475891Y-112180000D01*
X149583868Y-112180000D01*
X147930467Y-110526599D01*
X147896982Y-110465276D01*
X147901966Y-110395584D01*
X147915043Y-110370032D01*
X147919132Y-110363914D01*
X147994551Y-110181835D01*
X148033000Y-109988541D01*
X148033000Y-109791459D01*
X148033000Y-109791456D01*
X147994552Y-109598170D01*
X147994551Y-109598169D01*
X147994551Y-109598165D01*
X147982677Y-109569499D01*
X147919135Y-109416092D01*
X147916259Y-109410711D01*
X147917928Y-109409818D01*
X147899679Y-109351547D01*
X147918160Y-109284166D01*
X147954767Y-109246225D01*
X147991097Y-109221952D01*
X148866452Y-108346596D01*
X148908607Y-108283506D01*
X148948584Y-108223676D01*
X148988571Y-108127139D01*
X148988573Y-108127136D01*
X149005157Y-108087097D01*
X149005159Y-108087093D01*
X149034000Y-107942098D01*
X149034000Y-107794263D01*
X149034000Y-107194049D01*
X149053685Y-107127010D01*
X149070319Y-107106368D01*
X153808144Y-102368543D01*
X164751999Y-102368543D01*
X164790447Y-102561829D01*
X164790450Y-102561839D01*
X164865864Y-102743907D01*
X164865871Y-102743920D01*
X164975360Y-102907781D01*
X164975363Y-102907785D01*
X165114714Y-103047136D01*
X165114718Y-103047139D01*
X165278579Y-103156628D01*
X165278592Y-103156635D01*
X165460660Y-103232049D01*
X165460665Y-103232051D01*
X165460669Y-103232051D01*
X165460670Y-103232052D01*
X165653956Y-103270500D01*
X165653959Y-103270500D01*
X166851043Y-103270500D01*
X166981082Y-103244632D01*
X167044335Y-103232051D01*
X167226414Y-103156632D01*
X167390282Y-103047139D01*
X167529639Y-102907782D01*
X167639132Y-102743914D01*
X167714551Y-102561835D01*
X167753000Y-102368541D01*
X167753000Y-102171459D01*
X167753000Y-102171456D01*
X167714552Y-101978170D01*
X167714551Y-101978169D01*
X167714551Y-101978165D01*
X167714549Y-101978160D01*
X167639135Y-101796092D01*
X167639128Y-101796079D01*
X167529639Y-101632218D01*
X167529636Y-101632214D01*
X167390285Y-101492863D01*
X167390281Y-101492860D01*
X167226420Y-101383371D01*
X167226407Y-101383364D01*
X167044339Y-101307950D01*
X167044329Y-101307947D01*
X166851043Y-101269500D01*
X166851041Y-101269500D01*
X165653959Y-101269500D01*
X165653957Y-101269500D01*
X165460670Y-101307947D01*
X165460660Y-101307950D01*
X165278592Y-101383364D01*
X165278579Y-101383371D01*
X165114718Y-101492860D01*
X165114714Y-101492863D01*
X164975363Y-101632214D01*
X164975360Y-101632218D01*
X164865871Y-101796079D01*
X164865864Y-101796092D01*
X164790450Y-101978160D01*
X164790447Y-101978170D01*
X164752000Y-102171456D01*
X164752000Y-102171459D01*
X164752000Y-102368541D01*
X164752000Y-102368543D01*
X164751999Y-102368543D01*
X153808144Y-102368543D01*
X156348144Y-99828543D01*
X164751999Y-99828543D01*
X164790447Y-100021829D01*
X164790450Y-100021839D01*
X164865864Y-100203907D01*
X164865871Y-100203920D01*
X164975360Y-100367781D01*
X164975363Y-100367785D01*
X165114714Y-100507136D01*
X165114718Y-100507139D01*
X165278579Y-100616628D01*
X165278592Y-100616635D01*
X165460660Y-100692049D01*
X165460665Y-100692051D01*
X165460669Y-100692051D01*
X165460670Y-100692052D01*
X165653956Y-100730500D01*
X165653959Y-100730500D01*
X166851043Y-100730500D01*
X166981082Y-100704632D01*
X167044335Y-100692051D01*
X167226414Y-100616632D01*
X167390282Y-100507139D01*
X167529639Y-100367782D01*
X167639132Y-100203914D01*
X167714551Y-100021835D01*
X167753000Y-99828541D01*
X167753000Y-99631459D01*
X167753000Y-99631456D01*
X167714552Y-99438170D01*
X167714551Y-99438169D01*
X167714551Y-99438165D01*
X167714549Y-99438160D01*
X167639135Y-99256092D01*
X167639128Y-99256079D01*
X167529639Y-99092218D01*
X167529636Y-99092214D01*
X167390285Y-98952863D01*
X167390281Y-98952860D01*
X167226420Y-98843371D01*
X167226407Y-98843364D01*
X167044339Y-98767950D01*
X167044329Y-98767947D01*
X166851043Y-98729500D01*
X166851041Y-98729500D01*
X165653959Y-98729500D01*
X165653957Y-98729500D01*
X165460670Y-98767947D01*
X165460660Y-98767950D01*
X165278592Y-98843364D01*
X165278579Y-98843371D01*
X165114718Y-98952860D01*
X165114714Y-98952863D01*
X164975363Y-99092214D01*
X164975360Y-99092218D01*
X164865871Y-99256079D01*
X164865864Y-99256092D01*
X164790450Y-99438160D01*
X164790447Y-99438170D01*
X164752000Y-99631456D01*
X164752000Y-99631459D01*
X164752000Y-99828541D01*
X164752000Y-99828543D01*
X164751999Y-99828543D01*
X156348144Y-99828543D01*
X158888144Y-97288543D01*
X164751999Y-97288543D01*
X164790447Y-97481829D01*
X164790450Y-97481839D01*
X164865864Y-97663907D01*
X164865871Y-97663920D01*
X164975360Y-97827781D01*
X164975363Y-97827785D01*
X165114714Y-97967136D01*
X165114718Y-97967139D01*
X165278579Y-98076628D01*
X165278592Y-98076635D01*
X165460660Y-98152049D01*
X165460665Y-98152051D01*
X165460669Y-98152051D01*
X165460670Y-98152052D01*
X165653956Y-98190500D01*
X165653959Y-98190500D01*
X166851043Y-98190500D01*
X166981082Y-98164632D01*
X167044335Y-98152051D01*
X167226414Y-98076632D01*
X167390282Y-97967139D01*
X167529639Y-97827782D01*
X167639132Y-97663914D01*
X167714551Y-97481835D01*
X167753000Y-97288541D01*
X167753000Y-97091459D01*
X167753000Y-97091456D01*
X167714552Y-96898170D01*
X167714551Y-96898169D01*
X167714551Y-96898165D01*
X167714549Y-96898160D01*
X167639135Y-96716092D01*
X167639128Y-96716079D01*
X167529639Y-96552218D01*
X167529636Y-96552214D01*
X167390285Y-96412863D01*
X167390281Y-96412860D01*
X167226420Y-96303371D01*
X167226407Y-96303364D01*
X167044339Y-96227950D01*
X167044329Y-96227947D01*
X166851043Y-96189500D01*
X166851041Y-96189500D01*
X165653959Y-96189500D01*
X165653957Y-96189500D01*
X165460670Y-96227947D01*
X165460660Y-96227950D01*
X165278592Y-96303364D01*
X165278579Y-96303371D01*
X165114718Y-96412860D01*
X165114714Y-96412863D01*
X164975363Y-96552214D01*
X164975360Y-96552218D01*
X164865871Y-96716079D01*
X164865864Y-96716092D01*
X164790450Y-96898160D01*
X164790447Y-96898170D01*
X164752000Y-97091456D01*
X164752000Y-97091459D01*
X164752000Y-97288541D01*
X164752000Y-97288543D01*
X164751999Y-97288543D01*
X158888144Y-97288543D01*
X159179001Y-96997686D01*
X159460608Y-96716079D01*
X159882952Y-96293735D01*
X159932186Y-96220048D01*
X159965084Y-96170814D01*
X160009800Y-96062861D01*
X160021659Y-96034231D01*
X160050500Y-95889236D01*
X160050500Y-95741401D01*
X160050500Y-94748543D01*
X164751999Y-94748543D01*
X164790447Y-94941829D01*
X164790450Y-94941839D01*
X164865864Y-95123907D01*
X164865871Y-95123920D01*
X164975360Y-95287781D01*
X164975363Y-95287785D01*
X165114714Y-95427136D01*
X165114718Y-95427139D01*
X165278579Y-95536628D01*
X165278592Y-95536635D01*
X165460660Y-95612049D01*
X165460665Y-95612051D01*
X165460669Y-95612051D01*
X165460670Y-95612052D01*
X165653956Y-95650500D01*
X165653959Y-95650500D01*
X166851043Y-95650500D01*
X166981082Y-95624632D01*
X167044335Y-95612051D01*
X167226414Y-95536632D01*
X167390282Y-95427139D01*
X167529639Y-95287782D01*
X167639132Y-95123914D01*
X167714551Y-94941835D01*
X167753000Y-94748541D01*
X167753000Y-94551459D01*
X167753000Y-94551456D01*
X167714552Y-94358170D01*
X167714551Y-94358169D01*
X167714551Y-94358165D01*
X167714549Y-94358160D01*
X167639135Y-94176092D01*
X167639128Y-94176079D01*
X167529639Y-94012218D01*
X167529636Y-94012214D01*
X167390285Y-93872863D01*
X167390281Y-93872860D01*
X167226420Y-93763371D01*
X167226407Y-93763364D01*
X167044339Y-93687950D01*
X167044329Y-93687947D01*
X166851043Y-93649500D01*
X166851041Y-93649500D01*
X165653959Y-93649500D01*
X165653957Y-93649500D01*
X165460670Y-93687947D01*
X165460660Y-93687950D01*
X165278592Y-93763364D01*
X165278579Y-93763371D01*
X165114718Y-93872860D01*
X165114714Y-93872863D01*
X164975363Y-94012214D01*
X164975360Y-94012218D01*
X164865871Y-94176079D01*
X164865864Y-94176092D01*
X164790450Y-94358160D01*
X164790447Y-94358170D01*
X164752000Y-94551456D01*
X164752000Y-94551459D01*
X164752000Y-94748541D01*
X164752000Y-94748543D01*
X164751999Y-94748543D01*
X160050500Y-94748543D01*
X160050500Y-94615548D01*
X160059144Y-94586107D01*
X160065668Y-94556121D01*
X160069422Y-94551105D01*
X160070185Y-94548509D01*
X160086814Y-94527872D01*
X162406142Y-92208543D01*
X164751999Y-92208543D01*
X164790447Y-92401829D01*
X164790450Y-92401839D01*
X164865864Y-92583907D01*
X164865871Y-92583920D01*
X164975360Y-92747781D01*
X164975363Y-92747785D01*
X165114714Y-92887136D01*
X165114718Y-92887139D01*
X165278579Y-92996628D01*
X165278592Y-92996635D01*
X165403672Y-93048444D01*
X165460665Y-93072051D01*
X165460669Y-93072051D01*
X165460670Y-93072052D01*
X165653956Y-93110500D01*
X165653959Y-93110500D01*
X166851043Y-93110500D01*
X166981082Y-93084632D01*
X167044335Y-93072051D01*
X167226414Y-92996632D01*
X167390282Y-92887139D01*
X167529639Y-92747782D01*
X167639132Y-92583914D01*
X167714551Y-92401835D01*
X167741292Y-92267401D01*
X167753000Y-92208543D01*
X167753000Y-92011456D01*
X167714552Y-91818170D01*
X167714551Y-91818169D01*
X167714551Y-91818165D01*
X167699649Y-91782187D01*
X167639135Y-91636092D01*
X167639128Y-91636079D01*
X167529639Y-91472218D01*
X167529636Y-91472214D01*
X167390285Y-91332863D01*
X167390281Y-91332860D01*
X167226420Y-91223371D01*
X167226407Y-91223364D01*
X167044339Y-91147950D01*
X167044329Y-91147947D01*
X166851043Y-91109500D01*
X166851041Y-91109500D01*
X165653959Y-91109500D01*
X165653957Y-91109500D01*
X165460670Y-91147947D01*
X165460660Y-91147950D01*
X165278592Y-91223364D01*
X165278579Y-91223371D01*
X165114718Y-91332860D01*
X165114714Y-91332863D01*
X164975363Y-91472214D01*
X164975360Y-91472218D01*
X164865871Y-91636079D01*
X164865864Y-91636092D01*
X164790450Y-91818160D01*
X164790447Y-91818170D01*
X164752000Y-92011456D01*
X164752000Y-92011459D01*
X164752000Y-92208541D01*
X164752000Y-92208543D01*
X164751999Y-92208543D01*
X162406142Y-92208543D01*
X164648214Y-89966471D01*
X164709535Y-89932988D01*
X164779227Y-89937972D01*
X164835160Y-89979844D01*
X164850454Y-90006702D01*
X164865864Y-90043907D01*
X164865871Y-90043920D01*
X164975360Y-90207781D01*
X164975363Y-90207785D01*
X165114714Y-90347136D01*
X165114718Y-90347139D01*
X165278579Y-90456628D01*
X165278592Y-90456635D01*
X165460660Y-90532049D01*
X165460665Y-90532051D01*
X165460669Y-90532051D01*
X165460670Y-90532052D01*
X165653956Y-90570500D01*
X165653959Y-90570500D01*
X166851043Y-90570500D01*
X166981082Y-90544632D01*
X167044335Y-90532051D01*
X167226414Y-90456632D01*
X167390282Y-90347139D01*
X167529639Y-90207782D01*
X167639132Y-90043914D01*
X167714551Y-89861835D01*
X167743199Y-89717813D01*
X167753000Y-89668543D01*
X167753000Y-89471456D01*
X167714552Y-89278170D01*
X167714551Y-89278169D01*
X167714551Y-89278165D01*
X167682685Y-89201232D01*
X167639135Y-89096092D01*
X167639128Y-89096079D01*
X167529639Y-88932218D01*
X167529636Y-88932214D01*
X167390285Y-88792863D01*
X167390281Y-88792860D01*
X167226420Y-88683371D01*
X167226407Y-88683364D01*
X167044339Y-88607950D01*
X167044329Y-88607947D01*
X166851043Y-88569500D01*
X166851041Y-88569500D01*
X166344549Y-88569500D01*
X166277510Y-88549815D01*
X166231755Y-88497011D01*
X166221811Y-88427853D01*
X166250836Y-88364297D01*
X166256868Y-88357819D01*
X166547868Y-88066819D01*
X166609191Y-88033334D01*
X166635549Y-88030500D01*
X166851043Y-88030500D01*
X166981082Y-88004632D01*
X167044335Y-87992051D01*
X167226414Y-87916632D01*
X167390282Y-87807139D01*
X167529639Y-87667782D01*
X167639132Y-87503914D01*
X167714551Y-87321835D01*
X167753000Y-87128541D01*
X167753000Y-86931459D01*
X167753000Y-86931456D01*
X167714552Y-86738170D01*
X167714551Y-86738169D01*
X167714551Y-86738165D01*
X167681133Y-86657486D01*
X167639135Y-86556092D01*
X167639128Y-86556079D01*
X167529639Y-86392218D01*
X167529636Y-86392214D01*
X167390285Y-86252863D01*
X167390281Y-86252860D01*
X167226420Y-86143371D01*
X167226407Y-86143364D01*
X167044339Y-86067950D01*
X167044329Y-86067947D01*
X166851043Y-86029500D01*
X166851041Y-86029500D01*
X166344549Y-86029500D01*
X166277510Y-86009815D01*
X166231755Y-85957011D01*
X166221811Y-85887853D01*
X166250836Y-85824297D01*
X166256868Y-85817819D01*
X166547868Y-85526819D01*
X166609191Y-85493334D01*
X166635549Y-85490500D01*
X166851043Y-85490500D01*
X166981082Y-85464632D01*
X167044335Y-85452051D01*
X167226414Y-85376632D01*
X167390282Y-85267139D01*
X167529639Y-85127782D01*
X167639132Y-84963914D01*
X167714551Y-84781835D01*
X167735802Y-84674999D01*
X167753000Y-84588543D01*
X167753000Y-84391456D01*
X167714552Y-84198170D01*
X167714551Y-84198169D01*
X167714551Y-84198165D01*
X167714549Y-84198160D01*
X167639135Y-84016092D01*
X167639128Y-84016079D01*
X167529639Y-83852218D01*
X167529636Y-83852214D01*
X167390285Y-83712863D01*
X167390281Y-83712860D01*
X167226420Y-83603371D01*
X167226407Y-83603364D01*
X167044339Y-83527950D01*
X167044329Y-83527947D01*
X166851043Y-83489500D01*
X166851041Y-83489500D01*
X165653959Y-83489500D01*
X165653957Y-83489500D01*
X165460670Y-83527947D01*
X165460660Y-83527950D01*
X165278592Y-83603364D01*
X165278579Y-83603371D01*
X165114718Y-83712860D01*
X165114714Y-83712863D01*
X164975363Y-83852214D01*
X164975360Y-83852218D01*
X164865871Y-84016079D01*
X164865864Y-84016092D01*
X164790450Y-84198160D01*
X164790447Y-84198170D01*
X164752000Y-84391456D01*
X164752000Y-84391459D01*
X164752000Y-84588541D01*
X164752000Y-84588543D01*
X164751999Y-84588543D01*
X164790447Y-84781829D01*
X164790450Y-84781839D01*
X164868199Y-84969543D01*
X164866682Y-84970170D01*
X164879312Y-85030822D01*
X164854313Y-85096067D01*
X164843393Y-85108556D01*
X158089050Y-91862899D01*
X158089044Y-91862907D01*
X158039812Y-91936587D01*
X158039813Y-91936588D01*
X158006921Y-91985815D01*
X158006914Y-91985827D01*
X157950342Y-92122405D01*
X157950340Y-92122411D01*
X157921500Y-92267398D01*
X157921500Y-94577450D01*
X157901815Y-94644489D01*
X157885181Y-94665131D01*
X148136787Y-104413524D01*
X148075464Y-104447009D01*
X148005772Y-104442025D01*
X147949839Y-104400153D01*
X147934545Y-104373296D01*
X147919133Y-104336088D01*
X147919128Y-104336079D01*
X147809639Y-104172218D01*
X147809636Y-104172214D01*
X147670285Y-104032863D01*
X147670281Y-104032860D01*
X147506420Y-103923371D01*
X147506407Y-103923364D01*
X147324339Y-103847950D01*
X147324329Y-103847947D01*
X147131043Y-103809500D01*
X147131041Y-103809500D01*
X145933959Y-103809500D01*
X145933957Y-103809500D01*
X145740670Y-103847947D01*
X145740660Y-103847950D01*
X145558592Y-103923364D01*
X145558579Y-103923371D01*
X145394718Y-104032860D01*
X145394714Y-104032863D01*
X145255363Y-104172214D01*
X145255360Y-104172218D01*
X145145871Y-104336079D01*
X145145864Y-104336092D01*
X145070450Y-104518160D01*
X145070447Y-104518170D01*
X145032000Y-104711456D01*
X145032000Y-104711459D01*
X145032000Y-104908541D01*
X145032000Y-104908543D01*
X145031999Y-104908543D01*
X145070447Y-105101829D01*
X145070449Y-105101835D01*
X145101603Y-105177047D01*
X145109072Y-105246517D01*
X145077797Y-105308996D01*
X145017708Y-105344648D01*
X144987042Y-105348500D01*
X144874999Y-105348500D01*
X144730011Y-105377340D01*
X144730001Y-105377343D01*
X144593427Y-105433914D01*
X144593424Y-105433915D01*
X144593424Y-105433916D01*
X144553638Y-105460500D01*
X144553637Y-105460499D01*
X144470504Y-105516046D01*
X144470497Y-105516052D01*
X142561681Y-107424869D01*
X142500358Y-107458354D01*
X142430666Y-107453370D01*
X142374733Y-107411498D01*
X142350316Y-107346034D01*
X142350000Y-107337188D01*
X142350000Y-107250000D01*
X141433012Y-107250000D01*
X141465925Y-107192993D01*
X141500000Y-107065826D01*
X141500000Y-106934174D01*
X141465925Y-106807007D01*
X141433012Y-106750000D01*
X142350000Y-106750000D01*
X142350000Y-106102172D01*
X142349999Y-106102155D01*
X142343598Y-106042627D01*
X142343596Y-106042620D01*
X142293354Y-105907913D01*
X142293350Y-105907906D01*
X142207190Y-105792812D01*
X142207187Y-105792809D01*
X142092093Y-105706649D01*
X142092088Y-105706646D01*
X141960528Y-105657577D01*
X141904595Y-105615705D01*
X141880178Y-105550241D01*
X141895030Y-105481968D01*
X141916175Y-105453720D01*
X142030104Y-105339792D01*
X142052479Y-105308996D01*
X142155048Y-105167820D01*
X142155047Y-105167820D01*
X142155051Y-105167816D01*
X142251557Y-104978412D01*
X142317246Y-104776243D01*
X142350500Y-104566287D01*
X142350500Y-104353713D01*
X142317246Y-104143757D01*
X142251557Y-103941588D01*
X142155051Y-103752184D01*
X142155049Y-103752181D01*
X142155048Y-103752179D01*
X142030109Y-103580213D01*
X141879786Y-103429890D01*
X141707820Y-103304951D01*
X141707115Y-103304591D01*
X141699054Y-103300485D01*
X141648259Y-103252512D01*
X141631463Y-103184692D01*
X141653999Y-103118556D01*
X141699054Y-103079515D01*
X141707816Y-103075051D01*
X141746238Y-103047136D01*
X141879786Y-102950109D01*
X141879788Y-102950106D01*
X141879792Y-102950104D01*
X142030104Y-102799792D01*
X142030106Y-102799788D01*
X142030109Y-102799786D01*
X142155048Y-102627820D01*
X142155047Y-102627820D01*
X142155051Y-102627816D01*
X142251557Y-102438412D01*
X142274259Y-102368543D01*
X145031999Y-102368543D01*
X145070447Y-102561829D01*
X145070450Y-102561839D01*
X145145864Y-102743907D01*
X145145871Y-102743920D01*
X145255360Y-102907781D01*
X145255363Y-102907785D01*
X145394714Y-103047136D01*
X145394718Y-103047139D01*
X145558579Y-103156628D01*
X145558592Y-103156635D01*
X145740660Y-103232049D01*
X145740665Y-103232051D01*
X145740669Y-103232051D01*
X145740670Y-103232052D01*
X145933956Y-103270500D01*
X145933959Y-103270500D01*
X147131043Y-103270500D01*
X147261082Y-103244632D01*
X147324335Y-103232051D01*
X147506414Y-103156632D01*
X147670282Y-103047139D01*
X147809639Y-102907782D01*
X147919132Y-102743914D01*
X147994551Y-102561835D01*
X148033000Y-102368541D01*
X148033000Y-102171459D01*
X148033000Y-102171456D01*
X147994552Y-101978170D01*
X147994551Y-101978169D01*
X147994551Y-101978165D01*
X147994549Y-101978160D01*
X147919135Y-101796092D01*
X147919128Y-101796079D01*
X147809639Y-101632218D01*
X147809636Y-101632214D01*
X147670285Y-101492863D01*
X147670281Y-101492860D01*
X147506420Y-101383371D01*
X147506407Y-101383364D01*
X147324339Y-101307950D01*
X147324329Y-101307947D01*
X147131043Y-101269500D01*
X147131041Y-101269500D01*
X145933959Y-101269500D01*
X145933957Y-101269500D01*
X145740670Y-101307947D01*
X145740660Y-101307950D01*
X145558592Y-101383364D01*
X145558579Y-101383371D01*
X145394718Y-101492860D01*
X145394714Y-101492863D01*
X145255363Y-101632214D01*
X145255360Y-101632218D01*
X145145871Y-101796079D01*
X145145864Y-101796092D01*
X145070450Y-101978160D01*
X145070447Y-101978170D01*
X145032000Y-102171456D01*
X145032000Y-102171459D01*
X145032000Y-102368541D01*
X145032000Y-102368543D01*
X145031999Y-102368543D01*
X142274259Y-102368543D01*
X142317246Y-102236243D01*
X142350500Y-102026287D01*
X142350500Y-101813713D01*
X142317246Y-101603757D01*
X142251557Y-101401588D01*
X142155051Y-101212184D01*
X142155049Y-101212181D01*
X142155048Y-101212179D01*
X142030109Y-101040213D01*
X141879786Y-100889890D01*
X141707820Y-100764951D01*
X141707115Y-100764591D01*
X141699054Y-100760485D01*
X141648259Y-100712512D01*
X141631463Y-100644692D01*
X141653999Y-100578556D01*
X141699054Y-100539515D01*
X141707816Y-100535051D01*
X141746238Y-100507136D01*
X141879786Y-100410109D01*
X141879788Y-100410106D01*
X141879792Y-100410104D01*
X142030104Y-100259792D01*
X142030106Y-100259788D01*
X142030109Y-100259786D01*
X142155048Y-100087820D01*
X142155047Y-100087820D01*
X142155051Y-100087816D01*
X142251557Y-99898412D01*
X142274259Y-99828543D01*
X145031999Y-99828543D01*
X145070447Y-100021829D01*
X145070450Y-100021839D01*
X145145864Y-100203907D01*
X145145871Y-100203920D01*
X145255360Y-100367781D01*
X145255363Y-100367785D01*
X145394714Y-100507136D01*
X145394718Y-100507139D01*
X145558579Y-100616628D01*
X145558592Y-100616635D01*
X145740660Y-100692049D01*
X145740665Y-100692051D01*
X145740669Y-100692051D01*
X145740670Y-100692052D01*
X145933956Y-100730500D01*
X145933959Y-100730500D01*
X147131043Y-100730500D01*
X147261082Y-100704632D01*
X147324335Y-100692051D01*
X147506414Y-100616632D01*
X147670282Y-100507139D01*
X147809639Y-100367782D01*
X147919132Y-100203914D01*
X147994551Y-100021835D01*
X148033000Y-99828541D01*
X148033000Y-99631459D01*
X148033000Y-99631456D01*
X147994552Y-99438170D01*
X147994551Y-99438169D01*
X147994551Y-99438165D01*
X147994549Y-99438160D01*
X147919135Y-99256092D01*
X147919128Y-99256079D01*
X147809639Y-99092218D01*
X147809636Y-99092214D01*
X147670285Y-98952863D01*
X147670281Y-98952860D01*
X147506420Y-98843371D01*
X147506407Y-98843364D01*
X147324339Y-98767950D01*
X147324329Y-98767947D01*
X147131043Y-98729500D01*
X147131041Y-98729500D01*
X145933959Y-98729500D01*
X145933957Y-98729500D01*
X145740670Y-98767947D01*
X145740660Y-98767950D01*
X145558592Y-98843364D01*
X145558579Y-98843371D01*
X145394718Y-98952860D01*
X145394714Y-98952863D01*
X145255363Y-99092214D01*
X145255360Y-99092218D01*
X145145871Y-99256079D01*
X145145864Y-99256092D01*
X145070450Y-99438160D01*
X145070447Y-99438170D01*
X145032000Y-99631456D01*
X145032000Y-99631459D01*
X145032000Y-99828541D01*
X145032000Y-99828543D01*
X145031999Y-99828543D01*
X142274259Y-99828543D01*
X142317246Y-99696243D01*
X142350500Y-99486287D01*
X142350500Y-99273713D01*
X142317246Y-99063757D01*
X142251557Y-98861588D01*
X142155051Y-98672184D01*
X142155049Y-98672181D01*
X142155048Y-98672179D01*
X142030109Y-98500213D01*
X141879786Y-98349890D01*
X141707820Y-98224951D01*
X141707115Y-98224591D01*
X141699054Y-98220485D01*
X141648259Y-98172512D01*
X141631463Y-98104692D01*
X141653999Y-98038556D01*
X141699054Y-97999515D01*
X141707816Y-97995051D01*
X141746238Y-97967136D01*
X141879786Y-97870109D01*
X141879788Y-97870106D01*
X141879792Y-97870104D01*
X142030104Y-97719792D01*
X142030106Y-97719788D01*
X142030109Y-97719786D01*
X142155048Y-97547820D01*
X142155047Y-97547820D01*
X142155051Y-97547816D01*
X142251557Y-97358412D01*
X142274259Y-97288543D01*
X145031999Y-97288543D01*
X145070447Y-97481829D01*
X145070450Y-97481839D01*
X145145864Y-97663907D01*
X145145871Y-97663920D01*
X145255360Y-97827781D01*
X145255363Y-97827785D01*
X145394714Y-97967136D01*
X145394718Y-97967139D01*
X145558579Y-98076628D01*
X145558592Y-98076635D01*
X145740660Y-98152049D01*
X145740665Y-98152051D01*
X145740669Y-98152051D01*
X145740670Y-98152052D01*
X145933956Y-98190500D01*
X145933959Y-98190500D01*
X147131043Y-98190500D01*
X147261082Y-98164632D01*
X147324335Y-98152051D01*
X147506414Y-98076632D01*
X147670282Y-97967139D01*
X147809639Y-97827782D01*
X147919132Y-97663914D01*
X147994551Y-97481835D01*
X148033000Y-97288541D01*
X148033000Y-97091459D01*
X148033000Y-97091456D01*
X147994552Y-96898170D01*
X147994551Y-96898169D01*
X147994551Y-96898165D01*
X147994549Y-96898160D01*
X147919135Y-96716092D01*
X147919128Y-96716079D01*
X147809639Y-96552218D01*
X147809636Y-96552214D01*
X147670285Y-96412863D01*
X147670281Y-96412860D01*
X147506420Y-96303371D01*
X147506407Y-96303364D01*
X147324339Y-96227950D01*
X147324329Y-96227947D01*
X147131043Y-96189500D01*
X147131041Y-96189500D01*
X145933959Y-96189500D01*
X145933957Y-96189500D01*
X145740670Y-96227947D01*
X145740660Y-96227950D01*
X145558592Y-96303364D01*
X145558579Y-96303371D01*
X145394718Y-96412860D01*
X145394714Y-96412863D01*
X145255363Y-96552214D01*
X145255360Y-96552218D01*
X145145871Y-96716079D01*
X145145864Y-96716092D01*
X145070450Y-96898160D01*
X145070447Y-96898170D01*
X145032000Y-97091456D01*
X145032000Y-97091459D01*
X145032000Y-97288541D01*
X145032000Y-97288543D01*
X145031999Y-97288543D01*
X142274259Y-97288543D01*
X142317246Y-97156243D01*
X142350500Y-96946287D01*
X142350500Y-96733713D01*
X142317246Y-96523757D01*
X142251557Y-96321588D01*
X142155051Y-96132184D01*
X142155049Y-96132181D01*
X142155048Y-96132179D01*
X142030109Y-95960213D01*
X141879786Y-95809890D01*
X141707820Y-95684951D01*
X141707115Y-95684591D01*
X141699054Y-95680485D01*
X141648259Y-95632512D01*
X141631463Y-95564692D01*
X141653999Y-95498556D01*
X141699054Y-95459515D01*
X141707816Y-95455051D01*
X141746238Y-95427136D01*
X141879786Y-95330109D01*
X141879788Y-95330106D01*
X141879792Y-95330104D01*
X142030104Y-95179792D01*
X142030106Y-95179788D01*
X142030109Y-95179786D01*
X142155048Y-95007820D01*
X142155047Y-95007820D01*
X142155051Y-95007816D01*
X142251557Y-94818412D01*
X142274259Y-94748543D01*
X145031999Y-94748543D01*
X145070447Y-94941829D01*
X145070450Y-94941839D01*
X145145864Y-95123907D01*
X145145871Y-95123920D01*
X145255360Y-95287781D01*
X145255363Y-95287785D01*
X145394714Y-95427136D01*
X145394718Y-95427139D01*
X145558579Y-95536628D01*
X145558592Y-95536635D01*
X145740660Y-95612049D01*
X145740665Y-95612051D01*
X145740669Y-95612051D01*
X145740670Y-95612052D01*
X145933956Y-95650500D01*
X145933959Y-95650500D01*
X147131043Y-95650500D01*
X147261082Y-95624632D01*
X147324335Y-95612051D01*
X147506414Y-95536632D01*
X147670282Y-95427139D01*
X147809639Y-95287782D01*
X147919132Y-95123914D01*
X147994551Y-94941835D01*
X148033000Y-94748541D01*
X148033000Y-94551459D01*
X148033000Y-94551456D01*
X147994552Y-94358170D01*
X147994551Y-94358169D01*
X147994551Y-94358165D01*
X147994549Y-94358160D01*
X147919135Y-94176092D01*
X147919128Y-94176079D01*
X147809639Y-94012218D01*
X147809636Y-94012214D01*
X147670285Y-93872863D01*
X147670281Y-93872860D01*
X147506420Y-93763371D01*
X147506407Y-93763364D01*
X147324339Y-93687950D01*
X147324329Y-93687947D01*
X147131043Y-93649500D01*
X147131041Y-93649500D01*
X145933959Y-93649500D01*
X145933957Y-93649500D01*
X145740670Y-93687947D01*
X145740660Y-93687950D01*
X145558592Y-93763364D01*
X145558579Y-93763371D01*
X145394718Y-93872860D01*
X145394714Y-93872863D01*
X145255363Y-94012214D01*
X145255360Y-94012218D01*
X145145871Y-94176079D01*
X145145864Y-94176092D01*
X145070450Y-94358160D01*
X145070447Y-94358170D01*
X145032000Y-94551456D01*
X145032000Y-94551459D01*
X145032000Y-94748541D01*
X145032000Y-94748543D01*
X145031999Y-94748543D01*
X142274259Y-94748543D01*
X142317246Y-94616243D01*
X142350500Y-94406287D01*
X142350500Y-94193713D01*
X142317246Y-93983757D01*
X142251557Y-93781588D01*
X142155051Y-93592184D01*
X142155049Y-93592181D01*
X142155048Y-93592179D01*
X142030109Y-93420213D01*
X141879786Y-93269890D01*
X141707820Y-93144951D01*
X141518414Y-93048444D01*
X141518413Y-93048443D01*
X141518412Y-93048443D01*
X141316243Y-92982754D01*
X141316241Y-92982753D01*
X141316240Y-92982753D01*
X141154957Y-92957208D01*
X141106287Y-92949500D01*
X140893713Y-92949500D01*
X140845042Y-92957208D01*
X140683760Y-92982753D01*
X140481585Y-93048444D01*
X140292179Y-93144951D01*
X140120213Y-93269890D01*
X139969890Y-93420213D01*
X139844951Y-93592179D01*
X139748444Y-93781585D01*
X139682753Y-93983760D01*
X139678246Y-94012218D01*
X139649500Y-94193713D01*
X139649500Y-94406287D01*
X139657641Y-94457686D01*
X139682753Y-94616239D01*
X139682753Y-94616241D01*
X139682754Y-94616243D01*
X139725740Y-94748541D01*
X139748444Y-94818414D01*
X139844951Y-95007820D01*
X139969890Y-95179786D01*
X140120213Y-95330109D01*
X140292182Y-95455050D01*
X140300946Y-95459516D01*
X140351742Y-95507491D01*
X140368536Y-95575312D01*
X140345998Y-95641447D01*
X140300946Y-95680484D01*
X140292182Y-95684949D01*
X140120213Y-95809890D01*
X139969890Y-95960213D01*
X139844951Y-96132179D01*
X139748444Y-96321585D01*
X139682753Y-96523760D01*
X139649500Y-96733713D01*
X139649500Y-96946286D01*
X139682753Y-97156239D01*
X139682753Y-97156241D01*
X139682754Y-97156243D01*
X139725740Y-97288541D01*
X139748444Y-97358414D01*
X139844951Y-97547820D01*
X139969890Y-97719786D01*
X140120213Y-97870109D01*
X140292182Y-97995050D01*
X140300946Y-97999516D01*
X140351742Y-98047491D01*
X140368536Y-98115312D01*
X140345998Y-98181447D01*
X140300946Y-98220484D01*
X140292182Y-98224949D01*
X140120213Y-98349890D01*
X139969890Y-98500213D01*
X139844951Y-98672179D01*
X139748444Y-98861585D01*
X139682753Y-99063760D01*
X139649500Y-99273713D01*
X139649500Y-99486286D01*
X139682753Y-99696239D01*
X139682753Y-99696241D01*
X139682754Y-99696243D01*
X139725740Y-99828541D01*
X139748444Y-99898414D01*
X139844951Y-100087820D01*
X139969890Y-100259786D01*
X140120213Y-100410109D01*
X140292182Y-100535050D01*
X140300946Y-100539516D01*
X140351742Y-100587491D01*
X140368536Y-100655312D01*
X140345998Y-100721447D01*
X140300946Y-100760484D01*
X140292182Y-100764949D01*
X140120213Y-100889890D01*
X139969890Y-101040213D01*
X139844951Y-101212179D01*
X139748444Y-101401585D01*
X139682753Y-101603760D01*
X139649500Y-101813713D01*
X139649500Y-102026286D01*
X139682753Y-102236239D01*
X139682753Y-102236241D01*
X139682754Y-102236243D01*
X139725740Y-102368541D01*
X139748444Y-102438414D01*
X139844951Y-102627820D01*
X139969890Y-102799786D01*
X140120213Y-102950109D01*
X140292182Y-103075050D01*
X140300946Y-103079516D01*
X140351742Y-103127491D01*
X140368536Y-103195312D01*
X140345998Y-103261447D01*
X140300946Y-103300484D01*
X140292182Y-103304949D01*
X140120213Y-103429890D01*
X139969890Y-103580213D01*
X139844951Y-103752179D01*
X139748444Y-103941585D01*
X139682753Y-104143760D01*
X139649500Y-104353713D01*
X139649500Y-104566286D01*
X139672492Y-104711456D01*
X139682754Y-104776243D01*
X139725740Y-104908541D01*
X139748444Y-104978414D01*
X139844951Y-105167820D01*
X139969890Y-105339786D01*
X140083818Y-105453714D01*
X140117303Y-105515037D01*
X140112319Y-105584729D01*
X140070447Y-105640662D01*
X140039471Y-105657577D01*
X139907912Y-105706646D01*
X139907906Y-105706649D01*
X139792812Y-105792809D01*
X139792809Y-105792812D01*
X139706649Y-105907906D01*
X139706645Y-105907913D01*
X139656403Y-106042620D01*
X139656401Y-106042627D01*
X139650000Y-106102155D01*
X139650000Y-106750000D01*
X140566988Y-106750000D01*
X140534075Y-106807007D01*
X140500000Y-106934174D01*
X140500000Y-107065826D01*
X140534075Y-107192993D01*
X140566988Y-107250000D01*
X139650000Y-107250000D01*
X139650000Y-107897844D01*
X139656401Y-107957372D01*
X139656403Y-107957379D01*
X139706645Y-108092086D01*
X139706649Y-108092093D01*
X139792809Y-108207187D01*
X139792812Y-108207190D01*
X139907906Y-108293350D01*
X139907913Y-108293354D01*
X140042620Y-108343596D01*
X140042627Y-108343598D01*
X140102155Y-108349999D01*
X140102172Y-108350000D01*
X140750000Y-108350000D01*
X140750000Y-107433012D01*
X140807007Y-107465925D01*
X140934174Y-107500000D01*
X141065826Y-107500000D01*
X141192993Y-107465925D01*
X141250000Y-107433012D01*
X141250000Y-108350000D01*
X141337189Y-108350000D01*
X141404228Y-108369685D01*
X141449983Y-108422489D01*
X141459927Y-108491647D01*
X141430902Y-108555203D01*
X141424870Y-108561681D01*
X140417050Y-109569499D01*
X140417044Y-109569507D01*
X140367812Y-109643187D01*
X140367813Y-109643188D01*
X140334921Y-109692415D01*
X140334914Y-109692427D01*
X140278342Y-109829005D01*
X140278340Y-109829011D01*
X140249500Y-109973998D01*
X140249500Y-110062779D01*
X140229815Y-110129818D01*
X140198385Y-110163097D01*
X140120211Y-110219893D01*
X140120205Y-110219898D01*
X139969890Y-110370213D01*
X139844951Y-110542179D01*
X139748444Y-110731585D01*
X139682753Y-110933760D01*
X139651336Y-111132124D01*
X139649500Y-111143713D01*
X139649500Y-111356287D01*
X139682754Y-111566243D01*
X139688232Y-111583104D01*
X139748444Y-111768414D01*
X139844951Y-111957820D01*
X139969890Y-112129786D01*
X140120213Y-112280109D01*
X140292182Y-112405050D01*
X140300946Y-112409516D01*
X140351742Y-112457491D01*
X140368536Y-112525312D01*
X140345998Y-112591447D01*
X140300946Y-112630484D01*
X140292182Y-112634949D01*
X140120213Y-112759890D01*
X139969890Y-112910213D01*
X139844951Y-113082179D01*
X139748444Y-113271585D01*
X139682753Y-113473760D01*
X139649500Y-113683713D01*
X139649500Y-113896286D01*
X139682753Y-114106239D01*
X139748444Y-114308414D01*
X139844951Y-114497820D01*
X139969890Y-114669786D01*
X140120213Y-114820109D01*
X140292179Y-114945048D01*
X140292181Y-114945049D01*
X140292184Y-114945051D01*
X140301493Y-114949794D01*
X140352290Y-114997766D01*
X140369087Y-115065587D01*
X140346552Y-115131722D01*
X140301505Y-115170760D01*
X140292446Y-115175376D01*
X140292440Y-115175380D01*
X140238282Y-115214727D01*
X140238282Y-115214728D01*
X140870591Y-115847037D01*
X140807007Y-115864075D01*
X140692993Y-115929901D01*
X140599901Y-116022993D01*
X140534075Y-116137007D01*
X140517037Y-116200591D01*
X139884728Y-115568282D01*
X139884727Y-115568282D01*
X139845380Y-115622439D01*
X139748904Y-115811782D01*
X139683242Y-116013869D01*
X139683242Y-116013872D01*
X139650000Y-116223753D01*
X139650000Y-116436246D01*
X139683242Y-116646127D01*
X139683242Y-116646130D01*
X139748904Y-116848217D01*
X139845375Y-117037550D01*
X139884728Y-117091716D01*
X140517037Y-116459408D01*
X140534075Y-116522993D01*
X140599901Y-116637007D01*
X140692993Y-116730099D01*
X140807007Y-116795925D01*
X140870590Y-116812962D01*
X140200370Y-117483181D01*
X140139047Y-117516666D01*
X140112698Y-117519500D01*
X140102134Y-117519500D01*
X140102123Y-117519501D01*
X140042516Y-117525908D01*
X139907671Y-117576202D01*
X139907664Y-117576206D01*
X139792455Y-117662452D01*
X139792452Y-117662455D01*
X139706206Y-117777664D01*
X139706202Y-117777671D01*
X139655908Y-117912517D01*
X139649501Y-117972116D01*
X139649501Y-117972123D01*
X139649500Y-117972135D01*
X139649500Y-119767870D01*
X139649501Y-119767876D01*
X139655908Y-119827483D01*
X139706202Y-119962328D01*
X139706206Y-119962335D01*
X139792452Y-120077544D01*
X139792455Y-120077547D01*
X139907664Y-120163793D01*
X139907671Y-120163797D01*
X140042517Y-120214091D01*
X140042516Y-120214091D01*
X140049444Y-120214835D01*
X140102127Y-120220500D01*
X141897872Y-120220499D01*
X141957483Y-120214091D01*
X142092331Y-120163796D01*
X142207546Y-120077546D01*
X142293796Y-119962331D01*
X142344091Y-119827483D01*
X142350500Y-119767873D01*
X142350499Y-117972128D01*
X142344091Y-117912517D01*
X142302809Y-117801835D01*
X142293797Y-117777671D01*
X142293793Y-117777664D01*
X142207547Y-117662455D01*
X142207544Y-117662452D01*
X142092335Y-117576206D01*
X142092328Y-117576202D01*
X141957482Y-117525908D01*
X141957483Y-117525908D01*
X141897883Y-117519501D01*
X141897881Y-117519500D01*
X141897873Y-117519500D01*
X141897865Y-117519500D01*
X141887309Y-117519500D01*
X141820270Y-117499815D01*
X141799628Y-117483181D01*
X141129408Y-116812962D01*
X141192993Y-116795925D01*
X141307007Y-116730099D01*
X141400099Y-116637007D01*
X141465925Y-116522993D01*
X141482962Y-116459408D01*
X142115270Y-117091717D01*
X142115270Y-117091716D01*
X142154622Y-117037554D01*
X142251095Y-116848217D01*
X142316757Y-116646130D01*
X142316757Y-116646127D01*
X142350000Y-116436246D01*
X142350000Y-116223753D01*
X142316757Y-116013872D01*
X142316757Y-116013869D01*
X142251095Y-115811782D01*
X142154624Y-115622449D01*
X142115270Y-115568282D01*
X142115269Y-115568282D01*
X141482962Y-116200590D01*
X141465925Y-116137007D01*
X141400099Y-116022993D01*
X141307007Y-115929901D01*
X141192993Y-115864075D01*
X141129409Y-115847037D01*
X141761716Y-115214728D01*
X141707547Y-115175373D01*
X141707547Y-115175372D01*
X141698500Y-115170763D01*
X141647706Y-115122788D01*
X141630912Y-115054966D01*
X141653451Y-114988832D01*
X141698508Y-114949793D01*
X141707816Y-114945051D01*
X141787007Y-114887515D01*
X141879786Y-114820109D01*
X141879788Y-114820106D01*
X141879792Y-114820104D01*
X142030104Y-114669792D01*
X142030106Y-114669788D01*
X142030109Y-114669786D01*
X142155048Y-114497820D01*
X142155047Y-114497820D01*
X142155051Y-114497816D01*
X142251557Y-114308412D01*
X142317246Y-114106243D01*
X142350500Y-113896287D01*
X142350500Y-113683713D01*
X142317246Y-113473757D01*
X142251557Y-113271588D01*
X142188340Y-113147517D01*
X142175444Y-113078847D01*
X142201720Y-113014107D01*
X142211135Y-113003550D01*
X144928214Y-110286471D01*
X144989535Y-110252988D01*
X145059227Y-110257972D01*
X145115160Y-110299844D01*
X145130454Y-110326702D01*
X145145864Y-110363907D01*
X145145871Y-110363920D01*
X145255360Y-110527781D01*
X145255363Y-110527785D01*
X145394714Y-110667136D01*
X145394718Y-110667139D01*
X145558579Y-110776628D01*
X145558592Y-110776635D01*
X145740660Y-110852049D01*
X145740665Y-110852051D01*
X145740669Y-110852051D01*
X145740670Y-110852052D01*
X145933956Y-110890500D01*
X145933959Y-110890500D01*
X146120270Y-110890500D01*
X146187309Y-110910185D01*
X146207951Y-110926819D01*
X151904497Y-116623364D01*
X157459549Y-122178416D01*
X157564084Y-122282951D01*
X157564085Y-122282952D01*
X157686998Y-122365080D01*
X157687011Y-122365087D01*
X157823582Y-122421656D01*
X157823587Y-122421658D01*
X157823591Y-122421658D01*
X157823592Y-122421659D01*
X157968579Y-122450500D01*
X168179768Y-122450500D01*
X168246807Y-122470185D01*
X168292562Y-122522989D01*
X168303761Y-122575835D01*
X168240752Y-128426835D01*
X168220346Y-128493659D01*
X168167053Y-128538843D01*
X168116759Y-128549500D01*
X138774500Y-128549500D01*
X138707461Y-128529815D01*
X138661706Y-128477011D01*
X138650500Y-128425500D01*
X138650500Y-92208543D01*
X145031999Y-92208543D01*
X145070447Y-92401829D01*
X145070450Y-92401839D01*
X145145864Y-92583907D01*
X145145871Y-92583920D01*
X145255360Y-92747781D01*
X145255363Y-92747785D01*
X145394714Y-92887136D01*
X145394718Y-92887139D01*
X145558579Y-92996628D01*
X145558592Y-92996635D01*
X145683672Y-93048444D01*
X145740665Y-93072051D01*
X145740669Y-93072051D01*
X145740670Y-93072052D01*
X145933956Y-93110500D01*
X145933959Y-93110500D01*
X147131043Y-93110500D01*
X147261082Y-93084632D01*
X147324335Y-93072051D01*
X147506414Y-92996632D01*
X147670282Y-92887139D01*
X147809639Y-92747782D01*
X147919132Y-92583914D01*
X147994551Y-92401835D01*
X148021292Y-92267401D01*
X148033000Y-92208543D01*
X148033000Y-92011456D01*
X147994552Y-91818170D01*
X147994551Y-91818169D01*
X147994551Y-91818165D01*
X147979649Y-91782187D01*
X147919135Y-91636092D01*
X147919128Y-91636079D01*
X147809639Y-91472218D01*
X147809636Y-91472214D01*
X147670285Y-91332863D01*
X147670281Y-91332860D01*
X147506420Y-91223371D01*
X147506407Y-91223364D01*
X147324339Y-91147950D01*
X147324329Y-91147947D01*
X147131043Y-91109500D01*
X147131041Y-91109500D01*
X145933959Y-91109500D01*
X145933957Y-91109500D01*
X145740670Y-91147947D01*
X145740660Y-91147950D01*
X145558592Y-91223364D01*
X145558579Y-91223371D01*
X145394718Y-91332860D01*
X145394714Y-91332863D01*
X145255363Y-91472214D01*
X145255360Y-91472218D01*
X145145871Y-91636079D01*
X145145864Y-91636092D01*
X145070450Y-91818160D01*
X145070447Y-91818170D01*
X145032000Y-92011456D01*
X145032000Y-92011459D01*
X145032000Y-92208541D01*
X145032000Y-92208543D01*
X145031999Y-92208543D01*
X138650500Y-92208543D01*
X138650500Y-86657486D01*
X139824500Y-86657486D01*
X139824500Y-86842513D01*
X139853445Y-87025265D01*
X139910619Y-87201232D01*
X139910620Y-87201235D01*
X139956091Y-87290475D01*
X139994622Y-87366096D01*
X140103379Y-87515787D01*
X140234213Y-87646621D01*
X140238421Y-87649678D01*
X140238432Y-87649686D01*
X140281094Y-87705019D01*
X140287069Y-87774633D01*
X140254459Y-87836426D01*
X140238432Y-87850314D01*
X140234210Y-87853381D01*
X140103381Y-87984210D01*
X140103381Y-87984211D01*
X140103379Y-87984213D01*
X140056672Y-88048499D01*
X139994622Y-88133903D01*
X139910620Y-88298764D01*
X139910619Y-88298767D01*
X139853445Y-88474734D01*
X139824500Y-88657486D01*
X139824500Y-88842513D01*
X139853445Y-89025265D01*
X139910619Y-89201232D01*
X139910620Y-89201235D01*
X139949821Y-89278170D01*
X139994622Y-89366096D01*
X140078840Y-89482012D01*
X140102320Y-89547817D01*
X140086495Y-89615871D01*
X140052833Y-89654164D01*
X139967809Y-89717813D01*
X139881649Y-89832906D01*
X139881645Y-89832913D01*
X139831403Y-89967620D01*
X139831401Y-89967627D01*
X139825000Y-90027155D01*
X139825000Y-90500000D01*
X140684314Y-90500000D01*
X140679920Y-90504394D01*
X140627259Y-90595606D01*
X140600000Y-90697339D01*
X140600000Y-90802661D01*
X140627259Y-90904394D01*
X140679920Y-90995606D01*
X140684314Y-91000000D01*
X139825000Y-91000000D01*
X139825000Y-91472844D01*
X139831401Y-91532372D01*
X139831403Y-91532379D01*
X139881645Y-91667086D01*
X139881649Y-91667093D01*
X139967809Y-91782187D01*
X139967812Y-91782190D01*
X140082906Y-91868350D01*
X140082913Y-91868354D01*
X140217620Y-91918596D01*
X140217627Y-91918598D01*
X140277155Y-91924999D01*
X140277172Y-91925000D01*
X140750000Y-91925000D01*
X140750000Y-91065686D01*
X140754394Y-91070080D01*
X140845606Y-91122741D01*
X140947339Y-91150000D01*
X141052661Y-91150000D01*
X141154394Y-91122741D01*
X141245606Y-91070080D01*
X141250000Y-91065686D01*
X141250000Y-91925000D01*
X141722828Y-91925000D01*
X141722844Y-91924999D01*
X141782372Y-91918598D01*
X141782379Y-91918596D01*
X141861237Y-91889185D01*
X141917086Y-91868354D01*
X141917093Y-91868350D01*
X142032187Y-91782190D01*
X142032190Y-91782187D01*
X142118350Y-91667093D01*
X142118354Y-91667086D01*
X142168596Y-91532379D01*
X142168598Y-91532372D01*
X142174999Y-91472844D01*
X142175000Y-91472827D01*
X142175000Y-91000000D01*
X141315686Y-91000000D01*
X141320080Y-90995606D01*
X141372741Y-90904394D01*
X141400000Y-90802661D01*
X141400000Y-90697339D01*
X141372741Y-90595606D01*
X141320080Y-90504394D01*
X141315686Y-90500000D01*
X142175000Y-90500000D01*
X142175000Y-90027172D01*
X142174999Y-90027155D01*
X142168598Y-89967627D01*
X142168596Y-89967620D01*
X142118354Y-89832913D01*
X142118350Y-89832906D01*
X142032190Y-89717812D01*
X141966376Y-89668543D01*
X145031999Y-89668543D01*
X145070447Y-89861829D01*
X145070450Y-89861839D01*
X145145864Y-90043907D01*
X145145871Y-90043920D01*
X145255360Y-90207781D01*
X145255363Y-90207785D01*
X145394714Y-90347136D01*
X145394718Y-90347139D01*
X145558579Y-90456628D01*
X145558592Y-90456635D01*
X145740660Y-90532049D01*
X145740665Y-90532051D01*
X145740669Y-90532051D01*
X145740670Y-90532052D01*
X145933956Y-90570500D01*
X145933959Y-90570500D01*
X147131043Y-90570500D01*
X147261082Y-90544632D01*
X147324335Y-90532051D01*
X147506414Y-90456632D01*
X147670282Y-90347139D01*
X147809639Y-90207782D01*
X147919132Y-90043914D01*
X147994551Y-89861835D01*
X148023199Y-89717813D01*
X148033000Y-89668543D01*
X148033000Y-89471456D01*
X147994552Y-89278170D01*
X147994551Y-89278169D01*
X147994551Y-89278165D01*
X147962685Y-89201232D01*
X147919135Y-89096092D01*
X147919128Y-89096079D01*
X147809639Y-88932218D01*
X147809636Y-88932214D01*
X147670285Y-88792863D01*
X147670281Y-88792860D01*
X147506420Y-88683371D01*
X147506407Y-88683364D01*
X147324339Y-88607950D01*
X147324329Y-88607947D01*
X147131043Y-88569500D01*
X147131041Y-88569500D01*
X145933959Y-88569500D01*
X145933957Y-88569500D01*
X145740670Y-88607947D01*
X145740660Y-88607950D01*
X145558592Y-88683364D01*
X145558579Y-88683371D01*
X145394718Y-88792860D01*
X145394714Y-88792863D01*
X145255363Y-88932214D01*
X145255360Y-88932218D01*
X145145871Y-89096079D01*
X145145864Y-89096092D01*
X145070450Y-89278160D01*
X145070447Y-89278170D01*
X145032000Y-89471456D01*
X145032000Y-89471459D01*
X145032000Y-89668541D01*
X145032000Y-89668543D01*
X145031999Y-89668543D01*
X141966376Y-89668543D01*
X141947166Y-89654162D01*
X141942274Y-89647627D01*
X141935057Y-89643819D01*
X141921643Y-89620066D01*
X141905296Y-89598228D01*
X141904713Y-89590087D01*
X141900700Y-89582980D01*
X141902257Y-89555745D01*
X141900312Y-89528536D01*
X141904326Y-89519576D01*
X141904690Y-89513225D01*
X141921159Y-89482012D01*
X142005378Y-89366096D01*
X142089379Y-89201235D01*
X142146555Y-89025264D01*
X142175500Y-88842514D01*
X142175500Y-88657486D01*
X142146555Y-88474736D01*
X142117967Y-88386750D01*
X142089380Y-88298767D01*
X142089379Y-88298764D01*
X142005377Y-88133903D01*
X141896621Y-87984213D01*
X141765787Y-87853379D01*
X141761576Y-87850319D01*
X141718909Y-87794994D01*
X141712926Y-87725381D01*
X141745529Y-87663585D01*
X141761570Y-87649684D01*
X141765787Y-87646621D01*
X141896621Y-87515787D01*
X142005378Y-87366096D01*
X142089379Y-87201235D01*
X142112998Y-87128543D01*
X145031999Y-87128543D01*
X145070447Y-87321829D01*
X145070450Y-87321839D01*
X145145864Y-87503907D01*
X145145871Y-87503920D01*
X145255360Y-87667781D01*
X145255363Y-87667785D01*
X145394714Y-87807136D01*
X145394718Y-87807139D01*
X145558579Y-87916628D01*
X145558592Y-87916635D01*
X145721735Y-87984210D01*
X145740665Y-87992051D01*
X145740669Y-87992051D01*
X145740670Y-87992052D01*
X145933956Y-88030500D01*
X145933959Y-88030500D01*
X147131043Y-88030500D01*
X147261082Y-88004632D01*
X147324335Y-87992051D01*
X147506414Y-87916632D01*
X147670282Y-87807139D01*
X147809639Y-87667782D01*
X147919132Y-87503914D01*
X147994551Y-87321835D01*
X148033000Y-87128541D01*
X148033000Y-86931459D01*
X148033000Y-86931456D01*
X147994552Y-86738170D01*
X147994551Y-86738169D01*
X147994551Y-86738165D01*
X147961133Y-86657486D01*
X147919135Y-86556092D01*
X147919128Y-86556079D01*
X147809639Y-86392218D01*
X147809636Y-86392214D01*
X147670285Y-86252863D01*
X147670281Y-86252860D01*
X147506420Y-86143371D01*
X147506407Y-86143364D01*
X147324339Y-86067950D01*
X147324329Y-86067947D01*
X147131043Y-86029500D01*
X147131041Y-86029500D01*
X145933959Y-86029500D01*
X145933957Y-86029500D01*
X145740670Y-86067947D01*
X145740660Y-86067950D01*
X145558592Y-86143364D01*
X145558579Y-86143371D01*
X145394718Y-86252860D01*
X145394714Y-86252863D01*
X145255363Y-86392214D01*
X145255360Y-86392218D01*
X145145871Y-86556079D01*
X145145864Y-86556092D01*
X145070450Y-86738160D01*
X145070447Y-86738170D01*
X145032000Y-86931456D01*
X145032000Y-86931459D01*
X145032000Y-87128541D01*
X145032000Y-87128543D01*
X145031999Y-87128543D01*
X142112998Y-87128543D01*
X142146555Y-87025264D01*
X142175500Y-86842514D01*
X142175500Y-86657486D01*
X142146555Y-86474736D01*
X142089379Y-86298765D01*
X142089379Y-86298764D01*
X142046577Y-86214763D01*
X142005378Y-86133904D01*
X141896621Y-85984213D01*
X141765787Y-85853379D01*
X141616096Y-85744622D01*
X141451235Y-85660620D01*
X141451232Y-85660619D01*
X141275265Y-85603445D01*
X141183889Y-85588972D01*
X141092514Y-85574500D01*
X140907486Y-85574500D01*
X140846569Y-85584148D01*
X140724734Y-85603445D01*
X140548767Y-85660619D01*
X140548764Y-85660620D01*
X140383903Y-85744622D01*
X140298499Y-85806672D01*
X140234213Y-85853379D01*
X140234211Y-85853381D01*
X140234210Y-85853381D01*
X140103381Y-85984210D01*
X140103381Y-85984211D01*
X140103379Y-85984213D01*
X140084778Y-86009815D01*
X139994622Y-86133903D01*
X139910620Y-86298764D01*
X139910619Y-86298767D01*
X139853445Y-86474734D01*
X139824500Y-86657486D01*
X138650500Y-86657486D01*
X138650500Y-77407486D01*
X139824500Y-77407486D01*
X139824500Y-77592513D01*
X139853445Y-77775265D01*
X139910619Y-77951232D01*
X139910620Y-77951235D01*
X139994622Y-78116096D01*
X140103379Y-78265787D01*
X140234213Y-78396621D01*
X140238421Y-78399678D01*
X140238432Y-78399686D01*
X140281094Y-78455019D01*
X140287069Y-78524633D01*
X140254459Y-78586426D01*
X140238432Y-78600314D01*
X140234210Y-78603381D01*
X140103381Y-78734210D01*
X140103381Y-78734211D01*
X140103379Y-78734213D01*
X140056672Y-78798499D01*
X139994622Y-78883903D01*
X139910620Y-79048764D01*
X139910619Y-79048767D01*
X139853445Y-79224734D01*
X139824500Y-79407486D01*
X139824500Y-79592513D01*
X139853445Y-79775265D01*
X139910619Y-79951232D01*
X139910620Y-79951235D01*
X139994622Y-80116096D01*
X140103379Y-80265787D01*
X140234213Y-80396621D01*
X140238421Y-80399678D01*
X140238432Y-80399686D01*
X140281094Y-80455019D01*
X140287069Y-80524633D01*
X140254459Y-80586426D01*
X140238432Y-80600314D01*
X140234210Y-80603381D01*
X140103381Y-80734210D01*
X140103381Y-80734211D01*
X140103379Y-80734213D01*
X140056672Y-80798499D01*
X139994622Y-80883903D01*
X139910620Y-81048764D01*
X139910619Y-81048767D01*
X139853445Y-81224734D01*
X139824500Y-81407486D01*
X139824500Y-81592513D01*
X139853445Y-81775265D01*
X139910619Y-81951232D01*
X139910620Y-81951235D01*
X139960201Y-82048541D01*
X139994622Y-82116096D01*
X140078840Y-82232012D01*
X140102320Y-82297817D01*
X140086495Y-82365871D01*
X140052833Y-82404164D01*
X139967809Y-82467813D01*
X139881649Y-82582906D01*
X139881645Y-82582913D01*
X139831403Y-82717620D01*
X139831401Y-82717627D01*
X139825000Y-82777155D01*
X139825000Y-83250000D01*
X140684314Y-83250000D01*
X140679920Y-83254394D01*
X140627259Y-83345606D01*
X140600000Y-83447339D01*
X140600000Y-83552661D01*
X140627259Y-83654394D01*
X140679920Y-83745606D01*
X140684314Y-83750000D01*
X139825000Y-83750000D01*
X139825000Y-84222844D01*
X139831401Y-84282372D01*
X139831403Y-84282379D01*
X139881645Y-84417086D01*
X139881649Y-84417093D01*
X139967809Y-84532187D01*
X139967812Y-84532190D01*
X140082906Y-84618350D01*
X140082913Y-84618354D01*
X140217620Y-84668596D01*
X140217627Y-84668598D01*
X140277155Y-84674999D01*
X140277172Y-84675000D01*
X140750000Y-84675000D01*
X140750000Y-83815686D01*
X140754394Y-83820080D01*
X140845606Y-83872741D01*
X140947339Y-83900000D01*
X141052661Y-83900000D01*
X141154394Y-83872741D01*
X141245606Y-83820080D01*
X141250000Y-83815686D01*
X141250000Y-84675000D01*
X141722828Y-84675000D01*
X141722844Y-84674999D01*
X141782372Y-84668598D01*
X141782379Y-84668596D01*
X141917086Y-84618354D01*
X141917093Y-84618350D01*
X141956910Y-84588543D01*
X145031999Y-84588543D01*
X145070447Y-84781829D01*
X145070450Y-84781839D01*
X145145864Y-84963907D01*
X145145871Y-84963920D01*
X145255360Y-85127781D01*
X145255363Y-85127785D01*
X145394714Y-85267136D01*
X145394718Y-85267139D01*
X145558579Y-85376628D01*
X145558592Y-85376635D01*
X145740660Y-85452049D01*
X145740665Y-85452051D01*
X145740669Y-85452051D01*
X145740670Y-85452052D01*
X145933956Y-85490500D01*
X145933959Y-85490500D01*
X147131043Y-85490500D01*
X147261082Y-85464632D01*
X147324335Y-85452051D01*
X147506414Y-85376632D01*
X147670282Y-85267139D01*
X147809639Y-85127782D01*
X147919132Y-84963914D01*
X147994551Y-84781835D01*
X148015802Y-84674999D01*
X148033000Y-84588543D01*
X148033000Y-84391456D01*
X147994552Y-84198170D01*
X147994551Y-84198169D01*
X147994551Y-84198165D01*
X147994549Y-84198160D01*
X147919135Y-84016092D01*
X147919128Y-84016079D01*
X147809639Y-83852218D01*
X147809636Y-83852214D01*
X147670285Y-83712863D01*
X147670281Y-83712860D01*
X147506420Y-83603371D01*
X147506407Y-83603364D01*
X147324339Y-83527950D01*
X147324329Y-83527947D01*
X147131043Y-83489500D01*
X147131041Y-83489500D01*
X145933959Y-83489500D01*
X145933957Y-83489500D01*
X145740670Y-83527947D01*
X145740660Y-83527950D01*
X145558592Y-83603364D01*
X145558579Y-83603371D01*
X145394718Y-83712860D01*
X145394714Y-83712863D01*
X145255363Y-83852214D01*
X145255360Y-83852218D01*
X145145871Y-84016079D01*
X145145864Y-84016092D01*
X145070450Y-84198160D01*
X145070447Y-84198170D01*
X145032000Y-84391456D01*
X145032000Y-84391459D01*
X145032000Y-84588541D01*
X145032000Y-84588543D01*
X145031999Y-84588543D01*
X141956910Y-84588543D01*
X142032187Y-84532190D01*
X142032190Y-84532187D01*
X142118350Y-84417093D01*
X142118354Y-84417086D01*
X142146347Y-84342034D01*
X142168596Y-84282379D01*
X142168598Y-84282372D01*
X142174999Y-84222844D01*
X142175000Y-84222827D01*
X142175000Y-83750000D01*
X141315686Y-83750000D01*
X141320080Y-83745606D01*
X141372741Y-83654394D01*
X141400000Y-83552661D01*
X141400000Y-83447339D01*
X141372741Y-83345606D01*
X141320080Y-83254394D01*
X141315686Y-83250000D01*
X142175000Y-83250000D01*
X142175000Y-82777172D01*
X142174999Y-82777155D01*
X142168598Y-82717627D01*
X142168596Y-82717620D01*
X142118354Y-82582913D01*
X142118350Y-82582906D01*
X142032190Y-82467812D01*
X141947166Y-82404162D01*
X141905296Y-82348228D01*
X141900312Y-82278536D01*
X141921157Y-82232015D01*
X142005378Y-82116096D01*
X142039798Y-82048543D01*
X145031999Y-82048543D01*
X145070447Y-82241829D01*
X145070450Y-82241839D01*
X145145864Y-82423907D01*
X145145871Y-82423920D01*
X145255360Y-82587781D01*
X145255363Y-82587785D01*
X145394714Y-82727136D01*
X145394718Y-82727139D01*
X145558579Y-82836628D01*
X145558592Y-82836635D01*
X145740660Y-82912049D01*
X145740665Y-82912051D01*
X145740669Y-82912051D01*
X145740670Y-82912052D01*
X145933956Y-82950500D01*
X145933959Y-82950500D01*
X147131043Y-82950500D01*
X147261082Y-82924632D01*
X147324335Y-82912051D01*
X147506414Y-82836632D01*
X147670282Y-82727139D01*
X147809639Y-82587782D01*
X147919132Y-82423914D01*
X147927314Y-82404162D01*
X147950482Y-82348228D01*
X147994551Y-82241835D01*
X148007132Y-82178582D01*
X148033000Y-82048543D01*
X164751999Y-82048543D01*
X164790447Y-82241829D01*
X164790450Y-82241839D01*
X164865864Y-82423907D01*
X164865871Y-82423920D01*
X164975360Y-82587781D01*
X164975363Y-82587785D01*
X165114714Y-82727136D01*
X165114718Y-82727139D01*
X165278579Y-82836628D01*
X165278592Y-82836635D01*
X165460660Y-82912049D01*
X165460665Y-82912051D01*
X165460669Y-82912051D01*
X165460670Y-82912052D01*
X165653956Y-82950500D01*
X165653959Y-82950500D01*
X166851043Y-82950500D01*
X166981082Y-82924632D01*
X167044335Y-82912051D01*
X167226414Y-82836632D01*
X167390282Y-82727139D01*
X167529639Y-82587782D01*
X167639132Y-82423914D01*
X167647314Y-82404162D01*
X167670482Y-82348228D01*
X167714551Y-82241835D01*
X167727132Y-82178582D01*
X167753000Y-82048543D01*
X167753000Y-81851456D01*
X167714552Y-81658170D01*
X167714551Y-81658169D01*
X167714551Y-81658165D01*
X167687357Y-81592513D01*
X167639135Y-81476092D01*
X167639128Y-81476079D01*
X167529639Y-81312218D01*
X167529636Y-81312214D01*
X167390285Y-81172863D01*
X167390281Y-81172860D01*
X167226420Y-81063371D01*
X167226407Y-81063364D01*
X167044339Y-80987950D01*
X167044329Y-80987947D01*
X166851043Y-80949500D01*
X166851041Y-80949500D01*
X165653959Y-80949500D01*
X165653957Y-80949500D01*
X165460670Y-80987947D01*
X165460660Y-80987950D01*
X165278592Y-81063364D01*
X165278579Y-81063371D01*
X165114718Y-81172860D01*
X165114714Y-81172863D01*
X164975363Y-81312214D01*
X164975360Y-81312218D01*
X164865871Y-81476079D01*
X164865864Y-81476092D01*
X164790450Y-81658160D01*
X164790447Y-81658170D01*
X164752000Y-81851456D01*
X164752000Y-81851459D01*
X164752000Y-82048541D01*
X164752000Y-82048543D01*
X164751999Y-82048543D01*
X148033000Y-82048543D01*
X148033000Y-81851456D01*
X147994552Y-81658170D01*
X147994551Y-81658169D01*
X147994551Y-81658165D01*
X147967357Y-81592513D01*
X147919135Y-81476092D01*
X147919128Y-81476079D01*
X147809639Y-81312218D01*
X147809636Y-81312214D01*
X147670285Y-81172863D01*
X147670281Y-81172860D01*
X147506420Y-81063371D01*
X147506407Y-81063364D01*
X147324339Y-80987950D01*
X147324329Y-80987947D01*
X147131043Y-80949500D01*
X147131041Y-80949500D01*
X145933959Y-80949500D01*
X145933957Y-80949500D01*
X145740670Y-80987947D01*
X145740660Y-80987950D01*
X145558592Y-81063364D01*
X145558579Y-81063371D01*
X145394718Y-81172860D01*
X145394714Y-81172863D01*
X145255363Y-81312214D01*
X145255360Y-81312218D01*
X145145871Y-81476079D01*
X145145864Y-81476092D01*
X145070450Y-81658160D01*
X145070447Y-81658170D01*
X145032000Y-81851456D01*
X145032000Y-81851459D01*
X145032000Y-82048541D01*
X145032000Y-82048543D01*
X145031999Y-82048543D01*
X142039798Y-82048543D01*
X142089379Y-81951235D01*
X142146555Y-81775264D01*
X142175500Y-81592514D01*
X142175500Y-81407486D01*
X142146555Y-81224736D01*
X142094124Y-81063368D01*
X142089380Y-81048767D01*
X142089379Y-81048764D01*
X142005377Y-80883903D01*
X141896621Y-80734213D01*
X141765787Y-80603379D01*
X141761576Y-80600319D01*
X141718909Y-80544994D01*
X141712926Y-80475381D01*
X141745529Y-80413585D01*
X141761570Y-80399684D01*
X141765787Y-80396621D01*
X141896621Y-80265787D01*
X142005378Y-80116096D01*
X142089379Y-79951235D01*
X142146555Y-79775264D01*
X142175500Y-79592514D01*
X142175500Y-79407486D01*
X142146555Y-79224736D01*
X142089379Y-79048765D01*
X142089379Y-79048764D01*
X142005377Y-78883903D01*
X141896621Y-78734213D01*
X141765787Y-78603379D01*
X141761576Y-78600319D01*
X141718909Y-78544994D01*
X141712926Y-78475381D01*
X141745529Y-78413585D01*
X141761570Y-78399684D01*
X141765787Y-78396621D01*
X141896621Y-78265787D01*
X142005378Y-78116096D01*
X142089379Y-77951235D01*
X142146555Y-77775264D01*
X142175500Y-77592514D01*
X142175500Y-77407486D01*
X142146555Y-77224736D01*
X142089379Y-77048765D01*
X142089379Y-77048764D01*
X142005377Y-76883903D01*
X141896621Y-76734213D01*
X141765787Y-76603379D01*
X141616096Y-76494622D01*
X141451235Y-76410620D01*
X141451232Y-76410619D01*
X141275265Y-76353445D01*
X141183889Y-76338972D01*
X141092514Y-76324500D01*
X140907486Y-76324500D01*
X140846569Y-76334148D01*
X140724734Y-76353445D01*
X140548767Y-76410619D01*
X140548764Y-76410620D01*
X140383903Y-76494622D01*
X140298499Y-76556672D01*
X140234213Y-76603379D01*
X140234211Y-76603381D01*
X140234210Y-76603381D01*
X140103381Y-76734210D01*
X140103381Y-76734211D01*
X140103379Y-76734213D01*
X140056672Y-76798499D01*
X139994622Y-76883903D01*
X139910620Y-77048764D01*
X139910619Y-77048767D01*
X139853445Y-77224734D01*
X139824500Y-77407486D01*
X138650500Y-77407486D01*
X138650500Y-73151832D01*
X138670185Y-73084793D01*
X138722989Y-73039038D01*
X138774500Y-73027832D01*
X168476000Y-73027832D01*
X168543039Y-73047517D01*
G37*
%TD.AperFunction*%
%TD*%
M02*
