<svg xmlns="http://www.w3.org/2000/svg" xml:space="preserve" style="fill-rule:evenodd;clip-rule:evenodd;stroke-linejoin:round;stroke-miterlimit:1.5" viewBox="0 0 320 320"><path d="M289.74 0h320v320h-320z" style="fill:none" transform="translate(-289.74)"/><path d="M72.245 45.492a4.509 4.509 0 0 1-5.679 2.899L30.654 36.752a4.51 4.51 0 0 1 2.781-8.578l35.912 11.639a4.508 4.508 0 0 1 2.898 5.679" style="fill:#00d4b9;fill-rule:nonzero" transform="matrix(3.82599 1.04094 -1.04094 3.82599 8.606 -16.452)"/><path d="M72.245 22.056a4.509 4.509 0 0 1-5.679 2.899L30.654 13.316a4.509 4.509 0 1 1 2.781-8.578l35.912 11.639a4.508 4.508 0 0 1 2.898 5.679" style="fill:#00d4b9;fill-rule:nonzero" transform="matrix(3.82599 1.04094 -1.04094 3.82599 8.408 -15.832)"/><path d="M329.986 43.599V99.47" style="fill:none;stroke:#fff;stroke-width:7.24px" transform="matrix(3.17503 .85029 -.85029 3.17503 -825.55 -353.452)"/><circle cx="43.338" cy="25.176" r="10.329" style="fill:none;stroke:#fff;stroke-width:9.3px;stroke-linecap:round" transform="matrix(2.47008 .6615 -.6615 2.47008 38.306 185.272)"/><circle cx="43.338" cy="25.176" r="10.329" style="fill:none;stroke:#fff;stroke-width:9.3px;stroke-linecap:round" transform="matrix(2.47008 .6615 .6615 -2.47008 67.197 77.392)"/><path d="M72.245 45.492a4.509 4.509 0 0 1-5.679 2.899L30.654 36.752a4.51 4.51 0 0 1 2.781-8.578l35.912 11.639a4.508 4.508 0 0 1 2.898 5.679" style="fill:#00fede;fill-rule:nonzero" transform="matrix(-3.82599 -1.04094 -1.04094 3.82599 403.296 43.1)"/><path d="M72.245 45.492a4.509 4.509 0 0 1-5.679 2.899L30.654 36.752a4.51 4.51 0 0 1 2.781-8.578l35.912 11.639a4.508 4.508 0 0 1 2.898 5.679" style="fill:#00fede;fill-rule:nonzero" transform="matrix(-3.82599 -1.04094 -1.04094 3.82599 379.002 132.172)"/></svg>