<svg xmlns="http://www.w3.org/2000/svg" xml:space="preserve" style="fill-rule:evenodd;clip-rule:evenodd;stroke-linejoin:round;stroke-miterlimit:1.5" viewBox="0 0 187 85"><path d="M150 0h100v125H150z" style="fill:none" transform="matrix(1.8666 0 0 .67938 -279.989 0)"/><path d="M22.778 51.731c-2.858 0-5.044-.64-6.558-1.92-1.515-1.28-2.634-2.717-3.359-4.311h-1.152v5.216H3.647V0h8.062v19.997h1.152c.853-1.981 2.1-3.514 3.743-4.601 1.642-1.087 3.7-1.63 6.174-1.63 2.516 0 4.82.724 6.91 2.173s3.775 3.539 5.055 6.268c1.279 2.729 1.919 6.025 1.919 9.889V33.4c0 3.913-.618 7.233-1.855 9.962-1.237 2.73-2.901 4.806-4.991 6.231-2.09 1.425-4.436 2.138-7.038 2.138m-2.623-8.695c2.516 0 4.553-.893 6.11-2.68 1.557-1.787 2.335-4.178 2.335-7.173v-.869c0-2.995-.778-5.386-2.335-7.173s-3.594-2.681-6.11-2.681c-2.474 0-4.501.906-6.079 2.717-1.578 1.811-2.367 4.19-2.367 7.137v.869c0 2.946.789 5.325 2.367 7.137 1.578 1.811 3.605 2.716 6.079 2.716M55.537 51.731c-2.901 0-5.609-.725-8.126-2.174-2.516-1.449-4.543-3.55-6.078-6.303-1.536-2.753-2.304-6.11-2.304-10.071v-.869c0-3.913.768-7.258 2.304-10.035 1.535-2.777 3.562-4.891 6.078-6.34a16.014 16.014 0 0 1 8.126-2.173c2.901 0 5.609.724 8.126 2.173 2.516 1.449 4.543 3.563 6.078 6.34 1.536 2.777 2.304 6.122 2.304 10.035v.869c0 3.961-.768 7.318-2.304 10.071-1.535 2.753-3.562 4.854-6.078 6.303a16.015 16.015 0 0 1-8.126 2.174m0-8.695s4.34-.857 5.982-2.572c1.643-1.714 2.464-4.045 2.464-6.991v-1.449c0-2.995-.821-5.338-2.464-7.028-1.642-1.691-3.636-2.536-5.982-2.536s-4.34.845-5.982 2.536c-1.643 1.69-2.464 4.033-2.464 7.028v1.449c0 2.946.821 5.277 2.464 6.991 1.642 1.715 5.982 2.572 5.982 2.572M87.976 51.731c-2.602 0-4.948-.713-7.038-2.138-2.09-1.425-3.754-3.501-4.991-6.231-1.237-2.729-1.855-6.049-1.855-9.962v-1.304c0-3.864.65-7.16 1.951-9.889 1.301-2.729 3.029-4.819 5.183-6.268 2.154-1.449 4.511-2.173 7.07-2.173s4.596.543 6.11 1.63c1.515 1.087 2.677 2.62 3.488 4.601h1.151V0h8.062v50.716h-8.062V45.5h-1.151c-.64 1.594-1.696 3.031-3.168 4.311-1.471 1.28-3.721 1.92-6.75 1.92m2.624-8.695c2.516 0 4.553-.905 6.11-2.716 1.557-1.812 2.335-4.191 2.335-7.137v-.869c0-2.947-.778-5.326-2.335-7.137s-3.594-2.717-6.11-2.717c-2.474 0-4.501.894-6.079 2.681-1.578 1.787-2.367 4.178-2.367 7.173v.869c0 2.995.789 5.386 2.367 7.173 1.578 1.787 3.605 2.68 6.079 2.68M124.446 51.731c-2.516 0-4.841-.725-6.974-2.174-2.132-1.449-3.839-3.55-5.118-6.303-1.28-2.753-1.92-6.062-1.92-9.926v-1.159c0-3.816.619-7.101 1.856-9.854 1.237-2.753 2.89-4.866 4.958-6.339 2.069-1.474 4.34-2.21 6.814-2.21 2.261 0 4.085.435 5.471 1.304 1.386.869 2.485 2.222 3.295 4.057h1.152V14.78h8.062v25.069c0 1.449.575 2.173 1.727 2.173h1.216v8.694h-5.503c-1.45 0-2.634-.495-3.551-1.485-.917-.99-1.375-2.234-1.375-3.731h-1.152c-.81 2.222-1.994 3.816-3.551 4.782-1.557.966-3.359 1.449-5.407 1.449m1.792-8.695c2.346 0 4.223-.881 5.63-2.644 1.408-1.763 2.112-4.166 2.112-7.209v-.869c0-3.043-.704-5.446-2.112-7.209-1.407-1.763-3.284-2.645-5.63-2.645s-4.223.882-5.631 2.645c-1.407 1.763-2.111 4.166-2.111 7.209v.869c0 3.043.704 5.446 2.111 7.209 1.408 1.763 3.285 2.644 5.631 2.644M171.602 65.207V45.5h-1.152c-.64 1.594-1.696 3.031-3.167 4.311-1.472 1.28-3.722 1.92-6.75 1.92-2.602 0-4.948-.713-7.038-2.138-2.091-1.425-3.754-3.501-4.991-6.231-1.237-2.729-1.856-6.049-1.856-9.962v-1.304c0-3.864.651-7.16 1.952-9.889 1.301-2.729 3.028-4.819 5.182-6.268 2.155-1.449 4.511-2.173 7.071-2.173 2.559 0 4.596.543 6.11 1.63 1.514 1.087 2.677 2.62 3.487 4.601h1.152V14.78h8.061v50.427zm-8.446-22.171c2.517 0 4.553-.905 6.11-2.716 1.557-1.812 2.336-4.191 2.336-7.137v-.869c0-2.947-.779-5.326-2.336-7.137s-3.593-2.717-6.11-2.717c-2.474 0-4.5.894-6.078 2.681-1.579 1.787-2.368 4.178-2.368 7.173v.869c0 2.995.789 5.386 2.368 7.173 1.578 1.787 3.604 2.68 6.078 2.68M196.939 51.731c-3.285 0-5.94-.604-7.966-1.812-2.026-1.207-3.562-2.68-4.607-4.419-1.045-1.739-1.717-3.43-2.015-5.072l7.422-2.753c.341 1.497 1.066 2.838 2.175 4.021 1.109 1.183 2.773 1.775 4.991 1.775 2.005 0 3.38-.35 4.127-1.05.746-.701 1.119-1.461 1.119-2.283 0-.966-.448-1.811-1.343-2.535-.896-.725-2.688-1.208-5.375-1.449-3.54-.339-6.377-1.401-8.51-3.188-2.132-1.788-3.199-4.372-3.199-7.753v-.434c0-2.367.576-4.372 1.728-6.014a10.996 10.996 0 0 1 4.479-3.731 13.75 13.75 0 0 1 5.822-1.268c2.687 0 4.905.471 6.654 1.413 1.749.942 3.125 2.113 4.127 3.514 1.003 1.4 1.717 2.801 2.144 4.202l-7.294 3.333c-.384-1.305-1.045-2.331-1.984-3.08-.938-.748-2.154-1.123-3.647-1.123-1.322 0-2.335.278-3.039.834-.704.555-1.056 1.243-1.056 2.064 0 1.16.533 1.981 1.6 2.464 1.066.483 3.007.918 5.822 1.304 3.242.386 5.887 1.485 7.934 3.297 2.048 1.811 3.071 4.335 3.071 7.571v.434c0 3.526-1.151 6.364-3.455 8.514-2.303 2.149-5.545 3.224-9.725 3.224" style="fill:#fff;fill-rule:nonzero" transform="matrix(.62517 0 0 .5521 52.018 27.95)"/><path d="M72.245 45.492a4.509 4.509 0 0 1-5.679 2.899L30.654 36.752a4.51 4.51 0 0 1 2.781-8.578l35.912 11.639a4.508 4.508 0 0 1 2.898 5.679" style="fill:#00d4b9;fill-rule:nonzero" transform="rotate(-.882 734.008 1624.92)"/><path d="M72.245 22.056a4.509 4.509 0 0 1-5.679 2.899L30.654 13.316a4.509 4.509 0 1 1 2.781-8.578l35.912 11.639a4.508 4.508 0 0 1 2.898 5.679" style="fill:#00d4b9;fill-rule:nonzero" transform="rotate(-.882 744.691 1625.303)"/><path d="M329.986 43.599V99.47" style="fill:none;stroke:#fff;stroke-width:7.24px" transform="matrix(.82881 -.01603 .01603 .82881 -250.562 -11.854)"/><circle cx="43.338" cy="25.176" r="10.329" style="fill:none;stroke:#fff;stroke-width:9.3px;stroke-linecap:round" transform="matrix(.6448 -.01247 .01247 .6448 -3.563 58.268)"/><circle cx="43.338" cy="25.176" r="10.329" style="fill:none;stroke:#fff;stroke-width:9.3px;stroke-linecap:round" transform="matrix(.6448 -.01247 -.01247 -.6448 -4.107 30.107)"/><path d="M72.245 45.492a4.509 4.509 0 0 1-5.679 2.899L30.654 36.752a4.51 4.51 0 0 1 2.781-8.578l35.912 11.639a4.508 4.508 0 0 1 2.898 5.679" style="fill:#00fede;fill-rule:nonzero" transform="matrix(-.99988 .01536 .01536 .99988 74.935 -1.71)"/><path d="M72.245 45.492a4.509 4.509 0 0 1-5.679 2.899L30.654 36.752a4.51 4.51 0 0 1 2.781-8.578l35.912 11.639a4.508 4.508 0 0 1 2.898 5.679" style="fill:#00fede;fill-rule:nonzero" transform="matrix(-.99988 .01536 .01536 .99988 75.278 21.573)"/></svg>