<svg xmlns="http://www.w3.org/2000/svg" xml:space="preserve"
     style="fill-rule:evenodd;clip-rule:evenodd;stroke-linejoin:round;stroke-miterlimit:2" viewBox="0 0 404 186"><path d="M853.643 130.159h211v228.807h-211z" style="fill:none" transform="matrix(1.91038 0 0 .81228 -1630.78 -105.726)"/>
    <path d="m79.115 104.784-17.128-5.26L78.9 93.751zM92.825 93.387l22.117 6.795-21.842 7.452zM78.369 66.24 55.82 59.311a7.461 7.461 0 1 1 4.384-14.263l7.904 2.43a18.06 18.06 0 0 0 10.094 10.12zM94.984 55.734l19.34 5.942-21.968 7.494-.23-11.842c1.006-.445 1.96-.98 2.858-1.594"/>
    <path d="m80.505 73.214-.33-17.04c-6.435-1.968-11.177-7.896-11.314-14.985-.171-8.82 6.853-16.122 15.674-16.292s16.122 6.853 16.292 15.674c.138 7.09-4.372 13.196-10.726 15.41l.268 13.867zm4.456-26.276a6.063 6.063 0 0 0 5.94-6.175 6.06 6.06 0 0 0-6.174-5.94 6.06 6.06 0 0 0-5.94 6.174 6.06 6.06 0 0 0 6.174 5.941M90.753 89.71l.36 18.602-9.865 3.365-.36-18.603zM94.447 127.166c4.861 2.664 8.205 7.785 8.32 13.721.17 8.821-6.853 16.122-15.675 16.292-8.821.171-16.122-6.853-16.293-15.674a15.9 15.9 0 0 1 1.342-6.73zm-7.782 7.973a6.06 6.06 0 0 0-5.94 6.174 6.06 6.06 0 0 0 6.175 5.94 6.06 6.06 0 0 0 5.94-6.174 6.06 6.06 0 0 0-6.175-5.94M52.11 131.614a7.46 7.46 0 0 0 9.469 4.652l59.118-20.169a7.46 7.46 0 1 0-4.819-14.121L56.76 122.144a7.46 7.46 0 0 0-4.65 9.47M51.542 93.09a7.46 7.46 0 0 0 9.47 4.652l59.118-20.168a7.46 7.46 0 1 0-4.819-14.121L56.192 83.62a7.46 7.46 0 0 0-4.65 9.47"/>
    <path d="M22.778 51.731q-4.287 0-6.558-1.92T12.861 45.5h-1.152v5.216H3.647V0h8.062v19.997h1.152q1.279-2.971 3.743-4.601t6.174-1.63q3.774 0 6.91 2.173 3.135 2.174 5.055 6.268t1.919 9.889V33.4q0 5.869-1.855 9.962-1.856 4.094-4.991 6.231-3.135 2.138-7.038 2.138m-2.623-8.695q3.774 0 6.11-2.68 2.335-2.68 2.335-7.173v-.869q0-4.492-2.335-7.173t-6.11-2.681q-3.712 0-6.079 2.717t-2.367 7.137v.869q0 4.419 2.367 7.137 2.367 2.716 6.079 2.716M55.537 51.731q-4.351 0-8.126-2.174t-6.078-6.303-2.304-10.071v-.869q0-5.87 2.304-10.035 2.303-4.166 6.078-6.34a16 16 0 0 1 8.126-2.173q4.351 0 8.126 2.173t6.078 6.34 2.304 10.035v.869q0 5.941-2.304 10.071t-6.078 6.303a16 16 0 0 1-8.126 2.174m0-8.695s4.34-.857 5.982-2.572q2.464-2.572 2.464-6.991v-1.449q0-4.493-2.464-7.028-2.463-2.536-5.982-2.536t-5.982 2.536-2.464 7.028v1.449q0 4.42 2.464 6.991c1.642 1.715 5.982 2.572 5.982 2.572M87.976 51.731q-3.903 0-7.038-2.138t-4.991-6.231q-1.855-4.093-1.855-9.962v-1.304q0-5.796 1.951-9.889 1.952-4.094 5.183-6.268t7.07-2.173 6.11 1.63q2.272 1.63 3.488 4.601h1.151V0h8.062v50.716h-8.062V45.5h-1.151q-.96 2.391-3.168 4.311-2.207 1.92-6.75 1.92m2.624-8.695q3.774 0 6.11-2.716 2.335-2.718 2.335-7.137v-.869q0-4.42-2.335-7.137T90.6 22.46q-3.712 0-6.079 2.681t-2.367 7.173v.869q0 4.493 2.367 7.173t6.079 2.68M124.446 51.731q-3.774 0-6.974-2.174-3.199-2.173-5.118-6.303t-1.92-9.926v-1.159q0-5.724 1.856-9.854t4.958-6.339q3.103-2.21 6.814-2.21 3.392 0 5.471 1.304t3.295 4.057h1.152V14.78h8.062v25.069q0 2.173 1.727 2.173h1.216v8.694h-5.503q-2.175 0-3.551-1.485-1.375-1.485-1.375-3.731h-1.152q-1.215 3.333-3.551 4.782-2.335 1.449-5.407 1.449m1.792-8.695q3.52 0 5.63-2.644 2.112-2.645 2.112-7.209v-.869q0-4.564-2.112-7.209-2.11-2.645-5.63-2.645t-5.631 2.645q-2.11 2.645-2.111 7.209v.869q0 4.565 2.111 7.209t5.631 2.644M171.602 65.207V45.5h-1.152q-.96 2.391-3.167 4.311-2.208 1.92-6.75 1.92-3.903 0-7.038-2.138t-4.991-6.231-1.856-9.962v-1.304q0-5.796 1.952-9.889 1.951-4.094 5.182-6.268t7.071-2.173 6.11 1.63q2.272 1.63 3.487 4.601h1.152V14.78h8.061v50.427zm-8.446-22.171q3.775 0 6.11-2.716 2.336-2.718 2.336-7.137v-.869q0-4.42-2.336-7.137t-6.11-2.717q-3.711 0-6.078 2.681t-2.368 7.173v.869q0 4.493 2.368 7.173t6.078 2.68M196.939 51.731q-4.927 0-7.966-1.812-3.04-1.81-4.607-4.419t-2.015-5.072l7.422-2.753q.512 2.246 2.175 4.021 1.664 1.775 4.991 1.775 3.007 0 4.127-1.05t1.119-2.283q0-1.449-1.343-2.535-1.344-1.087-5.375-1.449-5.31-.508-8.51-3.188-3.199-2.682-3.199-7.753v-.434q0-3.55 1.728-6.014a11 11 0 0 1 4.479-3.731 13.75 13.75 0 0 1 5.822-1.268q4.03 0 6.654 1.413t4.127 3.514q1.504 2.1 2.144 4.202l-7.294 3.333q-.576-1.957-1.984-3.08t-3.647-1.123q-1.983 0-3.039.834-1.056.832-1.056 2.064 0 1.74 1.6 2.464 1.6.725 5.822 1.304 4.863.579 7.934 3.297t3.071 7.571v.434q0 5.289-3.455 8.514t-9.725 3.224"
          style="fill-rule:nonzero" transform="matrix(1.05838 0 0 .93466 136.518 65.395)"/></svg>
