%TF.GenerationSoftware,KiCad,Pcbnew,9.0.5*%
%TF.CreationDate,2026-03-05T20:50:44+11:00*%
%TF.ProjectId,BODAQS shield Proto E SMD,424f4441-5153-4207-9368-69656c642050,rev?*%
%TF.SameCoordinates,Original*%
%TF.FileFunction,Legend,Bot*%
%TF.FilePolarity,Positive*%
%FSLAX46Y46*%
G04 Gerber Fmt 4.6, Leading zero omitted, Abs format (unit mm)*
G04 Created by KiCad (PCBNEW 9.0.5) date 2026-03-05 20:50:44*
%MOMM*%
%LPD*%
G01*
G04 APERTURE LIST*
G04 Aperture macros list*
%AMRoundRect*
0 Rectangle with rounded corners*
0 $1 Rounding radius*
0 $2 $3 $4 $5 $6 $7 $8 $9 X,Y pos of 4 corners*
0 Add a 4 corners polygon primitive as box body*
4,1,4,$2,$3,$4,$5,$6,$7,$8,$9,$2,$3,0*
0 Add four circle primitives for the rounded corners*
1,1,$1+$1,$2,$3*
1,1,$1+$1,$4,$5*
1,1,$1+$1,$6,$7*
1,1,$1+$1,$8,$9*
0 Add four rect primitives between the rounded corners*
20,1,$1+$1,$2,$3,$4,$5,0*
20,1,$1+$1,$4,$5,$6,$7,0*
20,1,$1+$1,$6,$7,$8,$9,0*
20,1,$1+$1,$8,$9,$2,$3,0*%
G04 Aperture macros list end*
%ADD10R,1.700000X1.700000*%
%ADD11C,1.700000*%
%ADD12R,1.350000X1.350000*%
%ADD13C,1.350000*%
%ADD14RoundRect,0.250000X1.050000X0.550000X-1.050000X0.550000X-1.050000X-0.550000X1.050000X-0.550000X0*%
%ADD15O,2.600000X1.600000*%
G04 APERTURE END LIST*
%LPC*%
D10*
%TO.C,J4*%
X141000000Y-107000000D03*
D11*
X141000000Y-104460000D03*
X141000000Y-101920000D03*
X141000000Y-99380000D03*
X141000000Y-96840000D03*
X141000000Y-94300000D03*
%TD*%
D12*
%TO.C,J1*%
X179000000Y-123400000D03*
D13*
X181000000Y-123400000D03*
X183000000Y-123400000D03*
%TD*%
D10*
%TO.C,J9*%
X141000000Y-118870000D03*
D11*
X141000000Y-116330000D03*
X141000000Y-113790000D03*
X141000000Y-111250000D03*
%TD*%
D12*
%TO.C,J5*%
X141000000Y-83500000D03*
D13*
X141000000Y-81500000D03*
X141000000Y-79500000D03*
X141000000Y-77500000D03*
%TD*%
D12*
%TO.C,J3*%
X141000000Y-90750000D03*
D13*
X141000000Y-88750000D03*
X141000000Y-86750000D03*
%TD*%
D12*
%TO.C,J6*%
X183000000Y-77900000D03*
D13*
X181000000Y-77900000D03*
X179000000Y-77900000D03*
%TD*%
D12*
%TO.C,J8*%
X174800000Y-123400000D03*
D13*
X172800000Y-123400000D03*
X170800000Y-123400000D03*
%TD*%
D14*
%TO.C,U1*%
X166252500Y-120050000D03*
D15*
X166252500Y-117510000D03*
X166252500Y-114970000D03*
X166252500Y-112430000D03*
X166252500Y-109890000D03*
X166252500Y-107350000D03*
X166252500Y-104810000D03*
X166252500Y-102270000D03*
X166252500Y-99730000D03*
X166252500Y-97190000D03*
X166252500Y-94650000D03*
X166252500Y-92110000D03*
X166252500Y-89570000D03*
X166252500Y-87030000D03*
X166252500Y-84490000D03*
X166252500Y-81950000D03*
X146532500Y-81950000D03*
X146532500Y-84490000D03*
X146532500Y-87030000D03*
X146532500Y-89570000D03*
X146532500Y-92110000D03*
X146532500Y-94650000D03*
X146532500Y-97190000D03*
X146532500Y-99730000D03*
X146532500Y-102270000D03*
X146532500Y-104810000D03*
X146532500Y-107350000D03*
X146532500Y-109890000D03*
%TD*%
D12*
%TO.C,J7*%
X170800000Y-77900000D03*
D13*
X172800000Y-77900000D03*
X174800000Y-77900000D03*
%TD*%
%LPD*%
M02*
