%TF.GenerationSoftware,KiCad,Pcbnew,9.0.5*%
%TF.CreationDate,2026-03-05T20:50:43+11:00*%
%TF.ProjectId,BODAQS shield Proto E SMD,424f4441-5153-4207-9368-69656c642050,rev?*%
%TF.SameCoordinates,Original*%
%TF.FileFunction,Paste,Top*%
%TF.FilePolarity,Positive*%
%FSLAX46Y46*%
G04 Gerber Fmt 4.6, Leading zero omitted, Abs format (unit mm)*
G04 Created by KiCad (PCBNEW 9.0.5) date 2026-03-05 20:50:43*
%MOMM*%
%LPD*%
G01*
G04 APERTURE LIST*
G04 Aperture macros list*
%AMRoundRect*
0 Rectangle with rounded corners*
0 $1 Rounding radius*
0 $2 $3 $4 $5 $6 $7 $8 $9 X,Y pos of 4 corners*
0 Add a 4 corners polygon primitive as box body*
4,1,4,$2,$3,$4,$5,$6,$7,$8,$9,$2,$3,0*
0 Add four circle primitives for the rounded corners*
1,1,$1+$1,$2,$3*
1,1,$1+$1,$4,$5*
1,1,$1+$1,$6,$7*
1,1,$1+$1,$8,$9*
0 Add four rect primitives between the rounded corners*
20,1,$1+$1,$2,$3,$4,$5,0*
20,1,$1+$1,$4,$5,$6,$7,0*
20,1,$1+$1,$6,$7,$8,$9,0*
20,1,$1+$1,$8,$9,$2,$3,0*%
G04 Aperture macros list end*
%ADD10RoundRect,0.250000X-0.325000X-0.650000X0.325000X-0.650000X0.325000X0.650000X-0.325000X0.650000X0*%
%ADD11RoundRect,0.225000X-0.225000X-0.250000X0.225000X-0.250000X0.225000X0.250000X-0.225000X0.250000X0*%
%ADD12RoundRect,0.200000X-0.275000X0.200000X-0.275000X-0.200000X0.275000X-0.200000X0.275000X0.200000X0*%
%ADD13RoundRect,0.225000X-0.250000X0.225000X-0.250000X-0.225000X0.250000X-0.225000X0.250000X0.225000X0*%
%ADD14RoundRect,0.225000X0.250000X-0.225000X0.250000X0.225000X-0.250000X0.225000X-0.250000X-0.225000X0*%
%ADD15RoundRect,0.200000X0.275000X-0.200000X0.275000X0.200000X-0.275000X0.200000X-0.275000X-0.200000X0*%
%ADD16RoundRect,0.200000X-0.200000X-0.275000X0.200000X-0.275000X0.200000X0.275000X-0.200000X0.275000X0*%
%ADD17RoundRect,0.375000X0.375000X-0.625000X0.375000X0.625000X-0.375000X0.625000X-0.375000X-0.625000X0*%
%ADD18RoundRect,0.500000X1.400000X-0.500000X1.400000X0.500000X-1.400000X0.500000X-1.400000X-0.500000X0*%
%ADD19RoundRect,0.150000X0.150000X-0.825000X0.150000X0.825000X-0.150000X0.825000X-0.150000X-0.825000X0*%
G04 APERTURE END LIST*
D10*
%TO.C,C17*%
X180525000Y-98300000D03*
X183475000Y-98300000D03*
%TD*%
D11*
%TO.C,C15*%
X180875000Y-100200000D03*
X179325000Y-100200000D03*
%TD*%
D12*
%TO.C,R18*%
X172800000Y-119375000D03*
X172800000Y-121025000D03*
%TD*%
D13*
%TO.C,C10*%
X170800000Y-116400000D03*
X170800000Y-117950000D03*
%TD*%
D14*
%TO.C,C7*%
X174800000Y-85025000D03*
X174800000Y-83475000D03*
%TD*%
D15*
%TO.C,R6*%
X183000000Y-82050000D03*
X183000000Y-80400000D03*
%TD*%
D16*
%TO.C,R10*%
X168925000Y-99750000D03*
X170575000Y-99750000D03*
%TD*%
D17*
%TO.C,U4*%
X175600000Y-108500000D03*
X177900000Y-108500000D03*
D18*
X177900000Y-102200000D03*
D17*
X180200000Y-108500000D03*
%TD*%
D15*
%TO.C,R14*%
X172800000Y-85075000D03*
X172800000Y-83425000D03*
%TD*%
D14*
%TO.C,C5*%
X183000000Y-84975000D03*
X183000000Y-83425000D03*
%TD*%
D13*
%TO.C,C11*%
X174800000Y-116400000D03*
X174800000Y-117950000D03*
%TD*%
D12*
%TO.C,R7*%
X179000000Y-80400000D03*
X179000000Y-82050000D03*
%TD*%
D15*
%TO.C,R8*%
X181000000Y-82050000D03*
X181000000Y-80400000D03*
%TD*%
D11*
%TO.C,C6*%
X169000000Y-101250000D03*
X170550000Y-101250000D03*
%TD*%
D14*
%TO.C,C8*%
X170800000Y-85000000D03*
X170800000Y-83450000D03*
%TD*%
D12*
%TO.C,R16*%
X174800000Y-119375000D03*
X174800000Y-121025000D03*
%TD*%
D11*
%TO.C,C12*%
X168975000Y-111250000D03*
X170525000Y-111250000D03*
%TD*%
D15*
%TO.C,R17*%
X170800000Y-121000000D03*
X170800000Y-119350000D03*
%TD*%
%TO.C,R13*%
X172800000Y-82075000D03*
X172800000Y-80425000D03*
%TD*%
D13*
%TO.C,C2*%
X179000000Y-116375000D03*
X179000000Y-117925000D03*
%TD*%
D16*
%TO.C,R15*%
X168925000Y-97250000D03*
X170575000Y-97250000D03*
%TD*%
D11*
%TO.C,C3*%
X169000000Y-106250000D03*
X170550000Y-106250000D03*
%TD*%
D19*
%TO.C,U2*%
X173850000Y-95700000D03*
X175120000Y-95700000D03*
X176390000Y-95700000D03*
X177660000Y-95700000D03*
X178930000Y-95700000D03*
X180200000Y-95700000D03*
X181470000Y-95700000D03*
X181470000Y-90750000D03*
X180200000Y-90750000D03*
X178930000Y-90750000D03*
X177660000Y-90750000D03*
X176390000Y-90750000D03*
X175120000Y-90750000D03*
X173850000Y-90750000D03*
%TD*%
D15*
%TO.C,R9*%
X181000000Y-85050000D03*
X181000000Y-83400000D03*
%TD*%
D11*
%TO.C,C9*%
X168975000Y-95750000D03*
X170525000Y-95750000D03*
%TD*%
D12*
%TO.C,R12*%
X174800000Y-80425000D03*
X174800000Y-82075000D03*
%TD*%
D13*
%TO.C,C1*%
X183000000Y-116400000D03*
X183000000Y-117950000D03*
%TD*%
D12*
%TO.C,R19*%
X172800000Y-116375000D03*
X172800000Y-118025000D03*
%TD*%
%TO.C,R4*%
X181000000Y-116350000D03*
X181000000Y-118000000D03*
%TD*%
D16*
%TO.C,R20*%
X168925000Y-109750000D03*
X170575000Y-109750000D03*
%TD*%
D15*
%TO.C,R11*%
X170800000Y-82050000D03*
X170800000Y-80400000D03*
%TD*%
D13*
%TO.C,C21*%
X179300000Y-113025000D03*
X179300000Y-114575000D03*
%TD*%
D14*
%TO.C,C4*%
X179000000Y-85000000D03*
X179000000Y-83450000D03*
%TD*%
D12*
%TO.C,R3*%
X181000000Y-119350000D03*
X181000000Y-121000000D03*
%TD*%
%TO.C,R1*%
X179000000Y-119350000D03*
X179000000Y-121000000D03*
%TD*%
D15*
%TO.C,R2*%
X183000000Y-121000000D03*
X183000000Y-119350000D03*
%TD*%
D16*
%TO.C,R5*%
X168925000Y-104750000D03*
X170575000Y-104750000D03*
%TD*%
M02*
