%TF.GenerationSoftware,KiCad,Pcbnew,9.0.5*%
%TF.CreationDate,2025-12-05T08:18:54+08:00*%
%TF.ProjectId,BODAQS shield v1,424f4441-5153-4207-9368-69656c642076,rev?*%
%TF.SameCoordinates,Original*%
%TF.FileFunction,Soldermask,Bot*%
%TF.FilePolarity,Negative*%
%FSLAX46Y46*%
G04 Gerber Fmt 4.6, Leading zero omitted, Abs format (unit mm)*
G04 Created by KiCad (PCBNEW 9.0.5) date 2025-12-05 08:18:54*
%MOMM*%
%LPD*%
G01*
G04 APERTURE LIST*
G04 Aperture macros list*
%AMRoundRect*
0 Rectangle with rounded corners*
0 $1 Rounding radius*
0 $2 $3 $4 $5 $6 $7 $8 $9 X,Y pos of 4 corners*
0 Add a 4 corners polygon primitive as box body*
4,1,4,$2,$3,$4,$5,$6,$7,$8,$9,$2,$3,0*
0 Add four circle primitives for the rounded corners*
1,1,$1+$1,$2,$3*
1,1,$1+$1,$4,$5*
1,1,$1+$1,$6,$7*
1,1,$1+$1,$8,$9*
0 Add four rect primitives between the rounded corners*
20,1,$1+$1,$2,$3,$4,$5,0*
20,1,$1+$1,$4,$5,$6,$7,0*
20,1,$1+$1,$6,$7,$8,$9,0*
20,1,$1+$1,$8,$9,$2,$3,0*%
G04 Aperture macros list end*
%ADD10C,1.600000*%
%ADD11C,1.400000*%
%ADD12C,1.200000*%
%ADD13RoundRect,0.250000X0.600000X0.725000X-0.600000X0.725000X-0.600000X-0.725000X0.600000X-0.725000X0*%
%ADD14O,1.700000X1.950000*%
%ADD15RoundRect,0.250000X0.950000X0.550000X-0.950000X0.550000X-0.950000X-0.550000X0.950000X-0.550000X0*%
%ADD16O,2.400000X1.600000*%
%ADD17RoundRect,0.250000X-0.625000X0.350000X-0.625000X-0.350000X0.625000X-0.350000X0.625000X0.350000X0*%
%ADD18O,1.750000X1.200000*%
%ADD19R,2.000000X2.000000*%
%ADD20C,2.000000*%
%ADD21C,3.500000*%
%ADD22RoundRect,0.250000X0.625000X-0.350000X0.625000X0.350000X-0.625000X0.350000X-0.625000X-0.350000X0*%
%ADD23RoundRect,0.250000X0.350000X0.625000X-0.350000X0.625000X-0.350000X-0.625000X0.350000X-0.625000X0*%
%ADD24O,1.200000X1.750000*%
%ADD25R,1.700000X1.700000*%
%ADD26C,1.700000*%
%ADD27RoundRect,0.250000X-0.950000X-0.550000X0.950000X-0.550000X0.950000X0.550000X-0.950000X0.550000X0*%
%ADD28RoundRect,0.250000X-0.550000X1.050000X-0.550000X-1.050000X0.550000X-1.050000X0.550000X1.050000X0*%
%ADD29O,1.600000X2.600000*%
G04 APERTURE END LIST*
D10*
%TO.C,R18*%
X185756335Y-63597711D03*
X193376335Y-63597711D03*
%TD*%
%TO.C,C10*%
X177245791Y-66538471D03*
X182245791Y-66538471D03*
%TD*%
D11*
%TO.C,TP3*%
X195400000Y-55550000D03*
%TD*%
D10*
%TO.C,C17*%
X194100000Y-74600000D03*
X199100000Y-74600000D03*
%TD*%
%TO.C,C7*%
X162075316Y-66538471D03*
X157075316Y-66538471D03*
%TD*%
%TO.C,R6*%
X153437666Y-50688165D03*
X145817666Y-50688165D03*
%TD*%
D11*
%TO.C,TP2*%
X199300000Y-95250000D03*
%TD*%
D10*
%TO.C,R10*%
X168182460Y-87888683D03*
X168182460Y-80268683D03*
%TD*%
D12*
%TO.C,J4*%
X170200000Y-119250000D03*
D13*
X168600000Y-121250000D03*
D14*
X166100000Y-121250000D03*
X163600000Y-121250000D03*
X161100000Y-121250000D03*
X158600000Y-121250000D03*
X156100000Y-121250000D03*
%TD*%
D10*
%TO.C,R14*%
X163280164Y-63547418D03*
X155660164Y-63547418D03*
%TD*%
%TO.C,C18*%
X194100000Y-71600000D03*
X199100000Y-71600000D03*
%TD*%
D15*
%TO.C,U2*%
X173500000Y-51965000D03*
D16*
X173500000Y-49425000D03*
X173500000Y-46885000D03*
X173500000Y-44345000D03*
X165880000Y-44345000D03*
X165880000Y-46885000D03*
X165880000Y-49425000D03*
X165880000Y-51965000D03*
%TD*%
D10*
%TO.C,C5*%
X162000000Y-50925000D03*
X157000000Y-50925000D03*
%TD*%
%TO.C,C11*%
X177245791Y-60554575D03*
X182245791Y-60554575D03*
%TD*%
D17*
%TO.C,J2*%
X151350000Y-79950000D03*
D18*
X151350000Y-81950000D03*
%TD*%
D10*
%TO.C,R7*%
X145817666Y-44263165D03*
X153437666Y-44263165D03*
%TD*%
D19*
%TO.C,BZ1*%
X195850000Y-114450000D03*
D20*
X195850000Y-122050000D03*
%TD*%
D10*
%TO.C,R8*%
X153437666Y-47688165D03*
X145817666Y-47688165D03*
%TD*%
%TO.C,C15*%
X177245791Y-57284575D03*
X182245791Y-57284575D03*
%TD*%
%TO.C,C6*%
X171282460Y-86688683D03*
X171282460Y-81688683D03*
%TD*%
D21*
%TO.C,*%
X190500000Y-55750000D03*
%TD*%
D10*
%TO.C,C8*%
X162080164Y-60297418D03*
X157080164Y-60297418D03*
%TD*%
%TO.C,R16*%
X185762862Y-60562874D03*
X193382862Y-60562874D03*
%TD*%
%TO.C,R21*%
X180590000Y-115200000D03*
X188210000Y-115200000D03*
%TD*%
D11*
%TO.C,TP1*%
X199250000Y-91250000D03*
%TD*%
D21*
%TO.C,*%
X149400000Y-55700000D03*
%TD*%
D22*
%TO.C,J1*%
X196641728Y-49185462D03*
D18*
X196641728Y-47185462D03*
X196641728Y-45185462D03*
%TD*%
D10*
%TO.C,C12*%
X183832460Y-86688683D03*
X183832460Y-81688683D03*
%TD*%
%TO.C,R17*%
X193360000Y-66600000D03*
X185740000Y-66600000D03*
%TD*%
D20*
%TO.C,FB1*%
X188950000Y-86725000D03*
X188950000Y-71485000D03*
%TD*%
D10*
%TO.C,R13*%
X153376738Y-63494174D03*
X145756738Y-63494174D03*
%TD*%
%TO.C,C13*%
X162000000Y-54175000D03*
X157000000Y-54175000D03*
%TD*%
D23*
%TO.C,J10*%
X176850000Y-121750000D03*
D24*
X174850000Y-121750000D03*
%TD*%
D11*
%TO.C,TP4*%
X198550000Y-55550000D03*
%TD*%
D25*
%TO.C,J9*%
X141023308Y-79178244D03*
D26*
X141023308Y-81718244D03*
X141023308Y-84258244D03*
X141023308Y-86798244D03*
%TD*%
D10*
%TO.C,C2*%
X177250000Y-50990347D03*
X182250000Y-50990347D03*
%TD*%
%TO.C,R15*%
X164982460Y-87888683D03*
X164982460Y-80268683D03*
%TD*%
D22*
%TO.C,J5*%
X142100000Y-121500000D03*
D18*
X142100000Y-119500000D03*
X142100000Y-117500000D03*
X142100000Y-115500000D03*
%TD*%
D27*
%TO.C,U3*%
X165871356Y-58898471D03*
D16*
X165871356Y-61438471D03*
X165871356Y-63978471D03*
X165871356Y-66518471D03*
X173491356Y-66518471D03*
X173491356Y-63978471D03*
X173491356Y-61438471D03*
X173491356Y-58898471D03*
%TD*%
D22*
%TO.C,J3*%
X149200000Y-121600000D03*
D18*
X149200000Y-119600000D03*
X149200000Y-117600000D03*
%TD*%
D10*
%TO.C,C3*%
X177582460Y-86688683D03*
X177582460Y-81688683D03*
%TD*%
D21*
%TO.C,*%
X141400000Y-106700000D03*
%TD*%
D10*
%TO.C,R9*%
X163200000Y-47675000D03*
X155580000Y-47675000D03*
%TD*%
%TO.C,C9*%
X161882460Y-86688683D03*
X161882460Y-81688683D03*
%TD*%
%TO.C,R12*%
X145755402Y-66538471D03*
X153375402Y-66538471D03*
%TD*%
%TO.C,C1*%
X177250000Y-44250000D03*
X182250000Y-44250000D03*
%TD*%
%TO.C,C22*%
X186900000Y-118400000D03*
X181900000Y-118400000D03*
%TD*%
%TO.C,R19*%
X176045791Y-63554575D03*
X183665791Y-63554575D03*
%TD*%
D22*
%TO.C,J6*%
X141405053Y-49240455D03*
D18*
X141405053Y-47240455D03*
X141405053Y-45240455D03*
%TD*%
D17*
%TO.C,J8*%
X197733084Y-61588471D03*
D18*
X197733084Y-63588471D03*
X197733084Y-65588471D03*
%TD*%
D10*
%TO.C,R4*%
X176050000Y-47910888D03*
X183670000Y-47910888D03*
%TD*%
D28*
%TO.C,U1*%
X188815424Y-90762770D03*
D29*
X186275424Y-90762770D03*
X183735424Y-90762770D03*
X181195424Y-90762770D03*
X178655424Y-90762770D03*
X176115424Y-90762770D03*
X173575424Y-90762770D03*
X171035424Y-90762770D03*
X168495424Y-90762770D03*
X165955424Y-90762770D03*
X163415424Y-90762770D03*
X160875424Y-90762770D03*
X158335424Y-90762770D03*
X155795424Y-90762770D03*
X153255424Y-90762770D03*
X150715424Y-90762770D03*
X150715424Y-110482770D03*
X153255424Y-110482770D03*
X155795424Y-110482770D03*
X158335424Y-110482770D03*
X160875424Y-110482770D03*
X163415424Y-110482770D03*
X165955424Y-110482770D03*
X168495424Y-110482770D03*
X171035424Y-110482770D03*
X173575424Y-110482770D03*
X176115424Y-110482770D03*
X178655424Y-110482770D03*
%TD*%
D10*
%TO.C,R20*%
X180632460Y-87888683D03*
X180632460Y-80268683D03*
%TD*%
%TO.C,R11*%
X153376738Y-60494174D03*
X145756738Y-60494174D03*
%TD*%
%TO.C,C21*%
X194100000Y-81550000D03*
X199100000Y-81550000D03*
%TD*%
%TO.C,C4*%
X162000000Y-44250000D03*
X157000000Y-44250000D03*
%TD*%
%TO.C,C19*%
X194100000Y-77600000D03*
X199100000Y-77600000D03*
%TD*%
%TO.C,R3*%
X185775382Y-47904489D03*
X193395382Y-47904489D03*
%TD*%
D17*
%TO.C,J7*%
X142496409Y-61588471D03*
D18*
X142496409Y-63588471D03*
X142496409Y-65588471D03*
%TD*%
D10*
%TO.C,R1*%
X185775382Y-51154489D03*
X193395382Y-51154489D03*
%TD*%
%TO.C,C20*%
X194100000Y-84700000D03*
X199100000Y-84700000D03*
%TD*%
D21*
%TO.C,*%
X198400000Y-106700000D03*
%TD*%
D10*
%TO.C,R2*%
X193395382Y-44229489D03*
X185775382Y-44229489D03*
%TD*%
%TO.C,R5*%
X174382460Y-87888683D03*
X174382460Y-80268683D03*
%TD*%
M02*
