M48
; DRILL file {KiCad 9.0.5} date 2025-12-05T08:19:09+0800
; FORMAT={-:-/ absolute / metric / decimal}
; #@! TF.CreationDate,2025-12-05T08:19:09+08:00
; #@! TF.GenerationSoftware,Kicad,Pcbnew,9.0.5
; #@! TF.FileFunction,Plated,1,2,PTH
FMAT,2
METRIC
; #@! TA.AperFunction,Plated,PTH,ViaDrill
T1C0.300
; #@! TA.AperFunction,Plated,PTH,ComponentDrill
T2C0.300
; #@! TA.AperFunction,Plated,PTH,ComponentDrill
T3C0.700
; #@! TA.AperFunction,Plated,PTH,ComponentDrill
T4C0.750
; #@! TA.AperFunction,Plated,PTH,ComponentDrill
T5C0.800
; #@! TA.AperFunction,Plated,PTH,ComponentDrill
T6C0.950
; #@! TA.AperFunction,Plated,PTH,ComponentDrill
T7C1.000
%
G90
G05
T1
X138.65Y-81.6
X142.1Y-124.35
X149.3Y-124.4
X156.4Y-100.7
X157.15Y-76.3
X157.15Y-78.35
X157.5Y-88.2
X168.65Y-124.55
X172.85Y-100.7
X177.5Y-124.6
X181.2Y-93.8
X181.95Y-120.65
X198.05Y-122.35
X199.25Y-87.1
X201.2Y-95.15
T2
X158.7Y-77.1
X159.9Y-77.1
X193.0Y-87.3
X194.2Y-87.3
T3
X195.4Y-55.55
X198.55Y-55.55
X199.25Y-91.25
X199.3Y-95.25
T4
X141.405Y-45.24
X141.405Y-47.24
X141.405Y-49.24
X142.1Y-115.5
X142.1Y-117.5
X142.1Y-119.5
X142.1Y-121.5
X142.496Y-61.588
X142.496Y-63.588
X142.496Y-65.588
X149.2Y-117.6
X149.2Y-119.6
X149.2Y-121.6
X151.35Y-79.95
X151.35Y-81.95
X174.85Y-121.75
X176.85Y-121.75
X196.642Y-45.185
X196.642Y-47.185
X196.642Y-49.185
X197.733Y-61.588
X197.733Y-63.588
X197.733Y-65.588
T5
X145.755Y-66.538
X145.757Y-60.494
X145.757Y-63.494
X145.818Y-44.263
X145.818Y-47.688
X145.818Y-50.688
X153.375Y-66.538
X153.377Y-60.494
X153.377Y-63.494
X153.438Y-44.263
X153.438Y-47.688
X153.438Y-50.688
X155.58Y-47.675
X155.66Y-63.547
X157.0Y-44.25
X157.0Y-50.925
X157.0Y-54.175
X157.075Y-66.538
X157.08Y-60.297
X161.882Y-81.689
X161.882Y-86.689
X162.0Y-44.25
X162.0Y-50.925
X162.0Y-54.175
X162.075Y-66.538
X162.08Y-60.297
X163.2Y-47.675
X163.28Y-63.547
X164.982Y-80.269
X164.982Y-87.889
X165.871Y-58.898
X165.871Y-61.438
X165.871Y-63.978
X165.871Y-66.518
X165.88Y-44.345
X165.88Y-46.885
X165.88Y-49.425
X165.88Y-51.965
X168.182Y-80.269
X168.182Y-87.889
X171.282Y-81.689
X171.282Y-86.689
X173.491Y-58.898
X173.491Y-61.438
X173.491Y-63.978
X173.491Y-66.518
X173.5Y-44.345
X173.5Y-46.885
X173.5Y-49.425
X173.5Y-51.965
X174.382Y-80.269
X174.382Y-87.889
X176.046Y-63.555
X176.05Y-47.911
X177.246Y-57.285
X177.246Y-60.555
X177.246Y-66.538
X177.25Y-44.25
X177.25Y-50.99
X177.582Y-81.689
X177.582Y-86.689
X180.59Y-115.2
X180.632Y-80.269
X180.632Y-87.889
X181.9Y-118.4
X182.246Y-57.285
X182.246Y-60.555
X182.246Y-66.538
X182.25Y-44.25
X182.25Y-50.99
X183.666Y-63.555
X183.67Y-47.911
X183.832Y-81.689
X183.832Y-86.689
X185.74Y-66.6
X185.756Y-63.598
X185.763Y-60.563
X185.775Y-44.229
X185.775Y-47.904
X185.775Y-51.154
X186.9Y-118.4
X188.21Y-115.2
X193.36Y-66.6
X193.376Y-63.598
X193.383Y-60.563
X193.395Y-44.229
X193.395Y-47.904
X193.395Y-51.154
X194.1Y-71.6
X194.1Y-74.6
X194.1Y-77.6
X194.1Y-81.55
X194.1Y-84.7
X199.1Y-71.6
X199.1Y-74.6
X199.1Y-77.6
X199.1Y-81.55
X199.1Y-84.7
T6
X156.1Y-121.25
X158.6Y-121.25
X161.1Y-121.25
X163.6Y-121.25
X166.1Y-121.25
X168.6Y-121.25
T7
X141.023Y-79.178
X141.023Y-81.718
X141.023Y-84.258
X141.023Y-86.798
X150.715Y-90.463
X150.715Y-110.783
X153.255Y-90.463
X153.255Y-110.783
X155.795Y-90.463
X155.795Y-110.783
X158.335Y-90.463
X158.335Y-110.783
X160.875Y-90.463
X160.875Y-110.783
X163.415Y-90.463
X163.415Y-110.783
X165.955Y-90.463
X165.955Y-110.783
X168.495Y-90.463
X168.495Y-110.783
X171.035Y-90.463
X171.035Y-110.783
X173.575Y-90.463
X173.575Y-110.783
X176.115Y-90.463
X176.115Y-110.783
X178.655Y-90.463
X178.655Y-110.783
X181.195Y-90.463
X183.735Y-90.463
X186.275Y-90.463
X188.815Y-90.463
X188.95Y-71.485
X188.95Y-86.725
X195.85Y-114.45
X195.85Y-122.05
M30
