%TF.GenerationSoftware,KiCad,Pcbnew,9.0.5*%
%TF.CreationDate,2025-12-05T08:18:54+08:00*%
%TF.ProjectId,BODAQS shield v1,424f4441-5153-4207-9368-69656c642076,rev?*%
%TF.SameCoordinates,Original*%
%TF.FileFunction,Legend,Top*%
%TF.FilePolarity,Positive*%
%FSLAX46Y46*%
G04 Gerber Fmt 4.6, Leading zero omitted, Abs format (unit mm)*
G04 Created by KiCad (PCBNEW 9.0.5) date 2025-12-05 08:18:54*
%MOMM*%
%LPD*%
G01*
G04 APERTURE LIST*
%ADD10C,0.300000*%
%ADD11C,0.150000*%
%ADD12C,0.120000*%
G04 APERTURE END LIST*
D10*
X153333082Y-101129400D02*
X153547368Y-101200828D01*
X153547368Y-101200828D02*
X153904510Y-101200828D01*
X153904510Y-101200828D02*
X154047368Y-101129400D01*
X154047368Y-101129400D02*
X154118796Y-101057971D01*
X154118796Y-101057971D02*
X154190225Y-100915114D01*
X154190225Y-100915114D02*
X154190225Y-100772257D01*
X154190225Y-100772257D02*
X154118796Y-100629400D01*
X154118796Y-100629400D02*
X154047368Y-100557971D01*
X154047368Y-100557971D02*
X153904510Y-100486542D01*
X153904510Y-100486542D02*
X153618796Y-100415114D01*
X153618796Y-100415114D02*
X153475939Y-100343685D01*
X153475939Y-100343685D02*
X153404510Y-100272257D01*
X153404510Y-100272257D02*
X153333082Y-100129400D01*
X153333082Y-100129400D02*
X153333082Y-99986542D01*
X153333082Y-99986542D02*
X153404510Y-99843685D01*
X153404510Y-99843685D02*
X153475939Y-99772257D01*
X153475939Y-99772257D02*
X153618796Y-99700828D01*
X153618796Y-99700828D02*
X153975939Y-99700828D01*
X153975939Y-99700828D02*
X154190225Y-99772257D01*
X154833081Y-100200828D02*
X154833081Y-101700828D01*
X154833081Y-100272257D02*
X154975939Y-100200828D01*
X154975939Y-100200828D02*
X155261653Y-100200828D01*
X155261653Y-100200828D02*
X155404510Y-100272257D01*
X155404510Y-100272257D02*
X155475939Y-100343685D01*
X155475939Y-100343685D02*
X155547367Y-100486542D01*
X155547367Y-100486542D02*
X155547367Y-100915114D01*
X155547367Y-100915114D02*
X155475939Y-101057971D01*
X155475939Y-101057971D02*
X155404510Y-101129400D01*
X155404510Y-101129400D02*
X155261653Y-101200828D01*
X155261653Y-101200828D02*
X154975939Y-101200828D01*
X154975939Y-101200828D02*
X154833081Y-101129400D01*
X156833082Y-101200828D02*
X156833082Y-100415114D01*
X156833082Y-100415114D02*
X156761653Y-100272257D01*
X156761653Y-100272257D02*
X156618796Y-100200828D01*
X156618796Y-100200828D02*
X156333082Y-100200828D01*
X156333082Y-100200828D02*
X156190224Y-100272257D01*
X156833082Y-101129400D02*
X156690224Y-101200828D01*
X156690224Y-101200828D02*
X156333082Y-101200828D01*
X156333082Y-101200828D02*
X156190224Y-101129400D01*
X156190224Y-101129400D02*
X156118796Y-100986542D01*
X156118796Y-100986542D02*
X156118796Y-100843685D01*
X156118796Y-100843685D02*
X156190224Y-100700828D01*
X156190224Y-100700828D02*
X156333082Y-100629400D01*
X156333082Y-100629400D02*
X156690224Y-100629400D01*
X156690224Y-100629400D02*
X156833082Y-100557971D01*
X157547367Y-101200828D02*
X157547367Y-100200828D01*
X157547367Y-100486542D02*
X157618796Y-100343685D01*
X157618796Y-100343685D02*
X157690225Y-100272257D01*
X157690225Y-100272257D02*
X157833082Y-100200828D01*
X157833082Y-100200828D02*
X157975939Y-100200828D01*
X158475938Y-101200828D02*
X158475938Y-99700828D01*
X158618796Y-100629400D02*
X159047367Y-101200828D01*
X159047367Y-100200828D02*
X158475938Y-100772257D01*
X159475939Y-100200828D02*
X160047367Y-100200828D01*
X159690224Y-101200828D02*
X159690224Y-99915114D01*
X159690224Y-99915114D02*
X159761653Y-99772257D01*
X159761653Y-99772257D02*
X159904510Y-99700828D01*
X159904510Y-99700828D02*
X160047367Y-99700828D01*
X161190225Y-100200828D02*
X161190225Y-101200828D01*
X160547367Y-100200828D02*
X160547367Y-100986542D01*
X160547367Y-100986542D02*
X160618796Y-101129400D01*
X160618796Y-101129400D02*
X160761653Y-101200828D01*
X160761653Y-101200828D02*
X160975939Y-101200828D01*
X160975939Y-101200828D02*
X161118796Y-101129400D01*
X161118796Y-101129400D02*
X161190225Y-101057971D01*
X161904510Y-100200828D02*
X161904510Y-101200828D01*
X161904510Y-100343685D02*
X161975939Y-100272257D01*
X161975939Y-100272257D02*
X162118796Y-100200828D01*
X162118796Y-100200828D02*
X162333082Y-100200828D01*
X162333082Y-100200828D02*
X162475939Y-100272257D01*
X162475939Y-100272257D02*
X162547368Y-100415114D01*
X162547368Y-100415114D02*
X162547368Y-101200828D01*
X164404510Y-100415114D02*
X164904510Y-100415114D01*
X165118796Y-101200828D02*
X164404510Y-101200828D01*
X164404510Y-101200828D02*
X164404510Y-99700828D01*
X164404510Y-99700828D02*
X165118796Y-99700828D01*
X165690225Y-101129400D02*
X165904511Y-101200828D01*
X165904511Y-101200828D02*
X166261653Y-101200828D01*
X166261653Y-101200828D02*
X166404511Y-101129400D01*
X166404511Y-101129400D02*
X166475939Y-101057971D01*
X166475939Y-101057971D02*
X166547368Y-100915114D01*
X166547368Y-100915114D02*
X166547368Y-100772257D01*
X166547368Y-100772257D02*
X166475939Y-100629400D01*
X166475939Y-100629400D02*
X166404511Y-100557971D01*
X166404511Y-100557971D02*
X166261653Y-100486542D01*
X166261653Y-100486542D02*
X165975939Y-100415114D01*
X165975939Y-100415114D02*
X165833082Y-100343685D01*
X165833082Y-100343685D02*
X165761653Y-100272257D01*
X165761653Y-100272257D02*
X165690225Y-100129400D01*
X165690225Y-100129400D02*
X165690225Y-99986542D01*
X165690225Y-99986542D02*
X165761653Y-99843685D01*
X165761653Y-99843685D02*
X165833082Y-99772257D01*
X165833082Y-99772257D02*
X165975939Y-99700828D01*
X165975939Y-99700828D02*
X166333082Y-99700828D01*
X166333082Y-99700828D02*
X166547368Y-99772257D01*
X167190224Y-101200828D02*
X167190224Y-99700828D01*
X167190224Y-99700828D02*
X167761653Y-99700828D01*
X167761653Y-99700828D02*
X167904510Y-99772257D01*
X167904510Y-99772257D02*
X167975939Y-99843685D01*
X167975939Y-99843685D02*
X168047367Y-99986542D01*
X168047367Y-99986542D02*
X168047367Y-100200828D01*
X168047367Y-100200828D02*
X167975939Y-100343685D01*
X167975939Y-100343685D02*
X167904510Y-100415114D01*
X167904510Y-100415114D02*
X167761653Y-100486542D01*
X167761653Y-100486542D02*
X167190224Y-100486542D01*
X168547367Y-99700828D02*
X169475939Y-99700828D01*
X169475939Y-99700828D02*
X168975939Y-100272257D01*
X168975939Y-100272257D02*
X169190224Y-100272257D01*
X169190224Y-100272257D02*
X169333082Y-100343685D01*
X169333082Y-100343685D02*
X169404510Y-100415114D01*
X169404510Y-100415114D02*
X169475939Y-100557971D01*
X169475939Y-100557971D02*
X169475939Y-100915114D01*
X169475939Y-100915114D02*
X169404510Y-101057971D01*
X169404510Y-101057971D02*
X169333082Y-101129400D01*
X169333082Y-101129400D02*
X169190224Y-101200828D01*
X169190224Y-101200828D02*
X168761653Y-101200828D01*
X168761653Y-101200828D02*
X168618796Y-101129400D01*
X168618796Y-101129400D02*
X168547367Y-101057971D01*
X170047367Y-99843685D02*
X170118795Y-99772257D01*
X170118795Y-99772257D02*
X170261653Y-99700828D01*
X170261653Y-99700828D02*
X170618795Y-99700828D01*
X170618795Y-99700828D02*
X170761653Y-99772257D01*
X170761653Y-99772257D02*
X170833081Y-99843685D01*
X170833081Y-99843685D02*
X170904510Y-99986542D01*
X170904510Y-99986542D02*
X170904510Y-100129400D01*
X170904510Y-100129400D02*
X170833081Y-100343685D01*
X170833081Y-100343685D02*
X169975938Y-101200828D01*
X169975938Y-101200828D02*
X170904510Y-101200828D01*
X172475938Y-99700828D02*
X173333081Y-99700828D01*
X172904509Y-101200828D02*
X172904509Y-99700828D01*
X173833080Y-101200828D02*
X173833080Y-99700828D01*
X174475938Y-101200828D02*
X174475938Y-100415114D01*
X174475938Y-100415114D02*
X174404509Y-100272257D01*
X174404509Y-100272257D02*
X174261652Y-100200828D01*
X174261652Y-100200828D02*
X174047366Y-100200828D01*
X174047366Y-100200828D02*
X173904509Y-100272257D01*
X173904509Y-100272257D02*
X173833080Y-100343685D01*
X175190223Y-101200828D02*
X175190223Y-100200828D01*
X175190223Y-99700828D02*
X175118795Y-99772257D01*
X175118795Y-99772257D02*
X175190223Y-99843685D01*
X175190223Y-99843685D02*
X175261652Y-99772257D01*
X175261652Y-99772257D02*
X175190223Y-99700828D01*
X175190223Y-99700828D02*
X175190223Y-99843685D01*
X175904509Y-100200828D02*
X175904509Y-101200828D01*
X175904509Y-100343685D02*
X175975938Y-100272257D01*
X175975938Y-100272257D02*
X176118795Y-100200828D01*
X176118795Y-100200828D02*
X176333081Y-100200828D01*
X176333081Y-100200828D02*
X176475938Y-100272257D01*
X176475938Y-100272257D02*
X176547367Y-100415114D01*
X176547367Y-100415114D02*
X176547367Y-101200828D01*
X177904510Y-100200828D02*
X177904510Y-101415114D01*
X177904510Y-101415114D02*
X177833081Y-101557971D01*
X177833081Y-101557971D02*
X177761652Y-101629400D01*
X177761652Y-101629400D02*
X177618795Y-101700828D01*
X177618795Y-101700828D02*
X177404510Y-101700828D01*
X177404510Y-101700828D02*
X177261652Y-101629400D01*
X177904510Y-101129400D02*
X177761652Y-101200828D01*
X177761652Y-101200828D02*
X177475938Y-101200828D01*
X177475938Y-101200828D02*
X177333081Y-101129400D01*
X177333081Y-101129400D02*
X177261652Y-101057971D01*
X177261652Y-101057971D02*
X177190224Y-100915114D01*
X177190224Y-100915114D02*
X177190224Y-100486542D01*
X177190224Y-100486542D02*
X177261652Y-100343685D01*
X177261652Y-100343685D02*
X177333081Y-100272257D01*
X177333081Y-100272257D02*
X177475938Y-100200828D01*
X177475938Y-100200828D02*
X177761652Y-100200828D01*
X177761652Y-100200828D02*
X177904510Y-100272257D01*
X179761652Y-101200828D02*
X179761652Y-99700828D01*
X179761652Y-99700828D02*
X180333081Y-99700828D01*
X180333081Y-99700828D02*
X180475938Y-99772257D01*
X180475938Y-99772257D02*
X180547367Y-99843685D01*
X180547367Y-99843685D02*
X180618795Y-99986542D01*
X180618795Y-99986542D02*
X180618795Y-100200828D01*
X180618795Y-100200828D02*
X180547367Y-100343685D01*
X180547367Y-100343685D02*
X180475938Y-100415114D01*
X180475938Y-100415114D02*
X180333081Y-100486542D01*
X180333081Y-100486542D02*
X179761652Y-100486542D01*
X181475938Y-101200828D02*
X181333081Y-101129400D01*
X181333081Y-101129400D02*
X181261652Y-100986542D01*
X181261652Y-100986542D02*
X181261652Y-99700828D01*
X182690224Y-100200828D02*
X182690224Y-101200828D01*
X182047366Y-100200828D02*
X182047366Y-100986542D01*
X182047366Y-100986542D02*
X182118795Y-101129400D01*
X182118795Y-101129400D02*
X182261652Y-101200828D01*
X182261652Y-101200828D02*
X182475938Y-101200828D01*
X182475938Y-101200828D02*
X182618795Y-101129400D01*
X182618795Y-101129400D02*
X182690224Y-101057971D01*
X183333081Y-101129400D02*
X183475938Y-101200828D01*
X183475938Y-101200828D02*
X183761652Y-101200828D01*
X183761652Y-101200828D02*
X183904509Y-101129400D01*
X183904509Y-101129400D02*
X183975938Y-100986542D01*
X183975938Y-100986542D02*
X183975938Y-100915114D01*
X183975938Y-100915114D02*
X183904509Y-100772257D01*
X183904509Y-100772257D02*
X183761652Y-100700828D01*
X183761652Y-100700828D02*
X183547367Y-100700828D01*
X183547367Y-100700828D02*
X183404509Y-100629400D01*
X183404509Y-100629400D02*
X183333081Y-100486542D01*
X183333081Y-100486542D02*
X183333081Y-100415114D01*
X183333081Y-100415114D02*
X183404509Y-100272257D01*
X183404509Y-100272257D02*
X183547367Y-100200828D01*
X183547367Y-100200828D02*
X183761652Y-100200828D01*
X183761652Y-100200828D02*
X183904509Y-100272257D01*
X185690224Y-101129400D02*
X185904510Y-101200828D01*
X185904510Y-101200828D02*
X186261652Y-101200828D01*
X186261652Y-101200828D02*
X186404510Y-101129400D01*
X186404510Y-101129400D02*
X186475938Y-101057971D01*
X186475938Y-101057971D02*
X186547367Y-100915114D01*
X186547367Y-100915114D02*
X186547367Y-100772257D01*
X186547367Y-100772257D02*
X186475938Y-100629400D01*
X186475938Y-100629400D02*
X186404510Y-100557971D01*
X186404510Y-100557971D02*
X186261652Y-100486542D01*
X186261652Y-100486542D02*
X185975938Y-100415114D01*
X185975938Y-100415114D02*
X185833081Y-100343685D01*
X185833081Y-100343685D02*
X185761652Y-100272257D01*
X185761652Y-100272257D02*
X185690224Y-100129400D01*
X185690224Y-100129400D02*
X185690224Y-99986542D01*
X185690224Y-99986542D02*
X185761652Y-99843685D01*
X185761652Y-99843685D02*
X185833081Y-99772257D01*
X185833081Y-99772257D02*
X185975938Y-99700828D01*
X185975938Y-99700828D02*
X186333081Y-99700828D01*
X186333081Y-99700828D02*
X186547367Y-99772257D01*
X187047366Y-99700828D02*
X187975938Y-99700828D01*
X187975938Y-99700828D02*
X187475938Y-100272257D01*
X187475938Y-100272257D02*
X187690223Y-100272257D01*
X187690223Y-100272257D02*
X187833081Y-100343685D01*
X187833081Y-100343685D02*
X187904509Y-100415114D01*
X187904509Y-100415114D02*
X187975938Y-100557971D01*
X187975938Y-100557971D02*
X187975938Y-100915114D01*
X187975938Y-100915114D02*
X187904509Y-101057971D01*
X187904509Y-101057971D02*
X187833081Y-101129400D01*
X187833081Y-101129400D02*
X187690223Y-101200828D01*
X187690223Y-101200828D02*
X187261652Y-101200828D01*
X187261652Y-101200828D02*
X187118795Y-101129400D01*
X187118795Y-101129400D02*
X187047366Y-101057971D01*
X159804510Y-74365114D02*
X160018796Y-74436542D01*
X160018796Y-74436542D02*
X160090225Y-74507971D01*
X160090225Y-74507971D02*
X160161653Y-74650828D01*
X160161653Y-74650828D02*
X160161653Y-74865114D01*
X160161653Y-74865114D02*
X160090225Y-75007971D01*
X160090225Y-75007971D02*
X160018796Y-75079400D01*
X160018796Y-75079400D02*
X159875939Y-75150828D01*
X159875939Y-75150828D02*
X159304510Y-75150828D01*
X159304510Y-75150828D02*
X159304510Y-73650828D01*
X159304510Y-73650828D02*
X159804510Y-73650828D01*
X159804510Y-73650828D02*
X159947368Y-73722257D01*
X159947368Y-73722257D02*
X160018796Y-73793685D01*
X160018796Y-73793685D02*
X160090225Y-73936542D01*
X160090225Y-73936542D02*
X160090225Y-74079400D01*
X160090225Y-74079400D02*
X160018796Y-74222257D01*
X160018796Y-74222257D02*
X159947368Y-74293685D01*
X159947368Y-74293685D02*
X159804510Y-74365114D01*
X159804510Y-74365114D02*
X159304510Y-74365114D01*
X161090225Y-73650828D02*
X161375939Y-73650828D01*
X161375939Y-73650828D02*
X161518796Y-73722257D01*
X161518796Y-73722257D02*
X161661653Y-73865114D01*
X161661653Y-73865114D02*
X161733082Y-74150828D01*
X161733082Y-74150828D02*
X161733082Y-74650828D01*
X161733082Y-74650828D02*
X161661653Y-74936542D01*
X161661653Y-74936542D02*
X161518796Y-75079400D01*
X161518796Y-75079400D02*
X161375939Y-75150828D01*
X161375939Y-75150828D02*
X161090225Y-75150828D01*
X161090225Y-75150828D02*
X160947368Y-75079400D01*
X160947368Y-75079400D02*
X160804510Y-74936542D01*
X160804510Y-74936542D02*
X160733082Y-74650828D01*
X160733082Y-74650828D02*
X160733082Y-74150828D01*
X160733082Y-74150828D02*
X160804510Y-73865114D01*
X160804510Y-73865114D02*
X160947368Y-73722257D01*
X160947368Y-73722257D02*
X161090225Y-73650828D01*
X162375939Y-75150828D02*
X162375939Y-73650828D01*
X162375939Y-73650828D02*
X162733082Y-73650828D01*
X162733082Y-73650828D02*
X162947368Y-73722257D01*
X162947368Y-73722257D02*
X163090225Y-73865114D01*
X163090225Y-73865114D02*
X163161654Y-74007971D01*
X163161654Y-74007971D02*
X163233082Y-74293685D01*
X163233082Y-74293685D02*
X163233082Y-74507971D01*
X163233082Y-74507971D02*
X163161654Y-74793685D01*
X163161654Y-74793685D02*
X163090225Y-74936542D01*
X163090225Y-74936542D02*
X162947368Y-75079400D01*
X162947368Y-75079400D02*
X162733082Y-75150828D01*
X162733082Y-75150828D02*
X162375939Y-75150828D01*
X163804511Y-74722257D02*
X164518797Y-74722257D01*
X163661654Y-75150828D02*
X164161654Y-73650828D01*
X164161654Y-73650828D02*
X164661654Y-75150828D01*
X166161653Y-75293685D02*
X166018796Y-75222257D01*
X166018796Y-75222257D02*
X165875939Y-75079400D01*
X165875939Y-75079400D02*
X165661653Y-74865114D01*
X165661653Y-74865114D02*
X165518796Y-74793685D01*
X165518796Y-74793685D02*
X165375939Y-74793685D01*
X165447368Y-75150828D02*
X165304511Y-75079400D01*
X165304511Y-75079400D02*
X165161653Y-74936542D01*
X165161653Y-74936542D02*
X165090225Y-74650828D01*
X165090225Y-74650828D02*
X165090225Y-74150828D01*
X165090225Y-74150828D02*
X165161653Y-73865114D01*
X165161653Y-73865114D02*
X165304511Y-73722257D01*
X165304511Y-73722257D02*
X165447368Y-73650828D01*
X165447368Y-73650828D02*
X165733082Y-73650828D01*
X165733082Y-73650828D02*
X165875939Y-73722257D01*
X165875939Y-73722257D02*
X166018796Y-73865114D01*
X166018796Y-73865114D02*
X166090225Y-74150828D01*
X166090225Y-74150828D02*
X166090225Y-74650828D01*
X166090225Y-74650828D02*
X166018796Y-74936542D01*
X166018796Y-74936542D02*
X165875939Y-75079400D01*
X165875939Y-75079400D02*
X165733082Y-75150828D01*
X165733082Y-75150828D02*
X165447368Y-75150828D01*
X166661654Y-75079400D02*
X166875940Y-75150828D01*
X166875940Y-75150828D02*
X167233082Y-75150828D01*
X167233082Y-75150828D02*
X167375940Y-75079400D01*
X167375940Y-75079400D02*
X167447368Y-75007971D01*
X167447368Y-75007971D02*
X167518797Y-74865114D01*
X167518797Y-74865114D02*
X167518797Y-74722257D01*
X167518797Y-74722257D02*
X167447368Y-74579400D01*
X167447368Y-74579400D02*
X167375940Y-74507971D01*
X167375940Y-74507971D02*
X167233082Y-74436542D01*
X167233082Y-74436542D02*
X166947368Y-74365114D01*
X166947368Y-74365114D02*
X166804511Y-74293685D01*
X166804511Y-74293685D02*
X166733082Y-74222257D01*
X166733082Y-74222257D02*
X166661654Y-74079400D01*
X166661654Y-74079400D02*
X166661654Y-73936542D01*
X166661654Y-73936542D02*
X166733082Y-73793685D01*
X166733082Y-73793685D02*
X166804511Y-73722257D01*
X166804511Y-73722257D02*
X166947368Y-73650828D01*
X166947368Y-73650828D02*
X167304511Y-73650828D01*
X167304511Y-73650828D02*
X167518797Y-73722257D01*
X169947368Y-74150828D02*
X169947368Y-75150828D01*
X169590225Y-73579400D02*
X169233082Y-74650828D01*
X169233082Y-74650828D02*
X170161653Y-74650828D01*
X171875938Y-75150828D02*
X171875938Y-73650828D01*
X171875938Y-73650828D02*
X172447367Y-73650828D01*
X172447367Y-73650828D02*
X172590224Y-73722257D01*
X172590224Y-73722257D02*
X172661653Y-73793685D01*
X172661653Y-73793685D02*
X172733081Y-73936542D01*
X172733081Y-73936542D02*
X172733081Y-74150828D01*
X172733081Y-74150828D02*
X172661653Y-74293685D01*
X172661653Y-74293685D02*
X172590224Y-74365114D01*
X172590224Y-74365114D02*
X172447367Y-74436542D01*
X172447367Y-74436542D02*
X171875938Y-74436542D01*
X173375938Y-75150828D02*
X173375938Y-74150828D01*
X173375938Y-74436542D02*
X173447367Y-74293685D01*
X173447367Y-74293685D02*
X173518796Y-74222257D01*
X173518796Y-74222257D02*
X173661653Y-74150828D01*
X173661653Y-74150828D02*
X173804510Y-74150828D01*
X174518795Y-75150828D02*
X174375938Y-75079400D01*
X174375938Y-75079400D02*
X174304509Y-75007971D01*
X174304509Y-75007971D02*
X174233081Y-74865114D01*
X174233081Y-74865114D02*
X174233081Y-74436542D01*
X174233081Y-74436542D02*
X174304509Y-74293685D01*
X174304509Y-74293685D02*
X174375938Y-74222257D01*
X174375938Y-74222257D02*
X174518795Y-74150828D01*
X174518795Y-74150828D02*
X174733081Y-74150828D01*
X174733081Y-74150828D02*
X174875938Y-74222257D01*
X174875938Y-74222257D02*
X174947367Y-74293685D01*
X174947367Y-74293685D02*
X175018795Y-74436542D01*
X175018795Y-74436542D02*
X175018795Y-74865114D01*
X175018795Y-74865114D02*
X174947367Y-75007971D01*
X174947367Y-75007971D02*
X174875938Y-75079400D01*
X174875938Y-75079400D02*
X174733081Y-75150828D01*
X174733081Y-75150828D02*
X174518795Y-75150828D01*
X175447367Y-74150828D02*
X176018795Y-74150828D01*
X175661652Y-73650828D02*
X175661652Y-74936542D01*
X175661652Y-74936542D02*
X175733081Y-75079400D01*
X175733081Y-75079400D02*
X175875938Y-75150828D01*
X175875938Y-75150828D02*
X176018795Y-75150828D01*
X176733081Y-75150828D02*
X176590224Y-75079400D01*
X176590224Y-75079400D02*
X176518795Y-75007971D01*
X176518795Y-75007971D02*
X176447367Y-74865114D01*
X176447367Y-74865114D02*
X176447367Y-74436542D01*
X176447367Y-74436542D02*
X176518795Y-74293685D01*
X176518795Y-74293685D02*
X176590224Y-74222257D01*
X176590224Y-74222257D02*
X176733081Y-74150828D01*
X176733081Y-74150828D02*
X176947367Y-74150828D01*
X176947367Y-74150828D02*
X177090224Y-74222257D01*
X177090224Y-74222257D02*
X177161653Y-74293685D01*
X177161653Y-74293685D02*
X177233081Y-74436542D01*
X177233081Y-74436542D02*
X177233081Y-74865114D01*
X177233081Y-74865114D02*
X177161653Y-75007971D01*
X177161653Y-75007971D02*
X177090224Y-75079400D01*
X177090224Y-75079400D02*
X176947367Y-75150828D01*
X176947367Y-75150828D02*
X176733081Y-75150828D01*
X177661653Y-74150828D02*
X178233081Y-74150828D01*
X177875938Y-73650828D02*
X177875938Y-74936542D01*
X177875938Y-74936542D02*
X177947367Y-75079400D01*
X177947367Y-75079400D02*
X178090224Y-75150828D01*
X178090224Y-75150828D02*
X178233081Y-75150828D01*
X178590224Y-74150828D02*
X178947367Y-75150828D01*
X179304510Y-74150828D02*
X178947367Y-75150828D01*
X178947367Y-75150828D02*
X178804510Y-75507971D01*
X178804510Y-75507971D02*
X178733081Y-75579400D01*
X178733081Y-75579400D02*
X178590224Y-75650828D01*
X179875938Y-74150828D02*
X179875938Y-75650828D01*
X179875938Y-74222257D02*
X180018796Y-74150828D01*
X180018796Y-74150828D02*
X180304510Y-74150828D01*
X180304510Y-74150828D02*
X180447367Y-74222257D01*
X180447367Y-74222257D02*
X180518796Y-74293685D01*
X180518796Y-74293685D02*
X180590224Y-74436542D01*
X180590224Y-74436542D02*
X180590224Y-74865114D01*
X180590224Y-74865114D02*
X180518796Y-75007971D01*
X180518796Y-75007971D02*
X180447367Y-75079400D01*
X180447367Y-75079400D02*
X180304510Y-75150828D01*
X180304510Y-75150828D02*
X180018796Y-75150828D01*
X180018796Y-75150828D02*
X179875938Y-75079400D01*
X181804510Y-75079400D02*
X181661653Y-75150828D01*
X181661653Y-75150828D02*
X181375939Y-75150828D01*
X181375939Y-75150828D02*
X181233081Y-75079400D01*
X181233081Y-75079400D02*
X181161653Y-74936542D01*
X181161653Y-74936542D02*
X181161653Y-74365114D01*
X181161653Y-74365114D02*
X181233081Y-74222257D01*
X181233081Y-74222257D02*
X181375939Y-74150828D01*
X181375939Y-74150828D02*
X181661653Y-74150828D01*
X181661653Y-74150828D02*
X181804510Y-74222257D01*
X181804510Y-74222257D02*
X181875939Y-74365114D01*
X181875939Y-74365114D02*
X181875939Y-74507971D01*
X181875939Y-74507971D02*
X181161653Y-74650828D01*
X184518795Y-75007971D02*
X184447367Y-75079400D01*
X184447367Y-75079400D02*
X184233081Y-75150828D01*
X184233081Y-75150828D02*
X184090224Y-75150828D01*
X184090224Y-75150828D02*
X183875938Y-75079400D01*
X183875938Y-75079400D02*
X183733081Y-74936542D01*
X183733081Y-74936542D02*
X183661652Y-74793685D01*
X183661652Y-74793685D02*
X183590224Y-74507971D01*
X183590224Y-74507971D02*
X183590224Y-74293685D01*
X183590224Y-74293685D02*
X183661652Y-74007971D01*
X183661652Y-74007971D02*
X183733081Y-73865114D01*
X183733081Y-73865114D02*
X183875938Y-73722257D01*
X183875938Y-73722257D02*
X184090224Y-73650828D01*
X184090224Y-73650828D02*
X184233081Y-73650828D01*
X184233081Y-73650828D02*
X184447367Y-73722257D01*
X184447367Y-73722257D02*
X184518795Y-73793685D01*
D11*
X188923477Y-64052530D02*
X188590144Y-63576339D01*
X188352049Y-64052530D02*
X188352049Y-63052530D01*
X188352049Y-63052530D02*
X188733001Y-63052530D01*
X188733001Y-63052530D02*
X188828239Y-63100149D01*
X188828239Y-63100149D02*
X188875858Y-63147768D01*
X188875858Y-63147768D02*
X188923477Y-63243006D01*
X188923477Y-63243006D02*
X188923477Y-63385863D01*
X188923477Y-63385863D02*
X188875858Y-63481101D01*
X188875858Y-63481101D02*
X188828239Y-63528720D01*
X188828239Y-63528720D02*
X188733001Y-63576339D01*
X188733001Y-63576339D02*
X188352049Y-63576339D01*
X189875858Y-64052530D02*
X189304430Y-64052530D01*
X189590144Y-64052530D02*
X189590144Y-63052530D01*
X189590144Y-63052530D02*
X189494906Y-63195387D01*
X189494906Y-63195387D02*
X189399668Y-63290625D01*
X189399668Y-63290625D02*
X189304430Y-63338244D01*
X190447287Y-63481101D02*
X190352049Y-63433482D01*
X190352049Y-63433482D02*
X190304430Y-63385863D01*
X190304430Y-63385863D02*
X190256811Y-63290625D01*
X190256811Y-63290625D02*
X190256811Y-63243006D01*
X190256811Y-63243006D02*
X190304430Y-63147768D01*
X190304430Y-63147768D02*
X190352049Y-63100149D01*
X190352049Y-63100149D02*
X190447287Y-63052530D01*
X190447287Y-63052530D02*
X190637763Y-63052530D01*
X190637763Y-63052530D02*
X190733001Y-63100149D01*
X190733001Y-63100149D02*
X190780620Y-63147768D01*
X190780620Y-63147768D02*
X190828239Y-63243006D01*
X190828239Y-63243006D02*
X190828239Y-63290625D01*
X190828239Y-63290625D02*
X190780620Y-63385863D01*
X190780620Y-63385863D02*
X190733001Y-63433482D01*
X190733001Y-63433482D02*
X190637763Y-63481101D01*
X190637763Y-63481101D02*
X190447287Y-63481101D01*
X190447287Y-63481101D02*
X190352049Y-63528720D01*
X190352049Y-63528720D02*
X190304430Y-63576339D01*
X190304430Y-63576339D02*
X190256811Y-63671577D01*
X190256811Y-63671577D02*
X190256811Y-63862053D01*
X190256811Y-63862053D02*
X190304430Y-63957291D01*
X190304430Y-63957291D02*
X190352049Y-64004911D01*
X190352049Y-64004911D02*
X190447287Y-64052530D01*
X190447287Y-64052530D02*
X190637763Y-64052530D01*
X190637763Y-64052530D02*
X190733001Y-64004911D01*
X190733001Y-64004911D02*
X190780620Y-63957291D01*
X190780620Y-63957291D02*
X190828239Y-63862053D01*
X190828239Y-63862053D02*
X190828239Y-63671577D01*
X190828239Y-63671577D02*
X190780620Y-63576339D01*
X190780620Y-63576339D02*
X190733001Y-63528720D01*
X190733001Y-63528720D02*
X190637763Y-63481101D01*
X179102933Y-66898051D02*
X179055314Y-66945671D01*
X179055314Y-66945671D02*
X178912457Y-66993290D01*
X178912457Y-66993290D02*
X178817219Y-66993290D01*
X178817219Y-66993290D02*
X178674362Y-66945671D01*
X178674362Y-66945671D02*
X178579124Y-66850432D01*
X178579124Y-66850432D02*
X178531505Y-66755194D01*
X178531505Y-66755194D02*
X178483886Y-66564718D01*
X178483886Y-66564718D02*
X178483886Y-66421861D01*
X178483886Y-66421861D02*
X178531505Y-66231385D01*
X178531505Y-66231385D02*
X178579124Y-66136147D01*
X178579124Y-66136147D02*
X178674362Y-66040909D01*
X178674362Y-66040909D02*
X178817219Y-65993290D01*
X178817219Y-65993290D02*
X178912457Y-65993290D01*
X178912457Y-65993290D02*
X179055314Y-66040909D01*
X179055314Y-66040909D02*
X179102933Y-66088528D01*
X180055314Y-66993290D02*
X179483886Y-66993290D01*
X179769600Y-66993290D02*
X179769600Y-65993290D01*
X179769600Y-65993290D02*
X179674362Y-66136147D01*
X179674362Y-66136147D02*
X179579124Y-66231385D01*
X179579124Y-66231385D02*
X179483886Y-66279004D01*
X180674362Y-65993290D02*
X180769600Y-65993290D01*
X180769600Y-65993290D02*
X180864838Y-66040909D01*
X180864838Y-66040909D02*
X180912457Y-66088528D01*
X180912457Y-66088528D02*
X180960076Y-66183766D01*
X180960076Y-66183766D02*
X181007695Y-66374242D01*
X181007695Y-66374242D02*
X181007695Y-66612337D01*
X181007695Y-66612337D02*
X180960076Y-66802813D01*
X180960076Y-66802813D02*
X180912457Y-66898051D01*
X180912457Y-66898051D02*
X180864838Y-66945671D01*
X180864838Y-66945671D02*
X180769600Y-66993290D01*
X180769600Y-66993290D02*
X180674362Y-66993290D01*
X180674362Y-66993290D02*
X180579124Y-66945671D01*
X180579124Y-66945671D02*
X180531505Y-66898051D01*
X180531505Y-66898051D02*
X180483886Y-66802813D01*
X180483886Y-66802813D02*
X180436267Y-66612337D01*
X180436267Y-66612337D02*
X180436267Y-66374242D01*
X180436267Y-66374242D02*
X180483886Y-66183766D01*
X180483886Y-66183766D02*
X180531505Y-66088528D01*
X180531505Y-66088528D02*
X180579124Y-66040909D01*
X180579124Y-66040909D02*
X180674362Y-65993290D01*
X192704819Y-56961904D02*
X192704819Y-56390476D01*
X193704819Y-56676190D02*
X192704819Y-56676190D01*
X193704819Y-56057142D02*
X192704819Y-56057142D01*
X192704819Y-56057142D02*
X192704819Y-55676190D01*
X192704819Y-55676190D02*
X192752438Y-55580952D01*
X192752438Y-55580952D02*
X192800057Y-55533333D01*
X192800057Y-55533333D02*
X192895295Y-55485714D01*
X192895295Y-55485714D02*
X193038152Y-55485714D01*
X193038152Y-55485714D02*
X193133390Y-55533333D01*
X193133390Y-55533333D02*
X193181009Y-55580952D01*
X193181009Y-55580952D02*
X193228628Y-55676190D01*
X193228628Y-55676190D02*
X193228628Y-56057142D01*
X192704819Y-55152380D02*
X192704819Y-54533333D01*
X192704819Y-54533333D02*
X193085771Y-54866666D01*
X193085771Y-54866666D02*
X193085771Y-54723809D01*
X193085771Y-54723809D02*
X193133390Y-54628571D01*
X193133390Y-54628571D02*
X193181009Y-54580952D01*
X193181009Y-54580952D02*
X193276247Y-54533333D01*
X193276247Y-54533333D02*
X193514342Y-54533333D01*
X193514342Y-54533333D02*
X193609580Y-54580952D01*
X193609580Y-54580952D02*
X193657200Y-54628571D01*
X193657200Y-54628571D02*
X193704819Y-54723809D01*
X193704819Y-54723809D02*
X193704819Y-55009523D01*
X193704819Y-55009523D02*
X193657200Y-55104761D01*
X193657200Y-55104761D02*
X193609580Y-55152380D01*
X195957142Y-74959580D02*
X195909523Y-75007200D01*
X195909523Y-75007200D02*
X195766666Y-75054819D01*
X195766666Y-75054819D02*
X195671428Y-75054819D01*
X195671428Y-75054819D02*
X195528571Y-75007200D01*
X195528571Y-75007200D02*
X195433333Y-74911961D01*
X195433333Y-74911961D02*
X195385714Y-74816723D01*
X195385714Y-74816723D02*
X195338095Y-74626247D01*
X195338095Y-74626247D02*
X195338095Y-74483390D01*
X195338095Y-74483390D02*
X195385714Y-74292914D01*
X195385714Y-74292914D02*
X195433333Y-74197676D01*
X195433333Y-74197676D02*
X195528571Y-74102438D01*
X195528571Y-74102438D02*
X195671428Y-74054819D01*
X195671428Y-74054819D02*
X195766666Y-74054819D01*
X195766666Y-74054819D02*
X195909523Y-74102438D01*
X195909523Y-74102438D02*
X195957142Y-74150057D01*
X196909523Y-75054819D02*
X196338095Y-75054819D01*
X196623809Y-75054819D02*
X196623809Y-74054819D01*
X196623809Y-74054819D02*
X196528571Y-74197676D01*
X196528571Y-74197676D02*
X196433333Y-74292914D01*
X196433333Y-74292914D02*
X196338095Y-74340533D01*
X197242857Y-74054819D02*
X197909523Y-74054819D01*
X197909523Y-74054819D02*
X197480952Y-75054819D01*
X159408649Y-66898051D02*
X159361030Y-66945671D01*
X159361030Y-66945671D02*
X159218173Y-66993290D01*
X159218173Y-66993290D02*
X159122935Y-66993290D01*
X159122935Y-66993290D02*
X158980078Y-66945671D01*
X158980078Y-66945671D02*
X158884840Y-66850432D01*
X158884840Y-66850432D02*
X158837221Y-66755194D01*
X158837221Y-66755194D02*
X158789602Y-66564718D01*
X158789602Y-66564718D02*
X158789602Y-66421861D01*
X158789602Y-66421861D02*
X158837221Y-66231385D01*
X158837221Y-66231385D02*
X158884840Y-66136147D01*
X158884840Y-66136147D02*
X158980078Y-66040909D01*
X158980078Y-66040909D02*
X159122935Y-65993290D01*
X159122935Y-65993290D02*
X159218173Y-65993290D01*
X159218173Y-65993290D02*
X159361030Y-66040909D01*
X159361030Y-66040909D02*
X159408649Y-66088528D01*
X159741983Y-65993290D02*
X160408649Y-65993290D01*
X160408649Y-65993290D02*
X159980078Y-66993290D01*
X149460999Y-51142984D02*
X149127666Y-50666793D01*
X148889571Y-51142984D02*
X148889571Y-50142984D01*
X148889571Y-50142984D02*
X149270523Y-50142984D01*
X149270523Y-50142984D02*
X149365761Y-50190603D01*
X149365761Y-50190603D02*
X149413380Y-50238222D01*
X149413380Y-50238222D02*
X149460999Y-50333460D01*
X149460999Y-50333460D02*
X149460999Y-50476317D01*
X149460999Y-50476317D02*
X149413380Y-50571555D01*
X149413380Y-50571555D02*
X149365761Y-50619174D01*
X149365761Y-50619174D02*
X149270523Y-50666793D01*
X149270523Y-50666793D02*
X148889571Y-50666793D01*
X150318142Y-50142984D02*
X150127666Y-50142984D01*
X150127666Y-50142984D02*
X150032428Y-50190603D01*
X150032428Y-50190603D02*
X149984809Y-50238222D01*
X149984809Y-50238222D02*
X149889571Y-50381079D01*
X149889571Y-50381079D02*
X149841952Y-50571555D01*
X149841952Y-50571555D02*
X149841952Y-50952507D01*
X149841952Y-50952507D02*
X149889571Y-51047745D01*
X149889571Y-51047745D02*
X149937190Y-51095365D01*
X149937190Y-51095365D02*
X150032428Y-51142984D01*
X150032428Y-51142984D02*
X150222904Y-51142984D01*
X150222904Y-51142984D02*
X150318142Y-51095365D01*
X150318142Y-51095365D02*
X150365761Y-51047745D01*
X150365761Y-51047745D02*
X150413380Y-50952507D01*
X150413380Y-50952507D02*
X150413380Y-50714412D01*
X150413380Y-50714412D02*
X150365761Y-50619174D01*
X150365761Y-50619174D02*
X150318142Y-50571555D01*
X150318142Y-50571555D02*
X150222904Y-50523936D01*
X150222904Y-50523936D02*
X150032428Y-50523936D01*
X150032428Y-50523936D02*
X149937190Y-50571555D01*
X149937190Y-50571555D02*
X149889571Y-50619174D01*
X149889571Y-50619174D02*
X149841952Y-50714412D01*
X198038095Y-96504819D02*
X198609523Y-96504819D01*
X198323809Y-97504819D02*
X198323809Y-96504819D01*
X198942857Y-97504819D02*
X198942857Y-96504819D01*
X198942857Y-96504819D02*
X199323809Y-96504819D01*
X199323809Y-96504819D02*
X199419047Y-96552438D01*
X199419047Y-96552438D02*
X199466666Y-96600057D01*
X199466666Y-96600057D02*
X199514285Y-96695295D01*
X199514285Y-96695295D02*
X199514285Y-96838152D01*
X199514285Y-96838152D02*
X199466666Y-96933390D01*
X199466666Y-96933390D02*
X199419047Y-96981009D01*
X199419047Y-96981009D02*
X199323809Y-97028628D01*
X199323809Y-97028628D02*
X198942857Y-97028628D01*
X199895238Y-96600057D02*
X199942857Y-96552438D01*
X199942857Y-96552438D02*
X200038095Y-96504819D01*
X200038095Y-96504819D02*
X200276190Y-96504819D01*
X200276190Y-96504819D02*
X200371428Y-96552438D01*
X200371428Y-96552438D02*
X200419047Y-96600057D01*
X200419047Y-96600057D02*
X200466666Y-96695295D01*
X200466666Y-96695295D02*
X200466666Y-96790533D01*
X200466666Y-96790533D02*
X200419047Y-96933390D01*
X200419047Y-96933390D02*
X199847619Y-97504819D01*
X199847619Y-97504819D02*
X200466666Y-97504819D01*
X168637279Y-84831540D02*
X168161088Y-85164873D01*
X168637279Y-85402968D02*
X167637279Y-85402968D01*
X167637279Y-85402968D02*
X167637279Y-85022016D01*
X167637279Y-85022016D02*
X167684898Y-84926778D01*
X167684898Y-84926778D02*
X167732517Y-84879159D01*
X167732517Y-84879159D02*
X167827755Y-84831540D01*
X167827755Y-84831540D02*
X167970612Y-84831540D01*
X167970612Y-84831540D02*
X168065850Y-84879159D01*
X168065850Y-84879159D02*
X168113469Y-84926778D01*
X168113469Y-84926778D02*
X168161088Y-85022016D01*
X168161088Y-85022016D02*
X168161088Y-85402968D01*
X168637279Y-83879159D02*
X168637279Y-84450587D01*
X168637279Y-84164873D02*
X167637279Y-84164873D01*
X167637279Y-84164873D02*
X167780136Y-84260111D01*
X167780136Y-84260111D02*
X167875374Y-84355349D01*
X167875374Y-84355349D02*
X167922993Y-84450587D01*
X167637279Y-83260111D02*
X167637279Y-83164873D01*
X167637279Y-83164873D02*
X167684898Y-83069635D01*
X167684898Y-83069635D02*
X167732517Y-83022016D01*
X167732517Y-83022016D02*
X167827755Y-82974397D01*
X167827755Y-82974397D02*
X168018231Y-82926778D01*
X168018231Y-82926778D02*
X168256326Y-82926778D01*
X168256326Y-82926778D02*
X168446802Y-82974397D01*
X168446802Y-82974397D02*
X168542040Y-83022016D01*
X168542040Y-83022016D02*
X168589660Y-83069635D01*
X168589660Y-83069635D02*
X168637279Y-83164873D01*
X168637279Y-83164873D02*
X168637279Y-83260111D01*
X168637279Y-83260111D02*
X168589660Y-83355349D01*
X168589660Y-83355349D02*
X168542040Y-83402968D01*
X168542040Y-83402968D02*
X168446802Y-83450587D01*
X168446802Y-83450587D02*
X168256326Y-83498206D01*
X168256326Y-83498206D02*
X168018231Y-83498206D01*
X168018231Y-83498206D02*
X167827755Y-83450587D01*
X167827755Y-83450587D02*
X167732517Y-83402968D01*
X167732517Y-83402968D02*
X167684898Y-83355349D01*
X167684898Y-83355349D02*
X167637279Y-83260111D01*
X162016666Y-115704819D02*
X162016666Y-116419104D01*
X162016666Y-116419104D02*
X161969047Y-116561961D01*
X161969047Y-116561961D02*
X161873809Y-116657200D01*
X161873809Y-116657200D02*
X161730952Y-116704819D01*
X161730952Y-116704819D02*
X161635714Y-116704819D01*
X162921428Y-116038152D02*
X162921428Y-116704819D01*
X162683333Y-115657200D02*
X162445238Y-116371485D01*
X162445238Y-116371485D02*
X163064285Y-116371485D01*
X156921428Y-125454819D02*
X156921428Y-124454819D01*
X156921428Y-124454819D02*
X157492856Y-125454819D01*
X157492856Y-125454819D02*
X157492856Y-124454819D01*
X158397618Y-125454819D02*
X158397618Y-124931009D01*
X158397618Y-124931009D02*
X158349999Y-124835771D01*
X158349999Y-124835771D02*
X158254761Y-124788152D01*
X158254761Y-124788152D02*
X158064285Y-124788152D01*
X158064285Y-124788152D02*
X157969047Y-124835771D01*
X158397618Y-125407200D02*
X158302380Y-125454819D01*
X158302380Y-125454819D02*
X158064285Y-125454819D01*
X158064285Y-125454819D02*
X157969047Y-125407200D01*
X157969047Y-125407200D02*
X157921428Y-125311961D01*
X157921428Y-125311961D02*
X157921428Y-125216723D01*
X157921428Y-125216723D02*
X157969047Y-125121485D01*
X157969047Y-125121485D02*
X158064285Y-125073866D01*
X158064285Y-125073866D02*
X158302380Y-125073866D01*
X158302380Y-125073866D02*
X158397618Y-125026247D01*
X158778571Y-124788152D02*
X159016666Y-125454819D01*
X159016666Y-125454819D02*
X159254761Y-124788152D01*
X159635714Y-125454819D02*
X159635714Y-124788152D01*
X159635714Y-124454819D02*
X159588095Y-124502438D01*
X159588095Y-124502438D02*
X159635714Y-124550057D01*
X159635714Y-124550057D02*
X159683333Y-124502438D01*
X159683333Y-124502438D02*
X159635714Y-124454819D01*
X159635714Y-124454819D02*
X159635714Y-124550057D01*
X160540475Y-124788152D02*
X160540475Y-125597676D01*
X160540475Y-125597676D02*
X160492856Y-125692914D01*
X160492856Y-125692914D02*
X160445237Y-125740533D01*
X160445237Y-125740533D02*
X160349999Y-125788152D01*
X160349999Y-125788152D02*
X160207142Y-125788152D01*
X160207142Y-125788152D02*
X160111904Y-125740533D01*
X160540475Y-125407200D02*
X160445237Y-125454819D01*
X160445237Y-125454819D02*
X160254761Y-125454819D01*
X160254761Y-125454819D02*
X160159523Y-125407200D01*
X160159523Y-125407200D02*
X160111904Y-125359580D01*
X160111904Y-125359580D02*
X160064285Y-125264342D01*
X160064285Y-125264342D02*
X160064285Y-124978628D01*
X160064285Y-124978628D02*
X160111904Y-124883390D01*
X160111904Y-124883390D02*
X160159523Y-124835771D01*
X160159523Y-124835771D02*
X160254761Y-124788152D01*
X160254761Y-124788152D02*
X160445237Y-124788152D01*
X160445237Y-124788152D02*
X160540475Y-124835771D01*
X161445237Y-125454819D02*
X161445237Y-124931009D01*
X161445237Y-124931009D02*
X161397618Y-124835771D01*
X161397618Y-124835771D02*
X161302380Y-124788152D01*
X161302380Y-124788152D02*
X161111904Y-124788152D01*
X161111904Y-124788152D02*
X161016666Y-124835771D01*
X161445237Y-125407200D02*
X161349999Y-125454819D01*
X161349999Y-125454819D02*
X161111904Y-125454819D01*
X161111904Y-125454819D02*
X161016666Y-125407200D01*
X161016666Y-125407200D02*
X160969047Y-125311961D01*
X160969047Y-125311961D02*
X160969047Y-125216723D01*
X160969047Y-125216723D02*
X161016666Y-125121485D01*
X161016666Y-125121485D02*
X161111904Y-125073866D01*
X161111904Y-125073866D02*
X161349999Y-125073866D01*
X161349999Y-125073866D02*
X161445237Y-125026247D01*
X161778571Y-124788152D02*
X162159523Y-124788152D01*
X161921428Y-124454819D02*
X161921428Y-125311961D01*
X161921428Y-125311961D02*
X161969047Y-125407200D01*
X161969047Y-125407200D02*
X162064285Y-125454819D01*
X162064285Y-125454819D02*
X162159523Y-125454819D01*
X162492857Y-125454819D02*
X162492857Y-124788152D01*
X162492857Y-124454819D02*
X162445238Y-124502438D01*
X162445238Y-124502438D02*
X162492857Y-124550057D01*
X162492857Y-124550057D02*
X162540476Y-124502438D01*
X162540476Y-124502438D02*
X162492857Y-124454819D01*
X162492857Y-124454819D02*
X162492857Y-124550057D01*
X163111904Y-125454819D02*
X163016666Y-125407200D01*
X163016666Y-125407200D02*
X162969047Y-125359580D01*
X162969047Y-125359580D02*
X162921428Y-125264342D01*
X162921428Y-125264342D02*
X162921428Y-124978628D01*
X162921428Y-124978628D02*
X162969047Y-124883390D01*
X162969047Y-124883390D02*
X163016666Y-124835771D01*
X163016666Y-124835771D02*
X163111904Y-124788152D01*
X163111904Y-124788152D02*
X163254761Y-124788152D01*
X163254761Y-124788152D02*
X163349999Y-124835771D01*
X163349999Y-124835771D02*
X163397618Y-124883390D01*
X163397618Y-124883390D02*
X163445237Y-124978628D01*
X163445237Y-124978628D02*
X163445237Y-125264342D01*
X163445237Y-125264342D02*
X163397618Y-125359580D01*
X163397618Y-125359580D02*
X163349999Y-125407200D01*
X163349999Y-125407200D02*
X163254761Y-125454819D01*
X163254761Y-125454819D02*
X163111904Y-125454819D01*
X163873809Y-124788152D02*
X163873809Y-125454819D01*
X163873809Y-124883390D02*
X163921428Y-124835771D01*
X163921428Y-124835771D02*
X164016666Y-124788152D01*
X164016666Y-124788152D02*
X164159523Y-124788152D01*
X164159523Y-124788152D02*
X164254761Y-124835771D01*
X164254761Y-124835771D02*
X164302380Y-124931009D01*
X164302380Y-124931009D02*
X164302380Y-125454819D01*
X165540476Y-124788152D02*
X165540476Y-125788152D01*
X165540476Y-124835771D02*
X165635714Y-124788152D01*
X165635714Y-124788152D02*
X165826190Y-124788152D01*
X165826190Y-124788152D02*
X165921428Y-124835771D01*
X165921428Y-124835771D02*
X165969047Y-124883390D01*
X165969047Y-124883390D02*
X166016666Y-124978628D01*
X166016666Y-124978628D02*
X166016666Y-125264342D01*
X166016666Y-125264342D02*
X165969047Y-125359580D01*
X165969047Y-125359580D02*
X165921428Y-125407200D01*
X165921428Y-125407200D02*
X165826190Y-125454819D01*
X165826190Y-125454819D02*
X165635714Y-125454819D01*
X165635714Y-125454819D02*
X165540476Y-125407200D01*
X166873809Y-125454819D02*
X166873809Y-124931009D01*
X166873809Y-124931009D02*
X166826190Y-124835771D01*
X166826190Y-124835771D02*
X166730952Y-124788152D01*
X166730952Y-124788152D02*
X166540476Y-124788152D01*
X166540476Y-124788152D02*
X166445238Y-124835771D01*
X166873809Y-125407200D02*
X166778571Y-125454819D01*
X166778571Y-125454819D02*
X166540476Y-125454819D01*
X166540476Y-125454819D02*
X166445238Y-125407200D01*
X166445238Y-125407200D02*
X166397619Y-125311961D01*
X166397619Y-125311961D02*
X166397619Y-125216723D01*
X166397619Y-125216723D02*
X166445238Y-125121485D01*
X166445238Y-125121485D02*
X166540476Y-125073866D01*
X166540476Y-125073866D02*
X166778571Y-125073866D01*
X166778571Y-125073866D02*
X166873809Y-125026247D01*
X167778571Y-125454819D02*
X167778571Y-124454819D01*
X167778571Y-125407200D02*
X167683333Y-125454819D01*
X167683333Y-125454819D02*
X167492857Y-125454819D01*
X167492857Y-125454819D02*
X167397619Y-125407200D01*
X167397619Y-125407200D02*
X167350000Y-125359580D01*
X167350000Y-125359580D02*
X167302381Y-125264342D01*
X167302381Y-125264342D02*
X167302381Y-124978628D01*
X167302381Y-124978628D02*
X167350000Y-124883390D01*
X167350000Y-124883390D02*
X167397619Y-124835771D01*
X167397619Y-124835771D02*
X167492857Y-124788152D01*
X167492857Y-124788152D02*
X167683333Y-124788152D01*
X167683333Y-124788152D02*
X167778571Y-124835771D01*
X158827306Y-64002237D02*
X158493973Y-63526046D01*
X158255878Y-64002237D02*
X158255878Y-63002237D01*
X158255878Y-63002237D02*
X158636830Y-63002237D01*
X158636830Y-63002237D02*
X158732068Y-63049856D01*
X158732068Y-63049856D02*
X158779687Y-63097475D01*
X158779687Y-63097475D02*
X158827306Y-63192713D01*
X158827306Y-63192713D02*
X158827306Y-63335570D01*
X158827306Y-63335570D02*
X158779687Y-63430808D01*
X158779687Y-63430808D02*
X158732068Y-63478427D01*
X158732068Y-63478427D02*
X158636830Y-63526046D01*
X158636830Y-63526046D02*
X158255878Y-63526046D01*
X159779687Y-64002237D02*
X159208259Y-64002237D01*
X159493973Y-64002237D02*
X159493973Y-63002237D01*
X159493973Y-63002237D02*
X159398735Y-63145094D01*
X159398735Y-63145094D02*
X159303497Y-63240332D01*
X159303497Y-63240332D02*
X159208259Y-63287951D01*
X160636830Y-63335570D02*
X160636830Y-64002237D01*
X160398735Y-62954618D02*
X160160640Y-63668903D01*
X160160640Y-63668903D02*
X160779687Y-63668903D01*
X195957142Y-71959580D02*
X195909523Y-72007200D01*
X195909523Y-72007200D02*
X195766666Y-72054819D01*
X195766666Y-72054819D02*
X195671428Y-72054819D01*
X195671428Y-72054819D02*
X195528571Y-72007200D01*
X195528571Y-72007200D02*
X195433333Y-71911961D01*
X195433333Y-71911961D02*
X195385714Y-71816723D01*
X195385714Y-71816723D02*
X195338095Y-71626247D01*
X195338095Y-71626247D02*
X195338095Y-71483390D01*
X195338095Y-71483390D02*
X195385714Y-71292914D01*
X195385714Y-71292914D02*
X195433333Y-71197676D01*
X195433333Y-71197676D02*
X195528571Y-71102438D01*
X195528571Y-71102438D02*
X195671428Y-71054819D01*
X195671428Y-71054819D02*
X195766666Y-71054819D01*
X195766666Y-71054819D02*
X195909523Y-71102438D01*
X195909523Y-71102438D02*
X195957142Y-71150057D01*
X196909523Y-72054819D02*
X196338095Y-72054819D01*
X196623809Y-72054819D02*
X196623809Y-71054819D01*
X196623809Y-71054819D02*
X196528571Y-71197676D01*
X196528571Y-71197676D02*
X196433333Y-71292914D01*
X196433333Y-71292914D02*
X196338095Y-71340533D01*
X197480952Y-71483390D02*
X197385714Y-71435771D01*
X197385714Y-71435771D02*
X197338095Y-71388152D01*
X197338095Y-71388152D02*
X197290476Y-71292914D01*
X197290476Y-71292914D02*
X197290476Y-71245295D01*
X197290476Y-71245295D02*
X197338095Y-71150057D01*
X197338095Y-71150057D02*
X197385714Y-71102438D01*
X197385714Y-71102438D02*
X197480952Y-71054819D01*
X197480952Y-71054819D02*
X197671428Y-71054819D01*
X197671428Y-71054819D02*
X197766666Y-71102438D01*
X197766666Y-71102438D02*
X197814285Y-71150057D01*
X197814285Y-71150057D02*
X197861904Y-71245295D01*
X197861904Y-71245295D02*
X197861904Y-71292914D01*
X197861904Y-71292914D02*
X197814285Y-71388152D01*
X197814285Y-71388152D02*
X197766666Y-71435771D01*
X197766666Y-71435771D02*
X197671428Y-71483390D01*
X197671428Y-71483390D02*
X197480952Y-71483390D01*
X197480952Y-71483390D02*
X197385714Y-71531009D01*
X197385714Y-71531009D02*
X197338095Y-71578628D01*
X197338095Y-71578628D02*
X197290476Y-71673866D01*
X197290476Y-71673866D02*
X197290476Y-71864342D01*
X197290476Y-71864342D02*
X197338095Y-71959580D01*
X197338095Y-71959580D02*
X197385714Y-72007200D01*
X197385714Y-72007200D02*
X197480952Y-72054819D01*
X197480952Y-72054819D02*
X197671428Y-72054819D01*
X197671428Y-72054819D02*
X197766666Y-72007200D01*
X197766666Y-72007200D02*
X197814285Y-71959580D01*
X197814285Y-71959580D02*
X197861904Y-71864342D01*
X197861904Y-71864342D02*
X197861904Y-71673866D01*
X197861904Y-71673866D02*
X197814285Y-71578628D01*
X197814285Y-71578628D02*
X197766666Y-71531009D01*
X197766666Y-71531009D02*
X197671428Y-71483390D01*
X170029164Y-51994285D02*
X169279164Y-51994285D01*
X169279164Y-51994285D02*
X169814878Y-51744285D01*
X169814878Y-51744285D02*
X169279164Y-51494285D01*
X169279164Y-51494285D02*
X170029164Y-51494285D01*
X169957735Y-50708571D02*
X169993450Y-50744285D01*
X169993450Y-50744285D02*
X170029164Y-50851428D01*
X170029164Y-50851428D02*
X170029164Y-50922856D01*
X170029164Y-50922856D02*
X169993450Y-51029999D01*
X169993450Y-51029999D02*
X169922021Y-51101428D01*
X169922021Y-51101428D02*
X169850592Y-51137142D01*
X169850592Y-51137142D02*
X169707735Y-51172856D01*
X169707735Y-51172856D02*
X169600592Y-51172856D01*
X169600592Y-51172856D02*
X169457735Y-51137142D01*
X169457735Y-51137142D02*
X169386307Y-51101428D01*
X169386307Y-51101428D02*
X169314878Y-51029999D01*
X169314878Y-51029999D02*
X169279164Y-50922856D01*
X169279164Y-50922856D02*
X169279164Y-50851428D01*
X169279164Y-50851428D02*
X169314878Y-50744285D01*
X169314878Y-50744285D02*
X169350592Y-50708571D01*
X170029164Y-50387142D02*
X169279164Y-50387142D01*
X169279164Y-50387142D02*
X169279164Y-50101428D01*
X169279164Y-50101428D02*
X169314878Y-50029999D01*
X169314878Y-50029999D02*
X169350592Y-49994285D01*
X169350592Y-49994285D02*
X169422021Y-49958571D01*
X169422021Y-49958571D02*
X169529164Y-49958571D01*
X169529164Y-49958571D02*
X169600592Y-49994285D01*
X169600592Y-49994285D02*
X169636307Y-50029999D01*
X169636307Y-50029999D02*
X169672021Y-50101428D01*
X169672021Y-50101428D02*
X169672021Y-50387142D01*
X169279164Y-49315714D02*
X169279164Y-49458571D01*
X169279164Y-49458571D02*
X169314878Y-49529999D01*
X169314878Y-49529999D02*
X169350592Y-49565714D01*
X169350592Y-49565714D02*
X169457735Y-49637142D01*
X169457735Y-49637142D02*
X169600592Y-49672856D01*
X169600592Y-49672856D02*
X169886307Y-49672856D01*
X169886307Y-49672856D02*
X169957735Y-49637142D01*
X169957735Y-49637142D02*
X169993450Y-49601428D01*
X169993450Y-49601428D02*
X170029164Y-49529999D01*
X170029164Y-49529999D02*
X170029164Y-49387142D01*
X170029164Y-49387142D02*
X169993450Y-49315714D01*
X169993450Y-49315714D02*
X169957735Y-49279999D01*
X169957735Y-49279999D02*
X169886307Y-49244285D01*
X169886307Y-49244285D02*
X169707735Y-49244285D01*
X169707735Y-49244285D02*
X169636307Y-49279999D01*
X169636307Y-49279999D02*
X169600592Y-49315714D01*
X169600592Y-49315714D02*
X169564878Y-49387142D01*
X169564878Y-49387142D02*
X169564878Y-49529999D01*
X169564878Y-49529999D02*
X169600592Y-49601428D01*
X169600592Y-49601428D02*
X169636307Y-49637142D01*
X169636307Y-49637142D02*
X169707735Y-49672856D01*
X169279164Y-48779999D02*
X169279164Y-48708570D01*
X169279164Y-48708570D02*
X169314878Y-48637142D01*
X169314878Y-48637142D02*
X169350592Y-48601428D01*
X169350592Y-48601428D02*
X169422021Y-48565713D01*
X169422021Y-48565713D02*
X169564878Y-48529999D01*
X169564878Y-48529999D02*
X169743450Y-48529999D01*
X169743450Y-48529999D02*
X169886307Y-48565713D01*
X169886307Y-48565713D02*
X169957735Y-48601428D01*
X169957735Y-48601428D02*
X169993450Y-48637142D01*
X169993450Y-48637142D02*
X170029164Y-48708570D01*
X170029164Y-48708570D02*
X170029164Y-48779999D01*
X170029164Y-48779999D02*
X169993450Y-48851428D01*
X169993450Y-48851428D02*
X169957735Y-48887142D01*
X169957735Y-48887142D02*
X169886307Y-48922856D01*
X169886307Y-48922856D02*
X169743450Y-48958570D01*
X169743450Y-48958570D02*
X169564878Y-48958570D01*
X169564878Y-48958570D02*
X169422021Y-48922856D01*
X169422021Y-48922856D02*
X169350592Y-48887142D01*
X169350592Y-48887142D02*
X169314878Y-48851428D01*
X169314878Y-48851428D02*
X169279164Y-48779999D01*
X169279164Y-48065713D02*
X169279164Y-47994284D01*
X169279164Y-47994284D02*
X169314878Y-47922856D01*
X169314878Y-47922856D02*
X169350592Y-47887142D01*
X169350592Y-47887142D02*
X169422021Y-47851427D01*
X169422021Y-47851427D02*
X169564878Y-47815713D01*
X169564878Y-47815713D02*
X169743450Y-47815713D01*
X169743450Y-47815713D02*
X169886307Y-47851427D01*
X169886307Y-47851427D02*
X169957735Y-47887142D01*
X169957735Y-47887142D02*
X169993450Y-47922856D01*
X169993450Y-47922856D02*
X170029164Y-47994284D01*
X170029164Y-47994284D02*
X170029164Y-48065713D01*
X170029164Y-48065713D02*
X169993450Y-48137142D01*
X169993450Y-48137142D02*
X169957735Y-48172856D01*
X169957735Y-48172856D02*
X169886307Y-48208570D01*
X169886307Y-48208570D02*
X169743450Y-48244284D01*
X169743450Y-48244284D02*
X169564878Y-48244284D01*
X169564878Y-48244284D02*
X169422021Y-48208570D01*
X169422021Y-48208570D02*
X169350592Y-48172856D01*
X169350592Y-48172856D02*
X169314878Y-48137142D01*
X169314878Y-48137142D02*
X169279164Y-48065713D01*
X169350592Y-47529998D02*
X169314878Y-47494284D01*
X169314878Y-47494284D02*
X169279164Y-47422856D01*
X169279164Y-47422856D02*
X169279164Y-47244284D01*
X169279164Y-47244284D02*
X169314878Y-47172856D01*
X169314878Y-47172856D02*
X169350592Y-47137141D01*
X169350592Y-47137141D02*
X169422021Y-47101427D01*
X169422021Y-47101427D02*
X169493450Y-47101427D01*
X169493450Y-47101427D02*
X169600592Y-47137141D01*
X169600592Y-47137141D02*
X170029164Y-47565713D01*
X170029164Y-47565713D02*
X170029164Y-47101427D01*
X169743450Y-46779998D02*
X169743450Y-46208570D01*
X170029164Y-45851427D02*
X169279164Y-45851427D01*
X169243450Y-44958570D02*
X170207735Y-45601427D01*
X170029164Y-44708570D02*
X169279164Y-44708570D01*
X169279164Y-44708570D02*
X169279164Y-44422856D01*
X169279164Y-44422856D02*
X169314878Y-44351427D01*
X169314878Y-44351427D02*
X169350592Y-44315713D01*
X169350592Y-44315713D02*
X169422021Y-44279999D01*
X169422021Y-44279999D02*
X169529164Y-44279999D01*
X169529164Y-44279999D02*
X169600592Y-44315713D01*
X169600592Y-44315713D02*
X169636307Y-44351427D01*
X169636307Y-44351427D02*
X169672021Y-44422856D01*
X169672021Y-44422856D02*
X169672021Y-44708570D01*
X159333333Y-51284580D02*
X159285714Y-51332200D01*
X159285714Y-51332200D02*
X159142857Y-51379819D01*
X159142857Y-51379819D02*
X159047619Y-51379819D01*
X159047619Y-51379819D02*
X158904762Y-51332200D01*
X158904762Y-51332200D02*
X158809524Y-51236961D01*
X158809524Y-51236961D02*
X158761905Y-51141723D01*
X158761905Y-51141723D02*
X158714286Y-50951247D01*
X158714286Y-50951247D02*
X158714286Y-50808390D01*
X158714286Y-50808390D02*
X158761905Y-50617914D01*
X158761905Y-50617914D02*
X158809524Y-50522676D01*
X158809524Y-50522676D02*
X158904762Y-50427438D01*
X158904762Y-50427438D02*
X159047619Y-50379819D01*
X159047619Y-50379819D02*
X159142857Y-50379819D01*
X159142857Y-50379819D02*
X159285714Y-50427438D01*
X159285714Y-50427438D02*
X159333333Y-50475057D01*
X160238095Y-50379819D02*
X159761905Y-50379819D01*
X159761905Y-50379819D02*
X159714286Y-50856009D01*
X159714286Y-50856009D02*
X159761905Y-50808390D01*
X159761905Y-50808390D02*
X159857143Y-50760771D01*
X159857143Y-50760771D02*
X160095238Y-50760771D01*
X160095238Y-50760771D02*
X160190476Y-50808390D01*
X160190476Y-50808390D02*
X160238095Y-50856009D01*
X160238095Y-50856009D02*
X160285714Y-50951247D01*
X160285714Y-50951247D02*
X160285714Y-51189342D01*
X160285714Y-51189342D02*
X160238095Y-51284580D01*
X160238095Y-51284580D02*
X160190476Y-51332200D01*
X160190476Y-51332200D02*
X160095238Y-51379819D01*
X160095238Y-51379819D02*
X159857143Y-51379819D01*
X159857143Y-51379819D02*
X159761905Y-51332200D01*
X159761905Y-51332200D02*
X159714286Y-51284580D01*
X179102933Y-60914155D02*
X179055314Y-60961775D01*
X179055314Y-60961775D02*
X178912457Y-61009394D01*
X178912457Y-61009394D02*
X178817219Y-61009394D01*
X178817219Y-61009394D02*
X178674362Y-60961775D01*
X178674362Y-60961775D02*
X178579124Y-60866536D01*
X178579124Y-60866536D02*
X178531505Y-60771298D01*
X178531505Y-60771298D02*
X178483886Y-60580822D01*
X178483886Y-60580822D02*
X178483886Y-60437965D01*
X178483886Y-60437965D02*
X178531505Y-60247489D01*
X178531505Y-60247489D02*
X178579124Y-60152251D01*
X178579124Y-60152251D02*
X178674362Y-60057013D01*
X178674362Y-60057013D02*
X178817219Y-60009394D01*
X178817219Y-60009394D02*
X178912457Y-60009394D01*
X178912457Y-60009394D02*
X179055314Y-60057013D01*
X179055314Y-60057013D02*
X179102933Y-60104632D01*
X180055314Y-61009394D02*
X179483886Y-61009394D01*
X179769600Y-61009394D02*
X179769600Y-60009394D01*
X179769600Y-60009394D02*
X179674362Y-60152251D01*
X179674362Y-60152251D02*
X179579124Y-60247489D01*
X179579124Y-60247489D02*
X179483886Y-60295108D01*
X181007695Y-61009394D02*
X180436267Y-61009394D01*
X180721981Y-61009394D02*
X180721981Y-60009394D01*
X180721981Y-60009394D02*
X180626743Y-60152251D01*
X180626743Y-60152251D02*
X180531505Y-60247489D01*
X180531505Y-60247489D02*
X180436267Y-60295108D01*
X150416666Y-75404819D02*
X150416666Y-76119104D01*
X150416666Y-76119104D02*
X150369047Y-76261961D01*
X150369047Y-76261961D02*
X150273809Y-76357200D01*
X150273809Y-76357200D02*
X150130952Y-76404819D01*
X150130952Y-76404819D02*
X150035714Y-76404819D01*
X150845238Y-75500057D02*
X150892857Y-75452438D01*
X150892857Y-75452438D02*
X150988095Y-75404819D01*
X150988095Y-75404819D02*
X151226190Y-75404819D01*
X151226190Y-75404819D02*
X151321428Y-75452438D01*
X151321428Y-75452438D02*
X151369047Y-75500057D01*
X151369047Y-75500057D02*
X151416666Y-75595295D01*
X151416666Y-75595295D02*
X151416666Y-75690533D01*
X151416666Y-75690533D02*
X151369047Y-75833390D01*
X151369047Y-75833390D02*
X150797619Y-76404819D01*
X150797619Y-76404819D02*
X151416666Y-76404819D01*
X147554819Y-82188095D02*
X147078628Y-82521428D01*
X147554819Y-82759523D02*
X146554819Y-82759523D01*
X146554819Y-82759523D02*
X146554819Y-82378571D01*
X146554819Y-82378571D02*
X146602438Y-82283333D01*
X146602438Y-82283333D02*
X146650057Y-82235714D01*
X146650057Y-82235714D02*
X146745295Y-82188095D01*
X146745295Y-82188095D02*
X146888152Y-82188095D01*
X146888152Y-82188095D02*
X146983390Y-82235714D01*
X146983390Y-82235714D02*
X147031009Y-82283333D01*
X147031009Y-82283333D02*
X147078628Y-82378571D01*
X147078628Y-82378571D02*
X147078628Y-82759523D01*
X147507200Y-81378571D02*
X147554819Y-81473809D01*
X147554819Y-81473809D02*
X147554819Y-81664285D01*
X147554819Y-81664285D02*
X147507200Y-81759523D01*
X147507200Y-81759523D02*
X147411961Y-81807142D01*
X147411961Y-81807142D02*
X147031009Y-81807142D01*
X147031009Y-81807142D02*
X146935771Y-81759523D01*
X146935771Y-81759523D02*
X146888152Y-81664285D01*
X146888152Y-81664285D02*
X146888152Y-81473809D01*
X146888152Y-81473809D02*
X146935771Y-81378571D01*
X146935771Y-81378571D02*
X147031009Y-81330952D01*
X147031009Y-81330952D02*
X147126247Y-81330952D01*
X147126247Y-81330952D02*
X147221485Y-81807142D01*
X147507200Y-80949999D02*
X147554819Y-80854761D01*
X147554819Y-80854761D02*
X147554819Y-80664285D01*
X147554819Y-80664285D02*
X147507200Y-80569047D01*
X147507200Y-80569047D02*
X147411961Y-80521428D01*
X147411961Y-80521428D02*
X147364342Y-80521428D01*
X147364342Y-80521428D02*
X147269104Y-80569047D01*
X147269104Y-80569047D02*
X147221485Y-80664285D01*
X147221485Y-80664285D02*
X147221485Y-80807142D01*
X147221485Y-80807142D02*
X147173866Y-80902380D01*
X147173866Y-80902380D02*
X147078628Y-80949999D01*
X147078628Y-80949999D02*
X147031009Y-80949999D01*
X147031009Y-80949999D02*
X146935771Y-80902380D01*
X146935771Y-80902380D02*
X146888152Y-80807142D01*
X146888152Y-80807142D02*
X146888152Y-80664285D01*
X146888152Y-80664285D02*
X146935771Y-80569047D01*
X147507200Y-79711904D02*
X147554819Y-79807142D01*
X147554819Y-79807142D02*
X147554819Y-79997618D01*
X147554819Y-79997618D02*
X147507200Y-80092856D01*
X147507200Y-80092856D02*
X147411961Y-80140475D01*
X147411961Y-80140475D02*
X147031009Y-80140475D01*
X147031009Y-80140475D02*
X146935771Y-80092856D01*
X146935771Y-80092856D02*
X146888152Y-79997618D01*
X146888152Y-79997618D02*
X146888152Y-79807142D01*
X146888152Y-79807142D02*
X146935771Y-79711904D01*
X146935771Y-79711904D02*
X147031009Y-79664285D01*
X147031009Y-79664285D02*
X147126247Y-79664285D01*
X147126247Y-79664285D02*
X147221485Y-80140475D01*
X146888152Y-79378570D02*
X146888152Y-78997618D01*
X146554819Y-79235713D02*
X147411961Y-79235713D01*
X147411961Y-79235713D02*
X147507200Y-79188094D01*
X147507200Y-79188094D02*
X147554819Y-79092856D01*
X147554819Y-79092856D02*
X147554819Y-78997618D01*
X149460999Y-44717984D02*
X149127666Y-44241793D01*
X148889571Y-44717984D02*
X148889571Y-43717984D01*
X148889571Y-43717984D02*
X149270523Y-43717984D01*
X149270523Y-43717984D02*
X149365761Y-43765603D01*
X149365761Y-43765603D02*
X149413380Y-43813222D01*
X149413380Y-43813222D02*
X149460999Y-43908460D01*
X149460999Y-43908460D02*
X149460999Y-44051317D01*
X149460999Y-44051317D02*
X149413380Y-44146555D01*
X149413380Y-44146555D02*
X149365761Y-44194174D01*
X149365761Y-44194174D02*
X149270523Y-44241793D01*
X149270523Y-44241793D02*
X148889571Y-44241793D01*
X149794333Y-43717984D02*
X150460999Y-43717984D01*
X150460999Y-43717984D02*
X150032428Y-44717984D01*
X195781009Y-119130952D02*
X195828628Y-118988095D01*
X195828628Y-118988095D02*
X195876247Y-118940476D01*
X195876247Y-118940476D02*
X195971485Y-118892857D01*
X195971485Y-118892857D02*
X196114342Y-118892857D01*
X196114342Y-118892857D02*
X196209580Y-118940476D01*
X196209580Y-118940476D02*
X196257200Y-118988095D01*
X196257200Y-118988095D02*
X196304819Y-119083333D01*
X196304819Y-119083333D02*
X196304819Y-119464285D01*
X196304819Y-119464285D02*
X195304819Y-119464285D01*
X195304819Y-119464285D02*
X195304819Y-119130952D01*
X195304819Y-119130952D02*
X195352438Y-119035714D01*
X195352438Y-119035714D02*
X195400057Y-118988095D01*
X195400057Y-118988095D02*
X195495295Y-118940476D01*
X195495295Y-118940476D02*
X195590533Y-118940476D01*
X195590533Y-118940476D02*
X195685771Y-118988095D01*
X195685771Y-118988095D02*
X195733390Y-119035714D01*
X195733390Y-119035714D02*
X195781009Y-119130952D01*
X195781009Y-119130952D02*
X195781009Y-119464285D01*
X195304819Y-118559523D02*
X195304819Y-117892857D01*
X195304819Y-117892857D02*
X196304819Y-118559523D01*
X196304819Y-118559523D02*
X196304819Y-117892857D01*
X196304819Y-116988095D02*
X196304819Y-117559523D01*
X196304819Y-117273809D02*
X195304819Y-117273809D01*
X195304819Y-117273809D02*
X195447676Y-117369047D01*
X195447676Y-117369047D02*
X195542914Y-117464285D01*
X195542914Y-117464285D02*
X195590533Y-117559523D01*
X198463866Y-114820951D02*
X198463866Y-114059047D01*
X198844819Y-114439999D02*
X198082914Y-114439999D01*
X149460999Y-48142984D02*
X149127666Y-47666793D01*
X148889571Y-48142984D02*
X148889571Y-47142984D01*
X148889571Y-47142984D02*
X149270523Y-47142984D01*
X149270523Y-47142984D02*
X149365761Y-47190603D01*
X149365761Y-47190603D02*
X149413380Y-47238222D01*
X149413380Y-47238222D02*
X149460999Y-47333460D01*
X149460999Y-47333460D02*
X149460999Y-47476317D01*
X149460999Y-47476317D02*
X149413380Y-47571555D01*
X149413380Y-47571555D02*
X149365761Y-47619174D01*
X149365761Y-47619174D02*
X149270523Y-47666793D01*
X149270523Y-47666793D02*
X148889571Y-47666793D01*
X150032428Y-47571555D02*
X149937190Y-47523936D01*
X149937190Y-47523936D02*
X149889571Y-47476317D01*
X149889571Y-47476317D02*
X149841952Y-47381079D01*
X149841952Y-47381079D02*
X149841952Y-47333460D01*
X149841952Y-47333460D02*
X149889571Y-47238222D01*
X149889571Y-47238222D02*
X149937190Y-47190603D01*
X149937190Y-47190603D02*
X150032428Y-47142984D01*
X150032428Y-47142984D02*
X150222904Y-47142984D01*
X150222904Y-47142984D02*
X150318142Y-47190603D01*
X150318142Y-47190603D02*
X150365761Y-47238222D01*
X150365761Y-47238222D02*
X150413380Y-47333460D01*
X150413380Y-47333460D02*
X150413380Y-47381079D01*
X150413380Y-47381079D02*
X150365761Y-47476317D01*
X150365761Y-47476317D02*
X150318142Y-47523936D01*
X150318142Y-47523936D02*
X150222904Y-47571555D01*
X150222904Y-47571555D02*
X150032428Y-47571555D01*
X150032428Y-47571555D02*
X149937190Y-47619174D01*
X149937190Y-47619174D02*
X149889571Y-47666793D01*
X149889571Y-47666793D02*
X149841952Y-47762031D01*
X149841952Y-47762031D02*
X149841952Y-47952507D01*
X149841952Y-47952507D02*
X149889571Y-48047745D01*
X149889571Y-48047745D02*
X149937190Y-48095365D01*
X149937190Y-48095365D02*
X150032428Y-48142984D01*
X150032428Y-48142984D02*
X150222904Y-48142984D01*
X150222904Y-48142984D02*
X150318142Y-48095365D01*
X150318142Y-48095365D02*
X150365761Y-48047745D01*
X150365761Y-48047745D02*
X150413380Y-47952507D01*
X150413380Y-47952507D02*
X150413380Y-47762031D01*
X150413380Y-47762031D02*
X150365761Y-47666793D01*
X150365761Y-47666793D02*
X150318142Y-47619174D01*
X150318142Y-47619174D02*
X150222904Y-47571555D01*
X179102933Y-57644155D02*
X179055314Y-57691775D01*
X179055314Y-57691775D02*
X178912457Y-57739394D01*
X178912457Y-57739394D02*
X178817219Y-57739394D01*
X178817219Y-57739394D02*
X178674362Y-57691775D01*
X178674362Y-57691775D02*
X178579124Y-57596536D01*
X178579124Y-57596536D02*
X178531505Y-57501298D01*
X178531505Y-57501298D02*
X178483886Y-57310822D01*
X178483886Y-57310822D02*
X178483886Y-57167965D01*
X178483886Y-57167965D02*
X178531505Y-56977489D01*
X178531505Y-56977489D02*
X178579124Y-56882251D01*
X178579124Y-56882251D02*
X178674362Y-56787013D01*
X178674362Y-56787013D02*
X178817219Y-56739394D01*
X178817219Y-56739394D02*
X178912457Y-56739394D01*
X178912457Y-56739394D02*
X179055314Y-56787013D01*
X179055314Y-56787013D02*
X179102933Y-56834632D01*
X180055314Y-57739394D02*
X179483886Y-57739394D01*
X179769600Y-57739394D02*
X179769600Y-56739394D01*
X179769600Y-56739394D02*
X179674362Y-56882251D01*
X179674362Y-56882251D02*
X179579124Y-56977489D01*
X179579124Y-56977489D02*
X179483886Y-57025108D01*
X180960076Y-56739394D02*
X180483886Y-56739394D01*
X180483886Y-56739394D02*
X180436267Y-57215584D01*
X180436267Y-57215584D02*
X180483886Y-57167965D01*
X180483886Y-57167965D02*
X180579124Y-57120346D01*
X180579124Y-57120346D02*
X180817219Y-57120346D01*
X180817219Y-57120346D02*
X180912457Y-57167965D01*
X180912457Y-57167965D02*
X180960076Y-57215584D01*
X180960076Y-57215584D02*
X181007695Y-57310822D01*
X181007695Y-57310822D02*
X181007695Y-57548917D01*
X181007695Y-57548917D02*
X180960076Y-57644155D01*
X180960076Y-57644155D02*
X180912457Y-57691775D01*
X180912457Y-57691775D02*
X180817219Y-57739394D01*
X180817219Y-57739394D02*
X180579124Y-57739394D01*
X180579124Y-57739394D02*
X180483886Y-57691775D01*
X180483886Y-57691775D02*
X180436267Y-57644155D01*
X171542040Y-84355349D02*
X171589660Y-84402968D01*
X171589660Y-84402968D02*
X171637279Y-84545825D01*
X171637279Y-84545825D02*
X171637279Y-84641063D01*
X171637279Y-84641063D02*
X171589660Y-84783920D01*
X171589660Y-84783920D02*
X171494421Y-84879158D01*
X171494421Y-84879158D02*
X171399183Y-84926777D01*
X171399183Y-84926777D02*
X171208707Y-84974396D01*
X171208707Y-84974396D02*
X171065850Y-84974396D01*
X171065850Y-84974396D02*
X170875374Y-84926777D01*
X170875374Y-84926777D02*
X170780136Y-84879158D01*
X170780136Y-84879158D02*
X170684898Y-84783920D01*
X170684898Y-84783920D02*
X170637279Y-84641063D01*
X170637279Y-84641063D02*
X170637279Y-84545825D01*
X170637279Y-84545825D02*
X170684898Y-84402968D01*
X170684898Y-84402968D02*
X170732517Y-84355349D01*
X170637279Y-83498206D02*
X170637279Y-83688682D01*
X170637279Y-83688682D02*
X170684898Y-83783920D01*
X170684898Y-83783920D02*
X170732517Y-83831539D01*
X170732517Y-83831539D02*
X170875374Y-83926777D01*
X170875374Y-83926777D02*
X171065850Y-83974396D01*
X171065850Y-83974396D02*
X171446802Y-83974396D01*
X171446802Y-83974396D02*
X171542040Y-83926777D01*
X171542040Y-83926777D02*
X171589660Y-83879158D01*
X171589660Y-83879158D02*
X171637279Y-83783920D01*
X171637279Y-83783920D02*
X171637279Y-83593444D01*
X171637279Y-83593444D02*
X171589660Y-83498206D01*
X171589660Y-83498206D02*
X171542040Y-83450587D01*
X171542040Y-83450587D02*
X171446802Y-83402968D01*
X171446802Y-83402968D02*
X171208707Y-83402968D01*
X171208707Y-83402968D02*
X171113469Y-83450587D01*
X171113469Y-83450587D02*
X171065850Y-83498206D01*
X171065850Y-83498206D02*
X171018231Y-83593444D01*
X171018231Y-83593444D02*
X171018231Y-83783920D01*
X171018231Y-83783920D02*
X171065850Y-83879158D01*
X171065850Y-83879158D02*
X171113469Y-83926777D01*
X171113469Y-83926777D02*
X171208707Y-83974396D01*
X159413497Y-60656998D02*
X159365878Y-60704618D01*
X159365878Y-60704618D02*
X159223021Y-60752237D01*
X159223021Y-60752237D02*
X159127783Y-60752237D01*
X159127783Y-60752237D02*
X158984926Y-60704618D01*
X158984926Y-60704618D02*
X158889688Y-60609379D01*
X158889688Y-60609379D02*
X158842069Y-60514141D01*
X158842069Y-60514141D02*
X158794450Y-60323665D01*
X158794450Y-60323665D02*
X158794450Y-60180808D01*
X158794450Y-60180808D02*
X158842069Y-59990332D01*
X158842069Y-59990332D02*
X158889688Y-59895094D01*
X158889688Y-59895094D02*
X158984926Y-59799856D01*
X158984926Y-59799856D02*
X159127783Y-59752237D01*
X159127783Y-59752237D02*
X159223021Y-59752237D01*
X159223021Y-59752237D02*
X159365878Y-59799856D01*
X159365878Y-59799856D02*
X159413497Y-59847475D01*
X159984926Y-60180808D02*
X159889688Y-60133189D01*
X159889688Y-60133189D02*
X159842069Y-60085570D01*
X159842069Y-60085570D02*
X159794450Y-59990332D01*
X159794450Y-59990332D02*
X159794450Y-59942713D01*
X159794450Y-59942713D02*
X159842069Y-59847475D01*
X159842069Y-59847475D02*
X159889688Y-59799856D01*
X159889688Y-59799856D02*
X159984926Y-59752237D01*
X159984926Y-59752237D02*
X160175402Y-59752237D01*
X160175402Y-59752237D02*
X160270640Y-59799856D01*
X160270640Y-59799856D02*
X160318259Y-59847475D01*
X160318259Y-59847475D02*
X160365878Y-59942713D01*
X160365878Y-59942713D02*
X160365878Y-59990332D01*
X160365878Y-59990332D02*
X160318259Y-60085570D01*
X160318259Y-60085570D02*
X160270640Y-60133189D01*
X160270640Y-60133189D02*
X160175402Y-60180808D01*
X160175402Y-60180808D02*
X159984926Y-60180808D01*
X159984926Y-60180808D02*
X159889688Y-60228427D01*
X159889688Y-60228427D02*
X159842069Y-60276046D01*
X159842069Y-60276046D02*
X159794450Y-60371284D01*
X159794450Y-60371284D02*
X159794450Y-60561760D01*
X159794450Y-60561760D02*
X159842069Y-60656998D01*
X159842069Y-60656998D02*
X159889688Y-60704618D01*
X159889688Y-60704618D02*
X159984926Y-60752237D01*
X159984926Y-60752237D02*
X160175402Y-60752237D01*
X160175402Y-60752237D02*
X160270640Y-60704618D01*
X160270640Y-60704618D02*
X160318259Y-60656998D01*
X160318259Y-60656998D02*
X160365878Y-60561760D01*
X160365878Y-60561760D02*
X160365878Y-60371284D01*
X160365878Y-60371284D02*
X160318259Y-60276046D01*
X160318259Y-60276046D02*
X160270640Y-60228427D01*
X160270640Y-60228427D02*
X160175402Y-60180808D01*
X188930004Y-61017693D02*
X188596671Y-60541502D01*
X188358576Y-61017693D02*
X188358576Y-60017693D01*
X188358576Y-60017693D02*
X188739528Y-60017693D01*
X188739528Y-60017693D02*
X188834766Y-60065312D01*
X188834766Y-60065312D02*
X188882385Y-60112931D01*
X188882385Y-60112931D02*
X188930004Y-60208169D01*
X188930004Y-60208169D02*
X188930004Y-60351026D01*
X188930004Y-60351026D02*
X188882385Y-60446264D01*
X188882385Y-60446264D02*
X188834766Y-60493883D01*
X188834766Y-60493883D02*
X188739528Y-60541502D01*
X188739528Y-60541502D02*
X188358576Y-60541502D01*
X189882385Y-61017693D02*
X189310957Y-61017693D01*
X189596671Y-61017693D02*
X189596671Y-60017693D01*
X189596671Y-60017693D02*
X189501433Y-60160550D01*
X189501433Y-60160550D02*
X189406195Y-60255788D01*
X189406195Y-60255788D02*
X189310957Y-60303407D01*
X190739528Y-60017693D02*
X190549052Y-60017693D01*
X190549052Y-60017693D02*
X190453814Y-60065312D01*
X190453814Y-60065312D02*
X190406195Y-60112931D01*
X190406195Y-60112931D02*
X190310957Y-60255788D01*
X190310957Y-60255788D02*
X190263338Y-60446264D01*
X190263338Y-60446264D02*
X190263338Y-60827216D01*
X190263338Y-60827216D02*
X190310957Y-60922454D01*
X190310957Y-60922454D02*
X190358576Y-60970074D01*
X190358576Y-60970074D02*
X190453814Y-61017693D01*
X190453814Y-61017693D02*
X190644290Y-61017693D01*
X190644290Y-61017693D02*
X190739528Y-60970074D01*
X190739528Y-60970074D02*
X190787147Y-60922454D01*
X190787147Y-60922454D02*
X190834766Y-60827216D01*
X190834766Y-60827216D02*
X190834766Y-60589121D01*
X190834766Y-60589121D02*
X190787147Y-60493883D01*
X190787147Y-60493883D02*
X190739528Y-60446264D01*
X190739528Y-60446264D02*
X190644290Y-60398645D01*
X190644290Y-60398645D02*
X190453814Y-60398645D01*
X190453814Y-60398645D02*
X190358576Y-60446264D01*
X190358576Y-60446264D02*
X190310957Y-60493883D01*
X190310957Y-60493883D02*
X190263338Y-60589121D01*
X183757142Y-115654819D02*
X183423809Y-115178628D01*
X183185714Y-115654819D02*
X183185714Y-114654819D01*
X183185714Y-114654819D02*
X183566666Y-114654819D01*
X183566666Y-114654819D02*
X183661904Y-114702438D01*
X183661904Y-114702438D02*
X183709523Y-114750057D01*
X183709523Y-114750057D02*
X183757142Y-114845295D01*
X183757142Y-114845295D02*
X183757142Y-114988152D01*
X183757142Y-114988152D02*
X183709523Y-115083390D01*
X183709523Y-115083390D02*
X183661904Y-115131009D01*
X183661904Y-115131009D02*
X183566666Y-115178628D01*
X183566666Y-115178628D02*
X183185714Y-115178628D01*
X184138095Y-114750057D02*
X184185714Y-114702438D01*
X184185714Y-114702438D02*
X184280952Y-114654819D01*
X184280952Y-114654819D02*
X184519047Y-114654819D01*
X184519047Y-114654819D02*
X184614285Y-114702438D01*
X184614285Y-114702438D02*
X184661904Y-114750057D01*
X184661904Y-114750057D02*
X184709523Y-114845295D01*
X184709523Y-114845295D02*
X184709523Y-114940533D01*
X184709523Y-114940533D02*
X184661904Y-115083390D01*
X184661904Y-115083390D02*
X184090476Y-115654819D01*
X184090476Y-115654819D02*
X184709523Y-115654819D01*
X185661904Y-115654819D02*
X185090476Y-115654819D01*
X185376190Y-115654819D02*
X185376190Y-114654819D01*
X185376190Y-114654819D02*
X185280952Y-114797676D01*
X185280952Y-114797676D02*
X185185714Y-114892914D01*
X185185714Y-114892914D02*
X185090476Y-114940533D01*
X197988095Y-92504819D02*
X198559523Y-92504819D01*
X198273809Y-93504819D02*
X198273809Y-92504819D01*
X198892857Y-93504819D02*
X198892857Y-92504819D01*
X198892857Y-92504819D02*
X199273809Y-92504819D01*
X199273809Y-92504819D02*
X199369047Y-92552438D01*
X199369047Y-92552438D02*
X199416666Y-92600057D01*
X199416666Y-92600057D02*
X199464285Y-92695295D01*
X199464285Y-92695295D02*
X199464285Y-92838152D01*
X199464285Y-92838152D02*
X199416666Y-92933390D01*
X199416666Y-92933390D02*
X199369047Y-92981009D01*
X199369047Y-92981009D02*
X199273809Y-93028628D01*
X199273809Y-93028628D02*
X198892857Y-93028628D01*
X200416666Y-93504819D02*
X199845238Y-93504819D01*
X200130952Y-93504819D02*
X200130952Y-92504819D01*
X200130952Y-92504819D02*
X200035714Y-92647676D01*
X200035714Y-92647676D02*
X199940476Y-92742914D01*
X199940476Y-92742914D02*
X199845238Y-92790533D01*
X196358394Y-52116948D02*
X196358394Y-52831233D01*
X196358394Y-52831233D02*
X196310775Y-52974090D01*
X196310775Y-52974090D02*
X196215537Y-53069329D01*
X196215537Y-53069329D02*
X196072680Y-53116948D01*
X196072680Y-53116948D02*
X195977442Y-53116948D01*
X197358394Y-53116948D02*
X196786966Y-53116948D01*
X197072680Y-53116948D02*
X197072680Y-52116948D01*
X197072680Y-52116948D02*
X196977442Y-52259805D01*
X196977442Y-52259805D02*
X196882204Y-52355043D01*
X196882204Y-52355043D02*
X196786966Y-52402662D01*
X201269104Y-53028571D02*
X201269104Y-52552381D01*
X201554819Y-53123809D02*
X200554819Y-52790476D01*
X200554819Y-52790476D02*
X201554819Y-52457143D01*
X200888152Y-52123809D02*
X201554819Y-52123809D01*
X200983390Y-52123809D02*
X200935771Y-52076190D01*
X200935771Y-52076190D02*
X200888152Y-51980952D01*
X200888152Y-51980952D02*
X200888152Y-51838095D01*
X200888152Y-51838095D02*
X200935771Y-51742857D01*
X200935771Y-51742857D02*
X201031009Y-51695238D01*
X201031009Y-51695238D02*
X201554819Y-51695238D01*
X201554819Y-50790476D02*
X201031009Y-50790476D01*
X201031009Y-50790476D02*
X200935771Y-50838095D01*
X200935771Y-50838095D02*
X200888152Y-50933333D01*
X200888152Y-50933333D02*
X200888152Y-51123809D01*
X200888152Y-51123809D02*
X200935771Y-51219047D01*
X201507200Y-50790476D02*
X201554819Y-50885714D01*
X201554819Y-50885714D02*
X201554819Y-51123809D01*
X201554819Y-51123809D02*
X201507200Y-51219047D01*
X201507200Y-51219047D02*
X201411961Y-51266666D01*
X201411961Y-51266666D02*
X201316723Y-51266666D01*
X201316723Y-51266666D02*
X201221485Y-51219047D01*
X201221485Y-51219047D02*
X201173866Y-51123809D01*
X201173866Y-51123809D02*
X201173866Y-50885714D01*
X201173866Y-50885714D02*
X201126247Y-50790476D01*
X201554819Y-50171428D02*
X201507200Y-50266666D01*
X201507200Y-50266666D02*
X201411961Y-50314285D01*
X201411961Y-50314285D02*
X200554819Y-50314285D01*
X201554819Y-49647618D02*
X201507200Y-49742856D01*
X201507200Y-49742856D02*
X201459580Y-49790475D01*
X201459580Y-49790475D02*
X201364342Y-49838094D01*
X201364342Y-49838094D02*
X201078628Y-49838094D01*
X201078628Y-49838094D02*
X200983390Y-49790475D01*
X200983390Y-49790475D02*
X200935771Y-49742856D01*
X200935771Y-49742856D02*
X200888152Y-49647618D01*
X200888152Y-49647618D02*
X200888152Y-49504761D01*
X200888152Y-49504761D02*
X200935771Y-49409523D01*
X200935771Y-49409523D02*
X200983390Y-49361904D01*
X200983390Y-49361904D02*
X201078628Y-49314285D01*
X201078628Y-49314285D02*
X201364342Y-49314285D01*
X201364342Y-49314285D02*
X201459580Y-49361904D01*
X201459580Y-49361904D02*
X201507200Y-49409523D01*
X201507200Y-49409523D02*
X201554819Y-49504761D01*
X201554819Y-49504761D02*
X201554819Y-49647618D01*
X200888152Y-48457142D02*
X201697676Y-48457142D01*
X201697676Y-48457142D02*
X201792914Y-48504761D01*
X201792914Y-48504761D02*
X201840533Y-48552380D01*
X201840533Y-48552380D02*
X201888152Y-48647618D01*
X201888152Y-48647618D02*
X201888152Y-48790475D01*
X201888152Y-48790475D02*
X201840533Y-48885713D01*
X201507200Y-48457142D02*
X201554819Y-48552380D01*
X201554819Y-48552380D02*
X201554819Y-48742856D01*
X201554819Y-48742856D02*
X201507200Y-48838094D01*
X201507200Y-48838094D02*
X201459580Y-48885713D01*
X201459580Y-48885713D02*
X201364342Y-48933332D01*
X201364342Y-48933332D02*
X201078628Y-48933332D01*
X201078628Y-48933332D02*
X200983390Y-48885713D01*
X200983390Y-48885713D02*
X200935771Y-48838094D01*
X200935771Y-48838094D02*
X200888152Y-48742856D01*
X200888152Y-48742856D02*
X200888152Y-48552380D01*
X200888152Y-48552380D02*
X200935771Y-48457142D01*
X201554819Y-47219046D02*
X200554819Y-47219046D01*
X200888152Y-46742856D02*
X201554819Y-46742856D01*
X200983390Y-46742856D02*
X200935771Y-46695237D01*
X200935771Y-46695237D02*
X200888152Y-46599999D01*
X200888152Y-46599999D02*
X200888152Y-46457142D01*
X200888152Y-46457142D02*
X200935771Y-46361904D01*
X200935771Y-46361904D02*
X201031009Y-46314285D01*
X201031009Y-46314285D02*
X201554819Y-46314285D01*
X200888152Y-45838094D02*
X201888152Y-45838094D01*
X200935771Y-45838094D02*
X200888152Y-45742856D01*
X200888152Y-45742856D02*
X200888152Y-45552380D01*
X200888152Y-45552380D02*
X200935771Y-45457142D01*
X200935771Y-45457142D02*
X200983390Y-45409523D01*
X200983390Y-45409523D02*
X201078628Y-45361904D01*
X201078628Y-45361904D02*
X201364342Y-45361904D01*
X201364342Y-45361904D02*
X201459580Y-45409523D01*
X201459580Y-45409523D02*
X201507200Y-45457142D01*
X201507200Y-45457142D02*
X201554819Y-45552380D01*
X201554819Y-45552380D02*
X201554819Y-45742856D01*
X201554819Y-45742856D02*
X201507200Y-45838094D01*
X200888152Y-44504761D02*
X201554819Y-44504761D01*
X200888152Y-44933332D02*
X201411961Y-44933332D01*
X201411961Y-44933332D02*
X201507200Y-44885713D01*
X201507200Y-44885713D02*
X201554819Y-44790475D01*
X201554819Y-44790475D02*
X201554819Y-44647618D01*
X201554819Y-44647618D02*
X201507200Y-44552380D01*
X201507200Y-44552380D02*
X201459580Y-44504761D01*
X200888152Y-44171427D02*
X200888152Y-43790475D01*
X200554819Y-44028570D02*
X201411961Y-44028570D01*
X201411961Y-44028570D02*
X201507200Y-43980951D01*
X201507200Y-43980951D02*
X201554819Y-43885713D01*
X201554819Y-43885713D02*
X201554819Y-43790475D01*
X201554819Y-42171427D02*
X201554819Y-42742855D01*
X201554819Y-42457141D02*
X200554819Y-42457141D01*
X200554819Y-42457141D02*
X200697676Y-42552379D01*
X200697676Y-42552379D02*
X200792914Y-42647617D01*
X200792914Y-42647617D02*
X200840533Y-42742855D01*
X184192040Y-84831540D02*
X184239660Y-84879159D01*
X184239660Y-84879159D02*
X184287279Y-85022016D01*
X184287279Y-85022016D02*
X184287279Y-85117254D01*
X184287279Y-85117254D02*
X184239660Y-85260111D01*
X184239660Y-85260111D02*
X184144421Y-85355349D01*
X184144421Y-85355349D02*
X184049183Y-85402968D01*
X184049183Y-85402968D02*
X183858707Y-85450587D01*
X183858707Y-85450587D02*
X183715850Y-85450587D01*
X183715850Y-85450587D02*
X183525374Y-85402968D01*
X183525374Y-85402968D02*
X183430136Y-85355349D01*
X183430136Y-85355349D02*
X183334898Y-85260111D01*
X183334898Y-85260111D02*
X183287279Y-85117254D01*
X183287279Y-85117254D02*
X183287279Y-85022016D01*
X183287279Y-85022016D02*
X183334898Y-84879159D01*
X183334898Y-84879159D02*
X183382517Y-84831540D01*
X184287279Y-83879159D02*
X184287279Y-84450587D01*
X184287279Y-84164873D02*
X183287279Y-84164873D01*
X183287279Y-84164873D02*
X183430136Y-84260111D01*
X183430136Y-84260111D02*
X183525374Y-84355349D01*
X183525374Y-84355349D02*
X183572993Y-84450587D01*
X183382517Y-83498206D02*
X183334898Y-83450587D01*
X183334898Y-83450587D02*
X183287279Y-83355349D01*
X183287279Y-83355349D02*
X183287279Y-83117254D01*
X183287279Y-83117254D02*
X183334898Y-83022016D01*
X183334898Y-83022016D02*
X183382517Y-82974397D01*
X183382517Y-82974397D02*
X183477755Y-82926778D01*
X183477755Y-82926778D02*
X183572993Y-82926778D01*
X183572993Y-82926778D02*
X183715850Y-82974397D01*
X183715850Y-82974397D02*
X184287279Y-83545825D01*
X184287279Y-83545825D02*
X184287279Y-82926778D01*
X188907142Y-67054819D02*
X188573809Y-66578628D01*
X188335714Y-67054819D02*
X188335714Y-66054819D01*
X188335714Y-66054819D02*
X188716666Y-66054819D01*
X188716666Y-66054819D02*
X188811904Y-66102438D01*
X188811904Y-66102438D02*
X188859523Y-66150057D01*
X188859523Y-66150057D02*
X188907142Y-66245295D01*
X188907142Y-66245295D02*
X188907142Y-66388152D01*
X188907142Y-66388152D02*
X188859523Y-66483390D01*
X188859523Y-66483390D02*
X188811904Y-66531009D01*
X188811904Y-66531009D02*
X188716666Y-66578628D01*
X188716666Y-66578628D02*
X188335714Y-66578628D01*
X189859523Y-67054819D02*
X189288095Y-67054819D01*
X189573809Y-67054819D02*
X189573809Y-66054819D01*
X189573809Y-66054819D02*
X189478571Y-66197676D01*
X189478571Y-66197676D02*
X189383333Y-66292914D01*
X189383333Y-66292914D02*
X189288095Y-66340533D01*
X190192857Y-66054819D02*
X190859523Y-66054819D01*
X190859523Y-66054819D02*
X190430952Y-67054819D01*
X188881009Y-79933333D02*
X188881009Y-80266666D01*
X189404819Y-80266666D02*
X188404819Y-80266666D01*
X188404819Y-80266666D02*
X188404819Y-79790476D01*
X188881009Y-79076190D02*
X188928628Y-78933333D01*
X188928628Y-78933333D02*
X188976247Y-78885714D01*
X188976247Y-78885714D02*
X189071485Y-78838095D01*
X189071485Y-78838095D02*
X189214342Y-78838095D01*
X189214342Y-78838095D02*
X189309580Y-78885714D01*
X189309580Y-78885714D02*
X189357200Y-78933333D01*
X189357200Y-78933333D02*
X189404819Y-79028571D01*
X189404819Y-79028571D02*
X189404819Y-79409523D01*
X189404819Y-79409523D02*
X188404819Y-79409523D01*
X188404819Y-79409523D02*
X188404819Y-79076190D01*
X188404819Y-79076190D02*
X188452438Y-78980952D01*
X188452438Y-78980952D02*
X188500057Y-78933333D01*
X188500057Y-78933333D02*
X188595295Y-78885714D01*
X188595295Y-78885714D02*
X188690533Y-78885714D01*
X188690533Y-78885714D02*
X188785771Y-78933333D01*
X188785771Y-78933333D02*
X188833390Y-78980952D01*
X188833390Y-78980952D02*
X188881009Y-79076190D01*
X188881009Y-79076190D02*
X188881009Y-79409523D01*
X189404819Y-77885714D02*
X189404819Y-78457142D01*
X189404819Y-78171428D02*
X188404819Y-78171428D01*
X188404819Y-78171428D02*
X188547676Y-78266666D01*
X188547676Y-78266666D02*
X188642914Y-78361904D01*
X188642914Y-78361904D02*
X188690533Y-78457142D01*
X148923880Y-63948993D02*
X148590547Y-63472802D01*
X148352452Y-63948993D02*
X148352452Y-62948993D01*
X148352452Y-62948993D02*
X148733404Y-62948993D01*
X148733404Y-62948993D02*
X148828642Y-62996612D01*
X148828642Y-62996612D02*
X148876261Y-63044231D01*
X148876261Y-63044231D02*
X148923880Y-63139469D01*
X148923880Y-63139469D02*
X148923880Y-63282326D01*
X148923880Y-63282326D02*
X148876261Y-63377564D01*
X148876261Y-63377564D02*
X148828642Y-63425183D01*
X148828642Y-63425183D02*
X148733404Y-63472802D01*
X148733404Y-63472802D02*
X148352452Y-63472802D01*
X149876261Y-63948993D02*
X149304833Y-63948993D01*
X149590547Y-63948993D02*
X149590547Y-62948993D01*
X149590547Y-62948993D02*
X149495309Y-63091850D01*
X149495309Y-63091850D02*
X149400071Y-63187088D01*
X149400071Y-63187088D02*
X149304833Y-63234707D01*
X150209595Y-62948993D02*
X150828642Y-62948993D01*
X150828642Y-62948993D02*
X150495309Y-63329945D01*
X150495309Y-63329945D02*
X150638166Y-63329945D01*
X150638166Y-63329945D02*
X150733404Y-63377564D01*
X150733404Y-63377564D02*
X150781023Y-63425183D01*
X150781023Y-63425183D02*
X150828642Y-63520421D01*
X150828642Y-63520421D02*
X150828642Y-63758516D01*
X150828642Y-63758516D02*
X150781023Y-63853754D01*
X150781023Y-63853754D02*
X150733404Y-63901374D01*
X150733404Y-63901374D02*
X150638166Y-63948993D01*
X150638166Y-63948993D02*
X150352452Y-63948993D01*
X150352452Y-63948993D02*
X150257214Y-63901374D01*
X150257214Y-63901374D02*
X150209595Y-63853754D01*
X158917142Y-54594580D02*
X158869523Y-54642200D01*
X158869523Y-54642200D02*
X158726666Y-54689819D01*
X158726666Y-54689819D02*
X158631428Y-54689819D01*
X158631428Y-54689819D02*
X158488571Y-54642200D01*
X158488571Y-54642200D02*
X158393333Y-54546961D01*
X158393333Y-54546961D02*
X158345714Y-54451723D01*
X158345714Y-54451723D02*
X158298095Y-54261247D01*
X158298095Y-54261247D02*
X158298095Y-54118390D01*
X158298095Y-54118390D02*
X158345714Y-53927914D01*
X158345714Y-53927914D02*
X158393333Y-53832676D01*
X158393333Y-53832676D02*
X158488571Y-53737438D01*
X158488571Y-53737438D02*
X158631428Y-53689819D01*
X158631428Y-53689819D02*
X158726666Y-53689819D01*
X158726666Y-53689819D02*
X158869523Y-53737438D01*
X158869523Y-53737438D02*
X158917142Y-53785057D01*
X159869523Y-54689819D02*
X159298095Y-54689819D01*
X159583809Y-54689819D02*
X159583809Y-53689819D01*
X159583809Y-53689819D02*
X159488571Y-53832676D01*
X159488571Y-53832676D02*
X159393333Y-53927914D01*
X159393333Y-53927914D02*
X159298095Y-53975533D01*
X160202857Y-53689819D02*
X160821904Y-53689819D01*
X160821904Y-53689819D02*
X160488571Y-54070771D01*
X160488571Y-54070771D02*
X160631428Y-54070771D01*
X160631428Y-54070771D02*
X160726666Y-54118390D01*
X160726666Y-54118390D02*
X160774285Y-54166009D01*
X160774285Y-54166009D02*
X160821904Y-54261247D01*
X160821904Y-54261247D02*
X160821904Y-54499342D01*
X160821904Y-54499342D02*
X160774285Y-54594580D01*
X160774285Y-54594580D02*
X160726666Y-54642200D01*
X160726666Y-54642200D02*
X160631428Y-54689819D01*
X160631428Y-54689819D02*
X160345714Y-54689819D01*
X160345714Y-54689819D02*
X160250476Y-54642200D01*
X160250476Y-54642200D02*
X160202857Y-54594580D01*
X175040476Y-116854819D02*
X175040476Y-117569104D01*
X175040476Y-117569104D02*
X174992857Y-117711961D01*
X174992857Y-117711961D02*
X174897619Y-117807200D01*
X174897619Y-117807200D02*
X174754762Y-117854819D01*
X174754762Y-117854819D02*
X174659524Y-117854819D01*
X176040476Y-117854819D02*
X175469048Y-117854819D01*
X175754762Y-117854819D02*
X175754762Y-116854819D01*
X175754762Y-116854819D02*
X175659524Y-116997676D01*
X175659524Y-116997676D02*
X175564286Y-117092914D01*
X175564286Y-117092914D02*
X175469048Y-117140533D01*
X176659524Y-116854819D02*
X176754762Y-116854819D01*
X176754762Y-116854819D02*
X176850000Y-116902438D01*
X176850000Y-116902438D02*
X176897619Y-116950057D01*
X176897619Y-116950057D02*
X176945238Y-117045295D01*
X176945238Y-117045295D02*
X176992857Y-117235771D01*
X176992857Y-117235771D02*
X176992857Y-117473866D01*
X176992857Y-117473866D02*
X176945238Y-117664342D01*
X176945238Y-117664342D02*
X176897619Y-117759580D01*
X176897619Y-117759580D02*
X176850000Y-117807200D01*
X176850000Y-117807200D02*
X176754762Y-117854819D01*
X176754762Y-117854819D02*
X176659524Y-117854819D01*
X176659524Y-117854819D02*
X176564286Y-117807200D01*
X176564286Y-117807200D02*
X176516667Y-117759580D01*
X176516667Y-117759580D02*
X176469048Y-117664342D01*
X176469048Y-117664342D02*
X176421429Y-117473866D01*
X176421429Y-117473866D02*
X176421429Y-117235771D01*
X176421429Y-117235771D02*
X176469048Y-117045295D01*
X176469048Y-117045295D02*
X176516667Y-116950057D01*
X176516667Y-116950057D02*
X176564286Y-116902438D01*
X176564286Y-116902438D02*
X176659524Y-116854819D01*
X174064285Y-125409580D02*
X174016666Y-125457200D01*
X174016666Y-125457200D02*
X173873809Y-125504819D01*
X173873809Y-125504819D02*
X173778571Y-125504819D01*
X173778571Y-125504819D02*
X173635714Y-125457200D01*
X173635714Y-125457200D02*
X173540476Y-125361961D01*
X173540476Y-125361961D02*
X173492857Y-125266723D01*
X173492857Y-125266723D02*
X173445238Y-125076247D01*
X173445238Y-125076247D02*
X173445238Y-124933390D01*
X173445238Y-124933390D02*
X173492857Y-124742914D01*
X173492857Y-124742914D02*
X173540476Y-124647676D01*
X173540476Y-124647676D02*
X173635714Y-124552438D01*
X173635714Y-124552438D02*
X173778571Y-124504819D01*
X173778571Y-124504819D02*
X173873809Y-124504819D01*
X173873809Y-124504819D02*
X174016666Y-124552438D01*
X174016666Y-124552438D02*
X174064285Y-124600057D01*
X174492857Y-125504819D02*
X174492857Y-124504819D01*
X174921428Y-125504819D02*
X174921428Y-124981009D01*
X174921428Y-124981009D02*
X174873809Y-124885771D01*
X174873809Y-124885771D02*
X174778571Y-124838152D01*
X174778571Y-124838152D02*
X174635714Y-124838152D01*
X174635714Y-124838152D02*
X174540476Y-124885771D01*
X174540476Y-124885771D02*
X174492857Y-124933390D01*
X175826190Y-125504819D02*
X175826190Y-124981009D01*
X175826190Y-124981009D02*
X175778571Y-124885771D01*
X175778571Y-124885771D02*
X175683333Y-124838152D01*
X175683333Y-124838152D02*
X175492857Y-124838152D01*
X175492857Y-124838152D02*
X175397619Y-124885771D01*
X175826190Y-125457200D02*
X175730952Y-125504819D01*
X175730952Y-125504819D02*
X175492857Y-125504819D01*
X175492857Y-125504819D02*
X175397619Y-125457200D01*
X175397619Y-125457200D02*
X175350000Y-125361961D01*
X175350000Y-125361961D02*
X175350000Y-125266723D01*
X175350000Y-125266723D02*
X175397619Y-125171485D01*
X175397619Y-125171485D02*
X175492857Y-125123866D01*
X175492857Y-125123866D02*
X175730952Y-125123866D01*
X175730952Y-125123866D02*
X175826190Y-125076247D01*
X176302381Y-125504819D02*
X176302381Y-124838152D01*
X176302381Y-125028628D02*
X176350000Y-124933390D01*
X176350000Y-124933390D02*
X176397619Y-124885771D01*
X176397619Y-124885771D02*
X176492857Y-124838152D01*
X176492857Y-124838152D02*
X176588095Y-124838152D01*
X177350000Y-124838152D02*
X177350000Y-125647676D01*
X177350000Y-125647676D02*
X177302381Y-125742914D01*
X177302381Y-125742914D02*
X177254762Y-125790533D01*
X177254762Y-125790533D02*
X177159524Y-125838152D01*
X177159524Y-125838152D02*
X177016667Y-125838152D01*
X177016667Y-125838152D02*
X176921429Y-125790533D01*
X177350000Y-125457200D02*
X177254762Y-125504819D01*
X177254762Y-125504819D02*
X177064286Y-125504819D01*
X177064286Y-125504819D02*
X176969048Y-125457200D01*
X176969048Y-125457200D02*
X176921429Y-125409580D01*
X176921429Y-125409580D02*
X176873810Y-125314342D01*
X176873810Y-125314342D02*
X176873810Y-125028628D01*
X176873810Y-125028628D02*
X176921429Y-124933390D01*
X176921429Y-124933390D02*
X176969048Y-124885771D01*
X176969048Y-124885771D02*
X177064286Y-124838152D01*
X177064286Y-124838152D02*
X177254762Y-124838152D01*
X177254762Y-124838152D02*
X177350000Y-124885771D01*
X178207143Y-125457200D02*
X178111905Y-125504819D01*
X178111905Y-125504819D02*
X177921429Y-125504819D01*
X177921429Y-125504819D02*
X177826191Y-125457200D01*
X177826191Y-125457200D02*
X177778572Y-125361961D01*
X177778572Y-125361961D02*
X177778572Y-124981009D01*
X177778572Y-124981009D02*
X177826191Y-124885771D01*
X177826191Y-124885771D02*
X177921429Y-124838152D01*
X177921429Y-124838152D02*
X178111905Y-124838152D01*
X178111905Y-124838152D02*
X178207143Y-124885771D01*
X178207143Y-124885771D02*
X178254762Y-124981009D01*
X178254762Y-124981009D02*
X178254762Y-125076247D01*
X178254762Y-125076247D02*
X177778572Y-125171485D01*
X200354819Y-56511904D02*
X200354819Y-55940476D01*
X201354819Y-56226190D02*
X200354819Y-56226190D01*
X201354819Y-55607142D02*
X200354819Y-55607142D01*
X200354819Y-55607142D02*
X200354819Y-55226190D01*
X200354819Y-55226190D02*
X200402438Y-55130952D01*
X200402438Y-55130952D02*
X200450057Y-55083333D01*
X200450057Y-55083333D02*
X200545295Y-55035714D01*
X200545295Y-55035714D02*
X200688152Y-55035714D01*
X200688152Y-55035714D02*
X200783390Y-55083333D01*
X200783390Y-55083333D02*
X200831009Y-55130952D01*
X200831009Y-55130952D02*
X200878628Y-55226190D01*
X200878628Y-55226190D02*
X200878628Y-55607142D01*
X200688152Y-54178571D02*
X201354819Y-54178571D01*
X200307200Y-54416666D02*
X201021485Y-54654761D01*
X201021485Y-54654761D02*
X201021485Y-54035714D01*
X140666666Y-75454819D02*
X140666666Y-76169104D01*
X140666666Y-76169104D02*
X140619047Y-76311961D01*
X140619047Y-76311961D02*
X140523809Y-76407200D01*
X140523809Y-76407200D02*
X140380952Y-76454819D01*
X140380952Y-76454819D02*
X140285714Y-76454819D01*
X141190476Y-76454819D02*
X141380952Y-76454819D01*
X141380952Y-76454819D02*
X141476190Y-76407200D01*
X141476190Y-76407200D02*
X141523809Y-76359580D01*
X141523809Y-76359580D02*
X141619047Y-76216723D01*
X141619047Y-76216723D02*
X141666666Y-76026247D01*
X141666666Y-76026247D02*
X141666666Y-75645295D01*
X141666666Y-75645295D02*
X141619047Y-75550057D01*
X141619047Y-75550057D02*
X141571428Y-75502438D01*
X141571428Y-75502438D02*
X141476190Y-75454819D01*
X141476190Y-75454819D02*
X141285714Y-75454819D01*
X141285714Y-75454819D02*
X141190476Y-75502438D01*
X141190476Y-75502438D02*
X141142857Y-75550057D01*
X141142857Y-75550057D02*
X141095238Y-75645295D01*
X141095238Y-75645295D02*
X141095238Y-75883390D01*
X141095238Y-75883390D02*
X141142857Y-75978628D01*
X141142857Y-75978628D02*
X141190476Y-76026247D01*
X141190476Y-76026247D02*
X141285714Y-76073866D01*
X141285714Y-76073866D02*
X141476190Y-76073866D01*
X141476190Y-76073866D02*
X141571428Y-76026247D01*
X141571428Y-76026247D02*
X141619047Y-75978628D01*
X141619047Y-75978628D02*
X141666666Y-75883390D01*
X138004819Y-88250149D02*
X138814342Y-88250149D01*
X138814342Y-88250149D02*
X138909580Y-88202530D01*
X138909580Y-88202530D02*
X138957200Y-88154911D01*
X138957200Y-88154911D02*
X139004819Y-88059673D01*
X139004819Y-88059673D02*
X139004819Y-87869197D01*
X139004819Y-87869197D02*
X138957200Y-87773959D01*
X138957200Y-87773959D02*
X138909580Y-87726340D01*
X138909580Y-87726340D02*
X138814342Y-87678721D01*
X138814342Y-87678721D02*
X138004819Y-87678721D01*
X138719104Y-87250149D02*
X138719104Y-86773959D01*
X139004819Y-87345387D02*
X138004819Y-87012054D01*
X138004819Y-87012054D02*
X139004819Y-86678721D01*
X139004819Y-85773959D02*
X138528628Y-86107292D01*
X139004819Y-86345387D02*
X138004819Y-86345387D01*
X138004819Y-86345387D02*
X138004819Y-85964435D01*
X138004819Y-85964435D02*
X138052438Y-85869197D01*
X138052438Y-85869197D02*
X138100057Y-85821578D01*
X138100057Y-85821578D02*
X138195295Y-85773959D01*
X138195295Y-85773959D02*
X138338152Y-85773959D01*
X138338152Y-85773959D02*
X138433390Y-85821578D01*
X138433390Y-85821578D02*
X138481009Y-85869197D01*
X138481009Y-85869197D02*
X138528628Y-85964435D01*
X138528628Y-85964435D02*
X138528628Y-86345387D01*
X138004819Y-85488244D02*
X138004819Y-84916816D01*
X139004819Y-85202530D02*
X138004819Y-85202530D01*
X138481009Y-83488244D02*
X138528628Y-83345387D01*
X138528628Y-83345387D02*
X138576247Y-83297768D01*
X138576247Y-83297768D02*
X138671485Y-83250149D01*
X138671485Y-83250149D02*
X138814342Y-83250149D01*
X138814342Y-83250149D02*
X138909580Y-83297768D01*
X138909580Y-83297768D02*
X138957200Y-83345387D01*
X138957200Y-83345387D02*
X139004819Y-83440625D01*
X139004819Y-83440625D02*
X139004819Y-83821577D01*
X139004819Y-83821577D02*
X138004819Y-83821577D01*
X138004819Y-83821577D02*
X138004819Y-83488244D01*
X138004819Y-83488244D02*
X138052438Y-83393006D01*
X138052438Y-83393006D02*
X138100057Y-83345387D01*
X138100057Y-83345387D02*
X138195295Y-83297768D01*
X138195295Y-83297768D02*
X138290533Y-83297768D01*
X138290533Y-83297768D02*
X138385771Y-83345387D01*
X138385771Y-83345387D02*
X138433390Y-83393006D01*
X138433390Y-83393006D02*
X138481009Y-83488244D01*
X138481009Y-83488244D02*
X138481009Y-83821577D01*
X139004819Y-82821577D02*
X138338152Y-82821577D01*
X138528628Y-82821577D02*
X138433390Y-82773958D01*
X138433390Y-82773958D02*
X138385771Y-82726339D01*
X138385771Y-82726339D02*
X138338152Y-82631101D01*
X138338152Y-82631101D02*
X138338152Y-82535863D01*
X138957200Y-81821577D02*
X139004819Y-81916815D01*
X139004819Y-81916815D02*
X139004819Y-82107291D01*
X139004819Y-82107291D02*
X138957200Y-82202529D01*
X138957200Y-82202529D02*
X138861961Y-82250148D01*
X138861961Y-82250148D02*
X138481009Y-82250148D01*
X138481009Y-82250148D02*
X138385771Y-82202529D01*
X138385771Y-82202529D02*
X138338152Y-82107291D01*
X138338152Y-82107291D02*
X138338152Y-81916815D01*
X138338152Y-81916815D02*
X138385771Y-81821577D01*
X138385771Y-81821577D02*
X138481009Y-81773958D01*
X138481009Y-81773958D02*
X138576247Y-81773958D01*
X138576247Y-81773958D02*
X138671485Y-82250148D01*
X139004819Y-80916815D02*
X138481009Y-80916815D01*
X138481009Y-80916815D02*
X138385771Y-80964434D01*
X138385771Y-80964434D02*
X138338152Y-81059672D01*
X138338152Y-81059672D02*
X138338152Y-81250148D01*
X138338152Y-81250148D02*
X138385771Y-81345386D01*
X138957200Y-80916815D02*
X139004819Y-81012053D01*
X139004819Y-81012053D02*
X139004819Y-81250148D01*
X139004819Y-81250148D02*
X138957200Y-81345386D01*
X138957200Y-81345386D02*
X138861961Y-81393005D01*
X138861961Y-81393005D02*
X138766723Y-81393005D01*
X138766723Y-81393005D02*
X138671485Y-81345386D01*
X138671485Y-81345386D02*
X138623866Y-81250148D01*
X138623866Y-81250148D02*
X138623866Y-81012053D01*
X138623866Y-81012053D02*
X138576247Y-80916815D01*
X139004819Y-80440624D02*
X138004819Y-80440624D01*
X138623866Y-80345386D02*
X139004819Y-80059672D01*
X138338152Y-80059672D02*
X138719104Y-80440624D01*
X139004819Y-79488243D02*
X138957200Y-79583481D01*
X138957200Y-79583481D02*
X138909580Y-79631100D01*
X138909580Y-79631100D02*
X138814342Y-79678719D01*
X138814342Y-79678719D02*
X138528628Y-79678719D01*
X138528628Y-79678719D02*
X138433390Y-79631100D01*
X138433390Y-79631100D02*
X138385771Y-79583481D01*
X138385771Y-79583481D02*
X138338152Y-79488243D01*
X138338152Y-79488243D02*
X138338152Y-79345386D01*
X138338152Y-79345386D02*
X138385771Y-79250148D01*
X138385771Y-79250148D02*
X138433390Y-79202529D01*
X138433390Y-79202529D02*
X138528628Y-79154910D01*
X138528628Y-79154910D02*
X138814342Y-79154910D01*
X138814342Y-79154910D02*
X138909580Y-79202529D01*
X138909580Y-79202529D02*
X138957200Y-79250148D01*
X138957200Y-79250148D02*
X139004819Y-79345386D01*
X139004819Y-79345386D02*
X139004819Y-79488243D01*
X138338152Y-78297767D02*
X139004819Y-78297767D01*
X138338152Y-78726338D02*
X138861961Y-78726338D01*
X138861961Y-78726338D02*
X138957200Y-78678719D01*
X138957200Y-78678719D02*
X139004819Y-78583481D01*
X139004819Y-78583481D02*
X139004819Y-78440624D01*
X139004819Y-78440624D02*
X138957200Y-78345386D01*
X138957200Y-78345386D02*
X138909580Y-78297767D01*
X138338152Y-77964433D02*
X138338152Y-77583481D01*
X138004819Y-77821576D02*
X138861961Y-77821576D01*
X138861961Y-77821576D02*
X138957200Y-77773957D01*
X138957200Y-77773957D02*
X139004819Y-77678719D01*
X139004819Y-77678719D02*
X139004819Y-77583481D01*
X179583333Y-51349927D02*
X179535714Y-51397547D01*
X179535714Y-51397547D02*
X179392857Y-51445166D01*
X179392857Y-51445166D02*
X179297619Y-51445166D01*
X179297619Y-51445166D02*
X179154762Y-51397547D01*
X179154762Y-51397547D02*
X179059524Y-51302308D01*
X179059524Y-51302308D02*
X179011905Y-51207070D01*
X179011905Y-51207070D02*
X178964286Y-51016594D01*
X178964286Y-51016594D02*
X178964286Y-50873737D01*
X178964286Y-50873737D02*
X179011905Y-50683261D01*
X179011905Y-50683261D02*
X179059524Y-50588023D01*
X179059524Y-50588023D02*
X179154762Y-50492785D01*
X179154762Y-50492785D02*
X179297619Y-50445166D01*
X179297619Y-50445166D02*
X179392857Y-50445166D01*
X179392857Y-50445166D02*
X179535714Y-50492785D01*
X179535714Y-50492785D02*
X179583333Y-50540404D01*
X179964286Y-50540404D02*
X180011905Y-50492785D01*
X180011905Y-50492785D02*
X180107143Y-50445166D01*
X180107143Y-50445166D02*
X180345238Y-50445166D01*
X180345238Y-50445166D02*
X180440476Y-50492785D01*
X180440476Y-50492785D02*
X180488095Y-50540404D01*
X180488095Y-50540404D02*
X180535714Y-50635642D01*
X180535714Y-50635642D02*
X180535714Y-50730880D01*
X180535714Y-50730880D02*
X180488095Y-50873737D01*
X180488095Y-50873737D02*
X179916667Y-51445166D01*
X179916667Y-51445166D02*
X180535714Y-51445166D01*
X165437279Y-84581540D02*
X164961088Y-84914873D01*
X165437279Y-85152968D02*
X164437279Y-85152968D01*
X164437279Y-85152968D02*
X164437279Y-84772016D01*
X164437279Y-84772016D02*
X164484898Y-84676778D01*
X164484898Y-84676778D02*
X164532517Y-84629159D01*
X164532517Y-84629159D02*
X164627755Y-84581540D01*
X164627755Y-84581540D02*
X164770612Y-84581540D01*
X164770612Y-84581540D02*
X164865850Y-84629159D01*
X164865850Y-84629159D02*
X164913469Y-84676778D01*
X164913469Y-84676778D02*
X164961088Y-84772016D01*
X164961088Y-84772016D02*
X164961088Y-85152968D01*
X165437279Y-83629159D02*
X165437279Y-84200587D01*
X165437279Y-83914873D02*
X164437279Y-83914873D01*
X164437279Y-83914873D02*
X164580136Y-84010111D01*
X164580136Y-84010111D02*
X164675374Y-84105349D01*
X164675374Y-84105349D02*
X164722993Y-84200587D01*
X164437279Y-82724397D02*
X164437279Y-83200587D01*
X164437279Y-83200587D02*
X164913469Y-83248206D01*
X164913469Y-83248206D02*
X164865850Y-83200587D01*
X164865850Y-83200587D02*
X164818231Y-83105349D01*
X164818231Y-83105349D02*
X164818231Y-82867254D01*
X164818231Y-82867254D02*
X164865850Y-82772016D01*
X164865850Y-82772016D02*
X164913469Y-82724397D01*
X164913469Y-82724397D02*
X165008707Y-82676778D01*
X165008707Y-82676778D02*
X165246802Y-82676778D01*
X165246802Y-82676778D02*
X165342040Y-82724397D01*
X165342040Y-82724397D02*
X165389660Y-82772016D01*
X165389660Y-82772016D02*
X165437279Y-82867254D01*
X165437279Y-82867254D02*
X165437279Y-83105349D01*
X165437279Y-83105349D02*
X165389660Y-83200587D01*
X165389660Y-83200587D02*
X165342040Y-83248206D01*
X142066666Y-111254819D02*
X142066666Y-111969104D01*
X142066666Y-111969104D02*
X142019047Y-112111961D01*
X142019047Y-112111961D02*
X141923809Y-112207200D01*
X141923809Y-112207200D02*
X141780952Y-112254819D01*
X141780952Y-112254819D02*
X141685714Y-112254819D01*
X143019047Y-111254819D02*
X142542857Y-111254819D01*
X142542857Y-111254819D02*
X142495238Y-111731009D01*
X142495238Y-111731009D02*
X142542857Y-111683390D01*
X142542857Y-111683390D02*
X142638095Y-111635771D01*
X142638095Y-111635771D02*
X142876190Y-111635771D01*
X142876190Y-111635771D02*
X142971428Y-111683390D01*
X142971428Y-111683390D02*
X143019047Y-111731009D01*
X143019047Y-111731009D02*
X143066666Y-111826247D01*
X143066666Y-111826247D02*
X143066666Y-112064342D01*
X143066666Y-112064342D02*
X143019047Y-112159580D01*
X143019047Y-112159580D02*
X142971428Y-112207200D01*
X142971428Y-112207200D02*
X142876190Y-112254819D01*
X142876190Y-112254819D02*
X142638095Y-112254819D01*
X142638095Y-112254819D02*
X142542857Y-112207200D01*
X142542857Y-112207200D02*
X142495238Y-112159580D01*
X139304819Y-123142857D02*
X138304819Y-123142857D01*
X138400057Y-122714286D02*
X138352438Y-122666667D01*
X138352438Y-122666667D02*
X138304819Y-122571429D01*
X138304819Y-122571429D02*
X138304819Y-122333334D01*
X138304819Y-122333334D02*
X138352438Y-122238096D01*
X138352438Y-122238096D02*
X138400057Y-122190477D01*
X138400057Y-122190477D02*
X138495295Y-122142858D01*
X138495295Y-122142858D02*
X138590533Y-122142858D01*
X138590533Y-122142858D02*
X138733390Y-122190477D01*
X138733390Y-122190477D02*
X139304819Y-122761905D01*
X139304819Y-122761905D02*
X139304819Y-122142858D01*
X139209580Y-121142858D02*
X139257200Y-121190477D01*
X139257200Y-121190477D02*
X139304819Y-121333334D01*
X139304819Y-121333334D02*
X139304819Y-121428572D01*
X139304819Y-121428572D02*
X139257200Y-121571429D01*
X139257200Y-121571429D02*
X139161961Y-121666667D01*
X139161961Y-121666667D02*
X139066723Y-121714286D01*
X139066723Y-121714286D02*
X138876247Y-121761905D01*
X138876247Y-121761905D02*
X138733390Y-121761905D01*
X138733390Y-121761905D02*
X138542914Y-121714286D01*
X138542914Y-121714286D02*
X138447676Y-121666667D01*
X138447676Y-121666667D02*
X138352438Y-121571429D01*
X138352438Y-121571429D02*
X138304819Y-121428572D01*
X138304819Y-121428572D02*
X138304819Y-121333334D01*
X138304819Y-121333334D02*
X138352438Y-121190477D01*
X138352438Y-121190477D02*
X138400057Y-121142858D01*
X138781009Y-119619048D02*
X138828628Y-119476191D01*
X138828628Y-119476191D02*
X138876247Y-119428572D01*
X138876247Y-119428572D02*
X138971485Y-119380953D01*
X138971485Y-119380953D02*
X139114342Y-119380953D01*
X139114342Y-119380953D02*
X139209580Y-119428572D01*
X139209580Y-119428572D02*
X139257200Y-119476191D01*
X139257200Y-119476191D02*
X139304819Y-119571429D01*
X139304819Y-119571429D02*
X139304819Y-119952381D01*
X139304819Y-119952381D02*
X138304819Y-119952381D01*
X138304819Y-119952381D02*
X138304819Y-119619048D01*
X138304819Y-119619048D02*
X138352438Y-119523810D01*
X138352438Y-119523810D02*
X138400057Y-119476191D01*
X138400057Y-119476191D02*
X138495295Y-119428572D01*
X138495295Y-119428572D02*
X138590533Y-119428572D01*
X138590533Y-119428572D02*
X138685771Y-119476191D01*
X138685771Y-119476191D02*
X138733390Y-119523810D01*
X138733390Y-119523810D02*
X138781009Y-119619048D01*
X138781009Y-119619048D02*
X138781009Y-119952381D01*
X139304819Y-118952381D02*
X138638152Y-118952381D01*
X138828628Y-118952381D02*
X138733390Y-118904762D01*
X138733390Y-118904762D02*
X138685771Y-118857143D01*
X138685771Y-118857143D02*
X138638152Y-118761905D01*
X138638152Y-118761905D02*
X138638152Y-118666667D01*
X139257200Y-117952381D02*
X139304819Y-118047619D01*
X139304819Y-118047619D02*
X139304819Y-118238095D01*
X139304819Y-118238095D02*
X139257200Y-118333333D01*
X139257200Y-118333333D02*
X139161961Y-118380952D01*
X139161961Y-118380952D02*
X138781009Y-118380952D01*
X138781009Y-118380952D02*
X138685771Y-118333333D01*
X138685771Y-118333333D02*
X138638152Y-118238095D01*
X138638152Y-118238095D02*
X138638152Y-118047619D01*
X138638152Y-118047619D02*
X138685771Y-117952381D01*
X138685771Y-117952381D02*
X138781009Y-117904762D01*
X138781009Y-117904762D02*
X138876247Y-117904762D01*
X138876247Y-117904762D02*
X138971485Y-118380952D01*
X139304819Y-117047619D02*
X138781009Y-117047619D01*
X138781009Y-117047619D02*
X138685771Y-117095238D01*
X138685771Y-117095238D02*
X138638152Y-117190476D01*
X138638152Y-117190476D02*
X138638152Y-117380952D01*
X138638152Y-117380952D02*
X138685771Y-117476190D01*
X139257200Y-117047619D02*
X139304819Y-117142857D01*
X139304819Y-117142857D02*
X139304819Y-117380952D01*
X139304819Y-117380952D02*
X139257200Y-117476190D01*
X139257200Y-117476190D02*
X139161961Y-117523809D01*
X139161961Y-117523809D02*
X139066723Y-117523809D01*
X139066723Y-117523809D02*
X138971485Y-117476190D01*
X138971485Y-117476190D02*
X138923866Y-117380952D01*
X138923866Y-117380952D02*
X138923866Y-117142857D01*
X138923866Y-117142857D02*
X138876247Y-117047619D01*
X139304819Y-116571428D02*
X138304819Y-116571428D01*
X138923866Y-116476190D02*
X139304819Y-116190476D01*
X138638152Y-116190476D02*
X139019104Y-116571428D01*
X139304819Y-115619047D02*
X139257200Y-115714285D01*
X139257200Y-115714285D02*
X139209580Y-115761904D01*
X139209580Y-115761904D02*
X139114342Y-115809523D01*
X139114342Y-115809523D02*
X138828628Y-115809523D01*
X138828628Y-115809523D02*
X138733390Y-115761904D01*
X138733390Y-115761904D02*
X138685771Y-115714285D01*
X138685771Y-115714285D02*
X138638152Y-115619047D01*
X138638152Y-115619047D02*
X138638152Y-115476190D01*
X138638152Y-115476190D02*
X138685771Y-115380952D01*
X138685771Y-115380952D02*
X138733390Y-115333333D01*
X138733390Y-115333333D02*
X138828628Y-115285714D01*
X138828628Y-115285714D02*
X139114342Y-115285714D01*
X139114342Y-115285714D02*
X139209580Y-115333333D01*
X139209580Y-115333333D02*
X139257200Y-115380952D01*
X139257200Y-115380952D02*
X139304819Y-115476190D01*
X139304819Y-115476190D02*
X139304819Y-115619047D01*
X138638152Y-114428571D02*
X139304819Y-114428571D01*
X138638152Y-114857142D02*
X139161961Y-114857142D01*
X139161961Y-114857142D02*
X139257200Y-114809523D01*
X139257200Y-114809523D02*
X139304819Y-114714285D01*
X139304819Y-114714285D02*
X139304819Y-114571428D01*
X139304819Y-114571428D02*
X139257200Y-114476190D01*
X139257200Y-114476190D02*
X139209580Y-114428571D01*
X138638152Y-114095237D02*
X138638152Y-113714285D01*
X138304819Y-113952380D02*
X139161961Y-113952380D01*
X139161961Y-113952380D02*
X139257200Y-113904761D01*
X139257200Y-113904761D02*
X139304819Y-113809523D01*
X139304819Y-113809523D02*
X139304819Y-113714285D01*
X170020520Y-66547756D02*
X169270520Y-66547756D01*
X169270520Y-66547756D02*
X169806234Y-66297756D01*
X169806234Y-66297756D02*
X169270520Y-66047756D01*
X169270520Y-66047756D02*
X170020520Y-66047756D01*
X169949091Y-65262042D02*
X169984806Y-65297756D01*
X169984806Y-65297756D02*
X170020520Y-65404899D01*
X170020520Y-65404899D02*
X170020520Y-65476327D01*
X170020520Y-65476327D02*
X169984806Y-65583470D01*
X169984806Y-65583470D02*
X169913377Y-65654899D01*
X169913377Y-65654899D02*
X169841948Y-65690613D01*
X169841948Y-65690613D02*
X169699091Y-65726327D01*
X169699091Y-65726327D02*
X169591948Y-65726327D01*
X169591948Y-65726327D02*
X169449091Y-65690613D01*
X169449091Y-65690613D02*
X169377663Y-65654899D01*
X169377663Y-65654899D02*
X169306234Y-65583470D01*
X169306234Y-65583470D02*
X169270520Y-65476327D01*
X169270520Y-65476327D02*
X169270520Y-65404899D01*
X169270520Y-65404899D02*
X169306234Y-65297756D01*
X169306234Y-65297756D02*
X169341948Y-65262042D01*
X170020520Y-64940613D02*
X169270520Y-64940613D01*
X169270520Y-64940613D02*
X169270520Y-64654899D01*
X169270520Y-64654899D02*
X169306234Y-64583470D01*
X169306234Y-64583470D02*
X169341948Y-64547756D01*
X169341948Y-64547756D02*
X169413377Y-64512042D01*
X169413377Y-64512042D02*
X169520520Y-64512042D01*
X169520520Y-64512042D02*
X169591948Y-64547756D01*
X169591948Y-64547756D02*
X169627663Y-64583470D01*
X169627663Y-64583470D02*
X169663377Y-64654899D01*
X169663377Y-64654899D02*
X169663377Y-64940613D01*
X169270520Y-63869185D02*
X169270520Y-64012042D01*
X169270520Y-64012042D02*
X169306234Y-64083470D01*
X169306234Y-64083470D02*
X169341948Y-64119185D01*
X169341948Y-64119185D02*
X169449091Y-64190613D01*
X169449091Y-64190613D02*
X169591948Y-64226327D01*
X169591948Y-64226327D02*
X169877663Y-64226327D01*
X169877663Y-64226327D02*
X169949091Y-64190613D01*
X169949091Y-64190613D02*
X169984806Y-64154899D01*
X169984806Y-64154899D02*
X170020520Y-64083470D01*
X170020520Y-64083470D02*
X170020520Y-63940613D01*
X170020520Y-63940613D02*
X169984806Y-63869185D01*
X169984806Y-63869185D02*
X169949091Y-63833470D01*
X169949091Y-63833470D02*
X169877663Y-63797756D01*
X169877663Y-63797756D02*
X169699091Y-63797756D01*
X169699091Y-63797756D02*
X169627663Y-63833470D01*
X169627663Y-63833470D02*
X169591948Y-63869185D01*
X169591948Y-63869185D02*
X169556234Y-63940613D01*
X169556234Y-63940613D02*
X169556234Y-64083470D01*
X169556234Y-64083470D02*
X169591948Y-64154899D01*
X169591948Y-64154899D02*
X169627663Y-64190613D01*
X169627663Y-64190613D02*
X169699091Y-64226327D01*
X169270520Y-63333470D02*
X169270520Y-63262041D01*
X169270520Y-63262041D02*
X169306234Y-63190613D01*
X169306234Y-63190613D02*
X169341948Y-63154899D01*
X169341948Y-63154899D02*
X169413377Y-63119184D01*
X169413377Y-63119184D02*
X169556234Y-63083470D01*
X169556234Y-63083470D02*
X169734806Y-63083470D01*
X169734806Y-63083470D02*
X169877663Y-63119184D01*
X169877663Y-63119184D02*
X169949091Y-63154899D01*
X169949091Y-63154899D02*
X169984806Y-63190613D01*
X169984806Y-63190613D02*
X170020520Y-63262041D01*
X170020520Y-63262041D02*
X170020520Y-63333470D01*
X170020520Y-63333470D02*
X169984806Y-63404899D01*
X169984806Y-63404899D02*
X169949091Y-63440613D01*
X169949091Y-63440613D02*
X169877663Y-63476327D01*
X169877663Y-63476327D02*
X169734806Y-63512041D01*
X169734806Y-63512041D02*
X169556234Y-63512041D01*
X169556234Y-63512041D02*
X169413377Y-63476327D01*
X169413377Y-63476327D02*
X169341948Y-63440613D01*
X169341948Y-63440613D02*
X169306234Y-63404899D01*
X169306234Y-63404899D02*
X169270520Y-63333470D01*
X169270520Y-62619184D02*
X169270520Y-62547755D01*
X169270520Y-62547755D02*
X169306234Y-62476327D01*
X169306234Y-62476327D02*
X169341948Y-62440613D01*
X169341948Y-62440613D02*
X169413377Y-62404898D01*
X169413377Y-62404898D02*
X169556234Y-62369184D01*
X169556234Y-62369184D02*
X169734806Y-62369184D01*
X169734806Y-62369184D02*
X169877663Y-62404898D01*
X169877663Y-62404898D02*
X169949091Y-62440613D01*
X169949091Y-62440613D02*
X169984806Y-62476327D01*
X169984806Y-62476327D02*
X170020520Y-62547755D01*
X170020520Y-62547755D02*
X170020520Y-62619184D01*
X170020520Y-62619184D02*
X169984806Y-62690613D01*
X169984806Y-62690613D02*
X169949091Y-62726327D01*
X169949091Y-62726327D02*
X169877663Y-62762041D01*
X169877663Y-62762041D02*
X169734806Y-62797755D01*
X169734806Y-62797755D02*
X169556234Y-62797755D01*
X169556234Y-62797755D02*
X169413377Y-62762041D01*
X169413377Y-62762041D02*
X169341948Y-62726327D01*
X169341948Y-62726327D02*
X169306234Y-62690613D01*
X169306234Y-62690613D02*
X169270520Y-62619184D01*
X169341948Y-62083469D02*
X169306234Y-62047755D01*
X169306234Y-62047755D02*
X169270520Y-61976327D01*
X169270520Y-61976327D02*
X169270520Y-61797755D01*
X169270520Y-61797755D02*
X169306234Y-61726327D01*
X169306234Y-61726327D02*
X169341948Y-61690612D01*
X169341948Y-61690612D02*
X169413377Y-61654898D01*
X169413377Y-61654898D02*
X169484806Y-61654898D01*
X169484806Y-61654898D02*
X169591948Y-61690612D01*
X169591948Y-61690612D02*
X170020520Y-62119184D01*
X170020520Y-62119184D02*
X170020520Y-61654898D01*
X169734806Y-61333469D02*
X169734806Y-60762041D01*
X170020520Y-60404898D02*
X169270520Y-60404898D01*
X169234806Y-59512041D02*
X170199091Y-60154898D01*
X170020520Y-59262041D02*
X169270520Y-59262041D01*
X169270520Y-59262041D02*
X169270520Y-58976327D01*
X169270520Y-58976327D02*
X169306234Y-58904898D01*
X169306234Y-58904898D02*
X169341948Y-58869184D01*
X169341948Y-58869184D02*
X169413377Y-58833470D01*
X169413377Y-58833470D02*
X169520520Y-58833470D01*
X169520520Y-58833470D02*
X169591948Y-58869184D01*
X169591948Y-58869184D02*
X169627663Y-58904898D01*
X169627663Y-58904898D02*
X169663377Y-58976327D01*
X169663377Y-58976327D02*
X169663377Y-59262041D01*
X149216666Y-113404819D02*
X149216666Y-114119104D01*
X149216666Y-114119104D02*
X149169047Y-114261961D01*
X149169047Y-114261961D02*
X149073809Y-114357200D01*
X149073809Y-114357200D02*
X148930952Y-114404819D01*
X148930952Y-114404819D02*
X148835714Y-114404819D01*
X149597619Y-113404819D02*
X150216666Y-113404819D01*
X150216666Y-113404819D02*
X149883333Y-113785771D01*
X149883333Y-113785771D02*
X150026190Y-113785771D01*
X150026190Y-113785771D02*
X150121428Y-113833390D01*
X150121428Y-113833390D02*
X150169047Y-113881009D01*
X150169047Y-113881009D02*
X150216666Y-113976247D01*
X150216666Y-113976247D02*
X150216666Y-114214342D01*
X150216666Y-114214342D02*
X150169047Y-114309580D01*
X150169047Y-114309580D02*
X150121428Y-114357200D01*
X150121428Y-114357200D02*
X150026190Y-114404819D01*
X150026190Y-114404819D02*
X149740476Y-114404819D01*
X149740476Y-114404819D02*
X149645238Y-114357200D01*
X149645238Y-114357200D02*
X149597619Y-114309580D01*
X146131009Y-123004762D02*
X146178628Y-122861905D01*
X146178628Y-122861905D02*
X146226247Y-122814286D01*
X146226247Y-122814286D02*
X146321485Y-122766667D01*
X146321485Y-122766667D02*
X146464342Y-122766667D01*
X146464342Y-122766667D02*
X146559580Y-122814286D01*
X146559580Y-122814286D02*
X146607200Y-122861905D01*
X146607200Y-122861905D02*
X146654819Y-122957143D01*
X146654819Y-122957143D02*
X146654819Y-123338095D01*
X146654819Y-123338095D02*
X145654819Y-123338095D01*
X145654819Y-123338095D02*
X145654819Y-123004762D01*
X145654819Y-123004762D02*
X145702438Y-122909524D01*
X145702438Y-122909524D02*
X145750057Y-122861905D01*
X145750057Y-122861905D02*
X145845295Y-122814286D01*
X145845295Y-122814286D02*
X145940533Y-122814286D01*
X145940533Y-122814286D02*
X146035771Y-122861905D01*
X146035771Y-122861905D02*
X146083390Y-122909524D01*
X146083390Y-122909524D02*
X146131009Y-123004762D01*
X146131009Y-123004762D02*
X146131009Y-123338095D01*
X146654819Y-121909524D02*
X146131009Y-121909524D01*
X146131009Y-121909524D02*
X146035771Y-121957143D01*
X146035771Y-121957143D02*
X145988152Y-122052381D01*
X145988152Y-122052381D02*
X145988152Y-122242857D01*
X145988152Y-122242857D02*
X146035771Y-122338095D01*
X146607200Y-121909524D02*
X146654819Y-122004762D01*
X146654819Y-122004762D02*
X146654819Y-122242857D01*
X146654819Y-122242857D02*
X146607200Y-122338095D01*
X146607200Y-122338095D02*
X146511961Y-122385714D01*
X146511961Y-122385714D02*
X146416723Y-122385714D01*
X146416723Y-122385714D02*
X146321485Y-122338095D01*
X146321485Y-122338095D02*
X146273866Y-122242857D01*
X146273866Y-122242857D02*
X146273866Y-122004762D01*
X146273866Y-122004762D02*
X146226247Y-121909524D01*
X146654819Y-121433333D02*
X145988152Y-121433333D01*
X146178628Y-121433333D02*
X146083390Y-121385714D01*
X146083390Y-121385714D02*
X146035771Y-121338095D01*
X146035771Y-121338095D02*
X145988152Y-121242857D01*
X145988152Y-121242857D02*
X145988152Y-121147619D01*
X146607200Y-120099999D02*
X146654819Y-120004761D01*
X146654819Y-120004761D02*
X146654819Y-119814285D01*
X146654819Y-119814285D02*
X146607200Y-119719047D01*
X146607200Y-119719047D02*
X146511961Y-119671428D01*
X146511961Y-119671428D02*
X146464342Y-119671428D01*
X146464342Y-119671428D02*
X146369104Y-119719047D01*
X146369104Y-119719047D02*
X146321485Y-119814285D01*
X146321485Y-119814285D02*
X146321485Y-119957142D01*
X146321485Y-119957142D02*
X146273866Y-120052380D01*
X146273866Y-120052380D02*
X146178628Y-120099999D01*
X146178628Y-120099999D02*
X146131009Y-120099999D01*
X146131009Y-120099999D02*
X146035771Y-120052380D01*
X146035771Y-120052380D02*
X145988152Y-119957142D01*
X145988152Y-119957142D02*
X145988152Y-119814285D01*
X145988152Y-119814285D02*
X146035771Y-119719047D01*
X145988152Y-119338094D02*
X146654819Y-119147618D01*
X146654819Y-119147618D02*
X146178628Y-118957142D01*
X146178628Y-118957142D02*
X146654819Y-118766666D01*
X146654819Y-118766666D02*
X145988152Y-118576190D01*
X146654819Y-118195237D02*
X145988152Y-118195237D01*
X145654819Y-118195237D02*
X145702438Y-118242856D01*
X145702438Y-118242856D02*
X145750057Y-118195237D01*
X145750057Y-118195237D02*
X145702438Y-118147618D01*
X145702438Y-118147618D02*
X145654819Y-118195237D01*
X145654819Y-118195237D02*
X145750057Y-118195237D01*
X145988152Y-117861904D02*
X145988152Y-117480952D01*
X145654819Y-117719047D02*
X146511961Y-117719047D01*
X146511961Y-117719047D02*
X146607200Y-117671428D01*
X146607200Y-117671428D02*
X146654819Y-117576190D01*
X146654819Y-117576190D02*
X146654819Y-117480952D01*
X146607200Y-116719047D02*
X146654819Y-116814285D01*
X146654819Y-116814285D02*
X146654819Y-117004761D01*
X146654819Y-117004761D02*
X146607200Y-117099999D01*
X146607200Y-117099999D02*
X146559580Y-117147618D01*
X146559580Y-117147618D02*
X146464342Y-117195237D01*
X146464342Y-117195237D02*
X146178628Y-117195237D01*
X146178628Y-117195237D02*
X146083390Y-117147618D01*
X146083390Y-117147618D02*
X146035771Y-117099999D01*
X146035771Y-117099999D02*
X145988152Y-117004761D01*
X145988152Y-117004761D02*
X145988152Y-116814285D01*
X145988152Y-116814285D02*
X146035771Y-116719047D01*
X146654819Y-116290475D02*
X145654819Y-116290475D01*
X146654819Y-115861904D02*
X146131009Y-115861904D01*
X146131009Y-115861904D02*
X146035771Y-115909523D01*
X146035771Y-115909523D02*
X145988152Y-116004761D01*
X145988152Y-116004761D02*
X145988152Y-116147618D01*
X145988152Y-116147618D02*
X146035771Y-116242856D01*
X146035771Y-116242856D02*
X146083390Y-116290475D01*
X177942040Y-84355349D02*
X177989660Y-84402968D01*
X177989660Y-84402968D02*
X178037279Y-84545825D01*
X178037279Y-84545825D02*
X178037279Y-84641063D01*
X178037279Y-84641063D02*
X177989660Y-84783920D01*
X177989660Y-84783920D02*
X177894421Y-84879158D01*
X177894421Y-84879158D02*
X177799183Y-84926777D01*
X177799183Y-84926777D02*
X177608707Y-84974396D01*
X177608707Y-84974396D02*
X177465850Y-84974396D01*
X177465850Y-84974396D02*
X177275374Y-84926777D01*
X177275374Y-84926777D02*
X177180136Y-84879158D01*
X177180136Y-84879158D02*
X177084898Y-84783920D01*
X177084898Y-84783920D02*
X177037279Y-84641063D01*
X177037279Y-84641063D02*
X177037279Y-84545825D01*
X177037279Y-84545825D02*
X177084898Y-84402968D01*
X177084898Y-84402968D02*
X177132517Y-84355349D01*
X177037279Y-84022015D02*
X177037279Y-83402968D01*
X177037279Y-83402968D02*
X177418231Y-83736301D01*
X177418231Y-83736301D02*
X177418231Y-83593444D01*
X177418231Y-83593444D02*
X177465850Y-83498206D01*
X177465850Y-83498206D02*
X177513469Y-83450587D01*
X177513469Y-83450587D02*
X177608707Y-83402968D01*
X177608707Y-83402968D02*
X177846802Y-83402968D01*
X177846802Y-83402968D02*
X177942040Y-83450587D01*
X177942040Y-83450587D02*
X177989660Y-83498206D01*
X177989660Y-83498206D02*
X178037279Y-83593444D01*
X178037279Y-83593444D02*
X178037279Y-83879158D01*
X178037279Y-83879158D02*
X177989660Y-83974396D01*
X177989660Y-83974396D02*
X177942040Y-84022015D01*
X159223333Y-48129819D02*
X158890000Y-47653628D01*
X158651905Y-48129819D02*
X158651905Y-47129819D01*
X158651905Y-47129819D02*
X159032857Y-47129819D01*
X159032857Y-47129819D02*
X159128095Y-47177438D01*
X159128095Y-47177438D02*
X159175714Y-47225057D01*
X159175714Y-47225057D02*
X159223333Y-47320295D01*
X159223333Y-47320295D02*
X159223333Y-47463152D01*
X159223333Y-47463152D02*
X159175714Y-47558390D01*
X159175714Y-47558390D02*
X159128095Y-47606009D01*
X159128095Y-47606009D02*
X159032857Y-47653628D01*
X159032857Y-47653628D02*
X158651905Y-47653628D01*
X159699524Y-48129819D02*
X159890000Y-48129819D01*
X159890000Y-48129819D02*
X159985238Y-48082200D01*
X159985238Y-48082200D02*
X160032857Y-48034580D01*
X160032857Y-48034580D02*
X160128095Y-47891723D01*
X160128095Y-47891723D02*
X160175714Y-47701247D01*
X160175714Y-47701247D02*
X160175714Y-47320295D01*
X160175714Y-47320295D02*
X160128095Y-47225057D01*
X160128095Y-47225057D02*
X160080476Y-47177438D01*
X160080476Y-47177438D02*
X159985238Y-47129819D01*
X159985238Y-47129819D02*
X159794762Y-47129819D01*
X159794762Y-47129819D02*
X159699524Y-47177438D01*
X159699524Y-47177438D02*
X159651905Y-47225057D01*
X159651905Y-47225057D02*
X159604286Y-47320295D01*
X159604286Y-47320295D02*
X159604286Y-47558390D01*
X159604286Y-47558390D02*
X159651905Y-47653628D01*
X159651905Y-47653628D02*
X159699524Y-47701247D01*
X159699524Y-47701247D02*
X159794762Y-47748866D01*
X159794762Y-47748866D02*
X159985238Y-47748866D01*
X159985238Y-47748866D02*
X160080476Y-47701247D01*
X160080476Y-47701247D02*
X160128095Y-47653628D01*
X160128095Y-47653628D02*
X160175714Y-47558390D01*
X162242040Y-84355349D02*
X162289660Y-84402968D01*
X162289660Y-84402968D02*
X162337279Y-84545825D01*
X162337279Y-84545825D02*
X162337279Y-84641063D01*
X162337279Y-84641063D02*
X162289660Y-84783920D01*
X162289660Y-84783920D02*
X162194421Y-84879158D01*
X162194421Y-84879158D02*
X162099183Y-84926777D01*
X162099183Y-84926777D02*
X161908707Y-84974396D01*
X161908707Y-84974396D02*
X161765850Y-84974396D01*
X161765850Y-84974396D02*
X161575374Y-84926777D01*
X161575374Y-84926777D02*
X161480136Y-84879158D01*
X161480136Y-84879158D02*
X161384898Y-84783920D01*
X161384898Y-84783920D02*
X161337279Y-84641063D01*
X161337279Y-84641063D02*
X161337279Y-84545825D01*
X161337279Y-84545825D02*
X161384898Y-84402968D01*
X161384898Y-84402968D02*
X161432517Y-84355349D01*
X162337279Y-83879158D02*
X162337279Y-83688682D01*
X162337279Y-83688682D02*
X162289660Y-83593444D01*
X162289660Y-83593444D02*
X162242040Y-83545825D01*
X162242040Y-83545825D02*
X162099183Y-83450587D01*
X162099183Y-83450587D02*
X161908707Y-83402968D01*
X161908707Y-83402968D02*
X161527755Y-83402968D01*
X161527755Y-83402968D02*
X161432517Y-83450587D01*
X161432517Y-83450587D02*
X161384898Y-83498206D01*
X161384898Y-83498206D02*
X161337279Y-83593444D01*
X161337279Y-83593444D02*
X161337279Y-83783920D01*
X161337279Y-83783920D02*
X161384898Y-83879158D01*
X161384898Y-83879158D02*
X161432517Y-83926777D01*
X161432517Y-83926777D02*
X161527755Y-83974396D01*
X161527755Y-83974396D02*
X161765850Y-83974396D01*
X161765850Y-83974396D02*
X161861088Y-83926777D01*
X161861088Y-83926777D02*
X161908707Y-83879158D01*
X161908707Y-83879158D02*
X161956326Y-83783920D01*
X161956326Y-83783920D02*
X161956326Y-83593444D01*
X161956326Y-83593444D02*
X161908707Y-83498206D01*
X161908707Y-83498206D02*
X161861088Y-83450587D01*
X161861088Y-83450587D02*
X161765850Y-83402968D01*
X148922544Y-66811123D02*
X148589211Y-66334932D01*
X148351116Y-66811123D02*
X148351116Y-65811123D01*
X148351116Y-65811123D02*
X148732068Y-65811123D01*
X148732068Y-65811123D02*
X148827306Y-65858742D01*
X148827306Y-65858742D02*
X148874925Y-65906361D01*
X148874925Y-65906361D02*
X148922544Y-66001599D01*
X148922544Y-66001599D02*
X148922544Y-66144456D01*
X148922544Y-66144456D02*
X148874925Y-66239694D01*
X148874925Y-66239694D02*
X148827306Y-66287313D01*
X148827306Y-66287313D02*
X148732068Y-66334932D01*
X148732068Y-66334932D02*
X148351116Y-66334932D01*
X149874925Y-66811123D02*
X149303497Y-66811123D01*
X149589211Y-66811123D02*
X149589211Y-65811123D01*
X149589211Y-65811123D02*
X149493973Y-65953980D01*
X149493973Y-65953980D02*
X149398735Y-66049218D01*
X149398735Y-66049218D02*
X149303497Y-66096837D01*
X150255878Y-65906361D02*
X150303497Y-65858742D01*
X150303497Y-65858742D02*
X150398735Y-65811123D01*
X150398735Y-65811123D02*
X150636830Y-65811123D01*
X150636830Y-65811123D02*
X150732068Y-65858742D01*
X150732068Y-65858742D02*
X150779687Y-65906361D01*
X150779687Y-65906361D02*
X150827306Y-66001599D01*
X150827306Y-66001599D02*
X150827306Y-66096837D01*
X150827306Y-66096837D02*
X150779687Y-66239694D01*
X150779687Y-66239694D02*
X150208259Y-66811123D01*
X150208259Y-66811123D02*
X150827306Y-66811123D01*
X179583333Y-44609580D02*
X179535714Y-44657200D01*
X179535714Y-44657200D02*
X179392857Y-44704819D01*
X179392857Y-44704819D02*
X179297619Y-44704819D01*
X179297619Y-44704819D02*
X179154762Y-44657200D01*
X179154762Y-44657200D02*
X179059524Y-44561961D01*
X179059524Y-44561961D02*
X179011905Y-44466723D01*
X179011905Y-44466723D02*
X178964286Y-44276247D01*
X178964286Y-44276247D02*
X178964286Y-44133390D01*
X178964286Y-44133390D02*
X179011905Y-43942914D01*
X179011905Y-43942914D02*
X179059524Y-43847676D01*
X179059524Y-43847676D02*
X179154762Y-43752438D01*
X179154762Y-43752438D02*
X179297619Y-43704819D01*
X179297619Y-43704819D02*
X179392857Y-43704819D01*
X179392857Y-43704819D02*
X179535714Y-43752438D01*
X179535714Y-43752438D02*
X179583333Y-43800057D01*
X180535714Y-44704819D02*
X179964286Y-44704819D01*
X180250000Y-44704819D02*
X180250000Y-43704819D01*
X180250000Y-43704819D02*
X180154762Y-43847676D01*
X180154762Y-43847676D02*
X180059524Y-43942914D01*
X180059524Y-43942914D02*
X179964286Y-43990533D01*
X183757142Y-118759580D02*
X183709523Y-118807200D01*
X183709523Y-118807200D02*
X183566666Y-118854819D01*
X183566666Y-118854819D02*
X183471428Y-118854819D01*
X183471428Y-118854819D02*
X183328571Y-118807200D01*
X183328571Y-118807200D02*
X183233333Y-118711961D01*
X183233333Y-118711961D02*
X183185714Y-118616723D01*
X183185714Y-118616723D02*
X183138095Y-118426247D01*
X183138095Y-118426247D02*
X183138095Y-118283390D01*
X183138095Y-118283390D02*
X183185714Y-118092914D01*
X183185714Y-118092914D02*
X183233333Y-117997676D01*
X183233333Y-117997676D02*
X183328571Y-117902438D01*
X183328571Y-117902438D02*
X183471428Y-117854819D01*
X183471428Y-117854819D02*
X183566666Y-117854819D01*
X183566666Y-117854819D02*
X183709523Y-117902438D01*
X183709523Y-117902438D02*
X183757142Y-117950057D01*
X184138095Y-117950057D02*
X184185714Y-117902438D01*
X184185714Y-117902438D02*
X184280952Y-117854819D01*
X184280952Y-117854819D02*
X184519047Y-117854819D01*
X184519047Y-117854819D02*
X184614285Y-117902438D01*
X184614285Y-117902438D02*
X184661904Y-117950057D01*
X184661904Y-117950057D02*
X184709523Y-118045295D01*
X184709523Y-118045295D02*
X184709523Y-118140533D01*
X184709523Y-118140533D02*
X184661904Y-118283390D01*
X184661904Y-118283390D02*
X184090476Y-118854819D01*
X184090476Y-118854819D02*
X184709523Y-118854819D01*
X185090476Y-117950057D02*
X185138095Y-117902438D01*
X185138095Y-117902438D02*
X185233333Y-117854819D01*
X185233333Y-117854819D02*
X185471428Y-117854819D01*
X185471428Y-117854819D02*
X185566666Y-117902438D01*
X185566666Y-117902438D02*
X185614285Y-117950057D01*
X185614285Y-117950057D02*
X185661904Y-118045295D01*
X185661904Y-118045295D02*
X185661904Y-118140533D01*
X185661904Y-118140533D02*
X185614285Y-118283390D01*
X185614285Y-118283390D02*
X185042857Y-118854819D01*
X185042857Y-118854819D02*
X185661904Y-118854819D01*
X179212933Y-64009394D02*
X178879600Y-63533203D01*
X178641505Y-64009394D02*
X178641505Y-63009394D01*
X178641505Y-63009394D02*
X179022457Y-63009394D01*
X179022457Y-63009394D02*
X179117695Y-63057013D01*
X179117695Y-63057013D02*
X179165314Y-63104632D01*
X179165314Y-63104632D02*
X179212933Y-63199870D01*
X179212933Y-63199870D02*
X179212933Y-63342727D01*
X179212933Y-63342727D02*
X179165314Y-63437965D01*
X179165314Y-63437965D02*
X179117695Y-63485584D01*
X179117695Y-63485584D02*
X179022457Y-63533203D01*
X179022457Y-63533203D02*
X178641505Y-63533203D01*
X180165314Y-64009394D02*
X179593886Y-64009394D01*
X179879600Y-64009394D02*
X179879600Y-63009394D01*
X179879600Y-63009394D02*
X179784362Y-63152251D01*
X179784362Y-63152251D02*
X179689124Y-63247489D01*
X179689124Y-63247489D02*
X179593886Y-63295108D01*
X180641505Y-64009394D02*
X180831981Y-64009394D01*
X180831981Y-64009394D02*
X180927219Y-63961775D01*
X180927219Y-63961775D02*
X180974838Y-63914155D01*
X180974838Y-63914155D02*
X181070076Y-63771298D01*
X181070076Y-63771298D02*
X181117695Y-63580822D01*
X181117695Y-63580822D02*
X181117695Y-63199870D01*
X181117695Y-63199870D02*
X181070076Y-63104632D01*
X181070076Y-63104632D02*
X181022457Y-63057013D01*
X181022457Y-63057013D02*
X180927219Y-63009394D01*
X180927219Y-63009394D02*
X180736743Y-63009394D01*
X180736743Y-63009394D02*
X180641505Y-63057013D01*
X180641505Y-63057013D02*
X180593886Y-63104632D01*
X180593886Y-63104632D02*
X180546267Y-63199870D01*
X180546267Y-63199870D02*
X180546267Y-63437965D01*
X180546267Y-63437965D02*
X180593886Y-63533203D01*
X180593886Y-63533203D02*
X180641505Y-63580822D01*
X180641505Y-63580822D02*
X180736743Y-63628441D01*
X180736743Y-63628441D02*
X180927219Y-63628441D01*
X180927219Y-63628441D02*
X181022457Y-63580822D01*
X181022457Y-63580822D02*
X181070076Y-63533203D01*
X181070076Y-63533203D02*
X181117695Y-63437965D01*
X141266666Y-52404819D02*
X141266666Y-53119104D01*
X141266666Y-53119104D02*
X141219047Y-53261961D01*
X141219047Y-53261961D02*
X141123809Y-53357200D01*
X141123809Y-53357200D02*
X140980952Y-53404819D01*
X140980952Y-53404819D02*
X140885714Y-53404819D01*
X142171428Y-52404819D02*
X141980952Y-52404819D01*
X141980952Y-52404819D02*
X141885714Y-52452438D01*
X141885714Y-52452438D02*
X141838095Y-52500057D01*
X141838095Y-52500057D02*
X141742857Y-52642914D01*
X141742857Y-52642914D02*
X141695238Y-52833390D01*
X141695238Y-52833390D02*
X141695238Y-53214342D01*
X141695238Y-53214342D02*
X141742857Y-53309580D01*
X141742857Y-53309580D02*
X141790476Y-53357200D01*
X141790476Y-53357200D02*
X141885714Y-53404819D01*
X141885714Y-53404819D02*
X142076190Y-53404819D01*
X142076190Y-53404819D02*
X142171428Y-53357200D01*
X142171428Y-53357200D02*
X142219047Y-53309580D01*
X142219047Y-53309580D02*
X142266666Y-53214342D01*
X142266666Y-53214342D02*
X142266666Y-52976247D01*
X142266666Y-52976247D02*
X142219047Y-52881009D01*
X142219047Y-52881009D02*
X142171428Y-52833390D01*
X142171428Y-52833390D02*
X142076190Y-52785771D01*
X142076190Y-52785771D02*
X141885714Y-52785771D01*
X141885714Y-52785771D02*
X141790476Y-52833390D01*
X141790476Y-52833390D02*
X141742857Y-52881009D01*
X141742857Y-52881009D02*
X141695238Y-52976247D01*
X138469104Y-53278571D02*
X138469104Y-52802381D01*
X138754819Y-53373809D02*
X137754819Y-53040476D01*
X137754819Y-53040476D02*
X138754819Y-52707143D01*
X138088152Y-52373809D02*
X138754819Y-52373809D01*
X138183390Y-52373809D02*
X138135771Y-52326190D01*
X138135771Y-52326190D02*
X138088152Y-52230952D01*
X138088152Y-52230952D02*
X138088152Y-52088095D01*
X138088152Y-52088095D02*
X138135771Y-51992857D01*
X138135771Y-51992857D02*
X138231009Y-51945238D01*
X138231009Y-51945238D02*
X138754819Y-51945238D01*
X138754819Y-51040476D02*
X138231009Y-51040476D01*
X138231009Y-51040476D02*
X138135771Y-51088095D01*
X138135771Y-51088095D02*
X138088152Y-51183333D01*
X138088152Y-51183333D02*
X138088152Y-51373809D01*
X138088152Y-51373809D02*
X138135771Y-51469047D01*
X138707200Y-51040476D02*
X138754819Y-51135714D01*
X138754819Y-51135714D02*
X138754819Y-51373809D01*
X138754819Y-51373809D02*
X138707200Y-51469047D01*
X138707200Y-51469047D02*
X138611961Y-51516666D01*
X138611961Y-51516666D02*
X138516723Y-51516666D01*
X138516723Y-51516666D02*
X138421485Y-51469047D01*
X138421485Y-51469047D02*
X138373866Y-51373809D01*
X138373866Y-51373809D02*
X138373866Y-51135714D01*
X138373866Y-51135714D02*
X138326247Y-51040476D01*
X138754819Y-50421428D02*
X138707200Y-50516666D01*
X138707200Y-50516666D02*
X138611961Y-50564285D01*
X138611961Y-50564285D02*
X137754819Y-50564285D01*
X138754819Y-49897618D02*
X138707200Y-49992856D01*
X138707200Y-49992856D02*
X138659580Y-50040475D01*
X138659580Y-50040475D02*
X138564342Y-50088094D01*
X138564342Y-50088094D02*
X138278628Y-50088094D01*
X138278628Y-50088094D02*
X138183390Y-50040475D01*
X138183390Y-50040475D02*
X138135771Y-49992856D01*
X138135771Y-49992856D02*
X138088152Y-49897618D01*
X138088152Y-49897618D02*
X138088152Y-49754761D01*
X138088152Y-49754761D02*
X138135771Y-49659523D01*
X138135771Y-49659523D02*
X138183390Y-49611904D01*
X138183390Y-49611904D02*
X138278628Y-49564285D01*
X138278628Y-49564285D02*
X138564342Y-49564285D01*
X138564342Y-49564285D02*
X138659580Y-49611904D01*
X138659580Y-49611904D02*
X138707200Y-49659523D01*
X138707200Y-49659523D02*
X138754819Y-49754761D01*
X138754819Y-49754761D02*
X138754819Y-49897618D01*
X138088152Y-48707142D02*
X138897676Y-48707142D01*
X138897676Y-48707142D02*
X138992914Y-48754761D01*
X138992914Y-48754761D02*
X139040533Y-48802380D01*
X139040533Y-48802380D02*
X139088152Y-48897618D01*
X139088152Y-48897618D02*
X139088152Y-49040475D01*
X139088152Y-49040475D02*
X139040533Y-49135713D01*
X138707200Y-48707142D02*
X138754819Y-48802380D01*
X138754819Y-48802380D02*
X138754819Y-48992856D01*
X138754819Y-48992856D02*
X138707200Y-49088094D01*
X138707200Y-49088094D02*
X138659580Y-49135713D01*
X138659580Y-49135713D02*
X138564342Y-49183332D01*
X138564342Y-49183332D02*
X138278628Y-49183332D01*
X138278628Y-49183332D02*
X138183390Y-49135713D01*
X138183390Y-49135713D02*
X138135771Y-49088094D01*
X138135771Y-49088094D02*
X138088152Y-48992856D01*
X138088152Y-48992856D02*
X138088152Y-48802380D01*
X138088152Y-48802380D02*
X138135771Y-48707142D01*
X138754819Y-47469046D02*
X137754819Y-47469046D01*
X138088152Y-46992856D02*
X138754819Y-46992856D01*
X138183390Y-46992856D02*
X138135771Y-46945237D01*
X138135771Y-46945237D02*
X138088152Y-46849999D01*
X138088152Y-46849999D02*
X138088152Y-46707142D01*
X138088152Y-46707142D02*
X138135771Y-46611904D01*
X138135771Y-46611904D02*
X138231009Y-46564285D01*
X138231009Y-46564285D02*
X138754819Y-46564285D01*
X138088152Y-46088094D02*
X139088152Y-46088094D01*
X138135771Y-46088094D02*
X138088152Y-45992856D01*
X138088152Y-45992856D02*
X138088152Y-45802380D01*
X138088152Y-45802380D02*
X138135771Y-45707142D01*
X138135771Y-45707142D02*
X138183390Y-45659523D01*
X138183390Y-45659523D02*
X138278628Y-45611904D01*
X138278628Y-45611904D02*
X138564342Y-45611904D01*
X138564342Y-45611904D02*
X138659580Y-45659523D01*
X138659580Y-45659523D02*
X138707200Y-45707142D01*
X138707200Y-45707142D02*
X138754819Y-45802380D01*
X138754819Y-45802380D02*
X138754819Y-45992856D01*
X138754819Y-45992856D02*
X138707200Y-46088094D01*
X138088152Y-44754761D02*
X138754819Y-44754761D01*
X138088152Y-45183332D02*
X138611961Y-45183332D01*
X138611961Y-45183332D02*
X138707200Y-45135713D01*
X138707200Y-45135713D02*
X138754819Y-45040475D01*
X138754819Y-45040475D02*
X138754819Y-44897618D01*
X138754819Y-44897618D02*
X138707200Y-44802380D01*
X138707200Y-44802380D02*
X138659580Y-44754761D01*
X138088152Y-44421427D02*
X138088152Y-44040475D01*
X137754819Y-44278570D02*
X138611961Y-44278570D01*
X138611961Y-44278570D02*
X138707200Y-44230951D01*
X138707200Y-44230951D02*
X138754819Y-44135713D01*
X138754819Y-44135713D02*
X138754819Y-44040475D01*
X137850057Y-42992855D02*
X137802438Y-42945236D01*
X137802438Y-42945236D02*
X137754819Y-42849998D01*
X137754819Y-42849998D02*
X137754819Y-42611903D01*
X137754819Y-42611903D02*
X137802438Y-42516665D01*
X137802438Y-42516665D02*
X137850057Y-42469046D01*
X137850057Y-42469046D02*
X137945295Y-42421427D01*
X137945295Y-42421427D02*
X138040533Y-42421427D01*
X138040533Y-42421427D02*
X138183390Y-42469046D01*
X138183390Y-42469046D02*
X138754819Y-43040474D01*
X138754819Y-43040474D02*
X138754819Y-42421427D01*
X196416666Y-57754819D02*
X196416666Y-58469104D01*
X196416666Y-58469104D02*
X196369047Y-58611961D01*
X196369047Y-58611961D02*
X196273809Y-58707200D01*
X196273809Y-58707200D02*
X196130952Y-58754819D01*
X196130952Y-58754819D02*
X196035714Y-58754819D01*
X197035714Y-58183390D02*
X196940476Y-58135771D01*
X196940476Y-58135771D02*
X196892857Y-58088152D01*
X196892857Y-58088152D02*
X196845238Y-57992914D01*
X196845238Y-57992914D02*
X196845238Y-57945295D01*
X196845238Y-57945295D02*
X196892857Y-57850057D01*
X196892857Y-57850057D02*
X196940476Y-57802438D01*
X196940476Y-57802438D02*
X197035714Y-57754819D01*
X197035714Y-57754819D02*
X197226190Y-57754819D01*
X197226190Y-57754819D02*
X197321428Y-57802438D01*
X197321428Y-57802438D02*
X197369047Y-57850057D01*
X197369047Y-57850057D02*
X197416666Y-57945295D01*
X197416666Y-57945295D02*
X197416666Y-57992914D01*
X197416666Y-57992914D02*
X197369047Y-58088152D01*
X197369047Y-58088152D02*
X197321428Y-58135771D01*
X197321428Y-58135771D02*
X197226190Y-58183390D01*
X197226190Y-58183390D02*
X197035714Y-58183390D01*
X197035714Y-58183390D02*
X196940476Y-58231009D01*
X196940476Y-58231009D02*
X196892857Y-58278628D01*
X196892857Y-58278628D02*
X196845238Y-58373866D01*
X196845238Y-58373866D02*
X196845238Y-58564342D01*
X196845238Y-58564342D02*
X196892857Y-58659580D01*
X196892857Y-58659580D02*
X196940476Y-58707200D01*
X196940476Y-58707200D02*
X197035714Y-58754819D01*
X197035714Y-58754819D02*
X197226190Y-58754819D01*
X197226190Y-58754819D02*
X197321428Y-58707200D01*
X197321428Y-58707200D02*
X197369047Y-58659580D01*
X197369047Y-58659580D02*
X197416666Y-58564342D01*
X197416666Y-58564342D02*
X197416666Y-58373866D01*
X197416666Y-58373866D02*
X197369047Y-58278628D01*
X197369047Y-58278628D02*
X197321428Y-58231009D01*
X197321428Y-58231009D02*
X197226190Y-58183390D01*
X201269104Y-69328571D02*
X201269104Y-68852381D01*
X201554819Y-69423809D02*
X200554819Y-69090476D01*
X200554819Y-69090476D02*
X201554819Y-68757143D01*
X200888152Y-68423809D02*
X201554819Y-68423809D01*
X200983390Y-68423809D02*
X200935771Y-68376190D01*
X200935771Y-68376190D02*
X200888152Y-68280952D01*
X200888152Y-68280952D02*
X200888152Y-68138095D01*
X200888152Y-68138095D02*
X200935771Y-68042857D01*
X200935771Y-68042857D02*
X201031009Y-67995238D01*
X201031009Y-67995238D02*
X201554819Y-67995238D01*
X201554819Y-67090476D02*
X201031009Y-67090476D01*
X201031009Y-67090476D02*
X200935771Y-67138095D01*
X200935771Y-67138095D02*
X200888152Y-67233333D01*
X200888152Y-67233333D02*
X200888152Y-67423809D01*
X200888152Y-67423809D02*
X200935771Y-67519047D01*
X201507200Y-67090476D02*
X201554819Y-67185714D01*
X201554819Y-67185714D02*
X201554819Y-67423809D01*
X201554819Y-67423809D02*
X201507200Y-67519047D01*
X201507200Y-67519047D02*
X201411961Y-67566666D01*
X201411961Y-67566666D02*
X201316723Y-67566666D01*
X201316723Y-67566666D02*
X201221485Y-67519047D01*
X201221485Y-67519047D02*
X201173866Y-67423809D01*
X201173866Y-67423809D02*
X201173866Y-67185714D01*
X201173866Y-67185714D02*
X201126247Y-67090476D01*
X201554819Y-66471428D02*
X201507200Y-66566666D01*
X201507200Y-66566666D02*
X201411961Y-66614285D01*
X201411961Y-66614285D02*
X200554819Y-66614285D01*
X201554819Y-65947618D02*
X201507200Y-66042856D01*
X201507200Y-66042856D02*
X201459580Y-66090475D01*
X201459580Y-66090475D02*
X201364342Y-66138094D01*
X201364342Y-66138094D02*
X201078628Y-66138094D01*
X201078628Y-66138094D02*
X200983390Y-66090475D01*
X200983390Y-66090475D02*
X200935771Y-66042856D01*
X200935771Y-66042856D02*
X200888152Y-65947618D01*
X200888152Y-65947618D02*
X200888152Y-65804761D01*
X200888152Y-65804761D02*
X200935771Y-65709523D01*
X200935771Y-65709523D02*
X200983390Y-65661904D01*
X200983390Y-65661904D02*
X201078628Y-65614285D01*
X201078628Y-65614285D02*
X201364342Y-65614285D01*
X201364342Y-65614285D02*
X201459580Y-65661904D01*
X201459580Y-65661904D02*
X201507200Y-65709523D01*
X201507200Y-65709523D02*
X201554819Y-65804761D01*
X201554819Y-65804761D02*
X201554819Y-65947618D01*
X200888152Y-64757142D02*
X201697676Y-64757142D01*
X201697676Y-64757142D02*
X201792914Y-64804761D01*
X201792914Y-64804761D02*
X201840533Y-64852380D01*
X201840533Y-64852380D02*
X201888152Y-64947618D01*
X201888152Y-64947618D02*
X201888152Y-65090475D01*
X201888152Y-65090475D02*
X201840533Y-65185713D01*
X201507200Y-64757142D02*
X201554819Y-64852380D01*
X201554819Y-64852380D02*
X201554819Y-65042856D01*
X201554819Y-65042856D02*
X201507200Y-65138094D01*
X201507200Y-65138094D02*
X201459580Y-65185713D01*
X201459580Y-65185713D02*
X201364342Y-65233332D01*
X201364342Y-65233332D02*
X201078628Y-65233332D01*
X201078628Y-65233332D02*
X200983390Y-65185713D01*
X200983390Y-65185713D02*
X200935771Y-65138094D01*
X200935771Y-65138094D02*
X200888152Y-65042856D01*
X200888152Y-65042856D02*
X200888152Y-64852380D01*
X200888152Y-64852380D02*
X200935771Y-64757142D01*
X201554819Y-63519046D02*
X200554819Y-63519046D01*
X200888152Y-63042856D02*
X201554819Y-63042856D01*
X200983390Y-63042856D02*
X200935771Y-62995237D01*
X200935771Y-62995237D02*
X200888152Y-62899999D01*
X200888152Y-62899999D02*
X200888152Y-62757142D01*
X200888152Y-62757142D02*
X200935771Y-62661904D01*
X200935771Y-62661904D02*
X201031009Y-62614285D01*
X201031009Y-62614285D02*
X201554819Y-62614285D01*
X200888152Y-62138094D02*
X201888152Y-62138094D01*
X200935771Y-62138094D02*
X200888152Y-62042856D01*
X200888152Y-62042856D02*
X200888152Y-61852380D01*
X200888152Y-61852380D02*
X200935771Y-61757142D01*
X200935771Y-61757142D02*
X200983390Y-61709523D01*
X200983390Y-61709523D02*
X201078628Y-61661904D01*
X201078628Y-61661904D02*
X201364342Y-61661904D01*
X201364342Y-61661904D02*
X201459580Y-61709523D01*
X201459580Y-61709523D02*
X201507200Y-61757142D01*
X201507200Y-61757142D02*
X201554819Y-61852380D01*
X201554819Y-61852380D02*
X201554819Y-62042856D01*
X201554819Y-62042856D02*
X201507200Y-62138094D01*
X200888152Y-60804761D02*
X201554819Y-60804761D01*
X200888152Y-61233332D02*
X201411961Y-61233332D01*
X201411961Y-61233332D02*
X201507200Y-61185713D01*
X201507200Y-61185713D02*
X201554819Y-61090475D01*
X201554819Y-61090475D02*
X201554819Y-60947618D01*
X201554819Y-60947618D02*
X201507200Y-60852380D01*
X201507200Y-60852380D02*
X201459580Y-60804761D01*
X200888152Y-60471427D02*
X200888152Y-60090475D01*
X200554819Y-60328570D02*
X201411961Y-60328570D01*
X201411961Y-60328570D02*
X201507200Y-60280951D01*
X201507200Y-60280951D02*
X201554819Y-60185713D01*
X201554819Y-60185713D02*
X201554819Y-60090475D01*
X200888152Y-58566665D02*
X201554819Y-58566665D01*
X200507200Y-58804760D02*
X201221485Y-59042855D01*
X201221485Y-59042855D02*
X201221485Y-58423808D01*
X179693333Y-48365707D02*
X179360000Y-47889516D01*
X179121905Y-48365707D02*
X179121905Y-47365707D01*
X179121905Y-47365707D02*
X179502857Y-47365707D01*
X179502857Y-47365707D02*
X179598095Y-47413326D01*
X179598095Y-47413326D02*
X179645714Y-47460945D01*
X179645714Y-47460945D02*
X179693333Y-47556183D01*
X179693333Y-47556183D02*
X179693333Y-47699040D01*
X179693333Y-47699040D02*
X179645714Y-47794278D01*
X179645714Y-47794278D02*
X179598095Y-47841897D01*
X179598095Y-47841897D02*
X179502857Y-47889516D01*
X179502857Y-47889516D02*
X179121905Y-47889516D01*
X180550476Y-47699040D02*
X180550476Y-48365707D01*
X180312381Y-47318088D02*
X180074286Y-48032373D01*
X180074286Y-48032373D02*
X180693333Y-48032373D01*
X195890243Y-101384674D02*
X196699766Y-101384674D01*
X196699766Y-101384674D02*
X196795004Y-101337055D01*
X196795004Y-101337055D02*
X196842624Y-101289436D01*
X196842624Y-101289436D02*
X196890243Y-101194198D01*
X196890243Y-101194198D02*
X196890243Y-101003722D01*
X196890243Y-101003722D02*
X196842624Y-100908484D01*
X196842624Y-100908484D02*
X196795004Y-100860865D01*
X196795004Y-100860865D02*
X196699766Y-100813246D01*
X196699766Y-100813246D02*
X195890243Y-100813246D01*
X196890243Y-99813246D02*
X196890243Y-100384674D01*
X196890243Y-100098960D02*
X195890243Y-100098960D01*
X195890243Y-100098960D02*
X196033100Y-100194198D01*
X196033100Y-100194198D02*
X196128338Y-100289436D01*
X196128338Y-100289436D02*
X196175957Y-100384674D01*
X181087279Y-84831540D02*
X180611088Y-85164873D01*
X181087279Y-85402968D02*
X180087279Y-85402968D01*
X180087279Y-85402968D02*
X180087279Y-85022016D01*
X180087279Y-85022016D02*
X180134898Y-84926778D01*
X180134898Y-84926778D02*
X180182517Y-84879159D01*
X180182517Y-84879159D02*
X180277755Y-84831540D01*
X180277755Y-84831540D02*
X180420612Y-84831540D01*
X180420612Y-84831540D02*
X180515850Y-84879159D01*
X180515850Y-84879159D02*
X180563469Y-84926778D01*
X180563469Y-84926778D02*
X180611088Y-85022016D01*
X180611088Y-85022016D02*
X180611088Y-85402968D01*
X180182517Y-84450587D02*
X180134898Y-84402968D01*
X180134898Y-84402968D02*
X180087279Y-84307730D01*
X180087279Y-84307730D02*
X180087279Y-84069635D01*
X180087279Y-84069635D02*
X180134898Y-83974397D01*
X180134898Y-83974397D02*
X180182517Y-83926778D01*
X180182517Y-83926778D02*
X180277755Y-83879159D01*
X180277755Y-83879159D02*
X180372993Y-83879159D01*
X180372993Y-83879159D02*
X180515850Y-83926778D01*
X180515850Y-83926778D02*
X181087279Y-84498206D01*
X181087279Y-84498206D02*
X181087279Y-83879159D01*
X180087279Y-83260111D02*
X180087279Y-83164873D01*
X180087279Y-83164873D02*
X180134898Y-83069635D01*
X180134898Y-83069635D02*
X180182517Y-83022016D01*
X180182517Y-83022016D02*
X180277755Y-82974397D01*
X180277755Y-82974397D02*
X180468231Y-82926778D01*
X180468231Y-82926778D02*
X180706326Y-82926778D01*
X180706326Y-82926778D02*
X180896802Y-82974397D01*
X180896802Y-82974397D02*
X180992040Y-83022016D01*
X180992040Y-83022016D02*
X181039660Y-83069635D01*
X181039660Y-83069635D02*
X181087279Y-83164873D01*
X181087279Y-83164873D02*
X181087279Y-83260111D01*
X181087279Y-83260111D02*
X181039660Y-83355349D01*
X181039660Y-83355349D02*
X180992040Y-83402968D01*
X180992040Y-83402968D02*
X180896802Y-83450587D01*
X180896802Y-83450587D02*
X180706326Y-83498206D01*
X180706326Y-83498206D02*
X180468231Y-83498206D01*
X180468231Y-83498206D02*
X180277755Y-83450587D01*
X180277755Y-83450587D02*
X180182517Y-83402968D01*
X180182517Y-83402968D02*
X180134898Y-83355349D01*
X180134898Y-83355349D02*
X180087279Y-83260111D01*
X148923880Y-60948993D02*
X148590547Y-60472802D01*
X148352452Y-60948993D02*
X148352452Y-59948993D01*
X148352452Y-59948993D02*
X148733404Y-59948993D01*
X148733404Y-59948993D02*
X148828642Y-59996612D01*
X148828642Y-59996612D02*
X148876261Y-60044231D01*
X148876261Y-60044231D02*
X148923880Y-60139469D01*
X148923880Y-60139469D02*
X148923880Y-60282326D01*
X148923880Y-60282326D02*
X148876261Y-60377564D01*
X148876261Y-60377564D02*
X148828642Y-60425183D01*
X148828642Y-60425183D02*
X148733404Y-60472802D01*
X148733404Y-60472802D02*
X148352452Y-60472802D01*
X149876261Y-60948993D02*
X149304833Y-60948993D01*
X149590547Y-60948993D02*
X149590547Y-59948993D01*
X149590547Y-59948993D02*
X149495309Y-60091850D01*
X149495309Y-60091850D02*
X149400071Y-60187088D01*
X149400071Y-60187088D02*
X149304833Y-60234707D01*
X150828642Y-60948993D02*
X150257214Y-60948993D01*
X150542928Y-60948993D02*
X150542928Y-59948993D01*
X150542928Y-59948993D02*
X150447690Y-60091850D01*
X150447690Y-60091850D02*
X150352452Y-60187088D01*
X150352452Y-60187088D02*
X150257214Y-60234707D01*
X195957142Y-81909580D02*
X195909523Y-81957200D01*
X195909523Y-81957200D02*
X195766666Y-82004819D01*
X195766666Y-82004819D02*
X195671428Y-82004819D01*
X195671428Y-82004819D02*
X195528571Y-81957200D01*
X195528571Y-81957200D02*
X195433333Y-81861961D01*
X195433333Y-81861961D02*
X195385714Y-81766723D01*
X195385714Y-81766723D02*
X195338095Y-81576247D01*
X195338095Y-81576247D02*
X195338095Y-81433390D01*
X195338095Y-81433390D02*
X195385714Y-81242914D01*
X195385714Y-81242914D02*
X195433333Y-81147676D01*
X195433333Y-81147676D02*
X195528571Y-81052438D01*
X195528571Y-81052438D02*
X195671428Y-81004819D01*
X195671428Y-81004819D02*
X195766666Y-81004819D01*
X195766666Y-81004819D02*
X195909523Y-81052438D01*
X195909523Y-81052438D02*
X195957142Y-81100057D01*
X196338095Y-81100057D02*
X196385714Y-81052438D01*
X196385714Y-81052438D02*
X196480952Y-81004819D01*
X196480952Y-81004819D02*
X196719047Y-81004819D01*
X196719047Y-81004819D02*
X196814285Y-81052438D01*
X196814285Y-81052438D02*
X196861904Y-81100057D01*
X196861904Y-81100057D02*
X196909523Y-81195295D01*
X196909523Y-81195295D02*
X196909523Y-81290533D01*
X196909523Y-81290533D02*
X196861904Y-81433390D01*
X196861904Y-81433390D02*
X196290476Y-82004819D01*
X196290476Y-82004819D02*
X196909523Y-82004819D01*
X197861904Y-82004819D02*
X197290476Y-82004819D01*
X197576190Y-82004819D02*
X197576190Y-81004819D01*
X197576190Y-81004819D02*
X197480952Y-81147676D01*
X197480952Y-81147676D02*
X197385714Y-81242914D01*
X197385714Y-81242914D02*
X197290476Y-81290533D01*
X159333333Y-44609580D02*
X159285714Y-44657200D01*
X159285714Y-44657200D02*
X159142857Y-44704819D01*
X159142857Y-44704819D02*
X159047619Y-44704819D01*
X159047619Y-44704819D02*
X158904762Y-44657200D01*
X158904762Y-44657200D02*
X158809524Y-44561961D01*
X158809524Y-44561961D02*
X158761905Y-44466723D01*
X158761905Y-44466723D02*
X158714286Y-44276247D01*
X158714286Y-44276247D02*
X158714286Y-44133390D01*
X158714286Y-44133390D02*
X158761905Y-43942914D01*
X158761905Y-43942914D02*
X158809524Y-43847676D01*
X158809524Y-43847676D02*
X158904762Y-43752438D01*
X158904762Y-43752438D02*
X159047619Y-43704819D01*
X159047619Y-43704819D02*
X159142857Y-43704819D01*
X159142857Y-43704819D02*
X159285714Y-43752438D01*
X159285714Y-43752438D02*
X159333333Y-43800057D01*
X160190476Y-44038152D02*
X160190476Y-44704819D01*
X159952381Y-43657200D02*
X159714286Y-44371485D01*
X159714286Y-44371485D02*
X160333333Y-44371485D01*
X195957142Y-77959580D02*
X195909523Y-78007200D01*
X195909523Y-78007200D02*
X195766666Y-78054819D01*
X195766666Y-78054819D02*
X195671428Y-78054819D01*
X195671428Y-78054819D02*
X195528571Y-78007200D01*
X195528571Y-78007200D02*
X195433333Y-77911961D01*
X195433333Y-77911961D02*
X195385714Y-77816723D01*
X195385714Y-77816723D02*
X195338095Y-77626247D01*
X195338095Y-77626247D02*
X195338095Y-77483390D01*
X195338095Y-77483390D02*
X195385714Y-77292914D01*
X195385714Y-77292914D02*
X195433333Y-77197676D01*
X195433333Y-77197676D02*
X195528571Y-77102438D01*
X195528571Y-77102438D02*
X195671428Y-77054819D01*
X195671428Y-77054819D02*
X195766666Y-77054819D01*
X195766666Y-77054819D02*
X195909523Y-77102438D01*
X195909523Y-77102438D02*
X195957142Y-77150057D01*
X196909523Y-78054819D02*
X196338095Y-78054819D01*
X196623809Y-78054819D02*
X196623809Y-77054819D01*
X196623809Y-77054819D02*
X196528571Y-77197676D01*
X196528571Y-77197676D02*
X196433333Y-77292914D01*
X196433333Y-77292914D02*
X196338095Y-77340533D01*
X197385714Y-78054819D02*
X197576190Y-78054819D01*
X197576190Y-78054819D02*
X197671428Y-78007200D01*
X197671428Y-78007200D02*
X197719047Y-77959580D01*
X197719047Y-77959580D02*
X197814285Y-77816723D01*
X197814285Y-77816723D02*
X197861904Y-77626247D01*
X197861904Y-77626247D02*
X197861904Y-77245295D01*
X197861904Y-77245295D02*
X197814285Y-77150057D01*
X197814285Y-77150057D02*
X197766666Y-77102438D01*
X197766666Y-77102438D02*
X197671428Y-77054819D01*
X197671428Y-77054819D02*
X197480952Y-77054819D01*
X197480952Y-77054819D02*
X197385714Y-77102438D01*
X197385714Y-77102438D02*
X197338095Y-77150057D01*
X197338095Y-77150057D02*
X197290476Y-77245295D01*
X197290476Y-77245295D02*
X197290476Y-77483390D01*
X197290476Y-77483390D02*
X197338095Y-77578628D01*
X197338095Y-77578628D02*
X197385714Y-77626247D01*
X197385714Y-77626247D02*
X197480952Y-77673866D01*
X197480952Y-77673866D02*
X197671428Y-77673866D01*
X197671428Y-77673866D02*
X197766666Y-77626247D01*
X197766666Y-77626247D02*
X197814285Y-77578628D01*
X197814285Y-77578628D02*
X197861904Y-77483390D01*
X189418715Y-48359308D02*
X189085382Y-47883117D01*
X188847287Y-48359308D02*
X188847287Y-47359308D01*
X188847287Y-47359308D02*
X189228239Y-47359308D01*
X189228239Y-47359308D02*
X189323477Y-47406927D01*
X189323477Y-47406927D02*
X189371096Y-47454546D01*
X189371096Y-47454546D02*
X189418715Y-47549784D01*
X189418715Y-47549784D02*
X189418715Y-47692641D01*
X189418715Y-47692641D02*
X189371096Y-47787879D01*
X189371096Y-47787879D02*
X189323477Y-47835498D01*
X189323477Y-47835498D02*
X189228239Y-47883117D01*
X189228239Y-47883117D02*
X188847287Y-47883117D01*
X189752049Y-47359308D02*
X190371096Y-47359308D01*
X190371096Y-47359308D02*
X190037763Y-47740260D01*
X190037763Y-47740260D02*
X190180620Y-47740260D01*
X190180620Y-47740260D02*
X190275858Y-47787879D01*
X190275858Y-47787879D02*
X190323477Y-47835498D01*
X190323477Y-47835498D02*
X190371096Y-47930736D01*
X190371096Y-47930736D02*
X190371096Y-48168831D01*
X190371096Y-48168831D02*
X190323477Y-48264069D01*
X190323477Y-48264069D02*
X190275858Y-48311689D01*
X190275858Y-48311689D02*
X190180620Y-48359308D01*
X190180620Y-48359308D02*
X189894906Y-48359308D01*
X189894906Y-48359308D02*
X189799668Y-48311689D01*
X189799668Y-48311689D02*
X189752049Y-48264069D01*
X141216666Y-57404819D02*
X141216666Y-58119104D01*
X141216666Y-58119104D02*
X141169047Y-58261961D01*
X141169047Y-58261961D02*
X141073809Y-58357200D01*
X141073809Y-58357200D02*
X140930952Y-58404819D01*
X140930952Y-58404819D02*
X140835714Y-58404819D01*
X141597619Y-57404819D02*
X142264285Y-57404819D01*
X142264285Y-57404819D02*
X141835714Y-58404819D01*
X138519104Y-68828571D02*
X138519104Y-68352381D01*
X138804819Y-68923809D02*
X137804819Y-68590476D01*
X137804819Y-68590476D02*
X138804819Y-68257143D01*
X138138152Y-67923809D02*
X138804819Y-67923809D01*
X138233390Y-67923809D02*
X138185771Y-67876190D01*
X138185771Y-67876190D02*
X138138152Y-67780952D01*
X138138152Y-67780952D02*
X138138152Y-67638095D01*
X138138152Y-67638095D02*
X138185771Y-67542857D01*
X138185771Y-67542857D02*
X138281009Y-67495238D01*
X138281009Y-67495238D02*
X138804819Y-67495238D01*
X138804819Y-66590476D02*
X138281009Y-66590476D01*
X138281009Y-66590476D02*
X138185771Y-66638095D01*
X138185771Y-66638095D02*
X138138152Y-66733333D01*
X138138152Y-66733333D02*
X138138152Y-66923809D01*
X138138152Y-66923809D02*
X138185771Y-67019047D01*
X138757200Y-66590476D02*
X138804819Y-66685714D01*
X138804819Y-66685714D02*
X138804819Y-66923809D01*
X138804819Y-66923809D02*
X138757200Y-67019047D01*
X138757200Y-67019047D02*
X138661961Y-67066666D01*
X138661961Y-67066666D02*
X138566723Y-67066666D01*
X138566723Y-67066666D02*
X138471485Y-67019047D01*
X138471485Y-67019047D02*
X138423866Y-66923809D01*
X138423866Y-66923809D02*
X138423866Y-66685714D01*
X138423866Y-66685714D02*
X138376247Y-66590476D01*
X138804819Y-65971428D02*
X138757200Y-66066666D01*
X138757200Y-66066666D02*
X138661961Y-66114285D01*
X138661961Y-66114285D02*
X137804819Y-66114285D01*
X138804819Y-65447618D02*
X138757200Y-65542856D01*
X138757200Y-65542856D02*
X138709580Y-65590475D01*
X138709580Y-65590475D02*
X138614342Y-65638094D01*
X138614342Y-65638094D02*
X138328628Y-65638094D01*
X138328628Y-65638094D02*
X138233390Y-65590475D01*
X138233390Y-65590475D02*
X138185771Y-65542856D01*
X138185771Y-65542856D02*
X138138152Y-65447618D01*
X138138152Y-65447618D02*
X138138152Y-65304761D01*
X138138152Y-65304761D02*
X138185771Y-65209523D01*
X138185771Y-65209523D02*
X138233390Y-65161904D01*
X138233390Y-65161904D02*
X138328628Y-65114285D01*
X138328628Y-65114285D02*
X138614342Y-65114285D01*
X138614342Y-65114285D02*
X138709580Y-65161904D01*
X138709580Y-65161904D02*
X138757200Y-65209523D01*
X138757200Y-65209523D02*
X138804819Y-65304761D01*
X138804819Y-65304761D02*
X138804819Y-65447618D01*
X138138152Y-64257142D02*
X138947676Y-64257142D01*
X138947676Y-64257142D02*
X139042914Y-64304761D01*
X139042914Y-64304761D02*
X139090533Y-64352380D01*
X139090533Y-64352380D02*
X139138152Y-64447618D01*
X139138152Y-64447618D02*
X139138152Y-64590475D01*
X139138152Y-64590475D02*
X139090533Y-64685713D01*
X138757200Y-64257142D02*
X138804819Y-64352380D01*
X138804819Y-64352380D02*
X138804819Y-64542856D01*
X138804819Y-64542856D02*
X138757200Y-64638094D01*
X138757200Y-64638094D02*
X138709580Y-64685713D01*
X138709580Y-64685713D02*
X138614342Y-64733332D01*
X138614342Y-64733332D02*
X138328628Y-64733332D01*
X138328628Y-64733332D02*
X138233390Y-64685713D01*
X138233390Y-64685713D02*
X138185771Y-64638094D01*
X138185771Y-64638094D02*
X138138152Y-64542856D01*
X138138152Y-64542856D02*
X138138152Y-64352380D01*
X138138152Y-64352380D02*
X138185771Y-64257142D01*
X138804819Y-63019046D02*
X137804819Y-63019046D01*
X138138152Y-62542856D02*
X138804819Y-62542856D01*
X138233390Y-62542856D02*
X138185771Y-62495237D01*
X138185771Y-62495237D02*
X138138152Y-62399999D01*
X138138152Y-62399999D02*
X138138152Y-62257142D01*
X138138152Y-62257142D02*
X138185771Y-62161904D01*
X138185771Y-62161904D02*
X138281009Y-62114285D01*
X138281009Y-62114285D02*
X138804819Y-62114285D01*
X138138152Y-61638094D02*
X139138152Y-61638094D01*
X138185771Y-61638094D02*
X138138152Y-61542856D01*
X138138152Y-61542856D02*
X138138152Y-61352380D01*
X138138152Y-61352380D02*
X138185771Y-61257142D01*
X138185771Y-61257142D02*
X138233390Y-61209523D01*
X138233390Y-61209523D02*
X138328628Y-61161904D01*
X138328628Y-61161904D02*
X138614342Y-61161904D01*
X138614342Y-61161904D02*
X138709580Y-61209523D01*
X138709580Y-61209523D02*
X138757200Y-61257142D01*
X138757200Y-61257142D02*
X138804819Y-61352380D01*
X138804819Y-61352380D02*
X138804819Y-61542856D01*
X138804819Y-61542856D02*
X138757200Y-61638094D01*
X138138152Y-60304761D02*
X138804819Y-60304761D01*
X138138152Y-60733332D02*
X138661961Y-60733332D01*
X138661961Y-60733332D02*
X138757200Y-60685713D01*
X138757200Y-60685713D02*
X138804819Y-60590475D01*
X138804819Y-60590475D02*
X138804819Y-60447618D01*
X138804819Y-60447618D02*
X138757200Y-60352380D01*
X138757200Y-60352380D02*
X138709580Y-60304761D01*
X138138152Y-59971427D02*
X138138152Y-59590475D01*
X137804819Y-59828570D02*
X138661961Y-59828570D01*
X138661961Y-59828570D02*
X138757200Y-59780951D01*
X138757200Y-59780951D02*
X138804819Y-59685713D01*
X138804819Y-59685713D02*
X138804819Y-59590475D01*
X137804819Y-58590474D02*
X137804819Y-57971427D01*
X137804819Y-57971427D02*
X138185771Y-58304760D01*
X138185771Y-58304760D02*
X138185771Y-58161903D01*
X138185771Y-58161903D02*
X138233390Y-58066665D01*
X138233390Y-58066665D02*
X138281009Y-58019046D01*
X138281009Y-58019046D02*
X138376247Y-57971427D01*
X138376247Y-57971427D02*
X138614342Y-57971427D01*
X138614342Y-57971427D02*
X138709580Y-58019046D01*
X138709580Y-58019046D02*
X138757200Y-58066665D01*
X138757200Y-58066665D02*
X138804819Y-58161903D01*
X138804819Y-58161903D02*
X138804819Y-58447617D01*
X138804819Y-58447617D02*
X138757200Y-58542855D01*
X138757200Y-58542855D02*
X138709580Y-58590474D01*
X189442048Y-51609308D02*
X189108715Y-51133117D01*
X188870620Y-51609308D02*
X188870620Y-50609308D01*
X188870620Y-50609308D02*
X189251572Y-50609308D01*
X189251572Y-50609308D02*
X189346810Y-50656927D01*
X189346810Y-50656927D02*
X189394429Y-50704546D01*
X189394429Y-50704546D02*
X189442048Y-50799784D01*
X189442048Y-50799784D02*
X189442048Y-50942641D01*
X189442048Y-50942641D02*
X189394429Y-51037879D01*
X189394429Y-51037879D02*
X189346810Y-51085498D01*
X189346810Y-51085498D02*
X189251572Y-51133117D01*
X189251572Y-51133117D02*
X188870620Y-51133117D01*
X190394429Y-51609308D02*
X189823001Y-51609308D01*
X190108715Y-51609308D02*
X190108715Y-50609308D01*
X190108715Y-50609308D02*
X190013477Y-50752165D01*
X190013477Y-50752165D02*
X189918239Y-50847403D01*
X189918239Y-50847403D02*
X189823001Y-50895022D01*
X195957142Y-85059580D02*
X195909523Y-85107200D01*
X195909523Y-85107200D02*
X195766666Y-85154819D01*
X195766666Y-85154819D02*
X195671428Y-85154819D01*
X195671428Y-85154819D02*
X195528571Y-85107200D01*
X195528571Y-85107200D02*
X195433333Y-85011961D01*
X195433333Y-85011961D02*
X195385714Y-84916723D01*
X195385714Y-84916723D02*
X195338095Y-84726247D01*
X195338095Y-84726247D02*
X195338095Y-84583390D01*
X195338095Y-84583390D02*
X195385714Y-84392914D01*
X195385714Y-84392914D02*
X195433333Y-84297676D01*
X195433333Y-84297676D02*
X195528571Y-84202438D01*
X195528571Y-84202438D02*
X195671428Y-84154819D01*
X195671428Y-84154819D02*
X195766666Y-84154819D01*
X195766666Y-84154819D02*
X195909523Y-84202438D01*
X195909523Y-84202438D02*
X195957142Y-84250057D01*
X196338095Y-84250057D02*
X196385714Y-84202438D01*
X196385714Y-84202438D02*
X196480952Y-84154819D01*
X196480952Y-84154819D02*
X196719047Y-84154819D01*
X196719047Y-84154819D02*
X196814285Y-84202438D01*
X196814285Y-84202438D02*
X196861904Y-84250057D01*
X196861904Y-84250057D02*
X196909523Y-84345295D01*
X196909523Y-84345295D02*
X196909523Y-84440533D01*
X196909523Y-84440533D02*
X196861904Y-84583390D01*
X196861904Y-84583390D02*
X196290476Y-85154819D01*
X196290476Y-85154819D02*
X196909523Y-85154819D01*
X197528571Y-84154819D02*
X197623809Y-84154819D01*
X197623809Y-84154819D02*
X197719047Y-84202438D01*
X197719047Y-84202438D02*
X197766666Y-84250057D01*
X197766666Y-84250057D02*
X197814285Y-84345295D01*
X197814285Y-84345295D02*
X197861904Y-84535771D01*
X197861904Y-84535771D02*
X197861904Y-84773866D01*
X197861904Y-84773866D02*
X197814285Y-84964342D01*
X197814285Y-84964342D02*
X197766666Y-85059580D01*
X197766666Y-85059580D02*
X197719047Y-85107200D01*
X197719047Y-85107200D02*
X197623809Y-85154819D01*
X197623809Y-85154819D02*
X197528571Y-85154819D01*
X197528571Y-85154819D02*
X197433333Y-85107200D01*
X197433333Y-85107200D02*
X197385714Y-85059580D01*
X197385714Y-85059580D02*
X197338095Y-84964342D01*
X197338095Y-84964342D02*
X197290476Y-84773866D01*
X197290476Y-84773866D02*
X197290476Y-84535771D01*
X197290476Y-84535771D02*
X197338095Y-84345295D01*
X197338095Y-84345295D02*
X197385714Y-84250057D01*
X197385714Y-84250057D02*
X197433333Y-84202438D01*
X197433333Y-84202438D02*
X197528571Y-84154819D01*
X189418715Y-44684308D02*
X189085382Y-44208117D01*
X188847287Y-44684308D02*
X188847287Y-43684308D01*
X188847287Y-43684308D02*
X189228239Y-43684308D01*
X189228239Y-43684308D02*
X189323477Y-43731927D01*
X189323477Y-43731927D02*
X189371096Y-43779546D01*
X189371096Y-43779546D02*
X189418715Y-43874784D01*
X189418715Y-43874784D02*
X189418715Y-44017641D01*
X189418715Y-44017641D02*
X189371096Y-44112879D01*
X189371096Y-44112879D02*
X189323477Y-44160498D01*
X189323477Y-44160498D02*
X189228239Y-44208117D01*
X189228239Y-44208117D02*
X188847287Y-44208117D01*
X189799668Y-43779546D02*
X189847287Y-43731927D01*
X189847287Y-43731927D02*
X189942525Y-43684308D01*
X189942525Y-43684308D02*
X190180620Y-43684308D01*
X190180620Y-43684308D02*
X190275858Y-43731927D01*
X190275858Y-43731927D02*
X190323477Y-43779546D01*
X190323477Y-43779546D02*
X190371096Y-43874784D01*
X190371096Y-43874784D02*
X190371096Y-43970022D01*
X190371096Y-43970022D02*
X190323477Y-44112879D01*
X190323477Y-44112879D02*
X189752049Y-44684308D01*
X189752049Y-44684308D02*
X190371096Y-44684308D01*
X174837279Y-84355349D02*
X174361088Y-84688682D01*
X174837279Y-84926777D02*
X173837279Y-84926777D01*
X173837279Y-84926777D02*
X173837279Y-84545825D01*
X173837279Y-84545825D02*
X173884898Y-84450587D01*
X173884898Y-84450587D02*
X173932517Y-84402968D01*
X173932517Y-84402968D02*
X174027755Y-84355349D01*
X174027755Y-84355349D02*
X174170612Y-84355349D01*
X174170612Y-84355349D02*
X174265850Y-84402968D01*
X174265850Y-84402968D02*
X174313469Y-84450587D01*
X174313469Y-84450587D02*
X174361088Y-84545825D01*
X174361088Y-84545825D02*
X174361088Y-84926777D01*
X173837279Y-83450587D02*
X173837279Y-83926777D01*
X173837279Y-83926777D02*
X174313469Y-83974396D01*
X174313469Y-83974396D02*
X174265850Y-83926777D01*
X174265850Y-83926777D02*
X174218231Y-83831539D01*
X174218231Y-83831539D02*
X174218231Y-83593444D01*
X174218231Y-83593444D02*
X174265850Y-83498206D01*
X174265850Y-83498206D02*
X174313469Y-83450587D01*
X174313469Y-83450587D02*
X174408707Y-83402968D01*
X174408707Y-83402968D02*
X174646802Y-83402968D01*
X174646802Y-83402968D02*
X174742040Y-83450587D01*
X174742040Y-83450587D02*
X174789660Y-83498206D01*
X174789660Y-83498206D02*
X174837279Y-83593444D01*
X174837279Y-83593444D02*
X174837279Y-83831539D01*
X174837279Y-83831539D02*
X174789660Y-83926777D01*
X174789660Y-83926777D02*
X174742040Y-83974396D01*
D12*
%TO.C,R18*%
X186296335Y-62227711D02*
X192836335Y-62227711D01*
X186296335Y-62557711D02*
X186296335Y-62227711D01*
X186296335Y-64637711D02*
X186296335Y-64967711D01*
X186296335Y-64967711D02*
X192836335Y-64967711D01*
X192836335Y-62227711D02*
X192836335Y-62557711D01*
X192836335Y-64967711D02*
X192836335Y-64637711D01*
%TO.C,C10*%
X175125791Y-65168471D02*
X184365791Y-65168471D01*
X175125791Y-67908471D02*
X175125791Y-65168471D01*
X184365791Y-65168471D02*
X184365791Y-67908471D01*
X184365791Y-67908471D02*
X175125791Y-67908471D01*
%TO.C,TP3*%
X194450000Y-54600000D02*
X194450000Y-56500000D01*
X194450000Y-56500000D02*
X196300000Y-56500000D01*
X196300000Y-54600000D02*
X194450000Y-54600000D01*
X196300000Y-54650000D02*
X196300000Y-54600000D01*
X196300000Y-56500000D02*
X196300000Y-54650000D01*
%TO.C,C17*%
X191980000Y-73230000D02*
X201220000Y-73230000D01*
X191980000Y-75970000D02*
X191980000Y-73230000D01*
X201220000Y-73230000D02*
X201220000Y-75970000D01*
X201220000Y-75970000D02*
X191980000Y-75970000D01*
%TO.C,C7*%
X154955316Y-65168471D02*
X164195316Y-65168471D01*
X154955316Y-67908471D02*
X154955316Y-65168471D01*
X164195316Y-65168471D02*
X164195316Y-67908471D01*
X164195316Y-67908471D02*
X154955316Y-67908471D01*
%TO.C,R6*%
X146357666Y-49318165D02*
X146357666Y-49648165D01*
X146357666Y-52058165D02*
X146357666Y-51728165D01*
X152897666Y-49318165D02*
X146357666Y-49318165D01*
X152897666Y-49648165D02*
X152897666Y-49318165D01*
X152897666Y-51728165D02*
X152897666Y-52058165D01*
X152897666Y-52058165D02*
X146357666Y-52058165D01*
%TO.C,TP2*%
X198350000Y-94300000D02*
X198350000Y-96200000D01*
X198350000Y-96200000D02*
X200200000Y-96200000D01*
X200200000Y-94300000D02*
X198350000Y-94300000D01*
X200200000Y-94350000D02*
X200200000Y-94300000D01*
X200200000Y-96200000D02*
X200200000Y-94350000D01*
%TO.C,R10*%
X166812460Y-80808683D02*
X167142460Y-80808683D01*
X166812460Y-87348683D02*
X166812460Y-80808683D01*
X167142460Y-87348683D02*
X166812460Y-87348683D01*
X169222460Y-87348683D02*
X169552460Y-87348683D01*
X169552460Y-80808683D02*
X169222460Y-80808683D01*
X169552460Y-87348683D02*
X169552460Y-80808683D01*
%TO.C,J4*%
X153540000Y-117740000D02*
X153540000Y-123710000D01*
X153540000Y-123710000D02*
X171160000Y-123710000D01*
X153550000Y-121450000D02*
X154300000Y-121450000D01*
X153550000Y-122950000D02*
X153550000Y-123700000D01*
X153550000Y-123700000D02*
X155350000Y-123700000D01*
X154300000Y-118500000D02*
X162350000Y-118500000D01*
X154300000Y-121450000D02*
X154300000Y-118500000D01*
X155350000Y-122950000D02*
X153550000Y-122950000D01*
X155350000Y-123700000D02*
X155350000Y-122950000D01*
X156850000Y-122950000D02*
X156850000Y-123700000D01*
X156850000Y-123700000D02*
X167850000Y-123700000D01*
X162350000Y-118500000D02*
X169340000Y-118500000D01*
X167850000Y-122950000D02*
X156850000Y-122950000D01*
X167850000Y-123700000D02*
X167850000Y-122950000D01*
X169350000Y-122950000D02*
X169350000Y-123700000D01*
X169350000Y-123700000D02*
X171150000Y-123700000D01*
X170200000Y-124000000D02*
X171450000Y-124000000D01*
X170400000Y-121450000D02*
X170400000Y-120110000D01*
X171150000Y-121450000D02*
X170400000Y-121450000D01*
X171150000Y-122950000D02*
X169350000Y-122950000D01*
X171150000Y-123700000D02*
X171150000Y-122950000D01*
X171160000Y-117740000D02*
X153540000Y-117740000D01*
X171160000Y-123710000D02*
X171160000Y-117740000D01*
X171450000Y-124000000D02*
X171450000Y-122750000D01*
%TO.C,R14*%
X156200164Y-62177418D02*
X156200164Y-62507418D01*
X156200164Y-64917418D02*
X156200164Y-64587418D01*
X162740164Y-62177418D02*
X156200164Y-62177418D01*
X162740164Y-62507418D02*
X162740164Y-62177418D01*
X162740164Y-64587418D02*
X162740164Y-64917418D01*
X162740164Y-64917418D02*
X156200164Y-64917418D01*
%TO.C,C18*%
X191980000Y-70230000D02*
X201220000Y-70230000D01*
X191980000Y-72970000D02*
X191980000Y-70230000D01*
X201220000Y-70230000D02*
X201220000Y-72970000D01*
X201220000Y-72970000D02*
X191980000Y-72970000D01*
%TO.C,U2*%
X167440000Y-43015000D02*
X167440000Y-53295000D01*
X167440000Y-53295000D02*
X168690000Y-53295000D01*
X170690000Y-53295000D02*
X171940000Y-53295000D01*
X171940000Y-43015000D02*
X167440000Y-43015000D01*
X171940000Y-53295000D02*
X171940000Y-43015000D01*
X168690000Y-53295000D02*
G75*
G02*
X170690000Y-53295000I1000000J0D01*
G01*
%TO.C,C5*%
X154880000Y-49555000D02*
X164120000Y-49555000D01*
X154880000Y-52295000D02*
X154880000Y-49555000D01*
X164120000Y-49555000D02*
X164120000Y-52295000D01*
X164120000Y-52295000D02*
X154880000Y-52295000D01*
%TO.C,C11*%
X175125791Y-59184575D02*
X184365791Y-59184575D01*
X175125791Y-61924575D02*
X175125791Y-59184575D01*
X184365791Y-59184575D02*
X184365791Y-61924575D01*
X184365791Y-61924575D02*
X175125791Y-61924575D01*
%TO.C,J2*%
X148440000Y-77890000D02*
X148440000Y-84010000D01*
X148440000Y-84010000D02*
X153160000Y-84010000D01*
X149050000Y-78500000D02*
X149050000Y-83400000D01*
X149050000Y-80850000D02*
X149550000Y-80850000D01*
X149050000Y-80950000D02*
X149550000Y-80950000D01*
X149050000Y-83400000D02*
X152550000Y-83400000D01*
X149550000Y-80850000D02*
X149550000Y-81050000D01*
X149550000Y-81050000D02*
X149050000Y-81050000D01*
X150550000Y-77890000D02*
X150550000Y-78500000D01*
X150550000Y-84010000D02*
X150550000Y-83400000D01*
X151850000Y-77890000D02*
X151850000Y-78500000D01*
X151850000Y-84010000D02*
X151850000Y-83400000D01*
X152550000Y-78500000D02*
X149050000Y-78500000D01*
X152550000Y-80450000D02*
X152550000Y-78500000D01*
X152550000Y-81450000D02*
X153160000Y-81450000D01*
X152550000Y-83400000D02*
X152550000Y-81450000D01*
X153160000Y-77890000D02*
X148440000Y-77890000D01*
X153160000Y-79650000D02*
X153360000Y-79650000D01*
X153160000Y-80450000D02*
X152550000Y-80450000D01*
X153160000Y-84010000D02*
X153160000Y-77890000D01*
X153260000Y-79650000D02*
X153260000Y-79350000D01*
X153360000Y-79350000D02*
X153160000Y-79350000D01*
X153360000Y-79650000D02*
X153360000Y-79350000D01*
X153460000Y-77590000D02*
X152210000Y-77590000D01*
X153460000Y-78840000D02*
X153460000Y-77590000D01*
%TO.C,R7*%
X146357666Y-42893165D02*
X152897666Y-42893165D01*
X146357666Y-43223165D02*
X146357666Y-42893165D01*
X146357666Y-45303165D02*
X146357666Y-45633165D01*
X146357666Y-45633165D02*
X152897666Y-45633165D01*
X152897666Y-42893165D02*
X152897666Y-43223165D01*
X152897666Y-45633165D02*
X152897666Y-45303165D01*
%TO.C,BZ1*%
X201950000Y-118250000D02*
G75*
G02*
X189750000Y-118250000I-6100000J0D01*
G01*
X189750000Y-118250000D02*
G75*
G02*
X201950000Y-118250000I6100000J0D01*
G01*
%TO.C,R8*%
X146357666Y-46318165D02*
X146357666Y-46648165D01*
X146357666Y-49058165D02*
X146357666Y-48728165D01*
X152897666Y-46318165D02*
X146357666Y-46318165D01*
X152897666Y-46648165D02*
X152897666Y-46318165D01*
X152897666Y-48728165D02*
X152897666Y-49058165D01*
X152897666Y-49058165D02*
X146357666Y-49058165D01*
%TO.C,C15*%
X175125791Y-55914575D02*
X184365791Y-55914575D01*
X175125791Y-58654575D02*
X175125791Y-55914575D01*
X184365791Y-55914575D02*
X184365791Y-58654575D01*
X184365791Y-58654575D02*
X175125791Y-58654575D01*
%TO.C,C6*%
X169912460Y-79568683D02*
X172652460Y-79568683D01*
X169912460Y-88808683D02*
X169912460Y-79568683D01*
X172652460Y-79568683D02*
X172652460Y-88808683D01*
X172652460Y-88808683D02*
X169912460Y-88808683D01*
%TO.C,C8*%
X154960164Y-58927418D02*
X164200164Y-58927418D01*
X154960164Y-61667418D02*
X154960164Y-58927418D01*
X164200164Y-58927418D02*
X164200164Y-61667418D01*
X164200164Y-61667418D02*
X154960164Y-61667418D01*
%TO.C,R16*%
X186302862Y-59192874D02*
X192842862Y-59192874D01*
X186302862Y-59522874D02*
X186302862Y-59192874D01*
X186302862Y-61602874D02*
X186302862Y-61932874D01*
X186302862Y-61932874D02*
X192842862Y-61932874D01*
X192842862Y-59192874D02*
X192842862Y-59522874D01*
X192842862Y-61932874D02*
X192842862Y-61602874D01*
%TO.C,R21*%
X181130000Y-113830000D02*
X187670000Y-113830000D01*
X181130000Y-114160000D02*
X181130000Y-113830000D01*
X181130000Y-116240000D02*
X181130000Y-116570000D01*
X181130000Y-116570000D02*
X187670000Y-116570000D01*
X187670000Y-113830000D02*
X187670000Y-114160000D01*
X187670000Y-116570000D02*
X187670000Y-116240000D01*
%TO.C,TP1*%
X198300000Y-90300000D02*
X198300000Y-92200000D01*
X198300000Y-92200000D02*
X200150000Y-92200000D01*
X200150000Y-90300000D02*
X198300000Y-90300000D01*
X200150000Y-90350000D02*
X200150000Y-90300000D01*
X200150000Y-92200000D02*
X200150000Y-90350000D01*
%TO.C,J1*%
X194531728Y-50295462D02*
X194531728Y-51545462D01*
X194531728Y-51545462D02*
X195781728Y-51545462D01*
X194631728Y-49485462D02*
X194631728Y-49785462D01*
X194631728Y-49785462D02*
X194831728Y-49785462D01*
X194731728Y-49485462D02*
X194731728Y-49785462D01*
X194831728Y-43125462D02*
X194831728Y-51245462D01*
X194831728Y-48685462D02*
X195441728Y-48685462D01*
X194831728Y-49485462D02*
X194631728Y-49485462D01*
X194831728Y-51245462D02*
X199551728Y-51245462D01*
X195441728Y-43735462D02*
X195441728Y-45685462D01*
X195441728Y-45685462D02*
X194831728Y-45685462D01*
X195441728Y-48685462D02*
X195441728Y-50635462D01*
X195441728Y-50635462D02*
X198941728Y-50635462D01*
X196141728Y-43125462D02*
X196141728Y-43735462D01*
X196141728Y-51245462D02*
X196141728Y-50635462D01*
X197441728Y-43125462D02*
X197441728Y-43735462D01*
X197441728Y-51245462D02*
X197441728Y-50635462D01*
X198441728Y-46085462D02*
X198941728Y-46085462D01*
X198441728Y-46285462D02*
X198441728Y-46085462D01*
X198441728Y-48085462D02*
X198941728Y-48085462D01*
X198441728Y-48285462D02*
X198441728Y-48085462D01*
X198941728Y-43735462D02*
X195441728Y-43735462D01*
X198941728Y-46185462D02*
X198441728Y-46185462D01*
X198941728Y-46285462D02*
X198441728Y-46285462D01*
X198941728Y-48185462D02*
X198441728Y-48185462D01*
X198941728Y-48285462D02*
X198441728Y-48285462D01*
X198941728Y-50635462D02*
X198941728Y-43735462D01*
X199551728Y-43125462D02*
X194831728Y-43125462D01*
X199551728Y-51245462D02*
X199551728Y-43125462D01*
%TO.C,C12*%
X182462460Y-79568683D02*
X185202460Y-79568683D01*
X182462460Y-88808683D02*
X182462460Y-79568683D01*
X185202460Y-79568683D02*
X185202460Y-88808683D01*
X185202460Y-88808683D02*
X182462460Y-88808683D01*
%TO.C,R17*%
X186280000Y-65230000D02*
X186280000Y-65560000D01*
X186280000Y-67970000D02*
X186280000Y-67640000D01*
X192820000Y-65230000D02*
X186280000Y-65230000D01*
X192820000Y-65560000D02*
X192820000Y-65230000D01*
X192820000Y-67640000D02*
X192820000Y-67970000D01*
X192820000Y-67970000D02*
X186280000Y-67970000D01*
%TO.C,FB1*%
X188950000Y-72725000D02*
X188950000Y-73485000D01*
X188950000Y-85485000D02*
X188950000Y-84725000D01*
X186580000Y-84725000D02*
X191320000Y-84725000D01*
X191320000Y-73485000D01*
X186580000Y-73485000D01*
X186580000Y-84725000D01*
%TO.C,R13*%
X146296738Y-62124174D02*
X146296738Y-62454174D01*
X146296738Y-64864174D02*
X146296738Y-64534174D01*
X152836738Y-62124174D02*
X146296738Y-62124174D01*
X152836738Y-62454174D02*
X152836738Y-62124174D01*
X152836738Y-64534174D02*
X152836738Y-64864174D01*
X152836738Y-64864174D02*
X146296738Y-64864174D01*
%TO.C,C13*%
X154880000Y-52805000D02*
X164120000Y-52805000D01*
X154880000Y-55545000D02*
X154880000Y-52805000D01*
X164120000Y-52805000D02*
X164120000Y-55545000D01*
X164120000Y-55545000D02*
X154880000Y-55545000D01*
%TO.C,J10*%
X172790000Y-118840000D02*
X172790000Y-123560000D01*
X172790000Y-120950000D02*
X173400000Y-120950000D01*
X172790000Y-122250000D02*
X173400000Y-122250000D01*
X172790000Y-123560000D02*
X178910000Y-123560000D01*
X173400000Y-119450000D02*
X173400000Y-122950000D01*
X173400000Y-122950000D02*
X175350000Y-122950000D01*
X175350000Y-122950000D02*
X175350000Y-123560000D01*
X175750000Y-119950000D02*
X175750000Y-119450000D01*
X175850000Y-119450000D02*
X175850000Y-119950000D01*
X175950000Y-119450000D02*
X175950000Y-119950000D01*
X175950000Y-119950000D02*
X175750000Y-119950000D01*
X176350000Y-122950000D02*
X178300000Y-122950000D01*
X176350000Y-123560000D02*
X176350000Y-122950000D01*
X177150000Y-123560000D02*
X177150000Y-123760000D01*
X177150000Y-123660000D02*
X177450000Y-123660000D01*
X177150000Y-123760000D02*
X177450000Y-123760000D01*
X177450000Y-123760000D02*
X177450000Y-123560000D01*
X177960000Y-123860000D02*
X179210000Y-123860000D01*
X178300000Y-119450000D02*
X173400000Y-119450000D01*
X178300000Y-122950000D02*
X178300000Y-119450000D01*
X178910000Y-118840000D02*
X172790000Y-118840000D01*
X178910000Y-120950000D02*
X178300000Y-120950000D01*
X178910000Y-122250000D02*
X178300000Y-122250000D01*
X178910000Y-123560000D02*
X178910000Y-118840000D01*
X179210000Y-123860000D02*
X179210000Y-122610000D01*
%TO.C,TP4*%
X197600000Y-54600000D02*
X197600000Y-56500000D01*
X197600000Y-56500000D02*
X199450000Y-56500000D01*
X199450000Y-54600000D02*
X197600000Y-54600000D01*
X199450000Y-54650000D02*
X199450000Y-54600000D01*
X199450000Y-56500000D02*
X199450000Y-54650000D01*
%TO.C,J9*%
X139643308Y-77798244D02*
X141023308Y-77798244D01*
X139643308Y-79178244D02*
X139643308Y-77798244D01*
X139643308Y-80448244D02*
X139643308Y-88178244D01*
X139643308Y-80448244D02*
X142403308Y-80448244D01*
X139643308Y-88178244D02*
X142403308Y-88178244D01*
X142403308Y-80448244D02*
X142403308Y-88178244D01*
%TO.C,C2*%
X175130000Y-49620347D02*
X184370000Y-49620347D01*
X175130000Y-52360347D02*
X175130000Y-49620347D01*
X184370000Y-49620347D02*
X184370000Y-52360347D01*
X184370000Y-52360347D02*
X175130000Y-52360347D01*
%TO.C,R15*%
X163612460Y-80808683D02*
X163942460Y-80808683D01*
X163612460Y-87348683D02*
X163612460Y-80808683D01*
X163942460Y-87348683D02*
X163612460Y-87348683D01*
X166022460Y-87348683D02*
X166352460Y-87348683D01*
X166352460Y-80808683D02*
X166022460Y-80808683D01*
X166352460Y-87348683D02*
X166352460Y-80808683D01*
%TO.C,J5*%
X139990000Y-122610000D02*
X139990000Y-123860000D01*
X139990000Y-123860000D02*
X141240000Y-123860000D01*
X140090000Y-121800000D02*
X140090000Y-122100000D01*
X140090000Y-122100000D02*
X140290000Y-122100000D01*
X140190000Y-121800000D02*
X140190000Y-122100000D01*
X140290000Y-113440000D02*
X140290000Y-123560000D01*
X140290000Y-121000000D02*
X140900000Y-121000000D01*
X140290000Y-121800000D02*
X140090000Y-121800000D01*
X140290000Y-123560000D02*
X145010000Y-123560000D01*
X140900000Y-114050000D02*
X140900000Y-116000000D01*
X140900000Y-116000000D02*
X140290000Y-116000000D01*
X140900000Y-121000000D02*
X140900000Y-122950000D01*
X140900000Y-122950000D02*
X144400000Y-122950000D01*
X141600000Y-113440000D02*
X141600000Y-114050000D01*
X141600000Y-123560000D02*
X141600000Y-122950000D01*
X142900000Y-113440000D02*
X142900000Y-114050000D01*
X142900000Y-123560000D02*
X142900000Y-122950000D01*
X143900000Y-116400000D02*
X144400000Y-116400000D01*
X143900000Y-116600000D02*
X143900000Y-116400000D01*
X143900000Y-118400000D02*
X144400000Y-118400000D01*
X143900000Y-118600000D02*
X143900000Y-118400000D01*
X143900000Y-120400000D02*
X144400000Y-120400000D01*
X143900000Y-120600000D02*
X143900000Y-120400000D01*
X144400000Y-114050000D02*
X140900000Y-114050000D01*
X144400000Y-116500000D02*
X143900000Y-116500000D01*
X144400000Y-116600000D02*
X143900000Y-116600000D01*
X144400000Y-118500000D02*
X143900000Y-118500000D01*
X144400000Y-118600000D02*
X143900000Y-118600000D01*
X144400000Y-120500000D02*
X143900000Y-120500000D01*
X144400000Y-120600000D02*
X143900000Y-120600000D01*
X144400000Y-122950000D02*
X144400000Y-114050000D01*
X145010000Y-113440000D02*
X140290000Y-113440000D01*
X145010000Y-123560000D02*
X145010000Y-113440000D01*
%TO.C,U3*%
X167431356Y-57568471D02*
X167431356Y-67848471D01*
X167431356Y-67848471D02*
X171931356Y-67848471D01*
X168681356Y-57568471D02*
X167431356Y-57568471D01*
X171931356Y-57568471D02*
X170681356Y-57568471D01*
X171931356Y-67848471D02*
X171931356Y-57568471D01*
X170681356Y-57568471D02*
G75*
G02*
X168681356Y-57568471I-1000000J0D01*
G01*
%TO.C,J3*%
X147090000Y-122710000D02*
X147090000Y-123960000D01*
X147090000Y-123960000D02*
X148340000Y-123960000D01*
X147190000Y-121900000D02*
X147190000Y-122200000D01*
X147190000Y-122200000D02*
X147390000Y-122200000D01*
X147290000Y-121900000D02*
X147290000Y-122200000D01*
X147390000Y-115540000D02*
X147390000Y-123660000D01*
X147390000Y-121100000D02*
X148000000Y-121100000D01*
X147390000Y-121900000D02*
X147190000Y-121900000D01*
X147390000Y-123660000D02*
X152110000Y-123660000D01*
X148000000Y-116150000D02*
X148000000Y-118100000D01*
X148000000Y-118100000D02*
X147390000Y-118100000D01*
X148000000Y-121100000D02*
X148000000Y-123050000D01*
X148000000Y-123050000D02*
X151500000Y-123050000D01*
X148700000Y-115540000D02*
X148700000Y-116150000D01*
X148700000Y-123660000D02*
X148700000Y-123050000D01*
X150000000Y-115540000D02*
X150000000Y-116150000D01*
X150000000Y-123660000D02*
X150000000Y-123050000D01*
X151000000Y-118500000D02*
X151500000Y-118500000D01*
X151000000Y-118700000D02*
X151000000Y-118500000D01*
X151000000Y-120500000D02*
X151500000Y-120500000D01*
X151000000Y-120700000D02*
X151000000Y-120500000D01*
X151500000Y-116150000D02*
X148000000Y-116150000D01*
X151500000Y-118600000D02*
X151000000Y-118600000D01*
X151500000Y-118700000D02*
X151000000Y-118700000D01*
X151500000Y-120600000D02*
X151000000Y-120600000D01*
X151500000Y-120700000D02*
X151000000Y-120700000D01*
X151500000Y-123050000D02*
X151500000Y-116150000D01*
X152110000Y-115540000D02*
X147390000Y-115540000D01*
X152110000Y-123660000D02*
X152110000Y-115540000D01*
%TO.C,C3*%
X176212460Y-79568683D02*
X178952460Y-79568683D01*
X176212460Y-88808683D02*
X176212460Y-79568683D01*
X178952460Y-79568683D02*
X178952460Y-88808683D01*
X178952460Y-88808683D02*
X176212460Y-88808683D01*
%TO.C,R9*%
X156120000Y-46305000D02*
X156120000Y-46635000D01*
X156120000Y-49045000D02*
X156120000Y-48715000D01*
X162660000Y-46305000D02*
X156120000Y-46305000D01*
X162660000Y-46635000D02*
X162660000Y-46305000D01*
X162660000Y-48715000D02*
X162660000Y-49045000D01*
X162660000Y-49045000D02*
X156120000Y-49045000D01*
%TO.C,C9*%
X160512460Y-79568683D02*
X163252460Y-79568683D01*
X160512460Y-88808683D02*
X160512460Y-79568683D01*
X163252460Y-79568683D02*
X163252460Y-88808683D01*
X163252460Y-88808683D02*
X160512460Y-88808683D01*
%TO.C,R12*%
X146295402Y-65168471D02*
X152835402Y-65168471D01*
X146295402Y-65498471D02*
X146295402Y-65168471D01*
X146295402Y-67578471D02*
X146295402Y-67908471D01*
X146295402Y-67908471D02*
X152835402Y-67908471D01*
X152835402Y-65168471D02*
X152835402Y-65498471D01*
X152835402Y-67908471D02*
X152835402Y-67578471D01*
%TO.C,C1*%
X175130000Y-42880000D02*
X184370000Y-42880000D01*
X175130000Y-45620000D02*
X175130000Y-42880000D01*
X184370000Y-42880000D02*
X184370000Y-45620000D01*
X184370000Y-45620000D02*
X175130000Y-45620000D01*
%TO.C,C22*%
X179780000Y-117030000D02*
X189020000Y-117030000D01*
X179780000Y-119770000D02*
X179780000Y-117030000D01*
X189020000Y-117030000D02*
X189020000Y-119770000D01*
X189020000Y-119770000D02*
X179780000Y-119770000D01*
%TO.C,R19*%
X176585791Y-62184575D02*
X183125791Y-62184575D01*
X176585791Y-62514575D02*
X176585791Y-62184575D01*
X176585791Y-64594575D02*
X176585791Y-64924575D01*
X176585791Y-64924575D02*
X183125791Y-64924575D01*
X183125791Y-62184575D02*
X183125791Y-62514575D01*
X183125791Y-64924575D02*
X183125791Y-64594575D01*
%TO.C,J6*%
X139295053Y-50350455D02*
X139295053Y-51600455D01*
X139295053Y-51600455D02*
X140545053Y-51600455D01*
X139395053Y-49540455D02*
X139395053Y-49840455D01*
X139395053Y-49840455D02*
X139595053Y-49840455D01*
X139495053Y-49540455D02*
X139495053Y-49840455D01*
X139595053Y-43180455D02*
X139595053Y-51300455D01*
X139595053Y-48740455D02*
X140205053Y-48740455D01*
X139595053Y-49540455D02*
X139395053Y-49540455D01*
X139595053Y-51300455D02*
X144315053Y-51300455D01*
X140205053Y-43790455D02*
X140205053Y-45740455D01*
X140205053Y-45740455D02*
X139595053Y-45740455D01*
X140205053Y-48740455D02*
X140205053Y-50690455D01*
X140205053Y-50690455D02*
X143705053Y-50690455D01*
X140905053Y-43180455D02*
X140905053Y-43790455D01*
X140905053Y-51300455D02*
X140905053Y-50690455D01*
X142205053Y-43180455D02*
X142205053Y-43790455D01*
X142205053Y-51300455D02*
X142205053Y-50690455D01*
X143205053Y-46140455D02*
X143705053Y-46140455D01*
X143205053Y-46340455D02*
X143205053Y-46140455D01*
X143205053Y-48140455D02*
X143705053Y-48140455D01*
X143205053Y-48340455D02*
X143205053Y-48140455D01*
X143705053Y-43790455D02*
X140205053Y-43790455D01*
X143705053Y-46240455D02*
X143205053Y-46240455D01*
X143705053Y-46340455D02*
X143205053Y-46340455D01*
X143705053Y-48240455D02*
X143205053Y-48240455D01*
X143705053Y-48340455D02*
X143205053Y-48340455D01*
X143705053Y-50690455D02*
X143705053Y-43790455D01*
X144315053Y-43180455D02*
X139595053Y-43180455D01*
X144315053Y-51300455D02*
X144315053Y-43180455D01*
%TO.C,J8*%
X194823084Y-59528471D02*
X194823084Y-67648471D01*
X194823084Y-67648471D02*
X199543084Y-67648471D01*
X195433084Y-60138471D02*
X195433084Y-67038471D01*
X195433084Y-62488471D02*
X195933084Y-62488471D01*
X195433084Y-62588471D02*
X195933084Y-62588471D01*
X195433084Y-64488471D02*
X195933084Y-64488471D01*
X195433084Y-64588471D02*
X195933084Y-64588471D01*
X195433084Y-67038471D02*
X198933084Y-67038471D01*
X195933084Y-62488471D02*
X195933084Y-62688471D01*
X195933084Y-62688471D02*
X195433084Y-62688471D01*
X195933084Y-64488471D02*
X195933084Y-64688471D01*
X195933084Y-64688471D02*
X195433084Y-64688471D01*
X196933084Y-59528471D02*
X196933084Y-60138471D01*
X196933084Y-67648471D02*
X196933084Y-67038471D01*
X198233084Y-59528471D02*
X198233084Y-60138471D01*
X198233084Y-67648471D02*
X198233084Y-67038471D01*
X198933084Y-60138471D02*
X195433084Y-60138471D01*
X198933084Y-62088471D02*
X198933084Y-60138471D01*
X198933084Y-65088471D02*
X199543084Y-65088471D01*
X198933084Y-67038471D02*
X198933084Y-65088471D01*
X199543084Y-59528471D02*
X194823084Y-59528471D01*
X199543084Y-61288471D02*
X199743084Y-61288471D01*
X199543084Y-62088471D02*
X198933084Y-62088471D01*
X199543084Y-67648471D02*
X199543084Y-59528471D01*
X199643084Y-61288471D02*
X199643084Y-60988471D01*
X199743084Y-60988471D02*
X199543084Y-60988471D01*
X199743084Y-61288471D02*
X199743084Y-60988471D01*
X199843084Y-59228471D02*
X198593084Y-59228471D01*
X199843084Y-60478471D02*
X199843084Y-59228471D01*
%TO.C,R4*%
X176590000Y-46540888D02*
X183130000Y-46540888D01*
X176590000Y-46870888D02*
X176590000Y-46540888D01*
X176590000Y-48950888D02*
X176590000Y-49280888D01*
X176590000Y-49280888D02*
X183130000Y-49280888D01*
X183130000Y-46540888D02*
X183130000Y-46870888D01*
X183130000Y-49280888D02*
X183130000Y-48950888D01*
%TO.C,U1*%
X144255424Y-109512770D02*
X144255424Y-91732770D01*
X187815424Y-88762770D02*
X189815424Y-88762770D01*
X192625424Y-89082770D02*
X146905424Y-89082770D01*
X192625424Y-112162770D02*
X146905424Y-112162770D01*
X195275424Y-109512770D02*
X195275424Y-91732770D01*
X144255424Y-91732770D02*
G75*
G02*
X146905424Y-89082770I2650000J0D01*
G01*
X146905424Y-112162770D02*
G75*
G02*
X144255424Y-109512770I0J2650000D01*
G01*
X192625424Y-89082770D02*
G75*
G02*
X195275424Y-91732770I0J-2650000D01*
G01*
X195275424Y-109512770D02*
G75*
G02*
X192625424Y-112162770I-2650000J0D01*
G01*
%TO.C,R20*%
X179262460Y-80808683D02*
X179592460Y-80808683D01*
X179262460Y-87348683D02*
X179262460Y-80808683D01*
X179592460Y-87348683D02*
X179262460Y-87348683D01*
X181672460Y-87348683D02*
X182002460Y-87348683D01*
X182002460Y-80808683D02*
X181672460Y-80808683D01*
X182002460Y-87348683D02*
X182002460Y-80808683D01*
%TO.C,R11*%
X146296738Y-59124174D02*
X146296738Y-59454174D01*
X146296738Y-61864174D02*
X146296738Y-61534174D01*
X152836738Y-59124174D02*
X146296738Y-59124174D01*
X152836738Y-59454174D02*
X152836738Y-59124174D01*
X152836738Y-61534174D02*
X152836738Y-61864174D01*
X152836738Y-61864174D02*
X146296738Y-61864174D01*
%TO.C,C21*%
X191980000Y-80180000D02*
X201220000Y-80180000D01*
X191980000Y-82920000D02*
X191980000Y-80180000D01*
X201220000Y-80180000D02*
X201220000Y-82920000D01*
X201220000Y-82920000D02*
X191980000Y-82920000D01*
%TO.C,C4*%
X154880000Y-42880000D02*
X164120000Y-42880000D01*
X154880000Y-45620000D02*
X154880000Y-42880000D01*
X164120000Y-42880000D02*
X164120000Y-45620000D01*
X164120000Y-45620000D02*
X154880000Y-45620000D01*
%TO.C,C19*%
X191980000Y-76230000D02*
X201220000Y-76230000D01*
X191980000Y-78970000D02*
X191980000Y-76230000D01*
X201220000Y-76230000D02*
X201220000Y-78970000D01*
X201220000Y-78970000D02*
X191980000Y-78970000D01*
%TO.C,R3*%
X186315382Y-46534489D02*
X192855382Y-46534489D01*
X186315382Y-46864489D02*
X186315382Y-46534489D01*
X186315382Y-48944489D02*
X186315382Y-49274489D01*
X186315382Y-49274489D02*
X192855382Y-49274489D01*
X192855382Y-46534489D02*
X192855382Y-46864489D01*
X192855382Y-49274489D02*
X192855382Y-48944489D01*
%TO.C,J7*%
X139586409Y-59528471D02*
X139586409Y-67648471D01*
X139586409Y-67648471D02*
X144306409Y-67648471D01*
X140196409Y-60138471D02*
X140196409Y-67038471D01*
X140196409Y-62488471D02*
X140696409Y-62488471D01*
X140196409Y-62588471D02*
X140696409Y-62588471D01*
X140196409Y-64488471D02*
X140696409Y-64488471D01*
X140196409Y-64588471D02*
X140696409Y-64588471D01*
X140196409Y-67038471D02*
X143696409Y-67038471D01*
X140696409Y-62488471D02*
X140696409Y-62688471D01*
X140696409Y-62688471D02*
X140196409Y-62688471D01*
X140696409Y-64488471D02*
X140696409Y-64688471D01*
X140696409Y-64688471D02*
X140196409Y-64688471D01*
X141696409Y-59528471D02*
X141696409Y-60138471D01*
X141696409Y-67648471D02*
X141696409Y-67038471D01*
X142996409Y-59528471D02*
X142996409Y-60138471D01*
X142996409Y-67648471D02*
X142996409Y-67038471D01*
X143696409Y-60138471D02*
X140196409Y-60138471D01*
X143696409Y-62088471D02*
X143696409Y-60138471D01*
X143696409Y-65088471D02*
X144306409Y-65088471D01*
X143696409Y-67038471D02*
X143696409Y-65088471D01*
X144306409Y-59528471D02*
X139586409Y-59528471D01*
X144306409Y-61288471D02*
X144506409Y-61288471D01*
X144306409Y-62088471D02*
X143696409Y-62088471D01*
X144306409Y-67648471D02*
X144306409Y-59528471D01*
X144406409Y-61288471D02*
X144406409Y-60988471D01*
X144506409Y-60988471D02*
X144306409Y-60988471D01*
X144506409Y-61288471D02*
X144506409Y-60988471D01*
X144606409Y-59228471D02*
X143356409Y-59228471D01*
X144606409Y-60478471D02*
X144606409Y-59228471D01*
%TO.C,R1*%
X186315382Y-49784489D02*
X192855382Y-49784489D01*
X186315382Y-50114489D02*
X186315382Y-49784489D01*
X186315382Y-52194489D02*
X186315382Y-52524489D01*
X186315382Y-52524489D02*
X192855382Y-52524489D01*
X192855382Y-49784489D02*
X192855382Y-50114489D01*
X192855382Y-52524489D02*
X192855382Y-52194489D01*
%TO.C,C20*%
X191980000Y-83330000D02*
X201220000Y-83330000D01*
X191980000Y-86070000D02*
X191980000Y-83330000D01*
X201220000Y-83330000D02*
X201220000Y-86070000D01*
X201220000Y-86070000D02*
X191980000Y-86070000D01*
%TO.C,R2*%
X186315382Y-42859489D02*
X186315382Y-43189489D01*
X186315382Y-45599489D02*
X186315382Y-45269489D01*
X192855382Y-42859489D02*
X186315382Y-42859489D01*
X192855382Y-43189489D02*
X192855382Y-42859489D01*
X192855382Y-45269489D02*
X192855382Y-45599489D01*
X192855382Y-45599489D02*
X186315382Y-45599489D01*
%TO.C,R5*%
X173012460Y-80808683D02*
X173342460Y-80808683D01*
X173012460Y-87348683D02*
X173012460Y-80808683D01*
X173342460Y-87348683D02*
X173012460Y-87348683D01*
X175422460Y-87348683D02*
X175752460Y-87348683D01*
X175752460Y-80808683D02*
X175422460Y-80808683D01*
X175752460Y-87348683D02*
X175752460Y-80808683D01*
%TD*%
M02*
