M48
; DRILL file {KiCad 9.0.5} date 2026-03-04T16:08:41+1100
; FORMAT={-:-/ absolute / metric / decimal}
; #@! TF.CreationDate,2026-03-04T16:08:41+11:00
; #@! TF.GenerationSoftware,Kicad,Pcbnew,9.0.5
; #@! TF.FileFunction,Plated,1,2,PTH
FMAT,2
METRIC
; #@! TA.AperFunction,Plated,PTH,ViaDrill
T1C0.300
; #@! TA.AperFunction,Plated,PTH,ComponentDrill
T2C0.300
; #@! TA.AperFunction,Plated,PTH,ComponentDrill
T3C0.700
; #@! TA.AperFunction,Plated,PTH,ComponentDrill
T4C0.800
; #@! TA.AperFunction,Plated,PTH,ComponentDrill
T5C1.000
; #@! TA.AperFunction,Plated,PTH,ComponentDrill
T6C1.100
%
G90
G05
T1
X138.65Y-81.6
X141.0Y-118.0
X150.0Y-118.0
X156.4Y-100.7
X157.15Y-76.3
X157.15Y-78.35
X157.5Y-88.2
X168.65Y-118.0
X172.85Y-100.7
X177.5Y-118.14
X181.2Y-93.8
X184.0Y-118.14
X197.0Y-89.0
X198.0Y-118.14
X201.2Y-95.15
T2
X158.7Y-77.1
X159.9Y-77.1
X195.0Y-85.0
X196.2Y-85.0
T3
X146.0Y-78.8
X150.0Y-78.75
X188.5Y-64.5
X191.65Y-64.5
T4
X141.0Y-108.5
X141.0Y-110.5
X141.0Y-112.5
X141.0Y-114.5
X141.25Y-68.0
X141.25Y-70.0
X141.25Y-72.0
X141.476Y-55.214
X141.476Y-57.214
X141.476Y-59.214
X145.719Y-73.543
X145.72Y-67.499
X145.72Y-70.499
X145.889Y-54.237
X145.889Y-57.662
X145.889Y-60.662
X150.0Y-83.5
X152.0Y-83.5
X153.339Y-73.543
X153.34Y-67.499
X153.34Y-70.499
X153.509Y-54.237
X153.509Y-57.662
X153.509Y-60.662
X154.0Y-83.5
X155.624Y-70.552
X155.651Y-57.649
X157.039Y-73.543
X157.044Y-67.302
X157.071Y-54.224
X157.071Y-60.899
X161.882Y-81.689
X161.882Y-86.689
X162.039Y-73.543
X162.044Y-67.302
X162.071Y-54.224
X162.071Y-60.899
X163.244Y-70.552
X163.271Y-57.649
X164.982Y-80.269
X164.982Y-87.889
X165.75Y-56.25
X165.75Y-58.79
X165.75Y-61.33
X165.75Y-63.87
X165.75Y-66.41
X165.75Y-68.95
X165.75Y-71.49
X168.182Y-80.269
X168.182Y-87.889
X171.282Y-81.689
X171.282Y-86.689
X173.37Y-56.25
X173.37Y-58.79
X173.37Y-61.33
X173.37Y-63.87
X173.37Y-66.41
X173.37Y-68.95
X173.37Y-71.49
X174.382Y-80.269
X174.382Y-87.889
X176.01Y-70.559
X176.121Y-57.884
X177.21Y-64.289
X177.21Y-67.559
X177.321Y-54.224
X177.321Y-60.964
X177.402Y-73.633
X177.582Y-81.689
X177.582Y-86.689
X180.632Y-80.269
X180.632Y-87.889
X182.21Y-64.289
X182.21Y-67.559
X182.321Y-54.224
X182.321Y-60.964
X182.402Y-73.633
X183.63Y-70.559
X183.741Y-57.884
X183.832Y-81.689
X183.832Y-86.689
X185.704Y-73.605
X185.72Y-70.602
X185.727Y-67.568
X185.846Y-54.203
X185.846Y-57.878
X185.846Y-61.128
X190.0Y-81.5
X190.0Y-86.5
X193.324Y-73.605
X193.34Y-70.602
X193.347Y-67.568
X193.466Y-54.203
X193.466Y-57.878
X193.466Y-61.128
X195.0Y-87.0
X198.25Y-68.5
X198.25Y-70.5
X198.25Y-72.5
X198.5Y-54.75
X198.5Y-56.75
X198.5Y-58.75
X200.0Y-87.0
T5
X141.0Y-91.15
X141.0Y-93.69
X141.0Y-96.23
X141.0Y-98.77
X141.0Y-101.31
X141.0Y-103.85
X141.023Y-79.178
X141.023Y-81.718
X141.023Y-84.258
X141.023Y-86.798
X149.75Y-90.75
X149.75Y-111.07
X152.29Y-90.75
X152.29Y-111.07
X154.83Y-90.75
X154.83Y-111.07
X157.37Y-90.75
X157.37Y-111.07
X159.91Y-90.75
X159.91Y-111.07
X162.45Y-90.75
X162.45Y-111.07
X164.99Y-90.75
X164.99Y-111.07
X167.53Y-90.75
X167.53Y-111.07
X170.07Y-90.75
X170.07Y-111.07
X172.61Y-90.75
X172.61Y-111.07
X175.15Y-90.75
X175.15Y-111.07
X177.69Y-90.75
X177.69Y-111.07
X180.23Y-90.75
X182.77Y-90.75
X185.31Y-90.75
X187.85Y-90.75
T6
X194.415Y-80.993
X196.955Y-80.993
X199.495Y-80.993
M30
