%TF.GenerationSoftware,KiCad,Pcbnew,9.0.5*%
%TF.CreationDate,2026-03-04T16:08:41+11:00*%
%TF.ProjectId,BODAQS shield Proto E,424f4441-5153-4207-9368-69656c642050,rev?*%
%TF.SameCoordinates,Original*%
%TF.FileFunction,Drillmap*%
%TF.FilePolarity,Positive*%
%FSLAX45Y45*%
G04 Gerber Fmt 4.5, Leading zero omitted, Abs format (unit mm)*
G04 Created by KiCad (PCBNEW 9.0.5) date 2026-03-04 16:08:41*
%MOMM*%
%LPD*%
G01*
G04 APERTURE LIST*
%ADD10C,0.200000*%
G04 APERTURE END LIST*
D10*
X13740764Y-4668960D02*
X20240764Y-4668960D01*
X20240764Y-11893960D01*
X13740764Y-11893960D01*
X13740764Y-4668960D01*
X13991541Y-12215444D02*
X13991541Y-12015444D01*
X13991541Y-12015444D02*
X14039160Y-12015444D01*
X14039160Y-12015444D02*
X14067732Y-12024967D01*
X14067732Y-12024967D02*
X14086779Y-12044015D01*
X14086779Y-12044015D02*
X14096303Y-12063063D01*
X14096303Y-12063063D02*
X14105827Y-12101158D01*
X14105827Y-12101158D02*
X14105827Y-12129729D01*
X14105827Y-12129729D02*
X14096303Y-12167825D01*
X14096303Y-12167825D02*
X14086779Y-12186872D01*
X14086779Y-12186872D02*
X14067732Y-12205920D01*
X14067732Y-12205920D02*
X14039160Y-12215444D01*
X14039160Y-12215444D02*
X13991541Y-12215444D01*
X14191541Y-12215444D02*
X14191541Y-12082110D01*
X14191541Y-12120206D02*
X14201065Y-12101158D01*
X14201065Y-12101158D02*
X14210589Y-12091634D01*
X14210589Y-12091634D02*
X14229636Y-12082110D01*
X14229636Y-12082110D02*
X14248684Y-12082110D01*
X14315351Y-12215444D02*
X14315351Y-12082110D01*
X14315351Y-12015444D02*
X14305827Y-12024967D01*
X14305827Y-12024967D02*
X14315351Y-12034491D01*
X14315351Y-12034491D02*
X14324874Y-12024967D01*
X14324874Y-12024967D02*
X14315351Y-12015444D01*
X14315351Y-12015444D02*
X14315351Y-12034491D01*
X14439160Y-12215444D02*
X14420112Y-12205920D01*
X14420112Y-12205920D02*
X14410589Y-12186872D01*
X14410589Y-12186872D02*
X14410589Y-12015444D01*
X14543922Y-12215444D02*
X14524874Y-12205920D01*
X14524874Y-12205920D02*
X14515351Y-12186872D01*
X14515351Y-12186872D02*
X14515351Y-12015444D01*
X14772493Y-12215444D02*
X14772493Y-12015444D01*
X14772493Y-12015444D02*
X14839160Y-12158301D01*
X14839160Y-12158301D02*
X14905827Y-12015444D01*
X14905827Y-12015444D02*
X14905827Y-12215444D01*
X15086779Y-12215444D02*
X15086779Y-12110682D01*
X15086779Y-12110682D02*
X15077255Y-12091634D01*
X15077255Y-12091634D02*
X15058208Y-12082110D01*
X15058208Y-12082110D02*
X15020112Y-12082110D01*
X15020112Y-12082110D02*
X15001065Y-12091634D01*
X15086779Y-12205920D02*
X15067732Y-12215444D01*
X15067732Y-12215444D02*
X15020112Y-12215444D01*
X15020112Y-12215444D02*
X15001065Y-12205920D01*
X15001065Y-12205920D02*
X14991541Y-12186872D01*
X14991541Y-12186872D02*
X14991541Y-12167825D01*
X14991541Y-12167825D02*
X15001065Y-12148777D01*
X15001065Y-12148777D02*
X15020112Y-12139253D01*
X15020112Y-12139253D02*
X15067732Y-12139253D01*
X15067732Y-12139253D02*
X15086779Y-12129729D01*
X15182017Y-12082110D02*
X15182017Y-12282110D01*
X15182017Y-12091634D02*
X15201065Y-12082110D01*
X15201065Y-12082110D02*
X15239160Y-12082110D01*
X15239160Y-12082110D02*
X15258208Y-12091634D01*
X15258208Y-12091634D02*
X15267732Y-12101158D01*
X15267732Y-12101158D02*
X15277255Y-12120206D01*
X15277255Y-12120206D02*
X15277255Y-12177348D01*
X15277255Y-12177348D02*
X15267732Y-12196396D01*
X15267732Y-12196396D02*
X15258208Y-12205920D01*
X15258208Y-12205920D02*
X15239160Y-12215444D01*
X15239160Y-12215444D02*
X15201065Y-12215444D01*
X15201065Y-12215444D02*
X15182017Y-12205920D01*
X15362970Y-12196396D02*
X15372493Y-12205920D01*
X15372493Y-12205920D02*
X15362970Y-12215444D01*
X15362970Y-12215444D02*
X15353446Y-12205920D01*
X15353446Y-12205920D02*
X15362970Y-12196396D01*
X15362970Y-12196396D02*
X15362970Y-12215444D01*
X15362970Y-12091634D02*
X15372493Y-12101158D01*
X15372493Y-12101158D02*
X15362970Y-12110682D01*
X15362970Y-12110682D02*
X15353446Y-12101158D01*
X15353446Y-12101158D02*
X15362970Y-12091634D01*
X15362970Y-12091634D02*
X15362970Y-12110682D01*
M02*
