%TF.GenerationSoftware,KiCad,Pcbnew,9.0.5*%
%TF.CreationDate,2026-03-04T16:08:41+11:00*%
%TF.ProjectId,BODAQS shield Proto E,424f4441-5153-4207-9368-69656c642050,rev?*%
%TF.SameCoordinates,Original*%
%TF.FileFunction,Drillmap*%
%TF.FilePolarity,Positive*%
%FSLAX45Y45*%
G04 Gerber Fmt 4.5, Leading zero omitted, Abs format (unit mm)*
G04 Created by KiCad (PCBNEW 9.0.5) date 2026-03-04 16:08:41*
%MOMM*%
%LPD*%
G01*
G04 APERTURE LIST*
%ADD10C,0.200000*%
%ADD11C,0.100000*%
%ADD12C,0.110000*%
G04 APERTURE END LIST*
D10*
X13740764Y-4668960D02*
X20240764Y-4668960D01*
X20240764Y-11893960D01*
X13740764Y-11893960D01*
X13740764Y-4668960D01*
D11*
X13850000Y-8145000D02*
X13880000Y-8175000D01*
X13880000Y-8145000D02*
X13850000Y-8175000D01*
X14085000Y-11785000D02*
X14115000Y-11815000D01*
X14115000Y-11785000D02*
X14085000Y-11815000D01*
X14985000Y-11785000D02*
X15015000Y-11815000D01*
X15015000Y-11785000D02*
X14985000Y-11815000D01*
X15625000Y-10055000D02*
X15655000Y-10085000D01*
X15655000Y-10055000D02*
X15625000Y-10085000D01*
X15700000Y-7615000D02*
X15730000Y-7645000D01*
X15730000Y-7615000D02*
X15700000Y-7645000D01*
X15700000Y-7820000D02*
X15730000Y-7850000D01*
X15730000Y-7820000D02*
X15700000Y-7850000D01*
X15735000Y-8805000D02*
X15765000Y-8835000D01*
X15765000Y-8805000D02*
X15735000Y-8835000D01*
X16850000Y-11785000D02*
X16880000Y-11815000D01*
X16880000Y-11785000D02*
X16850000Y-11815000D01*
X17270000Y-10055000D02*
X17300000Y-10085000D01*
X17300000Y-10055000D02*
X17270000Y-10085000D01*
X17735000Y-11798960D02*
X17765000Y-11828960D01*
X17765000Y-11798960D02*
X17735000Y-11828960D01*
X18105000Y-9365000D02*
X18135000Y-9395000D01*
X18135000Y-9365000D02*
X18105000Y-9395000D01*
X18385000Y-11798960D02*
X18415000Y-11828960D01*
X18415000Y-11798960D02*
X18385000Y-11828960D01*
X19685000Y-8885000D02*
X19715000Y-8915000D01*
X19715000Y-8885000D02*
X19685000Y-8915000D01*
X19785000Y-11798960D02*
X19815000Y-11828960D01*
X19815000Y-11798960D02*
X19785000Y-11828960D01*
X20105000Y-9500000D02*
X20135000Y-9530000D01*
X20135000Y-9500000D02*
X20105000Y-9530000D01*
X15885000Y-7710000D02*
G75*
G02*
X15855000Y-7710000I-15000J0D01*
G01*
X15855000Y-7710000D02*
G75*
G02*
X15885000Y-7710000I15000J0D01*
G01*
X16005000Y-7710000D02*
G75*
G02*
X15975000Y-7710000I-15000J0D01*
G01*
X15975000Y-7710000D02*
G75*
G02*
X16005000Y-7710000I15000J0D01*
G01*
X19515000Y-8500000D02*
G75*
G02*
X19485000Y-8500000I-15000J0D01*
G01*
X19485000Y-8500000D02*
G75*
G02*
X19515000Y-8500000I15000J0D01*
G01*
X19635000Y-8500000D02*
G75*
G02*
X19605000Y-8500000I-15000J0D01*
G01*
X19605000Y-8500000D02*
G75*
G02*
X19635000Y-8500000I15000J0D01*
G01*
X14600000Y-7845000D02*
X14600000Y-7915000D01*
X14565000Y-7880000D02*
X14635000Y-7880000D01*
X15000000Y-7840000D02*
X15000000Y-7910000D01*
X14965000Y-7875000D02*
X15035000Y-7875000D01*
X18850000Y-6415000D02*
X18850000Y-6485000D01*
X18815000Y-6450000D02*
X18885000Y-6450000D01*
X19165000Y-6415000D02*
X19165000Y-6485000D01*
X19130000Y-6450000D02*
X19200000Y-6450000D01*
X14128284Y-10878285D02*
X14128284Y-10821716D01*
X14071715Y-10821716D01*
X14071715Y-10878285D01*
X14128284Y-10878285D01*
X14128284Y-11078285D02*
X14128284Y-11021716D01*
X14071715Y-11021716D01*
X14071715Y-11078285D01*
X14128284Y-11078285D01*
X14128284Y-11278284D02*
X14128284Y-11221715D01*
X14071715Y-11221715D01*
X14071715Y-11278284D01*
X14128284Y-11278284D01*
X14128284Y-11478284D02*
X14128284Y-11421715D01*
X14071715Y-11421715D01*
X14071715Y-11478284D01*
X14128284Y-11478284D01*
X14153284Y-6828284D02*
X14153284Y-6771715D01*
X14096715Y-6771715D01*
X14096715Y-6828284D01*
X14153284Y-6828284D01*
X14153284Y-7028284D02*
X14153284Y-6971715D01*
X14096715Y-6971715D01*
X14096715Y-7028284D01*
X14153284Y-7028284D01*
X14153284Y-7228284D02*
X14153284Y-7171715D01*
X14096715Y-7171715D01*
X14096715Y-7228284D01*
X14153284Y-7228284D01*
X14175878Y-5549683D02*
X14175878Y-5493114D01*
X14119309Y-5493114D01*
X14119309Y-5549683D01*
X14175878Y-5549683D01*
X14175878Y-5749683D02*
X14175878Y-5693114D01*
X14119309Y-5693114D01*
X14119309Y-5749683D01*
X14175878Y-5749683D01*
X14175878Y-5949683D02*
X14175878Y-5893114D01*
X14119309Y-5893114D01*
X14119309Y-5949683D01*
X14175878Y-5949683D01*
X14600198Y-7382604D02*
X14600198Y-7326035D01*
X14543629Y-7326035D01*
X14543629Y-7382604D01*
X14600198Y-7382604D01*
X14600332Y-6778174D02*
X14600332Y-6721605D01*
X14543763Y-6721605D01*
X14543763Y-6778174D01*
X14600332Y-6778174D01*
X14600332Y-7078174D02*
X14600332Y-7021605D01*
X14543763Y-7021605D01*
X14543763Y-7078174D01*
X14600332Y-7078174D01*
X14617139Y-5451954D02*
X14617139Y-5395385D01*
X14560570Y-5395385D01*
X14560570Y-5451954D01*
X14617139Y-5451954D01*
X14617139Y-5794454D02*
X14617139Y-5737885D01*
X14560570Y-5737885D01*
X14560570Y-5794454D01*
X14617139Y-5794454D01*
X14617139Y-6094454D02*
X14617139Y-6037885D01*
X14560570Y-6037885D01*
X14560570Y-6094454D01*
X14617139Y-6094454D01*
X15028284Y-8378284D02*
X15028284Y-8321715D01*
X14971715Y-8321715D01*
X14971715Y-8378284D01*
X15028284Y-8378284D01*
X15228284Y-8378284D02*
X15228284Y-8321715D01*
X15171715Y-8321715D01*
X15171715Y-8378284D01*
X15228284Y-8378284D01*
X15362198Y-7382604D02*
X15362198Y-7326035D01*
X15305629Y-7326035D01*
X15305629Y-7382604D01*
X15362198Y-7382604D01*
X15362332Y-6778174D02*
X15362332Y-6721605D01*
X15305763Y-6721605D01*
X15305763Y-6778174D01*
X15362332Y-6778174D01*
X15362332Y-7078174D02*
X15362332Y-7021605D01*
X15305763Y-7021605D01*
X15305763Y-7078174D01*
X15362332Y-7078174D01*
X15379139Y-5451954D02*
X15379139Y-5395385D01*
X15322570Y-5395385D01*
X15322570Y-5451954D01*
X15379139Y-5451954D01*
X15379139Y-5794454D02*
X15379139Y-5737885D01*
X15322570Y-5737885D01*
X15322570Y-5794454D01*
X15379139Y-5794454D01*
X15379139Y-6094454D02*
X15379139Y-6037885D01*
X15322570Y-6037885D01*
X15322570Y-6094454D01*
X15379139Y-6094454D01*
X15428284Y-8378284D02*
X15428284Y-8321715D01*
X15371715Y-8321715D01*
X15371715Y-8378284D01*
X15428284Y-8378284D01*
X15590674Y-7083499D02*
X15590674Y-7026930D01*
X15534105Y-7026930D01*
X15534105Y-7083499D01*
X15590674Y-7083499D01*
X15593373Y-5793138D02*
X15593373Y-5736569D01*
X15536804Y-5736569D01*
X15536804Y-5793138D01*
X15593373Y-5793138D01*
X15732190Y-7382604D02*
X15732190Y-7326035D01*
X15675621Y-7326035D01*
X15675621Y-7382604D01*
X15732190Y-7382604D01*
X15732674Y-6758499D02*
X15732674Y-6701930D01*
X15676105Y-6701930D01*
X15676105Y-6758499D01*
X15732674Y-6758499D01*
X15735373Y-5450638D02*
X15735373Y-5394069D01*
X15678804Y-5394069D01*
X15678804Y-5450638D01*
X15735373Y-5450638D01*
X15735373Y-6118138D02*
X15735373Y-6061569D01*
X15678804Y-6061569D01*
X15678804Y-6118138D01*
X15735373Y-6118138D01*
X16216530Y-8197153D02*
X16216530Y-8140584D01*
X16159961Y-8140584D01*
X16159961Y-8197153D01*
X16216530Y-8197153D01*
X16216530Y-8697153D02*
X16216530Y-8640584D01*
X16159961Y-8640584D01*
X16159961Y-8697153D01*
X16216530Y-8697153D01*
X16232190Y-7382604D02*
X16232190Y-7326035D01*
X16175621Y-7326035D01*
X16175621Y-7382604D01*
X16232190Y-7382604D01*
X16232674Y-6758499D02*
X16232674Y-6701930D01*
X16176105Y-6701930D01*
X16176105Y-6758499D01*
X16232674Y-6758499D01*
X16235373Y-5450638D02*
X16235373Y-5394069D01*
X16178804Y-5394069D01*
X16178804Y-5450638D01*
X16235373Y-5450638D01*
X16235373Y-6118138D02*
X16235373Y-6061569D01*
X16178804Y-6061569D01*
X16178804Y-6118138D01*
X16235373Y-6118138D01*
X16352674Y-7083499D02*
X16352674Y-7026930D01*
X16296105Y-7026930D01*
X16296105Y-7083499D01*
X16352674Y-7083499D01*
X16355373Y-5793138D02*
X16355373Y-5736569D01*
X16298804Y-5736569D01*
X16298804Y-5793138D01*
X16355373Y-5793138D01*
X16526530Y-8055153D02*
X16526530Y-7998584D01*
X16469961Y-7998584D01*
X16469961Y-8055153D01*
X16526530Y-8055153D01*
X16526530Y-8817153D02*
X16526530Y-8760584D01*
X16469961Y-8760584D01*
X16469961Y-8817153D01*
X16526530Y-8817153D01*
X16603284Y-5653284D02*
X16603284Y-5596715D01*
X16546715Y-5596715D01*
X16546715Y-5653284D01*
X16603284Y-5653284D01*
X16603284Y-5907284D02*
X16603284Y-5850715D01*
X16546715Y-5850715D01*
X16546715Y-5907284D01*
X16603284Y-5907284D01*
X16603284Y-6161284D02*
X16603284Y-6104715D01*
X16546715Y-6104715D01*
X16546715Y-6161284D01*
X16603284Y-6161284D01*
X16603284Y-6415284D02*
X16603284Y-6358715D01*
X16546715Y-6358715D01*
X16546715Y-6415284D01*
X16603284Y-6415284D01*
X16603284Y-6669284D02*
X16603284Y-6612715D01*
X16546715Y-6612715D01*
X16546715Y-6669284D01*
X16603284Y-6669284D01*
X16603284Y-6923284D02*
X16603284Y-6866715D01*
X16546715Y-6866715D01*
X16546715Y-6923284D01*
X16603284Y-6923284D01*
X16603284Y-7177284D02*
X16603284Y-7120715D01*
X16546715Y-7120715D01*
X16546715Y-7177284D01*
X16603284Y-7177284D01*
X16846531Y-8055153D02*
X16846531Y-7998584D01*
X16789962Y-7998584D01*
X16789962Y-8055153D01*
X16846531Y-8055153D01*
X16846531Y-8817153D02*
X16846531Y-8760584D01*
X16789962Y-8760584D01*
X16789962Y-8817153D01*
X16846531Y-8817153D01*
X17156531Y-8197153D02*
X17156531Y-8140584D01*
X17099962Y-8140584D01*
X17099962Y-8197153D01*
X17156531Y-8197153D01*
X17156531Y-8697153D02*
X17156531Y-8640584D01*
X17099962Y-8640584D01*
X17099962Y-8697153D01*
X17156531Y-8697153D01*
X17365285Y-5653284D02*
X17365285Y-5596715D01*
X17308716Y-5596715D01*
X17308716Y-5653284D01*
X17365285Y-5653284D01*
X17365285Y-5907284D02*
X17365285Y-5850715D01*
X17308716Y-5850715D01*
X17308716Y-5907284D01*
X17365285Y-5907284D01*
X17365285Y-6161284D02*
X17365285Y-6104715D01*
X17308716Y-6104715D01*
X17308716Y-6161284D01*
X17365285Y-6161284D01*
X17365285Y-6415284D02*
X17365285Y-6358715D01*
X17308716Y-6358715D01*
X17308716Y-6415284D01*
X17365285Y-6415284D01*
X17365285Y-6669284D02*
X17365285Y-6612715D01*
X17308716Y-6612715D01*
X17308716Y-6669284D01*
X17365285Y-6669284D01*
X17365285Y-6923284D02*
X17365285Y-6866715D01*
X17308716Y-6866715D01*
X17308716Y-6923284D01*
X17365285Y-6923284D01*
X17365285Y-7177284D02*
X17365285Y-7120715D01*
X17308716Y-7120715D01*
X17308716Y-7177284D01*
X17365285Y-7177284D01*
X17466531Y-8055153D02*
X17466531Y-7998584D01*
X17409962Y-7998584D01*
X17409962Y-8055153D01*
X17466531Y-8055153D01*
X17466531Y-8817153D02*
X17466531Y-8760584D01*
X17409962Y-8760584D01*
X17409962Y-8817153D01*
X17466531Y-8817153D01*
X17629237Y-7084215D02*
X17629237Y-7027646D01*
X17572668Y-7027646D01*
X17572668Y-7084215D01*
X17629237Y-7084215D01*
X17640373Y-5816726D02*
X17640373Y-5760157D01*
X17583804Y-5760157D01*
X17583804Y-5816726D01*
X17640373Y-5816726D01*
X17749237Y-6457215D02*
X17749237Y-6400646D01*
X17692668Y-6400646D01*
X17692668Y-6457215D01*
X17749237Y-6457215D01*
X17749237Y-6784215D02*
X17749237Y-6727646D01*
X17692668Y-6727646D01*
X17692668Y-6784215D01*
X17749237Y-6784215D01*
X17760373Y-5450638D02*
X17760373Y-5394069D01*
X17703804Y-5394069D01*
X17703804Y-5450638D01*
X17760373Y-5450638D01*
X17760373Y-6124672D02*
X17760373Y-6068103D01*
X17703804Y-6068103D01*
X17703804Y-6124672D01*
X17760373Y-6124672D01*
X17768471Y-7391567D02*
X17768471Y-7334998D01*
X17711902Y-7334998D01*
X17711902Y-7391567D01*
X17768471Y-7391567D01*
X17786531Y-8197153D02*
X17786531Y-8140584D01*
X17729962Y-8140584D01*
X17729962Y-8197153D01*
X17786531Y-8197153D01*
X17786531Y-8697153D02*
X17786531Y-8640584D01*
X17729962Y-8640584D01*
X17729962Y-8697153D01*
X17786531Y-8697153D01*
X18091531Y-8055153D02*
X18091531Y-7998584D01*
X18034962Y-7998584D01*
X18034962Y-8055153D01*
X18091531Y-8055153D01*
X18091531Y-8817153D02*
X18091531Y-8760584D01*
X18034962Y-8760584D01*
X18034962Y-8817153D01*
X18091531Y-8817153D01*
X18249237Y-6457215D02*
X18249237Y-6400646D01*
X18192668Y-6400646D01*
X18192668Y-6457215D01*
X18249237Y-6457215D01*
X18249237Y-6784215D02*
X18249237Y-6727646D01*
X18192668Y-6727646D01*
X18192668Y-6784215D01*
X18249237Y-6784215D01*
X18260373Y-5450638D02*
X18260373Y-5394069D01*
X18203804Y-5394069D01*
X18203804Y-5450638D01*
X18260373Y-5450638D01*
X18260373Y-6124672D02*
X18260373Y-6068103D01*
X18203804Y-6068103D01*
X18203804Y-6124672D01*
X18260373Y-6124672D01*
X18268471Y-7391567D02*
X18268471Y-7334998D01*
X18211902Y-7334998D01*
X18211902Y-7391567D01*
X18268471Y-7391567D01*
X18391237Y-7084215D02*
X18391237Y-7027646D01*
X18334668Y-7027646D01*
X18334668Y-7084215D01*
X18391237Y-7084215D01*
X18402373Y-5816726D02*
X18402373Y-5760157D01*
X18345804Y-5760157D01*
X18345804Y-5816726D01*
X18402373Y-5816726D01*
X18411531Y-8197153D02*
X18411531Y-8140584D01*
X18354962Y-8140584D01*
X18354962Y-8197153D01*
X18411531Y-8197153D01*
X18411531Y-8697153D02*
X18411531Y-8640584D01*
X18354962Y-8640584D01*
X18354962Y-8697153D01*
X18411531Y-8697153D01*
X18598658Y-7388757D02*
X18598658Y-7332188D01*
X18542089Y-7332188D01*
X18542089Y-7388757D01*
X18598658Y-7388757D01*
X18600292Y-7088528D02*
X18600292Y-7031959D01*
X18543723Y-7031959D01*
X18543723Y-7088528D01*
X18600292Y-7088528D01*
X18600944Y-6785044D02*
X18600944Y-6728475D01*
X18544375Y-6728475D01*
X18544375Y-6785044D01*
X18600944Y-6785044D01*
X18612911Y-5448587D02*
X18612911Y-5392018D01*
X18556342Y-5392018D01*
X18556342Y-5448587D01*
X18612911Y-5448587D01*
X18612911Y-5816086D02*
X18612911Y-5759517D01*
X18556342Y-5759517D01*
X18556342Y-5816086D01*
X18612911Y-5816086D01*
X18612911Y-6141086D02*
X18612911Y-6084517D01*
X18556342Y-6084517D01*
X18556342Y-6141086D01*
X18612911Y-6141086D01*
X19028285Y-8178284D02*
X19028285Y-8121715D01*
X18971716Y-8121715D01*
X18971716Y-8178284D01*
X19028285Y-8178284D01*
X19028285Y-8678285D02*
X19028285Y-8621716D01*
X18971716Y-8621716D01*
X18971716Y-8678285D01*
X19028285Y-8678285D01*
X19360658Y-7388757D02*
X19360658Y-7332188D01*
X19304089Y-7332188D01*
X19304089Y-7388757D01*
X19360658Y-7388757D01*
X19362292Y-7088528D02*
X19362292Y-7031959D01*
X19305723Y-7031959D01*
X19305723Y-7088528D01*
X19362292Y-7088528D01*
X19362944Y-6785044D02*
X19362944Y-6728475D01*
X19306375Y-6728475D01*
X19306375Y-6785044D01*
X19362944Y-6785044D01*
X19374911Y-5448587D02*
X19374911Y-5392018D01*
X19318342Y-5392018D01*
X19318342Y-5448587D01*
X19374911Y-5448587D01*
X19374911Y-5816086D02*
X19374911Y-5759517D01*
X19318342Y-5759517D01*
X19318342Y-5816086D01*
X19374911Y-5816086D01*
X19374911Y-6141086D02*
X19374911Y-6084517D01*
X19318342Y-6084517D01*
X19318342Y-6141086D01*
X19374911Y-6141086D01*
X19528285Y-8728285D02*
X19528285Y-8671716D01*
X19471716Y-8671716D01*
X19471716Y-8728285D01*
X19528285Y-8728285D01*
X19853285Y-6878284D02*
X19853285Y-6821715D01*
X19796716Y-6821715D01*
X19796716Y-6878284D01*
X19853285Y-6878284D01*
X19853285Y-7078284D02*
X19853285Y-7021715D01*
X19796716Y-7021715D01*
X19796716Y-7078284D01*
X19853285Y-7078284D01*
X19853285Y-7278284D02*
X19853285Y-7221715D01*
X19796716Y-7221715D01*
X19796716Y-7278284D01*
X19853285Y-7278284D01*
X19878285Y-5503285D02*
X19878285Y-5446716D01*
X19821716Y-5446716D01*
X19821716Y-5503285D01*
X19878285Y-5503285D01*
X19878285Y-5703284D02*
X19878285Y-5646715D01*
X19821716Y-5646715D01*
X19821716Y-5703284D01*
X19878285Y-5703284D01*
X19878285Y-5903284D02*
X19878285Y-5846715D01*
X19821716Y-5846715D01*
X19821716Y-5903284D01*
X19878285Y-5903284D01*
X20028285Y-8728285D02*
X20028285Y-8671716D01*
X19971716Y-8671716D01*
X19971716Y-8728285D01*
X20028285Y-8728285D01*
X14100000Y-9165000D02*
X14150000Y-9115000D01*
X14100000Y-9065000D01*
X14050000Y-9115000D01*
X14100000Y-9165000D01*
X14100000Y-9419000D02*
X14150000Y-9369000D01*
X14100000Y-9319000D01*
X14050000Y-9369000D01*
X14100000Y-9419000D01*
X14100000Y-9673000D02*
X14150000Y-9623000D01*
X14100000Y-9573000D01*
X14050000Y-9623000D01*
X14100000Y-9673000D01*
X14100000Y-9927000D02*
X14150000Y-9877000D01*
X14100000Y-9827000D01*
X14050000Y-9877000D01*
X14100000Y-9927000D01*
X14100000Y-10181000D02*
X14150000Y-10131000D01*
X14100000Y-10081000D01*
X14050000Y-10131000D01*
X14100000Y-10181000D01*
X14100000Y-10435000D02*
X14150000Y-10385000D01*
X14100000Y-10335000D01*
X14050000Y-10385000D01*
X14100000Y-10435000D01*
X14102331Y-7967824D02*
X14152331Y-7917824D01*
X14102331Y-7867824D01*
X14052331Y-7917824D01*
X14102331Y-7967824D01*
X14102331Y-8221824D02*
X14152331Y-8171824D01*
X14102331Y-8121824D01*
X14052331Y-8171824D01*
X14102331Y-8221824D01*
X14102331Y-8475824D02*
X14152331Y-8425824D01*
X14102331Y-8375824D01*
X14052331Y-8425824D01*
X14102331Y-8475824D01*
X14102331Y-8729824D02*
X14152331Y-8679824D01*
X14102331Y-8629824D01*
X14052331Y-8679824D01*
X14102331Y-8729824D01*
X14975000Y-9125000D02*
X15025000Y-9075000D01*
X14975000Y-9025000D01*
X14925000Y-9075000D01*
X14975000Y-9125000D01*
X14975000Y-11157000D02*
X15025000Y-11107000D01*
X14975000Y-11057000D01*
X14925000Y-11107000D01*
X14975000Y-11157000D01*
X15229000Y-9125000D02*
X15279000Y-9075000D01*
X15229000Y-9025000D01*
X15179000Y-9075000D01*
X15229000Y-9125000D01*
X15229000Y-11157000D02*
X15279000Y-11107000D01*
X15229000Y-11057000D01*
X15179000Y-11107000D01*
X15229000Y-11157000D01*
X15483000Y-9125000D02*
X15533000Y-9075000D01*
X15483000Y-9025000D01*
X15433000Y-9075000D01*
X15483000Y-9125000D01*
X15483000Y-11157000D02*
X15533000Y-11107000D01*
X15483000Y-11057000D01*
X15433000Y-11107000D01*
X15483000Y-11157000D01*
X15737000Y-9125000D02*
X15787000Y-9075000D01*
X15737000Y-9025000D01*
X15687000Y-9075000D01*
X15737000Y-9125000D01*
X15737000Y-11157000D02*
X15787000Y-11107000D01*
X15737000Y-11057000D01*
X15687000Y-11107000D01*
X15737000Y-11157000D01*
X15991000Y-9125000D02*
X16041000Y-9075000D01*
X15991000Y-9025000D01*
X15941000Y-9075000D01*
X15991000Y-9125000D01*
X15991000Y-11157000D02*
X16041000Y-11107000D01*
X15991000Y-11057000D01*
X15941000Y-11107000D01*
X15991000Y-11157000D01*
X16245000Y-9125000D02*
X16295000Y-9075000D01*
X16245000Y-9025000D01*
X16195000Y-9075000D01*
X16245000Y-9125000D01*
X16245000Y-11157000D02*
X16295000Y-11107000D01*
X16245000Y-11057000D01*
X16195000Y-11107000D01*
X16245000Y-11157000D01*
X16499000Y-9125000D02*
X16549000Y-9075000D01*
X16499000Y-9025000D01*
X16449000Y-9075000D01*
X16499000Y-9125000D01*
X16499000Y-11157000D02*
X16549000Y-11107000D01*
X16499000Y-11057000D01*
X16449000Y-11107000D01*
X16499000Y-11157000D01*
X16753000Y-9125000D02*
X16803000Y-9075000D01*
X16753000Y-9025000D01*
X16703000Y-9075000D01*
X16753000Y-9125000D01*
X16753000Y-11157000D02*
X16803000Y-11107000D01*
X16753000Y-11057000D01*
X16703000Y-11107000D01*
X16753000Y-11157000D01*
X17007000Y-9125000D02*
X17057000Y-9075000D01*
X17007000Y-9025000D01*
X16957000Y-9075000D01*
X17007000Y-9125000D01*
X17007000Y-11157000D02*
X17057000Y-11107000D01*
X17007000Y-11057000D01*
X16957000Y-11107000D01*
X17007000Y-11157000D01*
X17261000Y-9125000D02*
X17311000Y-9075000D01*
X17261000Y-9025000D01*
X17211000Y-9075000D01*
X17261000Y-9125000D01*
X17261000Y-11157000D02*
X17311000Y-11107000D01*
X17261000Y-11057000D01*
X17211000Y-11107000D01*
X17261000Y-11157000D01*
X17515000Y-9125000D02*
X17565000Y-9075000D01*
X17515000Y-9025000D01*
X17465000Y-9075000D01*
X17515000Y-9125000D01*
X17515000Y-11157000D02*
X17565000Y-11107000D01*
X17515000Y-11057000D01*
X17465000Y-11107000D01*
X17515000Y-11157000D01*
X17769000Y-9125000D02*
X17819000Y-9075000D01*
X17769000Y-9025000D01*
X17719000Y-9075000D01*
X17769000Y-9125000D01*
X17769000Y-11157000D02*
X17819000Y-11107000D01*
X17769000Y-11057000D01*
X17719000Y-11107000D01*
X17769000Y-11157000D01*
X18023000Y-9125000D02*
X18073000Y-9075000D01*
X18023000Y-9025000D01*
X17973000Y-9075000D01*
X18023000Y-9125000D01*
X18277000Y-9125000D02*
X18327000Y-9075000D01*
X18277000Y-9025000D01*
X18227000Y-9075000D01*
X18277000Y-9125000D01*
X18531000Y-9125000D02*
X18581000Y-9075000D01*
X18531000Y-9025000D01*
X18481000Y-9075000D01*
X18531000Y-9125000D01*
X18785000Y-9125000D02*
X18835000Y-9075000D01*
X18785000Y-9025000D01*
X18735000Y-9075000D01*
X18785000Y-9125000D01*
D12*
X19386458Y-8044254D02*
X19496458Y-8154254D01*
X19496458Y-8044254D02*
X19386458Y-8154254D01*
X19496458Y-8099254D02*
G75*
G02*
X19386458Y-8099254I-55000J0D01*
G01*
X19386458Y-8099254D02*
G75*
G02*
X19496458Y-8099254I55000J0D01*
G01*
X19640458Y-8044254D02*
X19750458Y-8154254D01*
X19750458Y-8044254D02*
X19640458Y-8154254D01*
X19750458Y-8099254D02*
G75*
G02*
X19640458Y-8099254I-55000J0D01*
G01*
X19640458Y-8099254D02*
G75*
G02*
X19750458Y-8099254I55000J0D01*
G01*
X19894458Y-8044254D02*
X20004458Y-8154254D01*
X20004458Y-8044254D02*
X19894458Y-8154254D01*
X20004458Y-8099254D02*
G75*
G02*
X19894458Y-8099254I-55000J0D01*
G01*
X19894458Y-8099254D02*
G75*
G02*
X20004458Y-8099254I55000J0D01*
G01*
D10*
X13991541Y-12215444D02*
X13991541Y-12015444D01*
X13991541Y-12015444D02*
X14039160Y-12015444D01*
X14039160Y-12015444D02*
X14067732Y-12024967D01*
X14067732Y-12024967D02*
X14086779Y-12044015D01*
X14086779Y-12044015D02*
X14096303Y-12063063D01*
X14096303Y-12063063D02*
X14105827Y-12101158D01*
X14105827Y-12101158D02*
X14105827Y-12129729D01*
X14105827Y-12129729D02*
X14096303Y-12167825D01*
X14096303Y-12167825D02*
X14086779Y-12186872D01*
X14086779Y-12186872D02*
X14067732Y-12205920D01*
X14067732Y-12205920D02*
X14039160Y-12215444D01*
X14039160Y-12215444D02*
X13991541Y-12215444D01*
X14191541Y-12215444D02*
X14191541Y-12082110D01*
X14191541Y-12120206D02*
X14201065Y-12101158D01*
X14201065Y-12101158D02*
X14210589Y-12091634D01*
X14210589Y-12091634D02*
X14229636Y-12082110D01*
X14229636Y-12082110D02*
X14248684Y-12082110D01*
X14315351Y-12215444D02*
X14315351Y-12082110D01*
X14315351Y-12015444D02*
X14305827Y-12024967D01*
X14305827Y-12024967D02*
X14315351Y-12034491D01*
X14315351Y-12034491D02*
X14324874Y-12024967D01*
X14324874Y-12024967D02*
X14315351Y-12015444D01*
X14315351Y-12015444D02*
X14315351Y-12034491D01*
X14439160Y-12215444D02*
X14420112Y-12205920D01*
X14420112Y-12205920D02*
X14410589Y-12186872D01*
X14410589Y-12186872D02*
X14410589Y-12015444D01*
X14543922Y-12215444D02*
X14524874Y-12205920D01*
X14524874Y-12205920D02*
X14515351Y-12186872D01*
X14515351Y-12186872D02*
X14515351Y-12015444D01*
X14772493Y-12215444D02*
X14772493Y-12015444D01*
X14772493Y-12015444D02*
X14839160Y-12158301D01*
X14839160Y-12158301D02*
X14905827Y-12015444D01*
X14905827Y-12015444D02*
X14905827Y-12215444D01*
X15086779Y-12215444D02*
X15086779Y-12110682D01*
X15086779Y-12110682D02*
X15077255Y-12091634D01*
X15077255Y-12091634D02*
X15058208Y-12082110D01*
X15058208Y-12082110D02*
X15020112Y-12082110D01*
X15020112Y-12082110D02*
X15001065Y-12091634D01*
X15086779Y-12205920D02*
X15067732Y-12215444D01*
X15067732Y-12215444D02*
X15020112Y-12215444D01*
X15020112Y-12215444D02*
X15001065Y-12205920D01*
X15001065Y-12205920D02*
X14991541Y-12186872D01*
X14991541Y-12186872D02*
X14991541Y-12167825D01*
X14991541Y-12167825D02*
X15001065Y-12148777D01*
X15001065Y-12148777D02*
X15020112Y-12139253D01*
X15020112Y-12139253D02*
X15067732Y-12139253D01*
X15067732Y-12139253D02*
X15086779Y-12129729D01*
X15182017Y-12082110D02*
X15182017Y-12282110D01*
X15182017Y-12091634D02*
X15201065Y-12082110D01*
X15201065Y-12082110D02*
X15239160Y-12082110D01*
X15239160Y-12082110D02*
X15258208Y-12091634D01*
X15258208Y-12091634D02*
X15267732Y-12101158D01*
X15267732Y-12101158D02*
X15277255Y-12120206D01*
X15277255Y-12120206D02*
X15277255Y-12177348D01*
X15277255Y-12177348D02*
X15267732Y-12196396D01*
X15267732Y-12196396D02*
X15258208Y-12205920D01*
X15258208Y-12205920D02*
X15239160Y-12215444D01*
X15239160Y-12215444D02*
X15201065Y-12215444D01*
X15201065Y-12215444D02*
X15182017Y-12205920D01*
X15362970Y-12196396D02*
X15372493Y-12205920D01*
X15372493Y-12205920D02*
X15362970Y-12215444D01*
X15362970Y-12215444D02*
X15353446Y-12205920D01*
X15353446Y-12205920D02*
X15362970Y-12196396D01*
X15362970Y-12196396D02*
X15362970Y-12215444D01*
X15362970Y-12091634D02*
X15372493Y-12101158D01*
X15372493Y-12101158D02*
X15362970Y-12110682D01*
X15362970Y-12110682D02*
X15353446Y-12101158D01*
X15353446Y-12101158D02*
X15362970Y-12091634D01*
X15362970Y-12091634D02*
X15362970Y-12110682D01*
D11*
X13700764Y-12528960D02*
X13730764Y-12558960D01*
X13730764Y-12528960D02*
X13700764Y-12558960D01*
D10*
X14029636Y-12435444D02*
X14048684Y-12435444D01*
X14048684Y-12435444D02*
X14067732Y-12444967D01*
X14067732Y-12444967D02*
X14077255Y-12454491D01*
X14077255Y-12454491D02*
X14086779Y-12473539D01*
X14086779Y-12473539D02*
X14096303Y-12511634D01*
X14096303Y-12511634D02*
X14096303Y-12559253D01*
X14096303Y-12559253D02*
X14086779Y-12597348D01*
X14086779Y-12597348D02*
X14077255Y-12616396D01*
X14077255Y-12616396D02*
X14067732Y-12625920D01*
X14067732Y-12625920D02*
X14048684Y-12635444D01*
X14048684Y-12635444D02*
X14029636Y-12635444D01*
X14029636Y-12635444D02*
X14010589Y-12625920D01*
X14010589Y-12625920D02*
X14001065Y-12616396D01*
X14001065Y-12616396D02*
X13991541Y-12597348D01*
X13991541Y-12597348D02*
X13982017Y-12559253D01*
X13982017Y-12559253D02*
X13982017Y-12511634D01*
X13982017Y-12511634D02*
X13991541Y-12473539D01*
X13991541Y-12473539D02*
X14001065Y-12454491D01*
X14001065Y-12454491D02*
X14010589Y-12444967D01*
X14010589Y-12444967D02*
X14029636Y-12435444D01*
X14182017Y-12616396D02*
X14191541Y-12625920D01*
X14191541Y-12625920D02*
X14182017Y-12635444D01*
X14182017Y-12635444D02*
X14172493Y-12625920D01*
X14172493Y-12625920D02*
X14182017Y-12616396D01*
X14182017Y-12616396D02*
X14182017Y-12635444D01*
X14258208Y-12435444D02*
X14382017Y-12435444D01*
X14382017Y-12435444D02*
X14315351Y-12511634D01*
X14315351Y-12511634D02*
X14343922Y-12511634D01*
X14343922Y-12511634D02*
X14362970Y-12521158D01*
X14362970Y-12521158D02*
X14372493Y-12530682D01*
X14372493Y-12530682D02*
X14382017Y-12549729D01*
X14382017Y-12549729D02*
X14382017Y-12597348D01*
X14382017Y-12597348D02*
X14372493Y-12616396D01*
X14372493Y-12616396D02*
X14362970Y-12625920D01*
X14362970Y-12625920D02*
X14343922Y-12635444D01*
X14343922Y-12635444D02*
X14286779Y-12635444D01*
X14286779Y-12635444D02*
X14267732Y-12625920D01*
X14267732Y-12625920D02*
X14258208Y-12616396D01*
X14505827Y-12435444D02*
X14524874Y-12435444D01*
X14524874Y-12435444D02*
X14543922Y-12444967D01*
X14543922Y-12444967D02*
X14553446Y-12454491D01*
X14553446Y-12454491D02*
X14562970Y-12473539D01*
X14562970Y-12473539D02*
X14572493Y-12511634D01*
X14572493Y-12511634D02*
X14572493Y-12559253D01*
X14572493Y-12559253D02*
X14562970Y-12597348D01*
X14562970Y-12597348D02*
X14553446Y-12616396D01*
X14553446Y-12616396D02*
X14543922Y-12625920D01*
X14543922Y-12625920D02*
X14524874Y-12635444D01*
X14524874Y-12635444D02*
X14505827Y-12635444D01*
X14505827Y-12635444D02*
X14486779Y-12625920D01*
X14486779Y-12625920D02*
X14477255Y-12616396D01*
X14477255Y-12616396D02*
X14467732Y-12597348D01*
X14467732Y-12597348D02*
X14458208Y-12559253D01*
X14458208Y-12559253D02*
X14458208Y-12511634D01*
X14458208Y-12511634D02*
X14467732Y-12473539D01*
X14467732Y-12473539D02*
X14477255Y-12454491D01*
X14477255Y-12454491D02*
X14486779Y-12444967D01*
X14486779Y-12444967D02*
X14505827Y-12435444D01*
X14696303Y-12435444D02*
X14715351Y-12435444D01*
X14715351Y-12435444D02*
X14734398Y-12444967D01*
X14734398Y-12444967D02*
X14743922Y-12454491D01*
X14743922Y-12454491D02*
X14753446Y-12473539D01*
X14753446Y-12473539D02*
X14762970Y-12511634D01*
X14762970Y-12511634D02*
X14762970Y-12559253D01*
X14762970Y-12559253D02*
X14753446Y-12597348D01*
X14753446Y-12597348D02*
X14743922Y-12616396D01*
X14743922Y-12616396D02*
X14734398Y-12625920D01*
X14734398Y-12625920D02*
X14715351Y-12635444D01*
X14715351Y-12635444D02*
X14696303Y-12635444D01*
X14696303Y-12635444D02*
X14677255Y-12625920D01*
X14677255Y-12625920D02*
X14667732Y-12616396D01*
X14667732Y-12616396D02*
X14658208Y-12597348D01*
X14658208Y-12597348D02*
X14648684Y-12559253D01*
X14648684Y-12559253D02*
X14648684Y-12511634D01*
X14648684Y-12511634D02*
X14658208Y-12473539D01*
X14658208Y-12473539D02*
X14667732Y-12454491D01*
X14667732Y-12454491D02*
X14677255Y-12444967D01*
X14677255Y-12444967D02*
X14696303Y-12435444D01*
X14848684Y-12635444D02*
X14848684Y-12502110D01*
X14848684Y-12521158D02*
X14858208Y-12511634D01*
X14858208Y-12511634D02*
X14877255Y-12502110D01*
X14877255Y-12502110D02*
X14905827Y-12502110D01*
X14905827Y-12502110D02*
X14924874Y-12511634D01*
X14924874Y-12511634D02*
X14934398Y-12530682D01*
X14934398Y-12530682D02*
X14934398Y-12635444D01*
X14934398Y-12530682D02*
X14943922Y-12511634D01*
X14943922Y-12511634D02*
X14962970Y-12502110D01*
X14962970Y-12502110D02*
X14991541Y-12502110D01*
X14991541Y-12502110D02*
X15010589Y-12511634D01*
X15010589Y-12511634D02*
X15020113Y-12530682D01*
X15020113Y-12530682D02*
X15020113Y-12635444D01*
X15115351Y-12635444D02*
X15115351Y-12502110D01*
X15115351Y-12521158D02*
X15124874Y-12511634D01*
X15124874Y-12511634D02*
X15143922Y-12502110D01*
X15143922Y-12502110D02*
X15172494Y-12502110D01*
X15172494Y-12502110D02*
X15191541Y-12511634D01*
X15191541Y-12511634D02*
X15201065Y-12530682D01*
X15201065Y-12530682D02*
X15201065Y-12635444D01*
X15201065Y-12530682D02*
X15210589Y-12511634D01*
X15210589Y-12511634D02*
X15229636Y-12502110D01*
X15229636Y-12502110D02*
X15258208Y-12502110D01*
X15258208Y-12502110D02*
X15277255Y-12511634D01*
X15277255Y-12511634D02*
X15286779Y-12530682D01*
X15286779Y-12530682D02*
X15286779Y-12635444D01*
X15677255Y-12425920D02*
X15505827Y-12683063D01*
X15934398Y-12435444D02*
X15953446Y-12435444D01*
X15953446Y-12435444D02*
X15972494Y-12444967D01*
X15972494Y-12444967D02*
X15982017Y-12454491D01*
X15982017Y-12454491D02*
X15991541Y-12473539D01*
X15991541Y-12473539D02*
X16001065Y-12511634D01*
X16001065Y-12511634D02*
X16001065Y-12559253D01*
X16001065Y-12559253D02*
X15991541Y-12597348D01*
X15991541Y-12597348D02*
X15982017Y-12616396D01*
X15982017Y-12616396D02*
X15972494Y-12625920D01*
X15972494Y-12625920D02*
X15953446Y-12635444D01*
X15953446Y-12635444D02*
X15934398Y-12635444D01*
X15934398Y-12635444D02*
X15915351Y-12625920D01*
X15915351Y-12625920D02*
X15905827Y-12616396D01*
X15905827Y-12616396D02*
X15896303Y-12597348D01*
X15896303Y-12597348D02*
X15886779Y-12559253D01*
X15886779Y-12559253D02*
X15886779Y-12511634D01*
X15886779Y-12511634D02*
X15896303Y-12473539D01*
X15896303Y-12473539D02*
X15905827Y-12454491D01*
X15905827Y-12454491D02*
X15915351Y-12444967D01*
X15915351Y-12444967D02*
X15934398Y-12435444D01*
X16086779Y-12616396D02*
X16096303Y-12625920D01*
X16096303Y-12625920D02*
X16086779Y-12635444D01*
X16086779Y-12635444D02*
X16077256Y-12625920D01*
X16077256Y-12625920D02*
X16086779Y-12616396D01*
X16086779Y-12616396D02*
X16086779Y-12635444D01*
X16220113Y-12435444D02*
X16239160Y-12435444D01*
X16239160Y-12435444D02*
X16258208Y-12444967D01*
X16258208Y-12444967D02*
X16267732Y-12454491D01*
X16267732Y-12454491D02*
X16277256Y-12473539D01*
X16277256Y-12473539D02*
X16286779Y-12511634D01*
X16286779Y-12511634D02*
X16286779Y-12559253D01*
X16286779Y-12559253D02*
X16277256Y-12597348D01*
X16277256Y-12597348D02*
X16267732Y-12616396D01*
X16267732Y-12616396D02*
X16258208Y-12625920D01*
X16258208Y-12625920D02*
X16239160Y-12635444D01*
X16239160Y-12635444D02*
X16220113Y-12635444D01*
X16220113Y-12635444D02*
X16201065Y-12625920D01*
X16201065Y-12625920D02*
X16191541Y-12616396D01*
X16191541Y-12616396D02*
X16182017Y-12597348D01*
X16182017Y-12597348D02*
X16172494Y-12559253D01*
X16172494Y-12559253D02*
X16172494Y-12511634D01*
X16172494Y-12511634D02*
X16182017Y-12473539D01*
X16182017Y-12473539D02*
X16191541Y-12454491D01*
X16191541Y-12454491D02*
X16201065Y-12444967D01*
X16201065Y-12444967D02*
X16220113Y-12435444D01*
X16477256Y-12635444D02*
X16362970Y-12635444D01*
X16420113Y-12635444D02*
X16420113Y-12435444D01*
X16420113Y-12435444D02*
X16401065Y-12464015D01*
X16401065Y-12464015D02*
X16382017Y-12483063D01*
X16382017Y-12483063D02*
X16362970Y-12492586D01*
X16667732Y-12635444D02*
X16553446Y-12635444D01*
X16610589Y-12635444D02*
X16610589Y-12435444D01*
X16610589Y-12435444D02*
X16591541Y-12464015D01*
X16591541Y-12464015D02*
X16572494Y-12483063D01*
X16572494Y-12483063D02*
X16553446Y-12492586D01*
X16782018Y-12521158D02*
X16762970Y-12511634D01*
X16762970Y-12511634D02*
X16753446Y-12502110D01*
X16753446Y-12502110D02*
X16743922Y-12483063D01*
X16743922Y-12483063D02*
X16743922Y-12473539D01*
X16743922Y-12473539D02*
X16753446Y-12454491D01*
X16753446Y-12454491D02*
X16762970Y-12444967D01*
X16762970Y-12444967D02*
X16782018Y-12435444D01*
X16782018Y-12435444D02*
X16820113Y-12435444D01*
X16820113Y-12435444D02*
X16839160Y-12444967D01*
X16839160Y-12444967D02*
X16848684Y-12454491D01*
X16848684Y-12454491D02*
X16858208Y-12473539D01*
X16858208Y-12473539D02*
X16858208Y-12483063D01*
X16858208Y-12483063D02*
X16848684Y-12502110D01*
X16848684Y-12502110D02*
X16839160Y-12511634D01*
X16839160Y-12511634D02*
X16820113Y-12521158D01*
X16820113Y-12521158D02*
X16782018Y-12521158D01*
X16782018Y-12521158D02*
X16762970Y-12530682D01*
X16762970Y-12530682D02*
X16753446Y-12540206D01*
X16753446Y-12540206D02*
X16743922Y-12559253D01*
X16743922Y-12559253D02*
X16743922Y-12597348D01*
X16743922Y-12597348D02*
X16753446Y-12616396D01*
X16753446Y-12616396D02*
X16762970Y-12625920D01*
X16762970Y-12625920D02*
X16782018Y-12635444D01*
X16782018Y-12635444D02*
X16820113Y-12635444D01*
X16820113Y-12635444D02*
X16839160Y-12625920D01*
X16839160Y-12625920D02*
X16848684Y-12616396D01*
X16848684Y-12616396D02*
X16858208Y-12597348D01*
X16858208Y-12597348D02*
X16858208Y-12559253D01*
X16858208Y-12559253D02*
X16848684Y-12540206D01*
X16848684Y-12540206D02*
X16839160Y-12530682D01*
X16839160Y-12530682D02*
X16820113Y-12521158D01*
X16934399Y-12435444D02*
X16934399Y-12473539D01*
X17010589Y-12435444D02*
X17010589Y-12473539D01*
X17305827Y-12711634D02*
X17296303Y-12702110D01*
X17296303Y-12702110D02*
X17277256Y-12673539D01*
X17277256Y-12673539D02*
X17267732Y-12654491D01*
X17267732Y-12654491D02*
X17258208Y-12625920D01*
X17258208Y-12625920D02*
X17248684Y-12578301D01*
X17248684Y-12578301D02*
X17248684Y-12540206D01*
X17248684Y-12540206D02*
X17258208Y-12492586D01*
X17258208Y-12492586D02*
X17267732Y-12464015D01*
X17267732Y-12464015D02*
X17277256Y-12444967D01*
X17277256Y-12444967D02*
X17296303Y-12416396D01*
X17296303Y-12416396D02*
X17305827Y-12406872D01*
X17486780Y-12635444D02*
X17372494Y-12635444D01*
X17429637Y-12635444D02*
X17429637Y-12435444D01*
X17429637Y-12435444D02*
X17410589Y-12464015D01*
X17410589Y-12464015D02*
X17391541Y-12483063D01*
X17391541Y-12483063D02*
X17372494Y-12492586D01*
X17667732Y-12435444D02*
X17572494Y-12435444D01*
X17572494Y-12435444D02*
X17562970Y-12530682D01*
X17562970Y-12530682D02*
X17572494Y-12521158D01*
X17572494Y-12521158D02*
X17591541Y-12511634D01*
X17591541Y-12511634D02*
X17639161Y-12511634D01*
X17639161Y-12511634D02*
X17658208Y-12521158D01*
X17658208Y-12521158D02*
X17667732Y-12530682D01*
X17667732Y-12530682D02*
X17677256Y-12549729D01*
X17677256Y-12549729D02*
X17677256Y-12597348D01*
X17677256Y-12597348D02*
X17667732Y-12616396D01*
X17667732Y-12616396D02*
X17658208Y-12625920D01*
X17658208Y-12625920D02*
X17639161Y-12635444D01*
X17639161Y-12635444D02*
X17591541Y-12635444D01*
X17591541Y-12635444D02*
X17572494Y-12625920D01*
X17572494Y-12625920D02*
X17562970Y-12616396D01*
X17915351Y-12635444D02*
X17915351Y-12435444D01*
X18001065Y-12635444D02*
X18001065Y-12530682D01*
X18001065Y-12530682D02*
X17991542Y-12511634D01*
X17991542Y-12511634D02*
X17972494Y-12502110D01*
X17972494Y-12502110D02*
X17943922Y-12502110D01*
X17943922Y-12502110D02*
X17924875Y-12511634D01*
X17924875Y-12511634D02*
X17915351Y-12521158D01*
X18124875Y-12635444D02*
X18105827Y-12625920D01*
X18105827Y-12625920D02*
X18096303Y-12616396D01*
X18096303Y-12616396D02*
X18086780Y-12597348D01*
X18086780Y-12597348D02*
X18086780Y-12540206D01*
X18086780Y-12540206D02*
X18096303Y-12521158D01*
X18096303Y-12521158D02*
X18105827Y-12511634D01*
X18105827Y-12511634D02*
X18124875Y-12502110D01*
X18124875Y-12502110D02*
X18153446Y-12502110D01*
X18153446Y-12502110D02*
X18172494Y-12511634D01*
X18172494Y-12511634D02*
X18182018Y-12521158D01*
X18182018Y-12521158D02*
X18191542Y-12540206D01*
X18191542Y-12540206D02*
X18191542Y-12597348D01*
X18191542Y-12597348D02*
X18182018Y-12616396D01*
X18182018Y-12616396D02*
X18172494Y-12625920D01*
X18172494Y-12625920D02*
X18153446Y-12635444D01*
X18153446Y-12635444D02*
X18124875Y-12635444D01*
X18305827Y-12635444D02*
X18286780Y-12625920D01*
X18286780Y-12625920D02*
X18277256Y-12606872D01*
X18277256Y-12606872D02*
X18277256Y-12435444D01*
X18458208Y-12625920D02*
X18439161Y-12635444D01*
X18439161Y-12635444D02*
X18401065Y-12635444D01*
X18401065Y-12635444D02*
X18382018Y-12625920D01*
X18382018Y-12625920D02*
X18372494Y-12606872D01*
X18372494Y-12606872D02*
X18372494Y-12530682D01*
X18372494Y-12530682D02*
X18382018Y-12511634D01*
X18382018Y-12511634D02*
X18401065Y-12502110D01*
X18401065Y-12502110D02*
X18439161Y-12502110D01*
X18439161Y-12502110D02*
X18458208Y-12511634D01*
X18458208Y-12511634D02*
X18467732Y-12530682D01*
X18467732Y-12530682D02*
X18467732Y-12549729D01*
X18467732Y-12549729D02*
X18372494Y-12568777D01*
X18543923Y-12625920D02*
X18562970Y-12635444D01*
X18562970Y-12635444D02*
X18601065Y-12635444D01*
X18601065Y-12635444D02*
X18620113Y-12625920D01*
X18620113Y-12625920D02*
X18629637Y-12606872D01*
X18629637Y-12606872D02*
X18629637Y-12597348D01*
X18629637Y-12597348D02*
X18620113Y-12578301D01*
X18620113Y-12578301D02*
X18601065Y-12568777D01*
X18601065Y-12568777D02*
X18572494Y-12568777D01*
X18572494Y-12568777D02*
X18553446Y-12559253D01*
X18553446Y-12559253D02*
X18543923Y-12540206D01*
X18543923Y-12540206D02*
X18543923Y-12530682D01*
X18543923Y-12530682D02*
X18553446Y-12511634D01*
X18553446Y-12511634D02*
X18572494Y-12502110D01*
X18572494Y-12502110D02*
X18601065Y-12502110D01*
X18601065Y-12502110D02*
X18620113Y-12511634D01*
X18696304Y-12711634D02*
X18705827Y-12702110D01*
X18705827Y-12702110D02*
X18724875Y-12673539D01*
X18724875Y-12673539D02*
X18734399Y-12654491D01*
X18734399Y-12654491D02*
X18743923Y-12625920D01*
X18743923Y-12625920D02*
X18753446Y-12578301D01*
X18753446Y-12578301D02*
X18753446Y-12540206D01*
X18753446Y-12540206D02*
X18743923Y-12492586D01*
X18743923Y-12492586D02*
X18734399Y-12464015D01*
X18734399Y-12464015D02*
X18724875Y-12444967D01*
X18724875Y-12444967D02*
X18705827Y-12416396D01*
X18705827Y-12416396D02*
X18696304Y-12406872D01*
D11*
X13730764Y-12807960D02*
G75*
G02*
X13700764Y-12807960I-15000J0D01*
G01*
X13700764Y-12807960D02*
G75*
G02*
X13730764Y-12807960I15000J0D01*
G01*
D10*
X14029636Y-12699444D02*
X14048684Y-12699444D01*
X14048684Y-12699444D02*
X14067732Y-12708967D01*
X14067732Y-12708967D02*
X14077255Y-12718491D01*
X14077255Y-12718491D02*
X14086779Y-12737539D01*
X14086779Y-12737539D02*
X14096303Y-12775634D01*
X14096303Y-12775634D02*
X14096303Y-12823253D01*
X14096303Y-12823253D02*
X14086779Y-12861348D01*
X14086779Y-12861348D02*
X14077255Y-12880396D01*
X14077255Y-12880396D02*
X14067732Y-12889920D01*
X14067732Y-12889920D02*
X14048684Y-12899444D01*
X14048684Y-12899444D02*
X14029636Y-12899444D01*
X14029636Y-12899444D02*
X14010589Y-12889920D01*
X14010589Y-12889920D02*
X14001065Y-12880396D01*
X14001065Y-12880396D02*
X13991541Y-12861348D01*
X13991541Y-12861348D02*
X13982017Y-12823253D01*
X13982017Y-12823253D02*
X13982017Y-12775634D01*
X13982017Y-12775634D02*
X13991541Y-12737539D01*
X13991541Y-12737539D02*
X14001065Y-12718491D01*
X14001065Y-12718491D02*
X14010589Y-12708967D01*
X14010589Y-12708967D02*
X14029636Y-12699444D01*
X14182017Y-12880396D02*
X14191541Y-12889920D01*
X14191541Y-12889920D02*
X14182017Y-12899444D01*
X14182017Y-12899444D02*
X14172493Y-12889920D01*
X14172493Y-12889920D02*
X14182017Y-12880396D01*
X14182017Y-12880396D02*
X14182017Y-12899444D01*
X14258208Y-12699444D02*
X14382017Y-12699444D01*
X14382017Y-12699444D02*
X14315351Y-12775634D01*
X14315351Y-12775634D02*
X14343922Y-12775634D01*
X14343922Y-12775634D02*
X14362970Y-12785158D01*
X14362970Y-12785158D02*
X14372493Y-12794682D01*
X14372493Y-12794682D02*
X14382017Y-12813729D01*
X14382017Y-12813729D02*
X14382017Y-12861348D01*
X14382017Y-12861348D02*
X14372493Y-12880396D01*
X14372493Y-12880396D02*
X14362970Y-12889920D01*
X14362970Y-12889920D02*
X14343922Y-12899444D01*
X14343922Y-12899444D02*
X14286779Y-12899444D01*
X14286779Y-12899444D02*
X14267732Y-12889920D01*
X14267732Y-12889920D02*
X14258208Y-12880396D01*
X14505827Y-12699444D02*
X14524874Y-12699444D01*
X14524874Y-12699444D02*
X14543922Y-12708967D01*
X14543922Y-12708967D02*
X14553446Y-12718491D01*
X14553446Y-12718491D02*
X14562970Y-12737539D01*
X14562970Y-12737539D02*
X14572493Y-12775634D01*
X14572493Y-12775634D02*
X14572493Y-12823253D01*
X14572493Y-12823253D02*
X14562970Y-12861348D01*
X14562970Y-12861348D02*
X14553446Y-12880396D01*
X14553446Y-12880396D02*
X14543922Y-12889920D01*
X14543922Y-12889920D02*
X14524874Y-12899444D01*
X14524874Y-12899444D02*
X14505827Y-12899444D01*
X14505827Y-12899444D02*
X14486779Y-12889920D01*
X14486779Y-12889920D02*
X14477255Y-12880396D01*
X14477255Y-12880396D02*
X14467732Y-12861348D01*
X14467732Y-12861348D02*
X14458208Y-12823253D01*
X14458208Y-12823253D02*
X14458208Y-12775634D01*
X14458208Y-12775634D02*
X14467732Y-12737539D01*
X14467732Y-12737539D02*
X14477255Y-12718491D01*
X14477255Y-12718491D02*
X14486779Y-12708967D01*
X14486779Y-12708967D02*
X14505827Y-12699444D01*
X14696303Y-12699444D02*
X14715351Y-12699444D01*
X14715351Y-12699444D02*
X14734398Y-12708967D01*
X14734398Y-12708967D02*
X14743922Y-12718491D01*
X14743922Y-12718491D02*
X14753446Y-12737539D01*
X14753446Y-12737539D02*
X14762970Y-12775634D01*
X14762970Y-12775634D02*
X14762970Y-12823253D01*
X14762970Y-12823253D02*
X14753446Y-12861348D01*
X14753446Y-12861348D02*
X14743922Y-12880396D01*
X14743922Y-12880396D02*
X14734398Y-12889920D01*
X14734398Y-12889920D02*
X14715351Y-12899444D01*
X14715351Y-12899444D02*
X14696303Y-12899444D01*
X14696303Y-12899444D02*
X14677255Y-12889920D01*
X14677255Y-12889920D02*
X14667732Y-12880396D01*
X14667732Y-12880396D02*
X14658208Y-12861348D01*
X14658208Y-12861348D02*
X14648684Y-12823253D01*
X14648684Y-12823253D02*
X14648684Y-12775634D01*
X14648684Y-12775634D02*
X14658208Y-12737539D01*
X14658208Y-12737539D02*
X14667732Y-12718491D01*
X14667732Y-12718491D02*
X14677255Y-12708967D01*
X14677255Y-12708967D02*
X14696303Y-12699444D01*
X14848684Y-12899444D02*
X14848684Y-12766110D01*
X14848684Y-12785158D02*
X14858208Y-12775634D01*
X14858208Y-12775634D02*
X14877255Y-12766110D01*
X14877255Y-12766110D02*
X14905827Y-12766110D01*
X14905827Y-12766110D02*
X14924874Y-12775634D01*
X14924874Y-12775634D02*
X14934398Y-12794682D01*
X14934398Y-12794682D02*
X14934398Y-12899444D01*
X14934398Y-12794682D02*
X14943922Y-12775634D01*
X14943922Y-12775634D02*
X14962970Y-12766110D01*
X14962970Y-12766110D02*
X14991541Y-12766110D01*
X14991541Y-12766110D02*
X15010589Y-12775634D01*
X15010589Y-12775634D02*
X15020113Y-12794682D01*
X15020113Y-12794682D02*
X15020113Y-12899444D01*
X15115351Y-12899444D02*
X15115351Y-12766110D01*
X15115351Y-12785158D02*
X15124874Y-12775634D01*
X15124874Y-12775634D02*
X15143922Y-12766110D01*
X15143922Y-12766110D02*
X15172494Y-12766110D01*
X15172494Y-12766110D02*
X15191541Y-12775634D01*
X15191541Y-12775634D02*
X15201065Y-12794682D01*
X15201065Y-12794682D02*
X15201065Y-12899444D01*
X15201065Y-12794682D02*
X15210589Y-12775634D01*
X15210589Y-12775634D02*
X15229636Y-12766110D01*
X15229636Y-12766110D02*
X15258208Y-12766110D01*
X15258208Y-12766110D02*
X15277255Y-12775634D01*
X15277255Y-12775634D02*
X15286779Y-12794682D01*
X15286779Y-12794682D02*
X15286779Y-12899444D01*
X15677255Y-12689920D02*
X15505827Y-12947063D01*
X15934398Y-12699444D02*
X15953446Y-12699444D01*
X15953446Y-12699444D02*
X15972494Y-12708967D01*
X15972494Y-12708967D02*
X15982017Y-12718491D01*
X15982017Y-12718491D02*
X15991541Y-12737539D01*
X15991541Y-12737539D02*
X16001065Y-12775634D01*
X16001065Y-12775634D02*
X16001065Y-12823253D01*
X16001065Y-12823253D02*
X15991541Y-12861348D01*
X15991541Y-12861348D02*
X15982017Y-12880396D01*
X15982017Y-12880396D02*
X15972494Y-12889920D01*
X15972494Y-12889920D02*
X15953446Y-12899444D01*
X15953446Y-12899444D02*
X15934398Y-12899444D01*
X15934398Y-12899444D02*
X15915351Y-12889920D01*
X15915351Y-12889920D02*
X15905827Y-12880396D01*
X15905827Y-12880396D02*
X15896303Y-12861348D01*
X15896303Y-12861348D02*
X15886779Y-12823253D01*
X15886779Y-12823253D02*
X15886779Y-12775634D01*
X15886779Y-12775634D02*
X15896303Y-12737539D01*
X15896303Y-12737539D02*
X15905827Y-12718491D01*
X15905827Y-12718491D02*
X15915351Y-12708967D01*
X15915351Y-12708967D02*
X15934398Y-12699444D01*
X16086779Y-12880396D02*
X16096303Y-12889920D01*
X16096303Y-12889920D02*
X16086779Y-12899444D01*
X16086779Y-12899444D02*
X16077256Y-12889920D01*
X16077256Y-12889920D02*
X16086779Y-12880396D01*
X16086779Y-12880396D02*
X16086779Y-12899444D01*
X16220113Y-12699444D02*
X16239160Y-12699444D01*
X16239160Y-12699444D02*
X16258208Y-12708967D01*
X16258208Y-12708967D02*
X16267732Y-12718491D01*
X16267732Y-12718491D02*
X16277256Y-12737539D01*
X16277256Y-12737539D02*
X16286779Y-12775634D01*
X16286779Y-12775634D02*
X16286779Y-12823253D01*
X16286779Y-12823253D02*
X16277256Y-12861348D01*
X16277256Y-12861348D02*
X16267732Y-12880396D01*
X16267732Y-12880396D02*
X16258208Y-12889920D01*
X16258208Y-12889920D02*
X16239160Y-12899444D01*
X16239160Y-12899444D02*
X16220113Y-12899444D01*
X16220113Y-12899444D02*
X16201065Y-12889920D01*
X16201065Y-12889920D02*
X16191541Y-12880396D01*
X16191541Y-12880396D02*
X16182017Y-12861348D01*
X16182017Y-12861348D02*
X16172494Y-12823253D01*
X16172494Y-12823253D02*
X16172494Y-12775634D01*
X16172494Y-12775634D02*
X16182017Y-12737539D01*
X16182017Y-12737539D02*
X16191541Y-12718491D01*
X16191541Y-12718491D02*
X16201065Y-12708967D01*
X16201065Y-12708967D02*
X16220113Y-12699444D01*
X16477256Y-12899444D02*
X16362970Y-12899444D01*
X16420113Y-12899444D02*
X16420113Y-12699444D01*
X16420113Y-12699444D02*
X16401065Y-12728015D01*
X16401065Y-12728015D02*
X16382017Y-12747063D01*
X16382017Y-12747063D02*
X16362970Y-12756586D01*
X16667732Y-12899444D02*
X16553446Y-12899444D01*
X16610589Y-12899444D02*
X16610589Y-12699444D01*
X16610589Y-12699444D02*
X16591541Y-12728015D01*
X16591541Y-12728015D02*
X16572494Y-12747063D01*
X16572494Y-12747063D02*
X16553446Y-12756586D01*
X16782018Y-12785158D02*
X16762970Y-12775634D01*
X16762970Y-12775634D02*
X16753446Y-12766110D01*
X16753446Y-12766110D02*
X16743922Y-12747063D01*
X16743922Y-12747063D02*
X16743922Y-12737539D01*
X16743922Y-12737539D02*
X16753446Y-12718491D01*
X16753446Y-12718491D02*
X16762970Y-12708967D01*
X16762970Y-12708967D02*
X16782018Y-12699444D01*
X16782018Y-12699444D02*
X16820113Y-12699444D01*
X16820113Y-12699444D02*
X16839160Y-12708967D01*
X16839160Y-12708967D02*
X16848684Y-12718491D01*
X16848684Y-12718491D02*
X16858208Y-12737539D01*
X16858208Y-12737539D02*
X16858208Y-12747063D01*
X16858208Y-12747063D02*
X16848684Y-12766110D01*
X16848684Y-12766110D02*
X16839160Y-12775634D01*
X16839160Y-12775634D02*
X16820113Y-12785158D01*
X16820113Y-12785158D02*
X16782018Y-12785158D01*
X16782018Y-12785158D02*
X16762970Y-12794682D01*
X16762970Y-12794682D02*
X16753446Y-12804206D01*
X16753446Y-12804206D02*
X16743922Y-12823253D01*
X16743922Y-12823253D02*
X16743922Y-12861348D01*
X16743922Y-12861348D02*
X16753446Y-12880396D01*
X16753446Y-12880396D02*
X16762970Y-12889920D01*
X16762970Y-12889920D02*
X16782018Y-12899444D01*
X16782018Y-12899444D02*
X16820113Y-12899444D01*
X16820113Y-12899444D02*
X16839160Y-12889920D01*
X16839160Y-12889920D02*
X16848684Y-12880396D01*
X16848684Y-12880396D02*
X16858208Y-12861348D01*
X16858208Y-12861348D02*
X16858208Y-12823253D01*
X16858208Y-12823253D02*
X16848684Y-12804206D01*
X16848684Y-12804206D02*
X16839160Y-12794682D01*
X16839160Y-12794682D02*
X16820113Y-12785158D01*
X16934399Y-12699444D02*
X16934399Y-12737539D01*
X17010589Y-12699444D02*
X17010589Y-12737539D01*
X17305827Y-12975634D02*
X17296303Y-12966110D01*
X17296303Y-12966110D02*
X17277256Y-12937539D01*
X17277256Y-12937539D02*
X17267732Y-12918491D01*
X17267732Y-12918491D02*
X17258208Y-12889920D01*
X17258208Y-12889920D02*
X17248684Y-12842301D01*
X17248684Y-12842301D02*
X17248684Y-12804206D01*
X17248684Y-12804206D02*
X17258208Y-12756586D01*
X17258208Y-12756586D02*
X17267732Y-12728015D01*
X17267732Y-12728015D02*
X17277256Y-12708967D01*
X17277256Y-12708967D02*
X17296303Y-12680396D01*
X17296303Y-12680396D02*
X17305827Y-12670872D01*
X17467732Y-12766110D02*
X17467732Y-12899444D01*
X17420113Y-12689920D02*
X17372494Y-12832777D01*
X17372494Y-12832777D02*
X17496303Y-12832777D01*
X17724875Y-12899444D02*
X17724875Y-12699444D01*
X17810589Y-12899444D02*
X17810589Y-12794682D01*
X17810589Y-12794682D02*
X17801065Y-12775634D01*
X17801065Y-12775634D02*
X17782018Y-12766110D01*
X17782018Y-12766110D02*
X17753446Y-12766110D01*
X17753446Y-12766110D02*
X17734399Y-12775634D01*
X17734399Y-12775634D02*
X17724875Y-12785158D01*
X17934399Y-12899444D02*
X17915351Y-12889920D01*
X17915351Y-12889920D02*
X17905827Y-12880396D01*
X17905827Y-12880396D02*
X17896303Y-12861348D01*
X17896303Y-12861348D02*
X17896303Y-12804206D01*
X17896303Y-12804206D02*
X17905827Y-12785158D01*
X17905827Y-12785158D02*
X17915351Y-12775634D01*
X17915351Y-12775634D02*
X17934399Y-12766110D01*
X17934399Y-12766110D02*
X17962970Y-12766110D01*
X17962970Y-12766110D02*
X17982018Y-12775634D01*
X17982018Y-12775634D02*
X17991542Y-12785158D01*
X17991542Y-12785158D02*
X18001065Y-12804206D01*
X18001065Y-12804206D02*
X18001065Y-12861348D01*
X18001065Y-12861348D02*
X17991542Y-12880396D01*
X17991542Y-12880396D02*
X17982018Y-12889920D01*
X17982018Y-12889920D02*
X17962970Y-12899444D01*
X17962970Y-12899444D02*
X17934399Y-12899444D01*
X18115351Y-12899444D02*
X18096303Y-12889920D01*
X18096303Y-12889920D02*
X18086780Y-12870872D01*
X18086780Y-12870872D02*
X18086780Y-12699444D01*
X18267732Y-12889920D02*
X18248684Y-12899444D01*
X18248684Y-12899444D02*
X18210589Y-12899444D01*
X18210589Y-12899444D02*
X18191542Y-12889920D01*
X18191542Y-12889920D02*
X18182018Y-12870872D01*
X18182018Y-12870872D02*
X18182018Y-12794682D01*
X18182018Y-12794682D02*
X18191542Y-12775634D01*
X18191542Y-12775634D02*
X18210589Y-12766110D01*
X18210589Y-12766110D02*
X18248684Y-12766110D01*
X18248684Y-12766110D02*
X18267732Y-12775634D01*
X18267732Y-12775634D02*
X18277256Y-12794682D01*
X18277256Y-12794682D02*
X18277256Y-12813729D01*
X18277256Y-12813729D02*
X18182018Y-12832777D01*
X18353446Y-12889920D02*
X18372494Y-12899444D01*
X18372494Y-12899444D02*
X18410589Y-12899444D01*
X18410589Y-12899444D02*
X18429637Y-12889920D01*
X18429637Y-12889920D02*
X18439161Y-12870872D01*
X18439161Y-12870872D02*
X18439161Y-12861348D01*
X18439161Y-12861348D02*
X18429637Y-12842301D01*
X18429637Y-12842301D02*
X18410589Y-12832777D01*
X18410589Y-12832777D02*
X18382018Y-12832777D01*
X18382018Y-12832777D02*
X18362970Y-12823253D01*
X18362970Y-12823253D02*
X18353446Y-12804206D01*
X18353446Y-12804206D02*
X18353446Y-12794682D01*
X18353446Y-12794682D02*
X18362970Y-12775634D01*
X18362970Y-12775634D02*
X18382018Y-12766110D01*
X18382018Y-12766110D02*
X18410589Y-12766110D01*
X18410589Y-12766110D02*
X18429637Y-12775634D01*
X18505827Y-12975634D02*
X18515351Y-12966110D01*
X18515351Y-12966110D02*
X18534399Y-12937539D01*
X18534399Y-12937539D02*
X18543923Y-12918491D01*
X18543923Y-12918491D02*
X18553446Y-12889920D01*
X18553446Y-12889920D02*
X18562970Y-12842301D01*
X18562970Y-12842301D02*
X18562970Y-12804206D01*
X18562970Y-12804206D02*
X18553446Y-12756586D01*
X18553446Y-12756586D02*
X18543923Y-12728015D01*
X18543923Y-12728015D02*
X18534399Y-12708967D01*
X18534399Y-12708967D02*
X18515351Y-12680396D01*
X18515351Y-12680396D02*
X18505827Y-12670872D01*
D11*
X13695764Y-13036960D02*
X13695764Y-13106960D01*
X13660764Y-13071960D02*
X13730764Y-13071960D01*
D10*
X14029636Y-12963444D02*
X14048684Y-12963444D01*
X14048684Y-12963444D02*
X14067732Y-12972967D01*
X14067732Y-12972967D02*
X14077255Y-12982491D01*
X14077255Y-12982491D02*
X14086779Y-13001539D01*
X14086779Y-13001539D02*
X14096303Y-13039634D01*
X14096303Y-13039634D02*
X14096303Y-13087253D01*
X14096303Y-13087253D02*
X14086779Y-13125348D01*
X14086779Y-13125348D02*
X14077255Y-13144396D01*
X14077255Y-13144396D02*
X14067732Y-13153920D01*
X14067732Y-13153920D02*
X14048684Y-13163444D01*
X14048684Y-13163444D02*
X14029636Y-13163444D01*
X14029636Y-13163444D02*
X14010589Y-13153920D01*
X14010589Y-13153920D02*
X14001065Y-13144396D01*
X14001065Y-13144396D02*
X13991541Y-13125348D01*
X13991541Y-13125348D02*
X13982017Y-13087253D01*
X13982017Y-13087253D02*
X13982017Y-13039634D01*
X13982017Y-13039634D02*
X13991541Y-13001539D01*
X13991541Y-13001539D02*
X14001065Y-12982491D01*
X14001065Y-12982491D02*
X14010589Y-12972967D01*
X14010589Y-12972967D02*
X14029636Y-12963444D01*
X14182017Y-13144396D02*
X14191541Y-13153920D01*
X14191541Y-13153920D02*
X14182017Y-13163444D01*
X14182017Y-13163444D02*
X14172493Y-13153920D01*
X14172493Y-13153920D02*
X14182017Y-13144396D01*
X14182017Y-13144396D02*
X14182017Y-13163444D01*
X14258208Y-12963444D02*
X14391541Y-12963444D01*
X14391541Y-12963444D02*
X14305827Y-13163444D01*
X14505827Y-12963444D02*
X14524874Y-12963444D01*
X14524874Y-12963444D02*
X14543922Y-12972967D01*
X14543922Y-12972967D02*
X14553446Y-12982491D01*
X14553446Y-12982491D02*
X14562970Y-13001539D01*
X14562970Y-13001539D02*
X14572493Y-13039634D01*
X14572493Y-13039634D02*
X14572493Y-13087253D01*
X14572493Y-13087253D02*
X14562970Y-13125348D01*
X14562970Y-13125348D02*
X14553446Y-13144396D01*
X14553446Y-13144396D02*
X14543922Y-13153920D01*
X14543922Y-13153920D02*
X14524874Y-13163444D01*
X14524874Y-13163444D02*
X14505827Y-13163444D01*
X14505827Y-13163444D02*
X14486779Y-13153920D01*
X14486779Y-13153920D02*
X14477255Y-13144396D01*
X14477255Y-13144396D02*
X14467732Y-13125348D01*
X14467732Y-13125348D02*
X14458208Y-13087253D01*
X14458208Y-13087253D02*
X14458208Y-13039634D01*
X14458208Y-13039634D02*
X14467732Y-13001539D01*
X14467732Y-13001539D02*
X14477255Y-12982491D01*
X14477255Y-12982491D02*
X14486779Y-12972967D01*
X14486779Y-12972967D02*
X14505827Y-12963444D01*
X14696303Y-12963444D02*
X14715351Y-12963444D01*
X14715351Y-12963444D02*
X14734398Y-12972967D01*
X14734398Y-12972967D02*
X14743922Y-12982491D01*
X14743922Y-12982491D02*
X14753446Y-13001539D01*
X14753446Y-13001539D02*
X14762970Y-13039634D01*
X14762970Y-13039634D02*
X14762970Y-13087253D01*
X14762970Y-13087253D02*
X14753446Y-13125348D01*
X14753446Y-13125348D02*
X14743922Y-13144396D01*
X14743922Y-13144396D02*
X14734398Y-13153920D01*
X14734398Y-13153920D02*
X14715351Y-13163444D01*
X14715351Y-13163444D02*
X14696303Y-13163444D01*
X14696303Y-13163444D02*
X14677255Y-13153920D01*
X14677255Y-13153920D02*
X14667732Y-13144396D01*
X14667732Y-13144396D02*
X14658208Y-13125348D01*
X14658208Y-13125348D02*
X14648684Y-13087253D01*
X14648684Y-13087253D02*
X14648684Y-13039634D01*
X14648684Y-13039634D02*
X14658208Y-13001539D01*
X14658208Y-13001539D02*
X14667732Y-12982491D01*
X14667732Y-12982491D02*
X14677255Y-12972967D01*
X14677255Y-12972967D02*
X14696303Y-12963444D01*
X14848684Y-13163444D02*
X14848684Y-13030110D01*
X14848684Y-13049158D02*
X14858208Y-13039634D01*
X14858208Y-13039634D02*
X14877255Y-13030110D01*
X14877255Y-13030110D02*
X14905827Y-13030110D01*
X14905827Y-13030110D02*
X14924874Y-13039634D01*
X14924874Y-13039634D02*
X14934398Y-13058682D01*
X14934398Y-13058682D02*
X14934398Y-13163444D01*
X14934398Y-13058682D02*
X14943922Y-13039634D01*
X14943922Y-13039634D02*
X14962970Y-13030110D01*
X14962970Y-13030110D02*
X14991541Y-13030110D01*
X14991541Y-13030110D02*
X15010589Y-13039634D01*
X15010589Y-13039634D02*
X15020113Y-13058682D01*
X15020113Y-13058682D02*
X15020113Y-13163444D01*
X15115351Y-13163444D02*
X15115351Y-13030110D01*
X15115351Y-13049158D02*
X15124874Y-13039634D01*
X15124874Y-13039634D02*
X15143922Y-13030110D01*
X15143922Y-13030110D02*
X15172494Y-13030110D01*
X15172494Y-13030110D02*
X15191541Y-13039634D01*
X15191541Y-13039634D02*
X15201065Y-13058682D01*
X15201065Y-13058682D02*
X15201065Y-13163444D01*
X15201065Y-13058682D02*
X15210589Y-13039634D01*
X15210589Y-13039634D02*
X15229636Y-13030110D01*
X15229636Y-13030110D02*
X15258208Y-13030110D01*
X15258208Y-13030110D02*
X15277255Y-13039634D01*
X15277255Y-13039634D02*
X15286779Y-13058682D01*
X15286779Y-13058682D02*
X15286779Y-13163444D01*
X15677255Y-12953920D02*
X15505827Y-13211063D01*
X15934398Y-12963444D02*
X15953446Y-12963444D01*
X15953446Y-12963444D02*
X15972494Y-12972967D01*
X15972494Y-12972967D02*
X15982017Y-12982491D01*
X15982017Y-12982491D02*
X15991541Y-13001539D01*
X15991541Y-13001539D02*
X16001065Y-13039634D01*
X16001065Y-13039634D02*
X16001065Y-13087253D01*
X16001065Y-13087253D02*
X15991541Y-13125348D01*
X15991541Y-13125348D02*
X15982017Y-13144396D01*
X15982017Y-13144396D02*
X15972494Y-13153920D01*
X15972494Y-13153920D02*
X15953446Y-13163444D01*
X15953446Y-13163444D02*
X15934398Y-13163444D01*
X15934398Y-13163444D02*
X15915351Y-13153920D01*
X15915351Y-13153920D02*
X15905827Y-13144396D01*
X15905827Y-13144396D02*
X15896303Y-13125348D01*
X15896303Y-13125348D02*
X15886779Y-13087253D01*
X15886779Y-13087253D02*
X15886779Y-13039634D01*
X15886779Y-13039634D02*
X15896303Y-13001539D01*
X15896303Y-13001539D02*
X15905827Y-12982491D01*
X15905827Y-12982491D02*
X15915351Y-12972967D01*
X15915351Y-12972967D02*
X15934398Y-12963444D01*
X16086779Y-13144396D02*
X16096303Y-13153920D01*
X16096303Y-13153920D02*
X16086779Y-13163444D01*
X16086779Y-13163444D02*
X16077256Y-13153920D01*
X16077256Y-13153920D02*
X16086779Y-13144396D01*
X16086779Y-13144396D02*
X16086779Y-13163444D01*
X16220113Y-12963444D02*
X16239160Y-12963444D01*
X16239160Y-12963444D02*
X16258208Y-12972967D01*
X16258208Y-12972967D02*
X16267732Y-12982491D01*
X16267732Y-12982491D02*
X16277256Y-13001539D01*
X16277256Y-13001539D02*
X16286779Y-13039634D01*
X16286779Y-13039634D02*
X16286779Y-13087253D01*
X16286779Y-13087253D02*
X16277256Y-13125348D01*
X16277256Y-13125348D02*
X16267732Y-13144396D01*
X16267732Y-13144396D02*
X16258208Y-13153920D01*
X16258208Y-13153920D02*
X16239160Y-13163444D01*
X16239160Y-13163444D02*
X16220113Y-13163444D01*
X16220113Y-13163444D02*
X16201065Y-13153920D01*
X16201065Y-13153920D02*
X16191541Y-13144396D01*
X16191541Y-13144396D02*
X16182017Y-13125348D01*
X16182017Y-13125348D02*
X16172494Y-13087253D01*
X16172494Y-13087253D02*
X16172494Y-13039634D01*
X16172494Y-13039634D02*
X16182017Y-13001539D01*
X16182017Y-13001539D02*
X16191541Y-12982491D01*
X16191541Y-12982491D02*
X16201065Y-12972967D01*
X16201065Y-12972967D02*
X16220113Y-12963444D01*
X16362970Y-12982491D02*
X16372494Y-12972967D01*
X16372494Y-12972967D02*
X16391541Y-12963444D01*
X16391541Y-12963444D02*
X16439160Y-12963444D01*
X16439160Y-12963444D02*
X16458208Y-12972967D01*
X16458208Y-12972967D02*
X16467732Y-12982491D01*
X16467732Y-12982491D02*
X16477256Y-13001539D01*
X16477256Y-13001539D02*
X16477256Y-13020586D01*
X16477256Y-13020586D02*
X16467732Y-13049158D01*
X16467732Y-13049158D02*
X16353446Y-13163444D01*
X16353446Y-13163444D02*
X16477256Y-13163444D01*
X16543922Y-12963444D02*
X16677256Y-12963444D01*
X16677256Y-12963444D02*
X16591541Y-13163444D01*
X16839160Y-12963444D02*
X16801065Y-12963444D01*
X16801065Y-12963444D02*
X16782018Y-12972967D01*
X16782018Y-12972967D02*
X16772494Y-12982491D01*
X16772494Y-12982491D02*
X16753446Y-13011063D01*
X16753446Y-13011063D02*
X16743922Y-13049158D01*
X16743922Y-13049158D02*
X16743922Y-13125348D01*
X16743922Y-13125348D02*
X16753446Y-13144396D01*
X16753446Y-13144396D02*
X16762970Y-13153920D01*
X16762970Y-13153920D02*
X16782018Y-13163444D01*
X16782018Y-13163444D02*
X16820113Y-13163444D01*
X16820113Y-13163444D02*
X16839160Y-13153920D01*
X16839160Y-13153920D02*
X16848684Y-13144396D01*
X16848684Y-13144396D02*
X16858208Y-13125348D01*
X16858208Y-13125348D02*
X16858208Y-13077729D01*
X16858208Y-13077729D02*
X16848684Y-13058682D01*
X16848684Y-13058682D02*
X16839160Y-13049158D01*
X16839160Y-13049158D02*
X16820113Y-13039634D01*
X16820113Y-13039634D02*
X16782018Y-13039634D01*
X16782018Y-13039634D02*
X16762970Y-13049158D01*
X16762970Y-13049158D02*
X16753446Y-13058682D01*
X16753446Y-13058682D02*
X16743922Y-13077729D01*
X16934399Y-12963444D02*
X16934399Y-13001539D01*
X17010589Y-12963444D02*
X17010589Y-13001539D01*
X17305827Y-13239634D02*
X17296303Y-13230110D01*
X17296303Y-13230110D02*
X17277256Y-13201539D01*
X17277256Y-13201539D02*
X17267732Y-13182491D01*
X17267732Y-13182491D02*
X17258208Y-13153920D01*
X17258208Y-13153920D02*
X17248684Y-13106301D01*
X17248684Y-13106301D02*
X17248684Y-13068206D01*
X17248684Y-13068206D02*
X17258208Y-13020586D01*
X17258208Y-13020586D02*
X17267732Y-12992015D01*
X17267732Y-12992015D02*
X17277256Y-12972967D01*
X17277256Y-12972967D02*
X17296303Y-12944396D01*
X17296303Y-12944396D02*
X17305827Y-12934872D01*
X17467732Y-13030110D02*
X17467732Y-13163444D01*
X17420113Y-12953920D02*
X17372494Y-13096777D01*
X17372494Y-13096777D02*
X17496303Y-13096777D01*
X17724875Y-13163444D02*
X17724875Y-12963444D01*
X17810589Y-13163444D02*
X17810589Y-13058682D01*
X17810589Y-13058682D02*
X17801065Y-13039634D01*
X17801065Y-13039634D02*
X17782018Y-13030110D01*
X17782018Y-13030110D02*
X17753446Y-13030110D01*
X17753446Y-13030110D02*
X17734399Y-13039634D01*
X17734399Y-13039634D02*
X17724875Y-13049158D01*
X17934399Y-13163444D02*
X17915351Y-13153920D01*
X17915351Y-13153920D02*
X17905827Y-13144396D01*
X17905827Y-13144396D02*
X17896303Y-13125348D01*
X17896303Y-13125348D02*
X17896303Y-13068206D01*
X17896303Y-13068206D02*
X17905827Y-13049158D01*
X17905827Y-13049158D02*
X17915351Y-13039634D01*
X17915351Y-13039634D02*
X17934399Y-13030110D01*
X17934399Y-13030110D02*
X17962970Y-13030110D01*
X17962970Y-13030110D02*
X17982018Y-13039634D01*
X17982018Y-13039634D02*
X17991542Y-13049158D01*
X17991542Y-13049158D02*
X18001065Y-13068206D01*
X18001065Y-13068206D02*
X18001065Y-13125348D01*
X18001065Y-13125348D02*
X17991542Y-13144396D01*
X17991542Y-13144396D02*
X17982018Y-13153920D01*
X17982018Y-13153920D02*
X17962970Y-13163444D01*
X17962970Y-13163444D02*
X17934399Y-13163444D01*
X18115351Y-13163444D02*
X18096303Y-13153920D01*
X18096303Y-13153920D02*
X18086780Y-13134872D01*
X18086780Y-13134872D02*
X18086780Y-12963444D01*
X18267732Y-13153920D02*
X18248684Y-13163444D01*
X18248684Y-13163444D02*
X18210589Y-13163444D01*
X18210589Y-13163444D02*
X18191542Y-13153920D01*
X18191542Y-13153920D02*
X18182018Y-13134872D01*
X18182018Y-13134872D02*
X18182018Y-13058682D01*
X18182018Y-13058682D02*
X18191542Y-13039634D01*
X18191542Y-13039634D02*
X18210589Y-13030110D01*
X18210589Y-13030110D02*
X18248684Y-13030110D01*
X18248684Y-13030110D02*
X18267732Y-13039634D01*
X18267732Y-13039634D02*
X18277256Y-13058682D01*
X18277256Y-13058682D02*
X18277256Y-13077729D01*
X18277256Y-13077729D02*
X18182018Y-13096777D01*
X18353446Y-13153920D02*
X18372494Y-13163444D01*
X18372494Y-13163444D02*
X18410589Y-13163444D01*
X18410589Y-13163444D02*
X18429637Y-13153920D01*
X18429637Y-13153920D02*
X18439161Y-13134872D01*
X18439161Y-13134872D02*
X18439161Y-13125348D01*
X18439161Y-13125348D02*
X18429637Y-13106301D01*
X18429637Y-13106301D02*
X18410589Y-13096777D01*
X18410589Y-13096777D02*
X18382018Y-13096777D01*
X18382018Y-13096777D02*
X18362970Y-13087253D01*
X18362970Y-13087253D02*
X18353446Y-13068206D01*
X18353446Y-13068206D02*
X18353446Y-13058682D01*
X18353446Y-13058682D02*
X18362970Y-13039634D01*
X18362970Y-13039634D02*
X18382018Y-13030110D01*
X18382018Y-13030110D02*
X18410589Y-13030110D01*
X18410589Y-13030110D02*
X18429637Y-13039634D01*
X18505827Y-13239634D02*
X18515351Y-13230110D01*
X18515351Y-13230110D02*
X18534399Y-13201539D01*
X18534399Y-13201539D02*
X18543923Y-13182491D01*
X18543923Y-13182491D02*
X18553446Y-13153920D01*
X18553446Y-13153920D02*
X18562970Y-13106301D01*
X18562970Y-13106301D02*
X18562970Y-13068206D01*
X18562970Y-13068206D02*
X18553446Y-13020586D01*
X18553446Y-13020586D02*
X18543923Y-12992015D01*
X18543923Y-12992015D02*
X18534399Y-12972967D01*
X18534399Y-12972967D02*
X18515351Y-12944396D01*
X18515351Y-12944396D02*
X18505827Y-12934872D01*
D11*
X13719049Y-13364244D02*
X13719049Y-13307675D01*
X13662480Y-13307675D01*
X13662480Y-13364244D01*
X13719049Y-13364244D01*
D10*
X14029636Y-13227444D02*
X14048684Y-13227444D01*
X14048684Y-13227444D02*
X14067732Y-13236967D01*
X14067732Y-13236967D02*
X14077255Y-13246491D01*
X14077255Y-13246491D02*
X14086779Y-13265539D01*
X14086779Y-13265539D02*
X14096303Y-13303634D01*
X14096303Y-13303634D02*
X14096303Y-13351253D01*
X14096303Y-13351253D02*
X14086779Y-13389348D01*
X14086779Y-13389348D02*
X14077255Y-13408396D01*
X14077255Y-13408396D02*
X14067732Y-13417920D01*
X14067732Y-13417920D02*
X14048684Y-13427444D01*
X14048684Y-13427444D02*
X14029636Y-13427444D01*
X14029636Y-13427444D02*
X14010589Y-13417920D01*
X14010589Y-13417920D02*
X14001065Y-13408396D01*
X14001065Y-13408396D02*
X13991541Y-13389348D01*
X13991541Y-13389348D02*
X13982017Y-13351253D01*
X13982017Y-13351253D02*
X13982017Y-13303634D01*
X13982017Y-13303634D02*
X13991541Y-13265539D01*
X13991541Y-13265539D02*
X14001065Y-13246491D01*
X14001065Y-13246491D02*
X14010589Y-13236967D01*
X14010589Y-13236967D02*
X14029636Y-13227444D01*
X14182017Y-13408396D02*
X14191541Y-13417920D01*
X14191541Y-13417920D02*
X14182017Y-13427444D01*
X14182017Y-13427444D02*
X14172493Y-13417920D01*
X14172493Y-13417920D02*
X14182017Y-13408396D01*
X14182017Y-13408396D02*
X14182017Y-13427444D01*
X14305827Y-13313158D02*
X14286779Y-13303634D01*
X14286779Y-13303634D02*
X14277255Y-13294110D01*
X14277255Y-13294110D02*
X14267732Y-13275063D01*
X14267732Y-13275063D02*
X14267732Y-13265539D01*
X14267732Y-13265539D02*
X14277255Y-13246491D01*
X14277255Y-13246491D02*
X14286779Y-13236967D01*
X14286779Y-13236967D02*
X14305827Y-13227444D01*
X14305827Y-13227444D02*
X14343922Y-13227444D01*
X14343922Y-13227444D02*
X14362970Y-13236967D01*
X14362970Y-13236967D02*
X14372493Y-13246491D01*
X14372493Y-13246491D02*
X14382017Y-13265539D01*
X14382017Y-13265539D02*
X14382017Y-13275063D01*
X14382017Y-13275063D02*
X14372493Y-13294110D01*
X14372493Y-13294110D02*
X14362970Y-13303634D01*
X14362970Y-13303634D02*
X14343922Y-13313158D01*
X14343922Y-13313158D02*
X14305827Y-13313158D01*
X14305827Y-13313158D02*
X14286779Y-13322682D01*
X14286779Y-13322682D02*
X14277255Y-13332206D01*
X14277255Y-13332206D02*
X14267732Y-13351253D01*
X14267732Y-13351253D02*
X14267732Y-13389348D01*
X14267732Y-13389348D02*
X14277255Y-13408396D01*
X14277255Y-13408396D02*
X14286779Y-13417920D01*
X14286779Y-13417920D02*
X14305827Y-13427444D01*
X14305827Y-13427444D02*
X14343922Y-13427444D01*
X14343922Y-13427444D02*
X14362970Y-13417920D01*
X14362970Y-13417920D02*
X14372493Y-13408396D01*
X14372493Y-13408396D02*
X14382017Y-13389348D01*
X14382017Y-13389348D02*
X14382017Y-13351253D01*
X14382017Y-13351253D02*
X14372493Y-13332206D01*
X14372493Y-13332206D02*
X14362970Y-13322682D01*
X14362970Y-13322682D02*
X14343922Y-13313158D01*
X14505827Y-13227444D02*
X14524874Y-13227444D01*
X14524874Y-13227444D02*
X14543922Y-13236967D01*
X14543922Y-13236967D02*
X14553446Y-13246491D01*
X14553446Y-13246491D02*
X14562970Y-13265539D01*
X14562970Y-13265539D02*
X14572493Y-13303634D01*
X14572493Y-13303634D02*
X14572493Y-13351253D01*
X14572493Y-13351253D02*
X14562970Y-13389348D01*
X14562970Y-13389348D02*
X14553446Y-13408396D01*
X14553446Y-13408396D02*
X14543922Y-13417920D01*
X14543922Y-13417920D02*
X14524874Y-13427444D01*
X14524874Y-13427444D02*
X14505827Y-13427444D01*
X14505827Y-13427444D02*
X14486779Y-13417920D01*
X14486779Y-13417920D02*
X14477255Y-13408396D01*
X14477255Y-13408396D02*
X14467732Y-13389348D01*
X14467732Y-13389348D02*
X14458208Y-13351253D01*
X14458208Y-13351253D02*
X14458208Y-13303634D01*
X14458208Y-13303634D02*
X14467732Y-13265539D01*
X14467732Y-13265539D02*
X14477255Y-13246491D01*
X14477255Y-13246491D02*
X14486779Y-13236967D01*
X14486779Y-13236967D02*
X14505827Y-13227444D01*
X14696303Y-13227444D02*
X14715351Y-13227444D01*
X14715351Y-13227444D02*
X14734398Y-13236967D01*
X14734398Y-13236967D02*
X14743922Y-13246491D01*
X14743922Y-13246491D02*
X14753446Y-13265539D01*
X14753446Y-13265539D02*
X14762970Y-13303634D01*
X14762970Y-13303634D02*
X14762970Y-13351253D01*
X14762970Y-13351253D02*
X14753446Y-13389348D01*
X14753446Y-13389348D02*
X14743922Y-13408396D01*
X14743922Y-13408396D02*
X14734398Y-13417920D01*
X14734398Y-13417920D02*
X14715351Y-13427444D01*
X14715351Y-13427444D02*
X14696303Y-13427444D01*
X14696303Y-13427444D02*
X14677255Y-13417920D01*
X14677255Y-13417920D02*
X14667732Y-13408396D01*
X14667732Y-13408396D02*
X14658208Y-13389348D01*
X14658208Y-13389348D02*
X14648684Y-13351253D01*
X14648684Y-13351253D02*
X14648684Y-13303634D01*
X14648684Y-13303634D02*
X14658208Y-13265539D01*
X14658208Y-13265539D02*
X14667732Y-13246491D01*
X14667732Y-13246491D02*
X14677255Y-13236967D01*
X14677255Y-13236967D02*
X14696303Y-13227444D01*
X14848684Y-13427444D02*
X14848684Y-13294110D01*
X14848684Y-13313158D02*
X14858208Y-13303634D01*
X14858208Y-13303634D02*
X14877255Y-13294110D01*
X14877255Y-13294110D02*
X14905827Y-13294110D01*
X14905827Y-13294110D02*
X14924874Y-13303634D01*
X14924874Y-13303634D02*
X14934398Y-13322682D01*
X14934398Y-13322682D02*
X14934398Y-13427444D01*
X14934398Y-13322682D02*
X14943922Y-13303634D01*
X14943922Y-13303634D02*
X14962970Y-13294110D01*
X14962970Y-13294110D02*
X14991541Y-13294110D01*
X14991541Y-13294110D02*
X15010589Y-13303634D01*
X15010589Y-13303634D02*
X15020113Y-13322682D01*
X15020113Y-13322682D02*
X15020113Y-13427444D01*
X15115351Y-13427444D02*
X15115351Y-13294110D01*
X15115351Y-13313158D02*
X15124874Y-13303634D01*
X15124874Y-13303634D02*
X15143922Y-13294110D01*
X15143922Y-13294110D02*
X15172494Y-13294110D01*
X15172494Y-13294110D02*
X15191541Y-13303634D01*
X15191541Y-13303634D02*
X15201065Y-13322682D01*
X15201065Y-13322682D02*
X15201065Y-13427444D01*
X15201065Y-13322682D02*
X15210589Y-13303634D01*
X15210589Y-13303634D02*
X15229636Y-13294110D01*
X15229636Y-13294110D02*
X15258208Y-13294110D01*
X15258208Y-13294110D02*
X15277255Y-13303634D01*
X15277255Y-13303634D02*
X15286779Y-13322682D01*
X15286779Y-13322682D02*
X15286779Y-13427444D01*
X15677255Y-13217920D02*
X15505827Y-13475063D01*
X15934398Y-13227444D02*
X15953446Y-13227444D01*
X15953446Y-13227444D02*
X15972494Y-13236967D01*
X15972494Y-13236967D02*
X15982017Y-13246491D01*
X15982017Y-13246491D02*
X15991541Y-13265539D01*
X15991541Y-13265539D02*
X16001065Y-13303634D01*
X16001065Y-13303634D02*
X16001065Y-13351253D01*
X16001065Y-13351253D02*
X15991541Y-13389348D01*
X15991541Y-13389348D02*
X15982017Y-13408396D01*
X15982017Y-13408396D02*
X15972494Y-13417920D01*
X15972494Y-13417920D02*
X15953446Y-13427444D01*
X15953446Y-13427444D02*
X15934398Y-13427444D01*
X15934398Y-13427444D02*
X15915351Y-13417920D01*
X15915351Y-13417920D02*
X15905827Y-13408396D01*
X15905827Y-13408396D02*
X15896303Y-13389348D01*
X15896303Y-13389348D02*
X15886779Y-13351253D01*
X15886779Y-13351253D02*
X15886779Y-13303634D01*
X15886779Y-13303634D02*
X15896303Y-13265539D01*
X15896303Y-13265539D02*
X15905827Y-13246491D01*
X15905827Y-13246491D02*
X15915351Y-13236967D01*
X15915351Y-13236967D02*
X15934398Y-13227444D01*
X16086779Y-13408396D02*
X16096303Y-13417920D01*
X16096303Y-13417920D02*
X16086779Y-13427444D01*
X16086779Y-13427444D02*
X16077256Y-13417920D01*
X16077256Y-13417920D02*
X16086779Y-13408396D01*
X16086779Y-13408396D02*
X16086779Y-13427444D01*
X16220113Y-13227444D02*
X16239160Y-13227444D01*
X16239160Y-13227444D02*
X16258208Y-13236967D01*
X16258208Y-13236967D02*
X16267732Y-13246491D01*
X16267732Y-13246491D02*
X16277256Y-13265539D01*
X16277256Y-13265539D02*
X16286779Y-13303634D01*
X16286779Y-13303634D02*
X16286779Y-13351253D01*
X16286779Y-13351253D02*
X16277256Y-13389348D01*
X16277256Y-13389348D02*
X16267732Y-13408396D01*
X16267732Y-13408396D02*
X16258208Y-13417920D01*
X16258208Y-13417920D02*
X16239160Y-13427444D01*
X16239160Y-13427444D02*
X16220113Y-13427444D01*
X16220113Y-13427444D02*
X16201065Y-13417920D01*
X16201065Y-13417920D02*
X16191541Y-13408396D01*
X16191541Y-13408396D02*
X16182017Y-13389348D01*
X16182017Y-13389348D02*
X16172494Y-13351253D01*
X16172494Y-13351253D02*
X16172494Y-13303634D01*
X16172494Y-13303634D02*
X16182017Y-13265539D01*
X16182017Y-13265539D02*
X16191541Y-13246491D01*
X16191541Y-13246491D02*
X16201065Y-13236967D01*
X16201065Y-13236967D02*
X16220113Y-13227444D01*
X16353446Y-13227444D02*
X16477256Y-13227444D01*
X16477256Y-13227444D02*
X16410589Y-13303634D01*
X16410589Y-13303634D02*
X16439160Y-13303634D01*
X16439160Y-13303634D02*
X16458208Y-13313158D01*
X16458208Y-13313158D02*
X16467732Y-13322682D01*
X16467732Y-13322682D02*
X16477256Y-13341729D01*
X16477256Y-13341729D02*
X16477256Y-13389348D01*
X16477256Y-13389348D02*
X16467732Y-13408396D01*
X16467732Y-13408396D02*
X16458208Y-13417920D01*
X16458208Y-13417920D02*
X16439160Y-13427444D01*
X16439160Y-13427444D02*
X16382017Y-13427444D01*
X16382017Y-13427444D02*
X16362970Y-13417920D01*
X16362970Y-13417920D02*
X16353446Y-13408396D01*
X16667732Y-13427444D02*
X16553446Y-13427444D01*
X16610589Y-13427444D02*
X16610589Y-13227444D01*
X16610589Y-13227444D02*
X16591541Y-13256015D01*
X16591541Y-13256015D02*
X16572494Y-13275063D01*
X16572494Y-13275063D02*
X16553446Y-13284586D01*
X16848684Y-13227444D02*
X16753446Y-13227444D01*
X16753446Y-13227444D02*
X16743922Y-13322682D01*
X16743922Y-13322682D02*
X16753446Y-13313158D01*
X16753446Y-13313158D02*
X16772494Y-13303634D01*
X16772494Y-13303634D02*
X16820113Y-13303634D01*
X16820113Y-13303634D02*
X16839160Y-13313158D01*
X16839160Y-13313158D02*
X16848684Y-13322682D01*
X16848684Y-13322682D02*
X16858208Y-13341729D01*
X16858208Y-13341729D02*
X16858208Y-13389348D01*
X16858208Y-13389348D02*
X16848684Y-13408396D01*
X16848684Y-13408396D02*
X16839160Y-13417920D01*
X16839160Y-13417920D02*
X16820113Y-13427444D01*
X16820113Y-13427444D02*
X16772494Y-13427444D01*
X16772494Y-13427444D02*
X16753446Y-13417920D01*
X16753446Y-13417920D02*
X16743922Y-13408396D01*
X16934399Y-13227444D02*
X16934399Y-13265539D01*
X17010589Y-13227444D02*
X17010589Y-13265539D01*
X17305827Y-13503634D02*
X17296303Y-13494110D01*
X17296303Y-13494110D02*
X17277256Y-13465539D01*
X17277256Y-13465539D02*
X17267732Y-13446491D01*
X17267732Y-13446491D02*
X17258208Y-13417920D01*
X17258208Y-13417920D02*
X17248684Y-13370301D01*
X17248684Y-13370301D02*
X17248684Y-13332206D01*
X17248684Y-13332206D02*
X17258208Y-13284586D01*
X17258208Y-13284586D02*
X17267732Y-13256015D01*
X17267732Y-13256015D02*
X17277256Y-13236967D01*
X17277256Y-13236967D02*
X17296303Y-13208396D01*
X17296303Y-13208396D02*
X17305827Y-13198872D01*
X17486780Y-13427444D02*
X17372494Y-13427444D01*
X17429637Y-13427444D02*
X17429637Y-13227444D01*
X17429637Y-13227444D02*
X17410589Y-13256015D01*
X17410589Y-13256015D02*
X17391541Y-13275063D01*
X17391541Y-13275063D02*
X17372494Y-13284586D01*
X17610589Y-13227444D02*
X17629637Y-13227444D01*
X17629637Y-13227444D02*
X17648684Y-13236967D01*
X17648684Y-13236967D02*
X17658208Y-13246491D01*
X17658208Y-13246491D02*
X17667732Y-13265539D01*
X17667732Y-13265539D02*
X17677256Y-13303634D01*
X17677256Y-13303634D02*
X17677256Y-13351253D01*
X17677256Y-13351253D02*
X17667732Y-13389348D01*
X17667732Y-13389348D02*
X17658208Y-13408396D01*
X17658208Y-13408396D02*
X17648684Y-13417920D01*
X17648684Y-13417920D02*
X17629637Y-13427444D01*
X17629637Y-13427444D02*
X17610589Y-13427444D01*
X17610589Y-13427444D02*
X17591541Y-13417920D01*
X17591541Y-13417920D02*
X17582018Y-13408396D01*
X17582018Y-13408396D02*
X17572494Y-13389348D01*
X17572494Y-13389348D02*
X17562970Y-13351253D01*
X17562970Y-13351253D02*
X17562970Y-13303634D01*
X17562970Y-13303634D02*
X17572494Y-13265539D01*
X17572494Y-13265539D02*
X17582018Y-13246491D01*
X17582018Y-13246491D02*
X17591541Y-13236967D01*
X17591541Y-13236967D02*
X17610589Y-13227444D01*
X17743922Y-13227444D02*
X17867732Y-13227444D01*
X17867732Y-13227444D02*
X17801065Y-13303634D01*
X17801065Y-13303634D02*
X17829637Y-13303634D01*
X17829637Y-13303634D02*
X17848684Y-13313158D01*
X17848684Y-13313158D02*
X17858208Y-13322682D01*
X17858208Y-13322682D02*
X17867732Y-13341729D01*
X17867732Y-13341729D02*
X17867732Y-13389348D01*
X17867732Y-13389348D02*
X17858208Y-13408396D01*
X17858208Y-13408396D02*
X17848684Y-13417920D01*
X17848684Y-13417920D02*
X17829637Y-13427444D01*
X17829637Y-13427444D02*
X17772494Y-13427444D01*
X17772494Y-13427444D02*
X17753446Y-13417920D01*
X17753446Y-13417920D02*
X17743922Y-13408396D01*
X18105827Y-13427444D02*
X18105827Y-13227444D01*
X18191542Y-13427444D02*
X18191542Y-13322682D01*
X18191542Y-13322682D02*
X18182018Y-13303634D01*
X18182018Y-13303634D02*
X18162970Y-13294110D01*
X18162970Y-13294110D02*
X18134399Y-13294110D01*
X18134399Y-13294110D02*
X18115351Y-13303634D01*
X18115351Y-13303634D02*
X18105827Y-13313158D01*
X18315351Y-13427444D02*
X18296303Y-13417920D01*
X18296303Y-13417920D02*
X18286780Y-13408396D01*
X18286780Y-13408396D02*
X18277256Y-13389348D01*
X18277256Y-13389348D02*
X18277256Y-13332206D01*
X18277256Y-13332206D02*
X18286780Y-13313158D01*
X18286780Y-13313158D02*
X18296303Y-13303634D01*
X18296303Y-13303634D02*
X18315351Y-13294110D01*
X18315351Y-13294110D02*
X18343923Y-13294110D01*
X18343923Y-13294110D02*
X18362970Y-13303634D01*
X18362970Y-13303634D02*
X18372494Y-13313158D01*
X18372494Y-13313158D02*
X18382018Y-13332206D01*
X18382018Y-13332206D02*
X18382018Y-13389348D01*
X18382018Y-13389348D02*
X18372494Y-13408396D01*
X18372494Y-13408396D02*
X18362970Y-13417920D01*
X18362970Y-13417920D02*
X18343923Y-13427444D01*
X18343923Y-13427444D02*
X18315351Y-13427444D01*
X18496303Y-13427444D02*
X18477256Y-13417920D01*
X18477256Y-13417920D02*
X18467732Y-13398872D01*
X18467732Y-13398872D02*
X18467732Y-13227444D01*
X18648684Y-13417920D02*
X18629637Y-13427444D01*
X18629637Y-13427444D02*
X18591542Y-13427444D01*
X18591542Y-13427444D02*
X18572494Y-13417920D01*
X18572494Y-13417920D02*
X18562970Y-13398872D01*
X18562970Y-13398872D02*
X18562970Y-13322682D01*
X18562970Y-13322682D02*
X18572494Y-13303634D01*
X18572494Y-13303634D02*
X18591542Y-13294110D01*
X18591542Y-13294110D02*
X18629637Y-13294110D01*
X18629637Y-13294110D02*
X18648684Y-13303634D01*
X18648684Y-13303634D02*
X18658208Y-13322682D01*
X18658208Y-13322682D02*
X18658208Y-13341729D01*
X18658208Y-13341729D02*
X18562970Y-13360777D01*
X18734399Y-13417920D02*
X18753446Y-13427444D01*
X18753446Y-13427444D02*
X18791542Y-13427444D01*
X18791542Y-13427444D02*
X18810589Y-13417920D01*
X18810589Y-13417920D02*
X18820113Y-13398872D01*
X18820113Y-13398872D02*
X18820113Y-13389348D01*
X18820113Y-13389348D02*
X18810589Y-13370301D01*
X18810589Y-13370301D02*
X18791542Y-13360777D01*
X18791542Y-13360777D02*
X18762970Y-13360777D01*
X18762970Y-13360777D02*
X18743923Y-13351253D01*
X18743923Y-13351253D02*
X18734399Y-13332206D01*
X18734399Y-13332206D02*
X18734399Y-13322682D01*
X18734399Y-13322682D02*
X18743923Y-13303634D01*
X18743923Y-13303634D02*
X18762970Y-13294110D01*
X18762970Y-13294110D02*
X18791542Y-13294110D01*
X18791542Y-13294110D02*
X18810589Y-13303634D01*
X18886780Y-13503634D02*
X18896304Y-13494110D01*
X18896304Y-13494110D02*
X18915351Y-13465539D01*
X18915351Y-13465539D02*
X18924875Y-13446491D01*
X18924875Y-13446491D02*
X18934399Y-13417920D01*
X18934399Y-13417920D02*
X18943923Y-13370301D01*
X18943923Y-13370301D02*
X18943923Y-13332206D01*
X18943923Y-13332206D02*
X18934399Y-13284586D01*
X18934399Y-13284586D02*
X18924875Y-13256015D01*
X18924875Y-13256015D02*
X18915351Y-13236967D01*
X18915351Y-13236967D02*
X18896304Y-13208396D01*
X18896304Y-13208396D02*
X18886780Y-13198872D01*
D11*
X13680764Y-13649960D02*
X13730764Y-13599960D01*
X13680764Y-13549960D01*
X13630764Y-13599960D01*
X13680764Y-13649960D01*
D10*
X14096303Y-13691444D02*
X13982017Y-13691444D01*
X14039160Y-13691444D02*
X14039160Y-13491444D01*
X14039160Y-13491444D02*
X14020112Y-13520015D01*
X14020112Y-13520015D02*
X14001065Y-13539063D01*
X14001065Y-13539063D02*
X13982017Y-13548586D01*
X14182017Y-13672396D02*
X14191541Y-13681920D01*
X14191541Y-13681920D02*
X14182017Y-13691444D01*
X14182017Y-13691444D02*
X14172493Y-13681920D01*
X14172493Y-13681920D02*
X14182017Y-13672396D01*
X14182017Y-13672396D02*
X14182017Y-13691444D01*
X14315351Y-13491444D02*
X14334398Y-13491444D01*
X14334398Y-13491444D02*
X14353446Y-13500967D01*
X14353446Y-13500967D02*
X14362970Y-13510491D01*
X14362970Y-13510491D02*
X14372493Y-13529539D01*
X14372493Y-13529539D02*
X14382017Y-13567634D01*
X14382017Y-13567634D02*
X14382017Y-13615253D01*
X14382017Y-13615253D02*
X14372493Y-13653348D01*
X14372493Y-13653348D02*
X14362970Y-13672396D01*
X14362970Y-13672396D02*
X14353446Y-13681920D01*
X14353446Y-13681920D02*
X14334398Y-13691444D01*
X14334398Y-13691444D02*
X14315351Y-13691444D01*
X14315351Y-13691444D02*
X14296303Y-13681920D01*
X14296303Y-13681920D02*
X14286779Y-13672396D01*
X14286779Y-13672396D02*
X14277255Y-13653348D01*
X14277255Y-13653348D02*
X14267732Y-13615253D01*
X14267732Y-13615253D02*
X14267732Y-13567634D01*
X14267732Y-13567634D02*
X14277255Y-13529539D01*
X14277255Y-13529539D02*
X14286779Y-13510491D01*
X14286779Y-13510491D02*
X14296303Y-13500967D01*
X14296303Y-13500967D02*
X14315351Y-13491444D01*
X14505827Y-13491444D02*
X14524874Y-13491444D01*
X14524874Y-13491444D02*
X14543922Y-13500967D01*
X14543922Y-13500967D02*
X14553446Y-13510491D01*
X14553446Y-13510491D02*
X14562970Y-13529539D01*
X14562970Y-13529539D02*
X14572493Y-13567634D01*
X14572493Y-13567634D02*
X14572493Y-13615253D01*
X14572493Y-13615253D02*
X14562970Y-13653348D01*
X14562970Y-13653348D02*
X14553446Y-13672396D01*
X14553446Y-13672396D02*
X14543922Y-13681920D01*
X14543922Y-13681920D02*
X14524874Y-13691444D01*
X14524874Y-13691444D02*
X14505827Y-13691444D01*
X14505827Y-13691444D02*
X14486779Y-13681920D01*
X14486779Y-13681920D02*
X14477255Y-13672396D01*
X14477255Y-13672396D02*
X14467732Y-13653348D01*
X14467732Y-13653348D02*
X14458208Y-13615253D01*
X14458208Y-13615253D02*
X14458208Y-13567634D01*
X14458208Y-13567634D02*
X14467732Y-13529539D01*
X14467732Y-13529539D02*
X14477255Y-13510491D01*
X14477255Y-13510491D02*
X14486779Y-13500967D01*
X14486779Y-13500967D02*
X14505827Y-13491444D01*
X14696303Y-13491444D02*
X14715351Y-13491444D01*
X14715351Y-13491444D02*
X14734398Y-13500967D01*
X14734398Y-13500967D02*
X14743922Y-13510491D01*
X14743922Y-13510491D02*
X14753446Y-13529539D01*
X14753446Y-13529539D02*
X14762970Y-13567634D01*
X14762970Y-13567634D02*
X14762970Y-13615253D01*
X14762970Y-13615253D02*
X14753446Y-13653348D01*
X14753446Y-13653348D02*
X14743922Y-13672396D01*
X14743922Y-13672396D02*
X14734398Y-13681920D01*
X14734398Y-13681920D02*
X14715351Y-13691444D01*
X14715351Y-13691444D02*
X14696303Y-13691444D01*
X14696303Y-13691444D02*
X14677255Y-13681920D01*
X14677255Y-13681920D02*
X14667732Y-13672396D01*
X14667732Y-13672396D02*
X14658208Y-13653348D01*
X14658208Y-13653348D02*
X14648684Y-13615253D01*
X14648684Y-13615253D02*
X14648684Y-13567634D01*
X14648684Y-13567634D02*
X14658208Y-13529539D01*
X14658208Y-13529539D02*
X14667732Y-13510491D01*
X14667732Y-13510491D02*
X14677255Y-13500967D01*
X14677255Y-13500967D02*
X14696303Y-13491444D01*
X14848684Y-13691444D02*
X14848684Y-13558110D01*
X14848684Y-13577158D02*
X14858208Y-13567634D01*
X14858208Y-13567634D02*
X14877255Y-13558110D01*
X14877255Y-13558110D02*
X14905827Y-13558110D01*
X14905827Y-13558110D02*
X14924874Y-13567634D01*
X14924874Y-13567634D02*
X14934398Y-13586682D01*
X14934398Y-13586682D02*
X14934398Y-13691444D01*
X14934398Y-13586682D02*
X14943922Y-13567634D01*
X14943922Y-13567634D02*
X14962970Y-13558110D01*
X14962970Y-13558110D02*
X14991541Y-13558110D01*
X14991541Y-13558110D02*
X15010589Y-13567634D01*
X15010589Y-13567634D02*
X15020113Y-13586682D01*
X15020113Y-13586682D02*
X15020113Y-13691444D01*
X15115351Y-13691444D02*
X15115351Y-13558110D01*
X15115351Y-13577158D02*
X15124874Y-13567634D01*
X15124874Y-13567634D02*
X15143922Y-13558110D01*
X15143922Y-13558110D02*
X15172494Y-13558110D01*
X15172494Y-13558110D02*
X15191541Y-13567634D01*
X15191541Y-13567634D02*
X15201065Y-13586682D01*
X15201065Y-13586682D02*
X15201065Y-13691444D01*
X15201065Y-13586682D02*
X15210589Y-13567634D01*
X15210589Y-13567634D02*
X15229636Y-13558110D01*
X15229636Y-13558110D02*
X15258208Y-13558110D01*
X15258208Y-13558110D02*
X15277255Y-13567634D01*
X15277255Y-13567634D02*
X15286779Y-13586682D01*
X15286779Y-13586682D02*
X15286779Y-13691444D01*
X15677255Y-13481920D02*
X15505827Y-13739063D01*
X15934398Y-13491444D02*
X15953446Y-13491444D01*
X15953446Y-13491444D02*
X15972494Y-13500967D01*
X15972494Y-13500967D02*
X15982017Y-13510491D01*
X15982017Y-13510491D02*
X15991541Y-13529539D01*
X15991541Y-13529539D02*
X16001065Y-13567634D01*
X16001065Y-13567634D02*
X16001065Y-13615253D01*
X16001065Y-13615253D02*
X15991541Y-13653348D01*
X15991541Y-13653348D02*
X15982017Y-13672396D01*
X15982017Y-13672396D02*
X15972494Y-13681920D01*
X15972494Y-13681920D02*
X15953446Y-13691444D01*
X15953446Y-13691444D02*
X15934398Y-13691444D01*
X15934398Y-13691444D02*
X15915351Y-13681920D01*
X15915351Y-13681920D02*
X15905827Y-13672396D01*
X15905827Y-13672396D02*
X15896303Y-13653348D01*
X15896303Y-13653348D02*
X15886779Y-13615253D01*
X15886779Y-13615253D02*
X15886779Y-13567634D01*
X15886779Y-13567634D02*
X15896303Y-13529539D01*
X15896303Y-13529539D02*
X15905827Y-13510491D01*
X15905827Y-13510491D02*
X15915351Y-13500967D01*
X15915351Y-13500967D02*
X15934398Y-13491444D01*
X16086779Y-13672396D02*
X16096303Y-13681920D01*
X16096303Y-13681920D02*
X16086779Y-13691444D01*
X16086779Y-13691444D02*
X16077256Y-13681920D01*
X16077256Y-13681920D02*
X16086779Y-13672396D01*
X16086779Y-13672396D02*
X16086779Y-13691444D01*
X16220113Y-13491444D02*
X16239160Y-13491444D01*
X16239160Y-13491444D02*
X16258208Y-13500967D01*
X16258208Y-13500967D02*
X16267732Y-13510491D01*
X16267732Y-13510491D02*
X16277256Y-13529539D01*
X16277256Y-13529539D02*
X16286779Y-13567634D01*
X16286779Y-13567634D02*
X16286779Y-13615253D01*
X16286779Y-13615253D02*
X16277256Y-13653348D01*
X16277256Y-13653348D02*
X16267732Y-13672396D01*
X16267732Y-13672396D02*
X16258208Y-13681920D01*
X16258208Y-13681920D02*
X16239160Y-13691444D01*
X16239160Y-13691444D02*
X16220113Y-13691444D01*
X16220113Y-13691444D02*
X16201065Y-13681920D01*
X16201065Y-13681920D02*
X16191541Y-13672396D01*
X16191541Y-13672396D02*
X16182017Y-13653348D01*
X16182017Y-13653348D02*
X16172494Y-13615253D01*
X16172494Y-13615253D02*
X16172494Y-13567634D01*
X16172494Y-13567634D02*
X16182017Y-13529539D01*
X16182017Y-13529539D02*
X16191541Y-13510491D01*
X16191541Y-13510491D02*
X16201065Y-13500967D01*
X16201065Y-13500967D02*
X16220113Y-13491444D01*
X16353446Y-13491444D02*
X16477256Y-13491444D01*
X16477256Y-13491444D02*
X16410589Y-13567634D01*
X16410589Y-13567634D02*
X16439160Y-13567634D01*
X16439160Y-13567634D02*
X16458208Y-13577158D01*
X16458208Y-13577158D02*
X16467732Y-13586682D01*
X16467732Y-13586682D02*
X16477256Y-13605729D01*
X16477256Y-13605729D02*
X16477256Y-13653348D01*
X16477256Y-13653348D02*
X16467732Y-13672396D01*
X16467732Y-13672396D02*
X16458208Y-13681920D01*
X16458208Y-13681920D02*
X16439160Y-13691444D01*
X16439160Y-13691444D02*
X16382017Y-13691444D01*
X16382017Y-13691444D02*
X16362970Y-13681920D01*
X16362970Y-13681920D02*
X16353446Y-13672396D01*
X16572494Y-13691444D02*
X16610589Y-13691444D01*
X16610589Y-13691444D02*
X16629637Y-13681920D01*
X16629637Y-13681920D02*
X16639160Y-13672396D01*
X16639160Y-13672396D02*
X16658208Y-13643825D01*
X16658208Y-13643825D02*
X16667732Y-13605729D01*
X16667732Y-13605729D02*
X16667732Y-13529539D01*
X16667732Y-13529539D02*
X16658208Y-13510491D01*
X16658208Y-13510491D02*
X16648684Y-13500967D01*
X16648684Y-13500967D02*
X16629637Y-13491444D01*
X16629637Y-13491444D02*
X16591541Y-13491444D01*
X16591541Y-13491444D02*
X16572494Y-13500967D01*
X16572494Y-13500967D02*
X16562970Y-13510491D01*
X16562970Y-13510491D02*
X16553446Y-13529539D01*
X16553446Y-13529539D02*
X16553446Y-13577158D01*
X16553446Y-13577158D02*
X16562970Y-13596206D01*
X16562970Y-13596206D02*
X16572494Y-13605729D01*
X16572494Y-13605729D02*
X16591541Y-13615253D01*
X16591541Y-13615253D02*
X16629637Y-13615253D01*
X16629637Y-13615253D02*
X16648684Y-13605729D01*
X16648684Y-13605729D02*
X16658208Y-13596206D01*
X16658208Y-13596206D02*
X16667732Y-13577158D01*
X16839160Y-13558110D02*
X16839160Y-13691444D01*
X16791541Y-13481920D02*
X16743922Y-13624777D01*
X16743922Y-13624777D02*
X16867732Y-13624777D01*
X16934399Y-13491444D02*
X16934399Y-13529539D01*
X17010589Y-13491444D02*
X17010589Y-13529539D01*
X17305827Y-13767634D02*
X17296303Y-13758110D01*
X17296303Y-13758110D02*
X17277256Y-13729539D01*
X17277256Y-13729539D02*
X17267732Y-13710491D01*
X17267732Y-13710491D02*
X17258208Y-13681920D01*
X17258208Y-13681920D02*
X17248684Y-13634301D01*
X17248684Y-13634301D02*
X17248684Y-13596206D01*
X17248684Y-13596206D02*
X17258208Y-13548586D01*
X17258208Y-13548586D02*
X17267732Y-13520015D01*
X17267732Y-13520015D02*
X17277256Y-13500967D01*
X17277256Y-13500967D02*
X17296303Y-13472396D01*
X17296303Y-13472396D02*
X17305827Y-13462872D01*
X17362970Y-13491444D02*
X17486780Y-13491444D01*
X17486780Y-13491444D02*
X17420113Y-13567634D01*
X17420113Y-13567634D02*
X17448684Y-13567634D01*
X17448684Y-13567634D02*
X17467732Y-13577158D01*
X17467732Y-13577158D02*
X17477256Y-13586682D01*
X17477256Y-13586682D02*
X17486780Y-13605729D01*
X17486780Y-13605729D02*
X17486780Y-13653348D01*
X17486780Y-13653348D02*
X17477256Y-13672396D01*
X17477256Y-13672396D02*
X17467732Y-13681920D01*
X17467732Y-13681920D02*
X17448684Y-13691444D01*
X17448684Y-13691444D02*
X17391541Y-13691444D01*
X17391541Y-13691444D02*
X17372494Y-13681920D01*
X17372494Y-13681920D02*
X17362970Y-13672396D01*
X17601065Y-13577158D02*
X17582018Y-13567634D01*
X17582018Y-13567634D02*
X17572494Y-13558110D01*
X17572494Y-13558110D02*
X17562970Y-13539063D01*
X17562970Y-13539063D02*
X17562970Y-13529539D01*
X17562970Y-13529539D02*
X17572494Y-13510491D01*
X17572494Y-13510491D02*
X17582018Y-13500967D01*
X17582018Y-13500967D02*
X17601065Y-13491444D01*
X17601065Y-13491444D02*
X17639161Y-13491444D01*
X17639161Y-13491444D02*
X17658208Y-13500967D01*
X17658208Y-13500967D02*
X17667732Y-13510491D01*
X17667732Y-13510491D02*
X17677256Y-13529539D01*
X17677256Y-13529539D02*
X17677256Y-13539063D01*
X17677256Y-13539063D02*
X17667732Y-13558110D01*
X17667732Y-13558110D02*
X17658208Y-13567634D01*
X17658208Y-13567634D02*
X17639161Y-13577158D01*
X17639161Y-13577158D02*
X17601065Y-13577158D01*
X17601065Y-13577158D02*
X17582018Y-13586682D01*
X17582018Y-13586682D02*
X17572494Y-13596206D01*
X17572494Y-13596206D02*
X17562970Y-13615253D01*
X17562970Y-13615253D02*
X17562970Y-13653348D01*
X17562970Y-13653348D02*
X17572494Y-13672396D01*
X17572494Y-13672396D02*
X17582018Y-13681920D01*
X17582018Y-13681920D02*
X17601065Y-13691444D01*
X17601065Y-13691444D02*
X17639161Y-13691444D01*
X17639161Y-13691444D02*
X17658208Y-13681920D01*
X17658208Y-13681920D02*
X17667732Y-13672396D01*
X17667732Y-13672396D02*
X17677256Y-13653348D01*
X17677256Y-13653348D02*
X17677256Y-13615253D01*
X17677256Y-13615253D02*
X17667732Y-13596206D01*
X17667732Y-13596206D02*
X17658208Y-13586682D01*
X17658208Y-13586682D02*
X17639161Y-13577158D01*
X17915351Y-13691444D02*
X17915351Y-13491444D01*
X18001065Y-13691444D02*
X18001065Y-13586682D01*
X18001065Y-13586682D02*
X17991542Y-13567634D01*
X17991542Y-13567634D02*
X17972494Y-13558110D01*
X17972494Y-13558110D02*
X17943922Y-13558110D01*
X17943922Y-13558110D02*
X17924875Y-13567634D01*
X17924875Y-13567634D02*
X17915351Y-13577158D01*
X18124875Y-13691444D02*
X18105827Y-13681920D01*
X18105827Y-13681920D02*
X18096303Y-13672396D01*
X18096303Y-13672396D02*
X18086780Y-13653348D01*
X18086780Y-13653348D02*
X18086780Y-13596206D01*
X18086780Y-13596206D02*
X18096303Y-13577158D01*
X18096303Y-13577158D02*
X18105827Y-13567634D01*
X18105827Y-13567634D02*
X18124875Y-13558110D01*
X18124875Y-13558110D02*
X18153446Y-13558110D01*
X18153446Y-13558110D02*
X18172494Y-13567634D01*
X18172494Y-13567634D02*
X18182018Y-13577158D01*
X18182018Y-13577158D02*
X18191542Y-13596206D01*
X18191542Y-13596206D02*
X18191542Y-13653348D01*
X18191542Y-13653348D02*
X18182018Y-13672396D01*
X18182018Y-13672396D02*
X18172494Y-13681920D01*
X18172494Y-13681920D02*
X18153446Y-13691444D01*
X18153446Y-13691444D02*
X18124875Y-13691444D01*
X18305827Y-13691444D02*
X18286780Y-13681920D01*
X18286780Y-13681920D02*
X18277256Y-13662872D01*
X18277256Y-13662872D02*
X18277256Y-13491444D01*
X18458208Y-13681920D02*
X18439161Y-13691444D01*
X18439161Y-13691444D02*
X18401065Y-13691444D01*
X18401065Y-13691444D02*
X18382018Y-13681920D01*
X18382018Y-13681920D02*
X18372494Y-13662872D01*
X18372494Y-13662872D02*
X18372494Y-13586682D01*
X18372494Y-13586682D02*
X18382018Y-13567634D01*
X18382018Y-13567634D02*
X18401065Y-13558110D01*
X18401065Y-13558110D02*
X18439161Y-13558110D01*
X18439161Y-13558110D02*
X18458208Y-13567634D01*
X18458208Y-13567634D02*
X18467732Y-13586682D01*
X18467732Y-13586682D02*
X18467732Y-13605729D01*
X18467732Y-13605729D02*
X18372494Y-13624777D01*
X18543923Y-13681920D02*
X18562970Y-13691444D01*
X18562970Y-13691444D02*
X18601065Y-13691444D01*
X18601065Y-13691444D02*
X18620113Y-13681920D01*
X18620113Y-13681920D02*
X18629637Y-13662872D01*
X18629637Y-13662872D02*
X18629637Y-13653348D01*
X18629637Y-13653348D02*
X18620113Y-13634301D01*
X18620113Y-13634301D02*
X18601065Y-13624777D01*
X18601065Y-13624777D02*
X18572494Y-13624777D01*
X18572494Y-13624777D02*
X18553446Y-13615253D01*
X18553446Y-13615253D02*
X18543923Y-13596206D01*
X18543923Y-13596206D02*
X18543923Y-13586682D01*
X18543923Y-13586682D02*
X18553446Y-13567634D01*
X18553446Y-13567634D02*
X18572494Y-13558110D01*
X18572494Y-13558110D02*
X18601065Y-13558110D01*
X18601065Y-13558110D02*
X18620113Y-13567634D01*
X18696304Y-13767634D02*
X18705827Y-13758110D01*
X18705827Y-13758110D02*
X18724875Y-13729539D01*
X18724875Y-13729539D02*
X18734399Y-13710491D01*
X18734399Y-13710491D02*
X18743923Y-13681920D01*
X18743923Y-13681920D02*
X18753446Y-13634301D01*
X18753446Y-13634301D02*
X18753446Y-13596206D01*
X18753446Y-13596206D02*
X18743923Y-13548586D01*
X18743923Y-13548586D02*
X18734399Y-13520015D01*
X18734399Y-13520015D02*
X18724875Y-13500967D01*
X18724875Y-13500967D02*
X18705827Y-13472396D01*
X18705827Y-13472396D02*
X18696304Y-13462872D01*
D12*
X13620764Y-13808960D02*
X13730764Y-13918960D01*
X13730764Y-13808960D02*
X13620764Y-13918960D01*
X13730764Y-13863960D02*
G75*
G02*
X13620764Y-13863960I-55000J0D01*
G01*
X13620764Y-13863960D02*
G75*
G02*
X13730764Y-13863960I55000J0D01*
G01*
D10*
X14096303Y-13955444D02*
X13982017Y-13955444D01*
X14039160Y-13955444D02*
X14039160Y-13755444D01*
X14039160Y-13755444D02*
X14020112Y-13784015D01*
X14020112Y-13784015D02*
X14001065Y-13803063D01*
X14001065Y-13803063D02*
X13982017Y-13812586D01*
X14182017Y-13936396D02*
X14191541Y-13945920D01*
X14191541Y-13945920D02*
X14182017Y-13955444D01*
X14182017Y-13955444D02*
X14172493Y-13945920D01*
X14172493Y-13945920D02*
X14182017Y-13936396D01*
X14182017Y-13936396D02*
X14182017Y-13955444D01*
X14382017Y-13955444D02*
X14267732Y-13955444D01*
X14324874Y-13955444D02*
X14324874Y-13755444D01*
X14324874Y-13755444D02*
X14305827Y-13784015D01*
X14305827Y-13784015D02*
X14286779Y-13803063D01*
X14286779Y-13803063D02*
X14267732Y-13812586D01*
X14505827Y-13755444D02*
X14524874Y-13755444D01*
X14524874Y-13755444D02*
X14543922Y-13764967D01*
X14543922Y-13764967D02*
X14553446Y-13774491D01*
X14553446Y-13774491D02*
X14562970Y-13793539D01*
X14562970Y-13793539D02*
X14572493Y-13831634D01*
X14572493Y-13831634D02*
X14572493Y-13879253D01*
X14572493Y-13879253D02*
X14562970Y-13917348D01*
X14562970Y-13917348D02*
X14553446Y-13936396D01*
X14553446Y-13936396D02*
X14543922Y-13945920D01*
X14543922Y-13945920D02*
X14524874Y-13955444D01*
X14524874Y-13955444D02*
X14505827Y-13955444D01*
X14505827Y-13955444D02*
X14486779Y-13945920D01*
X14486779Y-13945920D02*
X14477255Y-13936396D01*
X14477255Y-13936396D02*
X14467732Y-13917348D01*
X14467732Y-13917348D02*
X14458208Y-13879253D01*
X14458208Y-13879253D02*
X14458208Y-13831634D01*
X14458208Y-13831634D02*
X14467732Y-13793539D01*
X14467732Y-13793539D02*
X14477255Y-13774491D01*
X14477255Y-13774491D02*
X14486779Y-13764967D01*
X14486779Y-13764967D02*
X14505827Y-13755444D01*
X14696303Y-13755444D02*
X14715351Y-13755444D01*
X14715351Y-13755444D02*
X14734398Y-13764967D01*
X14734398Y-13764967D02*
X14743922Y-13774491D01*
X14743922Y-13774491D02*
X14753446Y-13793539D01*
X14753446Y-13793539D02*
X14762970Y-13831634D01*
X14762970Y-13831634D02*
X14762970Y-13879253D01*
X14762970Y-13879253D02*
X14753446Y-13917348D01*
X14753446Y-13917348D02*
X14743922Y-13936396D01*
X14743922Y-13936396D02*
X14734398Y-13945920D01*
X14734398Y-13945920D02*
X14715351Y-13955444D01*
X14715351Y-13955444D02*
X14696303Y-13955444D01*
X14696303Y-13955444D02*
X14677255Y-13945920D01*
X14677255Y-13945920D02*
X14667732Y-13936396D01*
X14667732Y-13936396D02*
X14658208Y-13917348D01*
X14658208Y-13917348D02*
X14648684Y-13879253D01*
X14648684Y-13879253D02*
X14648684Y-13831634D01*
X14648684Y-13831634D02*
X14658208Y-13793539D01*
X14658208Y-13793539D02*
X14667732Y-13774491D01*
X14667732Y-13774491D02*
X14677255Y-13764967D01*
X14677255Y-13764967D02*
X14696303Y-13755444D01*
X14848684Y-13955444D02*
X14848684Y-13822110D01*
X14848684Y-13841158D02*
X14858208Y-13831634D01*
X14858208Y-13831634D02*
X14877255Y-13822110D01*
X14877255Y-13822110D02*
X14905827Y-13822110D01*
X14905827Y-13822110D02*
X14924874Y-13831634D01*
X14924874Y-13831634D02*
X14934398Y-13850682D01*
X14934398Y-13850682D02*
X14934398Y-13955444D01*
X14934398Y-13850682D02*
X14943922Y-13831634D01*
X14943922Y-13831634D02*
X14962970Y-13822110D01*
X14962970Y-13822110D02*
X14991541Y-13822110D01*
X14991541Y-13822110D02*
X15010589Y-13831634D01*
X15010589Y-13831634D02*
X15020113Y-13850682D01*
X15020113Y-13850682D02*
X15020113Y-13955444D01*
X15115351Y-13955444D02*
X15115351Y-13822110D01*
X15115351Y-13841158D02*
X15124874Y-13831634D01*
X15124874Y-13831634D02*
X15143922Y-13822110D01*
X15143922Y-13822110D02*
X15172494Y-13822110D01*
X15172494Y-13822110D02*
X15191541Y-13831634D01*
X15191541Y-13831634D02*
X15201065Y-13850682D01*
X15201065Y-13850682D02*
X15201065Y-13955444D01*
X15201065Y-13850682D02*
X15210589Y-13831634D01*
X15210589Y-13831634D02*
X15229636Y-13822110D01*
X15229636Y-13822110D02*
X15258208Y-13822110D01*
X15258208Y-13822110D02*
X15277255Y-13831634D01*
X15277255Y-13831634D02*
X15286779Y-13850682D01*
X15286779Y-13850682D02*
X15286779Y-13955444D01*
X15677255Y-13745920D02*
X15505827Y-14003063D01*
X15934398Y-13755444D02*
X15953446Y-13755444D01*
X15953446Y-13755444D02*
X15972494Y-13764967D01*
X15972494Y-13764967D02*
X15982017Y-13774491D01*
X15982017Y-13774491D02*
X15991541Y-13793539D01*
X15991541Y-13793539D02*
X16001065Y-13831634D01*
X16001065Y-13831634D02*
X16001065Y-13879253D01*
X16001065Y-13879253D02*
X15991541Y-13917348D01*
X15991541Y-13917348D02*
X15982017Y-13936396D01*
X15982017Y-13936396D02*
X15972494Y-13945920D01*
X15972494Y-13945920D02*
X15953446Y-13955444D01*
X15953446Y-13955444D02*
X15934398Y-13955444D01*
X15934398Y-13955444D02*
X15915351Y-13945920D01*
X15915351Y-13945920D02*
X15905827Y-13936396D01*
X15905827Y-13936396D02*
X15896303Y-13917348D01*
X15896303Y-13917348D02*
X15886779Y-13879253D01*
X15886779Y-13879253D02*
X15886779Y-13831634D01*
X15886779Y-13831634D02*
X15896303Y-13793539D01*
X15896303Y-13793539D02*
X15905827Y-13774491D01*
X15905827Y-13774491D02*
X15915351Y-13764967D01*
X15915351Y-13764967D02*
X15934398Y-13755444D01*
X16086779Y-13936396D02*
X16096303Y-13945920D01*
X16096303Y-13945920D02*
X16086779Y-13955444D01*
X16086779Y-13955444D02*
X16077256Y-13945920D01*
X16077256Y-13945920D02*
X16086779Y-13936396D01*
X16086779Y-13936396D02*
X16086779Y-13955444D01*
X16220113Y-13755444D02*
X16239160Y-13755444D01*
X16239160Y-13755444D02*
X16258208Y-13764967D01*
X16258208Y-13764967D02*
X16267732Y-13774491D01*
X16267732Y-13774491D02*
X16277256Y-13793539D01*
X16277256Y-13793539D02*
X16286779Y-13831634D01*
X16286779Y-13831634D02*
X16286779Y-13879253D01*
X16286779Y-13879253D02*
X16277256Y-13917348D01*
X16277256Y-13917348D02*
X16267732Y-13936396D01*
X16267732Y-13936396D02*
X16258208Y-13945920D01*
X16258208Y-13945920D02*
X16239160Y-13955444D01*
X16239160Y-13955444D02*
X16220113Y-13955444D01*
X16220113Y-13955444D02*
X16201065Y-13945920D01*
X16201065Y-13945920D02*
X16191541Y-13936396D01*
X16191541Y-13936396D02*
X16182017Y-13917348D01*
X16182017Y-13917348D02*
X16172494Y-13879253D01*
X16172494Y-13879253D02*
X16172494Y-13831634D01*
X16172494Y-13831634D02*
X16182017Y-13793539D01*
X16182017Y-13793539D02*
X16191541Y-13774491D01*
X16191541Y-13774491D02*
X16201065Y-13764967D01*
X16201065Y-13764967D02*
X16220113Y-13755444D01*
X16458208Y-13822110D02*
X16458208Y-13955444D01*
X16410589Y-13745920D02*
X16362970Y-13888777D01*
X16362970Y-13888777D02*
X16486779Y-13888777D01*
X16543922Y-13755444D02*
X16667732Y-13755444D01*
X16667732Y-13755444D02*
X16601065Y-13831634D01*
X16601065Y-13831634D02*
X16629637Y-13831634D01*
X16629637Y-13831634D02*
X16648684Y-13841158D01*
X16648684Y-13841158D02*
X16658208Y-13850682D01*
X16658208Y-13850682D02*
X16667732Y-13869729D01*
X16667732Y-13869729D02*
X16667732Y-13917348D01*
X16667732Y-13917348D02*
X16658208Y-13936396D01*
X16658208Y-13936396D02*
X16648684Y-13945920D01*
X16648684Y-13945920D02*
X16629637Y-13955444D01*
X16629637Y-13955444D02*
X16572494Y-13955444D01*
X16572494Y-13955444D02*
X16553446Y-13945920D01*
X16553446Y-13945920D02*
X16543922Y-13936396D01*
X16734398Y-13755444D02*
X16858208Y-13755444D01*
X16858208Y-13755444D02*
X16791541Y-13831634D01*
X16791541Y-13831634D02*
X16820113Y-13831634D01*
X16820113Y-13831634D02*
X16839160Y-13841158D01*
X16839160Y-13841158D02*
X16848684Y-13850682D01*
X16848684Y-13850682D02*
X16858208Y-13869729D01*
X16858208Y-13869729D02*
X16858208Y-13917348D01*
X16858208Y-13917348D02*
X16848684Y-13936396D01*
X16848684Y-13936396D02*
X16839160Y-13945920D01*
X16839160Y-13945920D02*
X16820113Y-13955444D01*
X16820113Y-13955444D02*
X16762970Y-13955444D01*
X16762970Y-13955444D02*
X16743922Y-13945920D01*
X16743922Y-13945920D02*
X16734398Y-13936396D01*
X16934399Y-13755444D02*
X16934399Y-13793539D01*
X17010589Y-13755444D02*
X17010589Y-13793539D01*
X17305827Y-14031634D02*
X17296303Y-14022110D01*
X17296303Y-14022110D02*
X17277256Y-13993539D01*
X17277256Y-13993539D02*
X17267732Y-13974491D01*
X17267732Y-13974491D02*
X17258208Y-13945920D01*
X17258208Y-13945920D02*
X17248684Y-13898301D01*
X17248684Y-13898301D02*
X17248684Y-13860206D01*
X17248684Y-13860206D02*
X17258208Y-13812586D01*
X17258208Y-13812586D02*
X17267732Y-13784015D01*
X17267732Y-13784015D02*
X17277256Y-13764967D01*
X17277256Y-13764967D02*
X17296303Y-13736396D01*
X17296303Y-13736396D02*
X17305827Y-13726872D01*
X17362970Y-13755444D02*
X17486780Y-13755444D01*
X17486780Y-13755444D02*
X17420113Y-13831634D01*
X17420113Y-13831634D02*
X17448684Y-13831634D01*
X17448684Y-13831634D02*
X17467732Y-13841158D01*
X17467732Y-13841158D02*
X17477256Y-13850682D01*
X17477256Y-13850682D02*
X17486780Y-13869729D01*
X17486780Y-13869729D02*
X17486780Y-13917348D01*
X17486780Y-13917348D02*
X17477256Y-13936396D01*
X17477256Y-13936396D02*
X17467732Y-13945920D01*
X17467732Y-13945920D02*
X17448684Y-13955444D01*
X17448684Y-13955444D02*
X17391541Y-13955444D01*
X17391541Y-13955444D02*
X17372494Y-13945920D01*
X17372494Y-13945920D02*
X17362970Y-13936396D01*
X17724875Y-13955444D02*
X17724875Y-13755444D01*
X17810589Y-13955444D02*
X17810589Y-13850682D01*
X17810589Y-13850682D02*
X17801065Y-13831634D01*
X17801065Y-13831634D02*
X17782018Y-13822110D01*
X17782018Y-13822110D02*
X17753446Y-13822110D01*
X17753446Y-13822110D02*
X17734399Y-13831634D01*
X17734399Y-13831634D02*
X17724875Y-13841158D01*
X17934399Y-13955444D02*
X17915351Y-13945920D01*
X17915351Y-13945920D02*
X17905827Y-13936396D01*
X17905827Y-13936396D02*
X17896303Y-13917348D01*
X17896303Y-13917348D02*
X17896303Y-13860206D01*
X17896303Y-13860206D02*
X17905827Y-13841158D01*
X17905827Y-13841158D02*
X17915351Y-13831634D01*
X17915351Y-13831634D02*
X17934399Y-13822110D01*
X17934399Y-13822110D02*
X17962970Y-13822110D01*
X17962970Y-13822110D02*
X17982018Y-13831634D01*
X17982018Y-13831634D02*
X17991542Y-13841158D01*
X17991542Y-13841158D02*
X18001065Y-13860206D01*
X18001065Y-13860206D02*
X18001065Y-13917348D01*
X18001065Y-13917348D02*
X17991542Y-13936396D01*
X17991542Y-13936396D02*
X17982018Y-13945920D01*
X17982018Y-13945920D02*
X17962970Y-13955444D01*
X17962970Y-13955444D02*
X17934399Y-13955444D01*
X18115351Y-13955444D02*
X18096303Y-13945920D01*
X18096303Y-13945920D02*
X18086780Y-13926872D01*
X18086780Y-13926872D02*
X18086780Y-13755444D01*
X18267732Y-13945920D02*
X18248684Y-13955444D01*
X18248684Y-13955444D02*
X18210589Y-13955444D01*
X18210589Y-13955444D02*
X18191542Y-13945920D01*
X18191542Y-13945920D02*
X18182018Y-13926872D01*
X18182018Y-13926872D02*
X18182018Y-13850682D01*
X18182018Y-13850682D02*
X18191542Y-13831634D01*
X18191542Y-13831634D02*
X18210589Y-13822110D01*
X18210589Y-13822110D02*
X18248684Y-13822110D01*
X18248684Y-13822110D02*
X18267732Y-13831634D01*
X18267732Y-13831634D02*
X18277256Y-13850682D01*
X18277256Y-13850682D02*
X18277256Y-13869729D01*
X18277256Y-13869729D02*
X18182018Y-13888777D01*
X18353446Y-13945920D02*
X18372494Y-13955444D01*
X18372494Y-13955444D02*
X18410589Y-13955444D01*
X18410589Y-13955444D02*
X18429637Y-13945920D01*
X18429637Y-13945920D02*
X18439161Y-13926872D01*
X18439161Y-13926872D02*
X18439161Y-13917348D01*
X18439161Y-13917348D02*
X18429637Y-13898301D01*
X18429637Y-13898301D02*
X18410589Y-13888777D01*
X18410589Y-13888777D02*
X18382018Y-13888777D01*
X18382018Y-13888777D02*
X18362970Y-13879253D01*
X18362970Y-13879253D02*
X18353446Y-13860206D01*
X18353446Y-13860206D02*
X18353446Y-13850682D01*
X18353446Y-13850682D02*
X18362970Y-13831634D01*
X18362970Y-13831634D02*
X18382018Y-13822110D01*
X18382018Y-13822110D02*
X18410589Y-13822110D01*
X18410589Y-13822110D02*
X18429637Y-13831634D01*
X18505827Y-14031634D02*
X18515351Y-14022110D01*
X18515351Y-14022110D02*
X18534399Y-13993539D01*
X18534399Y-13993539D02*
X18543923Y-13974491D01*
X18543923Y-13974491D02*
X18553446Y-13945920D01*
X18553446Y-13945920D02*
X18562970Y-13898301D01*
X18562970Y-13898301D02*
X18562970Y-13860206D01*
X18562970Y-13860206D02*
X18553446Y-13812586D01*
X18553446Y-13812586D02*
X18543923Y-13784015D01*
X18543923Y-13784015D02*
X18534399Y-13764967D01*
X18534399Y-13764967D02*
X18515351Y-13736396D01*
X18515351Y-13736396D02*
X18505827Y-13726872D01*
M02*
