%TF.GenerationSoftware,KiCad,Pcbnew,9.0.5*%
%TF.CreationDate,2025-12-09T08:08:28+08:00*%
%TF.ProjectId,BODAQS shield v2,424f4441-5153-4207-9368-69656c642076,rev?*%
%TF.SameCoordinates,Original*%
%TF.FileFunction,Legend,Top*%
%TF.FilePolarity,Positive*%
%FSLAX46Y46*%
G04 Gerber Fmt 4.6, Leading zero omitted, Abs format (unit mm)*
G04 Created by KiCad (PCBNEW 9.0.5) date 2025-12-09 08:08:28*
%MOMM*%
%LPD*%
G01*
G04 APERTURE LIST*
%ADD10C,0.300000*%
%ADD11C,0.150000*%
%ADD12C,0.120000*%
G04 APERTURE END LIST*
D10*
X153333082Y-101129400D02*
X153547368Y-101200828D01*
X153547368Y-101200828D02*
X153904510Y-101200828D01*
X153904510Y-101200828D02*
X154047368Y-101129400D01*
X154047368Y-101129400D02*
X154118796Y-101057971D01*
X154118796Y-101057971D02*
X154190225Y-100915114D01*
X154190225Y-100915114D02*
X154190225Y-100772257D01*
X154190225Y-100772257D02*
X154118796Y-100629400D01*
X154118796Y-100629400D02*
X154047368Y-100557971D01*
X154047368Y-100557971D02*
X153904510Y-100486542D01*
X153904510Y-100486542D02*
X153618796Y-100415114D01*
X153618796Y-100415114D02*
X153475939Y-100343685D01*
X153475939Y-100343685D02*
X153404510Y-100272257D01*
X153404510Y-100272257D02*
X153333082Y-100129400D01*
X153333082Y-100129400D02*
X153333082Y-99986542D01*
X153333082Y-99986542D02*
X153404510Y-99843685D01*
X153404510Y-99843685D02*
X153475939Y-99772257D01*
X153475939Y-99772257D02*
X153618796Y-99700828D01*
X153618796Y-99700828D02*
X153975939Y-99700828D01*
X153975939Y-99700828D02*
X154190225Y-99772257D01*
X154833081Y-100200828D02*
X154833081Y-101700828D01*
X154833081Y-100272257D02*
X154975939Y-100200828D01*
X154975939Y-100200828D02*
X155261653Y-100200828D01*
X155261653Y-100200828D02*
X155404510Y-100272257D01*
X155404510Y-100272257D02*
X155475939Y-100343685D01*
X155475939Y-100343685D02*
X155547367Y-100486542D01*
X155547367Y-100486542D02*
X155547367Y-100915114D01*
X155547367Y-100915114D02*
X155475939Y-101057971D01*
X155475939Y-101057971D02*
X155404510Y-101129400D01*
X155404510Y-101129400D02*
X155261653Y-101200828D01*
X155261653Y-101200828D02*
X154975939Y-101200828D01*
X154975939Y-101200828D02*
X154833081Y-101129400D01*
X156833082Y-101200828D02*
X156833082Y-100415114D01*
X156833082Y-100415114D02*
X156761653Y-100272257D01*
X156761653Y-100272257D02*
X156618796Y-100200828D01*
X156618796Y-100200828D02*
X156333082Y-100200828D01*
X156333082Y-100200828D02*
X156190224Y-100272257D01*
X156833082Y-101129400D02*
X156690224Y-101200828D01*
X156690224Y-101200828D02*
X156333082Y-101200828D01*
X156333082Y-101200828D02*
X156190224Y-101129400D01*
X156190224Y-101129400D02*
X156118796Y-100986542D01*
X156118796Y-100986542D02*
X156118796Y-100843685D01*
X156118796Y-100843685D02*
X156190224Y-100700828D01*
X156190224Y-100700828D02*
X156333082Y-100629400D01*
X156333082Y-100629400D02*
X156690224Y-100629400D01*
X156690224Y-100629400D02*
X156833082Y-100557971D01*
X157547367Y-101200828D02*
X157547367Y-100200828D01*
X157547367Y-100486542D02*
X157618796Y-100343685D01*
X157618796Y-100343685D02*
X157690225Y-100272257D01*
X157690225Y-100272257D02*
X157833082Y-100200828D01*
X157833082Y-100200828D02*
X157975939Y-100200828D01*
X158475938Y-101200828D02*
X158475938Y-99700828D01*
X158618796Y-100629400D02*
X159047367Y-101200828D01*
X159047367Y-100200828D02*
X158475938Y-100772257D01*
X159475939Y-100200828D02*
X160047367Y-100200828D01*
X159690224Y-101200828D02*
X159690224Y-99915114D01*
X159690224Y-99915114D02*
X159761653Y-99772257D01*
X159761653Y-99772257D02*
X159904510Y-99700828D01*
X159904510Y-99700828D02*
X160047367Y-99700828D01*
X161190225Y-100200828D02*
X161190225Y-101200828D01*
X160547367Y-100200828D02*
X160547367Y-100986542D01*
X160547367Y-100986542D02*
X160618796Y-101129400D01*
X160618796Y-101129400D02*
X160761653Y-101200828D01*
X160761653Y-101200828D02*
X160975939Y-101200828D01*
X160975939Y-101200828D02*
X161118796Y-101129400D01*
X161118796Y-101129400D02*
X161190225Y-101057971D01*
X161904510Y-100200828D02*
X161904510Y-101200828D01*
X161904510Y-100343685D02*
X161975939Y-100272257D01*
X161975939Y-100272257D02*
X162118796Y-100200828D01*
X162118796Y-100200828D02*
X162333082Y-100200828D01*
X162333082Y-100200828D02*
X162475939Y-100272257D01*
X162475939Y-100272257D02*
X162547368Y-100415114D01*
X162547368Y-100415114D02*
X162547368Y-101200828D01*
X164404510Y-100415114D02*
X164904510Y-100415114D01*
X165118796Y-101200828D02*
X164404510Y-101200828D01*
X164404510Y-101200828D02*
X164404510Y-99700828D01*
X164404510Y-99700828D02*
X165118796Y-99700828D01*
X165690225Y-101129400D02*
X165904511Y-101200828D01*
X165904511Y-101200828D02*
X166261653Y-101200828D01*
X166261653Y-101200828D02*
X166404511Y-101129400D01*
X166404511Y-101129400D02*
X166475939Y-101057971D01*
X166475939Y-101057971D02*
X166547368Y-100915114D01*
X166547368Y-100915114D02*
X166547368Y-100772257D01*
X166547368Y-100772257D02*
X166475939Y-100629400D01*
X166475939Y-100629400D02*
X166404511Y-100557971D01*
X166404511Y-100557971D02*
X166261653Y-100486542D01*
X166261653Y-100486542D02*
X165975939Y-100415114D01*
X165975939Y-100415114D02*
X165833082Y-100343685D01*
X165833082Y-100343685D02*
X165761653Y-100272257D01*
X165761653Y-100272257D02*
X165690225Y-100129400D01*
X165690225Y-100129400D02*
X165690225Y-99986542D01*
X165690225Y-99986542D02*
X165761653Y-99843685D01*
X165761653Y-99843685D02*
X165833082Y-99772257D01*
X165833082Y-99772257D02*
X165975939Y-99700828D01*
X165975939Y-99700828D02*
X166333082Y-99700828D01*
X166333082Y-99700828D02*
X166547368Y-99772257D01*
X167190224Y-101200828D02*
X167190224Y-99700828D01*
X167190224Y-99700828D02*
X167761653Y-99700828D01*
X167761653Y-99700828D02*
X167904510Y-99772257D01*
X167904510Y-99772257D02*
X167975939Y-99843685D01*
X167975939Y-99843685D02*
X168047367Y-99986542D01*
X168047367Y-99986542D02*
X168047367Y-100200828D01*
X168047367Y-100200828D02*
X167975939Y-100343685D01*
X167975939Y-100343685D02*
X167904510Y-100415114D01*
X167904510Y-100415114D02*
X167761653Y-100486542D01*
X167761653Y-100486542D02*
X167190224Y-100486542D01*
X168547367Y-99700828D02*
X169475939Y-99700828D01*
X169475939Y-99700828D02*
X168975939Y-100272257D01*
X168975939Y-100272257D02*
X169190224Y-100272257D01*
X169190224Y-100272257D02*
X169333082Y-100343685D01*
X169333082Y-100343685D02*
X169404510Y-100415114D01*
X169404510Y-100415114D02*
X169475939Y-100557971D01*
X169475939Y-100557971D02*
X169475939Y-100915114D01*
X169475939Y-100915114D02*
X169404510Y-101057971D01*
X169404510Y-101057971D02*
X169333082Y-101129400D01*
X169333082Y-101129400D02*
X169190224Y-101200828D01*
X169190224Y-101200828D02*
X168761653Y-101200828D01*
X168761653Y-101200828D02*
X168618796Y-101129400D01*
X168618796Y-101129400D02*
X168547367Y-101057971D01*
X170047367Y-99843685D02*
X170118795Y-99772257D01*
X170118795Y-99772257D02*
X170261653Y-99700828D01*
X170261653Y-99700828D02*
X170618795Y-99700828D01*
X170618795Y-99700828D02*
X170761653Y-99772257D01*
X170761653Y-99772257D02*
X170833081Y-99843685D01*
X170833081Y-99843685D02*
X170904510Y-99986542D01*
X170904510Y-99986542D02*
X170904510Y-100129400D01*
X170904510Y-100129400D02*
X170833081Y-100343685D01*
X170833081Y-100343685D02*
X169975938Y-101200828D01*
X169975938Y-101200828D02*
X170904510Y-101200828D01*
X172475938Y-99700828D02*
X173333081Y-99700828D01*
X172904509Y-101200828D02*
X172904509Y-99700828D01*
X173833080Y-101200828D02*
X173833080Y-99700828D01*
X174475938Y-101200828D02*
X174475938Y-100415114D01*
X174475938Y-100415114D02*
X174404509Y-100272257D01*
X174404509Y-100272257D02*
X174261652Y-100200828D01*
X174261652Y-100200828D02*
X174047366Y-100200828D01*
X174047366Y-100200828D02*
X173904509Y-100272257D01*
X173904509Y-100272257D02*
X173833080Y-100343685D01*
X175190223Y-101200828D02*
X175190223Y-100200828D01*
X175190223Y-99700828D02*
X175118795Y-99772257D01*
X175118795Y-99772257D02*
X175190223Y-99843685D01*
X175190223Y-99843685D02*
X175261652Y-99772257D01*
X175261652Y-99772257D02*
X175190223Y-99700828D01*
X175190223Y-99700828D02*
X175190223Y-99843685D01*
X175904509Y-100200828D02*
X175904509Y-101200828D01*
X175904509Y-100343685D02*
X175975938Y-100272257D01*
X175975938Y-100272257D02*
X176118795Y-100200828D01*
X176118795Y-100200828D02*
X176333081Y-100200828D01*
X176333081Y-100200828D02*
X176475938Y-100272257D01*
X176475938Y-100272257D02*
X176547367Y-100415114D01*
X176547367Y-100415114D02*
X176547367Y-101200828D01*
X177904510Y-100200828D02*
X177904510Y-101415114D01*
X177904510Y-101415114D02*
X177833081Y-101557971D01*
X177833081Y-101557971D02*
X177761652Y-101629400D01*
X177761652Y-101629400D02*
X177618795Y-101700828D01*
X177618795Y-101700828D02*
X177404510Y-101700828D01*
X177404510Y-101700828D02*
X177261652Y-101629400D01*
X177904510Y-101129400D02*
X177761652Y-101200828D01*
X177761652Y-101200828D02*
X177475938Y-101200828D01*
X177475938Y-101200828D02*
X177333081Y-101129400D01*
X177333081Y-101129400D02*
X177261652Y-101057971D01*
X177261652Y-101057971D02*
X177190224Y-100915114D01*
X177190224Y-100915114D02*
X177190224Y-100486542D01*
X177190224Y-100486542D02*
X177261652Y-100343685D01*
X177261652Y-100343685D02*
X177333081Y-100272257D01*
X177333081Y-100272257D02*
X177475938Y-100200828D01*
X177475938Y-100200828D02*
X177761652Y-100200828D01*
X177761652Y-100200828D02*
X177904510Y-100272257D01*
X179761652Y-101200828D02*
X179761652Y-99700828D01*
X179761652Y-99700828D02*
X180333081Y-99700828D01*
X180333081Y-99700828D02*
X180475938Y-99772257D01*
X180475938Y-99772257D02*
X180547367Y-99843685D01*
X180547367Y-99843685D02*
X180618795Y-99986542D01*
X180618795Y-99986542D02*
X180618795Y-100200828D01*
X180618795Y-100200828D02*
X180547367Y-100343685D01*
X180547367Y-100343685D02*
X180475938Y-100415114D01*
X180475938Y-100415114D02*
X180333081Y-100486542D01*
X180333081Y-100486542D02*
X179761652Y-100486542D01*
X181475938Y-101200828D02*
X181333081Y-101129400D01*
X181333081Y-101129400D02*
X181261652Y-100986542D01*
X181261652Y-100986542D02*
X181261652Y-99700828D01*
X182690224Y-100200828D02*
X182690224Y-101200828D01*
X182047366Y-100200828D02*
X182047366Y-100986542D01*
X182047366Y-100986542D02*
X182118795Y-101129400D01*
X182118795Y-101129400D02*
X182261652Y-101200828D01*
X182261652Y-101200828D02*
X182475938Y-101200828D01*
X182475938Y-101200828D02*
X182618795Y-101129400D01*
X182618795Y-101129400D02*
X182690224Y-101057971D01*
X183333081Y-101129400D02*
X183475938Y-101200828D01*
X183475938Y-101200828D02*
X183761652Y-101200828D01*
X183761652Y-101200828D02*
X183904509Y-101129400D01*
X183904509Y-101129400D02*
X183975938Y-100986542D01*
X183975938Y-100986542D02*
X183975938Y-100915114D01*
X183975938Y-100915114D02*
X183904509Y-100772257D01*
X183904509Y-100772257D02*
X183761652Y-100700828D01*
X183761652Y-100700828D02*
X183547367Y-100700828D01*
X183547367Y-100700828D02*
X183404509Y-100629400D01*
X183404509Y-100629400D02*
X183333081Y-100486542D01*
X183333081Y-100486542D02*
X183333081Y-100415114D01*
X183333081Y-100415114D02*
X183404509Y-100272257D01*
X183404509Y-100272257D02*
X183547367Y-100200828D01*
X183547367Y-100200828D02*
X183761652Y-100200828D01*
X183761652Y-100200828D02*
X183904509Y-100272257D01*
X185690224Y-101129400D02*
X185904510Y-101200828D01*
X185904510Y-101200828D02*
X186261652Y-101200828D01*
X186261652Y-101200828D02*
X186404510Y-101129400D01*
X186404510Y-101129400D02*
X186475938Y-101057971D01*
X186475938Y-101057971D02*
X186547367Y-100915114D01*
X186547367Y-100915114D02*
X186547367Y-100772257D01*
X186547367Y-100772257D02*
X186475938Y-100629400D01*
X186475938Y-100629400D02*
X186404510Y-100557971D01*
X186404510Y-100557971D02*
X186261652Y-100486542D01*
X186261652Y-100486542D02*
X185975938Y-100415114D01*
X185975938Y-100415114D02*
X185833081Y-100343685D01*
X185833081Y-100343685D02*
X185761652Y-100272257D01*
X185761652Y-100272257D02*
X185690224Y-100129400D01*
X185690224Y-100129400D02*
X185690224Y-99986542D01*
X185690224Y-99986542D02*
X185761652Y-99843685D01*
X185761652Y-99843685D02*
X185833081Y-99772257D01*
X185833081Y-99772257D02*
X185975938Y-99700828D01*
X185975938Y-99700828D02*
X186333081Y-99700828D01*
X186333081Y-99700828D02*
X186547367Y-99772257D01*
X187047366Y-99700828D02*
X187975938Y-99700828D01*
X187975938Y-99700828D02*
X187475938Y-100272257D01*
X187475938Y-100272257D02*
X187690223Y-100272257D01*
X187690223Y-100272257D02*
X187833081Y-100343685D01*
X187833081Y-100343685D02*
X187904509Y-100415114D01*
X187904509Y-100415114D02*
X187975938Y-100557971D01*
X187975938Y-100557971D02*
X187975938Y-100915114D01*
X187975938Y-100915114D02*
X187904509Y-101057971D01*
X187904509Y-101057971D02*
X187833081Y-101129400D01*
X187833081Y-101129400D02*
X187690223Y-101200828D01*
X187690223Y-101200828D02*
X187261652Y-101200828D01*
X187261652Y-101200828D02*
X187118795Y-101129400D01*
X187118795Y-101129400D02*
X187047366Y-101057971D01*
X162676098Y-77693866D02*
X162890384Y-77765294D01*
X162890384Y-77765294D02*
X162961813Y-77836723D01*
X162961813Y-77836723D02*
X163033241Y-77979580D01*
X163033241Y-77979580D02*
X163033241Y-78193866D01*
X163033241Y-78193866D02*
X162961813Y-78336723D01*
X162961813Y-78336723D02*
X162890384Y-78408152D01*
X162890384Y-78408152D02*
X162747527Y-78479580D01*
X162747527Y-78479580D02*
X162176098Y-78479580D01*
X162176098Y-78479580D02*
X162176098Y-76979580D01*
X162176098Y-76979580D02*
X162676098Y-76979580D01*
X162676098Y-76979580D02*
X162818956Y-77051009D01*
X162818956Y-77051009D02*
X162890384Y-77122437D01*
X162890384Y-77122437D02*
X162961813Y-77265294D01*
X162961813Y-77265294D02*
X162961813Y-77408152D01*
X162961813Y-77408152D02*
X162890384Y-77551009D01*
X162890384Y-77551009D02*
X162818956Y-77622437D01*
X162818956Y-77622437D02*
X162676098Y-77693866D01*
X162676098Y-77693866D02*
X162176098Y-77693866D01*
X163961813Y-76979580D02*
X164247527Y-76979580D01*
X164247527Y-76979580D02*
X164390384Y-77051009D01*
X164390384Y-77051009D02*
X164533241Y-77193866D01*
X164533241Y-77193866D02*
X164604670Y-77479580D01*
X164604670Y-77479580D02*
X164604670Y-77979580D01*
X164604670Y-77979580D02*
X164533241Y-78265294D01*
X164533241Y-78265294D02*
X164390384Y-78408152D01*
X164390384Y-78408152D02*
X164247527Y-78479580D01*
X164247527Y-78479580D02*
X163961813Y-78479580D01*
X163961813Y-78479580D02*
X163818956Y-78408152D01*
X163818956Y-78408152D02*
X163676098Y-78265294D01*
X163676098Y-78265294D02*
X163604670Y-77979580D01*
X163604670Y-77979580D02*
X163604670Y-77479580D01*
X163604670Y-77479580D02*
X163676098Y-77193866D01*
X163676098Y-77193866D02*
X163818956Y-77051009D01*
X163818956Y-77051009D02*
X163961813Y-76979580D01*
X165247527Y-78479580D02*
X165247527Y-76979580D01*
X165247527Y-76979580D02*
X165604670Y-76979580D01*
X165604670Y-76979580D02*
X165818956Y-77051009D01*
X165818956Y-77051009D02*
X165961813Y-77193866D01*
X165961813Y-77193866D02*
X166033242Y-77336723D01*
X166033242Y-77336723D02*
X166104670Y-77622437D01*
X166104670Y-77622437D02*
X166104670Y-77836723D01*
X166104670Y-77836723D02*
X166033242Y-78122437D01*
X166033242Y-78122437D02*
X165961813Y-78265294D01*
X165961813Y-78265294D02*
X165818956Y-78408152D01*
X165818956Y-78408152D02*
X165604670Y-78479580D01*
X165604670Y-78479580D02*
X165247527Y-78479580D01*
X166676099Y-78051009D02*
X167390385Y-78051009D01*
X166533242Y-78479580D02*
X167033242Y-76979580D01*
X167033242Y-76979580D02*
X167533242Y-78479580D01*
X169033241Y-78622437D02*
X168890384Y-78551009D01*
X168890384Y-78551009D02*
X168747527Y-78408152D01*
X168747527Y-78408152D02*
X168533241Y-78193866D01*
X168533241Y-78193866D02*
X168390384Y-78122437D01*
X168390384Y-78122437D02*
X168247527Y-78122437D01*
X168318956Y-78479580D02*
X168176099Y-78408152D01*
X168176099Y-78408152D02*
X168033241Y-78265294D01*
X168033241Y-78265294D02*
X167961813Y-77979580D01*
X167961813Y-77979580D02*
X167961813Y-77479580D01*
X167961813Y-77479580D02*
X168033241Y-77193866D01*
X168033241Y-77193866D02*
X168176099Y-77051009D01*
X168176099Y-77051009D02*
X168318956Y-76979580D01*
X168318956Y-76979580D02*
X168604670Y-76979580D01*
X168604670Y-76979580D02*
X168747527Y-77051009D01*
X168747527Y-77051009D02*
X168890384Y-77193866D01*
X168890384Y-77193866D02*
X168961813Y-77479580D01*
X168961813Y-77479580D02*
X168961813Y-77979580D01*
X168961813Y-77979580D02*
X168890384Y-78265294D01*
X168890384Y-78265294D02*
X168747527Y-78408152D01*
X168747527Y-78408152D02*
X168604670Y-78479580D01*
X168604670Y-78479580D02*
X168318956Y-78479580D01*
X169533242Y-78408152D02*
X169747528Y-78479580D01*
X169747528Y-78479580D02*
X170104670Y-78479580D01*
X170104670Y-78479580D02*
X170247528Y-78408152D01*
X170247528Y-78408152D02*
X170318956Y-78336723D01*
X170318956Y-78336723D02*
X170390385Y-78193866D01*
X170390385Y-78193866D02*
X170390385Y-78051009D01*
X170390385Y-78051009D02*
X170318956Y-77908152D01*
X170318956Y-77908152D02*
X170247528Y-77836723D01*
X170247528Y-77836723D02*
X170104670Y-77765294D01*
X170104670Y-77765294D02*
X169818956Y-77693866D01*
X169818956Y-77693866D02*
X169676099Y-77622437D01*
X169676099Y-77622437D02*
X169604670Y-77551009D01*
X169604670Y-77551009D02*
X169533242Y-77408152D01*
X169533242Y-77408152D02*
X169533242Y-77265294D01*
X169533242Y-77265294D02*
X169604670Y-77122437D01*
X169604670Y-77122437D02*
X169676099Y-77051009D01*
X169676099Y-77051009D02*
X169818956Y-76979580D01*
X169818956Y-76979580D02*
X170176099Y-76979580D01*
X170176099Y-76979580D02*
X170390385Y-77051009D01*
X172818956Y-77479580D02*
X172818956Y-78479580D01*
X172461813Y-76908152D02*
X172104670Y-77979580D01*
X172104670Y-77979580D02*
X173033241Y-77979580D01*
X174747526Y-78479580D02*
X174747526Y-76979580D01*
X174747526Y-76979580D02*
X175318955Y-76979580D01*
X175318955Y-76979580D02*
X175461812Y-77051009D01*
X175461812Y-77051009D02*
X175533241Y-77122437D01*
X175533241Y-77122437D02*
X175604669Y-77265294D01*
X175604669Y-77265294D02*
X175604669Y-77479580D01*
X175604669Y-77479580D02*
X175533241Y-77622437D01*
X175533241Y-77622437D02*
X175461812Y-77693866D01*
X175461812Y-77693866D02*
X175318955Y-77765294D01*
X175318955Y-77765294D02*
X174747526Y-77765294D01*
X176247526Y-78479580D02*
X176247526Y-77479580D01*
X176247526Y-77765294D02*
X176318955Y-77622437D01*
X176318955Y-77622437D02*
X176390384Y-77551009D01*
X176390384Y-77551009D02*
X176533241Y-77479580D01*
X176533241Y-77479580D02*
X176676098Y-77479580D01*
X177390383Y-78479580D02*
X177247526Y-78408152D01*
X177247526Y-78408152D02*
X177176097Y-78336723D01*
X177176097Y-78336723D02*
X177104669Y-78193866D01*
X177104669Y-78193866D02*
X177104669Y-77765294D01*
X177104669Y-77765294D02*
X177176097Y-77622437D01*
X177176097Y-77622437D02*
X177247526Y-77551009D01*
X177247526Y-77551009D02*
X177390383Y-77479580D01*
X177390383Y-77479580D02*
X177604669Y-77479580D01*
X177604669Y-77479580D02*
X177747526Y-77551009D01*
X177747526Y-77551009D02*
X177818955Y-77622437D01*
X177818955Y-77622437D02*
X177890383Y-77765294D01*
X177890383Y-77765294D02*
X177890383Y-78193866D01*
X177890383Y-78193866D02*
X177818955Y-78336723D01*
X177818955Y-78336723D02*
X177747526Y-78408152D01*
X177747526Y-78408152D02*
X177604669Y-78479580D01*
X177604669Y-78479580D02*
X177390383Y-78479580D01*
X178318955Y-77479580D02*
X178890383Y-77479580D01*
X178533240Y-76979580D02*
X178533240Y-78265294D01*
X178533240Y-78265294D02*
X178604669Y-78408152D01*
X178604669Y-78408152D02*
X178747526Y-78479580D01*
X178747526Y-78479580D02*
X178890383Y-78479580D01*
X179604669Y-78479580D02*
X179461812Y-78408152D01*
X179461812Y-78408152D02*
X179390383Y-78336723D01*
X179390383Y-78336723D02*
X179318955Y-78193866D01*
X179318955Y-78193866D02*
X179318955Y-77765294D01*
X179318955Y-77765294D02*
X179390383Y-77622437D01*
X179390383Y-77622437D02*
X179461812Y-77551009D01*
X179461812Y-77551009D02*
X179604669Y-77479580D01*
X179604669Y-77479580D02*
X179818955Y-77479580D01*
X179818955Y-77479580D02*
X179961812Y-77551009D01*
X179961812Y-77551009D02*
X180033241Y-77622437D01*
X180033241Y-77622437D02*
X180104669Y-77765294D01*
X180104669Y-77765294D02*
X180104669Y-78193866D01*
X180104669Y-78193866D02*
X180033241Y-78336723D01*
X180033241Y-78336723D02*
X179961812Y-78408152D01*
X179961812Y-78408152D02*
X179818955Y-78479580D01*
X179818955Y-78479580D02*
X179604669Y-78479580D01*
X180533241Y-77479580D02*
X181104669Y-77479580D01*
X180747526Y-76979580D02*
X180747526Y-78265294D01*
X180747526Y-78265294D02*
X180818955Y-78408152D01*
X180818955Y-78408152D02*
X180961812Y-78479580D01*
X180961812Y-78479580D02*
X181104669Y-78479580D01*
X181461812Y-77479580D02*
X181818955Y-78479580D01*
X182176098Y-77479580D02*
X181818955Y-78479580D01*
X181818955Y-78479580D02*
X181676098Y-78836723D01*
X181676098Y-78836723D02*
X181604669Y-78908152D01*
X181604669Y-78908152D02*
X181461812Y-78979580D01*
X182747526Y-77479580D02*
X182747526Y-78979580D01*
X182747526Y-77551009D02*
X182890384Y-77479580D01*
X182890384Y-77479580D02*
X183176098Y-77479580D01*
X183176098Y-77479580D02*
X183318955Y-77551009D01*
X183318955Y-77551009D02*
X183390384Y-77622437D01*
X183390384Y-77622437D02*
X183461812Y-77765294D01*
X183461812Y-77765294D02*
X183461812Y-78193866D01*
X183461812Y-78193866D02*
X183390384Y-78336723D01*
X183390384Y-78336723D02*
X183318955Y-78408152D01*
X183318955Y-78408152D02*
X183176098Y-78479580D01*
X183176098Y-78479580D02*
X182890384Y-78479580D01*
X182890384Y-78479580D02*
X182747526Y-78408152D01*
X184676098Y-78408152D02*
X184533241Y-78479580D01*
X184533241Y-78479580D02*
X184247527Y-78479580D01*
X184247527Y-78479580D02*
X184104669Y-78408152D01*
X184104669Y-78408152D02*
X184033241Y-78265294D01*
X184033241Y-78265294D02*
X184033241Y-77693866D01*
X184033241Y-77693866D02*
X184104669Y-77551009D01*
X184104669Y-77551009D02*
X184247527Y-77479580D01*
X184247527Y-77479580D02*
X184533241Y-77479580D01*
X184533241Y-77479580D02*
X184676098Y-77551009D01*
X184676098Y-77551009D02*
X184747527Y-77693866D01*
X184747527Y-77693866D02*
X184747527Y-77836723D01*
X184747527Y-77836723D02*
X184033241Y-77979580D01*
X186533240Y-78479580D02*
X186533240Y-76979580D01*
X186533240Y-76979580D02*
X186890383Y-76979580D01*
X186890383Y-76979580D02*
X187104669Y-77051009D01*
X187104669Y-77051009D02*
X187247526Y-77193866D01*
X187247526Y-77193866D02*
X187318955Y-77336723D01*
X187318955Y-77336723D02*
X187390383Y-77622437D01*
X187390383Y-77622437D02*
X187390383Y-77836723D01*
X187390383Y-77836723D02*
X187318955Y-78122437D01*
X187318955Y-78122437D02*
X187247526Y-78265294D01*
X187247526Y-78265294D02*
X187104669Y-78408152D01*
X187104669Y-78408152D02*
X186890383Y-78479580D01*
X186890383Y-78479580D02*
X186533240Y-78479580D01*
D11*
X188887212Y-71057256D02*
X188553879Y-70581065D01*
X188315784Y-71057256D02*
X188315784Y-70057256D01*
X188315784Y-70057256D02*
X188696736Y-70057256D01*
X188696736Y-70057256D02*
X188791974Y-70104875D01*
X188791974Y-70104875D02*
X188839593Y-70152494D01*
X188839593Y-70152494D02*
X188887212Y-70247732D01*
X188887212Y-70247732D02*
X188887212Y-70390589D01*
X188887212Y-70390589D02*
X188839593Y-70485827D01*
X188839593Y-70485827D02*
X188791974Y-70533446D01*
X188791974Y-70533446D02*
X188696736Y-70581065D01*
X188696736Y-70581065D02*
X188315784Y-70581065D01*
X189839593Y-71057256D02*
X189268165Y-71057256D01*
X189553879Y-71057256D02*
X189553879Y-70057256D01*
X189553879Y-70057256D02*
X189458641Y-70200113D01*
X189458641Y-70200113D02*
X189363403Y-70295351D01*
X189363403Y-70295351D02*
X189268165Y-70342970D01*
X190411022Y-70485827D02*
X190315784Y-70438208D01*
X190315784Y-70438208D02*
X190268165Y-70390589D01*
X190268165Y-70390589D02*
X190220546Y-70295351D01*
X190220546Y-70295351D02*
X190220546Y-70247732D01*
X190220546Y-70247732D02*
X190268165Y-70152494D01*
X190268165Y-70152494D02*
X190315784Y-70104875D01*
X190315784Y-70104875D02*
X190411022Y-70057256D01*
X190411022Y-70057256D02*
X190601498Y-70057256D01*
X190601498Y-70057256D02*
X190696736Y-70104875D01*
X190696736Y-70104875D02*
X190744355Y-70152494D01*
X190744355Y-70152494D02*
X190791974Y-70247732D01*
X190791974Y-70247732D02*
X190791974Y-70295351D01*
X190791974Y-70295351D02*
X190744355Y-70390589D01*
X190744355Y-70390589D02*
X190696736Y-70438208D01*
X190696736Y-70438208D02*
X190601498Y-70485827D01*
X190601498Y-70485827D02*
X190411022Y-70485827D01*
X190411022Y-70485827D02*
X190315784Y-70533446D01*
X190315784Y-70533446D02*
X190268165Y-70581065D01*
X190268165Y-70581065D02*
X190220546Y-70676303D01*
X190220546Y-70676303D02*
X190220546Y-70866779D01*
X190220546Y-70866779D02*
X190268165Y-70962017D01*
X190268165Y-70962017D02*
X190315784Y-71009637D01*
X190315784Y-71009637D02*
X190411022Y-71057256D01*
X190411022Y-71057256D02*
X190601498Y-71057256D01*
X190601498Y-71057256D02*
X190696736Y-71009637D01*
X190696736Y-71009637D02*
X190744355Y-70962017D01*
X190744355Y-70962017D02*
X190791974Y-70866779D01*
X190791974Y-70866779D02*
X190791974Y-70676303D01*
X190791974Y-70676303D02*
X190744355Y-70581065D01*
X190744355Y-70581065D02*
X190696736Y-70533446D01*
X190696736Y-70533446D02*
X190601498Y-70485827D01*
X179259004Y-73992408D02*
X179211385Y-74040028D01*
X179211385Y-74040028D02*
X179068528Y-74087647D01*
X179068528Y-74087647D02*
X178973290Y-74087647D01*
X178973290Y-74087647D02*
X178830433Y-74040028D01*
X178830433Y-74040028D02*
X178735195Y-73944789D01*
X178735195Y-73944789D02*
X178687576Y-73849551D01*
X178687576Y-73849551D02*
X178639957Y-73659075D01*
X178639957Y-73659075D02*
X178639957Y-73516218D01*
X178639957Y-73516218D02*
X178687576Y-73325742D01*
X178687576Y-73325742D02*
X178735195Y-73230504D01*
X178735195Y-73230504D02*
X178830433Y-73135266D01*
X178830433Y-73135266D02*
X178973290Y-73087647D01*
X178973290Y-73087647D02*
X179068528Y-73087647D01*
X179068528Y-73087647D02*
X179211385Y-73135266D01*
X179211385Y-73135266D02*
X179259004Y-73182885D01*
X180211385Y-74087647D02*
X179639957Y-74087647D01*
X179925671Y-74087647D02*
X179925671Y-73087647D01*
X179925671Y-73087647D02*
X179830433Y-73230504D01*
X179830433Y-73230504D02*
X179735195Y-73325742D01*
X179735195Y-73325742D02*
X179639957Y-73373361D01*
X180830433Y-73087647D02*
X180925671Y-73087647D01*
X180925671Y-73087647D02*
X181020909Y-73135266D01*
X181020909Y-73135266D02*
X181068528Y-73182885D01*
X181068528Y-73182885D02*
X181116147Y-73278123D01*
X181116147Y-73278123D02*
X181163766Y-73468599D01*
X181163766Y-73468599D02*
X181163766Y-73706694D01*
X181163766Y-73706694D02*
X181116147Y-73897170D01*
X181116147Y-73897170D02*
X181068528Y-73992408D01*
X181068528Y-73992408D02*
X181020909Y-74040028D01*
X181020909Y-74040028D02*
X180925671Y-74087647D01*
X180925671Y-74087647D02*
X180830433Y-74087647D01*
X180830433Y-74087647D02*
X180735195Y-74040028D01*
X180735195Y-74040028D02*
X180687576Y-73992408D01*
X180687576Y-73992408D02*
X180639957Y-73897170D01*
X180639957Y-73897170D02*
X180592338Y-73706694D01*
X180592338Y-73706694D02*
X180592338Y-73468599D01*
X180592338Y-73468599D02*
X180639957Y-73278123D01*
X180639957Y-73278123D02*
X180687576Y-73182885D01*
X180687576Y-73182885D02*
X180735195Y-73135266D01*
X180735195Y-73135266D02*
X180830433Y-73087647D01*
X192668554Y-63966630D02*
X192668554Y-63395202D01*
X193668554Y-63680916D02*
X192668554Y-63680916D01*
X193668554Y-63061868D02*
X192668554Y-63061868D01*
X192668554Y-63061868D02*
X192668554Y-62680916D01*
X192668554Y-62680916D02*
X192716173Y-62585678D01*
X192716173Y-62585678D02*
X192763792Y-62538059D01*
X192763792Y-62538059D02*
X192859030Y-62490440D01*
X192859030Y-62490440D02*
X193001887Y-62490440D01*
X193001887Y-62490440D02*
X193097125Y-62538059D01*
X193097125Y-62538059D02*
X193144744Y-62585678D01*
X193144744Y-62585678D02*
X193192363Y-62680916D01*
X193192363Y-62680916D02*
X193192363Y-63061868D01*
X192668554Y-62157106D02*
X192668554Y-61538059D01*
X192668554Y-61538059D02*
X193049506Y-61871392D01*
X193049506Y-61871392D02*
X193049506Y-61728535D01*
X193049506Y-61728535D02*
X193097125Y-61633297D01*
X193097125Y-61633297D02*
X193144744Y-61585678D01*
X193144744Y-61585678D02*
X193239982Y-61538059D01*
X193239982Y-61538059D02*
X193478077Y-61538059D01*
X193478077Y-61538059D02*
X193573315Y-61585678D01*
X193573315Y-61585678D02*
X193620935Y-61633297D01*
X193620935Y-61633297D02*
X193668554Y-61728535D01*
X193668554Y-61728535D02*
X193668554Y-62014249D01*
X193668554Y-62014249D02*
X193620935Y-62109487D01*
X193620935Y-62109487D02*
X193573315Y-62157106D01*
X190359580Y-84642857D02*
X190407200Y-84690476D01*
X190407200Y-84690476D02*
X190454819Y-84833333D01*
X190454819Y-84833333D02*
X190454819Y-84928571D01*
X190454819Y-84928571D02*
X190407200Y-85071428D01*
X190407200Y-85071428D02*
X190311961Y-85166666D01*
X190311961Y-85166666D02*
X190216723Y-85214285D01*
X190216723Y-85214285D02*
X190026247Y-85261904D01*
X190026247Y-85261904D02*
X189883390Y-85261904D01*
X189883390Y-85261904D02*
X189692914Y-85214285D01*
X189692914Y-85214285D02*
X189597676Y-85166666D01*
X189597676Y-85166666D02*
X189502438Y-85071428D01*
X189502438Y-85071428D02*
X189454819Y-84928571D01*
X189454819Y-84928571D02*
X189454819Y-84833333D01*
X189454819Y-84833333D02*
X189502438Y-84690476D01*
X189502438Y-84690476D02*
X189550057Y-84642857D01*
X190454819Y-83690476D02*
X190454819Y-84261904D01*
X190454819Y-83976190D02*
X189454819Y-83976190D01*
X189454819Y-83976190D02*
X189597676Y-84071428D01*
X189597676Y-84071428D02*
X189692914Y-84166666D01*
X189692914Y-84166666D02*
X189740533Y-84261904D01*
X189454819Y-83357142D02*
X189454819Y-82690476D01*
X189454819Y-82690476D02*
X190454819Y-83119047D01*
X159372384Y-73902777D02*
X159324765Y-73950397D01*
X159324765Y-73950397D02*
X159181908Y-73998016D01*
X159181908Y-73998016D02*
X159086670Y-73998016D01*
X159086670Y-73998016D02*
X158943813Y-73950397D01*
X158943813Y-73950397D02*
X158848575Y-73855158D01*
X158848575Y-73855158D02*
X158800956Y-73759920D01*
X158800956Y-73759920D02*
X158753337Y-73569444D01*
X158753337Y-73569444D02*
X158753337Y-73426587D01*
X158753337Y-73426587D02*
X158800956Y-73236111D01*
X158800956Y-73236111D02*
X158848575Y-73140873D01*
X158848575Y-73140873D02*
X158943813Y-73045635D01*
X158943813Y-73045635D02*
X159086670Y-72998016D01*
X159086670Y-72998016D02*
X159181908Y-72998016D01*
X159181908Y-72998016D02*
X159324765Y-73045635D01*
X159324765Y-73045635D02*
X159372384Y-73093254D01*
X159705718Y-72998016D02*
X160372384Y-72998016D01*
X160372384Y-72998016D02*
X159943813Y-73998016D01*
X149424734Y-58147710D02*
X149091401Y-57671519D01*
X148853306Y-58147710D02*
X148853306Y-57147710D01*
X148853306Y-57147710D02*
X149234258Y-57147710D01*
X149234258Y-57147710D02*
X149329496Y-57195329D01*
X149329496Y-57195329D02*
X149377115Y-57242948D01*
X149377115Y-57242948D02*
X149424734Y-57338186D01*
X149424734Y-57338186D02*
X149424734Y-57481043D01*
X149424734Y-57481043D02*
X149377115Y-57576281D01*
X149377115Y-57576281D02*
X149329496Y-57623900D01*
X149329496Y-57623900D02*
X149234258Y-57671519D01*
X149234258Y-57671519D02*
X148853306Y-57671519D01*
X150281877Y-57147710D02*
X150091401Y-57147710D01*
X150091401Y-57147710D02*
X149996163Y-57195329D01*
X149996163Y-57195329D02*
X149948544Y-57242948D01*
X149948544Y-57242948D02*
X149853306Y-57385805D01*
X149853306Y-57385805D02*
X149805687Y-57576281D01*
X149805687Y-57576281D02*
X149805687Y-57957233D01*
X149805687Y-57957233D02*
X149853306Y-58052471D01*
X149853306Y-58052471D02*
X149900925Y-58100091D01*
X149900925Y-58100091D02*
X149996163Y-58147710D01*
X149996163Y-58147710D02*
X150186639Y-58147710D01*
X150186639Y-58147710D02*
X150281877Y-58100091D01*
X150281877Y-58100091D02*
X150329496Y-58052471D01*
X150329496Y-58052471D02*
X150377115Y-57957233D01*
X150377115Y-57957233D02*
X150377115Y-57719138D01*
X150377115Y-57719138D02*
X150329496Y-57623900D01*
X150329496Y-57623900D02*
X150281877Y-57576281D01*
X150281877Y-57576281D02*
X150186639Y-57528662D01*
X150186639Y-57528662D02*
X149996163Y-57528662D01*
X149996163Y-57528662D02*
X149900925Y-57576281D01*
X149900925Y-57576281D02*
X149853306Y-57623900D01*
X149853306Y-57623900D02*
X149805687Y-57719138D01*
X204166666Y-63034545D02*
X203833333Y-62558354D01*
X203595238Y-63034545D02*
X203595238Y-62034545D01*
X203595238Y-62034545D02*
X203976190Y-62034545D01*
X203976190Y-62034545D02*
X204071428Y-62082164D01*
X204071428Y-62082164D02*
X204119047Y-62129783D01*
X204119047Y-62129783D02*
X204166666Y-62225021D01*
X204166666Y-62225021D02*
X204166666Y-62367878D01*
X204166666Y-62367878D02*
X204119047Y-62463116D01*
X204119047Y-62463116D02*
X204071428Y-62510735D01*
X204071428Y-62510735D02*
X203976190Y-62558354D01*
X203976190Y-62558354D02*
X203595238Y-62558354D01*
X204595238Y-62510735D02*
X204928571Y-62510735D01*
X205071428Y-63034545D02*
X204595238Y-63034545D01*
X204595238Y-63034545D02*
X204595238Y-62034545D01*
X204595238Y-62034545D02*
X205071428Y-62034545D01*
X205833333Y-62510735D02*
X205500000Y-62510735D01*
X205500000Y-63034545D02*
X205500000Y-62034545D01*
X205500000Y-62034545D02*
X205976190Y-62034545D01*
X206500000Y-62034545D02*
X206500000Y-62272640D01*
X206261905Y-62177402D02*
X206500000Y-62272640D01*
X206500000Y-62272640D02*
X206738095Y-62177402D01*
X206357143Y-62463116D02*
X206500000Y-62272640D01*
X206500000Y-62272640D02*
X206642857Y-62463116D01*
X207261905Y-62034545D02*
X207261905Y-62272640D01*
X207023810Y-62177402D02*
X207261905Y-62272640D01*
X207261905Y-62272640D02*
X207500000Y-62177402D01*
X207119048Y-62463116D02*
X207261905Y-62272640D01*
X207261905Y-62272640D02*
X207404762Y-62463116D01*
X198038095Y-96504819D02*
X198609523Y-96504819D01*
X198323809Y-97504819D02*
X198323809Y-96504819D01*
X198942857Y-97504819D02*
X198942857Y-96504819D01*
X198942857Y-96504819D02*
X199323809Y-96504819D01*
X199323809Y-96504819D02*
X199419047Y-96552438D01*
X199419047Y-96552438D02*
X199466666Y-96600057D01*
X199466666Y-96600057D02*
X199514285Y-96695295D01*
X199514285Y-96695295D02*
X199514285Y-96838152D01*
X199514285Y-96838152D02*
X199466666Y-96933390D01*
X199466666Y-96933390D02*
X199419047Y-96981009D01*
X199419047Y-96981009D02*
X199323809Y-97028628D01*
X199323809Y-97028628D02*
X198942857Y-97028628D01*
X199895238Y-96600057D02*
X199942857Y-96552438D01*
X199942857Y-96552438D02*
X200038095Y-96504819D01*
X200038095Y-96504819D02*
X200276190Y-96504819D01*
X200276190Y-96504819D02*
X200371428Y-96552438D01*
X200371428Y-96552438D02*
X200419047Y-96600057D01*
X200419047Y-96600057D02*
X200466666Y-96695295D01*
X200466666Y-96695295D02*
X200466666Y-96790533D01*
X200466666Y-96790533D02*
X200419047Y-96933390D01*
X200419047Y-96933390D02*
X199847619Y-97504819D01*
X199847619Y-97504819D02*
X200466666Y-97504819D01*
X168637279Y-84831540D02*
X168161088Y-85164873D01*
X168637279Y-85402968D02*
X167637279Y-85402968D01*
X167637279Y-85402968D02*
X167637279Y-85022016D01*
X167637279Y-85022016D02*
X167684898Y-84926778D01*
X167684898Y-84926778D02*
X167732517Y-84879159D01*
X167732517Y-84879159D02*
X167827755Y-84831540D01*
X167827755Y-84831540D02*
X167970612Y-84831540D01*
X167970612Y-84831540D02*
X168065850Y-84879159D01*
X168065850Y-84879159D02*
X168113469Y-84926778D01*
X168113469Y-84926778D02*
X168161088Y-85022016D01*
X168161088Y-85022016D02*
X168161088Y-85402968D01*
X168637279Y-83879159D02*
X168637279Y-84450587D01*
X168637279Y-84164873D02*
X167637279Y-84164873D01*
X167637279Y-84164873D02*
X167780136Y-84260111D01*
X167780136Y-84260111D02*
X167875374Y-84355349D01*
X167875374Y-84355349D02*
X167922993Y-84450587D01*
X167637279Y-83260111D02*
X167637279Y-83164873D01*
X167637279Y-83164873D02*
X167684898Y-83069635D01*
X167684898Y-83069635D02*
X167732517Y-83022016D01*
X167732517Y-83022016D02*
X167827755Y-82974397D01*
X167827755Y-82974397D02*
X168018231Y-82926778D01*
X168018231Y-82926778D02*
X168256326Y-82926778D01*
X168256326Y-82926778D02*
X168446802Y-82974397D01*
X168446802Y-82974397D02*
X168542040Y-83022016D01*
X168542040Y-83022016D02*
X168589660Y-83069635D01*
X168589660Y-83069635D02*
X168637279Y-83164873D01*
X168637279Y-83164873D02*
X168637279Y-83260111D01*
X168637279Y-83260111D02*
X168589660Y-83355349D01*
X168589660Y-83355349D02*
X168542040Y-83402968D01*
X168542040Y-83402968D02*
X168446802Y-83450587D01*
X168446802Y-83450587D02*
X168256326Y-83498206D01*
X168256326Y-83498206D02*
X168018231Y-83498206D01*
X168018231Y-83498206D02*
X167827755Y-83450587D01*
X167827755Y-83450587D02*
X167732517Y-83402968D01*
X167732517Y-83402968D02*
X167684898Y-83355349D01*
X167684898Y-83355349D02*
X167637279Y-83260111D01*
X162016666Y-115704819D02*
X162016666Y-116419104D01*
X162016666Y-116419104D02*
X161969047Y-116561961D01*
X161969047Y-116561961D02*
X161873809Y-116657200D01*
X161873809Y-116657200D02*
X161730952Y-116704819D01*
X161730952Y-116704819D02*
X161635714Y-116704819D01*
X162921428Y-116038152D02*
X162921428Y-116704819D01*
X162683333Y-115657200D02*
X162445238Y-116371485D01*
X162445238Y-116371485D02*
X163064285Y-116371485D01*
X156921428Y-125454819D02*
X156921428Y-124454819D01*
X156921428Y-124454819D02*
X157492856Y-125454819D01*
X157492856Y-125454819D02*
X157492856Y-124454819D01*
X158397618Y-125454819D02*
X158397618Y-124931009D01*
X158397618Y-124931009D02*
X158349999Y-124835771D01*
X158349999Y-124835771D02*
X158254761Y-124788152D01*
X158254761Y-124788152D02*
X158064285Y-124788152D01*
X158064285Y-124788152D02*
X157969047Y-124835771D01*
X158397618Y-125407200D02*
X158302380Y-125454819D01*
X158302380Y-125454819D02*
X158064285Y-125454819D01*
X158064285Y-125454819D02*
X157969047Y-125407200D01*
X157969047Y-125407200D02*
X157921428Y-125311961D01*
X157921428Y-125311961D02*
X157921428Y-125216723D01*
X157921428Y-125216723D02*
X157969047Y-125121485D01*
X157969047Y-125121485D02*
X158064285Y-125073866D01*
X158064285Y-125073866D02*
X158302380Y-125073866D01*
X158302380Y-125073866D02*
X158397618Y-125026247D01*
X158778571Y-124788152D02*
X159016666Y-125454819D01*
X159016666Y-125454819D02*
X159254761Y-124788152D01*
X159635714Y-125454819D02*
X159635714Y-124788152D01*
X159635714Y-124454819D02*
X159588095Y-124502438D01*
X159588095Y-124502438D02*
X159635714Y-124550057D01*
X159635714Y-124550057D02*
X159683333Y-124502438D01*
X159683333Y-124502438D02*
X159635714Y-124454819D01*
X159635714Y-124454819D02*
X159635714Y-124550057D01*
X160540475Y-124788152D02*
X160540475Y-125597676D01*
X160540475Y-125597676D02*
X160492856Y-125692914D01*
X160492856Y-125692914D02*
X160445237Y-125740533D01*
X160445237Y-125740533D02*
X160349999Y-125788152D01*
X160349999Y-125788152D02*
X160207142Y-125788152D01*
X160207142Y-125788152D02*
X160111904Y-125740533D01*
X160540475Y-125407200D02*
X160445237Y-125454819D01*
X160445237Y-125454819D02*
X160254761Y-125454819D01*
X160254761Y-125454819D02*
X160159523Y-125407200D01*
X160159523Y-125407200D02*
X160111904Y-125359580D01*
X160111904Y-125359580D02*
X160064285Y-125264342D01*
X160064285Y-125264342D02*
X160064285Y-124978628D01*
X160064285Y-124978628D02*
X160111904Y-124883390D01*
X160111904Y-124883390D02*
X160159523Y-124835771D01*
X160159523Y-124835771D02*
X160254761Y-124788152D01*
X160254761Y-124788152D02*
X160445237Y-124788152D01*
X160445237Y-124788152D02*
X160540475Y-124835771D01*
X161445237Y-125454819D02*
X161445237Y-124931009D01*
X161445237Y-124931009D02*
X161397618Y-124835771D01*
X161397618Y-124835771D02*
X161302380Y-124788152D01*
X161302380Y-124788152D02*
X161111904Y-124788152D01*
X161111904Y-124788152D02*
X161016666Y-124835771D01*
X161445237Y-125407200D02*
X161349999Y-125454819D01*
X161349999Y-125454819D02*
X161111904Y-125454819D01*
X161111904Y-125454819D02*
X161016666Y-125407200D01*
X161016666Y-125407200D02*
X160969047Y-125311961D01*
X160969047Y-125311961D02*
X160969047Y-125216723D01*
X160969047Y-125216723D02*
X161016666Y-125121485D01*
X161016666Y-125121485D02*
X161111904Y-125073866D01*
X161111904Y-125073866D02*
X161349999Y-125073866D01*
X161349999Y-125073866D02*
X161445237Y-125026247D01*
X161778571Y-124788152D02*
X162159523Y-124788152D01*
X161921428Y-124454819D02*
X161921428Y-125311961D01*
X161921428Y-125311961D02*
X161969047Y-125407200D01*
X161969047Y-125407200D02*
X162064285Y-125454819D01*
X162064285Y-125454819D02*
X162159523Y-125454819D01*
X162492857Y-125454819D02*
X162492857Y-124788152D01*
X162492857Y-124454819D02*
X162445238Y-124502438D01*
X162445238Y-124502438D02*
X162492857Y-124550057D01*
X162492857Y-124550057D02*
X162540476Y-124502438D01*
X162540476Y-124502438D02*
X162492857Y-124454819D01*
X162492857Y-124454819D02*
X162492857Y-124550057D01*
X163111904Y-125454819D02*
X163016666Y-125407200D01*
X163016666Y-125407200D02*
X162969047Y-125359580D01*
X162969047Y-125359580D02*
X162921428Y-125264342D01*
X162921428Y-125264342D02*
X162921428Y-124978628D01*
X162921428Y-124978628D02*
X162969047Y-124883390D01*
X162969047Y-124883390D02*
X163016666Y-124835771D01*
X163016666Y-124835771D02*
X163111904Y-124788152D01*
X163111904Y-124788152D02*
X163254761Y-124788152D01*
X163254761Y-124788152D02*
X163349999Y-124835771D01*
X163349999Y-124835771D02*
X163397618Y-124883390D01*
X163397618Y-124883390D02*
X163445237Y-124978628D01*
X163445237Y-124978628D02*
X163445237Y-125264342D01*
X163445237Y-125264342D02*
X163397618Y-125359580D01*
X163397618Y-125359580D02*
X163349999Y-125407200D01*
X163349999Y-125407200D02*
X163254761Y-125454819D01*
X163254761Y-125454819D02*
X163111904Y-125454819D01*
X163873809Y-124788152D02*
X163873809Y-125454819D01*
X163873809Y-124883390D02*
X163921428Y-124835771D01*
X163921428Y-124835771D02*
X164016666Y-124788152D01*
X164016666Y-124788152D02*
X164159523Y-124788152D01*
X164159523Y-124788152D02*
X164254761Y-124835771D01*
X164254761Y-124835771D02*
X164302380Y-124931009D01*
X164302380Y-124931009D02*
X164302380Y-125454819D01*
X165540476Y-124788152D02*
X165540476Y-125788152D01*
X165540476Y-124835771D02*
X165635714Y-124788152D01*
X165635714Y-124788152D02*
X165826190Y-124788152D01*
X165826190Y-124788152D02*
X165921428Y-124835771D01*
X165921428Y-124835771D02*
X165969047Y-124883390D01*
X165969047Y-124883390D02*
X166016666Y-124978628D01*
X166016666Y-124978628D02*
X166016666Y-125264342D01*
X166016666Y-125264342D02*
X165969047Y-125359580D01*
X165969047Y-125359580D02*
X165921428Y-125407200D01*
X165921428Y-125407200D02*
X165826190Y-125454819D01*
X165826190Y-125454819D02*
X165635714Y-125454819D01*
X165635714Y-125454819D02*
X165540476Y-125407200D01*
X166873809Y-125454819D02*
X166873809Y-124931009D01*
X166873809Y-124931009D02*
X166826190Y-124835771D01*
X166826190Y-124835771D02*
X166730952Y-124788152D01*
X166730952Y-124788152D02*
X166540476Y-124788152D01*
X166540476Y-124788152D02*
X166445238Y-124835771D01*
X166873809Y-125407200D02*
X166778571Y-125454819D01*
X166778571Y-125454819D02*
X166540476Y-125454819D01*
X166540476Y-125454819D02*
X166445238Y-125407200D01*
X166445238Y-125407200D02*
X166397619Y-125311961D01*
X166397619Y-125311961D02*
X166397619Y-125216723D01*
X166397619Y-125216723D02*
X166445238Y-125121485D01*
X166445238Y-125121485D02*
X166540476Y-125073866D01*
X166540476Y-125073866D02*
X166778571Y-125073866D01*
X166778571Y-125073866D02*
X166873809Y-125026247D01*
X167778571Y-125454819D02*
X167778571Y-124454819D01*
X167778571Y-125407200D02*
X167683333Y-125454819D01*
X167683333Y-125454819D02*
X167492857Y-125454819D01*
X167492857Y-125454819D02*
X167397619Y-125407200D01*
X167397619Y-125407200D02*
X167350000Y-125359580D01*
X167350000Y-125359580D02*
X167302381Y-125264342D01*
X167302381Y-125264342D02*
X167302381Y-124978628D01*
X167302381Y-124978628D02*
X167350000Y-124883390D01*
X167350000Y-124883390D02*
X167397619Y-124835771D01*
X167397619Y-124835771D02*
X167492857Y-124788152D01*
X167492857Y-124788152D02*
X167683333Y-124788152D01*
X167683333Y-124788152D02*
X167778571Y-124835771D01*
X199488095Y-82954819D02*
X199488095Y-83764342D01*
X199488095Y-83764342D02*
X199535714Y-83859580D01*
X199535714Y-83859580D02*
X199583333Y-83907200D01*
X199583333Y-83907200D02*
X199678571Y-83954819D01*
X199678571Y-83954819D02*
X199869047Y-83954819D01*
X199869047Y-83954819D02*
X199964285Y-83907200D01*
X199964285Y-83907200D02*
X200011904Y-83859580D01*
X200011904Y-83859580D02*
X200059523Y-83764342D01*
X200059523Y-83764342D02*
X200059523Y-82954819D01*
X200964285Y-83288152D02*
X200964285Y-83954819D01*
X200726190Y-82907200D02*
X200488095Y-83621485D01*
X200488095Y-83621485D02*
X201107142Y-83621485D01*
X158791041Y-71006963D02*
X158457708Y-70530772D01*
X158219613Y-71006963D02*
X158219613Y-70006963D01*
X158219613Y-70006963D02*
X158600565Y-70006963D01*
X158600565Y-70006963D02*
X158695803Y-70054582D01*
X158695803Y-70054582D02*
X158743422Y-70102201D01*
X158743422Y-70102201D02*
X158791041Y-70197439D01*
X158791041Y-70197439D02*
X158791041Y-70340296D01*
X158791041Y-70340296D02*
X158743422Y-70435534D01*
X158743422Y-70435534D02*
X158695803Y-70483153D01*
X158695803Y-70483153D02*
X158600565Y-70530772D01*
X158600565Y-70530772D02*
X158219613Y-70530772D01*
X159743422Y-71006963D02*
X159171994Y-71006963D01*
X159457708Y-71006963D02*
X159457708Y-70006963D01*
X159457708Y-70006963D02*
X159362470Y-70149820D01*
X159362470Y-70149820D02*
X159267232Y-70245058D01*
X159267232Y-70245058D02*
X159171994Y-70292677D01*
X160600565Y-70340296D02*
X160600565Y-71006963D01*
X160362470Y-69959344D02*
X160124375Y-70673629D01*
X160124375Y-70673629D02*
X160743422Y-70673629D01*
X169992899Y-58999011D02*
X169242899Y-58999011D01*
X169242899Y-58999011D02*
X169778613Y-58749011D01*
X169778613Y-58749011D02*
X169242899Y-58499011D01*
X169242899Y-58499011D02*
X169992899Y-58499011D01*
X169921470Y-57713297D02*
X169957185Y-57749011D01*
X169957185Y-57749011D02*
X169992899Y-57856154D01*
X169992899Y-57856154D02*
X169992899Y-57927582D01*
X169992899Y-57927582D02*
X169957185Y-58034725D01*
X169957185Y-58034725D02*
X169885756Y-58106154D01*
X169885756Y-58106154D02*
X169814327Y-58141868D01*
X169814327Y-58141868D02*
X169671470Y-58177582D01*
X169671470Y-58177582D02*
X169564327Y-58177582D01*
X169564327Y-58177582D02*
X169421470Y-58141868D01*
X169421470Y-58141868D02*
X169350042Y-58106154D01*
X169350042Y-58106154D02*
X169278613Y-58034725D01*
X169278613Y-58034725D02*
X169242899Y-57927582D01*
X169242899Y-57927582D02*
X169242899Y-57856154D01*
X169242899Y-57856154D02*
X169278613Y-57749011D01*
X169278613Y-57749011D02*
X169314327Y-57713297D01*
X169992899Y-57391868D02*
X169242899Y-57391868D01*
X169242899Y-57391868D02*
X169242899Y-57106154D01*
X169242899Y-57106154D02*
X169278613Y-57034725D01*
X169278613Y-57034725D02*
X169314327Y-56999011D01*
X169314327Y-56999011D02*
X169385756Y-56963297D01*
X169385756Y-56963297D02*
X169492899Y-56963297D01*
X169492899Y-56963297D02*
X169564327Y-56999011D01*
X169564327Y-56999011D02*
X169600042Y-57034725D01*
X169600042Y-57034725D02*
X169635756Y-57106154D01*
X169635756Y-57106154D02*
X169635756Y-57391868D01*
X169242899Y-56320440D02*
X169242899Y-56463297D01*
X169242899Y-56463297D02*
X169278613Y-56534725D01*
X169278613Y-56534725D02*
X169314327Y-56570440D01*
X169314327Y-56570440D02*
X169421470Y-56641868D01*
X169421470Y-56641868D02*
X169564327Y-56677582D01*
X169564327Y-56677582D02*
X169850042Y-56677582D01*
X169850042Y-56677582D02*
X169921470Y-56641868D01*
X169921470Y-56641868D02*
X169957185Y-56606154D01*
X169957185Y-56606154D02*
X169992899Y-56534725D01*
X169992899Y-56534725D02*
X169992899Y-56391868D01*
X169992899Y-56391868D02*
X169957185Y-56320440D01*
X169957185Y-56320440D02*
X169921470Y-56284725D01*
X169921470Y-56284725D02*
X169850042Y-56249011D01*
X169850042Y-56249011D02*
X169671470Y-56249011D01*
X169671470Y-56249011D02*
X169600042Y-56284725D01*
X169600042Y-56284725D02*
X169564327Y-56320440D01*
X169564327Y-56320440D02*
X169528613Y-56391868D01*
X169528613Y-56391868D02*
X169528613Y-56534725D01*
X169528613Y-56534725D02*
X169564327Y-56606154D01*
X169564327Y-56606154D02*
X169600042Y-56641868D01*
X169600042Y-56641868D02*
X169671470Y-56677582D01*
X169242899Y-55784725D02*
X169242899Y-55713296D01*
X169242899Y-55713296D02*
X169278613Y-55641868D01*
X169278613Y-55641868D02*
X169314327Y-55606154D01*
X169314327Y-55606154D02*
X169385756Y-55570439D01*
X169385756Y-55570439D02*
X169528613Y-55534725D01*
X169528613Y-55534725D02*
X169707185Y-55534725D01*
X169707185Y-55534725D02*
X169850042Y-55570439D01*
X169850042Y-55570439D02*
X169921470Y-55606154D01*
X169921470Y-55606154D02*
X169957185Y-55641868D01*
X169957185Y-55641868D02*
X169992899Y-55713296D01*
X169992899Y-55713296D02*
X169992899Y-55784725D01*
X169992899Y-55784725D02*
X169957185Y-55856154D01*
X169957185Y-55856154D02*
X169921470Y-55891868D01*
X169921470Y-55891868D02*
X169850042Y-55927582D01*
X169850042Y-55927582D02*
X169707185Y-55963296D01*
X169707185Y-55963296D02*
X169528613Y-55963296D01*
X169528613Y-55963296D02*
X169385756Y-55927582D01*
X169385756Y-55927582D02*
X169314327Y-55891868D01*
X169314327Y-55891868D02*
X169278613Y-55856154D01*
X169278613Y-55856154D02*
X169242899Y-55784725D01*
X169242899Y-55070439D02*
X169242899Y-54999010D01*
X169242899Y-54999010D02*
X169278613Y-54927582D01*
X169278613Y-54927582D02*
X169314327Y-54891868D01*
X169314327Y-54891868D02*
X169385756Y-54856153D01*
X169385756Y-54856153D02*
X169528613Y-54820439D01*
X169528613Y-54820439D02*
X169707185Y-54820439D01*
X169707185Y-54820439D02*
X169850042Y-54856153D01*
X169850042Y-54856153D02*
X169921470Y-54891868D01*
X169921470Y-54891868D02*
X169957185Y-54927582D01*
X169957185Y-54927582D02*
X169992899Y-54999010D01*
X169992899Y-54999010D02*
X169992899Y-55070439D01*
X169992899Y-55070439D02*
X169957185Y-55141868D01*
X169957185Y-55141868D02*
X169921470Y-55177582D01*
X169921470Y-55177582D02*
X169850042Y-55213296D01*
X169850042Y-55213296D02*
X169707185Y-55249010D01*
X169707185Y-55249010D02*
X169528613Y-55249010D01*
X169528613Y-55249010D02*
X169385756Y-55213296D01*
X169385756Y-55213296D02*
X169314327Y-55177582D01*
X169314327Y-55177582D02*
X169278613Y-55141868D01*
X169278613Y-55141868D02*
X169242899Y-55070439D01*
X169314327Y-54534724D02*
X169278613Y-54499010D01*
X169278613Y-54499010D02*
X169242899Y-54427582D01*
X169242899Y-54427582D02*
X169242899Y-54249010D01*
X169242899Y-54249010D02*
X169278613Y-54177582D01*
X169278613Y-54177582D02*
X169314327Y-54141867D01*
X169314327Y-54141867D02*
X169385756Y-54106153D01*
X169385756Y-54106153D02*
X169457185Y-54106153D01*
X169457185Y-54106153D02*
X169564327Y-54141867D01*
X169564327Y-54141867D02*
X169992899Y-54570439D01*
X169992899Y-54570439D02*
X169992899Y-54106153D01*
X169707185Y-53784724D02*
X169707185Y-53213296D01*
X169992899Y-52856153D02*
X169242899Y-52856153D01*
X169207185Y-51963296D02*
X170171470Y-52606153D01*
X169992899Y-51713296D02*
X169242899Y-51713296D01*
X169242899Y-51713296D02*
X169242899Y-51427582D01*
X169242899Y-51427582D02*
X169278613Y-51356153D01*
X169278613Y-51356153D02*
X169314327Y-51320439D01*
X169314327Y-51320439D02*
X169385756Y-51284725D01*
X169385756Y-51284725D02*
X169492899Y-51284725D01*
X169492899Y-51284725D02*
X169564327Y-51320439D01*
X169564327Y-51320439D02*
X169600042Y-51356153D01*
X169600042Y-51356153D02*
X169635756Y-51427582D01*
X169635756Y-51427582D02*
X169635756Y-51713296D01*
X159297068Y-58289306D02*
X159249449Y-58336926D01*
X159249449Y-58336926D02*
X159106592Y-58384545D01*
X159106592Y-58384545D02*
X159011354Y-58384545D01*
X159011354Y-58384545D02*
X158868497Y-58336926D01*
X158868497Y-58336926D02*
X158773259Y-58241687D01*
X158773259Y-58241687D02*
X158725640Y-58146449D01*
X158725640Y-58146449D02*
X158678021Y-57955973D01*
X158678021Y-57955973D02*
X158678021Y-57813116D01*
X158678021Y-57813116D02*
X158725640Y-57622640D01*
X158725640Y-57622640D02*
X158773259Y-57527402D01*
X158773259Y-57527402D02*
X158868497Y-57432164D01*
X158868497Y-57432164D02*
X159011354Y-57384545D01*
X159011354Y-57384545D02*
X159106592Y-57384545D01*
X159106592Y-57384545D02*
X159249449Y-57432164D01*
X159249449Y-57432164D02*
X159297068Y-57479783D01*
X160201830Y-57384545D02*
X159725640Y-57384545D01*
X159725640Y-57384545D02*
X159678021Y-57860735D01*
X159678021Y-57860735D02*
X159725640Y-57813116D01*
X159725640Y-57813116D02*
X159820878Y-57765497D01*
X159820878Y-57765497D02*
X160058973Y-57765497D01*
X160058973Y-57765497D02*
X160154211Y-57813116D01*
X160154211Y-57813116D02*
X160201830Y-57860735D01*
X160201830Y-57860735D02*
X160249449Y-57955973D01*
X160249449Y-57955973D02*
X160249449Y-58194068D01*
X160249449Y-58194068D02*
X160201830Y-58289306D01*
X160201830Y-58289306D02*
X160154211Y-58336926D01*
X160154211Y-58336926D02*
X160058973Y-58384545D01*
X160058973Y-58384545D02*
X159820878Y-58384545D01*
X159820878Y-58384545D02*
X159725640Y-58336926D01*
X159725640Y-58336926D02*
X159678021Y-58289306D01*
X179066668Y-67918881D02*
X179019049Y-67966501D01*
X179019049Y-67966501D02*
X178876192Y-68014120D01*
X178876192Y-68014120D02*
X178780954Y-68014120D01*
X178780954Y-68014120D02*
X178638097Y-67966501D01*
X178638097Y-67966501D02*
X178542859Y-67871262D01*
X178542859Y-67871262D02*
X178495240Y-67776024D01*
X178495240Y-67776024D02*
X178447621Y-67585548D01*
X178447621Y-67585548D02*
X178447621Y-67442691D01*
X178447621Y-67442691D02*
X178495240Y-67252215D01*
X178495240Y-67252215D02*
X178542859Y-67156977D01*
X178542859Y-67156977D02*
X178638097Y-67061739D01*
X178638097Y-67061739D02*
X178780954Y-67014120D01*
X178780954Y-67014120D02*
X178876192Y-67014120D01*
X178876192Y-67014120D02*
X179019049Y-67061739D01*
X179019049Y-67061739D02*
X179066668Y-67109358D01*
X180019049Y-68014120D02*
X179447621Y-68014120D01*
X179733335Y-68014120D02*
X179733335Y-67014120D01*
X179733335Y-67014120D02*
X179638097Y-67156977D01*
X179638097Y-67156977D02*
X179542859Y-67252215D01*
X179542859Y-67252215D02*
X179447621Y-67299834D01*
X180971430Y-68014120D02*
X180400002Y-68014120D01*
X180685716Y-68014120D02*
X180685716Y-67014120D01*
X180685716Y-67014120D02*
X180590478Y-67156977D01*
X180590478Y-67156977D02*
X180495240Y-67252215D01*
X180495240Y-67252215D02*
X180400002Y-67299834D01*
X150416666Y-75404819D02*
X150416666Y-76119104D01*
X150416666Y-76119104D02*
X150369047Y-76261961D01*
X150369047Y-76261961D02*
X150273809Y-76357200D01*
X150273809Y-76357200D02*
X150130952Y-76404819D01*
X150130952Y-76404819D02*
X150035714Y-76404819D01*
X150845238Y-75500057D02*
X150892857Y-75452438D01*
X150892857Y-75452438D02*
X150988095Y-75404819D01*
X150988095Y-75404819D02*
X151226190Y-75404819D01*
X151226190Y-75404819D02*
X151321428Y-75452438D01*
X151321428Y-75452438D02*
X151369047Y-75500057D01*
X151369047Y-75500057D02*
X151416666Y-75595295D01*
X151416666Y-75595295D02*
X151416666Y-75690533D01*
X151416666Y-75690533D02*
X151369047Y-75833390D01*
X151369047Y-75833390D02*
X150797619Y-76404819D01*
X150797619Y-76404819D02*
X151416666Y-76404819D01*
X147554819Y-82188095D02*
X147078628Y-82521428D01*
X147554819Y-82759523D02*
X146554819Y-82759523D01*
X146554819Y-82759523D02*
X146554819Y-82378571D01*
X146554819Y-82378571D02*
X146602438Y-82283333D01*
X146602438Y-82283333D02*
X146650057Y-82235714D01*
X146650057Y-82235714D02*
X146745295Y-82188095D01*
X146745295Y-82188095D02*
X146888152Y-82188095D01*
X146888152Y-82188095D02*
X146983390Y-82235714D01*
X146983390Y-82235714D02*
X147031009Y-82283333D01*
X147031009Y-82283333D02*
X147078628Y-82378571D01*
X147078628Y-82378571D02*
X147078628Y-82759523D01*
X147507200Y-81378571D02*
X147554819Y-81473809D01*
X147554819Y-81473809D02*
X147554819Y-81664285D01*
X147554819Y-81664285D02*
X147507200Y-81759523D01*
X147507200Y-81759523D02*
X147411961Y-81807142D01*
X147411961Y-81807142D02*
X147031009Y-81807142D01*
X147031009Y-81807142D02*
X146935771Y-81759523D01*
X146935771Y-81759523D02*
X146888152Y-81664285D01*
X146888152Y-81664285D02*
X146888152Y-81473809D01*
X146888152Y-81473809D02*
X146935771Y-81378571D01*
X146935771Y-81378571D02*
X147031009Y-81330952D01*
X147031009Y-81330952D02*
X147126247Y-81330952D01*
X147126247Y-81330952D02*
X147221485Y-81807142D01*
X147507200Y-80949999D02*
X147554819Y-80854761D01*
X147554819Y-80854761D02*
X147554819Y-80664285D01*
X147554819Y-80664285D02*
X147507200Y-80569047D01*
X147507200Y-80569047D02*
X147411961Y-80521428D01*
X147411961Y-80521428D02*
X147364342Y-80521428D01*
X147364342Y-80521428D02*
X147269104Y-80569047D01*
X147269104Y-80569047D02*
X147221485Y-80664285D01*
X147221485Y-80664285D02*
X147221485Y-80807142D01*
X147221485Y-80807142D02*
X147173866Y-80902380D01*
X147173866Y-80902380D02*
X147078628Y-80949999D01*
X147078628Y-80949999D02*
X147031009Y-80949999D01*
X147031009Y-80949999D02*
X146935771Y-80902380D01*
X146935771Y-80902380D02*
X146888152Y-80807142D01*
X146888152Y-80807142D02*
X146888152Y-80664285D01*
X146888152Y-80664285D02*
X146935771Y-80569047D01*
X147507200Y-79711904D02*
X147554819Y-79807142D01*
X147554819Y-79807142D02*
X147554819Y-79997618D01*
X147554819Y-79997618D02*
X147507200Y-80092856D01*
X147507200Y-80092856D02*
X147411961Y-80140475D01*
X147411961Y-80140475D02*
X147031009Y-80140475D01*
X147031009Y-80140475D02*
X146935771Y-80092856D01*
X146935771Y-80092856D02*
X146888152Y-79997618D01*
X146888152Y-79997618D02*
X146888152Y-79807142D01*
X146888152Y-79807142D02*
X146935771Y-79711904D01*
X146935771Y-79711904D02*
X147031009Y-79664285D01*
X147031009Y-79664285D02*
X147126247Y-79664285D01*
X147126247Y-79664285D02*
X147221485Y-80140475D01*
X146888152Y-79378570D02*
X146888152Y-78997618D01*
X146554819Y-79235713D02*
X147411961Y-79235713D01*
X147411961Y-79235713D02*
X147507200Y-79188094D01*
X147507200Y-79188094D02*
X147554819Y-79092856D01*
X147554819Y-79092856D02*
X147554819Y-78997618D01*
X149424734Y-51722710D02*
X149091401Y-51246519D01*
X148853306Y-51722710D02*
X148853306Y-50722710D01*
X148853306Y-50722710D02*
X149234258Y-50722710D01*
X149234258Y-50722710D02*
X149329496Y-50770329D01*
X149329496Y-50770329D02*
X149377115Y-50817948D01*
X149377115Y-50817948D02*
X149424734Y-50913186D01*
X149424734Y-50913186D02*
X149424734Y-51056043D01*
X149424734Y-51056043D02*
X149377115Y-51151281D01*
X149377115Y-51151281D02*
X149329496Y-51198900D01*
X149329496Y-51198900D02*
X149234258Y-51246519D01*
X149234258Y-51246519D02*
X148853306Y-51246519D01*
X149758068Y-50722710D02*
X150424734Y-50722710D01*
X150424734Y-50722710D02*
X149996163Y-51722710D01*
X195781009Y-119130952D02*
X195828628Y-118988095D01*
X195828628Y-118988095D02*
X195876247Y-118940476D01*
X195876247Y-118940476D02*
X195971485Y-118892857D01*
X195971485Y-118892857D02*
X196114342Y-118892857D01*
X196114342Y-118892857D02*
X196209580Y-118940476D01*
X196209580Y-118940476D02*
X196257200Y-118988095D01*
X196257200Y-118988095D02*
X196304819Y-119083333D01*
X196304819Y-119083333D02*
X196304819Y-119464285D01*
X196304819Y-119464285D02*
X195304819Y-119464285D01*
X195304819Y-119464285D02*
X195304819Y-119130952D01*
X195304819Y-119130952D02*
X195352438Y-119035714D01*
X195352438Y-119035714D02*
X195400057Y-118988095D01*
X195400057Y-118988095D02*
X195495295Y-118940476D01*
X195495295Y-118940476D02*
X195590533Y-118940476D01*
X195590533Y-118940476D02*
X195685771Y-118988095D01*
X195685771Y-118988095D02*
X195733390Y-119035714D01*
X195733390Y-119035714D02*
X195781009Y-119130952D01*
X195781009Y-119130952D02*
X195781009Y-119464285D01*
X195304819Y-118559523D02*
X195304819Y-117892857D01*
X195304819Y-117892857D02*
X196304819Y-118559523D01*
X196304819Y-118559523D02*
X196304819Y-117892857D01*
X196304819Y-116988095D02*
X196304819Y-117559523D01*
X196304819Y-117273809D02*
X195304819Y-117273809D01*
X195304819Y-117273809D02*
X195447676Y-117369047D01*
X195447676Y-117369047D02*
X195542914Y-117464285D01*
X195542914Y-117464285D02*
X195590533Y-117559523D01*
X198463866Y-114820951D02*
X198463866Y-114059047D01*
X198844819Y-114439999D02*
X198082914Y-114439999D01*
X149424734Y-55147710D02*
X149091401Y-54671519D01*
X148853306Y-55147710D02*
X148853306Y-54147710D01*
X148853306Y-54147710D02*
X149234258Y-54147710D01*
X149234258Y-54147710D02*
X149329496Y-54195329D01*
X149329496Y-54195329D02*
X149377115Y-54242948D01*
X149377115Y-54242948D02*
X149424734Y-54338186D01*
X149424734Y-54338186D02*
X149424734Y-54481043D01*
X149424734Y-54481043D02*
X149377115Y-54576281D01*
X149377115Y-54576281D02*
X149329496Y-54623900D01*
X149329496Y-54623900D02*
X149234258Y-54671519D01*
X149234258Y-54671519D02*
X148853306Y-54671519D01*
X149996163Y-54576281D02*
X149900925Y-54528662D01*
X149900925Y-54528662D02*
X149853306Y-54481043D01*
X149853306Y-54481043D02*
X149805687Y-54385805D01*
X149805687Y-54385805D02*
X149805687Y-54338186D01*
X149805687Y-54338186D02*
X149853306Y-54242948D01*
X149853306Y-54242948D02*
X149900925Y-54195329D01*
X149900925Y-54195329D02*
X149996163Y-54147710D01*
X149996163Y-54147710D02*
X150186639Y-54147710D01*
X150186639Y-54147710D02*
X150281877Y-54195329D01*
X150281877Y-54195329D02*
X150329496Y-54242948D01*
X150329496Y-54242948D02*
X150377115Y-54338186D01*
X150377115Y-54338186D02*
X150377115Y-54385805D01*
X150377115Y-54385805D02*
X150329496Y-54481043D01*
X150329496Y-54481043D02*
X150281877Y-54528662D01*
X150281877Y-54528662D02*
X150186639Y-54576281D01*
X150186639Y-54576281D02*
X149996163Y-54576281D01*
X149996163Y-54576281D02*
X149900925Y-54623900D01*
X149900925Y-54623900D02*
X149853306Y-54671519D01*
X149853306Y-54671519D02*
X149805687Y-54766757D01*
X149805687Y-54766757D02*
X149805687Y-54957233D01*
X149805687Y-54957233D02*
X149853306Y-55052471D01*
X149853306Y-55052471D02*
X149900925Y-55100091D01*
X149900925Y-55100091D02*
X149996163Y-55147710D01*
X149996163Y-55147710D02*
X150186639Y-55147710D01*
X150186639Y-55147710D02*
X150281877Y-55100091D01*
X150281877Y-55100091D02*
X150329496Y-55052471D01*
X150329496Y-55052471D02*
X150377115Y-54957233D01*
X150377115Y-54957233D02*
X150377115Y-54766757D01*
X150377115Y-54766757D02*
X150329496Y-54671519D01*
X150329496Y-54671519D02*
X150281877Y-54623900D01*
X150281877Y-54623900D02*
X150186639Y-54576281D01*
X179066668Y-64648881D02*
X179019049Y-64696501D01*
X179019049Y-64696501D02*
X178876192Y-64744120D01*
X178876192Y-64744120D02*
X178780954Y-64744120D01*
X178780954Y-64744120D02*
X178638097Y-64696501D01*
X178638097Y-64696501D02*
X178542859Y-64601262D01*
X178542859Y-64601262D02*
X178495240Y-64506024D01*
X178495240Y-64506024D02*
X178447621Y-64315548D01*
X178447621Y-64315548D02*
X178447621Y-64172691D01*
X178447621Y-64172691D02*
X178495240Y-63982215D01*
X178495240Y-63982215D02*
X178542859Y-63886977D01*
X178542859Y-63886977D02*
X178638097Y-63791739D01*
X178638097Y-63791739D02*
X178780954Y-63744120D01*
X178780954Y-63744120D02*
X178876192Y-63744120D01*
X178876192Y-63744120D02*
X179019049Y-63791739D01*
X179019049Y-63791739D02*
X179066668Y-63839358D01*
X180019049Y-64744120D02*
X179447621Y-64744120D01*
X179733335Y-64744120D02*
X179733335Y-63744120D01*
X179733335Y-63744120D02*
X179638097Y-63886977D01*
X179638097Y-63886977D02*
X179542859Y-63982215D01*
X179542859Y-63982215D02*
X179447621Y-64029834D01*
X180923811Y-63744120D02*
X180447621Y-63744120D01*
X180447621Y-63744120D02*
X180400002Y-64220310D01*
X180400002Y-64220310D02*
X180447621Y-64172691D01*
X180447621Y-64172691D02*
X180542859Y-64125072D01*
X180542859Y-64125072D02*
X180780954Y-64125072D01*
X180780954Y-64125072D02*
X180876192Y-64172691D01*
X180876192Y-64172691D02*
X180923811Y-64220310D01*
X180923811Y-64220310D02*
X180971430Y-64315548D01*
X180971430Y-64315548D02*
X180971430Y-64553643D01*
X180971430Y-64553643D02*
X180923811Y-64648881D01*
X180923811Y-64648881D02*
X180876192Y-64696501D01*
X180876192Y-64696501D02*
X180780954Y-64744120D01*
X180780954Y-64744120D02*
X180542859Y-64744120D01*
X180542859Y-64744120D02*
X180447621Y-64696501D01*
X180447621Y-64696501D02*
X180400002Y-64648881D01*
X171542040Y-84355349D02*
X171589660Y-84402968D01*
X171589660Y-84402968D02*
X171637279Y-84545825D01*
X171637279Y-84545825D02*
X171637279Y-84641063D01*
X171637279Y-84641063D02*
X171589660Y-84783920D01*
X171589660Y-84783920D02*
X171494421Y-84879158D01*
X171494421Y-84879158D02*
X171399183Y-84926777D01*
X171399183Y-84926777D02*
X171208707Y-84974396D01*
X171208707Y-84974396D02*
X171065850Y-84974396D01*
X171065850Y-84974396D02*
X170875374Y-84926777D01*
X170875374Y-84926777D02*
X170780136Y-84879158D01*
X170780136Y-84879158D02*
X170684898Y-84783920D01*
X170684898Y-84783920D02*
X170637279Y-84641063D01*
X170637279Y-84641063D02*
X170637279Y-84545825D01*
X170637279Y-84545825D02*
X170684898Y-84402968D01*
X170684898Y-84402968D02*
X170732517Y-84355349D01*
X170637279Y-83498206D02*
X170637279Y-83688682D01*
X170637279Y-83688682D02*
X170684898Y-83783920D01*
X170684898Y-83783920D02*
X170732517Y-83831539D01*
X170732517Y-83831539D02*
X170875374Y-83926777D01*
X170875374Y-83926777D02*
X171065850Y-83974396D01*
X171065850Y-83974396D02*
X171446802Y-83974396D01*
X171446802Y-83974396D02*
X171542040Y-83926777D01*
X171542040Y-83926777D02*
X171589660Y-83879158D01*
X171589660Y-83879158D02*
X171637279Y-83783920D01*
X171637279Y-83783920D02*
X171637279Y-83593444D01*
X171637279Y-83593444D02*
X171589660Y-83498206D01*
X171589660Y-83498206D02*
X171542040Y-83450587D01*
X171542040Y-83450587D02*
X171446802Y-83402968D01*
X171446802Y-83402968D02*
X171208707Y-83402968D01*
X171208707Y-83402968D02*
X171113469Y-83450587D01*
X171113469Y-83450587D02*
X171065850Y-83498206D01*
X171065850Y-83498206D02*
X171018231Y-83593444D01*
X171018231Y-83593444D02*
X171018231Y-83783920D01*
X171018231Y-83783920D02*
X171065850Y-83879158D01*
X171065850Y-83879158D02*
X171113469Y-83926777D01*
X171113469Y-83926777D02*
X171208707Y-83974396D01*
X159377232Y-67661724D02*
X159329613Y-67709344D01*
X159329613Y-67709344D02*
X159186756Y-67756963D01*
X159186756Y-67756963D02*
X159091518Y-67756963D01*
X159091518Y-67756963D02*
X158948661Y-67709344D01*
X158948661Y-67709344D02*
X158853423Y-67614105D01*
X158853423Y-67614105D02*
X158805804Y-67518867D01*
X158805804Y-67518867D02*
X158758185Y-67328391D01*
X158758185Y-67328391D02*
X158758185Y-67185534D01*
X158758185Y-67185534D02*
X158805804Y-66995058D01*
X158805804Y-66995058D02*
X158853423Y-66899820D01*
X158853423Y-66899820D02*
X158948661Y-66804582D01*
X158948661Y-66804582D02*
X159091518Y-66756963D01*
X159091518Y-66756963D02*
X159186756Y-66756963D01*
X159186756Y-66756963D02*
X159329613Y-66804582D01*
X159329613Y-66804582D02*
X159377232Y-66852201D01*
X159948661Y-67185534D02*
X159853423Y-67137915D01*
X159853423Y-67137915D02*
X159805804Y-67090296D01*
X159805804Y-67090296D02*
X159758185Y-66995058D01*
X159758185Y-66995058D02*
X159758185Y-66947439D01*
X159758185Y-66947439D02*
X159805804Y-66852201D01*
X159805804Y-66852201D02*
X159853423Y-66804582D01*
X159853423Y-66804582D02*
X159948661Y-66756963D01*
X159948661Y-66756963D02*
X160139137Y-66756963D01*
X160139137Y-66756963D02*
X160234375Y-66804582D01*
X160234375Y-66804582D02*
X160281994Y-66852201D01*
X160281994Y-66852201D02*
X160329613Y-66947439D01*
X160329613Y-66947439D02*
X160329613Y-66995058D01*
X160329613Y-66995058D02*
X160281994Y-67090296D01*
X160281994Y-67090296D02*
X160234375Y-67137915D01*
X160234375Y-67137915D02*
X160139137Y-67185534D01*
X160139137Y-67185534D02*
X159948661Y-67185534D01*
X159948661Y-67185534D02*
X159853423Y-67233153D01*
X159853423Y-67233153D02*
X159805804Y-67280772D01*
X159805804Y-67280772D02*
X159758185Y-67376010D01*
X159758185Y-67376010D02*
X159758185Y-67566486D01*
X159758185Y-67566486D02*
X159805804Y-67661724D01*
X159805804Y-67661724D02*
X159853423Y-67709344D01*
X159853423Y-67709344D02*
X159948661Y-67756963D01*
X159948661Y-67756963D02*
X160139137Y-67756963D01*
X160139137Y-67756963D02*
X160234375Y-67709344D01*
X160234375Y-67709344D02*
X160281994Y-67661724D01*
X160281994Y-67661724D02*
X160329613Y-67566486D01*
X160329613Y-67566486D02*
X160329613Y-67376010D01*
X160329613Y-67376010D02*
X160281994Y-67280772D01*
X160281994Y-67280772D02*
X160234375Y-67233153D01*
X160234375Y-67233153D02*
X160139137Y-67185534D01*
X188893739Y-68022419D02*
X188560406Y-67546228D01*
X188322311Y-68022419D02*
X188322311Y-67022419D01*
X188322311Y-67022419D02*
X188703263Y-67022419D01*
X188703263Y-67022419D02*
X188798501Y-67070038D01*
X188798501Y-67070038D02*
X188846120Y-67117657D01*
X188846120Y-67117657D02*
X188893739Y-67212895D01*
X188893739Y-67212895D02*
X188893739Y-67355752D01*
X188893739Y-67355752D02*
X188846120Y-67450990D01*
X188846120Y-67450990D02*
X188798501Y-67498609D01*
X188798501Y-67498609D02*
X188703263Y-67546228D01*
X188703263Y-67546228D02*
X188322311Y-67546228D01*
X189846120Y-68022419D02*
X189274692Y-68022419D01*
X189560406Y-68022419D02*
X189560406Y-67022419D01*
X189560406Y-67022419D02*
X189465168Y-67165276D01*
X189465168Y-67165276D02*
X189369930Y-67260514D01*
X189369930Y-67260514D02*
X189274692Y-67308133D01*
X190703263Y-67022419D02*
X190512787Y-67022419D01*
X190512787Y-67022419D02*
X190417549Y-67070038D01*
X190417549Y-67070038D02*
X190369930Y-67117657D01*
X190369930Y-67117657D02*
X190274692Y-67260514D01*
X190274692Y-67260514D02*
X190227073Y-67450990D01*
X190227073Y-67450990D02*
X190227073Y-67831942D01*
X190227073Y-67831942D02*
X190274692Y-67927180D01*
X190274692Y-67927180D02*
X190322311Y-67974800D01*
X190322311Y-67974800D02*
X190417549Y-68022419D01*
X190417549Y-68022419D02*
X190608025Y-68022419D01*
X190608025Y-68022419D02*
X190703263Y-67974800D01*
X190703263Y-67974800D02*
X190750882Y-67927180D01*
X190750882Y-67927180D02*
X190798501Y-67831942D01*
X190798501Y-67831942D02*
X190798501Y-67593847D01*
X190798501Y-67593847D02*
X190750882Y-67498609D01*
X190750882Y-67498609D02*
X190703263Y-67450990D01*
X190703263Y-67450990D02*
X190608025Y-67403371D01*
X190608025Y-67403371D02*
X190417549Y-67403371D01*
X190417549Y-67403371D02*
X190322311Y-67450990D01*
X190322311Y-67450990D02*
X190274692Y-67498609D01*
X190274692Y-67498609D02*
X190227073Y-67593847D01*
X183757142Y-115654819D02*
X183423809Y-115178628D01*
X183185714Y-115654819D02*
X183185714Y-114654819D01*
X183185714Y-114654819D02*
X183566666Y-114654819D01*
X183566666Y-114654819D02*
X183661904Y-114702438D01*
X183661904Y-114702438D02*
X183709523Y-114750057D01*
X183709523Y-114750057D02*
X183757142Y-114845295D01*
X183757142Y-114845295D02*
X183757142Y-114988152D01*
X183757142Y-114988152D02*
X183709523Y-115083390D01*
X183709523Y-115083390D02*
X183661904Y-115131009D01*
X183661904Y-115131009D02*
X183566666Y-115178628D01*
X183566666Y-115178628D02*
X183185714Y-115178628D01*
X184138095Y-114750057D02*
X184185714Y-114702438D01*
X184185714Y-114702438D02*
X184280952Y-114654819D01*
X184280952Y-114654819D02*
X184519047Y-114654819D01*
X184519047Y-114654819D02*
X184614285Y-114702438D01*
X184614285Y-114702438D02*
X184661904Y-114750057D01*
X184661904Y-114750057D02*
X184709523Y-114845295D01*
X184709523Y-114845295D02*
X184709523Y-114940533D01*
X184709523Y-114940533D02*
X184661904Y-115083390D01*
X184661904Y-115083390D02*
X184090476Y-115654819D01*
X184090476Y-115654819D02*
X184709523Y-115654819D01*
X185661904Y-115654819D02*
X185090476Y-115654819D01*
X185376190Y-115654819D02*
X185376190Y-114654819D01*
X185376190Y-114654819D02*
X185280952Y-114797676D01*
X185280952Y-114797676D02*
X185185714Y-114892914D01*
X185185714Y-114892914D02*
X185090476Y-114940533D01*
X197988095Y-92504819D02*
X198559523Y-92504819D01*
X198273809Y-93504819D02*
X198273809Y-92504819D01*
X198892857Y-93504819D02*
X198892857Y-92504819D01*
X198892857Y-92504819D02*
X199273809Y-92504819D01*
X199273809Y-92504819D02*
X199369047Y-92552438D01*
X199369047Y-92552438D02*
X199416666Y-92600057D01*
X199416666Y-92600057D02*
X199464285Y-92695295D01*
X199464285Y-92695295D02*
X199464285Y-92838152D01*
X199464285Y-92838152D02*
X199416666Y-92933390D01*
X199416666Y-92933390D02*
X199369047Y-92981009D01*
X199369047Y-92981009D02*
X199273809Y-93028628D01*
X199273809Y-93028628D02*
X198892857Y-93028628D01*
X200416666Y-93504819D02*
X199845238Y-93504819D01*
X200130952Y-93504819D02*
X200130952Y-92504819D01*
X200130952Y-92504819D02*
X200035714Y-92647676D01*
X200035714Y-92647676D02*
X199940476Y-92742914D01*
X199940476Y-92742914D02*
X199845238Y-92790533D01*
X130666666Y-104204819D02*
X130333333Y-103728628D01*
X130095238Y-104204819D02*
X130095238Y-103204819D01*
X130095238Y-103204819D02*
X130476190Y-103204819D01*
X130476190Y-103204819D02*
X130571428Y-103252438D01*
X130571428Y-103252438D02*
X130619047Y-103300057D01*
X130619047Y-103300057D02*
X130666666Y-103395295D01*
X130666666Y-103395295D02*
X130666666Y-103538152D01*
X130666666Y-103538152D02*
X130619047Y-103633390D01*
X130619047Y-103633390D02*
X130571428Y-103681009D01*
X130571428Y-103681009D02*
X130476190Y-103728628D01*
X130476190Y-103728628D02*
X130095238Y-103728628D01*
X131095238Y-103681009D02*
X131428571Y-103681009D01*
X131571428Y-104204819D02*
X131095238Y-104204819D01*
X131095238Y-104204819D02*
X131095238Y-103204819D01*
X131095238Y-103204819D02*
X131571428Y-103204819D01*
X132333333Y-103681009D02*
X132000000Y-103681009D01*
X132000000Y-104204819D02*
X132000000Y-103204819D01*
X132000000Y-103204819D02*
X132476190Y-103204819D01*
X133000000Y-103204819D02*
X133000000Y-103442914D01*
X132761905Y-103347676D02*
X133000000Y-103442914D01*
X133000000Y-103442914D02*
X133238095Y-103347676D01*
X132857143Y-103633390D02*
X133000000Y-103442914D01*
X133000000Y-103442914D02*
X133142857Y-103633390D01*
X133761905Y-103204819D02*
X133761905Y-103442914D01*
X133523810Y-103347676D02*
X133761905Y-103442914D01*
X133761905Y-103442914D02*
X134000000Y-103347676D01*
X133619048Y-103633390D02*
X133761905Y-103442914D01*
X133761905Y-103442914D02*
X133904762Y-103633390D01*
X131416666Y-59640577D02*
X131083333Y-59164386D01*
X130845238Y-59640577D02*
X130845238Y-58640577D01*
X130845238Y-58640577D02*
X131226190Y-58640577D01*
X131226190Y-58640577D02*
X131321428Y-58688196D01*
X131321428Y-58688196D02*
X131369047Y-58735815D01*
X131369047Y-58735815D02*
X131416666Y-58831053D01*
X131416666Y-58831053D02*
X131416666Y-58973910D01*
X131416666Y-58973910D02*
X131369047Y-59069148D01*
X131369047Y-59069148D02*
X131321428Y-59116767D01*
X131321428Y-59116767D02*
X131226190Y-59164386D01*
X131226190Y-59164386D02*
X130845238Y-59164386D01*
X131845238Y-59116767D02*
X132178571Y-59116767D01*
X132321428Y-59640577D02*
X131845238Y-59640577D01*
X131845238Y-59640577D02*
X131845238Y-58640577D01*
X131845238Y-58640577D02*
X132321428Y-58640577D01*
X133083333Y-59116767D02*
X132750000Y-59116767D01*
X132750000Y-59640577D02*
X132750000Y-58640577D01*
X132750000Y-58640577D02*
X133226190Y-58640577D01*
X133750000Y-58640577D02*
X133750000Y-58878672D01*
X133511905Y-58783434D02*
X133750000Y-58878672D01*
X133750000Y-58878672D02*
X133988095Y-58783434D01*
X133607143Y-59069148D02*
X133750000Y-58878672D01*
X133750000Y-58878672D02*
X133892857Y-59069148D01*
X134511905Y-58640577D02*
X134511905Y-58878672D01*
X134273810Y-58783434D02*
X134511905Y-58878672D01*
X134511905Y-58878672D02*
X134750000Y-58783434D01*
X134369048Y-59069148D02*
X134511905Y-58878672D01*
X134511905Y-58878672D02*
X134654762Y-59069148D01*
X196322129Y-59121674D02*
X196322129Y-59835959D01*
X196322129Y-59835959D02*
X196274510Y-59978816D01*
X196274510Y-59978816D02*
X196179272Y-60074055D01*
X196179272Y-60074055D02*
X196036415Y-60121674D01*
X196036415Y-60121674D02*
X195941177Y-60121674D01*
X197322129Y-60121674D02*
X196750701Y-60121674D01*
X197036415Y-60121674D02*
X197036415Y-59121674D01*
X197036415Y-59121674D02*
X196941177Y-59264531D01*
X196941177Y-59264531D02*
X196845939Y-59359769D01*
X196845939Y-59359769D02*
X196750701Y-59407388D01*
X201232839Y-60033297D02*
X201232839Y-59557107D01*
X201518554Y-60128535D02*
X200518554Y-59795202D01*
X200518554Y-59795202D02*
X201518554Y-59461869D01*
X200851887Y-59128535D02*
X201518554Y-59128535D01*
X200947125Y-59128535D02*
X200899506Y-59080916D01*
X200899506Y-59080916D02*
X200851887Y-58985678D01*
X200851887Y-58985678D02*
X200851887Y-58842821D01*
X200851887Y-58842821D02*
X200899506Y-58747583D01*
X200899506Y-58747583D02*
X200994744Y-58699964D01*
X200994744Y-58699964D02*
X201518554Y-58699964D01*
X201518554Y-57795202D02*
X200994744Y-57795202D01*
X200994744Y-57795202D02*
X200899506Y-57842821D01*
X200899506Y-57842821D02*
X200851887Y-57938059D01*
X200851887Y-57938059D02*
X200851887Y-58128535D01*
X200851887Y-58128535D02*
X200899506Y-58223773D01*
X201470935Y-57795202D02*
X201518554Y-57890440D01*
X201518554Y-57890440D02*
X201518554Y-58128535D01*
X201518554Y-58128535D02*
X201470935Y-58223773D01*
X201470935Y-58223773D02*
X201375696Y-58271392D01*
X201375696Y-58271392D02*
X201280458Y-58271392D01*
X201280458Y-58271392D02*
X201185220Y-58223773D01*
X201185220Y-58223773D02*
X201137601Y-58128535D01*
X201137601Y-58128535D02*
X201137601Y-57890440D01*
X201137601Y-57890440D02*
X201089982Y-57795202D01*
X201518554Y-57176154D02*
X201470935Y-57271392D01*
X201470935Y-57271392D02*
X201375696Y-57319011D01*
X201375696Y-57319011D02*
X200518554Y-57319011D01*
X201518554Y-56652344D02*
X201470935Y-56747582D01*
X201470935Y-56747582D02*
X201423315Y-56795201D01*
X201423315Y-56795201D02*
X201328077Y-56842820D01*
X201328077Y-56842820D02*
X201042363Y-56842820D01*
X201042363Y-56842820D02*
X200947125Y-56795201D01*
X200947125Y-56795201D02*
X200899506Y-56747582D01*
X200899506Y-56747582D02*
X200851887Y-56652344D01*
X200851887Y-56652344D02*
X200851887Y-56509487D01*
X200851887Y-56509487D02*
X200899506Y-56414249D01*
X200899506Y-56414249D02*
X200947125Y-56366630D01*
X200947125Y-56366630D02*
X201042363Y-56319011D01*
X201042363Y-56319011D02*
X201328077Y-56319011D01*
X201328077Y-56319011D02*
X201423315Y-56366630D01*
X201423315Y-56366630D02*
X201470935Y-56414249D01*
X201470935Y-56414249D02*
X201518554Y-56509487D01*
X201518554Y-56509487D02*
X201518554Y-56652344D01*
X200851887Y-55461868D02*
X201661411Y-55461868D01*
X201661411Y-55461868D02*
X201756649Y-55509487D01*
X201756649Y-55509487D02*
X201804268Y-55557106D01*
X201804268Y-55557106D02*
X201851887Y-55652344D01*
X201851887Y-55652344D02*
X201851887Y-55795201D01*
X201851887Y-55795201D02*
X201804268Y-55890439D01*
X201470935Y-55461868D02*
X201518554Y-55557106D01*
X201518554Y-55557106D02*
X201518554Y-55747582D01*
X201518554Y-55747582D02*
X201470935Y-55842820D01*
X201470935Y-55842820D02*
X201423315Y-55890439D01*
X201423315Y-55890439D02*
X201328077Y-55938058D01*
X201328077Y-55938058D02*
X201042363Y-55938058D01*
X201042363Y-55938058D02*
X200947125Y-55890439D01*
X200947125Y-55890439D02*
X200899506Y-55842820D01*
X200899506Y-55842820D02*
X200851887Y-55747582D01*
X200851887Y-55747582D02*
X200851887Y-55557106D01*
X200851887Y-55557106D02*
X200899506Y-55461868D01*
X201518554Y-54223772D02*
X200518554Y-54223772D01*
X200851887Y-53747582D02*
X201518554Y-53747582D01*
X200947125Y-53747582D02*
X200899506Y-53699963D01*
X200899506Y-53699963D02*
X200851887Y-53604725D01*
X200851887Y-53604725D02*
X200851887Y-53461868D01*
X200851887Y-53461868D02*
X200899506Y-53366630D01*
X200899506Y-53366630D02*
X200994744Y-53319011D01*
X200994744Y-53319011D02*
X201518554Y-53319011D01*
X200851887Y-52842820D02*
X201851887Y-52842820D01*
X200899506Y-52842820D02*
X200851887Y-52747582D01*
X200851887Y-52747582D02*
X200851887Y-52557106D01*
X200851887Y-52557106D02*
X200899506Y-52461868D01*
X200899506Y-52461868D02*
X200947125Y-52414249D01*
X200947125Y-52414249D02*
X201042363Y-52366630D01*
X201042363Y-52366630D02*
X201328077Y-52366630D01*
X201328077Y-52366630D02*
X201423315Y-52414249D01*
X201423315Y-52414249D02*
X201470935Y-52461868D01*
X201470935Y-52461868D02*
X201518554Y-52557106D01*
X201518554Y-52557106D02*
X201518554Y-52747582D01*
X201518554Y-52747582D02*
X201470935Y-52842820D01*
X200851887Y-51509487D02*
X201518554Y-51509487D01*
X200851887Y-51938058D02*
X201375696Y-51938058D01*
X201375696Y-51938058D02*
X201470935Y-51890439D01*
X201470935Y-51890439D02*
X201518554Y-51795201D01*
X201518554Y-51795201D02*
X201518554Y-51652344D01*
X201518554Y-51652344D02*
X201470935Y-51557106D01*
X201470935Y-51557106D02*
X201423315Y-51509487D01*
X200851887Y-51176153D02*
X200851887Y-50795201D01*
X200518554Y-51033296D02*
X201375696Y-51033296D01*
X201375696Y-51033296D02*
X201470935Y-50985677D01*
X201470935Y-50985677D02*
X201518554Y-50890439D01*
X201518554Y-50890439D02*
X201518554Y-50795201D01*
X201518554Y-49176153D02*
X201518554Y-49747581D01*
X201518554Y-49461867D02*
X200518554Y-49461867D01*
X200518554Y-49461867D02*
X200661411Y-49557105D01*
X200661411Y-49557105D02*
X200756649Y-49652343D01*
X200756649Y-49652343D02*
X200804268Y-49747581D01*
X214666666Y-106454819D02*
X214333333Y-105978628D01*
X214095238Y-106454819D02*
X214095238Y-105454819D01*
X214095238Y-105454819D02*
X214476190Y-105454819D01*
X214476190Y-105454819D02*
X214571428Y-105502438D01*
X214571428Y-105502438D02*
X214619047Y-105550057D01*
X214619047Y-105550057D02*
X214666666Y-105645295D01*
X214666666Y-105645295D02*
X214666666Y-105788152D01*
X214666666Y-105788152D02*
X214619047Y-105883390D01*
X214619047Y-105883390D02*
X214571428Y-105931009D01*
X214571428Y-105931009D02*
X214476190Y-105978628D01*
X214476190Y-105978628D02*
X214095238Y-105978628D01*
X215095238Y-105931009D02*
X215428571Y-105931009D01*
X215571428Y-106454819D02*
X215095238Y-106454819D01*
X215095238Y-106454819D02*
X215095238Y-105454819D01*
X215095238Y-105454819D02*
X215571428Y-105454819D01*
X216333333Y-105931009D02*
X216000000Y-105931009D01*
X216000000Y-106454819D02*
X216000000Y-105454819D01*
X216000000Y-105454819D02*
X216476190Y-105454819D01*
X217000000Y-105454819D02*
X217000000Y-105692914D01*
X216761905Y-105597676D02*
X217000000Y-105692914D01*
X217000000Y-105692914D02*
X217238095Y-105597676D01*
X216857143Y-105883390D02*
X217000000Y-105692914D01*
X217000000Y-105692914D02*
X217142857Y-105883390D01*
X217761905Y-105454819D02*
X217761905Y-105692914D01*
X217523810Y-105597676D02*
X217761905Y-105692914D01*
X217761905Y-105692914D02*
X218000000Y-105597676D01*
X217619048Y-105883390D02*
X217761905Y-105692914D01*
X217761905Y-105692914D02*
X217904762Y-105883390D01*
X184192040Y-84831540D02*
X184239660Y-84879159D01*
X184239660Y-84879159D02*
X184287279Y-85022016D01*
X184287279Y-85022016D02*
X184287279Y-85117254D01*
X184287279Y-85117254D02*
X184239660Y-85260111D01*
X184239660Y-85260111D02*
X184144421Y-85355349D01*
X184144421Y-85355349D02*
X184049183Y-85402968D01*
X184049183Y-85402968D02*
X183858707Y-85450587D01*
X183858707Y-85450587D02*
X183715850Y-85450587D01*
X183715850Y-85450587D02*
X183525374Y-85402968D01*
X183525374Y-85402968D02*
X183430136Y-85355349D01*
X183430136Y-85355349D02*
X183334898Y-85260111D01*
X183334898Y-85260111D02*
X183287279Y-85117254D01*
X183287279Y-85117254D02*
X183287279Y-85022016D01*
X183287279Y-85022016D02*
X183334898Y-84879159D01*
X183334898Y-84879159D02*
X183382517Y-84831540D01*
X184287279Y-83879159D02*
X184287279Y-84450587D01*
X184287279Y-84164873D02*
X183287279Y-84164873D01*
X183287279Y-84164873D02*
X183430136Y-84260111D01*
X183430136Y-84260111D02*
X183525374Y-84355349D01*
X183525374Y-84355349D02*
X183572993Y-84450587D01*
X183382517Y-83498206D02*
X183334898Y-83450587D01*
X183334898Y-83450587D02*
X183287279Y-83355349D01*
X183287279Y-83355349D02*
X183287279Y-83117254D01*
X183287279Y-83117254D02*
X183334898Y-83022016D01*
X183334898Y-83022016D02*
X183382517Y-82974397D01*
X183382517Y-82974397D02*
X183477755Y-82926778D01*
X183477755Y-82926778D02*
X183572993Y-82926778D01*
X183572993Y-82926778D02*
X183715850Y-82974397D01*
X183715850Y-82974397D02*
X184287279Y-83545825D01*
X184287279Y-83545825D02*
X184287279Y-82926778D01*
X188870877Y-74059545D02*
X188537544Y-73583354D01*
X188299449Y-74059545D02*
X188299449Y-73059545D01*
X188299449Y-73059545D02*
X188680401Y-73059545D01*
X188680401Y-73059545D02*
X188775639Y-73107164D01*
X188775639Y-73107164D02*
X188823258Y-73154783D01*
X188823258Y-73154783D02*
X188870877Y-73250021D01*
X188870877Y-73250021D02*
X188870877Y-73392878D01*
X188870877Y-73392878D02*
X188823258Y-73488116D01*
X188823258Y-73488116D02*
X188775639Y-73535735D01*
X188775639Y-73535735D02*
X188680401Y-73583354D01*
X188680401Y-73583354D02*
X188299449Y-73583354D01*
X189823258Y-74059545D02*
X189251830Y-74059545D01*
X189537544Y-74059545D02*
X189537544Y-73059545D01*
X189537544Y-73059545D02*
X189442306Y-73202402D01*
X189442306Y-73202402D02*
X189347068Y-73297640D01*
X189347068Y-73297640D02*
X189251830Y-73345259D01*
X190156592Y-73059545D02*
X190823258Y-73059545D01*
X190823258Y-73059545D02*
X190394687Y-74059545D01*
X148887615Y-70953719D02*
X148554282Y-70477528D01*
X148316187Y-70953719D02*
X148316187Y-69953719D01*
X148316187Y-69953719D02*
X148697139Y-69953719D01*
X148697139Y-69953719D02*
X148792377Y-70001338D01*
X148792377Y-70001338D02*
X148839996Y-70048957D01*
X148839996Y-70048957D02*
X148887615Y-70144195D01*
X148887615Y-70144195D02*
X148887615Y-70287052D01*
X148887615Y-70287052D02*
X148839996Y-70382290D01*
X148839996Y-70382290D02*
X148792377Y-70429909D01*
X148792377Y-70429909D02*
X148697139Y-70477528D01*
X148697139Y-70477528D02*
X148316187Y-70477528D01*
X149839996Y-70953719D02*
X149268568Y-70953719D01*
X149554282Y-70953719D02*
X149554282Y-69953719D01*
X149554282Y-69953719D02*
X149459044Y-70096576D01*
X149459044Y-70096576D02*
X149363806Y-70191814D01*
X149363806Y-70191814D02*
X149268568Y-70239433D01*
X150173330Y-69953719D02*
X150792377Y-69953719D01*
X150792377Y-69953719D02*
X150459044Y-70334671D01*
X150459044Y-70334671D02*
X150601901Y-70334671D01*
X150601901Y-70334671D02*
X150697139Y-70382290D01*
X150697139Y-70382290D02*
X150744758Y-70429909D01*
X150744758Y-70429909D02*
X150792377Y-70525147D01*
X150792377Y-70525147D02*
X150792377Y-70763242D01*
X150792377Y-70763242D02*
X150744758Y-70858480D01*
X150744758Y-70858480D02*
X150697139Y-70906100D01*
X150697139Y-70906100D02*
X150601901Y-70953719D01*
X150601901Y-70953719D02*
X150316187Y-70953719D01*
X150316187Y-70953719D02*
X150220949Y-70906100D01*
X150220949Y-70906100D02*
X150173330Y-70858480D01*
X158880877Y-61599306D02*
X158833258Y-61646926D01*
X158833258Y-61646926D02*
X158690401Y-61694545D01*
X158690401Y-61694545D02*
X158595163Y-61694545D01*
X158595163Y-61694545D02*
X158452306Y-61646926D01*
X158452306Y-61646926D02*
X158357068Y-61551687D01*
X158357068Y-61551687D02*
X158309449Y-61456449D01*
X158309449Y-61456449D02*
X158261830Y-61265973D01*
X158261830Y-61265973D02*
X158261830Y-61123116D01*
X158261830Y-61123116D02*
X158309449Y-60932640D01*
X158309449Y-60932640D02*
X158357068Y-60837402D01*
X158357068Y-60837402D02*
X158452306Y-60742164D01*
X158452306Y-60742164D02*
X158595163Y-60694545D01*
X158595163Y-60694545D02*
X158690401Y-60694545D01*
X158690401Y-60694545D02*
X158833258Y-60742164D01*
X158833258Y-60742164D02*
X158880877Y-60789783D01*
X159833258Y-61694545D02*
X159261830Y-61694545D01*
X159547544Y-61694545D02*
X159547544Y-60694545D01*
X159547544Y-60694545D02*
X159452306Y-60837402D01*
X159452306Y-60837402D02*
X159357068Y-60932640D01*
X159357068Y-60932640D02*
X159261830Y-60980259D01*
X160166592Y-60694545D02*
X160785639Y-60694545D01*
X160785639Y-60694545D02*
X160452306Y-61075497D01*
X160452306Y-61075497D02*
X160595163Y-61075497D01*
X160595163Y-61075497D02*
X160690401Y-61123116D01*
X160690401Y-61123116D02*
X160738020Y-61170735D01*
X160738020Y-61170735D02*
X160785639Y-61265973D01*
X160785639Y-61265973D02*
X160785639Y-61504068D01*
X160785639Y-61504068D02*
X160738020Y-61599306D01*
X160738020Y-61599306D02*
X160690401Y-61646926D01*
X160690401Y-61646926D02*
X160595163Y-61694545D01*
X160595163Y-61694545D02*
X160309449Y-61694545D01*
X160309449Y-61694545D02*
X160214211Y-61646926D01*
X160214211Y-61646926D02*
X160166592Y-61599306D01*
X175040476Y-116854819D02*
X175040476Y-117569104D01*
X175040476Y-117569104D02*
X174992857Y-117711961D01*
X174992857Y-117711961D02*
X174897619Y-117807200D01*
X174897619Y-117807200D02*
X174754762Y-117854819D01*
X174754762Y-117854819D02*
X174659524Y-117854819D01*
X176040476Y-117854819D02*
X175469048Y-117854819D01*
X175754762Y-117854819D02*
X175754762Y-116854819D01*
X175754762Y-116854819D02*
X175659524Y-116997676D01*
X175659524Y-116997676D02*
X175564286Y-117092914D01*
X175564286Y-117092914D02*
X175469048Y-117140533D01*
X176659524Y-116854819D02*
X176754762Y-116854819D01*
X176754762Y-116854819D02*
X176850000Y-116902438D01*
X176850000Y-116902438D02*
X176897619Y-116950057D01*
X176897619Y-116950057D02*
X176945238Y-117045295D01*
X176945238Y-117045295D02*
X176992857Y-117235771D01*
X176992857Y-117235771D02*
X176992857Y-117473866D01*
X176992857Y-117473866D02*
X176945238Y-117664342D01*
X176945238Y-117664342D02*
X176897619Y-117759580D01*
X176897619Y-117759580D02*
X176850000Y-117807200D01*
X176850000Y-117807200D02*
X176754762Y-117854819D01*
X176754762Y-117854819D02*
X176659524Y-117854819D01*
X176659524Y-117854819D02*
X176564286Y-117807200D01*
X176564286Y-117807200D02*
X176516667Y-117759580D01*
X176516667Y-117759580D02*
X176469048Y-117664342D01*
X176469048Y-117664342D02*
X176421429Y-117473866D01*
X176421429Y-117473866D02*
X176421429Y-117235771D01*
X176421429Y-117235771D02*
X176469048Y-117045295D01*
X176469048Y-117045295D02*
X176516667Y-116950057D01*
X176516667Y-116950057D02*
X176564286Y-116902438D01*
X176564286Y-116902438D02*
X176659524Y-116854819D01*
X174064285Y-125409580D02*
X174016666Y-125457200D01*
X174016666Y-125457200D02*
X173873809Y-125504819D01*
X173873809Y-125504819D02*
X173778571Y-125504819D01*
X173778571Y-125504819D02*
X173635714Y-125457200D01*
X173635714Y-125457200D02*
X173540476Y-125361961D01*
X173540476Y-125361961D02*
X173492857Y-125266723D01*
X173492857Y-125266723D02*
X173445238Y-125076247D01*
X173445238Y-125076247D02*
X173445238Y-124933390D01*
X173445238Y-124933390D02*
X173492857Y-124742914D01*
X173492857Y-124742914D02*
X173540476Y-124647676D01*
X173540476Y-124647676D02*
X173635714Y-124552438D01*
X173635714Y-124552438D02*
X173778571Y-124504819D01*
X173778571Y-124504819D02*
X173873809Y-124504819D01*
X173873809Y-124504819D02*
X174016666Y-124552438D01*
X174016666Y-124552438D02*
X174064285Y-124600057D01*
X174492857Y-125504819D02*
X174492857Y-124504819D01*
X174921428Y-125504819D02*
X174921428Y-124981009D01*
X174921428Y-124981009D02*
X174873809Y-124885771D01*
X174873809Y-124885771D02*
X174778571Y-124838152D01*
X174778571Y-124838152D02*
X174635714Y-124838152D01*
X174635714Y-124838152D02*
X174540476Y-124885771D01*
X174540476Y-124885771D02*
X174492857Y-124933390D01*
X175826190Y-125504819D02*
X175826190Y-124981009D01*
X175826190Y-124981009D02*
X175778571Y-124885771D01*
X175778571Y-124885771D02*
X175683333Y-124838152D01*
X175683333Y-124838152D02*
X175492857Y-124838152D01*
X175492857Y-124838152D02*
X175397619Y-124885771D01*
X175826190Y-125457200D02*
X175730952Y-125504819D01*
X175730952Y-125504819D02*
X175492857Y-125504819D01*
X175492857Y-125504819D02*
X175397619Y-125457200D01*
X175397619Y-125457200D02*
X175350000Y-125361961D01*
X175350000Y-125361961D02*
X175350000Y-125266723D01*
X175350000Y-125266723D02*
X175397619Y-125171485D01*
X175397619Y-125171485D02*
X175492857Y-125123866D01*
X175492857Y-125123866D02*
X175730952Y-125123866D01*
X175730952Y-125123866D02*
X175826190Y-125076247D01*
X176302381Y-125504819D02*
X176302381Y-124838152D01*
X176302381Y-125028628D02*
X176350000Y-124933390D01*
X176350000Y-124933390D02*
X176397619Y-124885771D01*
X176397619Y-124885771D02*
X176492857Y-124838152D01*
X176492857Y-124838152D02*
X176588095Y-124838152D01*
X177350000Y-124838152D02*
X177350000Y-125647676D01*
X177350000Y-125647676D02*
X177302381Y-125742914D01*
X177302381Y-125742914D02*
X177254762Y-125790533D01*
X177254762Y-125790533D02*
X177159524Y-125838152D01*
X177159524Y-125838152D02*
X177016667Y-125838152D01*
X177016667Y-125838152D02*
X176921429Y-125790533D01*
X177350000Y-125457200D02*
X177254762Y-125504819D01*
X177254762Y-125504819D02*
X177064286Y-125504819D01*
X177064286Y-125504819D02*
X176969048Y-125457200D01*
X176969048Y-125457200D02*
X176921429Y-125409580D01*
X176921429Y-125409580D02*
X176873810Y-125314342D01*
X176873810Y-125314342D02*
X176873810Y-125028628D01*
X176873810Y-125028628D02*
X176921429Y-124933390D01*
X176921429Y-124933390D02*
X176969048Y-124885771D01*
X176969048Y-124885771D02*
X177064286Y-124838152D01*
X177064286Y-124838152D02*
X177254762Y-124838152D01*
X177254762Y-124838152D02*
X177350000Y-124885771D01*
X178207143Y-125457200D02*
X178111905Y-125504819D01*
X178111905Y-125504819D02*
X177921429Y-125504819D01*
X177921429Y-125504819D02*
X177826191Y-125457200D01*
X177826191Y-125457200D02*
X177778572Y-125361961D01*
X177778572Y-125361961D02*
X177778572Y-124981009D01*
X177778572Y-124981009D02*
X177826191Y-124885771D01*
X177826191Y-124885771D02*
X177921429Y-124838152D01*
X177921429Y-124838152D02*
X178111905Y-124838152D01*
X178111905Y-124838152D02*
X178207143Y-124885771D01*
X178207143Y-124885771D02*
X178254762Y-124981009D01*
X178254762Y-124981009D02*
X178254762Y-125076247D01*
X178254762Y-125076247D02*
X177778572Y-125171485D01*
X200318554Y-63516630D02*
X200318554Y-62945202D01*
X201318554Y-63230916D02*
X200318554Y-63230916D01*
X201318554Y-62611868D02*
X200318554Y-62611868D01*
X200318554Y-62611868D02*
X200318554Y-62230916D01*
X200318554Y-62230916D02*
X200366173Y-62135678D01*
X200366173Y-62135678D02*
X200413792Y-62088059D01*
X200413792Y-62088059D02*
X200509030Y-62040440D01*
X200509030Y-62040440D02*
X200651887Y-62040440D01*
X200651887Y-62040440D02*
X200747125Y-62088059D01*
X200747125Y-62088059D02*
X200794744Y-62135678D01*
X200794744Y-62135678D02*
X200842363Y-62230916D01*
X200842363Y-62230916D02*
X200842363Y-62611868D01*
X200651887Y-61183297D02*
X201318554Y-61183297D01*
X200270935Y-61421392D02*
X200985220Y-61659487D01*
X200985220Y-61659487D02*
X200985220Y-61040440D01*
X140666666Y-75454819D02*
X140666666Y-76169104D01*
X140666666Y-76169104D02*
X140619047Y-76311961D01*
X140619047Y-76311961D02*
X140523809Y-76407200D01*
X140523809Y-76407200D02*
X140380952Y-76454819D01*
X140380952Y-76454819D02*
X140285714Y-76454819D01*
X141190476Y-76454819D02*
X141380952Y-76454819D01*
X141380952Y-76454819D02*
X141476190Y-76407200D01*
X141476190Y-76407200D02*
X141523809Y-76359580D01*
X141523809Y-76359580D02*
X141619047Y-76216723D01*
X141619047Y-76216723D02*
X141666666Y-76026247D01*
X141666666Y-76026247D02*
X141666666Y-75645295D01*
X141666666Y-75645295D02*
X141619047Y-75550057D01*
X141619047Y-75550057D02*
X141571428Y-75502438D01*
X141571428Y-75502438D02*
X141476190Y-75454819D01*
X141476190Y-75454819D02*
X141285714Y-75454819D01*
X141285714Y-75454819D02*
X141190476Y-75502438D01*
X141190476Y-75502438D02*
X141142857Y-75550057D01*
X141142857Y-75550057D02*
X141095238Y-75645295D01*
X141095238Y-75645295D02*
X141095238Y-75883390D01*
X141095238Y-75883390D02*
X141142857Y-75978628D01*
X141142857Y-75978628D02*
X141190476Y-76026247D01*
X141190476Y-76026247D02*
X141285714Y-76073866D01*
X141285714Y-76073866D02*
X141476190Y-76073866D01*
X141476190Y-76073866D02*
X141571428Y-76026247D01*
X141571428Y-76026247D02*
X141619047Y-75978628D01*
X141619047Y-75978628D02*
X141666666Y-75883390D01*
X138004819Y-88250149D02*
X138814342Y-88250149D01*
X138814342Y-88250149D02*
X138909580Y-88202530D01*
X138909580Y-88202530D02*
X138957200Y-88154911D01*
X138957200Y-88154911D02*
X139004819Y-88059673D01*
X139004819Y-88059673D02*
X139004819Y-87869197D01*
X139004819Y-87869197D02*
X138957200Y-87773959D01*
X138957200Y-87773959D02*
X138909580Y-87726340D01*
X138909580Y-87726340D02*
X138814342Y-87678721D01*
X138814342Y-87678721D02*
X138004819Y-87678721D01*
X138719104Y-87250149D02*
X138719104Y-86773959D01*
X139004819Y-87345387D02*
X138004819Y-87012054D01*
X138004819Y-87012054D02*
X139004819Y-86678721D01*
X139004819Y-85773959D02*
X138528628Y-86107292D01*
X139004819Y-86345387D02*
X138004819Y-86345387D01*
X138004819Y-86345387D02*
X138004819Y-85964435D01*
X138004819Y-85964435D02*
X138052438Y-85869197D01*
X138052438Y-85869197D02*
X138100057Y-85821578D01*
X138100057Y-85821578D02*
X138195295Y-85773959D01*
X138195295Y-85773959D02*
X138338152Y-85773959D01*
X138338152Y-85773959D02*
X138433390Y-85821578D01*
X138433390Y-85821578D02*
X138481009Y-85869197D01*
X138481009Y-85869197D02*
X138528628Y-85964435D01*
X138528628Y-85964435D02*
X138528628Y-86345387D01*
X138004819Y-85488244D02*
X138004819Y-84916816D01*
X139004819Y-85202530D02*
X138004819Y-85202530D01*
X138481009Y-83488244D02*
X138528628Y-83345387D01*
X138528628Y-83345387D02*
X138576247Y-83297768D01*
X138576247Y-83297768D02*
X138671485Y-83250149D01*
X138671485Y-83250149D02*
X138814342Y-83250149D01*
X138814342Y-83250149D02*
X138909580Y-83297768D01*
X138909580Y-83297768D02*
X138957200Y-83345387D01*
X138957200Y-83345387D02*
X139004819Y-83440625D01*
X139004819Y-83440625D02*
X139004819Y-83821577D01*
X139004819Y-83821577D02*
X138004819Y-83821577D01*
X138004819Y-83821577D02*
X138004819Y-83488244D01*
X138004819Y-83488244D02*
X138052438Y-83393006D01*
X138052438Y-83393006D02*
X138100057Y-83345387D01*
X138100057Y-83345387D02*
X138195295Y-83297768D01*
X138195295Y-83297768D02*
X138290533Y-83297768D01*
X138290533Y-83297768D02*
X138385771Y-83345387D01*
X138385771Y-83345387D02*
X138433390Y-83393006D01*
X138433390Y-83393006D02*
X138481009Y-83488244D01*
X138481009Y-83488244D02*
X138481009Y-83821577D01*
X139004819Y-82821577D02*
X138338152Y-82821577D01*
X138528628Y-82821577D02*
X138433390Y-82773958D01*
X138433390Y-82773958D02*
X138385771Y-82726339D01*
X138385771Y-82726339D02*
X138338152Y-82631101D01*
X138338152Y-82631101D02*
X138338152Y-82535863D01*
X138957200Y-81821577D02*
X139004819Y-81916815D01*
X139004819Y-81916815D02*
X139004819Y-82107291D01*
X139004819Y-82107291D02*
X138957200Y-82202529D01*
X138957200Y-82202529D02*
X138861961Y-82250148D01*
X138861961Y-82250148D02*
X138481009Y-82250148D01*
X138481009Y-82250148D02*
X138385771Y-82202529D01*
X138385771Y-82202529D02*
X138338152Y-82107291D01*
X138338152Y-82107291D02*
X138338152Y-81916815D01*
X138338152Y-81916815D02*
X138385771Y-81821577D01*
X138385771Y-81821577D02*
X138481009Y-81773958D01*
X138481009Y-81773958D02*
X138576247Y-81773958D01*
X138576247Y-81773958D02*
X138671485Y-82250148D01*
X139004819Y-80916815D02*
X138481009Y-80916815D01*
X138481009Y-80916815D02*
X138385771Y-80964434D01*
X138385771Y-80964434D02*
X138338152Y-81059672D01*
X138338152Y-81059672D02*
X138338152Y-81250148D01*
X138338152Y-81250148D02*
X138385771Y-81345386D01*
X138957200Y-80916815D02*
X139004819Y-81012053D01*
X139004819Y-81012053D02*
X139004819Y-81250148D01*
X139004819Y-81250148D02*
X138957200Y-81345386D01*
X138957200Y-81345386D02*
X138861961Y-81393005D01*
X138861961Y-81393005D02*
X138766723Y-81393005D01*
X138766723Y-81393005D02*
X138671485Y-81345386D01*
X138671485Y-81345386D02*
X138623866Y-81250148D01*
X138623866Y-81250148D02*
X138623866Y-81012053D01*
X138623866Y-81012053D02*
X138576247Y-80916815D01*
X139004819Y-80440624D02*
X138004819Y-80440624D01*
X138623866Y-80345386D02*
X139004819Y-80059672D01*
X138338152Y-80059672D02*
X138719104Y-80440624D01*
X139004819Y-79488243D02*
X138957200Y-79583481D01*
X138957200Y-79583481D02*
X138909580Y-79631100D01*
X138909580Y-79631100D02*
X138814342Y-79678719D01*
X138814342Y-79678719D02*
X138528628Y-79678719D01*
X138528628Y-79678719D02*
X138433390Y-79631100D01*
X138433390Y-79631100D02*
X138385771Y-79583481D01*
X138385771Y-79583481D02*
X138338152Y-79488243D01*
X138338152Y-79488243D02*
X138338152Y-79345386D01*
X138338152Y-79345386D02*
X138385771Y-79250148D01*
X138385771Y-79250148D02*
X138433390Y-79202529D01*
X138433390Y-79202529D02*
X138528628Y-79154910D01*
X138528628Y-79154910D02*
X138814342Y-79154910D01*
X138814342Y-79154910D02*
X138909580Y-79202529D01*
X138909580Y-79202529D02*
X138957200Y-79250148D01*
X138957200Y-79250148D02*
X139004819Y-79345386D01*
X139004819Y-79345386D02*
X139004819Y-79488243D01*
X138338152Y-78297767D02*
X139004819Y-78297767D01*
X138338152Y-78726338D02*
X138861961Y-78726338D01*
X138861961Y-78726338D02*
X138957200Y-78678719D01*
X138957200Y-78678719D02*
X139004819Y-78583481D01*
X139004819Y-78583481D02*
X139004819Y-78440624D01*
X139004819Y-78440624D02*
X138957200Y-78345386D01*
X138957200Y-78345386D02*
X138909580Y-78297767D01*
X138338152Y-77964433D02*
X138338152Y-77583481D01*
X138004819Y-77821576D02*
X138861961Y-77821576D01*
X138861961Y-77821576D02*
X138957200Y-77773957D01*
X138957200Y-77773957D02*
X139004819Y-77678719D01*
X139004819Y-77678719D02*
X139004819Y-77583481D01*
X179547068Y-58354653D02*
X179499449Y-58402273D01*
X179499449Y-58402273D02*
X179356592Y-58449892D01*
X179356592Y-58449892D02*
X179261354Y-58449892D01*
X179261354Y-58449892D02*
X179118497Y-58402273D01*
X179118497Y-58402273D02*
X179023259Y-58307034D01*
X179023259Y-58307034D02*
X178975640Y-58211796D01*
X178975640Y-58211796D02*
X178928021Y-58021320D01*
X178928021Y-58021320D02*
X178928021Y-57878463D01*
X178928021Y-57878463D02*
X178975640Y-57687987D01*
X178975640Y-57687987D02*
X179023259Y-57592749D01*
X179023259Y-57592749D02*
X179118497Y-57497511D01*
X179118497Y-57497511D02*
X179261354Y-57449892D01*
X179261354Y-57449892D02*
X179356592Y-57449892D01*
X179356592Y-57449892D02*
X179499449Y-57497511D01*
X179499449Y-57497511D02*
X179547068Y-57545130D01*
X179928021Y-57545130D02*
X179975640Y-57497511D01*
X179975640Y-57497511D02*
X180070878Y-57449892D01*
X180070878Y-57449892D02*
X180308973Y-57449892D01*
X180308973Y-57449892D02*
X180404211Y-57497511D01*
X180404211Y-57497511D02*
X180451830Y-57545130D01*
X180451830Y-57545130D02*
X180499449Y-57640368D01*
X180499449Y-57640368D02*
X180499449Y-57735606D01*
X180499449Y-57735606D02*
X180451830Y-57878463D01*
X180451830Y-57878463D02*
X179880402Y-58449892D01*
X179880402Y-58449892D02*
X180499449Y-58449892D01*
X165437279Y-84581540D02*
X164961088Y-84914873D01*
X165437279Y-85152968D02*
X164437279Y-85152968D01*
X164437279Y-85152968D02*
X164437279Y-84772016D01*
X164437279Y-84772016D02*
X164484898Y-84676778D01*
X164484898Y-84676778D02*
X164532517Y-84629159D01*
X164532517Y-84629159D02*
X164627755Y-84581540D01*
X164627755Y-84581540D02*
X164770612Y-84581540D01*
X164770612Y-84581540D02*
X164865850Y-84629159D01*
X164865850Y-84629159D02*
X164913469Y-84676778D01*
X164913469Y-84676778D02*
X164961088Y-84772016D01*
X164961088Y-84772016D02*
X164961088Y-85152968D01*
X165437279Y-83629159D02*
X165437279Y-84200587D01*
X165437279Y-83914873D02*
X164437279Y-83914873D01*
X164437279Y-83914873D02*
X164580136Y-84010111D01*
X164580136Y-84010111D02*
X164675374Y-84105349D01*
X164675374Y-84105349D02*
X164722993Y-84200587D01*
X164437279Y-82724397D02*
X164437279Y-83200587D01*
X164437279Y-83200587D02*
X164913469Y-83248206D01*
X164913469Y-83248206D02*
X164865850Y-83200587D01*
X164865850Y-83200587D02*
X164818231Y-83105349D01*
X164818231Y-83105349D02*
X164818231Y-82867254D01*
X164818231Y-82867254D02*
X164865850Y-82772016D01*
X164865850Y-82772016D02*
X164913469Y-82724397D01*
X164913469Y-82724397D02*
X165008707Y-82676778D01*
X165008707Y-82676778D02*
X165246802Y-82676778D01*
X165246802Y-82676778D02*
X165342040Y-82724397D01*
X165342040Y-82724397D02*
X165389660Y-82772016D01*
X165389660Y-82772016D02*
X165437279Y-82867254D01*
X165437279Y-82867254D02*
X165437279Y-83105349D01*
X165437279Y-83105349D02*
X165389660Y-83200587D01*
X165389660Y-83200587D02*
X165342040Y-83248206D01*
X142066666Y-111254819D02*
X142066666Y-111969104D01*
X142066666Y-111969104D02*
X142019047Y-112111961D01*
X142019047Y-112111961D02*
X141923809Y-112207200D01*
X141923809Y-112207200D02*
X141780952Y-112254819D01*
X141780952Y-112254819D02*
X141685714Y-112254819D01*
X143019047Y-111254819D02*
X142542857Y-111254819D01*
X142542857Y-111254819D02*
X142495238Y-111731009D01*
X142495238Y-111731009D02*
X142542857Y-111683390D01*
X142542857Y-111683390D02*
X142638095Y-111635771D01*
X142638095Y-111635771D02*
X142876190Y-111635771D01*
X142876190Y-111635771D02*
X142971428Y-111683390D01*
X142971428Y-111683390D02*
X143019047Y-111731009D01*
X143019047Y-111731009D02*
X143066666Y-111826247D01*
X143066666Y-111826247D02*
X143066666Y-112064342D01*
X143066666Y-112064342D02*
X143019047Y-112159580D01*
X143019047Y-112159580D02*
X142971428Y-112207200D01*
X142971428Y-112207200D02*
X142876190Y-112254819D01*
X142876190Y-112254819D02*
X142638095Y-112254819D01*
X142638095Y-112254819D02*
X142542857Y-112207200D01*
X142542857Y-112207200D02*
X142495238Y-112159580D01*
X139304819Y-123142857D02*
X138304819Y-123142857D01*
X138400057Y-122714286D02*
X138352438Y-122666667D01*
X138352438Y-122666667D02*
X138304819Y-122571429D01*
X138304819Y-122571429D02*
X138304819Y-122333334D01*
X138304819Y-122333334D02*
X138352438Y-122238096D01*
X138352438Y-122238096D02*
X138400057Y-122190477D01*
X138400057Y-122190477D02*
X138495295Y-122142858D01*
X138495295Y-122142858D02*
X138590533Y-122142858D01*
X138590533Y-122142858D02*
X138733390Y-122190477D01*
X138733390Y-122190477D02*
X139304819Y-122761905D01*
X139304819Y-122761905D02*
X139304819Y-122142858D01*
X139209580Y-121142858D02*
X139257200Y-121190477D01*
X139257200Y-121190477D02*
X139304819Y-121333334D01*
X139304819Y-121333334D02*
X139304819Y-121428572D01*
X139304819Y-121428572D02*
X139257200Y-121571429D01*
X139257200Y-121571429D02*
X139161961Y-121666667D01*
X139161961Y-121666667D02*
X139066723Y-121714286D01*
X139066723Y-121714286D02*
X138876247Y-121761905D01*
X138876247Y-121761905D02*
X138733390Y-121761905D01*
X138733390Y-121761905D02*
X138542914Y-121714286D01*
X138542914Y-121714286D02*
X138447676Y-121666667D01*
X138447676Y-121666667D02*
X138352438Y-121571429D01*
X138352438Y-121571429D02*
X138304819Y-121428572D01*
X138304819Y-121428572D02*
X138304819Y-121333334D01*
X138304819Y-121333334D02*
X138352438Y-121190477D01*
X138352438Y-121190477D02*
X138400057Y-121142858D01*
X138781009Y-119619048D02*
X138828628Y-119476191D01*
X138828628Y-119476191D02*
X138876247Y-119428572D01*
X138876247Y-119428572D02*
X138971485Y-119380953D01*
X138971485Y-119380953D02*
X139114342Y-119380953D01*
X139114342Y-119380953D02*
X139209580Y-119428572D01*
X139209580Y-119428572D02*
X139257200Y-119476191D01*
X139257200Y-119476191D02*
X139304819Y-119571429D01*
X139304819Y-119571429D02*
X139304819Y-119952381D01*
X139304819Y-119952381D02*
X138304819Y-119952381D01*
X138304819Y-119952381D02*
X138304819Y-119619048D01*
X138304819Y-119619048D02*
X138352438Y-119523810D01*
X138352438Y-119523810D02*
X138400057Y-119476191D01*
X138400057Y-119476191D02*
X138495295Y-119428572D01*
X138495295Y-119428572D02*
X138590533Y-119428572D01*
X138590533Y-119428572D02*
X138685771Y-119476191D01*
X138685771Y-119476191D02*
X138733390Y-119523810D01*
X138733390Y-119523810D02*
X138781009Y-119619048D01*
X138781009Y-119619048D02*
X138781009Y-119952381D01*
X139304819Y-118952381D02*
X138638152Y-118952381D01*
X138828628Y-118952381D02*
X138733390Y-118904762D01*
X138733390Y-118904762D02*
X138685771Y-118857143D01*
X138685771Y-118857143D02*
X138638152Y-118761905D01*
X138638152Y-118761905D02*
X138638152Y-118666667D01*
X139257200Y-117952381D02*
X139304819Y-118047619D01*
X139304819Y-118047619D02*
X139304819Y-118238095D01*
X139304819Y-118238095D02*
X139257200Y-118333333D01*
X139257200Y-118333333D02*
X139161961Y-118380952D01*
X139161961Y-118380952D02*
X138781009Y-118380952D01*
X138781009Y-118380952D02*
X138685771Y-118333333D01*
X138685771Y-118333333D02*
X138638152Y-118238095D01*
X138638152Y-118238095D02*
X138638152Y-118047619D01*
X138638152Y-118047619D02*
X138685771Y-117952381D01*
X138685771Y-117952381D02*
X138781009Y-117904762D01*
X138781009Y-117904762D02*
X138876247Y-117904762D01*
X138876247Y-117904762D02*
X138971485Y-118380952D01*
X139304819Y-117047619D02*
X138781009Y-117047619D01*
X138781009Y-117047619D02*
X138685771Y-117095238D01*
X138685771Y-117095238D02*
X138638152Y-117190476D01*
X138638152Y-117190476D02*
X138638152Y-117380952D01*
X138638152Y-117380952D02*
X138685771Y-117476190D01*
X139257200Y-117047619D02*
X139304819Y-117142857D01*
X139304819Y-117142857D02*
X139304819Y-117380952D01*
X139304819Y-117380952D02*
X139257200Y-117476190D01*
X139257200Y-117476190D02*
X139161961Y-117523809D01*
X139161961Y-117523809D02*
X139066723Y-117523809D01*
X139066723Y-117523809D02*
X138971485Y-117476190D01*
X138971485Y-117476190D02*
X138923866Y-117380952D01*
X138923866Y-117380952D02*
X138923866Y-117142857D01*
X138923866Y-117142857D02*
X138876247Y-117047619D01*
X139304819Y-116571428D02*
X138304819Y-116571428D01*
X138923866Y-116476190D02*
X139304819Y-116190476D01*
X138638152Y-116190476D02*
X139019104Y-116571428D01*
X139304819Y-115619047D02*
X139257200Y-115714285D01*
X139257200Y-115714285D02*
X139209580Y-115761904D01*
X139209580Y-115761904D02*
X139114342Y-115809523D01*
X139114342Y-115809523D02*
X138828628Y-115809523D01*
X138828628Y-115809523D02*
X138733390Y-115761904D01*
X138733390Y-115761904D02*
X138685771Y-115714285D01*
X138685771Y-115714285D02*
X138638152Y-115619047D01*
X138638152Y-115619047D02*
X138638152Y-115476190D01*
X138638152Y-115476190D02*
X138685771Y-115380952D01*
X138685771Y-115380952D02*
X138733390Y-115333333D01*
X138733390Y-115333333D02*
X138828628Y-115285714D01*
X138828628Y-115285714D02*
X139114342Y-115285714D01*
X139114342Y-115285714D02*
X139209580Y-115333333D01*
X139209580Y-115333333D02*
X139257200Y-115380952D01*
X139257200Y-115380952D02*
X139304819Y-115476190D01*
X139304819Y-115476190D02*
X139304819Y-115619047D01*
X138638152Y-114428571D02*
X139304819Y-114428571D01*
X138638152Y-114857142D02*
X139161961Y-114857142D01*
X139161961Y-114857142D02*
X139257200Y-114809523D01*
X139257200Y-114809523D02*
X139304819Y-114714285D01*
X139304819Y-114714285D02*
X139304819Y-114571428D01*
X139304819Y-114571428D02*
X139257200Y-114476190D01*
X139257200Y-114476190D02*
X139209580Y-114428571D01*
X138638152Y-114095237D02*
X138638152Y-113714285D01*
X138304819Y-113952380D02*
X139161961Y-113952380D01*
X139161961Y-113952380D02*
X139257200Y-113904761D01*
X139257200Y-113904761D02*
X139304819Y-113809523D01*
X139304819Y-113809523D02*
X139304819Y-113714285D01*
X169984255Y-73552482D02*
X169234255Y-73552482D01*
X169234255Y-73552482D02*
X169769969Y-73302482D01*
X169769969Y-73302482D02*
X169234255Y-73052482D01*
X169234255Y-73052482D02*
X169984255Y-73052482D01*
X169912826Y-72266768D02*
X169948541Y-72302482D01*
X169948541Y-72302482D02*
X169984255Y-72409625D01*
X169984255Y-72409625D02*
X169984255Y-72481053D01*
X169984255Y-72481053D02*
X169948541Y-72588196D01*
X169948541Y-72588196D02*
X169877112Y-72659625D01*
X169877112Y-72659625D02*
X169805683Y-72695339D01*
X169805683Y-72695339D02*
X169662826Y-72731053D01*
X169662826Y-72731053D02*
X169555683Y-72731053D01*
X169555683Y-72731053D02*
X169412826Y-72695339D01*
X169412826Y-72695339D02*
X169341398Y-72659625D01*
X169341398Y-72659625D02*
X169269969Y-72588196D01*
X169269969Y-72588196D02*
X169234255Y-72481053D01*
X169234255Y-72481053D02*
X169234255Y-72409625D01*
X169234255Y-72409625D02*
X169269969Y-72302482D01*
X169269969Y-72302482D02*
X169305683Y-72266768D01*
X169984255Y-71945339D02*
X169234255Y-71945339D01*
X169234255Y-71945339D02*
X169234255Y-71659625D01*
X169234255Y-71659625D02*
X169269969Y-71588196D01*
X169269969Y-71588196D02*
X169305683Y-71552482D01*
X169305683Y-71552482D02*
X169377112Y-71516768D01*
X169377112Y-71516768D02*
X169484255Y-71516768D01*
X169484255Y-71516768D02*
X169555683Y-71552482D01*
X169555683Y-71552482D02*
X169591398Y-71588196D01*
X169591398Y-71588196D02*
X169627112Y-71659625D01*
X169627112Y-71659625D02*
X169627112Y-71945339D01*
X169234255Y-70873911D02*
X169234255Y-71016768D01*
X169234255Y-71016768D02*
X169269969Y-71088196D01*
X169269969Y-71088196D02*
X169305683Y-71123911D01*
X169305683Y-71123911D02*
X169412826Y-71195339D01*
X169412826Y-71195339D02*
X169555683Y-71231053D01*
X169555683Y-71231053D02*
X169841398Y-71231053D01*
X169841398Y-71231053D02*
X169912826Y-71195339D01*
X169912826Y-71195339D02*
X169948541Y-71159625D01*
X169948541Y-71159625D02*
X169984255Y-71088196D01*
X169984255Y-71088196D02*
X169984255Y-70945339D01*
X169984255Y-70945339D02*
X169948541Y-70873911D01*
X169948541Y-70873911D02*
X169912826Y-70838196D01*
X169912826Y-70838196D02*
X169841398Y-70802482D01*
X169841398Y-70802482D02*
X169662826Y-70802482D01*
X169662826Y-70802482D02*
X169591398Y-70838196D01*
X169591398Y-70838196D02*
X169555683Y-70873911D01*
X169555683Y-70873911D02*
X169519969Y-70945339D01*
X169519969Y-70945339D02*
X169519969Y-71088196D01*
X169519969Y-71088196D02*
X169555683Y-71159625D01*
X169555683Y-71159625D02*
X169591398Y-71195339D01*
X169591398Y-71195339D02*
X169662826Y-71231053D01*
X169234255Y-70338196D02*
X169234255Y-70266767D01*
X169234255Y-70266767D02*
X169269969Y-70195339D01*
X169269969Y-70195339D02*
X169305683Y-70159625D01*
X169305683Y-70159625D02*
X169377112Y-70123910D01*
X169377112Y-70123910D02*
X169519969Y-70088196D01*
X169519969Y-70088196D02*
X169698541Y-70088196D01*
X169698541Y-70088196D02*
X169841398Y-70123910D01*
X169841398Y-70123910D02*
X169912826Y-70159625D01*
X169912826Y-70159625D02*
X169948541Y-70195339D01*
X169948541Y-70195339D02*
X169984255Y-70266767D01*
X169984255Y-70266767D02*
X169984255Y-70338196D01*
X169984255Y-70338196D02*
X169948541Y-70409625D01*
X169948541Y-70409625D02*
X169912826Y-70445339D01*
X169912826Y-70445339D02*
X169841398Y-70481053D01*
X169841398Y-70481053D02*
X169698541Y-70516767D01*
X169698541Y-70516767D02*
X169519969Y-70516767D01*
X169519969Y-70516767D02*
X169377112Y-70481053D01*
X169377112Y-70481053D02*
X169305683Y-70445339D01*
X169305683Y-70445339D02*
X169269969Y-70409625D01*
X169269969Y-70409625D02*
X169234255Y-70338196D01*
X169234255Y-69623910D02*
X169234255Y-69552481D01*
X169234255Y-69552481D02*
X169269969Y-69481053D01*
X169269969Y-69481053D02*
X169305683Y-69445339D01*
X169305683Y-69445339D02*
X169377112Y-69409624D01*
X169377112Y-69409624D02*
X169519969Y-69373910D01*
X169519969Y-69373910D02*
X169698541Y-69373910D01*
X169698541Y-69373910D02*
X169841398Y-69409624D01*
X169841398Y-69409624D02*
X169912826Y-69445339D01*
X169912826Y-69445339D02*
X169948541Y-69481053D01*
X169948541Y-69481053D02*
X169984255Y-69552481D01*
X169984255Y-69552481D02*
X169984255Y-69623910D01*
X169984255Y-69623910D02*
X169948541Y-69695339D01*
X169948541Y-69695339D02*
X169912826Y-69731053D01*
X169912826Y-69731053D02*
X169841398Y-69766767D01*
X169841398Y-69766767D02*
X169698541Y-69802481D01*
X169698541Y-69802481D02*
X169519969Y-69802481D01*
X169519969Y-69802481D02*
X169377112Y-69766767D01*
X169377112Y-69766767D02*
X169305683Y-69731053D01*
X169305683Y-69731053D02*
X169269969Y-69695339D01*
X169269969Y-69695339D02*
X169234255Y-69623910D01*
X169305683Y-69088195D02*
X169269969Y-69052481D01*
X169269969Y-69052481D02*
X169234255Y-68981053D01*
X169234255Y-68981053D02*
X169234255Y-68802481D01*
X169234255Y-68802481D02*
X169269969Y-68731053D01*
X169269969Y-68731053D02*
X169305683Y-68695338D01*
X169305683Y-68695338D02*
X169377112Y-68659624D01*
X169377112Y-68659624D02*
X169448541Y-68659624D01*
X169448541Y-68659624D02*
X169555683Y-68695338D01*
X169555683Y-68695338D02*
X169984255Y-69123910D01*
X169984255Y-69123910D02*
X169984255Y-68659624D01*
X169698541Y-68338195D02*
X169698541Y-67766767D01*
X169984255Y-67409624D02*
X169234255Y-67409624D01*
X169198541Y-66516767D02*
X170162826Y-67159624D01*
X169984255Y-66266767D02*
X169234255Y-66266767D01*
X169234255Y-66266767D02*
X169234255Y-65981053D01*
X169234255Y-65981053D02*
X169269969Y-65909624D01*
X169269969Y-65909624D02*
X169305683Y-65873910D01*
X169305683Y-65873910D02*
X169377112Y-65838196D01*
X169377112Y-65838196D02*
X169484255Y-65838196D01*
X169484255Y-65838196D02*
X169555683Y-65873910D01*
X169555683Y-65873910D02*
X169591398Y-65909624D01*
X169591398Y-65909624D02*
X169627112Y-65981053D01*
X169627112Y-65981053D02*
X169627112Y-66266767D01*
X149216666Y-113404819D02*
X149216666Y-114119104D01*
X149216666Y-114119104D02*
X149169047Y-114261961D01*
X149169047Y-114261961D02*
X149073809Y-114357200D01*
X149073809Y-114357200D02*
X148930952Y-114404819D01*
X148930952Y-114404819D02*
X148835714Y-114404819D01*
X149597619Y-113404819D02*
X150216666Y-113404819D01*
X150216666Y-113404819D02*
X149883333Y-113785771D01*
X149883333Y-113785771D02*
X150026190Y-113785771D01*
X150026190Y-113785771D02*
X150121428Y-113833390D01*
X150121428Y-113833390D02*
X150169047Y-113881009D01*
X150169047Y-113881009D02*
X150216666Y-113976247D01*
X150216666Y-113976247D02*
X150216666Y-114214342D01*
X150216666Y-114214342D02*
X150169047Y-114309580D01*
X150169047Y-114309580D02*
X150121428Y-114357200D01*
X150121428Y-114357200D02*
X150026190Y-114404819D01*
X150026190Y-114404819D02*
X149740476Y-114404819D01*
X149740476Y-114404819D02*
X149645238Y-114357200D01*
X149645238Y-114357200D02*
X149597619Y-114309580D01*
X146131009Y-123004762D02*
X146178628Y-122861905D01*
X146178628Y-122861905D02*
X146226247Y-122814286D01*
X146226247Y-122814286D02*
X146321485Y-122766667D01*
X146321485Y-122766667D02*
X146464342Y-122766667D01*
X146464342Y-122766667D02*
X146559580Y-122814286D01*
X146559580Y-122814286D02*
X146607200Y-122861905D01*
X146607200Y-122861905D02*
X146654819Y-122957143D01*
X146654819Y-122957143D02*
X146654819Y-123338095D01*
X146654819Y-123338095D02*
X145654819Y-123338095D01*
X145654819Y-123338095D02*
X145654819Y-123004762D01*
X145654819Y-123004762D02*
X145702438Y-122909524D01*
X145702438Y-122909524D02*
X145750057Y-122861905D01*
X145750057Y-122861905D02*
X145845295Y-122814286D01*
X145845295Y-122814286D02*
X145940533Y-122814286D01*
X145940533Y-122814286D02*
X146035771Y-122861905D01*
X146035771Y-122861905D02*
X146083390Y-122909524D01*
X146083390Y-122909524D02*
X146131009Y-123004762D01*
X146131009Y-123004762D02*
X146131009Y-123338095D01*
X146654819Y-121909524D02*
X146131009Y-121909524D01*
X146131009Y-121909524D02*
X146035771Y-121957143D01*
X146035771Y-121957143D02*
X145988152Y-122052381D01*
X145988152Y-122052381D02*
X145988152Y-122242857D01*
X145988152Y-122242857D02*
X146035771Y-122338095D01*
X146607200Y-121909524D02*
X146654819Y-122004762D01*
X146654819Y-122004762D02*
X146654819Y-122242857D01*
X146654819Y-122242857D02*
X146607200Y-122338095D01*
X146607200Y-122338095D02*
X146511961Y-122385714D01*
X146511961Y-122385714D02*
X146416723Y-122385714D01*
X146416723Y-122385714D02*
X146321485Y-122338095D01*
X146321485Y-122338095D02*
X146273866Y-122242857D01*
X146273866Y-122242857D02*
X146273866Y-122004762D01*
X146273866Y-122004762D02*
X146226247Y-121909524D01*
X146654819Y-121433333D02*
X145988152Y-121433333D01*
X146178628Y-121433333D02*
X146083390Y-121385714D01*
X146083390Y-121385714D02*
X146035771Y-121338095D01*
X146035771Y-121338095D02*
X145988152Y-121242857D01*
X145988152Y-121242857D02*
X145988152Y-121147619D01*
X146607200Y-120099999D02*
X146654819Y-120004761D01*
X146654819Y-120004761D02*
X146654819Y-119814285D01*
X146654819Y-119814285D02*
X146607200Y-119719047D01*
X146607200Y-119719047D02*
X146511961Y-119671428D01*
X146511961Y-119671428D02*
X146464342Y-119671428D01*
X146464342Y-119671428D02*
X146369104Y-119719047D01*
X146369104Y-119719047D02*
X146321485Y-119814285D01*
X146321485Y-119814285D02*
X146321485Y-119957142D01*
X146321485Y-119957142D02*
X146273866Y-120052380D01*
X146273866Y-120052380D02*
X146178628Y-120099999D01*
X146178628Y-120099999D02*
X146131009Y-120099999D01*
X146131009Y-120099999D02*
X146035771Y-120052380D01*
X146035771Y-120052380D02*
X145988152Y-119957142D01*
X145988152Y-119957142D02*
X145988152Y-119814285D01*
X145988152Y-119814285D02*
X146035771Y-119719047D01*
X145988152Y-119338094D02*
X146654819Y-119147618D01*
X146654819Y-119147618D02*
X146178628Y-118957142D01*
X146178628Y-118957142D02*
X146654819Y-118766666D01*
X146654819Y-118766666D02*
X145988152Y-118576190D01*
X146654819Y-118195237D02*
X145988152Y-118195237D01*
X145654819Y-118195237D02*
X145702438Y-118242856D01*
X145702438Y-118242856D02*
X145750057Y-118195237D01*
X145750057Y-118195237D02*
X145702438Y-118147618D01*
X145702438Y-118147618D02*
X145654819Y-118195237D01*
X145654819Y-118195237D02*
X145750057Y-118195237D01*
X145988152Y-117861904D02*
X145988152Y-117480952D01*
X145654819Y-117719047D02*
X146511961Y-117719047D01*
X146511961Y-117719047D02*
X146607200Y-117671428D01*
X146607200Y-117671428D02*
X146654819Y-117576190D01*
X146654819Y-117576190D02*
X146654819Y-117480952D01*
X146607200Y-116719047D02*
X146654819Y-116814285D01*
X146654819Y-116814285D02*
X146654819Y-117004761D01*
X146654819Y-117004761D02*
X146607200Y-117099999D01*
X146607200Y-117099999D02*
X146559580Y-117147618D01*
X146559580Y-117147618D02*
X146464342Y-117195237D01*
X146464342Y-117195237D02*
X146178628Y-117195237D01*
X146178628Y-117195237D02*
X146083390Y-117147618D01*
X146083390Y-117147618D02*
X146035771Y-117099999D01*
X146035771Y-117099999D02*
X145988152Y-117004761D01*
X145988152Y-117004761D02*
X145988152Y-116814285D01*
X145988152Y-116814285D02*
X146035771Y-116719047D01*
X146654819Y-116290475D02*
X145654819Y-116290475D01*
X146654819Y-115861904D02*
X146131009Y-115861904D01*
X146131009Y-115861904D02*
X146035771Y-115909523D01*
X146035771Y-115909523D02*
X145988152Y-116004761D01*
X145988152Y-116004761D02*
X145988152Y-116147618D01*
X145988152Y-116147618D02*
X146035771Y-116242856D01*
X146035771Y-116242856D02*
X146083390Y-116290475D01*
X177942040Y-84355349D02*
X177989660Y-84402968D01*
X177989660Y-84402968D02*
X178037279Y-84545825D01*
X178037279Y-84545825D02*
X178037279Y-84641063D01*
X178037279Y-84641063D02*
X177989660Y-84783920D01*
X177989660Y-84783920D02*
X177894421Y-84879158D01*
X177894421Y-84879158D02*
X177799183Y-84926777D01*
X177799183Y-84926777D02*
X177608707Y-84974396D01*
X177608707Y-84974396D02*
X177465850Y-84974396D01*
X177465850Y-84974396D02*
X177275374Y-84926777D01*
X177275374Y-84926777D02*
X177180136Y-84879158D01*
X177180136Y-84879158D02*
X177084898Y-84783920D01*
X177084898Y-84783920D02*
X177037279Y-84641063D01*
X177037279Y-84641063D02*
X177037279Y-84545825D01*
X177037279Y-84545825D02*
X177084898Y-84402968D01*
X177084898Y-84402968D02*
X177132517Y-84355349D01*
X177037279Y-84022015D02*
X177037279Y-83402968D01*
X177037279Y-83402968D02*
X177418231Y-83736301D01*
X177418231Y-83736301D02*
X177418231Y-83593444D01*
X177418231Y-83593444D02*
X177465850Y-83498206D01*
X177465850Y-83498206D02*
X177513469Y-83450587D01*
X177513469Y-83450587D02*
X177608707Y-83402968D01*
X177608707Y-83402968D02*
X177846802Y-83402968D01*
X177846802Y-83402968D02*
X177942040Y-83450587D01*
X177942040Y-83450587D02*
X177989660Y-83498206D01*
X177989660Y-83498206D02*
X178037279Y-83593444D01*
X178037279Y-83593444D02*
X178037279Y-83879158D01*
X178037279Y-83879158D02*
X177989660Y-83974396D01*
X177989660Y-83974396D02*
X177942040Y-84022015D01*
X159187068Y-55134545D02*
X158853735Y-54658354D01*
X158615640Y-55134545D02*
X158615640Y-54134545D01*
X158615640Y-54134545D02*
X158996592Y-54134545D01*
X158996592Y-54134545D02*
X159091830Y-54182164D01*
X159091830Y-54182164D02*
X159139449Y-54229783D01*
X159139449Y-54229783D02*
X159187068Y-54325021D01*
X159187068Y-54325021D02*
X159187068Y-54467878D01*
X159187068Y-54467878D02*
X159139449Y-54563116D01*
X159139449Y-54563116D02*
X159091830Y-54610735D01*
X159091830Y-54610735D02*
X158996592Y-54658354D01*
X158996592Y-54658354D02*
X158615640Y-54658354D01*
X159663259Y-55134545D02*
X159853735Y-55134545D01*
X159853735Y-55134545D02*
X159948973Y-55086926D01*
X159948973Y-55086926D02*
X159996592Y-55039306D01*
X159996592Y-55039306D02*
X160091830Y-54896449D01*
X160091830Y-54896449D02*
X160139449Y-54705973D01*
X160139449Y-54705973D02*
X160139449Y-54325021D01*
X160139449Y-54325021D02*
X160091830Y-54229783D01*
X160091830Y-54229783D02*
X160044211Y-54182164D01*
X160044211Y-54182164D02*
X159948973Y-54134545D01*
X159948973Y-54134545D02*
X159758497Y-54134545D01*
X159758497Y-54134545D02*
X159663259Y-54182164D01*
X159663259Y-54182164D02*
X159615640Y-54229783D01*
X159615640Y-54229783D02*
X159568021Y-54325021D01*
X159568021Y-54325021D02*
X159568021Y-54563116D01*
X159568021Y-54563116D02*
X159615640Y-54658354D01*
X159615640Y-54658354D02*
X159663259Y-54705973D01*
X159663259Y-54705973D02*
X159758497Y-54753592D01*
X159758497Y-54753592D02*
X159948973Y-54753592D01*
X159948973Y-54753592D02*
X160044211Y-54705973D01*
X160044211Y-54705973D02*
X160091830Y-54658354D01*
X160091830Y-54658354D02*
X160139449Y-54563116D01*
X162242040Y-84355349D02*
X162289660Y-84402968D01*
X162289660Y-84402968D02*
X162337279Y-84545825D01*
X162337279Y-84545825D02*
X162337279Y-84641063D01*
X162337279Y-84641063D02*
X162289660Y-84783920D01*
X162289660Y-84783920D02*
X162194421Y-84879158D01*
X162194421Y-84879158D02*
X162099183Y-84926777D01*
X162099183Y-84926777D02*
X161908707Y-84974396D01*
X161908707Y-84974396D02*
X161765850Y-84974396D01*
X161765850Y-84974396D02*
X161575374Y-84926777D01*
X161575374Y-84926777D02*
X161480136Y-84879158D01*
X161480136Y-84879158D02*
X161384898Y-84783920D01*
X161384898Y-84783920D02*
X161337279Y-84641063D01*
X161337279Y-84641063D02*
X161337279Y-84545825D01*
X161337279Y-84545825D02*
X161384898Y-84402968D01*
X161384898Y-84402968D02*
X161432517Y-84355349D01*
X162337279Y-83879158D02*
X162337279Y-83688682D01*
X162337279Y-83688682D02*
X162289660Y-83593444D01*
X162289660Y-83593444D02*
X162242040Y-83545825D01*
X162242040Y-83545825D02*
X162099183Y-83450587D01*
X162099183Y-83450587D02*
X161908707Y-83402968D01*
X161908707Y-83402968D02*
X161527755Y-83402968D01*
X161527755Y-83402968D02*
X161432517Y-83450587D01*
X161432517Y-83450587D02*
X161384898Y-83498206D01*
X161384898Y-83498206D02*
X161337279Y-83593444D01*
X161337279Y-83593444D02*
X161337279Y-83783920D01*
X161337279Y-83783920D02*
X161384898Y-83879158D01*
X161384898Y-83879158D02*
X161432517Y-83926777D01*
X161432517Y-83926777D02*
X161527755Y-83974396D01*
X161527755Y-83974396D02*
X161765850Y-83974396D01*
X161765850Y-83974396D02*
X161861088Y-83926777D01*
X161861088Y-83926777D02*
X161908707Y-83879158D01*
X161908707Y-83879158D02*
X161956326Y-83783920D01*
X161956326Y-83783920D02*
X161956326Y-83593444D01*
X161956326Y-83593444D02*
X161908707Y-83498206D01*
X161908707Y-83498206D02*
X161861088Y-83450587D01*
X161861088Y-83450587D02*
X161765850Y-83402968D01*
X148886279Y-73815849D02*
X148552946Y-73339658D01*
X148314851Y-73815849D02*
X148314851Y-72815849D01*
X148314851Y-72815849D02*
X148695803Y-72815849D01*
X148695803Y-72815849D02*
X148791041Y-72863468D01*
X148791041Y-72863468D02*
X148838660Y-72911087D01*
X148838660Y-72911087D02*
X148886279Y-73006325D01*
X148886279Y-73006325D02*
X148886279Y-73149182D01*
X148886279Y-73149182D02*
X148838660Y-73244420D01*
X148838660Y-73244420D02*
X148791041Y-73292039D01*
X148791041Y-73292039D02*
X148695803Y-73339658D01*
X148695803Y-73339658D02*
X148314851Y-73339658D01*
X149838660Y-73815849D02*
X149267232Y-73815849D01*
X149552946Y-73815849D02*
X149552946Y-72815849D01*
X149552946Y-72815849D02*
X149457708Y-72958706D01*
X149457708Y-72958706D02*
X149362470Y-73053944D01*
X149362470Y-73053944D02*
X149267232Y-73101563D01*
X150219613Y-72911087D02*
X150267232Y-72863468D01*
X150267232Y-72863468D02*
X150362470Y-72815849D01*
X150362470Y-72815849D02*
X150600565Y-72815849D01*
X150600565Y-72815849D02*
X150695803Y-72863468D01*
X150695803Y-72863468D02*
X150743422Y-72911087D01*
X150743422Y-72911087D02*
X150791041Y-73006325D01*
X150791041Y-73006325D02*
X150791041Y-73101563D01*
X150791041Y-73101563D02*
X150743422Y-73244420D01*
X150743422Y-73244420D02*
X150171994Y-73815849D01*
X150171994Y-73815849D02*
X150791041Y-73815849D01*
X179547068Y-51614306D02*
X179499449Y-51661926D01*
X179499449Y-51661926D02*
X179356592Y-51709545D01*
X179356592Y-51709545D02*
X179261354Y-51709545D01*
X179261354Y-51709545D02*
X179118497Y-51661926D01*
X179118497Y-51661926D02*
X179023259Y-51566687D01*
X179023259Y-51566687D02*
X178975640Y-51471449D01*
X178975640Y-51471449D02*
X178928021Y-51280973D01*
X178928021Y-51280973D02*
X178928021Y-51138116D01*
X178928021Y-51138116D02*
X178975640Y-50947640D01*
X178975640Y-50947640D02*
X179023259Y-50852402D01*
X179023259Y-50852402D02*
X179118497Y-50757164D01*
X179118497Y-50757164D02*
X179261354Y-50709545D01*
X179261354Y-50709545D02*
X179356592Y-50709545D01*
X179356592Y-50709545D02*
X179499449Y-50757164D01*
X179499449Y-50757164D02*
X179547068Y-50804783D01*
X180499449Y-51709545D02*
X179928021Y-51709545D01*
X180213735Y-51709545D02*
X180213735Y-50709545D01*
X180213735Y-50709545D02*
X180118497Y-50852402D01*
X180118497Y-50852402D02*
X180023259Y-50947640D01*
X180023259Y-50947640D02*
X179928021Y-50995259D01*
X183757142Y-118759580D02*
X183709523Y-118807200D01*
X183709523Y-118807200D02*
X183566666Y-118854819D01*
X183566666Y-118854819D02*
X183471428Y-118854819D01*
X183471428Y-118854819D02*
X183328571Y-118807200D01*
X183328571Y-118807200D02*
X183233333Y-118711961D01*
X183233333Y-118711961D02*
X183185714Y-118616723D01*
X183185714Y-118616723D02*
X183138095Y-118426247D01*
X183138095Y-118426247D02*
X183138095Y-118283390D01*
X183138095Y-118283390D02*
X183185714Y-118092914D01*
X183185714Y-118092914D02*
X183233333Y-117997676D01*
X183233333Y-117997676D02*
X183328571Y-117902438D01*
X183328571Y-117902438D02*
X183471428Y-117854819D01*
X183471428Y-117854819D02*
X183566666Y-117854819D01*
X183566666Y-117854819D02*
X183709523Y-117902438D01*
X183709523Y-117902438D02*
X183757142Y-117950057D01*
X184138095Y-117950057D02*
X184185714Y-117902438D01*
X184185714Y-117902438D02*
X184280952Y-117854819D01*
X184280952Y-117854819D02*
X184519047Y-117854819D01*
X184519047Y-117854819D02*
X184614285Y-117902438D01*
X184614285Y-117902438D02*
X184661904Y-117950057D01*
X184661904Y-117950057D02*
X184709523Y-118045295D01*
X184709523Y-118045295D02*
X184709523Y-118140533D01*
X184709523Y-118140533D02*
X184661904Y-118283390D01*
X184661904Y-118283390D02*
X184090476Y-118854819D01*
X184090476Y-118854819D02*
X184709523Y-118854819D01*
X185090476Y-117950057D02*
X185138095Y-117902438D01*
X185138095Y-117902438D02*
X185233333Y-117854819D01*
X185233333Y-117854819D02*
X185471428Y-117854819D01*
X185471428Y-117854819D02*
X185566666Y-117902438D01*
X185566666Y-117902438D02*
X185614285Y-117950057D01*
X185614285Y-117950057D02*
X185661904Y-118045295D01*
X185661904Y-118045295D02*
X185661904Y-118140533D01*
X185661904Y-118140533D02*
X185614285Y-118283390D01*
X185614285Y-118283390D02*
X185042857Y-118854819D01*
X185042857Y-118854819D02*
X185661904Y-118854819D01*
X179176668Y-71014120D02*
X178843335Y-70537929D01*
X178605240Y-71014120D02*
X178605240Y-70014120D01*
X178605240Y-70014120D02*
X178986192Y-70014120D01*
X178986192Y-70014120D02*
X179081430Y-70061739D01*
X179081430Y-70061739D02*
X179129049Y-70109358D01*
X179129049Y-70109358D02*
X179176668Y-70204596D01*
X179176668Y-70204596D02*
X179176668Y-70347453D01*
X179176668Y-70347453D02*
X179129049Y-70442691D01*
X179129049Y-70442691D02*
X179081430Y-70490310D01*
X179081430Y-70490310D02*
X178986192Y-70537929D01*
X178986192Y-70537929D02*
X178605240Y-70537929D01*
X180129049Y-71014120D02*
X179557621Y-71014120D01*
X179843335Y-71014120D02*
X179843335Y-70014120D01*
X179843335Y-70014120D02*
X179748097Y-70156977D01*
X179748097Y-70156977D02*
X179652859Y-70252215D01*
X179652859Y-70252215D02*
X179557621Y-70299834D01*
X180605240Y-71014120D02*
X180795716Y-71014120D01*
X180795716Y-71014120D02*
X180890954Y-70966501D01*
X180890954Y-70966501D02*
X180938573Y-70918881D01*
X180938573Y-70918881D02*
X181033811Y-70776024D01*
X181033811Y-70776024D02*
X181081430Y-70585548D01*
X181081430Y-70585548D02*
X181081430Y-70204596D01*
X181081430Y-70204596D02*
X181033811Y-70109358D01*
X181033811Y-70109358D02*
X180986192Y-70061739D01*
X180986192Y-70061739D02*
X180890954Y-70014120D01*
X180890954Y-70014120D02*
X180700478Y-70014120D01*
X180700478Y-70014120D02*
X180605240Y-70061739D01*
X180605240Y-70061739D02*
X180557621Y-70109358D01*
X180557621Y-70109358D02*
X180510002Y-70204596D01*
X180510002Y-70204596D02*
X180510002Y-70442691D01*
X180510002Y-70442691D02*
X180557621Y-70537929D01*
X180557621Y-70537929D02*
X180605240Y-70585548D01*
X180605240Y-70585548D02*
X180700478Y-70633167D01*
X180700478Y-70633167D02*
X180890954Y-70633167D01*
X180890954Y-70633167D02*
X180986192Y-70585548D01*
X180986192Y-70585548D02*
X181033811Y-70537929D01*
X181033811Y-70537929D02*
X181081430Y-70442691D01*
X141230401Y-59409545D02*
X141230401Y-60123830D01*
X141230401Y-60123830D02*
X141182782Y-60266687D01*
X141182782Y-60266687D02*
X141087544Y-60361926D01*
X141087544Y-60361926D02*
X140944687Y-60409545D01*
X140944687Y-60409545D02*
X140849449Y-60409545D01*
X142135163Y-59409545D02*
X141944687Y-59409545D01*
X141944687Y-59409545D02*
X141849449Y-59457164D01*
X141849449Y-59457164D02*
X141801830Y-59504783D01*
X141801830Y-59504783D02*
X141706592Y-59647640D01*
X141706592Y-59647640D02*
X141658973Y-59838116D01*
X141658973Y-59838116D02*
X141658973Y-60219068D01*
X141658973Y-60219068D02*
X141706592Y-60314306D01*
X141706592Y-60314306D02*
X141754211Y-60361926D01*
X141754211Y-60361926D02*
X141849449Y-60409545D01*
X141849449Y-60409545D02*
X142039925Y-60409545D01*
X142039925Y-60409545D02*
X142135163Y-60361926D01*
X142135163Y-60361926D02*
X142182782Y-60314306D01*
X142182782Y-60314306D02*
X142230401Y-60219068D01*
X142230401Y-60219068D02*
X142230401Y-59980973D01*
X142230401Y-59980973D02*
X142182782Y-59885735D01*
X142182782Y-59885735D02*
X142135163Y-59838116D01*
X142135163Y-59838116D02*
X142039925Y-59790497D01*
X142039925Y-59790497D02*
X141849449Y-59790497D01*
X141849449Y-59790497D02*
X141754211Y-59838116D01*
X141754211Y-59838116D02*
X141706592Y-59885735D01*
X141706592Y-59885735D02*
X141658973Y-59980973D01*
X138432839Y-60283297D02*
X138432839Y-59807107D01*
X138718554Y-60378535D02*
X137718554Y-60045202D01*
X137718554Y-60045202D02*
X138718554Y-59711869D01*
X138051887Y-59378535D02*
X138718554Y-59378535D01*
X138147125Y-59378535D02*
X138099506Y-59330916D01*
X138099506Y-59330916D02*
X138051887Y-59235678D01*
X138051887Y-59235678D02*
X138051887Y-59092821D01*
X138051887Y-59092821D02*
X138099506Y-58997583D01*
X138099506Y-58997583D02*
X138194744Y-58949964D01*
X138194744Y-58949964D02*
X138718554Y-58949964D01*
X138718554Y-58045202D02*
X138194744Y-58045202D01*
X138194744Y-58045202D02*
X138099506Y-58092821D01*
X138099506Y-58092821D02*
X138051887Y-58188059D01*
X138051887Y-58188059D02*
X138051887Y-58378535D01*
X138051887Y-58378535D02*
X138099506Y-58473773D01*
X138670935Y-58045202D02*
X138718554Y-58140440D01*
X138718554Y-58140440D02*
X138718554Y-58378535D01*
X138718554Y-58378535D02*
X138670935Y-58473773D01*
X138670935Y-58473773D02*
X138575696Y-58521392D01*
X138575696Y-58521392D02*
X138480458Y-58521392D01*
X138480458Y-58521392D02*
X138385220Y-58473773D01*
X138385220Y-58473773D02*
X138337601Y-58378535D01*
X138337601Y-58378535D02*
X138337601Y-58140440D01*
X138337601Y-58140440D02*
X138289982Y-58045202D01*
X138718554Y-57426154D02*
X138670935Y-57521392D01*
X138670935Y-57521392D02*
X138575696Y-57569011D01*
X138575696Y-57569011D02*
X137718554Y-57569011D01*
X138718554Y-56902344D02*
X138670935Y-56997582D01*
X138670935Y-56997582D02*
X138623315Y-57045201D01*
X138623315Y-57045201D02*
X138528077Y-57092820D01*
X138528077Y-57092820D02*
X138242363Y-57092820D01*
X138242363Y-57092820D02*
X138147125Y-57045201D01*
X138147125Y-57045201D02*
X138099506Y-56997582D01*
X138099506Y-56997582D02*
X138051887Y-56902344D01*
X138051887Y-56902344D02*
X138051887Y-56759487D01*
X138051887Y-56759487D02*
X138099506Y-56664249D01*
X138099506Y-56664249D02*
X138147125Y-56616630D01*
X138147125Y-56616630D02*
X138242363Y-56569011D01*
X138242363Y-56569011D02*
X138528077Y-56569011D01*
X138528077Y-56569011D02*
X138623315Y-56616630D01*
X138623315Y-56616630D02*
X138670935Y-56664249D01*
X138670935Y-56664249D02*
X138718554Y-56759487D01*
X138718554Y-56759487D02*
X138718554Y-56902344D01*
X138051887Y-55711868D02*
X138861411Y-55711868D01*
X138861411Y-55711868D02*
X138956649Y-55759487D01*
X138956649Y-55759487D02*
X139004268Y-55807106D01*
X139004268Y-55807106D02*
X139051887Y-55902344D01*
X139051887Y-55902344D02*
X139051887Y-56045201D01*
X139051887Y-56045201D02*
X139004268Y-56140439D01*
X138670935Y-55711868D02*
X138718554Y-55807106D01*
X138718554Y-55807106D02*
X138718554Y-55997582D01*
X138718554Y-55997582D02*
X138670935Y-56092820D01*
X138670935Y-56092820D02*
X138623315Y-56140439D01*
X138623315Y-56140439D02*
X138528077Y-56188058D01*
X138528077Y-56188058D02*
X138242363Y-56188058D01*
X138242363Y-56188058D02*
X138147125Y-56140439D01*
X138147125Y-56140439D02*
X138099506Y-56092820D01*
X138099506Y-56092820D02*
X138051887Y-55997582D01*
X138051887Y-55997582D02*
X138051887Y-55807106D01*
X138051887Y-55807106D02*
X138099506Y-55711868D01*
X138718554Y-54473772D02*
X137718554Y-54473772D01*
X138051887Y-53997582D02*
X138718554Y-53997582D01*
X138147125Y-53997582D02*
X138099506Y-53949963D01*
X138099506Y-53949963D02*
X138051887Y-53854725D01*
X138051887Y-53854725D02*
X138051887Y-53711868D01*
X138051887Y-53711868D02*
X138099506Y-53616630D01*
X138099506Y-53616630D02*
X138194744Y-53569011D01*
X138194744Y-53569011D02*
X138718554Y-53569011D01*
X138051887Y-53092820D02*
X139051887Y-53092820D01*
X138099506Y-53092820D02*
X138051887Y-52997582D01*
X138051887Y-52997582D02*
X138051887Y-52807106D01*
X138051887Y-52807106D02*
X138099506Y-52711868D01*
X138099506Y-52711868D02*
X138147125Y-52664249D01*
X138147125Y-52664249D02*
X138242363Y-52616630D01*
X138242363Y-52616630D02*
X138528077Y-52616630D01*
X138528077Y-52616630D02*
X138623315Y-52664249D01*
X138623315Y-52664249D02*
X138670935Y-52711868D01*
X138670935Y-52711868D02*
X138718554Y-52807106D01*
X138718554Y-52807106D02*
X138718554Y-52997582D01*
X138718554Y-52997582D02*
X138670935Y-53092820D01*
X138051887Y-51759487D02*
X138718554Y-51759487D01*
X138051887Y-52188058D02*
X138575696Y-52188058D01*
X138575696Y-52188058D02*
X138670935Y-52140439D01*
X138670935Y-52140439D02*
X138718554Y-52045201D01*
X138718554Y-52045201D02*
X138718554Y-51902344D01*
X138718554Y-51902344D02*
X138670935Y-51807106D01*
X138670935Y-51807106D02*
X138623315Y-51759487D01*
X138051887Y-51426153D02*
X138051887Y-51045201D01*
X137718554Y-51283296D02*
X138575696Y-51283296D01*
X138575696Y-51283296D02*
X138670935Y-51235677D01*
X138670935Y-51235677D02*
X138718554Y-51140439D01*
X138718554Y-51140439D02*
X138718554Y-51045201D01*
X137813792Y-49997581D02*
X137766173Y-49949962D01*
X137766173Y-49949962D02*
X137718554Y-49854724D01*
X137718554Y-49854724D02*
X137718554Y-49616629D01*
X137718554Y-49616629D02*
X137766173Y-49521391D01*
X137766173Y-49521391D02*
X137813792Y-49473772D01*
X137813792Y-49473772D02*
X137909030Y-49426153D01*
X137909030Y-49426153D02*
X138004268Y-49426153D01*
X138004268Y-49426153D02*
X138147125Y-49473772D01*
X138147125Y-49473772D02*
X138718554Y-50045200D01*
X138718554Y-50045200D02*
X138718554Y-49426153D01*
X196380401Y-64759545D02*
X196380401Y-65473830D01*
X196380401Y-65473830D02*
X196332782Y-65616687D01*
X196332782Y-65616687D02*
X196237544Y-65711926D01*
X196237544Y-65711926D02*
X196094687Y-65759545D01*
X196094687Y-65759545D02*
X195999449Y-65759545D01*
X196999449Y-65188116D02*
X196904211Y-65140497D01*
X196904211Y-65140497D02*
X196856592Y-65092878D01*
X196856592Y-65092878D02*
X196808973Y-64997640D01*
X196808973Y-64997640D02*
X196808973Y-64950021D01*
X196808973Y-64950021D02*
X196856592Y-64854783D01*
X196856592Y-64854783D02*
X196904211Y-64807164D01*
X196904211Y-64807164D02*
X196999449Y-64759545D01*
X196999449Y-64759545D02*
X197189925Y-64759545D01*
X197189925Y-64759545D02*
X197285163Y-64807164D01*
X197285163Y-64807164D02*
X197332782Y-64854783D01*
X197332782Y-64854783D02*
X197380401Y-64950021D01*
X197380401Y-64950021D02*
X197380401Y-64997640D01*
X197380401Y-64997640D02*
X197332782Y-65092878D01*
X197332782Y-65092878D02*
X197285163Y-65140497D01*
X197285163Y-65140497D02*
X197189925Y-65188116D01*
X197189925Y-65188116D02*
X196999449Y-65188116D01*
X196999449Y-65188116D02*
X196904211Y-65235735D01*
X196904211Y-65235735D02*
X196856592Y-65283354D01*
X196856592Y-65283354D02*
X196808973Y-65378592D01*
X196808973Y-65378592D02*
X196808973Y-65569068D01*
X196808973Y-65569068D02*
X196856592Y-65664306D01*
X196856592Y-65664306D02*
X196904211Y-65711926D01*
X196904211Y-65711926D02*
X196999449Y-65759545D01*
X196999449Y-65759545D02*
X197189925Y-65759545D01*
X197189925Y-65759545D02*
X197285163Y-65711926D01*
X197285163Y-65711926D02*
X197332782Y-65664306D01*
X197332782Y-65664306D02*
X197380401Y-65569068D01*
X197380401Y-65569068D02*
X197380401Y-65378592D01*
X197380401Y-65378592D02*
X197332782Y-65283354D01*
X197332782Y-65283354D02*
X197285163Y-65235735D01*
X197285163Y-65235735D02*
X197189925Y-65188116D01*
X201232839Y-76333297D02*
X201232839Y-75857107D01*
X201518554Y-76428535D02*
X200518554Y-76095202D01*
X200518554Y-76095202D02*
X201518554Y-75761869D01*
X200851887Y-75428535D02*
X201518554Y-75428535D01*
X200947125Y-75428535D02*
X200899506Y-75380916D01*
X200899506Y-75380916D02*
X200851887Y-75285678D01*
X200851887Y-75285678D02*
X200851887Y-75142821D01*
X200851887Y-75142821D02*
X200899506Y-75047583D01*
X200899506Y-75047583D02*
X200994744Y-74999964D01*
X200994744Y-74999964D02*
X201518554Y-74999964D01*
X201518554Y-74095202D02*
X200994744Y-74095202D01*
X200994744Y-74095202D02*
X200899506Y-74142821D01*
X200899506Y-74142821D02*
X200851887Y-74238059D01*
X200851887Y-74238059D02*
X200851887Y-74428535D01*
X200851887Y-74428535D02*
X200899506Y-74523773D01*
X201470935Y-74095202D02*
X201518554Y-74190440D01*
X201518554Y-74190440D02*
X201518554Y-74428535D01*
X201518554Y-74428535D02*
X201470935Y-74523773D01*
X201470935Y-74523773D02*
X201375696Y-74571392D01*
X201375696Y-74571392D02*
X201280458Y-74571392D01*
X201280458Y-74571392D02*
X201185220Y-74523773D01*
X201185220Y-74523773D02*
X201137601Y-74428535D01*
X201137601Y-74428535D02*
X201137601Y-74190440D01*
X201137601Y-74190440D02*
X201089982Y-74095202D01*
X201518554Y-73476154D02*
X201470935Y-73571392D01*
X201470935Y-73571392D02*
X201375696Y-73619011D01*
X201375696Y-73619011D02*
X200518554Y-73619011D01*
X201518554Y-72952344D02*
X201470935Y-73047582D01*
X201470935Y-73047582D02*
X201423315Y-73095201D01*
X201423315Y-73095201D02*
X201328077Y-73142820D01*
X201328077Y-73142820D02*
X201042363Y-73142820D01*
X201042363Y-73142820D02*
X200947125Y-73095201D01*
X200947125Y-73095201D02*
X200899506Y-73047582D01*
X200899506Y-73047582D02*
X200851887Y-72952344D01*
X200851887Y-72952344D02*
X200851887Y-72809487D01*
X200851887Y-72809487D02*
X200899506Y-72714249D01*
X200899506Y-72714249D02*
X200947125Y-72666630D01*
X200947125Y-72666630D02*
X201042363Y-72619011D01*
X201042363Y-72619011D02*
X201328077Y-72619011D01*
X201328077Y-72619011D02*
X201423315Y-72666630D01*
X201423315Y-72666630D02*
X201470935Y-72714249D01*
X201470935Y-72714249D02*
X201518554Y-72809487D01*
X201518554Y-72809487D02*
X201518554Y-72952344D01*
X200851887Y-71761868D02*
X201661411Y-71761868D01*
X201661411Y-71761868D02*
X201756649Y-71809487D01*
X201756649Y-71809487D02*
X201804268Y-71857106D01*
X201804268Y-71857106D02*
X201851887Y-71952344D01*
X201851887Y-71952344D02*
X201851887Y-72095201D01*
X201851887Y-72095201D02*
X201804268Y-72190439D01*
X201470935Y-71761868D02*
X201518554Y-71857106D01*
X201518554Y-71857106D02*
X201518554Y-72047582D01*
X201518554Y-72047582D02*
X201470935Y-72142820D01*
X201470935Y-72142820D02*
X201423315Y-72190439D01*
X201423315Y-72190439D02*
X201328077Y-72238058D01*
X201328077Y-72238058D02*
X201042363Y-72238058D01*
X201042363Y-72238058D02*
X200947125Y-72190439D01*
X200947125Y-72190439D02*
X200899506Y-72142820D01*
X200899506Y-72142820D02*
X200851887Y-72047582D01*
X200851887Y-72047582D02*
X200851887Y-71857106D01*
X200851887Y-71857106D02*
X200899506Y-71761868D01*
X201518554Y-70523772D02*
X200518554Y-70523772D01*
X200851887Y-70047582D02*
X201518554Y-70047582D01*
X200947125Y-70047582D02*
X200899506Y-69999963D01*
X200899506Y-69999963D02*
X200851887Y-69904725D01*
X200851887Y-69904725D02*
X200851887Y-69761868D01*
X200851887Y-69761868D02*
X200899506Y-69666630D01*
X200899506Y-69666630D02*
X200994744Y-69619011D01*
X200994744Y-69619011D02*
X201518554Y-69619011D01*
X200851887Y-69142820D02*
X201851887Y-69142820D01*
X200899506Y-69142820D02*
X200851887Y-69047582D01*
X200851887Y-69047582D02*
X200851887Y-68857106D01*
X200851887Y-68857106D02*
X200899506Y-68761868D01*
X200899506Y-68761868D02*
X200947125Y-68714249D01*
X200947125Y-68714249D02*
X201042363Y-68666630D01*
X201042363Y-68666630D02*
X201328077Y-68666630D01*
X201328077Y-68666630D02*
X201423315Y-68714249D01*
X201423315Y-68714249D02*
X201470935Y-68761868D01*
X201470935Y-68761868D02*
X201518554Y-68857106D01*
X201518554Y-68857106D02*
X201518554Y-69047582D01*
X201518554Y-69047582D02*
X201470935Y-69142820D01*
X200851887Y-67809487D02*
X201518554Y-67809487D01*
X200851887Y-68238058D02*
X201375696Y-68238058D01*
X201375696Y-68238058D02*
X201470935Y-68190439D01*
X201470935Y-68190439D02*
X201518554Y-68095201D01*
X201518554Y-68095201D02*
X201518554Y-67952344D01*
X201518554Y-67952344D02*
X201470935Y-67857106D01*
X201470935Y-67857106D02*
X201423315Y-67809487D01*
X200851887Y-67476153D02*
X200851887Y-67095201D01*
X200518554Y-67333296D02*
X201375696Y-67333296D01*
X201375696Y-67333296D02*
X201470935Y-67285677D01*
X201470935Y-67285677D02*
X201518554Y-67190439D01*
X201518554Y-67190439D02*
X201518554Y-67095201D01*
X200851887Y-65571391D02*
X201518554Y-65571391D01*
X200470935Y-65809486D02*
X201185220Y-66047581D01*
X201185220Y-66047581D02*
X201185220Y-65428534D01*
X179657068Y-55370433D02*
X179323735Y-54894242D01*
X179085640Y-55370433D02*
X179085640Y-54370433D01*
X179085640Y-54370433D02*
X179466592Y-54370433D01*
X179466592Y-54370433D02*
X179561830Y-54418052D01*
X179561830Y-54418052D02*
X179609449Y-54465671D01*
X179609449Y-54465671D02*
X179657068Y-54560909D01*
X179657068Y-54560909D02*
X179657068Y-54703766D01*
X179657068Y-54703766D02*
X179609449Y-54799004D01*
X179609449Y-54799004D02*
X179561830Y-54846623D01*
X179561830Y-54846623D02*
X179466592Y-54894242D01*
X179466592Y-54894242D02*
X179085640Y-54894242D01*
X180514211Y-54703766D02*
X180514211Y-55370433D01*
X180276116Y-54322814D02*
X180038021Y-55037099D01*
X180038021Y-55037099D02*
X180657068Y-55037099D01*
X195890243Y-101384674D02*
X196699766Y-101384674D01*
X196699766Y-101384674D02*
X196795004Y-101337055D01*
X196795004Y-101337055D02*
X196842624Y-101289436D01*
X196842624Y-101289436D02*
X196890243Y-101194198D01*
X196890243Y-101194198D02*
X196890243Y-101003722D01*
X196890243Y-101003722D02*
X196842624Y-100908484D01*
X196842624Y-100908484D02*
X196795004Y-100860865D01*
X196795004Y-100860865D02*
X196699766Y-100813246D01*
X196699766Y-100813246D02*
X195890243Y-100813246D01*
X196890243Y-99813246D02*
X196890243Y-100384674D01*
X196890243Y-100098960D02*
X195890243Y-100098960D01*
X195890243Y-100098960D02*
X196033100Y-100194198D01*
X196033100Y-100194198D02*
X196128338Y-100289436D01*
X196128338Y-100289436D02*
X196175957Y-100384674D01*
X181087279Y-84831540D02*
X180611088Y-85164873D01*
X181087279Y-85402968D02*
X180087279Y-85402968D01*
X180087279Y-85402968D02*
X180087279Y-85022016D01*
X180087279Y-85022016D02*
X180134898Y-84926778D01*
X180134898Y-84926778D02*
X180182517Y-84879159D01*
X180182517Y-84879159D02*
X180277755Y-84831540D01*
X180277755Y-84831540D02*
X180420612Y-84831540D01*
X180420612Y-84831540D02*
X180515850Y-84879159D01*
X180515850Y-84879159D02*
X180563469Y-84926778D01*
X180563469Y-84926778D02*
X180611088Y-85022016D01*
X180611088Y-85022016D02*
X180611088Y-85402968D01*
X180182517Y-84450587D02*
X180134898Y-84402968D01*
X180134898Y-84402968D02*
X180087279Y-84307730D01*
X180087279Y-84307730D02*
X180087279Y-84069635D01*
X180087279Y-84069635D02*
X180134898Y-83974397D01*
X180134898Y-83974397D02*
X180182517Y-83926778D01*
X180182517Y-83926778D02*
X180277755Y-83879159D01*
X180277755Y-83879159D02*
X180372993Y-83879159D01*
X180372993Y-83879159D02*
X180515850Y-83926778D01*
X180515850Y-83926778D02*
X181087279Y-84498206D01*
X181087279Y-84498206D02*
X181087279Y-83879159D01*
X180087279Y-83260111D02*
X180087279Y-83164873D01*
X180087279Y-83164873D02*
X180134898Y-83069635D01*
X180134898Y-83069635D02*
X180182517Y-83022016D01*
X180182517Y-83022016D02*
X180277755Y-82974397D01*
X180277755Y-82974397D02*
X180468231Y-82926778D01*
X180468231Y-82926778D02*
X180706326Y-82926778D01*
X180706326Y-82926778D02*
X180896802Y-82974397D01*
X180896802Y-82974397D02*
X180992040Y-83022016D01*
X180992040Y-83022016D02*
X181039660Y-83069635D01*
X181039660Y-83069635D02*
X181087279Y-83164873D01*
X181087279Y-83164873D02*
X181087279Y-83260111D01*
X181087279Y-83260111D02*
X181039660Y-83355349D01*
X181039660Y-83355349D02*
X180992040Y-83402968D01*
X180992040Y-83402968D02*
X180896802Y-83450587D01*
X180896802Y-83450587D02*
X180706326Y-83498206D01*
X180706326Y-83498206D02*
X180468231Y-83498206D01*
X180468231Y-83498206D02*
X180277755Y-83450587D01*
X180277755Y-83450587D02*
X180182517Y-83402968D01*
X180182517Y-83402968D02*
X180134898Y-83355349D01*
X180134898Y-83355349D02*
X180087279Y-83260111D01*
X148887615Y-67953719D02*
X148554282Y-67477528D01*
X148316187Y-67953719D02*
X148316187Y-66953719D01*
X148316187Y-66953719D02*
X148697139Y-66953719D01*
X148697139Y-66953719D02*
X148792377Y-67001338D01*
X148792377Y-67001338D02*
X148839996Y-67048957D01*
X148839996Y-67048957D02*
X148887615Y-67144195D01*
X148887615Y-67144195D02*
X148887615Y-67287052D01*
X148887615Y-67287052D02*
X148839996Y-67382290D01*
X148839996Y-67382290D02*
X148792377Y-67429909D01*
X148792377Y-67429909D02*
X148697139Y-67477528D01*
X148697139Y-67477528D02*
X148316187Y-67477528D01*
X149839996Y-67953719D02*
X149268568Y-67953719D01*
X149554282Y-67953719D02*
X149554282Y-66953719D01*
X149554282Y-66953719D02*
X149459044Y-67096576D01*
X149459044Y-67096576D02*
X149363806Y-67191814D01*
X149363806Y-67191814D02*
X149268568Y-67239433D01*
X150792377Y-67953719D02*
X150220949Y-67953719D01*
X150506663Y-67953719D02*
X150506663Y-66953719D01*
X150506663Y-66953719D02*
X150411425Y-67096576D01*
X150411425Y-67096576D02*
X150316187Y-67191814D01*
X150316187Y-67191814D02*
X150220949Y-67239433D01*
X196857142Y-87359580D02*
X196809523Y-87407200D01*
X196809523Y-87407200D02*
X196666666Y-87454819D01*
X196666666Y-87454819D02*
X196571428Y-87454819D01*
X196571428Y-87454819D02*
X196428571Y-87407200D01*
X196428571Y-87407200D02*
X196333333Y-87311961D01*
X196333333Y-87311961D02*
X196285714Y-87216723D01*
X196285714Y-87216723D02*
X196238095Y-87026247D01*
X196238095Y-87026247D02*
X196238095Y-86883390D01*
X196238095Y-86883390D02*
X196285714Y-86692914D01*
X196285714Y-86692914D02*
X196333333Y-86597676D01*
X196333333Y-86597676D02*
X196428571Y-86502438D01*
X196428571Y-86502438D02*
X196571428Y-86454819D01*
X196571428Y-86454819D02*
X196666666Y-86454819D01*
X196666666Y-86454819D02*
X196809523Y-86502438D01*
X196809523Y-86502438D02*
X196857142Y-86550057D01*
X197238095Y-86550057D02*
X197285714Y-86502438D01*
X197285714Y-86502438D02*
X197380952Y-86454819D01*
X197380952Y-86454819D02*
X197619047Y-86454819D01*
X197619047Y-86454819D02*
X197714285Y-86502438D01*
X197714285Y-86502438D02*
X197761904Y-86550057D01*
X197761904Y-86550057D02*
X197809523Y-86645295D01*
X197809523Y-86645295D02*
X197809523Y-86740533D01*
X197809523Y-86740533D02*
X197761904Y-86883390D01*
X197761904Y-86883390D02*
X197190476Y-87454819D01*
X197190476Y-87454819D02*
X197809523Y-87454819D01*
X198761904Y-87454819D02*
X198190476Y-87454819D01*
X198476190Y-87454819D02*
X198476190Y-86454819D01*
X198476190Y-86454819D02*
X198380952Y-86597676D01*
X198380952Y-86597676D02*
X198285714Y-86692914D01*
X198285714Y-86692914D02*
X198190476Y-86740533D01*
X159297068Y-51614306D02*
X159249449Y-51661926D01*
X159249449Y-51661926D02*
X159106592Y-51709545D01*
X159106592Y-51709545D02*
X159011354Y-51709545D01*
X159011354Y-51709545D02*
X158868497Y-51661926D01*
X158868497Y-51661926D02*
X158773259Y-51566687D01*
X158773259Y-51566687D02*
X158725640Y-51471449D01*
X158725640Y-51471449D02*
X158678021Y-51280973D01*
X158678021Y-51280973D02*
X158678021Y-51138116D01*
X158678021Y-51138116D02*
X158725640Y-50947640D01*
X158725640Y-50947640D02*
X158773259Y-50852402D01*
X158773259Y-50852402D02*
X158868497Y-50757164D01*
X158868497Y-50757164D02*
X159011354Y-50709545D01*
X159011354Y-50709545D02*
X159106592Y-50709545D01*
X159106592Y-50709545D02*
X159249449Y-50757164D01*
X159249449Y-50757164D02*
X159297068Y-50804783D01*
X160154211Y-51042878D02*
X160154211Y-51709545D01*
X159916116Y-50661926D02*
X159678021Y-51376211D01*
X159678021Y-51376211D02*
X160297068Y-51376211D01*
X189382450Y-55364034D02*
X189049117Y-54887843D01*
X188811022Y-55364034D02*
X188811022Y-54364034D01*
X188811022Y-54364034D02*
X189191974Y-54364034D01*
X189191974Y-54364034D02*
X189287212Y-54411653D01*
X189287212Y-54411653D02*
X189334831Y-54459272D01*
X189334831Y-54459272D02*
X189382450Y-54554510D01*
X189382450Y-54554510D02*
X189382450Y-54697367D01*
X189382450Y-54697367D02*
X189334831Y-54792605D01*
X189334831Y-54792605D02*
X189287212Y-54840224D01*
X189287212Y-54840224D02*
X189191974Y-54887843D01*
X189191974Y-54887843D02*
X188811022Y-54887843D01*
X189715784Y-54364034D02*
X190334831Y-54364034D01*
X190334831Y-54364034D02*
X190001498Y-54744986D01*
X190001498Y-54744986D02*
X190144355Y-54744986D01*
X190144355Y-54744986D02*
X190239593Y-54792605D01*
X190239593Y-54792605D02*
X190287212Y-54840224D01*
X190287212Y-54840224D02*
X190334831Y-54935462D01*
X190334831Y-54935462D02*
X190334831Y-55173557D01*
X190334831Y-55173557D02*
X190287212Y-55268795D01*
X190287212Y-55268795D02*
X190239593Y-55316415D01*
X190239593Y-55316415D02*
X190144355Y-55364034D01*
X190144355Y-55364034D02*
X189858641Y-55364034D01*
X189858641Y-55364034D02*
X189763403Y-55316415D01*
X189763403Y-55316415D02*
X189715784Y-55268795D01*
X141180401Y-64409545D02*
X141180401Y-65123830D01*
X141180401Y-65123830D02*
X141132782Y-65266687D01*
X141132782Y-65266687D02*
X141037544Y-65361926D01*
X141037544Y-65361926D02*
X140894687Y-65409545D01*
X140894687Y-65409545D02*
X140799449Y-65409545D01*
X141561354Y-64409545D02*
X142228020Y-64409545D01*
X142228020Y-64409545D02*
X141799449Y-65409545D01*
X138482839Y-75833297D02*
X138482839Y-75357107D01*
X138768554Y-75928535D02*
X137768554Y-75595202D01*
X137768554Y-75595202D02*
X138768554Y-75261869D01*
X138101887Y-74928535D02*
X138768554Y-74928535D01*
X138197125Y-74928535D02*
X138149506Y-74880916D01*
X138149506Y-74880916D02*
X138101887Y-74785678D01*
X138101887Y-74785678D02*
X138101887Y-74642821D01*
X138101887Y-74642821D02*
X138149506Y-74547583D01*
X138149506Y-74547583D02*
X138244744Y-74499964D01*
X138244744Y-74499964D02*
X138768554Y-74499964D01*
X138768554Y-73595202D02*
X138244744Y-73595202D01*
X138244744Y-73595202D02*
X138149506Y-73642821D01*
X138149506Y-73642821D02*
X138101887Y-73738059D01*
X138101887Y-73738059D02*
X138101887Y-73928535D01*
X138101887Y-73928535D02*
X138149506Y-74023773D01*
X138720935Y-73595202D02*
X138768554Y-73690440D01*
X138768554Y-73690440D02*
X138768554Y-73928535D01*
X138768554Y-73928535D02*
X138720935Y-74023773D01*
X138720935Y-74023773D02*
X138625696Y-74071392D01*
X138625696Y-74071392D02*
X138530458Y-74071392D01*
X138530458Y-74071392D02*
X138435220Y-74023773D01*
X138435220Y-74023773D02*
X138387601Y-73928535D01*
X138387601Y-73928535D02*
X138387601Y-73690440D01*
X138387601Y-73690440D02*
X138339982Y-73595202D01*
X138768554Y-72976154D02*
X138720935Y-73071392D01*
X138720935Y-73071392D02*
X138625696Y-73119011D01*
X138625696Y-73119011D02*
X137768554Y-73119011D01*
X138768554Y-72452344D02*
X138720935Y-72547582D01*
X138720935Y-72547582D02*
X138673315Y-72595201D01*
X138673315Y-72595201D02*
X138578077Y-72642820D01*
X138578077Y-72642820D02*
X138292363Y-72642820D01*
X138292363Y-72642820D02*
X138197125Y-72595201D01*
X138197125Y-72595201D02*
X138149506Y-72547582D01*
X138149506Y-72547582D02*
X138101887Y-72452344D01*
X138101887Y-72452344D02*
X138101887Y-72309487D01*
X138101887Y-72309487D02*
X138149506Y-72214249D01*
X138149506Y-72214249D02*
X138197125Y-72166630D01*
X138197125Y-72166630D02*
X138292363Y-72119011D01*
X138292363Y-72119011D02*
X138578077Y-72119011D01*
X138578077Y-72119011D02*
X138673315Y-72166630D01*
X138673315Y-72166630D02*
X138720935Y-72214249D01*
X138720935Y-72214249D02*
X138768554Y-72309487D01*
X138768554Y-72309487D02*
X138768554Y-72452344D01*
X138101887Y-71261868D02*
X138911411Y-71261868D01*
X138911411Y-71261868D02*
X139006649Y-71309487D01*
X139006649Y-71309487D02*
X139054268Y-71357106D01*
X139054268Y-71357106D02*
X139101887Y-71452344D01*
X139101887Y-71452344D02*
X139101887Y-71595201D01*
X139101887Y-71595201D02*
X139054268Y-71690439D01*
X138720935Y-71261868D02*
X138768554Y-71357106D01*
X138768554Y-71357106D02*
X138768554Y-71547582D01*
X138768554Y-71547582D02*
X138720935Y-71642820D01*
X138720935Y-71642820D02*
X138673315Y-71690439D01*
X138673315Y-71690439D02*
X138578077Y-71738058D01*
X138578077Y-71738058D02*
X138292363Y-71738058D01*
X138292363Y-71738058D02*
X138197125Y-71690439D01*
X138197125Y-71690439D02*
X138149506Y-71642820D01*
X138149506Y-71642820D02*
X138101887Y-71547582D01*
X138101887Y-71547582D02*
X138101887Y-71357106D01*
X138101887Y-71357106D02*
X138149506Y-71261868D01*
X138768554Y-70023772D02*
X137768554Y-70023772D01*
X138101887Y-69547582D02*
X138768554Y-69547582D01*
X138197125Y-69547582D02*
X138149506Y-69499963D01*
X138149506Y-69499963D02*
X138101887Y-69404725D01*
X138101887Y-69404725D02*
X138101887Y-69261868D01*
X138101887Y-69261868D02*
X138149506Y-69166630D01*
X138149506Y-69166630D02*
X138244744Y-69119011D01*
X138244744Y-69119011D02*
X138768554Y-69119011D01*
X138101887Y-68642820D02*
X139101887Y-68642820D01*
X138149506Y-68642820D02*
X138101887Y-68547582D01*
X138101887Y-68547582D02*
X138101887Y-68357106D01*
X138101887Y-68357106D02*
X138149506Y-68261868D01*
X138149506Y-68261868D02*
X138197125Y-68214249D01*
X138197125Y-68214249D02*
X138292363Y-68166630D01*
X138292363Y-68166630D02*
X138578077Y-68166630D01*
X138578077Y-68166630D02*
X138673315Y-68214249D01*
X138673315Y-68214249D02*
X138720935Y-68261868D01*
X138720935Y-68261868D02*
X138768554Y-68357106D01*
X138768554Y-68357106D02*
X138768554Y-68547582D01*
X138768554Y-68547582D02*
X138720935Y-68642820D01*
X138101887Y-67309487D02*
X138768554Y-67309487D01*
X138101887Y-67738058D02*
X138625696Y-67738058D01*
X138625696Y-67738058D02*
X138720935Y-67690439D01*
X138720935Y-67690439D02*
X138768554Y-67595201D01*
X138768554Y-67595201D02*
X138768554Y-67452344D01*
X138768554Y-67452344D02*
X138720935Y-67357106D01*
X138720935Y-67357106D02*
X138673315Y-67309487D01*
X138101887Y-66976153D02*
X138101887Y-66595201D01*
X137768554Y-66833296D02*
X138625696Y-66833296D01*
X138625696Y-66833296D02*
X138720935Y-66785677D01*
X138720935Y-66785677D02*
X138768554Y-66690439D01*
X138768554Y-66690439D02*
X138768554Y-66595201D01*
X137768554Y-65595200D02*
X137768554Y-64976153D01*
X137768554Y-64976153D02*
X138149506Y-65309486D01*
X138149506Y-65309486D02*
X138149506Y-65166629D01*
X138149506Y-65166629D02*
X138197125Y-65071391D01*
X138197125Y-65071391D02*
X138244744Y-65023772D01*
X138244744Y-65023772D02*
X138339982Y-64976153D01*
X138339982Y-64976153D02*
X138578077Y-64976153D01*
X138578077Y-64976153D02*
X138673315Y-65023772D01*
X138673315Y-65023772D02*
X138720935Y-65071391D01*
X138720935Y-65071391D02*
X138768554Y-65166629D01*
X138768554Y-65166629D02*
X138768554Y-65452343D01*
X138768554Y-65452343D02*
X138720935Y-65547581D01*
X138720935Y-65547581D02*
X138673315Y-65595200D01*
X189405783Y-58614034D02*
X189072450Y-58137843D01*
X188834355Y-58614034D02*
X188834355Y-57614034D01*
X188834355Y-57614034D02*
X189215307Y-57614034D01*
X189215307Y-57614034D02*
X189310545Y-57661653D01*
X189310545Y-57661653D02*
X189358164Y-57709272D01*
X189358164Y-57709272D02*
X189405783Y-57804510D01*
X189405783Y-57804510D02*
X189405783Y-57947367D01*
X189405783Y-57947367D02*
X189358164Y-58042605D01*
X189358164Y-58042605D02*
X189310545Y-58090224D01*
X189310545Y-58090224D02*
X189215307Y-58137843D01*
X189215307Y-58137843D02*
X188834355Y-58137843D01*
X190358164Y-58614034D02*
X189786736Y-58614034D01*
X190072450Y-58614034D02*
X190072450Y-57614034D01*
X190072450Y-57614034D02*
X189977212Y-57756891D01*
X189977212Y-57756891D02*
X189881974Y-57852129D01*
X189881974Y-57852129D02*
X189786736Y-57899748D01*
X189382450Y-51689034D02*
X189049117Y-51212843D01*
X188811022Y-51689034D02*
X188811022Y-50689034D01*
X188811022Y-50689034D02*
X189191974Y-50689034D01*
X189191974Y-50689034D02*
X189287212Y-50736653D01*
X189287212Y-50736653D02*
X189334831Y-50784272D01*
X189334831Y-50784272D02*
X189382450Y-50879510D01*
X189382450Y-50879510D02*
X189382450Y-51022367D01*
X189382450Y-51022367D02*
X189334831Y-51117605D01*
X189334831Y-51117605D02*
X189287212Y-51165224D01*
X189287212Y-51165224D02*
X189191974Y-51212843D01*
X189191974Y-51212843D02*
X188811022Y-51212843D01*
X189763403Y-50784272D02*
X189811022Y-50736653D01*
X189811022Y-50736653D02*
X189906260Y-50689034D01*
X189906260Y-50689034D02*
X190144355Y-50689034D01*
X190144355Y-50689034D02*
X190239593Y-50736653D01*
X190239593Y-50736653D02*
X190287212Y-50784272D01*
X190287212Y-50784272D02*
X190334831Y-50879510D01*
X190334831Y-50879510D02*
X190334831Y-50974748D01*
X190334831Y-50974748D02*
X190287212Y-51117605D01*
X190287212Y-51117605D02*
X189715784Y-51689034D01*
X189715784Y-51689034D02*
X190334831Y-51689034D01*
X174837279Y-84355349D02*
X174361088Y-84688682D01*
X174837279Y-84926777D02*
X173837279Y-84926777D01*
X173837279Y-84926777D02*
X173837279Y-84545825D01*
X173837279Y-84545825D02*
X173884898Y-84450587D01*
X173884898Y-84450587D02*
X173932517Y-84402968D01*
X173932517Y-84402968D02*
X174027755Y-84355349D01*
X174027755Y-84355349D02*
X174170612Y-84355349D01*
X174170612Y-84355349D02*
X174265850Y-84402968D01*
X174265850Y-84402968D02*
X174313469Y-84450587D01*
X174313469Y-84450587D02*
X174361088Y-84545825D01*
X174361088Y-84545825D02*
X174361088Y-84926777D01*
X173837279Y-83450587D02*
X173837279Y-83926777D01*
X173837279Y-83926777D02*
X174313469Y-83974396D01*
X174313469Y-83974396D02*
X174265850Y-83926777D01*
X174265850Y-83926777D02*
X174218231Y-83831539D01*
X174218231Y-83831539D02*
X174218231Y-83593444D01*
X174218231Y-83593444D02*
X174265850Y-83498206D01*
X174265850Y-83498206D02*
X174313469Y-83450587D01*
X174313469Y-83450587D02*
X174408707Y-83402968D01*
X174408707Y-83402968D02*
X174646802Y-83402968D01*
X174646802Y-83402968D02*
X174742040Y-83450587D01*
X174742040Y-83450587D02*
X174789660Y-83498206D01*
X174789660Y-83498206D02*
X174837279Y-83593444D01*
X174837279Y-83593444D02*
X174837279Y-83831539D01*
X174837279Y-83831539D02*
X174789660Y-83926777D01*
X174789660Y-83926777D02*
X174742040Y-83974396D01*
D12*
%TO.C,R18*%
X186260070Y-69232437D02*
X192800070Y-69232437D01*
X186260070Y-69562437D02*
X186260070Y-69232437D01*
X186260070Y-71642437D02*
X186260070Y-71972437D01*
X186260070Y-71972437D02*
X192800070Y-71972437D01*
X192800070Y-69232437D02*
X192800070Y-69562437D01*
X192800070Y-71972437D02*
X192800070Y-71642437D01*
%TO.C,C10*%
X175281862Y-72262828D02*
X184521862Y-72262828D01*
X175281862Y-75002828D02*
X175281862Y-72262828D01*
X184521862Y-72262828D02*
X184521862Y-75002828D01*
X184521862Y-75002828D02*
X175281862Y-75002828D01*
%TO.C,TP3*%
X194413735Y-61604726D02*
X194413735Y-63504726D01*
X194413735Y-63504726D02*
X196263735Y-63504726D01*
X196263735Y-61604726D02*
X194413735Y-61604726D01*
X196263735Y-61654726D02*
X196263735Y-61604726D01*
X196263735Y-63504726D02*
X196263735Y-61654726D01*
%TO.C,C17*%
X188630000Y-79380000D02*
X191370000Y-79380000D01*
X188630000Y-88620000D02*
X188630000Y-79380000D01*
X191370000Y-79380000D02*
X191370000Y-88620000D01*
X191370000Y-88620000D02*
X188630000Y-88620000D01*
%TO.C,C7*%
X154919051Y-72173197D02*
X164159051Y-72173197D01*
X154919051Y-74913197D02*
X154919051Y-72173197D01*
X164159051Y-72173197D02*
X164159051Y-74913197D01*
X164159051Y-74913197D02*
X154919051Y-74913197D01*
%TO.C,R6*%
X146321401Y-56322891D02*
X146321401Y-56652891D01*
X146321401Y-59062891D02*
X146321401Y-58732891D01*
X152861401Y-56322891D02*
X146321401Y-56322891D01*
X152861401Y-56652891D02*
X152861401Y-56322891D01*
X152861401Y-58732891D02*
X152861401Y-59062891D01*
X152861401Y-59062891D02*
X146321401Y-59062891D01*
%TO.C,TP2*%
X198350000Y-94300000D02*
X198350000Y-96200000D01*
X198350000Y-96200000D02*
X200200000Y-96200000D01*
X200200000Y-94300000D02*
X198350000Y-94300000D01*
X200200000Y-94350000D02*
X200200000Y-94300000D01*
X200200000Y-96200000D02*
X200200000Y-94350000D01*
%TO.C,R10*%
X166812460Y-80808683D02*
X167142460Y-80808683D01*
X166812460Y-87348683D02*
X166812460Y-80808683D01*
X167142460Y-87348683D02*
X166812460Y-87348683D01*
X169222460Y-87348683D02*
X169552460Y-87348683D01*
X169552460Y-80808683D02*
X169222460Y-80808683D01*
X169552460Y-87348683D02*
X169552460Y-80808683D01*
%TO.C,J4*%
X153540000Y-117740000D02*
X153540000Y-123710000D01*
X153540000Y-123710000D02*
X171160000Y-123710000D01*
X153550000Y-121450000D02*
X154300000Y-121450000D01*
X153550000Y-122950000D02*
X153550000Y-123700000D01*
X153550000Y-123700000D02*
X155350000Y-123700000D01*
X154300000Y-118500000D02*
X162350000Y-118500000D01*
X154300000Y-121450000D02*
X154300000Y-118500000D01*
X155350000Y-122950000D02*
X153550000Y-122950000D01*
X155350000Y-123700000D02*
X155350000Y-122950000D01*
X156850000Y-122950000D02*
X156850000Y-123700000D01*
X156850000Y-123700000D02*
X167850000Y-123700000D01*
X162350000Y-118500000D02*
X169340000Y-118500000D01*
X167850000Y-122950000D02*
X156850000Y-122950000D01*
X167850000Y-123700000D02*
X167850000Y-122950000D01*
X169350000Y-122950000D02*
X169350000Y-123700000D01*
X169350000Y-123700000D02*
X171150000Y-123700000D01*
X170200000Y-124000000D02*
X171450000Y-124000000D01*
X170400000Y-121450000D02*
X170400000Y-120110000D01*
X171150000Y-121450000D02*
X170400000Y-121450000D01*
X171150000Y-122950000D02*
X169350000Y-122950000D01*
X171150000Y-123700000D02*
X171150000Y-122950000D01*
X171160000Y-117740000D02*
X153540000Y-117740000D01*
X171160000Y-123710000D02*
X171160000Y-117740000D01*
X171450000Y-124000000D02*
X171450000Y-122750000D01*
%TO.C,U4*%
X191844584Y-79632538D02*
X202064584Y-79632538D01*
X191844584Y-84252538D02*
X191844584Y-79632538D01*
X195104584Y-84252538D02*
X195104584Y-82872538D01*
X198804584Y-84252538D02*
X198804584Y-82872538D01*
X202064584Y-79632538D02*
X202064584Y-84252538D01*
X202064584Y-82872538D02*
X191844584Y-82872538D01*
X202064584Y-84252538D02*
X191844584Y-84252538D01*
%TO.C,R14*%
X156163899Y-69182144D02*
X156163899Y-69512144D01*
X156163899Y-71922144D02*
X156163899Y-71592144D01*
X162703899Y-69182144D02*
X156163899Y-69182144D01*
X162703899Y-69512144D02*
X162703899Y-69182144D01*
X162703899Y-71592144D02*
X162703899Y-71922144D01*
X162703899Y-71922144D02*
X156163899Y-71922144D01*
%TO.C,U2*%
X167403735Y-50019726D02*
X167403735Y-60299726D01*
X167403735Y-60299726D02*
X168653735Y-60299726D01*
X170653735Y-60299726D02*
X171903735Y-60299726D01*
X171903735Y-50019726D02*
X167403735Y-50019726D01*
X171903735Y-60299726D02*
X171903735Y-50019726D01*
X168653735Y-60299726D02*
G75*
G02*
X170653735Y-60299726I1000000J0D01*
G01*
%TO.C,C5*%
X154843735Y-56559726D02*
X164083735Y-56559726D01*
X154843735Y-59299726D02*
X154843735Y-56559726D01*
X164083735Y-56559726D02*
X164083735Y-59299726D01*
X164083735Y-59299726D02*
X154843735Y-59299726D01*
%TO.C,C11*%
X175089526Y-66189301D02*
X184329526Y-66189301D01*
X175089526Y-68929301D02*
X175089526Y-66189301D01*
X184329526Y-66189301D02*
X184329526Y-68929301D01*
X184329526Y-68929301D02*
X175089526Y-68929301D01*
%TO.C,J2*%
X148440000Y-77890000D02*
X148440000Y-84010000D01*
X148440000Y-84010000D02*
X153160000Y-84010000D01*
X149050000Y-78500000D02*
X149050000Y-83400000D01*
X149050000Y-80850000D02*
X149550000Y-80850000D01*
X149050000Y-80950000D02*
X149550000Y-80950000D01*
X149050000Y-83400000D02*
X152550000Y-83400000D01*
X149550000Y-80850000D02*
X149550000Y-81050000D01*
X149550000Y-81050000D02*
X149050000Y-81050000D01*
X150550000Y-77890000D02*
X150550000Y-78500000D01*
X150550000Y-84010000D02*
X150550000Y-83400000D01*
X151850000Y-77890000D02*
X151850000Y-78500000D01*
X151850000Y-84010000D02*
X151850000Y-83400000D01*
X152550000Y-78500000D02*
X149050000Y-78500000D01*
X152550000Y-80450000D02*
X152550000Y-78500000D01*
X152550000Y-81450000D02*
X153160000Y-81450000D01*
X152550000Y-83400000D02*
X152550000Y-81450000D01*
X153160000Y-77890000D02*
X148440000Y-77890000D01*
X153160000Y-79650000D02*
X153360000Y-79650000D01*
X153160000Y-80450000D02*
X152550000Y-80450000D01*
X153160000Y-84010000D02*
X153160000Y-77890000D01*
X153260000Y-79650000D02*
X153260000Y-79350000D01*
X153360000Y-79350000D02*
X153160000Y-79350000D01*
X153360000Y-79650000D02*
X153360000Y-79350000D01*
X153460000Y-77590000D02*
X152210000Y-77590000D01*
X153460000Y-78840000D02*
X153460000Y-77590000D01*
%TO.C,R7*%
X146321401Y-49897891D02*
X152861401Y-49897891D01*
X146321401Y-50227891D02*
X146321401Y-49897891D01*
X146321401Y-52307891D02*
X146321401Y-52637891D01*
X146321401Y-52637891D02*
X152861401Y-52637891D01*
X152861401Y-49897891D02*
X152861401Y-50227891D01*
X152861401Y-52637891D02*
X152861401Y-52307891D01*
%TO.C,BZ1*%
X201950000Y-118250000D02*
G75*
G02*
X189750000Y-118250000I-6100000J0D01*
G01*
X189750000Y-118250000D02*
G75*
G02*
X201950000Y-118250000I6100000J0D01*
G01*
%TO.C,R8*%
X146321401Y-53322891D02*
X146321401Y-53652891D01*
X146321401Y-56062891D02*
X146321401Y-55732891D01*
X152861401Y-53322891D02*
X146321401Y-53322891D01*
X152861401Y-53652891D02*
X152861401Y-53322891D01*
X152861401Y-55732891D02*
X152861401Y-56062891D01*
X152861401Y-56062891D02*
X146321401Y-56062891D01*
%TO.C,C15*%
X175089526Y-62919301D02*
X184329526Y-62919301D01*
X175089526Y-65659301D02*
X175089526Y-62919301D01*
X184329526Y-62919301D02*
X184329526Y-65659301D01*
X184329526Y-65659301D02*
X175089526Y-65659301D01*
%TO.C,C6*%
X169912460Y-79568683D02*
X172652460Y-79568683D01*
X169912460Y-88808683D02*
X169912460Y-79568683D01*
X172652460Y-79568683D02*
X172652460Y-88808683D01*
X172652460Y-88808683D02*
X169912460Y-88808683D01*
%TO.C,C8*%
X154923899Y-65932144D02*
X164163899Y-65932144D01*
X154923899Y-68672144D02*
X154923899Y-65932144D01*
X164163899Y-65932144D02*
X164163899Y-68672144D01*
X164163899Y-68672144D02*
X154923899Y-68672144D01*
%TO.C,R16*%
X186266597Y-66197600D02*
X192806597Y-66197600D01*
X186266597Y-66527600D02*
X186266597Y-66197600D01*
X186266597Y-68607600D02*
X186266597Y-68937600D01*
X186266597Y-68937600D02*
X192806597Y-68937600D01*
X192806597Y-66197600D02*
X192806597Y-66527600D01*
X192806597Y-68937600D02*
X192806597Y-68607600D01*
%TO.C,R21*%
X181130000Y-113830000D02*
X187670000Y-113830000D01*
X181130000Y-114160000D02*
X181130000Y-113830000D01*
X181130000Y-116240000D02*
X181130000Y-116570000D01*
X181130000Y-116570000D02*
X187670000Y-116570000D01*
X187670000Y-113830000D02*
X187670000Y-114160000D01*
X187670000Y-116570000D02*
X187670000Y-116240000D01*
%TO.C,TP1*%
X198300000Y-90300000D02*
X198300000Y-92200000D01*
X198300000Y-92200000D02*
X200150000Y-92200000D01*
X200150000Y-90300000D02*
X198300000Y-90300000D01*
X200150000Y-90350000D02*
X200150000Y-90300000D01*
X200150000Y-92200000D02*
X200150000Y-90350000D01*
%TO.C,J1*%
X194495463Y-57300188D02*
X194495463Y-58550188D01*
X194495463Y-58550188D02*
X195745463Y-58550188D01*
X194595463Y-56490188D02*
X194595463Y-56790188D01*
X194595463Y-56790188D02*
X194795463Y-56790188D01*
X194695463Y-56490188D02*
X194695463Y-56790188D01*
X194795463Y-50130188D02*
X194795463Y-58250188D01*
X194795463Y-55690188D02*
X195405463Y-55690188D01*
X194795463Y-56490188D02*
X194595463Y-56490188D01*
X194795463Y-58250188D02*
X199515463Y-58250188D01*
X195405463Y-50740188D02*
X195405463Y-52690188D01*
X195405463Y-52690188D02*
X194795463Y-52690188D01*
X195405463Y-55690188D02*
X195405463Y-57640188D01*
X195405463Y-57640188D02*
X198905463Y-57640188D01*
X196105463Y-50130188D02*
X196105463Y-50740188D01*
X196105463Y-58250188D02*
X196105463Y-57640188D01*
X197405463Y-50130188D02*
X197405463Y-50740188D01*
X197405463Y-58250188D02*
X197405463Y-57640188D01*
X198405463Y-53090188D02*
X198905463Y-53090188D01*
X198405463Y-53290188D02*
X198405463Y-53090188D01*
X198405463Y-55090188D02*
X198905463Y-55090188D01*
X198405463Y-55290188D02*
X198405463Y-55090188D01*
X198905463Y-50740188D02*
X195405463Y-50740188D01*
X198905463Y-53190188D02*
X198405463Y-53190188D01*
X198905463Y-53290188D02*
X198405463Y-53290188D01*
X198905463Y-55190188D02*
X198405463Y-55190188D01*
X198905463Y-55290188D02*
X198405463Y-55290188D01*
X198905463Y-57640188D02*
X198905463Y-50740188D01*
X199515463Y-50130188D02*
X194795463Y-50130188D01*
X199515463Y-58250188D02*
X199515463Y-50130188D01*
%TO.C,C12*%
X182462460Y-79568683D02*
X185202460Y-79568683D01*
X182462460Y-88808683D02*
X182462460Y-79568683D01*
X185202460Y-79568683D02*
X185202460Y-88808683D01*
X185202460Y-88808683D02*
X182462460Y-88808683D01*
%TO.C,R17*%
X186243735Y-72234726D02*
X186243735Y-72564726D01*
X186243735Y-74974726D02*
X186243735Y-74644726D01*
X192783735Y-72234726D02*
X186243735Y-72234726D01*
X192783735Y-72564726D02*
X192783735Y-72234726D01*
X192783735Y-74644726D02*
X192783735Y-74974726D01*
X192783735Y-74974726D02*
X186243735Y-74974726D01*
%TO.C,R13*%
X146260473Y-69128900D02*
X146260473Y-69458900D01*
X146260473Y-71868900D02*
X146260473Y-71538900D01*
X152800473Y-69128900D02*
X146260473Y-69128900D01*
X152800473Y-69458900D02*
X152800473Y-69128900D01*
X152800473Y-71538900D02*
X152800473Y-71868900D01*
X152800473Y-71868900D02*
X146260473Y-71868900D01*
%TO.C,C13*%
X154843735Y-59809726D02*
X164083735Y-59809726D01*
X154843735Y-62549726D02*
X154843735Y-59809726D01*
X164083735Y-59809726D02*
X164083735Y-62549726D01*
X164083735Y-62549726D02*
X154843735Y-62549726D01*
%TO.C,J10*%
X172790000Y-118840000D02*
X172790000Y-123560000D01*
X172790000Y-120950000D02*
X173400000Y-120950000D01*
X172790000Y-122250000D02*
X173400000Y-122250000D01*
X172790000Y-123560000D02*
X178910000Y-123560000D01*
X173400000Y-119450000D02*
X173400000Y-122950000D01*
X173400000Y-122950000D02*
X175350000Y-122950000D01*
X175350000Y-122950000D02*
X175350000Y-123560000D01*
X175750000Y-119950000D02*
X175750000Y-119450000D01*
X175850000Y-119450000D02*
X175850000Y-119950000D01*
X175950000Y-119450000D02*
X175950000Y-119950000D01*
X175950000Y-119950000D02*
X175750000Y-119950000D01*
X176350000Y-122950000D02*
X178300000Y-122950000D01*
X176350000Y-123560000D02*
X176350000Y-122950000D01*
X177150000Y-123560000D02*
X177150000Y-123760000D01*
X177150000Y-123660000D02*
X177450000Y-123660000D01*
X177150000Y-123760000D02*
X177450000Y-123760000D01*
X177450000Y-123760000D02*
X177450000Y-123560000D01*
X177960000Y-123860000D02*
X179210000Y-123860000D01*
X178300000Y-119450000D02*
X173400000Y-119450000D01*
X178300000Y-122950000D02*
X178300000Y-119450000D01*
X178910000Y-118840000D02*
X172790000Y-118840000D01*
X178910000Y-120950000D02*
X178300000Y-120950000D01*
X178910000Y-122250000D02*
X178300000Y-122250000D01*
X178910000Y-123560000D02*
X178910000Y-118840000D01*
X179210000Y-123860000D02*
X179210000Y-122610000D01*
%TO.C,TP4*%
X197563735Y-61604726D02*
X197563735Y-63504726D01*
X197563735Y-63504726D02*
X199413735Y-63504726D01*
X199413735Y-61604726D02*
X197563735Y-61604726D01*
X199413735Y-61654726D02*
X199413735Y-61604726D01*
X199413735Y-63504726D02*
X199413735Y-61654726D01*
%TO.C,J9*%
X139643308Y-77798244D02*
X141023308Y-77798244D01*
X139643308Y-79178244D02*
X139643308Y-77798244D01*
X139643308Y-80448244D02*
X139643308Y-88178244D01*
X139643308Y-80448244D02*
X142403308Y-80448244D01*
X139643308Y-88178244D02*
X142403308Y-88178244D01*
X142403308Y-80448244D02*
X142403308Y-88178244D01*
%TO.C,C2*%
X175093735Y-56625073D02*
X184333735Y-56625073D01*
X175093735Y-59365073D02*
X175093735Y-56625073D01*
X184333735Y-56625073D02*
X184333735Y-59365073D01*
X184333735Y-59365073D02*
X175093735Y-59365073D01*
%TO.C,R15*%
X163612460Y-80808683D02*
X163942460Y-80808683D01*
X163612460Y-87348683D02*
X163612460Y-80808683D01*
X163942460Y-87348683D02*
X163612460Y-87348683D01*
X166022460Y-87348683D02*
X166352460Y-87348683D01*
X166352460Y-80808683D02*
X166022460Y-80808683D01*
X166352460Y-87348683D02*
X166352460Y-80808683D01*
%TO.C,J5*%
X139990000Y-122610000D02*
X139990000Y-123860000D01*
X139990000Y-123860000D02*
X141240000Y-123860000D01*
X140090000Y-121800000D02*
X140090000Y-122100000D01*
X140090000Y-122100000D02*
X140290000Y-122100000D01*
X140190000Y-121800000D02*
X140190000Y-122100000D01*
X140290000Y-113440000D02*
X140290000Y-123560000D01*
X140290000Y-121000000D02*
X140900000Y-121000000D01*
X140290000Y-121800000D02*
X140090000Y-121800000D01*
X140290000Y-123560000D02*
X145010000Y-123560000D01*
X140900000Y-114050000D02*
X140900000Y-116000000D01*
X140900000Y-116000000D02*
X140290000Y-116000000D01*
X140900000Y-121000000D02*
X140900000Y-122950000D01*
X140900000Y-122950000D02*
X144400000Y-122950000D01*
X141600000Y-113440000D02*
X141600000Y-114050000D01*
X141600000Y-123560000D02*
X141600000Y-122950000D01*
X142900000Y-113440000D02*
X142900000Y-114050000D01*
X142900000Y-123560000D02*
X142900000Y-122950000D01*
X143900000Y-116400000D02*
X144400000Y-116400000D01*
X143900000Y-116600000D02*
X143900000Y-116400000D01*
X143900000Y-118400000D02*
X144400000Y-118400000D01*
X143900000Y-118600000D02*
X143900000Y-118400000D01*
X143900000Y-120400000D02*
X144400000Y-120400000D01*
X143900000Y-120600000D02*
X143900000Y-120400000D01*
X144400000Y-114050000D02*
X140900000Y-114050000D01*
X144400000Y-116500000D02*
X143900000Y-116500000D01*
X144400000Y-116600000D02*
X143900000Y-116600000D01*
X144400000Y-118500000D02*
X143900000Y-118500000D01*
X144400000Y-118600000D02*
X143900000Y-118600000D01*
X144400000Y-120500000D02*
X143900000Y-120500000D01*
X144400000Y-120600000D02*
X143900000Y-120600000D01*
X144400000Y-122950000D02*
X144400000Y-114050000D01*
X145010000Y-113440000D02*
X140290000Y-113440000D01*
X145010000Y-123560000D02*
X145010000Y-113440000D01*
%TO.C,U3*%
X167395091Y-64573197D02*
X167395091Y-74853197D01*
X167395091Y-74853197D02*
X171895091Y-74853197D01*
X168645091Y-64573197D02*
X167395091Y-64573197D01*
X171895091Y-64573197D02*
X170645091Y-64573197D01*
X171895091Y-74853197D02*
X171895091Y-64573197D01*
X170645091Y-64573197D02*
G75*
G02*
X168645091Y-64573197I-1000000J0D01*
G01*
%TO.C,J3*%
X147090000Y-122710000D02*
X147090000Y-123960000D01*
X147090000Y-123960000D02*
X148340000Y-123960000D01*
X147190000Y-121900000D02*
X147190000Y-122200000D01*
X147190000Y-122200000D02*
X147390000Y-122200000D01*
X147290000Y-121900000D02*
X147290000Y-122200000D01*
X147390000Y-115540000D02*
X147390000Y-123660000D01*
X147390000Y-121100000D02*
X148000000Y-121100000D01*
X147390000Y-121900000D02*
X147190000Y-121900000D01*
X147390000Y-123660000D02*
X152110000Y-123660000D01*
X148000000Y-116150000D02*
X148000000Y-118100000D01*
X148000000Y-118100000D02*
X147390000Y-118100000D01*
X148000000Y-121100000D02*
X148000000Y-123050000D01*
X148000000Y-123050000D02*
X151500000Y-123050000D01*
X148700000Y-115540000D02*
X148700000Y-116150000D01*
X148700000Y-123660000D02*
X148700000Y-123050000D01*
X150000000Y-115540000D02*
X150000000Y-116150000D01*
X150000000Y-123660000D02*
X150000000Y-123050000D01*
X151000000Y-118500000D02*
X151500000Y-118500000D01*
X151000000Y-118700000D02*
X151000000Y-118500000D01*
X151000000Y-120500000D02*
X151500000Y-120500000D01*
X151000000Y-120700000D02*
X151000000Y-120500000D01*
X151500000Y-116150000D02*
X148000000Y-116150000D01*
X151500000Y-118600000D02*
X151000000Y-118600000D01*
X151500000Y-118700000D02*
X151000000Y-118700000D01*
X151500000Y-120600000D02*
X151000000Y-120600000D01*
X151500000Y-120700000D02*
X151000000Y-120700000D01*
X151500000Y-123050000D02*
X151500000Y-116150000D01*
X152110000Y-115540000D02*
X147390000Y-115540000D01*
X152110000Y-123660000D02*
X152110000Y-115540000D01*
%TO.C,C3*%
X176212460Y-79568683D02*
X178952460Y-79568683D01*
X176212460Y-88808683D02*
X176212460Y-79568683D01*
X178952460Y-79568683D02*
X178952460Y-88808683D01*
X178952460Y-88808683D02*
X176212460Y-88808683D01*
%TO.C,R9*%
X156083735Y-53309726D02*
X156083735Y-53639726D01*
X156083735Y-56049726D02*
X156083735Y-55719726D01*
X162623735Y-53309726D02*
X156083735Y-53309726D01*
X162623735Y-53639726D02*
X162623735Y-53309726D01*
X162623735Y-55719726D02*
X162623735Y-56049726D01*
X162623735Y-56049726D02*
X156083735Y-56049726D01*
%TO.C,C9*%
X160512460Y-79568683D02*
X163252460Y-79568683D01*
X160512460Y-88808683D02*
X160512460Y-79568683D01*
X163252460Y-79568683D02*
X163252460Y-88808683D01*
X163252460Y-88808683D02*
X160512460Y-88808683D01*
%TO.C,R12*%
X146259137Y-72173197D02*
X152799137Y-72173197D01*
X146259137Y-72503197D02*
X146259137Y-72173197D01*
X146259137Y-74583197D02*
X146259137Y-74913197D01*
X146259137Y-74913197D02*
X152799137Y-74913197D01*
X152799137Y-72173197D02*
X152799137Y-72503197D01*
X152799137Y-74913197D02*
X152799137Y-74583197D01*
%TO.C,C1*%
X175093735Y-49884726D02*
X184333735Y-49884726D01*
X175093735Y-52624726D02*
X175093735Y-49884726D01*
X184333735Y-49884726D02*
X184333735Y-52624726D01*
X184333735Y-52624726D02*
X175093735Y-52624726D01*
%TO.C,C22*%
X179780000Y-117030000D02*
X189020000Y-117030000D01*
X179780000Y-119770000D02*
X179780000Y-117030000D01*
X189020000Y-117030000D02*
X189020000Y-119770000D01*
X189020000Y-119770000D02*
X179780000Y-119770000D01*
%TO.C,R19*%
X176549526Y-69189301D02*
X183089526Y-69189301D01*
X176549526Y-69519301D02*
X176549526Y-69189301D01*
X176549526Y-71599301D02*
X176549526Y-71929301D01*
X176549526Y-71929301D02*
X183089526Y-71929301D01*
X183089526Y-69189301D02*
X183089526Y-69519301D01*
X183089526Y-71929301D02*
X183089526Y-71599301D01*
%TO.C,J6*%
X139258788Y-57355181D02*
X139258788Y-58605181D01*
X139258788Y-58605181D02*
X140508788Y-58605181D01*
X139358788Y-56545181D02*
X139358788Y-56845181D01*
X139358788Y-56845181D02*
X139558788Y-56845181D01*
X139458788Y-56545181D02*
X139458788Y-56845181D01*
X139558788Y-50185181D02*
X139558788Y-58305181D01*
X139558788Y-55745181D02*
X140168788Y-55745181D01*
X139558788Y-56545181D02*
X139358788Y-56545181D01*
X139558788Y-58305181D02*
X144278788Y-58305181D01*
X140168788Y-50795181D02*
X140168788Y-52745181D01*
X140168788Y-52745181D02*
X139558788Y-52745181D01*
X140168788Y-55745181D02*
X140168788Y-57695181D01*
X140168788Y-57695181D02*
X143668788Y-57695181D01*
X140868788Y-50185181D02*
X140868788Y-50795181D01*
X140868788Y-58305181D02*
X140868788Y-57695181D01*
X142168788Y-50185181D02*
X142168788Y-50795181D01*
X142168788Y-58305181D02*
X142168788Y-57695181D01*
X143168788Y-53145181D02*
X143668788Y-53145181D01*
X143168788Y-53345181D02*
X143168788Y-53145181D01*
X143168788Y-55145181D02*
X143668788Y-55145181D01*
X143168788Y-55345181D02*
X143168788Y-55145181D01*
X143668788Y-50795181D02*
X140168788Y-50795181D01*
X143668788Y-53245181D02*
X143168788Y-53245181D01*
X143668788Y-53345181D02*
X143168788Y-53345181D01*
X143668788Y-55245181D02*
X143168788Y-55245181D01*
X143668788Y-55345181D02*
X143168788Y-55345181D01*
X143668788Y-57695181D02*
X143668788Y-50795181D01*
X144278788Y-50185181D02*
X139558788Y-50185181D01*
X144278788Y-58305181D02*
X144278788Y-50185181D01*
%TO.C,J8*%
X194786819Y-66533197D02*
X194786819Y-74653197D01*
X194786819Y-74653197D02*
X199506819Y-74653197D01*
X195396819Y-67143197D02*
X195396819Y-74043197D01*
X195396819Y-69493197D02*
X195896819Y-69493197D01*
X195396819Y-69593197D02*
X195896819Y-69593197D01*
X195396819Y-71493197D02*
X195896819Y-71493197D01*
X195396819Y-71593197D02*
X195896819Y-71593197D01*
X195396819Y-74043197D02*
X198896819Y-74043197D01*
X195896819Y-69493197D02*
X195896819Y-69693197D01*
X195896819Y-69693197D02*
X195396819Y-69693197D01*
X195896819Y-71493197D02*
X195896819Y-71693197D01*
X195896819Y-71693197D02*
X195396819Y-71693197D01*
X196896819Y-66533197D02*
X196896819Y-67143197D01*
X196896819Y-74653197D02*
X196896819Y-74043197D01*
X198196819Y-66533197D02*
X198196819Y-67143197D01*
X198196819Y-74653197D02*
X198196819Y-74043197D01*
X198896819Y-67143197D02*
X195396819Y-67143197D01*
X198896819Y-69093197D02*
X198896819Y-67143197D01*
X198896819Y-72093197D02*
X199506819Y-72093197D01*
X198896819Y-74043197D02*
X198896819Y-72093197D01*
X199506819Y-66533197D02*
X194786819Y-66533197D01*
X199506819Y-68293197D02*
X199706819Y-68293197D01*
X199506819Y-69093197D02*
X198896819Y-69093197D01*
X199506819Y-74653197D02*
X199506819Y-66533197D01*
X199606819Y-68293197D02*
X199606819Y-67993197D01*
X199706819Y-67993197D02*
X199506819Y-67993197D01*
X199706819Y-68293197D02*
X199706819Y-67993197D01*
X199806819Y-66233197D02*
X198556819Y-66233197D01*
X199806819Y-67483197D02*
X199806819Y-66233197D01*
%TO.C,R4*%
X176553735Y-53545614D02*
X183093735Y-53545614D01*
X176553735Y-53875614D02*
X176553735Y-53545614D01*
X176553735Y-55955614D02*
X176553735Y-56285614D01*
X176553735Y-56285614D02*
X183093735Y-56285614D01*
X183093735Y-53545614D02*
X183093735Y-53875614D01*
X183093735Y-56285614D02*
X183093735Y-55955614D01*
%TO.C,U1*%
X144255424Y-109512770D02*
X144255424Y-91732770D01*
X187815424Y-88762770D02*
X189815424Y-88762770D01*
X192625424Y-89082770D02*
X146905424Y-89082770D01*
X192625424Y-112162770D02*
X146905424Y-112162770D01*
X195275424Y-109512770D02*
X195275424Y-91732770D01*
X144255424Y-91732770D02*
G75*
G02*
X146905424Y-89082770I2650000J0D01*
G01*
X146905424Y-112162770D02*
G75*
G02*
X144255424Y-109512770I0J2650000D01*
G01*
X192625424Y-89082770D02*
G75*
G02*
X195275424Y-91732770I0J-2650000D01*
G01*
X195275424Y-109512770D02*
G75*
G02*
X192625424Y-112162770I-2650000J0D01*
G01*
%TO.C,R20*%
X179262460Y-80808683D02*
X179592460Y-80808683D01*
X179262460Y-87348683D02*
X179262460Y-80808683D01*
X179592460Y-87348683D02*
X179262460Y-87348683D01*
X181672460Y-87348683D02*
X182002460Y-87348683D01*
X182002460Y-80808683D02*
X181672460Y-80808683D01*
X182002460Y-87348683D02*
X182002460Y-80808683D01*
%TO.C,R11*%
X146260473Y-66128900D02*
X146260473Y-66458900D01*
X146260473Y-68868900D02*
X146260473Y-68538900D01*
X152800473Y-66128900D02*
X146260473Y-66128900D01*
X152800473Y-66458900D02*
X152800473Y-66128900D01*
X152800473Y-68538900D02*
X152800473Y-68868900D01*
X152800473Y-68868900D02*
X146260473Y-68868900D01*
%TO.C,C21*%
X192880000Y-85630000D02*
X202120000Y-85630000D01*
X192880000Y-88370000D02*
X192880000Y-85630000D01*
X202120000Y-85630000D02*
X202120000Y-88370000D01*
X202120000Y-88370000D02*
X192880000Y-88370000D01*
%TO.C,C4*%
X154843735Y-49884726D02*
X164083735Y-49884726D01*
X154843735Y-52624726D02*
X154843735Y-49884726D01*
X164083735Y-49884726D02*
X164083735Y-52624726D01*
X164083735Y-52624726D02*
X154843735Y-52624726D01*
%TO.C,R3*%
X186279117Y-53539215D02*
X192819117Y-53539215D01*
X186279117Y-53869215D02*
X186279117Y-53539215D01*
X186279117Y-55949215D02*
X186279117Y-56279215D01*
X186279117Y-56279215D02*
X192819117Y-56279215D01*
X192819117Y-53539215D02*
X192819117Y-53869215D01*
X192819117Y-56279215D02*
X192819117Y-55949215D01*
%TO.C,J7*%
X139550144Y-66533197D02*
X139550144Y-74653197D01*
X139550144Y-74653197D02*
X144270144Y-74653197D01*
X140160144Y-67143197D02*
X140160144Y-74043197D01*
X140160144Y-69493197D02*
X140660144Y-69493197D01*
X140160144Y-69593197D02*
X140660144Y-69593197D01*
X140160144Y-71493197D02*
X140660144Y-71493197D01*
X140160144Y-71593197D02*
X140660144Y-71593197D01*
X140160144Y-74043197D02*
X143660144Y-74043197D01*
X140660144Y-69493197D02*
X140660144Y-69693197D01*
X140660144Y-69693197D02*
X140160144Y-69693197D01*
X140660144Y-71493197D02*
X140660144Y-71693197D01*
X140660144Y-71693197D02*
X140160144Y-71693197D01*
X141660144Y-66533197D02*
X141660144Y-67143197D01*
X141660144Y-74653197D02*
X141660144Y-74043197D01*
X142960144Y-66533197D02*
X142960144Y-67143197D01*
X142960144Y-74653197D02*
X142960144Y-74043197D01*
X143660144Y-67143197D02*
X140160144Y-67143197D01*
X143660144Y-69093197D02*
X143660144Y-67143197D01*
X143660144Y-72093197D02*
X144270144Y-72093197D01*
X143660144Y-74043197D02*
X143660144Y-72093197D01*
X144270144Y-66533197D02*
X139550144Y-66533197D01*
X144270144Y-68293197D02*
X144470144Y-68293197D01*
X144270144Y-69093197D02*
X143660144Y-69093197D01*
X144270144Y-74653197D02*
X144270144Y-66533197D01*
X144370144Y-68293197D02*
X144370144Y-67993197D01*
X144470144Y-67993197D02*
X144270144Y-67993197D01*
X144470144Y-68293197D02*
X144470144Y-67993197D01*
X144570144Y-66233197D02*
X143320144Y-66233197D01*
X144570144Y-67483197D02*
X144570144Y-66233197D01*
%TO.C,R1*%
X186279117Y-56789215D02*
X192819117Y-56789215D01*
X186279117Y-57119215D02*
X186279117Y-56789215D01*
X186279117Y-59199215D02*
X186279117Y-59529215D01*
X186279117Y-59529215D02*
X192819117Y-59529215D01*
X192819117Y-56789215D02*
X192819117Y-57119215D01*
X192819117Y-59529215D02*
X192819117Y-59199215D01*
%TO.C,R2*%
X186279117Y-49864215D02*
X186279117Y-50194215D01*
X186279117Y-52604215D02*
X186279117Y-52274215D01*
X192819117Y-49864215D02*
X186279117Y-49864215D01*
X192819117Y-50194215D02*
X192819117Y-49864215D01*
X192819117Y-52274215D02*
X192819117Y-52604215D01*
X192819117Y-52604215D02*
X186279117Y-52604215D01*
%TO.C,R5*%
X173012460Y-80808683D02*
X173342460Y-80808683D01*
X173012460Y-87348683D02*
X173012460Y-80808683D01*
X173342460Y-87348683D02*
X173012460Y-87348683D01*
X175422460Y-87348683D02*
X175752460Y-87348683D01*
X175752460Y-80808683D02*
X175422460Y-80808683D01*
X175752460Y-87348683D02*
X175752460Y-80808683D01*
%TD*%
M02*
