M48
; DRILL file {KiCad 9.0.5} date 2025-12-09T08:08:33+0800
; FORMAT={-:-/ absolute / metric / decimal}
; #@! TF.CreationDate,2025-12-09T08:08:33+08:00
; #@! TF.GenerationSoftware,Kicad,Pcbnew,9.0.5
; #@! TF.FileFunction,Plated,1,2,PTH
FMAT,2
METRIC
; #@! TA.AperFunction,Plated,PTH,ViaDrill
T1C0.300
; #@! TA.AperFunction,Plated,PTH,ComponentDrill
T2C0.300
; #@! TA.AperFunction,Plated,PTH,ComponentDrill
T3C0.700
; #@! TA.AperFunction,Plated,PTH,ComponentDrill
T4C0.750
; #@! TA.AperFunction,Plated,PTH,ComponentDrill
T5C0.800
; #@! TA.AperFunction,Plated,PTH,ComponentDrill
T6C0.950
; #@! TA.AperFunction,Plated,PTH,ComponentDrill
T7C1.000
; #@! TA.AperFunction,Plated,PTH,ComponentDrill
T8C1.100
%
G90
G05
T1
X138.65Y-81.6
X142.1Y-124.35
X149.3Y-124.4
X156.4Y-100.7
X157.15Y-76.3
X157.15Y-78.35
X157.5Y-88.2
X168.65Y-124.55
X172.85Y-100.7
X177.5Y-124.6
X181.2Y-93.8
X181.95Y-120.65
X197.0Y-89.0
X198.05Y-122.35
X201.2Y-95.15
T2
X158.7Y-77.1
X159.9Y-77.1
X195.0Y-85.0
X196.2Y-85.0
T3
X195.364Y-62.555
X198.514Y-62.555
X199.25Y-91.25
X199.3Y-95.25
T4
X141.369Y-52.245
X141.369Y-54.245
X141.369Y-56.245
X142.1Y-115.5
X142.1Y-117.5
X142.1Y-119.5
X142.1Y-121.5
X142.46Y-68.593
X142.46Y-70.593
X142.46Y-72.593
X149.2Y-117.6
X149.2Y-119.6
X149.2Y-121.6
X151.35Y-79.95
X151.35Y-81.95
X174.85Y-121.75
X176.85Y-121.75
X196.605Y-52.19
X196.605Y-54.19
X196.605Y-56.19
X197.697Y-68.593
X197.697Y-70.593
X197.697Y-72.593
T5
X145.719Y-73.543
X145.72Y-67.499
X145.72Y-70.499
X145.781Y-51.268
X145.781Y-54.693
X145.781Y-57.693
X153.339Y-73.543
X153.34Y-67.499
X153.34Y-70.499
X153.401Y-51.268
X153.401Y-54.693
X153.401Y-57.693
X155.544Y-54.68
X155.624Y-70.552
X156.964Y-51.255
X156.964Y-57.93
X156.964Y-61.18
X157.039Y-73.543
X157.044Y-67.302
X161.882Y-81.689
X161.882Y-86.689
X161.964Y-51.255
X161.964Y-57.93
X161.964Y-61.18
X162.039Y-73.543
X162.044Y-67.302
X163.164Y-54.68
X163.244Y-70.552
X164.982Y-80.269
X164.982Y-87.889
X165.835Y-65.903
X165.835Y-68.443
X165.835Y-70.983
X165.835Y-73.523
X165.844Y-51.35
X165.844Y-53.89
X165.844Y-56.43
X165.844Y-58.97
X168.182Y-80.269
X168.182Y-87.889
X171.282Y-81.689
X171.282Y-86.689
X173.455Y-65.903
X173.455Y-68.443
X173.455Y-70.983
X173.455Y-73.523
X173.464Y-51.35
X173.464Y-53.89
X173.464Y-56.43
X173.464Y-58.97
X174.382Y-80.269
X174.382Y-87.889
X176.01Y-70.559
X176.014Y-54.916
X177.21Y-64.289
X177.21Y-67.559
X177.214Y-51.255
X177.214Y-57.995
X177.402Y-73.633
X177.582Y-81.689
X177.582Y-86.689
X180.59Y-115.2
X180.632Y-80.269
X180.632Y-87.889
X181.9Y-118.4
X182.21Y-64.289
X182.21Y-67.559
X182.214Y-51.255
X182.214Y-57.995
X182.402Y-73.633
X183.63Y-70.559
X183.634Y-54.916
X183.832Y-81.689
X183.832Y-86.689
X185.704Y-73.605
X185.72Y-70.602
X185.727Y-67.568
X185.739Y-51.234
X185.739Y-54.909
X185.739Y-58.159
X186.9Y-118.4
X188.21Y-115.2
X190.0Y-81.5
X190.0Y-86.5
X193.324Y-73.605
X193.34Y-70.602
X193.347Y-67.568
X193.359Y-51.234
X193.359Y-54.909
X193.359Y-58.159
X195.0Y-87.0
X200.0Y-87.0
T6
X156.1Y-121.25
X158.6Y-121.25
X161.1Y-121.25
X163.6Y-121.25
X166.1Y-121.25
X168.6Y-121.25
T7
X141.023Y-79.178
X141.023Y-81.718
X141.023Y-84.258
X141.023Y-86.798
X150.715Y-90.463
X150.715Y-110.783
X153.255Y-90.463
X153.255Y-110.783
X155.795Y-90.463
X155.795Y-110.783
X158.335Y-90.463
X158.335Y-110.783
X160.875Y-90.463
X160.875Y-110.783
X163.415Y-90.463
X163.415Y-110.783
X165.955Y-90.463
X165.955Y-110.783
X168.495Y-90.463
X168.495Y-110.783
X171.035Y-90.463
X171.035Y-110.783
X173.575Y-90.463
X173.575Y-110.783
X176.115Y-90.463
X176.115Y-110.783
X178.655Y-90.463
X178.655Y-110.783
X181.195Y-90.463
X183.735Y-90.463
X186.275Y-90.463
X188.815Y-90.463
X195.85Y-114.45
X195.85Y-122.05
T8
X194.415Y-80.993
X196.955Y-80.993
X199.495Y-80.993
M30
