%TF.GenerationSoftware,KiCad,Pcbnew,9.0.5*%
%TF.CreationDate,2026-03-04T16:08:23+11:00*%
%TF.ProjectId,BODAQS shield Proto E,424f4441-5153-4207-9368-69656c642050,rev?*%
%TF.SameCoordinates,Original*%
%TF.FileFunction,Legend,Top*%
%TF.FilePolarity,Positive*%
%FSLAX46Y46*%
G04 Gerber Fmt 4.6, Leading zero omitted, Abs format (unit mm)*
G04 Created by KiCad (PCBNEW 9.0.5) date 2026-03-04 16:08:23*
%MOMM*%
%LPD*%
G01*
G04 APERTURE LIST*
%ADD10C,0.300000*%
%ADD11C,0.150000*%
%ADD12C,0.120000*%
G04 APERTURE END LIST*
D10*
X153333082Y-101129400D02*
X153547368Y-101200828D01*
X153547368Y-101200828D02*
X153904510Y-101200828D01*
X153904510Y-101200828D02*
X154047368Y-101129400D01*
X154047368Y-101129400D02*
X154118796Y-101057971D01*
X154118796Y-101057971D02*
X154190225Y-100915114D01*
X154190225Y-100915114D02*
X154190225Y-100772257D01*
X154190225Y-100772257D02*
X154118796Y-100629400D01*
X154118796Y-100629400D02*
X154047368Y-100557971D01*
X154047368Y-100557971D02*
X153904510Y-100486542D01*
X153904510Y-100486542D02*
X153618796Y-100415114D01*
X153618796Y-100415114D02*
X153475939Y-100343685D01*
X153475939Y-100343685D02*
X153404510Y-100272257D01*
X153404510Y-100272257D02*
X153333082Y-100129400D01*
X153333082Y-100129400D02*
X153333082Y-99986542D01*
X153333082Y-99986542D02*
X153404510Y-99843685D01*
X153404510Y-99843685D02*
X153475939Y-99772257D01*
X153475939Y-99772257D02*
X153618796Y-99700828D01*
X153618796Y-99700828D02*
X153975939Y-99700828D01*
X153975939Y-99700828D02*
X154190225Y-99772257D01*
X154833081Y-100200828D02*
X154833081Y-101700828D01*
X154833081Y-100272257D02*
X154975939Y-100200828D01*
X154975939Y-100200828D02*
X155261653Y-100200828D01*
X155261653Y-100200828D02*
X155404510Y-100272257D01*
X155404510Y-100272257D02*
X155475939Y-100343685D01*
X155475939Y-100343685D02*
X155547367Y-100486542D01*
X155547367Y-100486542D02*
X155547367Y-100915114D01*
X155547367Y-100915114D02*
X155475939Y-101057971D01*
X155475939Y-101057971D02*
X155404510Y-101129400D01*
X155404510Y-101129400D02*
X155261653Y-101200828D01*
X155261653Y-101200828D02*
X154975939Y-101200828D01*
X154975939Y-101200828D02*
X154833081Y-101129400D01*
X156833082Y-101200828D02*
X156833082Y-100415114D01*
X156833082Y-100415114D02*
X156761653Y-100272257D01*
X156761653Y-100272257D02*
X156618796Y-100200828D01*
X156618796Y-100200828D02*
X156333082Y-100200828D01*
X156333082Y-100200828D02*
X156190224Y-100272257D01*
X156833082Y-101129400D02*
X156690224Y-101200828D01*
X156690224Y-101200828D02*
X156333082Y-101200828D01*
X156333082Y-101200828D02*
X156190224Y-101129400D01*
X156190224Y-101129400D02*
X156118796Y-100986542D01*
X156118796Y-100986542D02*
X156118796Y-100843685D01*
X156118796Y-100843685D02*
X156190224Y-100700828D01*
X156190224Y-100700828D02*
X156333082Y-100629400D01*
X156333082Y-100629400D02*
X156690224Y-100629400D01*
X156690224Y-100629400D02*
X156833082Y-100557971D01*
X157547367Y-101200828D02*
X157547367Y-100200828D01*
X157547367Y-100486542D02*
X157618796Y-100343685D01*
X157618796Y-100343685D02*
X157690225Y-100272257D01*
X157690225Y-100272257D02*
X157833082Y-100200828D01*
X157833082Y-100200828D02*
X157975939Y-100200828D01*
X158475938Y-101200828D02*
X158475938Y-99700828D01*
X158618796Y-100629400D02*
X159047367Y-101200828D01*
X159047367Y-100200828D02*
X158475938Y-100772257D01*
X159475939Y-100200828D02*
X160047367Y-100200828D01*
X159690224Y-101200828D02*
X159690224Y-99915114D01*
X159690224Y-99915114D02*
X159761653Y-99772257D01*
X159761653Y-99772257D02*
X159904510Y-99700828D01*
X159904510Y-99700828D02*
X160047367Y-99700828D01*
X161190225Y-100200828D02*
X161190225Y-101200828D01*
X160547367Y-100200828D02*
X160547367Y-100986542D01*
X160547367Y-100986542D02*
X160618796Y-101129400D01*
X160618796Y-101129400D02*
X160761653Y-101200828D01*
X160761653Y-101200828D02*
X160975939Y-101200828D01*
X160975939Y-101200828D02*
X161118796Y-101129400D01*
X161118796Y-101129400D02*
X161190225Y-101057971D01*
X161904510Y-100200828D02*
X161904510Y-101200828D01*
X161904510Y-100343685D02*
X161975939Y-100272257D01*
X161975939Y-100272257D02*
X162118796Y-100200828D01*
X162118796Y-100200828D02*
X162333082Y-100200828D01*
X162333082Y-100200828D02*
X162475939Y-100272257D01*
X162475939Y-100272257D02*
X162547368Y-100415114D01*
X162547368Y-100415114D02*
X162547368Y-101200828D01*
X164404510Y-100415114D02*
X164904510Y-100415114D01*
X165118796Y-101200828D02*
X164404510Y-101200828D01*
X164404510Y-101200828D02*
X164404510Y-99700828D01*
X164404510Y-99700828D02*
X165118796Y-99700828D01*
X165690225Y-101129400D02*
X165904511Y-101200828D01*
X165904511Y-101200828D02*
X166261653Y-101200828D01*
X166261653Y-101200828D02*
X166404511Y-101129400D01*
X166404511Y-101129400D02*
X166475939Y-101057971D01*
X166475939Y-101057971D02*
X166547368Y-100915114D01*
X166547368Y-100915114D02*
X166547368Y-100772257D01*
X166547368Y-100772257D02*
X166475939Y-100629400D01*
X166475939Y-100629400D02*
X166404511Y-100557971D01*
X166404511Y-100557971D02*
X166261653Y-100486542D01*
X166261653Y-100486542D02*
X165975939Y-100415114D01*
X165975939Y-100415114D02*
X165833082Y-100343685D01*
X165833082Y-100343685D02*
X165761653Y-100272257D01*
X165761653Y-100272257D02*
X165690225Y-100129400D01*
X165690225Y-100129400D02*
X165690225Y-99986542D01*
X165690225Y-99986542D02*
X165761653Y-99843685D01*
X165761653Y-99843685D02*
X165833082Y-99772257D01*
X165833082Y-99772257D02*
X165975939Y-99700828D01*
X165975939Y-99700828D02*
X166333082Y-99700828D01*
X166333082Y-99700828D02*
X166547368Y-99772257D01*
X167190224Y-101200828D02*
X167190224Y-99700828D01*
X167190224Y-99700828D02*
X167761653Y-99700828D01*
X167761653Y-99700828D02*
X167904510Y-99772257D01*
X167904510Y-99772257D02*
X167975939Y-99843685D01*
X167975939Y-99843685D02*
X168047367Y-99986542D01*
X168047367Y-99986542D02*
X168047367Y-100200828D01*
X168047367Y-100200828D02*
X167975939Y-100343685D01*
X167975939Y-100343685D02*
X167904510Y-100415114D01*
X167904510Y-100415114D02*
X167761653Y-100486542D01*
X167761653Y-100486542D02*
X167190224Y-100486542D01*
X168547367Y-99700828D02*
X169475939Y-99700828D01*
X169475939Y-99700828D02*
X168975939Y-100272257D01*
X168975939Y-100272257D02*
X169190224Y-100272257D01*
X169190224Y-100272257D02*
X169333082Y-100343685D01*
X169333082Y-100343685D02*
X169404510Y-100415114D01*
X169404510Y-100415114D02*
X169475939Y-100557971D01*
X169475939Y-100557971D02*
X169475939Y-100915114D01*
X169475939Y-100915114D02*
X169404510Y-101057971D01*
X169404510Y-101057971D02*
X169333082Y-101129400D01*
X169333082Y-101129400D02*
X169190224Y-101200828D01*
X169190224Y-101200828D02*
X168761653Y-101200828D01*
X168761653Y-101200828D02*
X168618796Y-101129400D01*
X168618796Y-101129400D02*
X168547367Y-101057971D01*
X170047367Y-99843685D02*
X170118795Y-99772257D01*
X170118795Y-99772257D02*
X170261653Y-99700828D01*
X170261653Y-99700828D02*
X170618795Y-99700828D01*
X170618795Y-99700828D02*
X170761653Y-99772257D01*
X170761653Y-99772257D02*
X170833081Y-99843685D01*
X170833081Y-99843685D02*
X170904510Y-99986542D01*
X170904510Y-99986542D02*
X170904510Y-100129400D01*
X170904510Y-100129400D02*
X170833081Y-100343685D01*
X170833081Y-100343685D02*
X169975938Y-101200828D01*
X169975938Y-101200828D02*
X170904510Y-101200828D01*
X172475938Y-99700828D02*
X173333081Y-99700828D01*
X172904509Y-101200828D02*
X172904509Y-99700828D01*
X173833080Y-101200828D02*
X173833080Y-99700828D01*
X174475938Y-101200828D02*
X174475938Y-100415114D01*
X174475938Y-100415114D02*
X174404509Y-100272257D01*
X174404509Y-100272257D02*
X174261652Y-100200828D01*
X174261652Y-100200828D02*
X174047366Y-100200828D01*
X174047366Y-100200828D02*
X173904509Y-100272257D01*
X173904509Y-100272257D02*
X173833080Y-100343685D01*
X175190223Y-101200828D02*
X175190223Y-100200828D01*
X175190223Y-99700828D02*
X175118795Y-99772257D01*
X175118795Y-99772257D02*
X175190223Y-99843685D01*
X175190223Y-99843685D02*
X175261652Y-99772257D01*
X175261652Y-99772257D02*
X175190223Y-99700828D01*
X175190223Y-99700828D02*
X175190223Y-99843685D01*
X175904509Y-100200828D02*
X175904509Y-101200828D01*
X175904509Y-100343685D02*
X175975938Y-100272257D01*
X175975938Y-100272257D02*
X176118795Y-100200828D01*
X176118795Y-100200828D02*
X176333081Y-100200828D01*
X176333081Y-100200828D02*
X176475938Y-100272257D01*
X176475938Y-100272257D02*
X176547367Y-100415114D01*
X176547367Y-100415114D02*
X176547367Y-101200828D01*
X177904510Y-100200828D02*
X177904510Y-101415114D01*
X177904510Y-101415114D02*
X177833081Y-101557971D01*
X177833081Y-101557971D02*
X177761652Y-101629400D01*
X177761652Y-101629400D02*
X177618795Y-101700828D01*
X177618795Y-101700828D02*
X177404510Y-101700828D01*
X177404510Y-101700828D02*
X177261652Y-101629400D01*
X177904510Y-101129400D02*
X177761652Y-101200828D01*
X177761652Y-101200828D02*
X177475938Y-101200828D01*
X177475938Y-101200828D02*
X177333081Y-101129400D01*
X177333081Y-101129400D02*
X177261652Y-101057971D01*
X177261652Y-101057971D02*
X177190224Y-100915114D01*
X177190224Y-100915114D02*
X177190224Y-100486542D01*
X177190224Y-100486542D02*
X177261652Y-100343685D01*
X177261652Y-100343685D02*
X177333081Y-100272257D01*
X177333081Y-100272257D02*
X177475938Y-100200828D01*
X177475938Y-100200828D02*
X177761652Y-100200828D01*
X177761652Y-100200828D02*
X177904510Y-100272257D01*
X179761652Y-101200828D02*
X179761652Y-99700828D01*
X179761652Y-99700828D02*
X180333081Y-99700828D01*
X180333081Y-99700828D02*
X180475938Y-99772257D01*
X180475938Y-99772257D02*
X180547367Y-99843685D01*
X180547367Y-99843685D02*
X180618795Y-99986542D01*
X180618795Y-99986542D02*
X180618795Y-100200828D01*
X180618795Y-100200828D02*
X180547367Y-100343685D01*
X180547367Y-100343685D02*
X180475938Y-100415114D01*
X180475938Y-100415114D02*
X180333081Y-100486542D01*
X180333081Y-100486542D02*
X179761652Y-100486542D01*
X181475938Y-101200828D02*
X181333081Y-101129400D01*
X181333081Y-101129400D02*
X181261652Y-100986542D01*
X181261652Y-100986542D02*
X181261652Y-99700828D01*
X182690224Y-100200828D02*
X182690224Y-101200828D01*
X182047366Y-100200828D02*
X182047366Y-100986542D01*
X182047366Y-100986542D02*
X182118795Y-101129400D01*
X182118795Y-101129400D02*
X182261652Y-101200828D01*
X182261652Y-101200828D02*
X182475938Y-101200828D01*
X182475938Y-101200828D02*
X182618795Y-101129400D01*
X182618795Y-101129400D02*
X182690224Y-101057971D01*
X183333081Y-101129400D02*
X183475938Y-101200828D01*
X183475938Y-101200828D02*
X183761652Y-101200828D01*
X183761652Y-101200828D02*
X183904509Y-101129400D01*
X183904509Y-101129400D02*
X183975938Y-100986542D01*
X183975938Y-100986542D02*
X183975938Y-100915114D01*
X183975938Y-100915114D02*
X183904509Y-100772257D01*
X183904509Y-100772257D02*
X183761652Y-100700828D01*
X183761652Y-100700828D02*
X183547367Y-100700828D01*
X183547367Y-100700828D02*
X183404509Y-100629400D01*
X183404509Y-100629400D02*
X183333081Y-100486542D01*
X183333081Y-100486542D02*
X183333081Y-100415114D01*
X183333081Y-100415114D02*
X183404509Y-100272257D01*
X183404509Y-100272257D02*
X183547367Y-100200828D01*
X183547367Y-100200828D02*
X183761652Y-100200828D01*
X183761652Y-100200828D02*
X183904509Y-100272257D01*
X185690224Y-101129400D02*
X185904510Y-101200828D01*
X185904510Y-101200828D02*
X186261652Y-101200828D01*
X186261652Y-101200828D02*
X186404510Y-101129400D01*
X186404510Y-101129400D02*
X186475938Y-101057971D01*
X186475938Y-101057971D02*
X186547367Y-100915114D01*
X186547367Y-100915114D02*
X186547367Y-100772257D01*
X186547367Y-100772257D02*
X186475938Y-100629400D01*
X186475938Y-100629400D02*
X186404510Y-100557971D01*
X186404510Y-100557971D02*
X186261652Y-100486542D01*
X186261652Y-100486542D02*
X185975938Y-100415114D01*
X185975938Y-100415114D02*
X185833081Y-100343685D01*
X185833081Y-100343685D02*
X185761652Y-100272257D01*
X185761652Y-100272257D02*
X185690224Y-100129400D01*
X185690224Y-100129400D02*
X185690224Y-99986542D01*
X185690224Y-99986542D02*
X185761652Y-99843685D01*
X185761652Y-99843685D02*
X185833081Y-99772257D01*
X185833081Y-99772257D02*
X185975938Y-99700828D01*
X185975938Y-99700828D02*
X186333081Y-99700828D01*
X186333081Y-99700828D02*
X186547367Y-99772257D01*
X187047366Y-99700828D02*
X187975938Y-99700828D01*
X187975938Y-99700828D02*
X187475938Y-100272257D01*
X187475938Y-100272257D02*
X187690223Y-100272257D01*
X187690223Y-100272257D02*
X187833081Y-100343685D01*
X187833081Y-100343685D02*
X187904509Y-100415114D01*
X187904509Y-100415114D02*
X187975938Y-100557971D01*
X187975938Y-100557971D02*
X187975938Y-100915114D01*
X187975938Y-100915114D02*
X187904509Y-101057971D01*
X187904509Y-101057971D02*
X187833081Y-101129400D01*
X187833081Y-101129400D02*
X187690223Y-101200828D01*
X187690223Y-101200828D02*
X187261652Y-101200828D01*
X187261652Y-101200828D02*
X187118795Y-101129400D01*
X187118795Y-101129400D02*
X187047366Y-101057971D01*
X162676098Y-77693866D02*
X162890384Y-77765294D01*
X162890384Y-77765294D02*
X162961813Y-77836723D01*
X162961813Y-77836723D02*
X163033241Y-77979580D01*
X163033241Y-77979580D02*
X163033241Y-78193866D01*
X163033241Y-78193866D02*
X162961813Y-78336723D01*
X162961813Y-78336723D02*
X162890384Y-78408152D01*
X162890384Y-78408152D02*
X162747527Y-78479580D01*
X162747527Y-78479580D02*
X162176098Y-78479580D01*
X162176098Y-78479580D02*
X162176098Y-76979580D01*
X162176098Y-76979580D02*
X162676098Y-76979580D01*
X162676098Y-76979580D02*
X162818956Y-77051009D01*
X162818956Y-77051009D02*
X162890384Y-77122437D01*
X162890384Y-77122437D02*
X162961813Y-77265294D01*
X162961813Y-77265294D02*
X162961813Y-77408152D01*
X162961813Y-77408152D02*
X162890384Y-77551009D01*
X162890384Y-77551009D02*
X162818956Y-77622437D01*
X162818956Y-77622437D02*
X162676098Y-77693866D01*
X162676098Y-77693866D02*
X162176098Y-77693866D01*
X163961813Y-76979580D02*
X164247527Y-76979580D01*
X164247527Y-76979580D02*
X164390384Y-77051009D01*
X164390384Y-77051009D02*
X164533241Y-77193866D01*
X164533241Y-77193866D02*
X164604670Y-77479580D01*
X164604670Y-77479580D02*
X164604670Y-77979580D01*
X164604670Y-77979580D02*
X164533241Y-78265294D01*
X164533241Y-78265294D02*
X164390384Y-78408152D01*
X164390384Y-78408152D02*
X164247527Y-78479580D01*
X164247527Y-78479580D02*
X163961813Y-78479580D01*
X163961813Y-78479580D02*
X163818956Y-78408152D01*
X163818956Y-78408152D02*
X163676098Y-78265294D01*
X163676098Y-78265294D02*
X163604670Y-77979580D01*
X163604670Y-77979580D02*
X163604670Y-77479580D01*
X163604670Y-77479580D02*
X163676098Y-77193866D01*
X163676098Y-77193866D02*
X163818956Y-77051009D01*
X163818956Y-77051009D02*
X163961813Y-76979580D01*
X165247527Y-78479580D02*
X165247527Y-76979580D01*
X165247527Y-76979580D02*
X165604670Y-76979580D01*
X165604670Y-76979580D02*
X165818956Y-77051009D01*
X165818956Y-77051009D02*
X165961813Y-77193866D01*
X165961813Y-77193866D02*
X166033242Y-77336723D01*
X166033242Y-77336723D02*
X166104670Y-77622437D01*
X166104670Y-77622437D02*
X166104670Y-77836723D01*
X166104670Y-77836723D02*
X166033242Y-78122437D01*
X166033242Y-78122437D02*
X165961813Y-78265294D01*
X165961813Y-78265294D02*
X165818956Y-78408152D01*
X165818956Y-78408152D02*
X165604670Y-78479580D01*
X165604670Y-78479580D02*
X165247527Y-78479580D01*
X166676099Y-78051009D02*
X167390385Y-78051009D01*
X166533242Y-78479580D02*
X167033242Y-76979580D01*
X167033242Y-76979580D02*
X167533242Y-78479580D01*
X169033241Y-78622437D02*
X168890384Y-78551009D01*
X168890384Y-78551009D02*
X168747527Y-78408152D01*
X168747527Y-78408152D02*
X168533241Y-78193866D01*
X168533241Y-78193866D02*
X168390384Y-78122437D01*
X168390384Y-78122437D02*
X168247527Y-78122437D01*
X168318956Y-78479580D02*
X168176099Y-78408152D01*
X168176099Y-78408152D02*
X168033241Y-78265294D01*
X168033241Y-78265294D02*
X167961813Y-77979580D01*
X167961813Y-77979580D02*
X167961813Y-77479580D01*
X167961813Y-77479580D02*
X168033241Y-77193866D01*
X168033241Y-77193866D02*
X168176099Y-77051009D01*
X168176099Y-77051009D02*
X168318956Y-76979580D01*
X168318956Y-76979580D02*
X168604670Y-76979580D01*
X168604670Y-76979580D02*
X168747527Y-77051009D01*
X168747527Y-77051009D02*
X168890384Y-77193866D01*
X168890384Y-77193866D02*
X168961813Y-77479580D01*
X168961813Y-77479580D02*
X168961813Y-77979580D01*
X168961813Y-77979580D02*
X168890384Y-78265294D01*
X168890384Y-78265294D02*
X168747527Y-78408152D01*
X168747527Y-78408152D02*
X168604670Y-78479580D01*
X168604670Y-78479580D02*
X168318956Y-78479580D01*
X169533242Y-78408152D02*
X169747528Y-78479580D01*
X169747528Y-78479580D02*
X170104670Y-78479580D01*
X170104670Y-78479580D02*
X170247528Y-78408152D01*
X170247528Y-78408152D02*
X170318956Y-78336723D01*
X170318956Y-78336723D02*
X170390385Y-78193866D01*
X170390385Y-78193866D02*
X170390385Y-78051009D01*
X170390385Y-78051009D02*
X170318956Y-77908152D01*
X170318956Y-77908152D02*
X170247528Y-77836723D01*
X170247528Y-77836723D02*
X170104670Y-77765294D01*
X170104670Y-77765294D02*
X169818956Y-77693866D01*
X169818956Y-77693866D02*
X169676099Y-77622437D01*
X169676099Y-77622437D02*
X169604670Y-77551009D01*
X169604670Y-77551009D02*
X169533242Y-77408152D01*
X169533242Y-77408152D02*
X169533242Y-77265294D01*
X169533242Y-77265294D02*
X169604670Y-77122437D01*
X169604670Y-77122437D02*
X169676099Y-77051009D01*
X169676099Y-77051009D02*
X169818956Y-76979580D01*
X169818956Y-76979580D02*
X170176099Y-76979580D01*
X170176099Y-76979580D02*
X170390385Y-77051009D01*
X172818956Y-77479580D02*
X172818956Y-78479580D01*
X172461813Y-76908152D02*
X172104670Y-77979580D01*
X172104670Y-77979580D02*
X173033241Y-77979580D01*
X174747526Y-78479580D02*
X174747526Y-76979580D01*
X174747526Y-76979580D02*
X175318955Y-76979580D01*
X175318955Y-76979580D02*
X175461812Y-77051009D01*
X175461812Y-77051009D02*
X175533241Y-77122437D01*
X175533241Y-77122437D02*
X175604669Y-77265294D01*
X175604669Y-77265294D02*
X175604669Y-77479580D01*
X175604669Y-77479580D02*
X175533241Y-77622437D01*
X175533241Y-77622437D02*
X175461812Y-77693866D01*
X175461812Y-77693866D02*
X175318955Y-77765294D01*
X175318955Y-77765294D02*
X174747526Y-77765294D01*
X176247526Y-78479580D02*
X176247526Y-77479580D01*
X176247526Y-77765294D02*
X176318955Y-77622437D01*
X176318955Y-77622437D02*
X176390384Y-77551009D01*
X176390384Y-77551009D02*
X176533241Y-77479580D01*
X176533241Y-77479580D02*
X176676098Y-77479580D01*
X177390383Y-78479580D02*
X177247526Y-78408152D01*
X177247526Y-78408152D02*
X177176097Y-78336723D01*
X177176097Y-78336723D02*
X177104669Y-78193866D01*
X177104669Y-78193866D02*
X177104669Y-77765294D01*
X177104669Y-77765294D02*
X177176097Y-77622437D01*
X177176097Y-77622437D02*
X177247526Y-77551009D01*
X177247526Y-77551009D02*
X177390383Y-77479580D01*
X177390383Y-77479580D02*
X177604669Y-77479580D01*
X177604669Y-77479580D02*
X177747526Y-77551009D01*
X177747526Y-77551009D02*
X177818955Y-77622437D01*
X177818955Y-77622437D02*
X177890383Y-77765294D01*
X177890383Y-77765294D02*
X177890383Y-78193866D01*
X177890383Y-78193866D02*
X177818955Y-78336723D01*
X177818955Y-78336723D02*
X177747526Y-78408152D01*
X177747526Y-78408152D02*
X177604669Y-78479580D01*
X177604669Y-78479580D02*
X177390383Y-78479580D01*
X178318955Y-77479580D02*
X178890383Y-77479580D01*
X178533240Y-76979580D02*
X178533240Y-78265294D01*
X178533240Y-78265294D02*
X178604669Y-78408152D01*
X178604669Y-78408152D02*
X178747526Y-78479580D01*
X178747526Y-78479580D02*
X178890383Y-78479580D01*
X179604669Y-78479580D02*
X179461812Y-78408152D01*
X179461812Y-78408152D02*
X179390383Y-78336723D01*
X179390383Y-78336723D02*
X179318955Y-78193866D01*
X179318955Y-78193866D02*
X179318955Y-77765294D01*
X179318955Y-77765294D02*
X179390383Y-77622437D01*
X179390383Y-77622437D02*
X179461812Y-77551009D01*
X179461812Y-77551009D02*
X179604669Y-77479580D01*
X179604669Y-77479580D02*
X179818955Y-77479580D01*
X179818955Y-77479580D02*
X179961812Y-77551009D01*
X179961812Y-77551009D02*
X180033241Y-77622437D01*
X180033241Y-77622437D02*
X180104669Y-77765294D01*
X180104669Y-77765294D02*
X180104669Y-78193866D01*
X180104669Y-78193866D02*
X180033241Y-78336723D01*
X180033241Y-78336723D02*
X179961812Y-78408152D01*
X179961812Y-78408152D02*
X179818955Y-78479580D01*
X179818955Y-78479580D02*
X179604669Y-78479580D01*
X180533241Y-77479580D02*
X181104669Y-77479580D01*
X180747526Y-76979580D02*
X180747526Y-78265294D01*
X180747526Y-78265294D02*
X180818955Y-78408152D01*
X180818955Y-78408152D02*
X180961812Y-78479580D01*
X180961812Y-78479580D02*
X181104669Y-78479580D01*
X181461812Y-77479580D02*
X181818955Y-78479580D01*
X182176098Y-77479580D02*
X181818955Y-78479580D01*
X181818955Y-78479580D02*
X181676098Y-78836723D01*
X181676098Y-78836723D02*
X181604669Y-78908152D01*
X181604669Y-78908152D02*
X181461812Y-78979580D01*
X182747526Y-77479580D02*
X182747526Y-78979580D01*
X182747526Y-77551009D02*
X182890384Y-77479580D01*
X182890384Y-77479580D02*
X183176098Y-77479580D01*
X183176098Y-77479580D02*
X183318955Y-77551009D01*
X183318955Y-77551009D02*
X183390384Y-77622437D01*
X183390384Y-77622437D02*
X183461812Y-77765294D01*
X183461812Y-77765294D02*
X183461812Y-78193866D01*
X183461812Y-78193866D02*
X183390384Y-78336723D01*
X183390384Y-78336723D02*
X183318955Y-78408152D01*
X183318955Y-78408152D02*
X183176098Y-78479580D01*
X183176098Y-78479580D02*
X182890384Y-78479580D01*
X182890384Y-78479580D02*
X182747526Y-78408152D01*
X184676098Y-78408152D02*
X184533241Y-78479580D01*
X184533241Y-78479580D02*
X184247527Y-78479580D01*
X184247527Y-78479580D02*
X184104669Y-78408152D01*
X184104669Y-78408152D02*
X184033241Y-78265294D01*
X184033241Y-78265294D02*
X184033241Y-77693866D01*
X184033241Y-77693866D02*
X184104669Y-77551009D01*
X184104669Y-77551009D02*
X184247527Y-77479580D01*
X184247527Y-77479580D02*
X184533241Y-77479580D01*
X184533241Y-77479580D02*
X184676098Y-77551009D01*
X184676098Y-77551009D02*
X184747527Y-77693866D01*
X184747527Y-77693866D02*
X184747527Y-77836723D01*
X184747527Y-77836723D02*
X184033241Y-77979580D01*
X186533240Y-77693866D02*
X187033240Y-77693866D01*
X187247526Y-78479580D02*
X186533240Y-78479580D01*
X186533240Y-78479580D02*
X186533240Y-76979580D01*
X186533240Y-76979580D02*
X187247526Y-76979580D01*
D11*
X188887212Y-71057256D02*
X188553879Y-70581065D01*
X188315784Y-71057256D02*
X188315784Y-70057256D01*
X188315784Y-70057256D02*
X188696736Y-70057256D01*
X188696736Y-70057256D02*
X188791974Y-70104875D01*
X188791974Y-70104875D02*
X188839593Y-70152494D01*
X188839593Y-70152494D02*
X188887212Y-70247732D01*
X188887212Y-70247732D02*
X188887212Y-70390589D01*
X188887212Y-70390589D02*
X188839593Y-70485827D01*
X188839593Y-70485827D02*
X188791974Y-70533446D01*
X188791974Y-70533446D02*
X188696736Y-70581065D01*
X188696736Y-70581065D02*
X188315784Y-70581065D01*
X189839593Y-71057256D02*
X189268165Y-71057256D01*
X189553879Y-71057256D02*
X189553879Y-70057256D01*
X189553879Y-70057256D02*
X189458641Y-70200113D01*
X189458641Y-70200113D02*
X189363403Y-70295351D01*
X189363403Y-70295351D02*
X189268165Y-70342970D01*
X190411022Y-70485827D02*
X190315784Y-70438208D01*
X190315784Y-70438208D02*
X190268165Y-70390589D01*
X190268165Y-70390589D02*
X190220546Y-70295351D01*
X190220546Y-70295351D02*
X190220546Y-70247732D01*
X190220546Y-70247732D02*
X190268165Y-70152494D01*
X190268165Y-70152494D02*
X190315784Y-70104875D01*
X190315784Y-70104875D02*
X190411022Y-70057256D01*
X190411022Y-70057256D02*
X190601498Y-70057256D01*
X190601498Y-70057256D02*
X190696736Y-70104875D01*
X190696736Y-70104875D02*
X190744355Y-70152494D01*
X190744355Y-70152494D02*
X190791974Y-70247732D01*
X190791974Y-70247732D02*
X190791974Y-70295351D01*
X190791974Y-70295351D02*
X190744355Y-70390589D01*
X190744355Y-70390589D02*
X190696736Y-70438208D01*
X190696736Y-70438208D02*
X190601498Y-70485827D01*
X190601498Y-70485827D02*
X190411022Y-70485827D01*
X190411022Y-70485827D02*
X190315784Y-70533446D01*
X190315784Y-70533446D02*
X190268165Y-70581065D01*
X190268165Y-70581065D02*
X190220546Y-70676303D01*
X190220546Y-70676303D02*
X190220546Y-70866779D01*
X190220546Y-70866779D02*
X190268165Y-70962017D01*
X190268165Y-70962017D02*
X190315784Y-71009637D01*
X190315784Y-71009637D02*
X190411022Y-71057256D01*
X190411022Y-71057256D02*
X190601498Y-71057256D01*
X190601498Y-71057256D02*
X190696736Y-71009637D01*
X190696736Y-71009637D02*
X190744355Y-70962017D01*
X190744355Y-70962017D02*
X190791974Y-70866779D01*
X190791974Y-70866779D02*
X190791974Y-70676303D01*
X190791974Y-70676303D02*
X190744355Y-70581065D01*
X190744355Y-70581065D02*
X190696736Y-70533446D01*
X190696736Y-70533446D02*
X190601498Y-70485827D01*
X179259004Y-73992408D02*
X179211385Y-74040028D01*
X179211385Y-74040028D02*
X179068528Y-74087647D01*
X179068528Y-74087647D02*
X178973290Y-74087647D01*
X178973290Y-74087647D02*
X178830433Y-74040028D01*
X178830433Y-74040028D02*
X178735195Y-73944789D01*
X178735195Y-73944789D02*
X178687576Y-73849551D01*
X178687576Y-73849551D02*
X178639957Y-73659075D01*
X178639957Y-73659075D02*
X178639957Y-73516218D01*
X178639957Y-73516218D02*
X178687576Y-73325742D01*
X178687576Y-73325742D02*
X178735195Y-73230504D01*
X178735195Y-73230504D02*
X178830433Y-73135266D01*
X178830433Y-73135266D02*
X178973290Y-73087647D01*
X178973290Y-73087647D02*
X179068528Y-73087647D01*
X179068528Y-73087647D02*
X179211385Y-73135266D01*
X179211385Y-73135266D02*
X179259004Y-73182885D01*
X180211385Y-74087647D02*
X179639957Y-74087647D01*
X179925671Y-74087647D02*
X179925671Y-73087647D01*
X179925671Y-73087647D02*
X179830433Y-73230504D01*
X179830433Y-73230504D02*
X179735195Y-73325742D01*
X179735195Y-73325742D02*
X179639957Y-73373361D01*
X180830433Y-73087647D02*
X180925671Y-73087647D01*
X180925671Y-73087647D02*
X181020909Y-73135266D01*
X181020909Y-73135266D02*
X181068528Y-73182885D01*
X181068528Y-73182885D02*
X181116147Y-73278123D01*
X181116147Y-73278123D02*
X181163766Y-73468599D01*
X181163766Y-73468599D02*
X181163766Y-73706694D01*
X181163766Y-73706694D02*
X181116147Y-73897170D01*
X181116147Y-73897170D02*
X181068528Y-73992408D01*
X181068528Y-73992408D02*
X181020909Y-74040028D01*
X181020909Y-74040028D02*
X180925671Y-74087647D01*
X180925671Y-74087647D02*
X180830433Y-74087647D01*
X180830433Y-74087647D02*
X180735195Y-74040028D01*
X180735195Y-74040028D02*
X180687576Y-73992408D01*
X180687576Y-73992408D02*
X180639957Y-73897170D01*
X180639957Y-73897170D02*
X180592338Y-73706694D01*
X180592338Y-73706694D02*
X180592338Y-73468599D01*
X180592338Y-73468599D02*
X180639957Y-73278123D01*
X180639957Y-73278123D02*
X180687576Y-73182885D01*
X180687576Y-73182885D02*
X180735195Y-73135266D01*
X180735195Y-73135266D02*
X180830433Y-73087647D01*
X185804819Y-65911904D02*
X185804819Y-65340476D01*
X186804819Y-65626190D02*
X185804819Y-65626190D01*
X186804819Y-65007142D02*
X185804819Y-65007142D01*
X185804819Y-65007142D02*
X185804819Y-64626190D01*
X185804819Y-64626190D02*
X185852438Y-64530952D01*
X185852438Y-64530952D02*
X185900057Y-64483333D01*
X185900057Y-64483333D02*
X185995295Y-64435714D01*
X185995295Y-64435714D02*
X186138152Y-64435714D01*
X186138152Y-64435714D02*
X186233390Y-64483333D01*
X186233390Y-64483333D02*
X186281009Y-64530952D01*
X186281009Y-64530952D02*
X186328628Y-64626190D01*
X186328628Y-64626190D02*
X186328628Y-65007142D01*
X185804819Y-64102380D02*
X185804819Y-63483333D01*
X185804819Y-63483333D02*
X186185771Y-63816666D01*
X186185771Y-63816666D02*
X186185771Y-63673809D01*
X186185771Y-63673809D02*
X186233390Y-63578571D01*
X186233390Y-63578571D02*
X186281009Y-63530952D01*
X186281009Y-63530952D02*
X186376247Y-63483333D01*
X186376247Y-63483333D02*
X186614342Y-63483333D01*
X186614342Y-63483333D02*
X186709580Y-63530952D01*
X186709580Y-63530952D02*
X186757200Y-63578571D01*
X186757200Y-63578571D02*
X186804819Y-63673809D01*
X186804819Y-63673809D02*
X186804819Y-63959523D01*
X186804819Y-63959523D02*
X186757200Y-64054761D01*
X186757200Y-64054761D02*
X186709580Y-64102380D01*
X190359580Y-84642857D02*
X190407200Y-84690476D01*
X190407200Y-84690476D02*
X190454819Y-84833333D01*
X190454819Y-84833333D02*
X190454819Y-84928571D01*
X190454819Y-84928571D02*
X190407200Y-85071428D01*
X190407200Y-85071428D02*
X190311961Y-85166666D01*
X190311961Y-85166666D02*
X190216723Y-85214285D01*
X190216723Y-85214285D02*
X190026247Y-85261904D01*
X190026247Y-85261904D02*
X189883390Y-85261904D01*
X189883390Y-85261904D02*
X189692914Y-85214285D01*
X189692914Y-85214285D02*
X189597676Y-85166666D01*
X189597676Y-85166666D02*
X189502438Y-85071428D01*
X189502438Y-85071428D02*
X189454819Y-84928571D01*
X189454819Y-84928571D02*
X189454819Y-84833333D01*
X189454819Y-84833333D02*
X189502438Y-84690476D01*
X189502438Y-84690476D02*
X189550057Y-84642857D01*
X190454819Y-83690476D02*
X190454819Y-84261904D01*
X190454819Y-83976190D02*
X189454819Y-83976190D01*
X189454819Y-83976190D02*
X189597676Y-84071428D01*
X189597676Y-84071428D02*
X189692914Y-84166666D01*
X189692914Y-84166666D02*
X189740533Y-84261904D01*
X189454819Y-83357142D02*
X189454819Y-82690476D01*
X189454819Y-82690476D02*
X190454819Y-83119047D01*
X159372384Y-73902777D02*
X159324765Y-73950397D01*
X159324765Y-73950397D02*
X159181908Y-73998016D01*
X159181908Y-73998016D02*
X159086670Y-73998016D01*
X159086670Y-73998016D02*
X158943813Y-73950397D01*
X158943813Y-73950397D02*
X158848575Y-73855158D01*
X158848575Y-73855158D02*
X158800956Y-73759920D01*
X158800956Y-73759920D02*
X158753337Y-73569444D01*
X158753337Y-73569444D02*
X158753337Y-73426587D01*
X158753337Y-73426587D02*
X158800956Y-73236111D01*
X158800956Y-73236111D02*
X158848575Y-73140873D01*
X158848575Y-73140873D02*
X158943813Y-73045635D01*
X158943813Y-73045635D02*
X159086670Y-72998016D01*
X159086670Y-72998016D02*
X159181908Y-72998016D01*
X159181908Y-72998016D02*
X159324765Y-73045635D01*
X159324765Y-73045635D02*
X159372384Y-73093254D01*
X159705718Y-72998016D02*
X160372384Y-72998016D01*
X160372384Y-72998016D02*
X159943813Y-73998016D01*
X149531880Y-61116515D02*
X149198547Y-60640324D01*
X148960452Y-61116515D02*
X148960452Y-60116515D01*
X148960452Y-60116515D02*
X149341404Y-60116515D01*
X149341404Y-60116515D02*
X149436642Y-60164134D01*
X149436642Y-60164134D02*
X149484261Y-60211753D01*
X149484261Y-60211753D02*
X149531880Y-60306991D01*
X149531880Y-60306991D02*
X149531880Y-60449848D01*
X149531880Y-60449848D02*
X149484261Y-60545086D01*
X149484261Y-60545086D02*
X149436642Y-60592705D01*
X149436642Y-60592705D02*
X149341404Y-60640324D01*
X149341404Y-60640324D02*
X148960452Y-60640324D01*
X150389023Y-60116515D02*
X150198547Y-60116515D01*
X150198547Y-60116515D02*
X150103309Y-60164134D01*
X150103309Y-60164134D02*
X150055690Y-60211753D01*
X150055690Y-60211753D02*
X149960452Y-60354610D01*
X149960452Y-60354610D02*
X149912833Y-60545086D01*
X149912833Y-60545086D02*
X149912833Y-60926038D01*
X149912833Y-60926038D02*
X149960452Y-61021276D01*
X149960452Y-61021276D02*
X150008071Y-61068896D01*
X150008071Y-61068896D02*
X150103309Y-61116515D01*
X150103309Y-61116515D02*
X150293785Y-61116515D01*
X150293785Y-61116515D02*
X150389023Y-61068896D01*
X150389023Y-61068896D02*
X150436642Y-61021276D01*
X150436642Y-61021276D02*
X150484261Y-60926038D01*
X150484261Y-60926038D02*
X150484261Y-60687943D01*
X150484261Y-60687943D02*
X150436642Y-60592705D01*
X150436642Y-60592705D02*
X150389023Y-60545086D01*
X150389023Y-60545086D02*
X150293785Y-60497467D01*
X150293785Y-60497467D02*
X150103309Y-60497467D01*
X150103309Y-60497467D02*
X150008071Y-60545086D01*
X150008071Y-60545086D02*
X149960452Y-60592705D01*
X149960452Y-60592705D02*
X149912833Y-60687943D01*
X151254819Y-80011904D02*
X151254819Y-79440476D01*
X152254819Y-79726190D02*
X151254819Y-79726190D01*
X152254819Y-79107142D02*
X151254819Y-79107142D01*
X151254819Y-79107142D02*
X151254819Y-78726190D01*
X151254819Y-78726190D02*
X151302438Y-78630952D01*
X151302438Y-78630952D02*
X151350057Y-78583333D01*
X151350057Y-78583333D02*
X151445295Y-78535714D01*
X151445295Y-78535714D02*
X151588152Y-78535714D01*
X151588152Y-78535714D02*
X151683390Y-78583333D01*
X151683390Y-78583333D02*
X151731009Y-78630952D01*
X151731009Y-78630952D02*
X151778628Y-78726190D01*
X151778628Y-78726190D02*
X151778628Y-79107142D01*
X151350057Y-78154761D02*
X151302438Y-78107142D01*
X151302438Y-78107142D02*
X151254819Y-78011904D01*
X151254819Y-78011904D02*
X151254819Y-77773809D01*
X151254819Y-77773809D02*
X151302438Y-77678571D01*
X151302438Y-77678571D02*
X151350057Y-77630952D01*
X151350057Y-77630952D02*
X151445295Y-77583333D01*
X151445295Y-77583333D02*
X151540533Y-77583333D01*
X151540533Y-77583333D02*
X151683390Y-77630952D01*
X151683390Y-77630952D02*
X152254819Y-78202380D01*
X152254819Y-78202380D02*
X152254819Y-77583333D01*
X168637279Y-84831540D02*
X168161088Y-85164873D01*
X168637279Y-85402968D02*
X167637279Y-85402968D01*
X167637279Y-85402968D02*
X167637279Y-85022016D01*
X167637279Y-85022016D02*
X167684898Y-84926778D01*
X167684898Y-84926778D02*
X167732517Y-84879159D01*
X167732517Y-84879159D02*
X167827755Y-84831540D01*
X167827755Y-84831540D02*
X167970612Y-84831540D01*
X167970612Y-84831540D02*
X168065850Y-84879159D01*
X168065850Y-84879159D02*
X168113469Y-84926778D01*
X168113469Y-84926778D02*
X168161088Y-85022016D01*
X168161088Y-85022016D02*
X168161088Y-85402968D01*
X168637279Y-83879159D02*
X168637279Y-84450587D01*
X168637279Y-84164873D02*
X167637279Y-84164873D01*
X167637279Y-84164873D02*
X167780136Y-84260111D01*
X167780136Y-84260111D02*
X167875374Y-84355349D01*
X167875374Y-84355349D02*
X167922993Y-84450587D01*
X167637279Y-83260111D02*
X167637279Y-83164873D01*
X167637279Y-83164873D02*
X167684898Y-83069635D01*
X167684898Y-83069635D02*
X167732517Y-83022016D01*
X167732517Y-83022016D02*
X167827755Y-82974397D01*
X167827755Y-82974397D02*
X168018231Y-82926778D01*
X168018231Y-82926778D02*
X168256326Y-82926778D01*
X168256326Y-82926778D02*
X168446802Y-82974397D01*
X168446802Y-82974397D02*
X168542040Y-83022016D01*
X168542040Y-83022016D02*
X168589660Y-83069635D01*
X168589660Y-83069635D02*
X168637279Y-83164873D01*
X168637279Y-83164873D02*
X168637279Y-83260111D01*
X168637279Y-83260111D02*
X168589660Y-83355349D01*
X168589660Y-83355349D02*
X168542040Y-83402968D01*
X168542040Y-83402968D02*
X168446802Y-83450587D01*
X168446802Y-83450587D02*
X168256326Y-83498206D01*
X168256326Y-83498206D02*
X168018231Y-83498206D01*
X168018231Y-83498206D02*
X167827755Y-83450587D01*
X167827755Y-83450587D02*
X167732517Y-83402968D01*
X167732517Y-83402968D02*
X167684898Y-83355349D01*
X167684898Y-83355349D02*
X167637279Y-83260111D01*
X140666666Y-88224819D02*
X140666666Y-88939104D01*
X140666666Y-88939104D02*
X140619047Y-89081961D01*
X140619047Y-89081961D02*
X140523809Y-89177200D01*
X140523809Y-89177200D02*
X140380952Y-89224819D01*
X140380952Y-89224819D02*
X140285714Y-89224819D01*
X141571428Y-88558152D02*
X141571428Y-89224819D01*
X141333333Y-88177200D02*
X141095238Y-88891485D01*
X141095238Y-88891485D02*
X141714285Y-88891485D01*
X143954819Y-103428571D02*
X142954819Y-103428571D01*
X142954819Y-103428571D02*
X143954819Y-102857143D01*
X143954819Y-102857143D02*
X142954819Y-102857143D01*
X143954819Y-101952381D02*
X143431009Y-101952381D01*
X143431009Y-101952381D02*
X143335771Y-102000000D01*
X143335771Y-102000000D02*
X143288152Y-102095238D01*
X143288152Y-102095238D02*
X143288152Y-102285714D01*
X143288152Y-102285714D02*
X143335771Y-102380952D01*
X143907200Y-101952381D02*
X143954819Y-102047619D01*
X143954819Y-102047619D02*
X143954819Y-102285714D01*
X143954819Y-102285714D02*
X143907200Y-102380952D01*
X143907200Y-102380952D02*
X143811961Y-102428571D01*
X143811961Y-102428571D02*
X143716723Y-102428571D01*
X143716723Y-102428571D02*
X143621485Y-102380952D01*
X143621485Y-102380952D02*
X143573866Y-102285714D01*
X143573866Y-102285714D02*
X143573866Y-102047619D01*
X143573866Y-102047619D02*
X143526247Y-101952381D01*
X143288152Y-101571428D02*
X143954819Y-101333333D01*
X143954819Y-101333333D02*
X143288152Y-101095238D01*
X143954819Y-100714285D02*
X143288152Y-100714285D01*
X142954819Y-100714285D02*
X143002438Y-100761904D01*
X143002438Y-100761904D02*
X143050057Y-100714285D01*
X143050057Y-100714285D02*
X143002438Y-100666666D01*
X143002438Y-100666666D02*
X142954819Y-100714285D01*
X142954819Y-100714285D02*
X143050057Y-100714285D01*
X143288152Y-99809524D02*
X144097676Y-99809524D01*
X144097676Y-99809524D02*
X144192914Y-99857143D01*
X144192914Y-99857143D02*
X144240533Y-99904762D01*
X144240533Y-99904762D02*
X144288152Y-100000000D01*
X144288152Y-100000000D02*
X144288152Y-100142857D01*
X144288152Y-100142857D02*
X144240533Y-100238095D01*
X143907200Y-99809524D02*
X143954819Y-99904762D01*
X143954819Y-99904762D02*
X143954819Y-100095238D01*
X143954819Y-100095238D02*
X143907200Y-100190476D01*
X143907200Y-100190476D02*
X143859580Y-100238095D01*
X143859580Y-100238095D02*
X143764342Y-100285714D01*
X143764342Y-100285714D02*
X143478628Y-100285714D01*
X143478628Y-100285714D02*
X143383390Y-100238095D01*
X143383390Y-100238095D02*
X143335771Y-100190476D01*
X143335771Y-100190476D02*
X143288152Y-100095238D01*
X143288152Y-100095238D02*
X143288152Y-99904762D01*
X143288152Y-99904762D02*
X143335771Y-99809524D01*
X143954819Y-98904762D02*
X143431009Y-98904762D01*
X143431009Y-98904762D02*
X143335771Y-98952381D01*
X143335771Y-98952381D02*
X143288152Y-99047619D01*
X143288152Y-99047619D02*
X143288152Y-99238095D01*
X143288152Y-99238095D02*
X143335771Y-99333333D01*
X143907200Y-98904762D02*
X143954819Y-99000000D01*
X143954819Y-99000000D02*
X143954819Y-99238095D01*
X143954819Y-99238095D02*
X143907200Y-99333333D01*
X143907200Y-99333333D02*
X143811961Y-99380952D01*
X143811961Y-99380952D02*
X143716723Y-99380952D01*
X143716723Y-99380952D02*
X143621485Y-99333333D01*
X143621485Y-99333333D02*
X143573866Y-99238095D01*
X143573866Y-99238095D02*
X143573866Y-99000000D01*
X143573866Y-99000000D02*
X143526247Y-98904762D01*
X143288152Y-98571428D02*
X143288152Y-98190476D01*
X142954819Y-98428571D02*
X143811961Y-98428571D01*
X143811961Y-98428571D02*
X143907200Y-98380952D01*
X143907200Y-98380952D02*
X143954819Y-98285714D01*
X143954819Y-98285714D02*
X143954819Y-98190476D01*
X143954819Y-97857142D02*
X143288152Y-97857142D01*
X142954819Y-97857142D02*
X143002438Y-97904761D01*
X143002438Y-97904761D02*
X143050057Y-97857142D01*
X143050057Y-97857142D02*
X143002438Y-97809523D01*
X143002438Y-97809523D02*
X142954819Y-97857142D01*
X142954819Y-97857142D02*
X143050057Y-97857142D01*
X143954819Y-97238095D02*
X143907200Y-97333333D01*
X143907200Y-97333333D02*
X143859580Y-97380952D01*
X143859580Y-97380952D02*
X143764342Y-97428571D01*
X143764342Y-97428571D02*
X143478628Y-97428571D01*
X143478628Y-97428571D02*
X143383390Y-97380952D01*
X143383390Y-97380952D02*
X143335771Y-97333333D01*
X143335771Y-97333333D02*
X143288152Y-97238095D01*
X143288152Y-97238095D02*
X143288152Y-97095238D01*
X143288152Y-97095238D02*
X143335771Y-97000000D01*
X143335771Y-97000000D02*
X143383390Y-96952381D01*
X143383390Y-96952381D02*
X143478628Y-96904762D01*
X143478628Y-96904762D02*
X143764342Y-96904762D01*
X143764342Y-96904762D02*
X143859580Y-96952381D01*
X143859580Y-96952381D02*
X143907200Y-97000000D01*
X143907200Y-97000000D02*
X143954819Y-97095238D01*
X143954819Y-97095238D02*
X143954819Y-97238095D01*
X143288152Y-96476190D02*
X143954819Y-96476190D01*
X143383390Y-96476190D02*
X143335771Y-96428571D01*
X143335771Y-96428571D02*
X143288152Y-96333333D01*
X143288152Y-96333333D02*
X143288152Y-96190476D01*
X143288152Y-96190476D02*
X143335771Y-96095238D01*
X143335771Y-96095238D02*
X143431009Y-96047619D01*
X143431009Y-96047619D02*
X143954819Y-96047619D01*
X143288152Y-94809523D02*
X144288152Y-94809523D01*
X143335771Y-94809523D02*
X143288152Y-94714285D01*
X143288152Y-94714285D02*
X143288152Y-94523809D01*
X143288152Y-94523809D02*
X143335771Y-94428571D01*
X143335771Y-94428571D02*
X143383390Y-94380952D01*
X143383390Y-94380952D02*
X143478628Y-94333333D01*
X143478628Y-94333333D02*
X143764342Y-94333333D01*
X143764342Y-94333333D02*
X143859580Y-94380952D01*
X143859580Y-94380952D02*
X143907200Y-94428571D01*
X143907200Y-94428571D02*
X143954819Y-94523809D01*
X143954819Y-94523809D02*
X143954819Y-94714285D01*
X143954819Y-94714285D02*
X143907200Y-94809523D01*
X143954819Y-93476190D02*
X143431009Y-93476190D01*
X143431009Y-93476190D02*
X143335771Y-93523809D01*
X143335771Y-93523809D02*
X143288152Y-93619047D01*
X143288152Y-93619047D02*
X143288152Y-93809523D01*
X143288152Y-93809523D02*
X143335771Y-93904761D01*
X143907200Y-93476190D02*
X143954819Y-93571428D01*
X143954819Y-93571428D02*
X143954819Y-93809523D01*
X143954819Y-93809523D02*
X143907200Y-93904761D01*
X143907200Y-93904761D02*
X143811961Y-93952380D01*
X143811961Y-93952380D02*
X143716723Y-93952380D01*
X143716723Y-93952380D02*
X143621485Y-93904761D01*
X143621485Y-93904761D02*
X143573866Y-93809523D01*
X143573866Y-93809523D02*
X143573866Y-93571428D01*
X143573866Y-93571428D02*
X143526247Y-93476190D01*
X143954819Y-92571428D02*
X142954819Y-92571428D01*
X143907200Y-92571428D02*
X143954819Y-92666666D01*
X143954819Y-92666666D02*
X143954819Y-92857142D01*
X143954819Y-92857142D02*
X143907200Y-92952380D01*
X143907200Y-92952380D02*
X143859580Y-92999999D01*
X143859580Y-92999999D02*
X143764342Y-93047618D01*
X143764342Y-93047618D02*
X143478628Y-93047618D01*
X143478628Y-93047618D02*
X143383390Y-92999999D01*
X143383390Y-92999999D02*
X143335771Y-92952380D01*
X143335771Y-92952380D02*
X143288152Y-92857142D01*
X143288152Y-92857142D02*
X143288152Y-92666666D01*
X143288152Y-92666666D02*
X143335771Y-92571428D01*
X199488095Y-82954819D02*
X199488095Y-83764342D01*
X199488095Y-83764342D02*
X199535714Y-83859580D01*
X199535714Y-83859580D02*
X199583333Y-83907200D01*
X199583333Y-83907200D02*
X199678571Y-83954819D01*
X199678571Y-83954819D02*
X199869047Y-83954819D01*
X199869047Y-83954819D02*
X199964285Y-83907200D01*
X199964285Y-83907200D02*
X200011904Y-83859580D01*
X200011904Y-83859580D02*
X200059523Y-83764342D01*
X200059523Y-83764342D02*
X200059523Y-82954819D01*
X200964285Y-83288152D02*
X200964285Y-83954819D01*
X200726190Y-82907200D02*
X200488095Y-83621485D01*
X200488095Y-83621485D02*
X201107142Y-83621485D01*
X158791041Y-71006963D02*
X158457708Y-70530772D01*
X158219613Y-71006963D02*
X158219613Y-70006963D01*
X158219613Y-70006963D02*
X158600565Y-70006963D01*
X158600565Y-70006963D02*
X158695803Y-70054582D01*
X158695803Y-70054582D02*
X158743422Y-70102201D01*
X158743422Y-70102201D02*
X158791041Y-70197439D01*
X158791041Y-70197439D02*
X158791041Y-70340296D01*
X158791041Y-70340296D02*
X158743422Y-70435534D01*
X158743422Y-70435534D02*
X158695803Y-70483153D01*
X158695803Y-70483153D02*
X158600565Y-70530772D01*
X158600565Y-70530772D02*
X158219613Y-70530772D01*
X159743422Y-71006963D02*
X159171994Y-71006963D01*
X159457708Y-71006963D02*
X159457708Y-70006963D01*
X159457708Y-70006963D02*
X159362470Y-70149820D01*
X159362470Y-70149820D02*
X159267232Y-70245058D01*
X159267232Y-70245058D02*
X159171994Y-70292677D01*
X160600565Y-70340296D02*
X160600565Y-71006963D01*
X160362470Y-69959344D02*
X160124375Y-70673629D01*
X160124375Y-70673629D02*
X160743422Y-70673629D01*
X159404214Y-61258111D02*
X159356595Y-61305731D01*
X159356595Y-61305731D02*
X159213738Y-61353350D01*
X159213738Y-61353350D02*
X159118500Y-61353350D01*
X159118500Y-61353350D02*
X158975643Y-61305731D01*
X158975643Y-61305731D02*
X158880405Y-61210492D01*
X158880405Y-61210492D02*
X158832786Y-61115254D01*
X158832786Y-61115254D02*
X158785167Y-60924778D01*
X158785167Y-60924778D02*
X158785167Y-60781921D01*
X158785167Y-60781921D02*
X158832786Y-60591445D01*
X158832786Y-60591445D02*
X158880405Y-60496207D01*
X158880405Y-60496207D02*
X158975643Y-60400969D01*
X158975643Y-60400969D02*
X159118500Y-60353350D01*
X159118500Y-60353350D02*
X159213738Y-60353350D01*
X159213738Y-60353350D02*
X159356595Y-60400969D01*
X159356595Y-60400969D02*
X159404214Y-60448588D01*
X160308976Y-60353350D02*
X159832786Y-60353350D01*
X159832786Y-60353350D02*
X159785167Y-60829540D01*
X159785167Y-60829540D02*
X159832786Y-60781921D01*
X159832786Y-60781921D02*
X159928024Y-60734302D01*
X159928024Y-60734302D02*
X160166119Y-60734302D01*
X160166119Y-60734302D02*
X160261357Y-60781921D01*
X160261357Y-60781921D02*
X160308976Y-60829540D01*
X160308976Y-60829540D02*
X160356595Y-60924778D01*
X160356595Y-60924778D02*
X160356595Y-61162873D01*
X160356595Y-61162873D02*
X160308976Y-61258111D01*
X160308976Y-61258111D02*
X160261357Y-61305731D01*
X160261357Y-61305731D02*
X160166119Y-61353350D01*
X160166119Y-61353350D02*
X159928024Y-61353350D01*
X159928024Y-61353350D02*
X159832786Y-61305731D01*
X159832786Y-61305731D02*
X159785167Y-61258111D01*
X179066668Y-67918881D02*
X179019049Y-67966501D01*
X179019049Y-67966501D02*
X178876192Y-68014120D01*
X178876192Y-68014120D02*
X178780954Y-68014120D01*
X178780954Y-68014120D02*
X178638097Y-67966501D01*
X178638097Y-67966501D02*
X178542859Y-67871262D01*
X178542859Y-67871262D02*
X178495240Y-67776024D01*
X178495240Y-67776024D02*
X178447621Y-67585548D01*
X178447621Y-67585548D02*
X178447621Y-67442691D01*
X178447621Y-67442691D02*
X178495240Y-67252215D01*
X178495240Y-67252215D02*
X178542859Y-67156977D01*
X178542859Y-67156977D02*
X178638097Y-67061739D01*
X178638097Y-67061739D02*
X178780954Y-67014120D01*
X178780954Y-67014120D02*
X178876192Y-67014120D01*
X178876192Y-67014120D02*
X179019049Y-67061739D01*
X179019049Y-67061739D02*
X179066668Y-67109358D01*
X180019049Y-68014120D02*
X179447621Y-68014120D01*
X179733335Y-68014120D02*
X179733335Y-67014120D01*
X179733335Y-67014120D02*
X179638097Y-67156977D01*
X179638097Y-67156977D02*
X179542859Y-67252215D01*
X179542859Y-67252215D02*
X179447621Y-67299834D01*
X180971430Y-68014120D02*
X180400002Y-68014120D01*
X180685716Y-68014120D02*
X180685716Y-67014120D01*
X180685716Y-67014120D02*
X180590478Y-67156977D01*
X180590478Y-67156977D02*
X180495240Y-67252215D01*
X180495240Y-67252215D02*
X180400002Y-67299834D01*
X149531880Y-54691515D02*
X149198547Y-54215324D01*
X148960452Y-54691515D02*
X148960452Y-53691515D01*
X148960452Y-53691515D02*
X149341404Y-53691515D01*
X149341404Y-53691515D02*
X149436642Y-53739134D01*
X149436642Y-53739134D02*
X149484261Y-53786753D01*
X149484261Y-53786753D02*
X149531880Y-53881991D01*
X149531880Y-53881991D02*
X149531880Y-54024848D01*
X149531880Y-54024848D02*
X149484261Y-54120086D01*
X149484261Y-54120086D02*
X149436642Y-54167705D01*
X149436642Y-54167705D02*
X149341404Y-54215324D01*
X149341404Y-54215324D02*
X148960452Y-54215324D01*
X149865214Y-53691515D02*
X150531880Y-53691515D01*
X150531880Y-53691515D02*
X150103309Y-54691515D01*
X149531880Y-58116515D02*
X149198547Y-57640324D01*
X148960452Y-58116515D02*
X148960452Y-57116515D01*
X148960452Y-57116515D02*
X149341404Y-57116515D01*
X149341404Y-57116515D02*
X149436642Y-57164134D01*
X149436642Y-57164134D02*
X149484261Y-57211753D01*
X149484261Y-57211753D02*
X149531880Y-57306991D01*
X149531880Y-57306991D02*
X149531880Y-57449848D01*
X149531880Y-57449848D02*
X149484261Y-57545086D01*
X149484261Y-57545086D02*
X149436642Y-57592705D01*
X149436642Y-57592705D02*
X149341404Y-57640324D01*
X149341404Y-57640324D02*
X148960452Y-57640324D01*
X150103309Y-57545086D02*
X150008071Y-57497467D01*
X150008071Y-57497467D02*
X149960452Y-57449848D01*
X149960452Y-57449848D02*
X149912833Y-57354610D01*
X149912833Y-57354610D02*
X149912833Y-57306991D01*
X149912833Y-57306991D02*
X149960452Y-57211753D01*
X149960452Y-57211753D02*
X150008071Y-57164134D01*
X150008071Y-57164134D02*
X150103309Y-57116515D01*
X150103309Y-57116515D02*
X150293785Y-57116515D01*
X150293785Y-57116515D02*
X150389023Y-57164134D01*
X150389023Y-57164134D02*
X150436642Y-57211753D01*
X150436642Y-57211753D02*
X150484261Y-57306991D01*
X150484261Y-57306991D02*
X150484261Y-57354610D01*
X150484261Y-57354610D02*
X150436642Y-57449848D01*
X150436642Y-57449848D02*
X150389023Y-57497467D01*
X150389023Y-57497467D02*
X150293785Y-57545086D01*
X150293785Y-57545086D02*
X150103309Y-57545086D01*
X150103309Y-57545086D02*
X150008071Y-57592705D01*
X150008071Y-57592705D02*
X149960452Y-57640324D01*
X149960452Y-57640324D02*
X149912833Y-57735562D01*
X149912833Y-57735562D02*
X149912833Y-57926038D01*
X149912833Y-57926038D02*
X149960452Y-58021276D01*
X149960452Y-58021276D02*
X150008071Y-58068896D01*
X150008071Y-58068896D02*
X150103309Y-58116515D01*
X150103309Y-58116515D02*
X150293785Y-58116515D01*
X150293785Y-58116515D02*
X150389023Y-58068896D01*
X150389023Y-58068896D02*
X150436642Y-58021276D01*
X150436642Y-58021276D02*
X150484261Y-57926038D01*
X150484261Y-57926038D02*
X150484261Y-57735562D01*
X150484261Y-57735562D02*
X150436642Y-57640324D01*
X150436642Y-57640324D02*
X150389023Y-57592705D01*
X150389023Y-57592705D02*
X150293785Y-57545086D01*
X179066668Y-64648881D02*
X179019049Y-64696501D01*
X179019049Y-64696501D02*
X178876192Y-64744120D01*
X178876192Y-64744120D02*
X178780954Y-64744120D01*
X178780954Y-64744120D02*
X178638097Y-64696501D01*
X178638097Y-64696501D02*
X178542859Y-64601262D01*
X178542859Y-64601262D02*
X178495240Y-64506024D01*
X178495240Y-64506024D02*
X178447621Y-64315548D01*
X178447621Y-64315548D02*
X178447621Y-64172691D01*
X178447621Y-64172691D02*
X178495240Y-63982215D01*
X178495240Y-63982215D02*
X178542859Y-63886977D01*
X178542859Y-63886977D02*
X178638097Y-63791739D01*
X178638097Y-63791739D02*
X178780954Y-63744120D01*
X178780954Y-63744120D02*
X178876192Y-63744120D01*
X178876192Y-63744120D02*
X179019049Y-63791739D01*
X179019049Y-63791739D02*
X179066668Y-63839358D01*
X180019049Y-64744120D02*
X179447621Y-64744120D01*
X179733335Y-64744120D02*
X179733335Y-63744120D01*
X179733335Y-63744120D02*
X179638097Y-63886977D01*
X179638097Y-63886977D02*
X179542859Y-63982215D01*
X179542859Y-63982215D02*
X179447621Y-64029834D01*
X180923811Y-63744120D02*
X180447621Y-63744120D01*
X180447621Y-63744120D02*
X180400002Y-64220310D01*
X180400002Y-64220310D02*
X180447621Y-64172691D01*
X180447621Y-64172691D02*
X180542859Y-64125072D01*
X180542859Y-64125072D02*
X180780954Y-64125072D01*
X180780954Y-64125072D02*
X180876192Y-64172691D01*
X180876192Y-64172691D02*
X180923811Y-64220310D01*
X180923811Y-64220310D02*
X180971430Y-64315548D01*
X180971430Y-64315548D02*
X180971430Y-64553643D01*
X180971430Y-64553643D02*
X180923811Y-64648881D01*
X180923811Y-64648881D02*
X180876192Y-64696501D01*
X180876192Y-64696501D02*
X180780954Y-64744120D01*
X180780954Y-64744120D02*
X180542859Y-64744120D01*
X180542859Y-64744120D02*
X180447621Y-64696501D01*
X180447621Y-64696501D02*
X180400002Y-64648881D01*
X171542040Y-84355349D02*
X171589660Y-84402968D01*
X171589660Y-84402968D02*
X171637279Y-84545825D01*
X171637279Y-84545825D02*
X171637279Y-84641063D01*
X171637279Y-84641063D02*
X171589660Y-84783920D01*
X171589660Y-84783920D02*
X171494421Y-84879158D01*
X171494421Y-84879158D02*
X171399183Y-84926777D01*
X171399183Y-84926777D02*
X171208707Y-84974396D01*
X171208707Y-84974396D02*
X171065850Y-84974396D01*
X171065850Y-84974396D02*
X170875374Y-84926777D01*
X170875374Y-84926777D02*
X170780136Y-84879158D01*
X170780136Y-84879158D02*
X170684898Y-84783920D01*
X170684898Y-84783920D02*
X170637279Y-84641063D01*
X170637279Y-84641063D02*
X170637279Y-84545825D01*
X170637279Y-84545825D02*
X170684898Y-84402968D01*
X170684898Y-84402968D02*
X170732517Y-84355349D01*
X170637279Y-83498206D02*
X170637279Y-83688682D01*
X170637279Y-83688682D02*
X170684898Y-83783920D01*
X170684898Y-83783920D02*
X170732517Y-83831539D01*
X170732517Y-83831539D02*
X170875374Y-83926777D01*
X170875374Y-83926777D02*
X171065850Y-83974396D01*
X171065850Y-83974396D02*
X171446802Y-83974396D01*
X171446802Y-83974396D02*
X171542040Y-83926777D01*
X171542040Y-83926777D02*
X171589660Y-83879158D01*
X171589660Y-83879158D02*
X171637279Y-83783920D01*
X171637279Y-83783920D02*
X171637279Y-83593444D01*
X171637279Y-83593444D02*
X171589660Y-83498206D01*
X171589660Y-83498206D02*
X171542040Y-83450587D01*
X171542040Y-83450587D02*
X171446802Y-83402968D01*
X171446802Y-83402968D02*
X171208707Y-83402968D01*
X171208707Y-83402968D02*
X171113469Y-83450587D01*
X171113469Y-83450587D02*
X171065850Y-83498206D01*
X171065850Y-83498206D02*
X171018231Y-83593444D01*
X171018231Y-83593444D02*
X171018231Y-83783920D01*
X171018231Y-83783920D02*
X171065850Y-83879158D01*
X171065850Y-83879158D02*
X171113469Y-83926777D01*
X171113469Y-83926777D02*
X171208707Y-83974396D01*
X159377232Y-67661724D02*
X159329613Y-67709344D01*
X159329613Y-67709344D02*
X159186756Y-67756963D01*
X159186756Y-67756963D02*
X159091518Y-67756963D01*
X159091518Y-67756963D02*
X158948661Y-67709344D01*
X158948661Y-67709344D02*
X158853423Y-67614105D01*
X158853423Y-67614105D02*
X158805804Y-67518867D01*
X158805804Y-67518867D02*
X158758185Y-67328391D01*
X158758185Y-67328391D02*
X158758185Y-67185534D01*
X158758185Y-67185534D02*
X158805804Y-66995058D01*
X158805804Y-66995058D02*
X158853423Y-66899820D01*
X158853423Y-66899820D02*
X158948661Y-66804582D01*
X158948661Y-66804582D02*
X159091518Y-66756963D01*
X159091518Y-66756963D02*
X159186756Y-66756963D01*
X159186756Y-66756963D02*
X159329613Y-66804582D01*
X159329613Y-66804582D02*
X159377232Y-66852201D01*
X159948661Y-67185534D02*
X159853423Y-67137915D01*
X159853423Y-67137915D02*
X159805804Y-67090296D01*
X159805804Y-67090296D02*
X159758185Y-66995058D01*
X159758185Y-66995058D02*
X159758185Y-66947439D01*
X159758185Y-66947439D02*
X159805804Y-66852201D01*
X159805804Y-66852201D02*
X159853423Y-66804582D01*
X159853423Y-66804582D02*
X159948661Y-66756963D01*
X159948661Y-66756963D02*
X160139137Y-66756963D01*
X160139137Y-66756963D02*
X160234375Y-66804582D01*
X160234375Y-66804582D02*
X160281994Y-66852201D01*
X160281994Y-66852201D02*
X160329613Y-66947439D01*
X160329613Y-66947439D02*
X160329613Y-66995058D01*
X160329613Y-66995058D02*
X160281994Y-67090296D01*
X160281994Y-67090296D02*
X160234375Y-67137915D01*
X160234375Y-67137915D02*
X160139137Y-67185534D01*
X160139137Y-67185534D02*
X159948661Y-67185534D01*
X159948661Y-67185534D02*
X159853423Y-67233153D01*
X159853423Y-67233153D02*
X159805804Y-67280772D01*
X159805804Y-67280772D02*
X159758185Y-67376010D01*
X159758185Y-67376010D02*
X159758185Y-67566486D01*
X159758185Y-67566486D02*
X159805804Y-67661724D01*
X159805804Y-67661724D02*
X159853423Y-67709344D01*
X159853423Y-67709344D02*
X159948661Y-67756963D01*
X159948661Y-67756963D02*
X160139137Y-67756963D01*
X160139137Y-67756963D02*
X160234375Y-67709344D01*
X160234375Y-67709344D02*
X160281994Y-67661724D01*
X160281994Y-67661724D02*
X160329613Y-67566486D01*
X160329613Y-67566486D02*
X160329613Y-67376010D01*
X160329613Y-67376010D02*
X160281994Y-67280772D01*
X160281994Y-67280772D02*
X160234375Y-67233153D01*
X160234375Y-67233153D02*
X160139137Y-67185534D01*
X188893739Y-68022419D02*
X188560406Y-67546228D01*
X188322311Y-68022419D02*
X188322311Y-67022419D01*
X188322311Y-67022419D02*
X188703263Y-67022419D01*
X188703263Y-67022419D02*
X188798501Y-67070038D01*
X188798501Y-67070038D02*
X188846120Y-67117657D01*
X188846120Y-67117657D02*
X188893739Y-67212895D01*
X188893739Y-67212895D02*
X188893739Y-67355752D01*
X188893739Y-67355752D02*
X188846120Y-67450990D01*
X188846120Y-67450990D02*
X188798501Y-67498609D01*
X188798501Y-67498609D02*
X188703263Y-67546228D01*
X188703263Y-67546228D02*
X188322311Y-67546228D01*
X189846120Y-68022419D02*
X189274692Y-68022419D01*
X189560406Y-68022419D02*
X189560406Y-67022419D01*
X189560406Y-67022419D02*
X189465168Y-67165276D01*
X189465168Y-67165276D02*
X189369930Y-67260514D01*
X189369930Y-67260514D02*
X189274692Y-67308133D01*
X190703263Y-67022419D02*
X190512787Y-67022419D01*
X190512787Y-67022419D02*
X190417549Y-67070038D01*
X190417549Y-67070038D02*
X190369930Y-67117657D01*
X190369930Y-67117657D02*
X190274692Y-67260514D01*
X190274692Y-67260514D02*
X190227073Y-67450990D01*
X190227073Y-67450990D02*
X190227073Y-67831942D01*
X190227073Y-67831942D02*
X190274692Y-67927180D01*
X190274692Y-67927180D02*
X190322311Y-67974800D01*
X190322311Y-67974800D02*
X190417549Y-68022419D01*
X190417549Y-68022419D02*
X190608025Y-68022419D01*
X190608025Y-68022419D02*
X190703263Y-67974800D01*
X190703263Y-67974800D02*
X190750882Y-67927180D01*
X190750882Y-67927180D02*
X190798501Y-67831942D01*
X190798501Y-67831942D02*
X190798501Y-67593847D01*
X190798501Y-67593847D02*
X190750882Y-67498609D01*
X190750882Y-67498609D02*
X190703263Y-67450990D01*
X190703263Y-67450990D02*
X190608025Y-67403371D01*
X190608025Y-67403371D02*
X190417549Y-67403371D01*
X190417549Y-67403371D02*
X190322311Y-67450990D01*
X190322311Y-67450990D02*
X190274692Y-67498609D01*
X190274692Y-67498609D02*
X190227073Y-67593847D01*
X147254819Y-80061904D02*
X147254819Y-79490476D01*
X148254819Y-79776190D02*
X147254819Y-79776190D01*
X148254819Y-79157142D02*
X147254819Y-79157142D01*
X147254819Y-79157142D02*
X147254819Y-78776190D01*
X147254819Y-78776190D02*
X147302438Y-78680952D01*
X147302438Y-78680952D02*
X147350057Y-78633333D01*
X147350057Y-78633333D02*
X147445295Y-78585714D01*
X147445295Y-78585714D02*
X147588152Y-78585714D01*
X147588152Y-78585714D02*
X147683390Y-78633333D01*
X147683390Y-78633333D02*
X147731009Y-78680952D01*
X147731009Y-78680952D02*
X147778628Y-78776190D01*
X147778628Y-78776190D02*
X147778628Y-79157142D01*
X148254819Y-77633333D02*
X148254819Y-78204761D01*
X148254819Y-77919047D02*
X147254819Y-77919047D01*
X147254819Y-77919047D02*
X147397676Y-78014285D01*
X147397676Y-78014285D02*
X147492914Y-78109523D01*
X147492914Y-78109523D02*
X147540533Y-78204761D01*
X198166666Y-60314819D02*
X198166666Y-61029104D01*
X198166666Y-61029104D02*
X198119047Y-61171961D01*
X198119047Y-61171961D02*
X198023809Y-61267200D01*
X198023809Y-61267200D02*
X197880952Y-61314819D01*
X197880952Y-61314819D02*
X197785714Y-61314819D01*
X199166666Y-61314819D02*
X198595238Y-61314819D01*
X198880952Y-61314819D02*
X198880952Y-60314819D01*
X198880952Y-60314819D02*
X198785714Y-60457676D01*
X198785714Y-60457676D02*
X198690476Y-60552914D01*
X198690476Y-60552914D02*
X198595238Y-60600533D01*
X196169104Y-63428571D02*
X196169104Y-62952381D01*
X196454819Y-63523809D02*
X195454819Y-63190476D01*
X195454819Y-63190476D02*
X196454819Y-62857143D01*
X195788152Y-62523809D02*
X196454819Y-62523809D01*
X195883390Y-62523809D02*
X195835771Y-62476190D01*
X195835771Y-62476190D02*
X195788152Y-62380952D01*
X195788152Y-62380952D02*
X195788152Y-62238095D01*
X195788152Y-62238095D02*
X195835771Y-62142857D01*
X195835771Y-62142857D02*
X195931009Y-62095238D01*
X195931009Y-62095238D02*
X196454819Y-62095238D01*
X196454819Y-61190476D02*
X195931009Y-61190476D01*
X195931009Y-61190476D02*
X195835771Y-61238095D01*
X195835771Y-61238095D02*
X195788152Y-61333333D01*
X195788152Y-61333333D02*
X195788152Y-61523809D01*
X195788152Y-61523809D02*
X195835771Y-61619047D01*
X196407200Y-61190476D02*
X196454819Y-61285714D01*
X196454819Y-61285714D02*
X196454819Y-61523809D01*
X196454819Y-61523809D02*
X196407200Y-61619047D01*
X196407200Y-61619047D02*
X196311961Y-61666666D01*
X196311961Y-61666666D02*
X196216723Y-61666666D01*
X196216723Y-61666666D02*
X196121485Y-61619047D01*
X196121485Y-61619047D02*
X196073866Y-61523809D01*
X196073866Y-61523809D02*
X196073866Y-61285714D01*
X196073866Y-61285714D02*
X196026247Y-61190476D01*
X196454819Y-60571428D02*
X196407200Y-60666666D01*
X196407200Y-60666666D02*
X196311961Y-60714285D01*
X196311961Y-60714285D02*
X195454819Y-60714285D01*
X196454819Y-60047618D02*
X196407200Y-60142856D01*
X196407200Y-60142856D02*
X196359580Y-60190475D01*
X196359580Y-60190475D02*
X196264342Y-60238094D01*
X196264342Y-60238094D02*
X195978628Y-60238094D01*
X195978628Y-60238094D02*
X195883390Y-60190475D01*
X195883390Y-60190475D02*
X195835771Y-60142856D01*
X195835771Y-60142856D02*
X195788152Y-60047618D01*
X195788152Y-60047618D02*
X195788152Y-59904761D01*
X195788152Y-59904761D02*
X195835771Y-59809523D01*
X195835771Y-59809523D02*
X195883390Y-59761904D01*
X195883390Y-59761904D02*
X195978628Y-59714285D01*
X195978628Y-59714285D02*
X196264342Y-59714285D01*
X196264342Y-59714285D02*
X196359580Y-59761904D01*
X196359580Y-59761904D02*
X196407200Y-59809523D01*
X196407200Y-59809523D02*
X196454819Y-59904761D01*
X196454819Y-59904761D02*
X196454819Y-60047618D01*
X195788152Y-58857142D02*
X196597676Y-58857142D01*
X196597676Y-58857142D02*
X196692914Y-58904761D01*
X196692914Y-58904761D02*
X196740533Y-58952380D01*
X196740533Y-58952380D02*
X196788152Y-59047618D01*
X196788152Y-59047618D02*
X196788152Y-59190475D01*
X196788152Y-59190475D02*
X196740533Y-59285713D01*
X196407200Y-58857142D02*
X196454819Y-58952380D01*
X196454819Y-58952380D02*
X196454819Y-59142856D01*
X196454819Y-59142856D02*
X196407200Y-59238094D01*
X196407200Y-59238094D02*
X196359580Y-59285713D01*
X196359580Y-59285713D02*
X196264342Y-59333332D01*
X196264342Y-59333332D02*
X195978628Y-59333332D01*
X195978628Y-59333332D02*
X195883390Y-59285713D01*
X195883390Y-59285713D02*
X195835771Y-59238094D01*
X195835771Y-59238094D02*
X195788152Y-59142856D01*
X195788152Y-59142856D02*
X195788152Y-58952380D01*
X195788152Y-58952380D02*
X195835771Y-58857142D01*
X196454819Y-57619046D02*
X195454819Y-57619046D01*
X195788152Y-57142856D02*
X196454819Y-57142856D01*
X195883390Y-57142856D02*
X195835771Y-57095237D01*
X195835771Y-57095237D02*
X195788152Y-56999999D01*
X195788152Y-56999999D02*
X195788152Y-56857142D01*
X195788152Y-56857142D02*
X195835771Y-56761904D01*
X195835771Y-56761904D02*
X195931009Y-56714285D01*
X195931009Y-56714285D02*
X196454819Y-56714285D01*
X195788152Y-56238094D02*
X196788152Y-56238094D01*
X195835771Y-56238094D02*
X195788152Y-56142856D01*
X195788152Y-56142856D02*
X195788152Y-55952380D01*
X195788152Y-55952380D02*
X195835771Y-55857142D01*
X195835771Y-55857142D02*
X195883390Y-55809523D01*
X195883390Y-55809523D02*
X195978628Y-55761904D01*
X195978628Y-55761904D02*
X196264342Y-55761904D01*
X196264342Y-55761904D02*
X196359580Y-55809523D01*
X196359580Y-55809523D02*
X196407200Y-55857142D01*
X196407200Y-55857142D02*
X196454819Y-55952380D01*
X196454819Y-55952380D02*
X196454819Y-56142856D01*
X196454819Y-56142856D02*
X196407200Y-56238094D01*
X195788152Y-54904761D02*
X196454819Y-54904761D01*
X195788152Y-55333332D02*
X196311961Y-55333332D01*
X196311961Y-55333332D02*
X196407200Y-55285713D01*
X196407200Y-55285713D02*
X196454819Y-55190475D01*
X196454819Y-55190475D02*
X196454819Y-55047618D01*
X196454819Y-55047618D02*
X196407200Y-54952380D01*
X196407200Y-54952380D02*
X196359580Y-54904761D01*
X195788152Y-54571427D02*
X195788152Y-54190475D01*
X195454819Y-54428570D02*
X196311961Y-54428570D01*
X196311961Y-54428570D02*
X196407200Y-54380951D01*
X196407200Y-54380951D02*
X196454819Y-54285713D01*
X196454819Y-54285713D02*
X196454819Y-54190475D01*
X196454819Y-52571427D02*
X196454819Y-53142855D01*
X196454819Y-52857141D02*
X195454819Y-52857141D01*
X195454819Y-52857141D02*
X195597676Y-52952379D01*
X195597676Y-52952379D02*
X195692914Y-53047617D01*
X195692914Y-53047617D02*
X195740533Y-53142855D01*
X184192040Y-84831540D02*
X184239660Y-84879159D01*
X184239660Y-84879159D02*
X184287279Y-85022016D01*
X184287279Y-85022016D02*
X184287279Y-85117254D01*
X184287279Y-85117254D02*
X184239660Y-85260111D01*
X184239660Y-85260111D02*
X184144421Y-85355349D01*
X184144421Y-85355349D02*
X184049183Y-85402968D01*
X184049183Y-85402968D02*
X183858707Y-85450587D01*
X183858707Y-85450587D02*
X183715850Y-85450587D01*
X183715850Y-85450587D02*
X183525374Y-85402968D01*
X183525374Y-85402968D02*
X183430136Y-85355349D01*
X183430136Y-85355349D02*
X183334898Y-85260111D01*
X183334898Y-85260111D02*
X183287279Y-85117254D01*
X183287279Y-85117254D02*
X183287279Y-85022016D01*
X183287279Y-85022016D02*
X183334898Y-84879159D01*
X183334898Y-84879159D02*
X183382517Y-84831540D01*
X184287279Y-83879159D02*
X184287279Y-84450587D01*
X184287279Y-84164873D02*
X183287279Y-84164873D01*
X183287279Y-84164873D02*
X183430136Y-84260111D01*
X183430136Y-84260111D02*
X183525374Y-84355349D01*
X183525374Y-84355349D02*
X183572993Y-84450587D01*
X183382517Y-83498206D02*
X183334898Y-83450587D01*
X183334898Y-83450587D02*
X183287279Y-83355349D01*
X183287279Y-83355349D02*
X183287279Y-83117254D01*
X183287279Y-83117254D02*
X183334898Y-83022016D01*
X183334898Y-83022016D02*
X183382517Y-82974397D01*
X183382517Y-82974397D02*
X183477755Y-82926778D01*
X183477755Y-82926778D02*
X183572993Y-82926778D01*
X183572993Y-82926778D02*
X183715850Y-82974397D01*
X183715850Y-82974397D02*
X184287279Y-83545825D01*
X184287279Y-83545825D02*
X184287279Y-82926778D01*
X188870877Y-74059545D02*
X188537544Y-73583354D01*
X188299449Y-74059545D02*
X188299449Y-73059545D01*
X188299449Y-73059545D02*
X188680401Y-73059545D01*
X188680401Y-73059545D02*
X188775639Y-73107164D01*
X188775639Y-73107164D02*
X188823258Y-73154783D01*
X188823258Y-73154783D02*
X188870877Y-73250021D01*
X188870877Y-73250021D02*
X188870877Y-73392878D01*
X188870877Y-73392878D02*
X188823258Y-73488116D01*
X188823258Y-73488116D02*
X188775639Y-73535735D01*
X188775639Y-73535735D02*
X188680401Y-73583354D01*
X188680401Y-73583354D02*
X188299449Y-73583354D01*
X189823258Y-74059545D02*
X189251830Y-74059545D01*
X189537544Y-74059545D02*
X189537544Y-73059545D01*
X189537544Y-73059545D02*
X189442306Y-73202402D01*
X189442306Y-73202402D02*
X189347068Y-73297640D01*
X189347068Y-73297640D02*
X189251830Y-73345259D01*
X190156592Y-73059545D02*
X190823258Y-73059545D01*
X190823258Y-73059545D02*
X190394687Y-74059545D01*
X148887615Y-70953719D02*
X148554282Y-70477528D01*
X148316187Y-70953719D02*
X148316187Y-69953719D01*
X148316187Y-69953719D02*
X148697139Y-69953719D01*
X148697139Y-69953719D02*
X148792377Y-70001338D01*
X148792377Y-70001338D02*
X148839996Y-70048957D01*
X148839996Y-70048957D02*
X148887615Y-70144195D01*
X148887615Y-70144195D02*
X148887615Y-70287052D01*
X148887615Y-70287052D02*
X148839996Y-70382290D01*
X148839996Y-70382290D02*
X148792377Y-70429909D01*
X148792377Y-70429909D02*
X148697139Y-70477528D01*
X148697139Y-70477528D02*
X148316187Y-70477528D01*
X149839996Y-70953719D02*
X149268568Y-70953719D01*
X149554282Y-70953719D02*
X149554282Y-69953719D01*
X149554282Y-69953719D02*
X149459044Y-70096576D01*
X149459044Y-70096576D02*
X149363806Y-70191814D01*
X149363806Y-70191814D02*
X149268568Y-70239433D01*
X150173330Y-69953719D02*
X150792377Y-69953719D01*
X150792377Y-69953719D02*
X150459044Y-70334671D01*
X150459044Y-70334671D02*
X150601901Y-70334671D01*
X150601901Y-70334671D02*
X150697139Y-70382290D01*
X150697139Y-70382290D02*
X150744758Y-70429909D01*
X150744758Y-70429909D02*
X150792377Y-70525147D01*
X150792377Y-70525147D02*
X150792377Y-70763242D01*
X150792377Y-70763242D02*
X150744758Y-70858480D01*
X150744758Y-70858480D02*
X150697139Y-70906100D01*
X150697139Y-70906100D02*
X150601901Y-70953719D01*
X150601901Y-70953719D02*
X150316187Y-70953719D01*
X150316187Y-70953719D02*
X150220949Y-70906100D01*
X150220949Y-70906100D02*
X150173330Y-70858480D01*
X193454819Y-65461904D02*
X193454819Y-64890476D01*
X194454819Y-65176190D02*
X193454819Y-65176190D01*
X194454819Y-64557142D02*
X193454819Y-64557142D01*
X193454819Y-64557142D02*
X193454819Y-64176190D01*
X193454819Y-64176190D02*
X193502438Y-64080952D01*
X193502438Y-64080952D02*
X193550057Y-64033333D01*
X193550057Y-64033333D02*
X193645295Y-63985714D01*
X193645295Y-63985714D02*
X193788152Y-63985714D01*
X193788152Y-63985714D02*
X193883390Y-64033333D01*
X193883390Y-64033333D02*
X193931009Y-64080952D01*
X193931009Y-64080952D02*
X193978628Y-64176190D01*
X193978628Y-64176190D02*
X193978628Y-64557142D01*
X193788152Y-63128571D02*
X194454819Y-63128571D01*
X193407200Y-63366666D02*
X194121485Y-63604761D01*
X194121485Y-63604761D02*
X194121485Y-62985714D01*
X140666666Y-75454819D02*
X140666666Y-76169104D01*
X140666666Y-76169104D02*
X140619047Y-76311961D01*
X140619047Y-76311961D02*
X140523809Y-76407200D01*
X140523809Y-76407200D02*
X140380952Y-76454819D01*
X140380952Y-76454819D02*
X140285714Y-76454819D01*
X141190476Y-76454819D02*
X141380952Y-76454819D01*
X141380952Y-76454819D02*
X141476190Y-76407200D01*
X141476190Y-76407200D02*
X141523809Y-76359580D01*
X141523809Y-76359580D02*
X141619047Y-76216723D01*
X141619047Y-76216723D02*
X141666666Y-76026247D01*
X141666666Y-76026247D02*
X141666666Y-75645295D01*
X141666666Y-75645295D02*
X141619047Y-75550057D01*
X141619047Y-75550057D02*
X141571428Y-75502438D01*
X141571428Y-75502438D02*
X141476190Y-75454819D01*
X141476190Y-75454819D02*
X141285714Y-75454819D01*
X141285714Y-75454819D02*
X141190476Y-75502438D01*
X141190476Y-75502438D02*
X141142857Y-75550057D01*
X141142857Y-75550057D02*
X141095238Y-75645295D01*
X141095238Y-75645295D02*
X141095238Y-75883390D01*
X141095238Y-75883390D02*
X141142857Y-75978628D01*
X141142857Y-75978628D02*
X141190476Y-76026247D01*
X141190476Y-76026247D02*
X141285714Y-76073866D01*
X141285714Y-76073866D02*
X141476190Y-76073866D01*
X141476190Y-76073866D02*
X141571428Y-76026247D01*
X141571428Y-76026247D02*
X141619047Y-75978628D01*
X141619047Y-75978628D02*
X141666666Y-75883390D01*
X142954819Y-88250149D02*
X143764342Y-88250149D01*
X143764342Y-88250149D02*
X143859580Y-88202530D01*
X143859580Y-88202530D02*
X143907200Y-88154911D01*
X143907200Y-88154911D02*
X143954819Y-88059673D01*
X143954819Y-88059673D02*
X143954819Y-87869197D01*
X143954819Y-87869197D02*
X143907200Y-87773959D01*
X143907200Y-87773959D02*
X143859580Y-87726340D01*
X143859580Y-87726340D02*
X143764342Y-87678721D01*
X143764342Y-87678721D02*
X142954819Y-87678721D01*
X143669104Y-87250149D02*
X143669104Y-86773959D01*
X143954819Y-87345387D02*
X142954819Y-87012054D01*
X142954819Y-87012054D02*
X143954819Y-86678721D01*
X143954819Y-85773959D02*
X143478628Y-86107292D01*
X143954819Y-86345387D02*
X142954819Y-86345387D01*
X142954819Y-86345387D02*
X142954819Y-85964435D01*
X142954819Y-85964435D02*
X143002438Y-85869197D01*
X143002438Y-85869197D02*
X143050057Y-85821578D01*
X143050057Y-85821578D02*
X143145295Y-85773959D01*
X143145295Y-85773959D02*
X143288152Y-85773959D01*
X143288152Y-85773959D02*
X143383390Y-85821578D01*
X143383390Y-85821578D02*
X143431009Y-85869197D01*
X143431009Y-85869197D02*
X143478628Y-85964435D01*
X143478628Y-85964435D02*
X143478628Y-86345387D01*
X142954819Y-85488244D02*
X142954819Y-84916816D01*
X143954819Y-85202530D02*
X142954819Y-85202530D01*
X143431009Y-83488244D02*
X143478628Y-83345387D01*
X143478628Y-83345387D02*
X143526247Y-83297768D01*
X143526247Y-83297768D02*
X143621485Y-83250149D01*
X143621485Y-83250149D02*
X143764342Y-83250149D01*
X143764342Y-83250149D02*
X143859580Y-83297768D01*
X143859580Y-83297768D02*
X143907200Y-83345387D01*
X143907200Y-83345387D02*
X143954819Y-83440625D01*
X143954819Y-83440625D02*
X143954819Y-83821577D01*
X143954819Y-83821577D02*
X142954819Y-83821577D01*
X142954819Y-83821577D02*
X142954819Y-83488244D01*
X142954819Y-83488244D02*
X143002438Y-83393006D01*
X143002438Y-83393006D02*
X143050057Y-83345387D01*
X143050057Y-83345387D02*
X143145295Y-83297768D01*
X143145295Y-83297768D02*
X143240533Y-83297768D01*
X143240533Y-83297768D02*
X143335771Y-83345387D01*
X143335771Y-83345387D02*
X143383390Y-83393006D01*
X143383390Y-83393006D02*
X143431009Y-83488244D01*
X143431009Y-83488244D02*
X143431009Y-83821577D01*
X143954819Y-82821577D02*
X143288152Y-82821577D01*
X143478628Y-82821577D02*
X143383390Y-82773958D01*
X143383390Y-82773958D02*
X143335771Y-82726339D01*
X143335771Y-82726339D02*
X143288152Y-82631101D01*
X143288152Y-82631101D02*
X143288152Y-82535863D01*
X143907200Y-81821577D02*
X143954819Y-81916815D01*
X143954819Y-81916815D02*
X143954819Y-82107291D01*
X143954819Y-82107291D02*
X143907200Y-82202529D01*
X143907200Y-82202529D02*
X143811961Y-82250148D01*
X143811961Y-82250148D02*
X143431009Y-82250148D01*
X143431009Y-82250148D02*
X143335771Y-82202529D01*
X143335771Y-82202529D02*
X143288152Y-82107291D01*
X143288152Y-82107291D02*
X143288152Y-81916815D01*
X143288152Y-81916815D02*
X143335771Y-81821577D01*
X143335771Y-81821577D02*
X143431009Y-81773958D01*
X143431009Y-81773958D02*
X143526247Y-81773958D01*
X143526247Y-81773958D02*
X143621485Y-82250148D01*
X143954819Y-80916815D02*
X143431009Y-80916815D01*
X143431009Y-80916815D02*
X143335771Y-80964434D01*
X143335771Y-80964434D02*
X143288152Y-81059672D01*
X143288152Y-81059672D02*
X143288152Y-81250148D01*
X143288152Y-81250148D02*
X143335771Y-81345386D01*
X143907200Y-80916815D02*
X143954819Y-81012053D01*
X143954819Y-81012053D02*
X143954819Y-81250148D01*
X143954819Y-81250148D02*
X143907200Y-81345386D01*
X143907200Y-81345386D02*
X143811961Y-81393005D01*
X143811961Y-81393005D02*
X143716723Y-81393005D01*
X143716723Y-81393005D02*
X143621485Y-81345386D01*
X143621485Y-81345386D02*
X143573866Y-81250148D01*
X143573866Y-81250148D02*
X143573866Y-81012053D01*
X143573866Y-81012053D02*
X143526247Y-80916815D01*
X143954819Y-80440624D02*
X142954819Y-80440624D01*
X143573866Y-80345386D02*
X143954819Y-80059672D01*
X143288152Y-80059672D02*
X143669104Y-80440624D01*
X143954819Y-79488243D02*
X143907200Y-79583481D01*
X143907200Y-79583481D02*
X143859580Y-79631100D01*
X143859580Y-79631100D02*
X143764342Y-79678719D01*
X143764342Y-79678719D02*
X143478628Y-79678719D01*
X143478628Y-79678719D02*
X143383390Y-79631100D01*
X143383390Y-79631100D02*
X143335771Y-79583481D01*
X143335771Y-79583481D02*
X143288152Y-79488243D01*
X143288152Y-79488243D02*
X143288152Y-79345386D01*
X143288152Y-79345386D02*
X143335771Y-79250148D01*
X143335771Y-79250148D02*
X143383390Y-79202529D01*
X143383390Y-79202529D02*
X143478628Y-79154910D01*
X143478628Y-79154910D02*
X143764342Y-79154910D01*
X143764342Y-79154910D02*
X143859580Y-79202529D01*
X143859580Y-79202529D02*
X143907200Y-79250148D01*
X143907200Y-79250148D02*
X143954819Y-79345386D01*
X143954819Y-79345386D02*
X143954819Y-79488243D01*
X143288152Y-78297767D02*
X143954819Y-78297767D01*
X143288152Y-78726338D02*
X143811961Y-78726338D01*
X143811961Y-78726338D02*
X143907200Y-78678719D01*
X143907200Y-78678719D02*
X143954819Y-78583481D01*
X143954819Y-78583481D02*
X143954819Y-78440624D01*
X143954819Y-78440624D02*
X143907200Y-78345386D01*
X143907200Y-78345386D02*
X143859580Y-78297767D01*
X143288152Y-77964433D02*
X143288152Y-77583481D01*
X142954819Y-77821576D02*
X143811961Y-77821576D01*
X143811961Y-77821576D02*
X143907200Y-77773957D01*
X143907200Y-77773957D02*
X143954819Y-77678719D01*
X143954819Y-77678719D02*
X143954819Y-77583481D01*
X179654214Y-61323458D02*
X179606595Y-61371078D01*
X179606595Y-61371078D02*
X179463738Y-61418697D01*
X179463738Y-61418697D02*
X179368500Y-61418697D01*
X179368500Y-61418697D02*
X179225643Y-61371078D01*
X179225643Y-61371078D02*
X179130405Y-61275839D01*
X179130405Y-61275839D02*
X179082786Y-61180601D01*
X179082786Y-61180601D02*
X179035167Y-60990125D01*
X179035167Y-60990125D02*
X179035167Y-60847268D01*
X179035167Y-60847268D02*
X179082786Y-60656792D01*
X179082786Y-60656792D02*
X179130405Y-60561554D01*
X179130405Y-60561554D02*
X179225643Y-60466316D01*
X179225643Y-60466316D02*
X179368500Y-60418697D01*
X179368500Y-60418697D02*
X179463738Y-60418697D01*
X179463738Y-60418697D02*
X179606595Y-60466316D01*
X179606595Y-60466316D02*
X179654214Y-60513935D01*
X180035167Y-60513935D02*
X180082786Y-60466316D01*
X180082786Y-60466316D02*
X180178024Y-60418697D01*
X180178024Y-60418697D02*
X180416119Y-60418697D01*
X180416119Y-60418697D02*
X180511357Y-60466316D01*
X180511357Y-60466316D02*
X180558976Y-60513935D01*
X180558976Y-60513935D02*
X180606595Y-60609173D01*
X180606595Y-60609173D02*
X180606595Y-60704411D01*
X180606595Y-60704411D02*
X180558976Y-60847268D01*
X180558976Y-60847268D02*
X179987548Y-61418697D01*
X179987548Y-61418697D02*
X180606595Y-61418697D01*
X165437279Y-84581540D02*
X164961088Y-84914873D01*
X165437279Y-85152968D02*
X164437279Y-85152968D01*
X164437279Y-85152968D02*
X164437279Y-84772016D01*
X164437279Y-84772016D02*
X164484898Y-84676778D01*
X164484898Y-84676778D02*
X164532517Y-84629159D01*
X164532517Y-84629159D02*
X164627755Y-84581540D01*
X164627755Y-84581540D02*
X164770612Y-84581540D01*
X164770612Y-84581540D02*
X164865850Y-84629159D01*
X164865850Y-84629159D02*
X164913469Y-84676778D01*
X164913469Y-84676778D02*
X164961088Y-84772016D01*
X164961088Y-84772016D02*
X164961088Y-85152968D01*
X165437279Y-83629159D02*
X165437279Y-84200587D01*
X165437279Y-83914873D02*
X164437279Y-83914873D01*
X164437279Y-83914873D02*
X164580136Y-84010111D01*
X164580136Y-84010111D02*
X164675374Y-84105349D01*
X164675374Y-84105349D02*
X164722993Y-84200587D01*
X164437279Y-82724397D02*
X164437279Y-83200587D01*
X164437279Y-83200587D02*
X164913469Y-83248206D01*
X164913469Y-83248206D02*
X164865850Y-83200587D01*
X164865850Y-83200587D02*
X164818231Y-83105349D01*
X164818231Y-83105349D02*
X164818231Y-82867254D01*
X164818231Y-82867254D02*
X164865850Y-82772016D01*
X164865850Y-82772016D02*
X164913469Y-82724397D01*
X164913469Y-82724397D02*
X165008707Y-82676778D01*
X165008707Y-82676778D02*
X165246802Y-82676778D01*
X165246802Y-82676778D02*
X165342040Y-82724397D01*
X165342040Y-82724397D02*
X165389660Y-82772016D01*
X165389660Y-82772016D02*
X165437279Y-82867254D01*
X165437279Y-82867254D02*
X165437279Y-83105349D01*
X165437279Y-83105349D02*
X165389660Y-83200587D01*
X165389660Y-83200587D02*
X165342040Y-83248206D01*
X140666666Y-105844819D02*
X140666666Y-106559104D01*
X140666666Y-106559104D02*
X140619047Y-106701961D01*
X140619047Y-106701961D02*
X140523809Y-106797200D01*
X140523809Y-106797200D02*
X140380952Y-106844819D01*
X140380952Y-106844819D02*
X140285714Y-106844819D01*
X141619047Y-105844819D02*
X141142857Y-105844819D01*
X141142857Y-105844819D02*
X141095238Y-106321009D01*
X141095238Y-106321009D02*
X141142857Y-106273390D01*
X141142857Y-106273390D02*
X141238095Y-106225771D01*
X141238095Y-106225771D02*
X141476190Y-106225771D01*
X141476190Y-106225771D02*
X141571428Y-106273390D01*
X141571428Y-106273390D02*
X141619047Y-106321009D01*
X141619047Y-106321009D02*
X141666666Y-106416247D01*
X141666666Y-106416247D02*
X141666666Y-106654342D01*
X141666666Y-106654342D02*
X141619047Y-106749580D01*
X141619047Y-106749580D02*
X141571428Y-106797200D01*
X141571428Y-106797200D02*
X141476190Y-106844819D01*
X141476190Y-106844819D02*
X141238095Y-106844819D01*
X141238095Y-106844819D02*
X141142857Y-106797200D01*
X141142857Y-106797200D02*
X141095238Y-106749580D01*
X143954819Y-115642857D02*
X142954819Y-115642857D01*
X143050057Y-115214286D02*
X143002438Y-115166667D01*
X143002438Y-115166667D02*
X142954819Y-115071429D01*
X142954819Y-115071429D02*
X142954819Y-114833334D01*
X142954819Y-114833334D02*
X143002438Y-114738096D01*
X143002438Y-114738096D02*
X143050057Y-114690477D01*
X143050057Y-114690477D02*
X143145295Y-114642858D01*
X143145295Y-114642858D02*
X143240533Y-114642858D01*
X143240533Y-114642858D02*
X143383390Y-114690477D01*
X143383390Y-114690477D02*
X143954819Y-115261905D01*
X143954819Y-115261905D02*
X143954819Y-114642858D01*
X143859580Y-113642858D02*
X143907200Y-113690477D01*
X143907200Y-113690477D02*
X143954819Y-113833334D01*
X143954819Y-113833334D02*
X143954819Y-113928572D01*
X143954819Y-113928572D02*
X143907200Y-114071429D01*
X143907200Y-114071429D02*
X143811961Y-114166667D01*
X143811961Y-114166667D02*
X143716723Y-114214286D01*
X143716723Y-114214286D02*
X143526247Y-114261905D01*
X143526247Y-114261905D02*
X143383390Y-114261905D01*
X143383390Y-114261905D02*
X143192914Y-114214286D01*
X143192914Y-114214286D02*
X143097676Y-114166667D01*
X143097676Y-114166667D02*
X143002438Y-114071429D01*
X143002438Y-114071429D02*
X142954819Y-113928572D01*
X142954819Y-113928572D02*
X142954819Y-113833334D01*
X142954819Y-113833334D02*
X143002438Y-113690477D01*
X143002438Y-113690477D02*
X143050057Y-113642858D01*
X143431009Y-112119048D02*
X143478628Y-111976191D01*
X143478628Y-111976191D02*
X143526247Y-111928572D01*
X143526247Y-111928572D02*
X143621485Y-111880953D01*
X143621485Y-111880953D02*
X143764342Y-111880953D01*
X143764342Y-111880953D02*
X143859580Y-111928572D01*
X143859580Y-111928572D02*
X143907200Y-111976191D01*
X143907200Y-111976191D02*
X143954819Y-112071429D01*
X143954819Y-112071429D02*
X143954819Y-112452381D01*
X143954819Y-112452381D02*
X142954819Y-112452381D01*
X142954819Y-112452381D02*
X142954819Y-112119048D01*
X142954819Y-112119048D02*
X143002438Y-112023810D01*
X143002438Y-112023810D02*
X143050057Y-111976191D01*
X143050057Y-111976191D02*
X143145295Y-111928572D01*
X143145295Y-111928572D02*
X143240533Y-111928572D01*
X143240533Y-111928572D02*
X143335771Y-111976191D01*
X143335771Y-111976191D02*
X143383390Y-112023810D01*
X143383390Y-112023810D02*
X143431009Y-112119048D01*
X143431009Y-112119048D02*
X143431009Y-112452381D01*
X143954819Y-111452381D02*
X143288152Y-111452381D01*
X143478628Y-111452381D02*
X143383390Y-111404762D01*
X143383390Y-111404762D02*
X143335771Y-111357143D01*
X143335771Y-111357143D02*
X143288152Y-111261905D01*
X143288152Y-111261905D02*
X143288152Y-111166667D01*
X143907200Y-110452381D02*
X143954819Y-110547619D01*
X143954819Y-110547619D02*
X143954819Y-110738095D01*
X143954819Y-110738095D02*
X143907200Y-110833333D01*
X143907200Y-110833333D02*
X143811961Y-110880952D01*
X143811961Y-110880952D02*
X143431009Y-110880952D01*
X143431009Y-110880952D02*
X143335771Y-110833333D01*
X143335771Y-110833333D02*
X143288152Y-110738095D01*
X143288152Y-110738095D02*
X143288152Y-110547619D01*
X143288152Y-110547619D02*
X143335771Y-110452381D01*
X143335771Y-110452381D02*
X143431009Y-110404762D01*
X143431009Y-110404762D02*
X143526247Y-110404762D01*
X143526247Y-110404762D02*
X143621485Y-110880952D01*
X143954819Y-109547619D02*
X143431009Y-109547619D01*
X143431009Y-109547619D02*
X143335771Y-109595238D01*
X143335771Y-109595238D02*
X143288152Y-109690476D01*
X143288152Y-109690476D02*
X143288152Y-109880952D01*
X143288152Y-109880952D02*
X143335771Y-109976190D01*
X143907200Y-109547619D02*
X143954819Y-109642857D01*
X143954819Y-109642857D02*
X143954819Y-109880952D01*
X143954819Y-109880952D02*
X143907200Y-109976190D01*
X143907200Y-109976190D02*
X143811961Y-110023809D01*
X143811961Y-110023809D02*
X143716723Y-110023809D01*
X143716723Y-110023809D02*
X143621485Y-109976190D01*
X143621485Y-109976190D02*
X143573866Y-109880952D01*
X143573866Y-109880952D02*
X143573866Y-109642857D01*
X143573866Y-109642857D02*
X143526247Y-109547619D01*
X143954819Y-109071428D02*
X142954819Y-109071428D01*
X143573866Y-108976190D02*
X143954819Y-108690476D01*
X143288152Y-108690476D02*
X143669104Y-109071428D01*
X143954819Y-108119047D02*
X143907200Y-108214285D01*
X143907200Y-108214285D02*
X143859580Y-108261904D01*
X143859580Y-108261904D02*
X143764342Y-108309523D01*
X143764342Y-108309523D02*
X143478628Y-108309523D01*
X143478628Y-108309523D02*
X143383390Y-108261904D01*
X143383390Y-108261904D02*
X143335771Y-108214285D01*
X143335771Y-108214285D02*
X143288152Y-108119047D01*
X143288152Y-108119047D02*
X143288152Y-107976190D01*
X143288152Y-107976190D02*
X143335771Y-107880952D01*
X143335771Y-107880952D02*
X143383390Y-107833333D01*
X143383390Y-107833333D02*
X143478628Y-107785714D01*
X143478628Y-107785714D02*
X143764342Y-107785714D01*
X143764342Y-107785714D02*
X143859580Y-107833333D01*
X143859580Y-107833333D02*
X143907200Y-107880952D01*
X143907200Y-107880952D02*
X143954819Y-107976190D01*
X143954819Y-107976190D02*
X143954819Y-108119047D01*
X143288152Y-106928571D02*
X143954819Y-106928571D01*
X143288152Y-107357142D02*
X143811961Y-107357142D01*
X143811961Y-107357142D02*
X143907200Y-107309523D01*
X143907200Y-107309523D02*
X143954819Y-107214285D01*
X143954819Y-107214285D02*
X143954819Y-107071428D01*
X143954819Y-107071428D02*
X143907200Y-106976190D01*
X143907200Y-106976190D02*
X143859580Y-106928571D01*
X143288152Y-106595237D02*
X143288152Y-106214285D01*
X142954819Y-106452380D02*
X143811961Y-106452380D01*
X143811961Y-106452380D02*
X143907200Y-106404761D01*
X143907200Y-106404761D02*
X143954819Y-106309523D01*
X143954819Y-106309523D02*
X143954819Y-106214285D01*
X155564819Y-83833333D02*
X156279104Y-83833333D01*
X156279104Y-83833333D02*
X156421961Y-83880952D01*
X156421961Y-83880952D02*
X156517200Y-83976190D01*
X156517200Y-83976190D02*
X156564819Y-84119047D01*
X156564819Y-84119047D02*
X156564819Y-84214285D01*
X155564819Y-83452380D02*
X155564819Y-82833333D01*
X155564819Y-82833333D02*
X155945771Y-83166666D01*
X155945771Y-83166666D02*
X155945771Y-83023809D01*
X155945771Y-83023809D02*
X155993390Y-82928571D01*
X155993390Y-82928571D02*
X156041009Y-82880952D01*
X156041009Y-82880952D02*
X156136247Y-82833333D01*
X156136247Y-82833333D02*
X156374342Y-82833333D01*
X156374342Y-82833333D02*
X156469580Y-82880952D01*
X156469580Y-82880952D02*
X156517200Y-82928571D01*
X156517200Y-82928571D02*
X156564819Y-83023809D01*
X156564819Y-83023809D02*
X156564819Y-83309523D01*
X156564819Y-83309523D02*
X156517200Y-83404761D01*
X156517200Y-83404761D02*
X156469580Y-83452380D01*
X177942040Y-84355349D02*
X177989660Y-84402968D01*
X177989660Y-84402968D02*
X178037279Y-84545825D01*
X178037279Y-84545825D02*
X178037279Y-84641063D01*
X178037279Y-84641063D02*
X177989660Y-84783920D01*
X177989660Y-84783920D02*
X177894421Y-84879158D01*
X177894421Y-84879158D02*
X177799183Y-84926777D01*
X177799183Y-84926777D02*
X177608707Y-84974396D01*
X177608707Y-84974396D02*
X177465850Y-84974396D01*
X177465850Y-84974396D02*
X177275374Y-84926777D01*
X177275374Y-84926777D02*
X177180136Y-84879158D01*
X177180136Y-84879158D02*
X177084898Y-84783920D01*
X177084898Y-84783920D02*
X177037279Y-84641063D01*
X177037279Y-84641063D02*
X177037279Y-84545825D01*
X177037279Y-84545825D02*
X177084898Y-84402968D01*
X177084898Y-84402968D02*
X177132517Y-84355349D01*
X177037279Y-84022015D02*
X177037279Y-83402968D01*
X177037279Y-83402968D02*
X177418231Y-83736301D01*
X177418231Y-83736301D02*
X177418231Y-83593444D01*
X177418231Y-83593444D02*
X177465850Y-83498206D01*
X177465850Y-83498206D02*
X177513469Y-83450587D01*
X177513469Y-83450587D02*
X177608707Y-83402968D01*
X177608707Y-83402968D02*
X177846802Y-83402968D01*
X177846802Y-83402968D02*
X177942040Y-83450587D01*
X177942040Y-83450587D02*
X177989660Y-83498206D01*
X177989660Y-83498206D02*
X178037279Y-83593444D01*
X178037279Y-83593444D02*
X178037279Y-83879158D01*
X178037279Y-83879158D02*
X177989660Y-83974396D01*
X177989660Y-83974396D02*
X177942040Y-84022015D01*
X168798095Y-73274819D02*
X168798095Y-74084342D01*
X168798095Y-74084342D02*
X168845714Y-74179580D01*
X168845714Y-74179580D02*
X168893333Y-74227200D01*
X168893333Y-74227200D02*
X168988571Y-74274819D01*
X168988571Y-74274819D02*
X169179047Y-74274819D01*
X169179047Y-74274819D02*
X169274285Y-74227200D01*
X169274285Y-74227200D02*
X169321904Y-74179580D01*
X169321904Y-74179580D02*
X169369523Y-74084342D01*
X169369523Y-74084342D02*
X169369523Y-73274819D01*
X169798095Y-73370057D02*
X169845714Y-73322438D01*
X169845714Y-73322438D02*
X169940952Y-73274819D01*
X169940952Y-73274819D02*
X170179047Y-73274819D01*
X170179047Y-73274819D02*
X170274285Y-73322438D01*
X170274285Y-73322438D02*
X170321904Y-73370057D01*
X170321904Y-73370057D02*
X170369523Y-73465295D01*
X170369523Y-73465295D02*
X170369523Y-73560533D01*
X170369523Y-73560533D02*
X170321904Y-73703390D01*
X170321904Y-73703390D02*
X169750476Y-74274819D01*
X169750476Y-74274819D02*
X170369523Y-74274819D01*
X159294214Y-58103350D02*
X158960881Y-57627159D01*
X158722786Y-58103350D02*
X158722786Y-57103350D01*
X158722786Y-57103350D02*
X159103738Y-57103350D01*
X159103738Y-57103350D02*
X159198976Y-57150969D01*
X159198976Y-57150969D02*
X159246595Y-57198588D01*
X159246595Y-57198588D02*
X159294214Y-57293826D01*
X159294214Y-57293826D02*
X159294214Y-57436683D01*
X159294214Y-57436683D02*
X159246595Y-57531921D01*
X159246595Y-57531921D02*
X159198976Y-57579540D01*
X159198976Y-57579540D02*
X159103738Y-57627159D01*
X159103738Y-57627159D02*
X158722786Y-57627159D01*
X159770405Y-58103350D02*
X159960881Y-58103350D01*
X159960881Y-58103350D02*
X160056119Y-58055731D01*
X160056119Y-58055731D02*
X160103738Y-58008111D01*
X160103738Y-58008111D02*
X160198976Y-57865254D01*
X160198976Y-57865254D02*
X160246595Y-57674778D01*
X160246595Y-57674778D02*
X160246595Y-57293826D01*
X160246595Y-57293826D02*
X160198976Y-57198588D01*
X160198976Y-57198588D02*
X160151357Y-57150969D01*
X160151357Y-57150969D02*
X160056119Y-57103350D01*
X160056119Y-57103350D02*
X159865643Y-57103350D01*
X159865643Y-57103350D02*
X159770405Y-57150969D01*
X159770405Y-57150969D02*
X159722786Y-57198588D01*
X159722786Y-57198588D02*
X159675167Y-57293826D01*
X159675167Y-57293826D02*
X159675167Y-57531921D01*
X159675167Y-57531921D02*
X159722786Y-57627159D01*
X159722786Y-57627159D02*
X159770405Y-57674778D01*
X159770405Y-57674778D02*
X159865643Y-57722397D01*
X159865643Y-57722397D02*
X160056119Y-57722397D01*
X160056119Y-57722397D02*
X160151357Y-57674778D01*
X160151357Y-57674778D02*
X160198976Y-57627159D01*
X160198976Y-57627159D02*
X160246595Y-57531921D01*
X162242040Y-84355349D02*
X162289660Y-84402968D01*
X162289660Y-84402968D02*
X162337279Y-84545825D01*
X162337279Y-84545825D02*
X162337279Y-84641063D01*
X162337279Y-84641063D02*
X162289660Y-84783920D01*
X162289660Y-84783920D02*
X162194421Y-84879158D01*
X162194421Y-84879158D02*
X162099183Y-84926777D01*
X162099183Y-84926777D02*
X161908707Y-84974396D01*
X161908707Y-84974396D02*
X161765850Y-84974396D01*
X161765850Y-84974396D02*
X161575374Y-84926777D01*
X161575374Y-84926777D02*
X161480136Y-84879158D01*
X161480136Y-84879158D02*
X161384898Y-84783920D01*
X161384898Y-84783920D02*
X161337279Y-84641063D01*
X161337279Y-84641063D02*
X161337279Y-84545825D01*
X161337279Y-84545825D02*
X161384898Y-84402968D01*
X161384898Y-84402968D02*
X161432517Y-84355349D01*
X162337279Y-83879158D02*
X162337279Y-83688682D01*
X162337279Y-83688682D02*
X162289660Y-83593444D01*
X162289660Y-83593444D02*
X162242040Y-83545825D01*
X162242040Y-83545825D02*
X162099183Y-83450587D01*
X162099183Y-83450587D02*
X161908707Y-83402968D01*
X161908707Y-83402968D02*
X161527755Y-83402968D01*
X161527755Y-83402968D02*
X161432517Y-83450587D01*
X161432517Y-83450587D02*
X161384898Y-83498206D01*
X161384898Y-83498206D02*
X161337279Y-83593444D01*
X161337279Y-83593444D02*
X161337279Y-83783920D01*
X161337279Y-83783920D02*
X161384898Y-83879158D01*
X161384898Y-83879158D02*
X161432517Y-83926777D01*
X161432517Y-83926777D02*
X161527755Y-83974396D01*
X161527755Y-83974396D02*
X161765850Y-83974396D01*
X161765850Y-83974396D02*
X161861088Y-83926777D01*
X161861088Y-83926777D02*
X161908707Y-83879158D01*
X161908707Y-83879158D02*
X161956326Y-83783920D01*
X161956326Y-83783920D02*
X161956326Y-83593444D01*
X161956326Y-83593444D02*
X161908707Y-83498206D01*
X161908707Y-83498206D02*
X161861088Y-83450587D01*
X161861088Y-83450587D02*
X161765850Y-83402968D01*
X148886279Y-73815849D02*
X148552946Y-73339658D01*
X148314851Y-73815849D02*
X148314851Y-72815849D01*
X148314851Y-72815849D02*
X148695803Y-72815849D01*
X148695803Y-72815849D02*
X148791041Y-72863468D01*
X148791041Y-72863468D02*
X148838660Y-72911087D01*
X148838660Y-72911087D02*
X148886279Y-73006325D01*
X148886279Y-73006325D02*
X148886279Y-73149182D01*
X148886279Y-73149182D02*
X148838660Y-73244420D01*
X148838660Y-73244420D02*
X148791041Y-73292039D01*
X148791041Y-73292039D02*
X148695803Y-73339658D01*
X148695803Y-73339658D02*
X148314851Y-73339658D01*
X149838660Y-73815849D02*
X149267232Y-73815849D01*
X149552946Y-73815849D02*
X149552946Y-72815849D01*
X149552946Y-72815849D02*
X149457708Y-72958706D01*
X149457708Y-72958706D02*
X149362470Y-73053944D01*
X149362470Y-73053944D02*
X149267232Y-73101563D01*
X150219613Y-72911087D02*
X150267232Y-72863468D01*
X150267232Y-72863468D02*
X150362470Y-72815849D01*
X150362470Y-72815849D02*
X150600565Y-72815849D01*
X150600565Y-72815849D02*
X150695803Y-72863468D01*
X150695803Y-72863468D02*
X150743422Y-72911087D01*
X150743422Y-72911087D02*
X150791041Y-73006325D01*
X150791041Y-73006325D02*
X150791041Y-73101563D01*
X150791041Y-73101563D02*
X150743422Y-73244420D01*
X150743422Y-73244420D02*
X150171994Y-73815849D01*
X150171994Y-73815849D02*
X150791041Y-73815849D01*
X179654214Y-54583111D02*
X179606595Y-54630731D01*
X179606595Y-54630731D02*
X179463738Y-54678350D01*
X179463738Y-54678350D02*
X179368500Y-54678350D01*
X179368500Y-54678350D02*
X179225643Y-54630731D01*
X179225643Y-54630731D02*
X179130405Y-54535492D01*
X179130405Y-54535492D02*
X179082786Y-54440254D01*
X179082786Y-54440254D02*
X179035167Y-54249778D01*
X179035167Y-54249778D02*
X179035167Y-54106921D01*
X179035167Y-54106921D02*
X179082786Y-53916445D01*
X179082786Y-53916445D02*
X179130405Y-53821207D01*
X179130405Y-53821207D02*
X179225643Y-53725969D01*
X179225643Y-53725969D02*
X179368500Y-53678350D01*
X179368500Y-53678350D02*
X179463738Y-53678350D01*
X179463738Y-53678350D02*
X179606595Y-53725969D01*
X179606595Y-53725969D02*
X179654214Y-53773588D01*
X180606595Y-54678350D02*
X180035167Y-54678350D01*
X180320881Y-54678350D02*
X180320881Y-53678350D01*
X180320881Y-53678350D02*
X180225643Y-53821207D01*
X180225643Y-53821207D02*
X180130405Y-53916445D01*
X180130405Y-53916445D02*
X180035167Y-53964064D01*
X179176668Y-71014120D02*
X178843335Y-70537929D01*
X178605240Y-71014120D02*
X178605240Y-70014120D01*
X178605240Y-70014120D02*
X178986192Y-70014120D01*
X178986192Y-70014120D02*
X179081430Y-70061739D01*
X179081430Y-70061739D02*
X179129049Y-70109358D01*
X179129049Y-70109358D02*
X179176668Y-70204596D01*
X179176668Y-70204596D02*
X179176668Y-70347453D01*
X179176668Y-70347453D02*
X179129049Y-70442691D01*
X179129049Y-70442691D02*
X179081430Y-70490310D01*
X179081430Y-70490310D02*
X178986192Y-70537929D01*
X178986192Y-70537929D02*
X178605240Y-70537929D01*
X180129049Y-71014120D02*
X179557621Y-71014120D01*
X179843335Y-71014120D02*
X179843335Y-70014120D01*
X179843335Y-70014120D02*
X179748097Y-70156977D01*
X179748097Y-70156977D02*
X179652859Y-70252215D01*
X179652859Y-70252215D02*
X179557621Y-70299834D01*
X180605240Y-71014120D02*
X180795716Y-71014120D01*
X180795716Y-71014120D02*
X180890954Y-70966501D01*
X180890954Y-70966501D02*
X180938573Y-70918881D01*
X180938573Y-70918881D02*
X181033811Y-70776024D01*
X181033811Y-70776024D02*
X181081430Y-70585548D01*
X181081430Y-70585548D02*
X181081430Y-70204596D01*
X181081430Y-70204596D02*
X181033811Y-70109358D01*
X181033811Y-70109358D02*
X180986192Y-70061739D01*
X180986192Y-70061739D02*
X180890954Y-70014120D01*
X180890954Y-70014120D02*
X180700478Y-70014120D01*
X180700478Y-70014120D02*
X180605240Y-70061739D01*
X180605240Y-70061739D02*
X180557621Y-70109358D01*
X180557621Y-70109358D02*
X180510002Y-70204596D01*
X180510002Y-70204596D02*
X180510002Y-70442691D01*
X180510002Y-70442691D02*
X180557621Y-70537929D01*
X180557621Y-70537929D02*
X180605240Y-70585548D01*
X180605240Y-70585548D02*
X180700478Y-70633167D01*
X180700478Y-70633167D02*
X180890954Y-70633167D01*
X180890954Y-70633167D02*
X180986192Y-70585548D01*
X180986192Y-70585548D02*
X181033811Y-70537929D01*
X181033811Y-70537929D02*
X181081430Y-70442691D01*
X141142600Y-60778805D02*
X141142600Y-61493090D01*
X141142600Y-61493090D02*
X141094981Y-61635947D01*
X141094981Y-61635947D02*
X140999743Y-61731186D01*
X140999743Y-61731186D02*
X140856886Y-61778805D01*
X140856886Y-61778805D02*
X140761648Y-61778805D01*
X142047362Y-60778805D02*
X141856886Y-60778805D01*
X141856886Y-60778805D02*
X141761648Y-60826424D01*
X141761648Y-60826424D02*
X141714029Y-60874043D01*
X141714029Y-60874043D02*
X141618791Y-61016900D01*
X141618791Y-61016900D02*
X141571172Y-61207376D01*
X141571172Y-61207376D02*
X141571172Y-61588328D01*
X141571172Y-61588328D02*
X141618791Y-61683566D01*
X141618791Y-61683566D02*
X141666410Y-61731186D01*
X141666410Y-61731186D02*
X141761648Y-61778805D01*
X141761648Y-61778805D02*
X141952124Y-61778805D01*
X141952124Y-61778805D02*
X142047362Y-61731186D01*
X142047362Y-61731186D02*
X142094981Y-61683566D01*
X142094981Y-61683566D02*
X142142600Y-61588328D01*
X142142600Y-61588328D02*
X142142600Y-61350233D01*
X142142600Y-61350233D02*
X142094981Y-61254995D01*
X142094981Y-61254995D02*
X142047362Y-61207376D01*
X142047362Y-61207376D02*
X141952124Y-61159757D01*
X141952124Y-61159757D02*
X141761648Y-61159757D01*
X141761648Y-61159757D02*
X141666410Y-61207376D01*
X141666410Y-61207376D02*
X141618791Y-61254995D01*
X141618791Y-61254995D02*
X141571172Y-61350233D01*
X143669104Y-62642557D02*
X143669104Y-62166367D01*
X143954819Y-62737795D02*
X142954819Y-62404462D01*
X142954819Y-62404462D02*
X143954819Y-62071129D01*
X143288152Y-61737795D02*
X143954819Y-61737795D01*
X143383390Y-61737795D02*
X143335771Y-61690176D01*
X143335771Y-61690176D02*
X143288152Y-61594938D01*
X143288152Y-61594938D02*
X143288152Y-61452081D01*
X143288152Y-61452081D02*
X143335771Y-61356843D01*
X143335771Y-61356843D02*
X143431009Y-61309224D01*
X143431009Y-61309224D02*
X143954819Y-61309224D01*
X143954819Y-60404462D02*
X143431009Y-60404462D01*
X143431009Y-60404462D02*
X143335771Y-60452081D01*
X143335771Y-60452081D02*
X143288152Y-60547319D01*
X143288152Y-60547319D02*
X143288152Y-60737795D01*
X143288152Y-60737795D02*
X143335771Y-60833033D01*
X143907200Y-60404462D02*
X143954819Y-60499700D01*
X143954819Y-60499700D02*
X143954819Y-60737795D01*
X143954819Y-60737795D02*
X143907200Y-60833033D01*
X143907200Y-60833033D02*
X143811961Y-60880652D01*
X143811961Y-60880652D02*
X143716723Y-60880652D01*
X143716723Y-60880652D02*
X143621485Y-60833033D01*
X143621485Y-60833033D02*
X143573866Y-60737795D01*
X143573866Y-60737795D02*
X143573866Y-60499700D01*
X143573866Y-60499700D02*
X143526247Y-60404462D01*
X143954819Y-59785414D02*
X143907200Y-59880652D01*
X143907200Y-59880652D02*
X143811961Y-59928271D01*
X143811961Y-59928271D02*
X142954819Y-59928271D01*
X143954819Y-59261604D02*
X143907200Y-59356842D01*
X143907200Y-59356842D02*
X143859580Y-59404461D01*
X143859580Y-59404461D02*
X143764342Y-59452080D01*
X143764342Y-59452080D02*
X143478628Y-59452080D01*
X143478628Y-59452080D02*
X143383390Y-59404461D01*
X143383390Y-59404461D02*
X143335771Y-59356842D01*
X143335771Y-59356842D02*
X143288152Y-59261604D01*
X143288152Y-59261604D02*
X143288152Y-59118747D01*
X143288152Y-59118747D02*
X143335771Y-59023509D01*
X143335771Y-59023509D02*
X143383390Y-58975890D01*
X143383390Y-58975890D02*
X143478628Y-58928271D01*
X143478628Y-58928271D02*
X143764342Y-58928271D01*
X143764342Y-58928271D02*
X143859580Y-58975890D01*
X143859580Y-58975890D02*
X143907200Y-59023509D01*
X143907200Y-59023509D02*
X143954819Y-59118747D01*
X143954819Y-59118747D02*
X143954819Y-59261604D01*
X143288152Y-58071128D02*
X144097676Y-58071128D01*
X144097676Y-58071128D02*
X144192914Y-58118747D01*
X144192914Y-58118747D02*
X144240533Y-58166366D01*
X144240533Y-58166366D02*
X144288152Y-58261604D01*
X144288152Y-58261604D02*
X144288152Y-58404461D01*
X144288152Y-58404461D02*
X144240533Y-58499699D01*
X143907200Y-58071128D02*
X143954819Y-58166366D01*
X143954819Y-58166366D02*
X143954819Y-58356842D01*
X143954819Y-58356842D02*
X143907200Y-58452080D01*
X143907200Y-58452080D02*
X143859580Y-58499699D01*
X143859580Y-58499699D02*
X143764342Y-58547318D01*
X143764342Y-58547318D02*
X143478628Y-58547318D01*
X143478628Y-58547318D02*
X143383390Y-58499699D01*
X143383390Y-58499699D02*
X143335771Y-58452080D01*
X143335771Y-58452080D02*
X143288152Y-58356842D01*
X143288152Y-58356842D02*
X143288152Y-58166366D01*
X143288152Y-58166366D02*
X143335771Y-58071128D01*
X143954819Y-56833032D02*
X142954819Y-56833032D01*
X143288152Y-56356842D02*
X143954819Y-56356842D01*
X143383390Y-56356842D02*
X143335771Y-56309223D01*
X143335771Y-56309223D02*
X143288152Y-56213985D01*
X143288152Y-56213985D02*
X143288152Y-56071128D01*
X143288152Y-56071128D02*
X143335771Y-55975890D01*
X143335771Y-55975890D02*
X143431009Y-55928271D01*
X143431009Y-55928271D02*
X143954819Y-55928271D01*
X143288152Y-55452080D02*
X144288152Y-55452080D01*
X143335771Y-55452080D02*
X143288152Y-55356842D01*
X143288152Y-55356842D02*
X143288152Y-55166366D01*
X143288152Y-55166366D02*
X143335771Y-55071128D01*
X143335771Y-55071128D02*
X143383390Y-55023509D01*
X143383390Y-55023509D02*
X143478628Y-54975890D01*
X143478628Y-54975890D02*
X143764342Y-54975890D01*
X143764342Y-54975890D02*
X143859580Y-55023509D01*
X143859580Y-55023509D02*
X143907200Y-55071128D01*
X143907200Y-55071128D02*
X143954819Y-55166366D01*
X143954819Y-55166366D02*
X143954819Y-55356842D01*
X143954819Y-55356842D02*
X143907200Y-55452080D01*
X143288152Y-54118747D02*
X143954819Y-54118747D01*
X143288152Y-54547318D02*
X143811961Y-54547318D01*
X143811961Y-54547318D02*
X143907200Y-54499699D01*
X143907200Y-54499699D02*
X143954819Y-54404461D01*
X143954819Y-54404461D02*
X143954819Y-54261604D01*
X143954819Y-54261604D02*
X143907200Y-54166366D01*
X143907200Y-54166366D02*
X143859580Y-54118747D01*
X143288152Y-53785413D02*
X143288152Y-53404461D01*
X142954819Y-53642556D02*
X143811961Y-53642556D01*
X143811961Y-53642556D02*
X143907200Y-53594937D01*
X143907200Y-53594937D02*
X143954819Y-53499699D01*
X143954819Y-53499699D02*
X143954819Y-53404461D01*
X143050057Y-52356841D02*
X143002438Y-52309222D01*
X143002438Y-52309222D02*
X142954819Y-52213984D01*
X142954819Y-52213984D02*
X142954819Y-51975889D01*
X142954819Y-51975889D02*
X143002438Y-51880651D01*
X143002438Y-51880651D02*
X143050057Y-51833032D01*
X143050057Y-51833032D02*
X143145295Y-51785413D01*
X143145295Y-51785413D02*
X143240533Y-51785413D01*
X143240533Y-51785413D02*
X143383390Y-51833032D01*
X143383390Y-51833032D02*
X143954819Y-52404460D01*
X143954819Y-52404460D02*
X143954819Y-51785413D01*
X197916666Y-65844819D02*
X197916666Y-66559104D01*
X197916666Y-66559104D02*
X197869047Y-66701961D01*
X197869047Y-66701961D02*
X197773809Y-66797200D01*
X197773809Y-66797200D02*
X197630952Y-66844819D01*
X197630952Y-66844819D02*
X197535714Y-66844819D01*
X198535714Y-66273390D02*
X198440476Y-66225771D01*
X198440476Y-66225771D02*
X198392857Y-66178152D01*
X198392857Y-66178152D02*
X198345238Y-66082914D01*
X198345238Y-66082914D02*
X198345238Y-66035295D01*
X198345238Y-66035295D02*
X198392857Y-65940057D01*
X198392857Y-65940057D02*
X198440476Y-65892438D01*
X198440476Y-65892438D02*
X198535714Y-65844819D01*
X198535714Y-65844819D02*
X198726190Y-65844819D01*
X198726190Y-65844819D02*
X198821428Y-65892438D01*
X198821428Y-65892438D02*
X198869047Y-65940057D01*
X198869047Y-65940057D02*
X198916666Y-66035295D01*
X198916666Y-66035295D02*
X198916666Y-66082914D01*
X198916666Y-66082914D02*
X198869047Y-66178152D01*
X198869047Y-66178152D02*
X198821428Y-66225771D01*
X198821428Y-66225771D02*
X198726190Y-66273390D01*
X198726190Y-66273390D02*
X198535714Y-66273390D01*
X198535714Y-66273390D02*
X198440476Y-66321009D01*
X198440476Y-66321009D02*
X198392857Y-66368628D01*
X198392857Y-66368628D02*
X198345238Y-66463866D01*
X198345238Y-66463866D02*
X198345238Y-66654342D01*
X198345238Y-66654342D02*
X198392857Y-66749580D01*
X198392857Y-66749580D02*
X198440476Y-66797200D01*
X198440476Y-66797200D02*
X198535714Y-66844819D01*
X198535714Y-66844819D02*
X198726190Y-66844819D01*
X198726190Y-66844819D02*
X198821428Y-66797200D01*
X198821428Y-66797200D02*
X198869047Y-66749580D01*
X198869047Y-66749580D02*
X198916666Y-66654342D01*
X198916666Y-66654342D02*
X198916666Y-66463866D01*
X198916666Y-66463866D02*
X198869047Y-66368628D01*
X198869047Y-66368628D02*
X198821428Y-66321009D01*
X198821428Y-66321009D02*
X198726190Y-66273390D01*
X196169104Y-75428571D02*
X196169104Y-74952381D01*
X196454819Y-75523809D02*
X195454819Y-75190476D01*
X195454819Y-75190476D02*
X196454819Y-74857143D01*
X195788152Y-74523809D02*
X196454819Y-74523809D01*
X195883390Y-74523809D02*
X195835771Y-74476190D01*
X195835771Y-74476190D02*
X195788152Y-74380952D01*
X195788152Y-74380952D02*
X195788152Y-74238095D01*
X195788152Y-74238095D02*
X195835771Y-74142857D01*
X195835771Y-74142857D02*
X195931009Y-74095238D01*
X195931009Y-74095238D02*
X196454819Y-74095238D01*
X196454819Y-73190476D02*
X195931009Y-73190476D01*
X195931009Y-73190476D02*
X195835771Y-73238095D01*
X195835771Y-73238095D02*
X195788152Y-73333333D01*
X195788152Y-73333333D02*
X195788152Y-73523809D01*
X195788152Y-73523809D02*
X195835771Y-73619047D01*
X196407200Y-73190476D02*
X196454819Y-73285714D01*
X196454819Y-73285714D02*
X196454819Y-73523809D01*
X196454819Y-73523809D02*
X196407200Y-73619047D01*
X196407200Y-73619047D02*
X196311961Y-73666666D01*
X196311961Y-73666666D02*
X196216723Y-73666666D01*
X196216723Y-73666666D02*
X196121485Y-73619047D01*
X196121485Y-73619047D02*
X196073866Y-73523809D01*
X196073866Y-73523809D02*
X196073866Y-73285714D01*
X196073866Y-73285714D02*
X196026247Y-73190476D01*
X196454819Y-72571428D02*
X196407200Y-72666666D01*
X196407200Y-72666666D02*
X196311961Y-72714285D01*
X196311961Y-72714285D02*
X195454819Y-72714285D01*
X196454819Y-72047618D02*
X196407200Y-72142856D01*
X196407200Y-72142856D02*
X196359580Y-72190475D01*
X196359580Y-72190475D02*
X196264342Y-72238094D01*
X196264342Y-72238094D02*
X195978628Y-72238094D01*
X195978628Y-72238094D02*
X195883390Y-72190475D01*
X195883390Y-72190475D02*
X195835771Y-72142856D01*
X195835771Y-72142856D02*
X195788152Y-72047618D01*
X195788152Y-72047618D02*
X195788152Y-71904761D01*
X195788152Y-71904761D02*
X195835771Y-71809523D01*
X195835771Y-71809523D02*
X195883390Y-71761904D01*
X195883390Y-71761904D02*
X195978628Y-71714285D01*
X195978628Y-71714285D02*
X196264342Y-71714285D01*
X196264342Y-71714285D02*
X196359580Y-71761904D01*
X196359580Y-71761904D02*
X196407200Y-71809523D01*
X196407200Y-71809523D02*
X196454819Y-71904761D01*
X196454819Y-71904761D02*
X196454819Y-72047618D01*
X195788152Y-70857142D02*
X196597676Y-70857142D01*
X196597676Y-70857142D02*
X196692914Y-70904761D01*
X196692914Y-70904761D02*
X196740533Y-70952380D01*
X196740533Y-70952380D02*
X196788152Y-71047618D01*
X196788152Y-71047618D02*
X196788152Y-71190475D01*
X196788152Y-71190475D02*
X196740533Y-71285713D01*
X196407200Y-70857142D02*
X196454819Y-70952380D01*
X196454819Y-70952380D02*
X196454819Y-71142856D01*
X196454819Y-71142856D02*
X196407200Y-71238094D01*
X196407200Y-71238094D02*
X196359580Y-71285713D01*
X196359580Y-71285713D02*
X196264342Y-71333332D01*
X196264342Y-71333332D02*
X195978628Y-71333332D01*
X195978628Y-71333332D02*
X195883390Y-71285713D01*
X195883390Y-71285713D02*
X195835771Y-71238094D01*
X195835771Y-71238094D02*
X195788152Y-71142856D01*
X195788152Y-71142856D02*
X195788152Y-70952380D01*
X195788152Y-70952380D02*
X195835771Y-70857142D01*
X196454819Y-69619046D02*
X195454819Y-69619046D01*
X195788152Y-69142856D02*
X196454819Y-69142856D01*
X195883390Y-69142856D02*
X195835771Y-69095237D01*
X195835771Y-69095237D02*
X195788152Y-68999999D01*
X195788152Y-68999999D02*
X195788152Y-68857142D01*
X195788152Y-68857142D02*
X195835771Y-68761904D01*
X195835771Y-68761904D02*
X195931009Y-68714285D01*
X195931009Y-68714285D02*
X196454819Y-68714285D01*
X195788152Y-68238094D02*
X196788152Y-68238094D01*
X195835771Y-68238094D02*
X195788152Y-68142856D01*
X195788152Y-68142856D02*
X195788152Y-67952380D01*
X195788152Y-67952380D02*
X195835771Y-67857142D01*
X195835771Y-67857142D02*
X195883390Y-67809523D01*
X195883390Y-67809523D02*
X195978628Y-67761904D01*
X195978628Y-67761904D02*
X196264342Y-67761904D01*
X196264342Y-67761904D02*
X196359580Y-67809523D01*
X196359580Y-67809523D02*
X196407200Y-67857142D01*
X196407200Y-67857142D02*
X196454819Y-67952380D01*
X196454819Y-67952380D02*
X196454819Y-68142856D01*
X196454819Y-68142856D02*
X196407200Y-68238094D01*
X195788152Y-66904761D02*
X196454819Y-66904761D01*
X195788152Y-67333332D02*
X196311961Y-67333332D01*
X196311961Y-67333332D02*
X196407200Y-67285713D01*
X196407200Y-67285713D02*
X196454819Y-67190475D01*
X196454819Y-67190475D02*
X196454819Y-67047618D01*
X196454819Y-67047618D02*
X196407200Y-66952380D01*
X196407200Y-66952380D02*
X196359580Y-66904761D01*
X195788152Y-66571427D02*
X195788152Y-66190475D01*
X195454819Y-66428570D02*
X196311961Y-66428570D01*
X196311961Y-66428570D02*
X196407200Y-66380951D01*
X196407200Y-66380951D02*
X196454819Y-66285713D01*
X196454819Y-66285713D02*
X196454819Y-66190475D01*
X195788152Y-64666665D02*
X196454819Y-64666665D01*
X195407200Y-64904760D02*
X196121485Y-65142855D01*
X196121485Y-65142855D02*
X196121485Y-64523808D01*
X179764214Y-58339238D02*
X179430881Y-57863047D01*
X179192786Y-58339238D02*
X179192786Y-57339238D01*
X179192786Y-57339238D02*
X179573738Y-57339238D01*
X179573738Y-57339238D02*
X179668976Y-57386857D01*
X179668976Y-57386857D02*
X179716595Y-57434476D01*
X179716595Y-57434476D02*
X179764214Y-57529714D01*
X179764214Y-57529714D02*
X179764214Y-57672571D01*
X179764214Y-57672571D02*
X179716595Y-57767809D01*
X179716595Y-57767809D02*
X179668976Y-57815428D01*
X179668976Y-57815428D02*
X179573738Y-57863047D01*
X179573738Y-57863047D02*
X179192786Y-57863047D01*
X180621357Y-57672571D02*
X180621357Y-58339238D01*
X180383262Y-57291619D02*
X180145167Y-58005904D01*
X180145167Y-58005904D02*
X180764214Y-58005904D01*
X194924819Y-101671904D02*
X195734342Y-101671904D01*
X195734342Y-101671904D02*
X195829580Y-101624285D01*
X195829580Y-101624285D02*
X195877200Y-101576666D01*
X195877200Y-101576666D02*
X195924819Y-101481428D01*
X195924819Y-101481428D02*
X195924819Y-101290952D01*
X195924819Y-101290952D02*
X195877200Y-101195714D01*
X195877200Y-101195714D02*
X195829580Y-101148095D01*
X195829580Y-101148095D02*
X195734342Y-101100476D01*
X195734342Y-101100476D02*
X194924819Y-101100476D01*
X195924819Y-100100476D02*
X195924819Y-100671904D01*
X195924819Y-100386190D02*
X194924819Y-100386190D01*
X194924819Y-100386190D02*
X195067676Y-100481428D01*
X195067676Y-100481428D02*
X195162914Y-100576666D01*
X195162914Y-100576666D02*
X195210533Y-100671904D01*
X181087279Y-84831540D02*
X180611088Y-85164873D01*
X181087279Y-85402968D02*
X180087279Y-85402968D01*
X180087279Y-85402968D02*
X180087279Y-85022016D01*
X180087279Y-85022016D02*
X180134898Y-84926778D01*
X180134898Y-84926778D02*
X180182517Y-84879159D01*
X180182517Y-84879159D02*
X180277755Y-84831540D01*
X180277755Y-84831540D02*
X180420612Y-84831540D01*
X180420612Y-84831540D02*
X180515850Y-84879159D01*
X180515850Y-84879159D02*
X180563469Y-84926778D01*
X180563469Y-84926778D02*
X180611088Y-85022016D01*
X180611088Y-85022016D02*
X180611088Y-85402968D01*
X180182517Y-84450587D02*
X180134898Y-84402968D01*
X180134898Y-84402968D02*
X180087279Y-84307730D01*
X180087279Y-84307730D02*
X180087279Y-84069635D01*
X180087279Y-84069635D02*
X180134898Y-83974397D01*
X180134898Y-83974397D02*
X180182517Y-83926778D01*
X180182517Y-83926778D02*
X180277755Y-83879159D01*
X180277755Y-83879159D02*
X180372993Y-83879159D01*
X180372993Y-83879159D02*
X180515850Y-83926778D01*
X180515850Y-83926778D02*
X181087279Y-84498206D01*
X181087279Y-84498206D02*
X181087279Y-83879159D01*
X180087279Y-83260111D02*
X180087279Y-83164873D01*
X180087279Y-83164873D02*
X180134898Y-83069635D01*
X180134898Y-83069635D02*
X180182517Y-83022016D01*
X180182517Y-83022016D02*
X180277755Y-82974397D01*
X180277755Y-82974397D02*
X180468231Y-82926778D01*
X180468231Y-82926778D02*
X180706326Y-82926778D01*
X180706326Y-82926778D02*
X180896802Y-82974397D01*
X180896802Y-82974397D02*
X180992040Y-83022016D01*
X180992040Y-83022016D02*
X181039660Y-83069635D01*
X181039660Y-83069635D02*
X181087279Y-83164873D01*
X181087279Y-83164873D02*
X181087279Y-83260111D01*
X181087279Y-83260111D02*
X181039660Y-83355349D01*
X181039660Y-83355349D02*
X180992040Y-83402968D01*
X180992040Y-83402968D02*
X180896802Y-83450587D01*
X180896802Y-83450587D02*
X180706326Y-83498206D01*
X180706326Y-83498206D02*
X180468231Y-83498206D01*
X180468231Y-83498206D02*
X180277755Y-83450587D01*
X180277755Y-83450587D02*
X180182517Y-83402968D01*
X180182517Y-83402968D02*
X180134898Y-83355349D01*
X180134898Y-83355349D02*
X180087279Y-83260111D01*
X148887615Y-67953719D02*
X148554282Y-67477528D01*
X148316187Y-67953719D02*
X148316187Y-66953719D01*
X148316187Y-66953719D02*
X148697139Y-66953719D01*
X148697139Y-66953719D02*
X148792377Y-67001338D01*
X148792377Y-67001338D02*
X148839996Y-67048957D01*
X148839996Y-67048957D02*
X148887615Y-67144195D01*
X148887615Y-67144195D02*
X148887615Y-67287052D01*
X148887615Y-67287052D02*
X148839996Y-67382290D01*
X148839996Y-67382290D02*
X148792377Y-67429909D01*
X148792377Y-67429909D02*
X148697139Y-67477528D01*
X148697139Y-67477528D02*
X148316187Y-67477528D01*
X149839996Y-67953719D02*
X149268568Y-67953719D01*
X149554282Y-67953719D02*
X149554282Y-66953719D01*
X149554282Y-66953719D02*
X149459044Y-67096576D01*
X149459044Y-67096576D02*
X149363806Y-67191814D01*
X149363806Y-67191814D02*
X149268568Y-67239433D01*
X150792377Y-67953719D02*
X150220949Y-67953719D01*
X150506663Y-67953719D02*
X150506663Y-66953719D01*
X150506663Y-66953719D02*
X150411425Y-67096576D01*
X150411425Y-67096576D02*
X150316187Y-67191814D01*
X150316187Y-67191814D02*
X150220949Y-67239433D01*
X196857142Y-87359580D02*
X196809523Y-87407200D01*
X196809523Y-87407200D02*
X196666666Y-87454819D01*
X196666666Y-87454819D02*
X196571428Y-87454819D01*
X196571428Y-87454819D02*
X196428571Y-87407200D01*
X196428571Y-87407200D02*
X196333333Y-87311961D01*
X196333333Y-87311961D02*
X196285714Y-87216723D01*
X196285714Y-87216723D02*
X196238095Y-87026247D01*
X196238095Y-87026247D02*
X196238095Y-86883390D01*
X196238095Y-86883390D02*
X196285714Y-86692914D01*
X196285714Y-86692914D02*
X196333333Y-86597676D01*
X196333333Y-86597676D02*
X196428571Y-86502438D01*
X196428571Y-86502438D02*
X196571428Y-86454819D01*
X196571428Y-86454819D02*
X196666666Y-86454819D01*
X196666666Y-86454819D02*
X196809523Y-86502438D01*
X196809523Y-86502438D02*
X196857142Y-86550057D01*
X197238095Y-86550057D02*
X197285714Y-86502438D01*
X197285714Y-86502438D02*
X197380952Y-86454819D01*
X197380952Y-86454819D02*
X197619047Y-86454819D01*
X197619047Y-86454819D02*
X197714285Y-86502438D01*
X197714285Y-86502438D02*
X197761904Y-86550057D01*
X197761904Y-86550057D02*
X197809523Y-86645295D01*
X197809523Y-86645295D02*
X197809523Y-86740533D01*
X197809523Y-86740533D02*
X197761904Y-86883390D01*
X197761904Y-86883390D02*
X197190476Y-87454819D01*
X197190476Y-87454819D02*
X197809523Y-87454819D01*
X198761904Y-87454819D02*
X198190476Y-87454819D01*
X198476190Y-87454819D02*
X198476190Y-86454819D01*
X198476190Y-86454819D02*
X198380952Y-86597676D01*
X198380952Y-86597676D02*
X198285714Y-86692914D01*
X198285714Y-86692914D02*
X198190476Y-86740533D01*
X159404214Y-54583111D02*
X159356595Y-54630731D01*
X159356595Y-54630731D02*
X159213738Y-54678350D01*
X159213738Y-54678350D02*
X159118500Y-54678350D01*
X159118500Y-54678350D02*
X158975643Y-54630731D01*
X158975643Y-54630731D02*
X158880405Y-54535492D01*
X158880405Y-54535492D02*
X158832786Y-54440254D01*
X158832786Y-54440254D02*
X158785167Y-54249778D01*
X158785167Y-54249778D02*
X158785167Y-54106921D01*
X158785167Y-54106921D02*
X158832786Y-53916445D01*
X158832786Y-53916445D02*
X158880405Y-53821207D01*
X158880405Y-53821207D02*
X158975643Y-53725969D01*
X158975643Y-53725969D02*
X159118500Y-53678350D01*
X159118500Y-53678350D02*
X159213738Y-53678350D01*
X159213738Y-53678350D02*
X159356595Y-53725969D01*
X159356595Y-53725969D02*
X159404214Y-53773588D01*
X160261357Y-54011683D02*
X160261357Y-54678350D01*
X160023262Y-53630731D02*
X159785167Y-54345016D01*
X159785167Y-54345016D02*
X160404214Y-54345016D01*
X189489596Y-58332839D02*
X189156263Y-57856648D01*
X188918168Y-58332839D02*
X188918168Y-57332839D01*
X188918168Y-57332839D02*
X189299120Y-57332839D01*
X189299120Y-57332839D02*
X189394358Y-57380458D01*
X189394358Y-57380458D02*
X189441977Y-57428077D01*
X189441977Y-57428077D02*
X189489596Y-57523315D01*
X189489596Y-57523315D02*
X189489596Y-57666172D01*
X189489596Y-57666172D02*
X189441977Y-57761410D01*
X189441977Y-57761410D02*
X189394358Y-57809029D01*
X189394358Y-57809029D02*
X189299120Y-57856648D01*
X189299120Y-57856648D02*
X188918168Y-57856648D01*
X189822930Y-57332839D02*
X190441977Y-57332839D01*
X190441977Y-57332839D02*
X190108644Y-57713791D01*
X190108644Y-57713791D02*
X190251501Y-57713791D01*
X190251501Y-57713791D02*
X190346739Y-57761410D01*
X190346739Y-57761410D02*
X190394358Y-57809029D01*
X190394358Y-57809029D02*
X190441977Y-57904267D01*
X190441977Y-57904267D02*
X190441977Y-58142362D01*
X190441977Y-58142362D02*
X190394358Y-58237600D01*
X190394358Y-58237600D02*
X190346739Y-58285220D01*
X190346739Y-58285220D02*
X190251501Y-58332839D01*
X190251501Y-58332839D02*
X189965787Y-58332839D01*
X189965787Y-58332839D02*
X189870549Y-58285220D01*
X189870549Y-58285220D02*
X189822930Y-58237600D01*
X140916666Y-65344819D02*
X140916666Y-66059104D01*
X140916666Y-66059104D02*
X140869047Y-66201961D01*
X140869047Y-66201961D02*
X140773809Y-66297200D01*
X140773809Y-66297200D02*
X140630952Y-66344819D01*
X140630952Y-66344819D02*
X140535714Y-66344819D01*
X141297619Y-65344819D02*
X141964285Y-65344819D01*
X141964285Y-65344819D02*
X141535714Y-66344819D01*
X143669104Y-75428571D02*
X143669104Y-74952381D01*
X143954819Y-75523809D02*
X142954819Y-75190476D01*
X142954819Y-75190476D02*
X143954819Y-74857143D01*
X143288152Y-74523809D02*
X143954819Y-74523809D01*
X143383390Y-74523809D02*
X143335771Y-74476190D01*
X143335771Y-74476190D02*
X143288152Y-74380952D01*
X143288152Y-74380952D02*
X143288152Y-74238095D01*
X143288152Y-74238095D02*
X143335771Y-74142857D01*
X143335771Y-74142857D02*
X143431009Y-74095238D01*
X143431009Y-74095238D02*
X143954819Y-74095238D01*
X143954819Y-73190476D02*
X143431009Y-73190476D01*
X143431009Y-73190476D02*
X143335771Y-73238095D01*
X143335771Y-73238095D02*
X143288152Y-73333333D01*
X143288152Y-73333333D02*
X143288152Y-73523809D01*
X143288152Y-73523809D02*
X143335771Y-73619047D01*
X143907200Y-73190476D02*
X143954819Y-73285714D01*
X143954819Y-73285714D02*
X143954819Y-73523809D01*
X143954819Y-73523809D02*
X143907200Y-73619047D01*
X143907200Y-73619047D02*
X143811961Y-73666666D01*
X143811961Y-73666666D02*
X143716723Y-73666666D01*
X143716723Y-73666666D02*
X143621485Y-73619047D01*
X143621485Y-73619047D02*
X143573866Y-73523809D01*
X143573866Y-73523809D02*
X143573866Y-73285714D01*
X143573866Y-73285714D02*
X143526247Y-73190476D01*
X143954819Y-72571428D02*
X143907200Y-72666666D01*
X143907200Y-72666666D02*
X143811961Y-72714285D01*
X143811961Y-72714285D02*
X142954819Y-72714285D01*
X143954819Y-72047618D02*
X143907200Y-72142856D01*
X143907200Y-72142856D02*
X143859580Y-72190475D01*
X143859580Y-72190475D02*
X143764342Y-72238094D01*
X143764342Y-72238094D02*
X143478628Y-72238094D01*
X143478628Y-72238094D02*
X143383390Y-72190475D01*
X143383390Y-72190475D02*
X143335771Y-72142856D01*
X143335771Y-72142856D02*
X143288152Y-72047618D01*
X143288152Y-72047618D02*
X143288152Y-71904761D01*
X143288152Y-71904761D02*
X143335771Y-71809523D01*
X143335771Y-71809523D02*
X143383390Y-71761904D01*
X143383390Y-71761904D02*
X143478628Y-71714285D01*
X143478628Y-71714285D02*
X143764342Y-71714285D01*
X143764342Y-71714285D02*
X143859580Y-71761904D01*
X143859580Y-71761904D02*
X143907200Y-71809523D01*
X143907200Y-71809523D02*
X143954819Y-71904761D01*
X143954819Y-71904761D02*
X143954819Y-72047618D01*
X143288152Y-70857142D02*
X144097676Y-70857142D01*
X144097676Y-70857142D02*
X144192914Y-70904761D01*
X144192914Y-70904761D02*
X144240533Y-70952380D01*
X144240533Y-70952380D02*
X144288152Y-71047618D01*
X144288152Y-71047618D02*
X144288152Y-71190475D01*
X144288152Y-71190475D02*
X144240533Y-71285713D01*
X143907200Y-70857142D02*
X143954819Y-70952380D01*
X143954819Y-70952380D02*
X143954819Y-71142856D01*
X143954819Y-71142856D02*
X143907200Y-71238094D01*
X143907200Y-71238094D02*
X143859580Y-71285713D01*
X143859580Y-71285713D02*
X143764342Y-71333332D01*
X143764342Y-71333332D02*
X143478628Y-71333332D01*
X143478628Y-71333332D02*
X143383390Y-71285713D01*
X143383390Y-71285713D02*
X143335771Y-71238094D01*
X143335771Y-71238094D02*
X143288152Y-71142856D01*
X143288152Y-71142856D02*
X143288152Y-70952380D01*
X143288152Y-70952380D02*
X143335771Y-70857142D01*
X143954819Y-69619046D02*
X142954819Y-69619046D01*
X143288152Y-69142856D02*
X143954819Y-69142856D01*
X143383390Y-69142856D02*
X143335771Y-69095237D01*
X143335771Y-69095237D02*
X143288152Y-68999999D01*
X143288152Y-68999999D02*
X143288152Y-68857142D01*
X143288152Y-68857142D02*
X143335771Y-68761904D01*
X143335771Y-68761904D02*
X143431009Y-68714285D01*
X143431009Y-68714285D02*
X143954819Y-68714285D01*
X143288152Y-68238094D02*
X144288152Y-68238094D01*
X143335771Y-68238094D02*
X143288152Y-68142856D01*
X143288152Y-68142856D02*
X143288152Y-67952380D01*
X143288152Y-67952380D02*
X143335771Y-67857142D01*
X143335771Y-67857142D02*
X143383390Y-67809523D01*
X143383390Y-67809523D02*
X143478628Y-67761904D01*
X143478628Y-67761904D02*
X143764342Y-67761904D01*
X143764342Y-67761904D02*
X143859580Y-67809523D01*
X143859580Y-67809523D02*
X143907200Y-67857142D01*
X143907200Y-67857142D02*
X143954819Y-67952380D01*
X143954819Y-67952380D02*
X143954819Y-68142856D01*
X143954819Y-68142856D02*
X143907200Y-68238094D01*
X143288152Y-66904761D02*
X143954819Y-66904761D01*
X143288152Y-67333332D02*
X143811961Y-67333332D01*
X143811961Y-67333332D02*
X143907200Y-67285713D01*
X143907200Y-67285713D02*
X143954819Y-67190475D01*
X143954819Y-67190475D02*
X143954819Y-67047618D01*
X143954819Y-67047618D02*
X143907200Y-66952380D01*
X143907200Y-66952380D02*
X143859580Y-66904761D01*
X143288152Y-66571427D02*
X143288152Y-66190475D01*
X142954819Y-66428570D02*
X143811961Y-66428570D01*
X143811961Y-66428570D02*
X143907200Y-66380951D01*
X143907200Y-66380951D02*
X143954819Y-66285713D01*
X143954819Y-66285713D02*
X143954819Y-66190475D01*
X142954819Y-65190474D02*
X142954819Y-64571427D01*
X142954819Y-64571427D02*
X143335771Y-64904760D01*
X143335771Y-64904760D02*
X143335771Y-64761903D01*
X143335771Y-64761903D02*
X143383390Y-64666665D01*
X143383390Y-64666665D02*
X143431009Y-64619046D01*
X143431009Y-64619046D02*
X143526247Y-64571427D01*
X143526247Y-64571427D02*
X143764342Y-64571427D01*
X143764342Y-64571427D02*
X143859580Y-64619046D01*
X143859580Y-64619046D02*
X143907200Y-64666665D01*
X143907200Y-64666665D02*
X143954819Y-64761903D01*
X143954819Y-64761903D02*
X143954819Y-65047617D01*
X143954819Y-65047617D02*
X143907200Y-65142855D01*
X143907200Y-65142855D02*
X143859580Y-65190474D01*
X189512929Y-61582839D02*
X189179596Y-61106648D01*
X188941501Y-61582839D02*
X188941501Y-60582839D01*
X188941501Y-60582839D02*
X189322453Y-60582839D01*
X189322453Y-60582839D02*
X189417691Y-60630458D01*
X189417691Y-60630458D02*
X189465310Y-60678077D01*
X189465310Y-60678077D02*
X189512929Y-60773315D01*
X189512929Y-60773315D02*
X189512929Y-60916172D01*
X189512929Y-60916172D02*
X189465310Y-61011410D01*
X189465310Y-61011410D02*
X189417691Y-61059029D01*
X189417691Y-61059029D02*
X189322453Y-61106648D01*
X189322453Y-61106648D02*
X188941501Y-61106648D01*
X190465310Y-61582839D02*
X189893882Y-61582839D01*
X190179596Y-61582839D02*
X190179596Y-60582839D01*
X190179596Y-60582839D02*
X190084358Y-60725696D01*
X190084358Y-60725696D02*
X189989120Y-60820934D01*
X189989120Y-60820934D02*
X189893882Y-60868553D01*
X189489596Y-54657839D02*
X189156263Y-54181648D01*
X188918168Y-54657839D02*
X188918168Y-53657839D01*
X188918168Y-53657839D02*
X189299120Y-53657839D01*
X189299120Y-53657839D02*
X189394358Y-53705458D01*
X189394358Y-53705458D02*
X189441977Y-53753077D01*
X189441977Y-53753077D02*
X189489596Y-53848315D01*
X189489596Y-53848315D02*
X189489596Y-53991172D01*
X189489596Y-53991172D02*
X189441977Y-54086410D01*
X189441977Y-54086410D02*
X189394358Y-54134029D01*
X189394358Y-54134029D02*
X189299120Y-54181648D01*
X189299120Y-54181648D02*
X188918168Y-54181648D01*
X189870549Y-53753077D02*
X189918168Y-53705458D01*
X189918168Y-53705458D02*
X190013406Y-53657839D01*
X190013406Y-53657839D02*
X190251501Y-53657839D01*
X190251501Y-53657839D02*
X190346739Y-53705458D01*
X190346739Y-53705458D02*
X190394358Y-53753077D01*
X190394358Y-53753077D02*
X190441977Y-53848315D01*
X190441977Y-53848315D02*
X190441977Y-53943553D01*
X190441977Y-53943553D02*
X190394358Y-54086410D01*
X190394358Y-54086410D02*
X189822930Y-54657839D01*
X189822930Y-54657839D02*
X190441977Y-54657839D01*
X174837279Y-84355349D02*
X174361088Y-84688682D01*
X174837279Y-84926777D02*
X173837279Y-84926777D01*
X173837279Y-84926777D02*
X173837279Y-84545825D01*
X173837279Y-84545825D02*
X173884898Y-84450587D01*
X173884898Y-84450587D02*
X173932517Y-84402968D01*
X173932517Y-84402968D02*
X174027755Y-84355349D01*
X174027755Y-84355349D02*
X174170612Y-84355349D01*
X174170612Y-84355349D02*
X174265850Y-84402968D01*
X174265850Y-84402968D02*
X174313469Y-84450587D01*
X174313469Y-84450587D02*
X174361088Y-84545825D01*
X174361088Y-84545825D02*
X174361088Y-84926777D01*
X173837279Y-83450587D02*
X173837279Y-83926777D01*
X173837279Y-83926777D02*
X174313469Y-83974396D01*
X174313469Y-83974396D02*
X174265850Y-83926777D01*
X174265850Y-83926777D02*
X174218231Y-83831539D01*
X174218231Y-83831539D02*
X174218231Y-83593444D01*
X174218231Y-83593444D02*
X174265850Y-83498206D01*
X174265850Y-83498206D02*
X174313469Y-83450587D01*
X174313469Y-83450587D02*
X174408707Y-83402968D01*
X174408707Y-83402968D02*
X174646802Y-83402968D01*
X174646802Y-83402968D02*
X174742040Y-83450587D01*
X174742040Y-83450587D02*
X174789660Y-83498206D01*
X174789660Y-83498206D02*
X174837279Y-83593444D01*
X174837279Y-83593444D02*
X174837279Y-83831539D01*
X174837279Y-83831539D02*
X174789660Y-83926777D01*
X174789660Y-83926777D02*
X174742040Y-83974396D01*
D12*
%TO.C,R18*%
X186260070Y-69232437D02*
X192800070Y-69232437D01*
X186260070Y-69562437D02*
X186260070Y-69232437D01*
X186260070Y-71642437D02*
X186260070Y-71972437D01*
X186260070Y-71972437D02*
X192800070Y-71972437D01*
X192800070Y-69232437D02*
X192800070Y-69562437D01*
X192800070Y-71972437D02*
X192800070Y-71642437D01*
%TO.C,C10*%
X175281862Y-72262828D02*
X184521862Y-72262828D01*
X175281862Y-75002828D02*
X175281862Y-72262828D01*
X184521862Y-72262828D02*
X184521862Y-75002828D01*
X184521862Y-75002828D02*
X175281862Y-75002828D01*
%TO.C,TP3*%
X187550000Y-63550000D02*
X187550000Y-65450000D01*
X187550000Y-65450000D02*
X189400000Y-65450000D01*
X189400000Y-63550000D02*
X187550000Y-63550000D01*
X189400000Y-63600000D02*
X189400000Y-63550000D01*
X189400000Y-65450000D02*
X189400000Y-63600000D01*
%TO.C,C17*%
X188630000Y-79380000D02*
X191370000Y-79380000D01*
X188630000Y-88620000D02*
X188630000Y-79380000D01*
X191370000Y-79380000D02*
X191370000Y-88620000D01*
X191370000Y-88620000D02*
X188630000Y-88620000D01*
%TO.C,C7*%
X154919051Y-72173197D02*
X164159051Y-72173197D01*
X154919051Y-74913197D02*
X154919051Y-72173197D01*
X164159051Y-72173197D02*
X164159051Y-74913197D01*
X164159051Y-74913197D02*
X154919051Y-74913197D01*
%TO.C,R6*%
X146428547Y-59291696D02*
X146428547Y-59621696D01*
X146428547Y-62031696D02*
X146428547Y-61701696D01*
X152968547Y-59291696D02*
X146428547Y-59291696D01*
X152968547Y-59621696D02*
X152968547Y-59291696D01*
X152968547Y-61701696D02*
X152968547Y-62031696D01*
X152968547Y-62031696D02*
X146428547Y-62031696D01*
%TO.C,TP2*%
X149050000Y-77850000D02*
X149050000Y-79700000D01*
X149050000Y-79700000D02*
X150950000Y-79700000D01*
X149100000Y-77850000D02*
X149050000Y-77850000D01*
X150950000Y-77850000D02*
X149100000Y-77850000D01*
X150950000Y-79700000D02*
X150950000Y-77850000D01*
%TO.C,R10*%
X166812460Y-80808683D02*
X167142460Y-80808683D01*
X166812460Y-87348683D02*
X166812460Y-80808683D01*
X167142460Y-87348683D02*
X166812460Y-87348683D01*
X169222460Y-87348683D02*
X169552460Y-87348683D01*
X169552460Y-80808683D02*
X169222460Y-80808683D01*
X169552460Y-87348683D02*
X169552460Y-80808683D01*
%TO.C,J4*%
X139620000Y-89770000D02*
X141000000Y-89770000D01*
X139620000Y-91150000D02*
X139620000Y-89770000D01*
X139620000Y-92420000D02*
X139620000Y-105230000D01*
X139620000Y-92420000D02*
X142380000Y-92420000D01*
X139620000Y-105230000D02*
X142380000Y-105230000D01*
X142380000Y-92420000D02*
X142380000Y-105230000D01*
%TO.C,U4*%
X191844584Y-79632538D02*
X202064584Y-79632538D01*
X191844584Y-84252538D02*
X191844584Y-79632538D01*
X195104584Y-84252538D02*
X195104584Y-82872538D01*
X198804584Y-84252538D02*
X198804584Y-82872538D01*
X202064584Y-79632538D02*
X202064584Y-84252538D01*
X202064584Y-82872538D02*
X191844584Y-82872538D01*
X202064584Y-84252538D02*
X191844584Y-84252538D01*
%TO.C,R14*%
X156163899Y-69182144D02*
X156163899Y-69512144D01*
X156163899Y-71922144D02*
X156163899Y-71592144D01*
X162703899Y-69182144D02*
X156163899Y-69182144D01*
X162703899Y-69512144D02*
X162703899Y-69182144D01*
X162703899Y-71592144D02*
X162703899Y-71922144D01*
X162703899Y-71922144D02*
X156163899Y-71922144D01*
%TO.C,C5*%
X154950881Y-59528531D02*
X164190881Y-59528531D01*
X154950881Y-62268531D02*
X154950881Y-59528531D01*
X164190881Y-59528531D02*
X164190881Y-62268531D01*
X164190881Y-62268531D02*
X154950881Y-62268531D01*
%TO.C,C11*%
X175089526Y-66189301D02*
X184329526Y-66189301D01*
X175089526Y-68929301D02*
X175089526Y-66189301D01*
X184329526Y-66189301D02*
X184329526Y-68929301D01*
X184329526Y-68929301D02*
X175089526Y-68929301D01*
%TO.C,R7*%
X146428547Y-52866696D02*
X152968547Y-52866696D01*
X146428547Y-53196696D02*
X146428547Y-52866696D01*
X146428547Y-55276696D02*
X146428547Y-55606696D01*
X146428547Y-55606696D02*
X152968547Y-55606696D01*
X152968547Y-52866696D02*
X152968547Y-53196696D01*
X152968547Y-55606696D02*
X152968547Y-55276696D01*
%TO.C,R8*%
X146428547Y-56291696D02*
X146428547Y-56621696D01*
X146428547Y-59031696D02*
X146428547Y-58701696D01*
X152968547Y-56291696D02*
X146428547Y-56291696D01*
X152968547Y-56621696D02*
X152968547Y-56291696D01*
X152968547Y-58701696D02*
X152968547Y-59031696D01*
X152968547Y-59031696D02*
X146428547Y-59031696D01*
%TO.C,C15*%
X175089526Y-62919301D02*
X184329526Y-62919301D01*
X175089526Y-65659301D02*
X175089526Y-62919301D01*
X184329526Y-62919301D02*
X184329526Y-65659301D01*
X184329526Y-65659301D02*
X175089526Y-65659301D01*
%TO.C,C6*%
X169912460Y-79568683D02*
X172652460Y-79568683D01*
X169912460Y-88808683D02*
X169912460Y-79568683D01*
X172652460Y-79568683D02*
X172652460Y-88808683D01*
X172652460Y-88808683D02*
X169912460Y-88808683D01*
%TO.C,C8*%
X154923899Y-65932144D02*
X164163899Y-65932144D01*
X154923899Y-68672144D02*
X154923899Y-65932144D01*
X164163899Y-65932144D02*
X164163899Y-68672144D01*
X164163899Y-68672144D02*
X154923899Y-68672144D01*
%TO.C,R16*%
X186266597Y-66197600D02*
X192806597Y-66197600D01*
X186266597Y-66527600D02*
X186266597Y-66197600D01*
X186266597Y-68607600D02*
X186266597Y-68937600D01*
X186266597Y-68937600D02*
X192806597Y-68937600D01*
X192806597Y-66197600D02*
X192806597Y-66527600D01*
X192806597Y-68937600D02*
X192806597Y-68607600D01*
%TO.C,TP1*%
X145050000Y-77900000D02*
X145050000Y-79750000D01*
X145050000Y-79750000D02*
X146950000Y-79750000D01*
X145100000Y-77900000D02*
X145050000Y-77900000D01*
X146950000Y-77900000D02*
X145100000Y-77900000D01*
X146950000Y-79750000D02*
X146950000Y-77900000D01*
%TO.C,J1*%
X197390000Y-57750000D02*
X197390000Y-53640000D01*
X199610000Y-53640000D02*
X197390000Y-53640000D01*
X199610000Y-57750000D02*
X197390000Y-57750000D01*
X199610000Y-57750000D02*
X199610000Y-53640000D01*
X199610000Y-58750000D02*
X199610000Y-59860000D01*
X199610000Y-59860000D02*
X198500000Y-59860000D01*
%TO.C,C12*%
X182462460Y-79568683D02*
X185202460Y-79568683D01*
X182462460Y-88808683D02*
X182462460Y-79568683D01*
X185202460Y-79568683D02*
X185202460Y-88808683D01*
X185202460Y-88808683D02*
X182462460Y-88808683D01*
%TO.C,R17*%
X186243735Y-72234726D02*
X186243735Y-72564726D01*
X186243735Y-74974726D02*
X186243735Y-74644726D01*
X192783735Y-72234726D02*
X186243735Y-72234726D01*
X192783735Y-72564726D02*
X192783735Y-72234726D01*
X192783735Y-74644726D02*
X192783735Y-74974726D01*
X192783735Y-74974726D02*
X186243735Y-74974726D01*
%TO.C,R13*%
X146260473Y-69128900D02*
X146260473Y-69458900D01*
X146260473Y-71868900D02*
X146260473Y-71538900D01*
X152800473Y-69128900D02*
X146260473Y-69128900D01*
X152800473Y-69458900D02*
X152800473Y-69128900D01*
X152800473Y-71538900D02*
X152800473Y-71868900D01*
X152800473Y-71868900D02*
X146260473Y-71868900D01*
%TO.C,TP4*%
X190700000Y-63550000D02*
X190700000Y-65450000D01*
X190700000Y-65450000D02*
X192550000Y-65450000D01*
X192550000Y-63550000D02*
X190700000Y-63550000D01*
X192550000Y-63600000D02*
X192550000Y-63550000D01*
X192550000Y-65450000D02*
X192550000Y-63600000D01*
%TO.C,J9*%
X139643308Y-77798244D02*
X141023308Y-77798244D01*
X139643308Y-79178244D02*
X139643308Y-77798244D01*
X139643308Y-80448244D02*
X139643308Y-88178244D01*
X139643308Y-80448244D02*
X142403308Y-80448244D01*
X139643308Y-88178244D02*
X142403308Y-88178244D01*
X142403308Y-80448244D02*
X142403308Y-88178244D01*
%TO.C,C2*%
X175200881Y-59593878D02*
X184440881Y-59593878D01*
X175200881Y-62333878D02*
X175200881Y-59593878D01*
X184440881Y-59593878D02*
X184440881Y-62333878D01*
X184440881Y-62333878D02*
X175200881Y-62333878D01*
%TO.C,R15*%
X163612460Y-80808683D02*
X163942460Y-80808683D01*
X163612460Y-87348683D02*
X163612460Y-80808683D01*
X163942460Y-87348683D02*
X163612460Y-87348683D01*
X166022460Y-87348683D02*
X166352460Y-87348683D01*
X166352460Y-80808683D02*
X166022460Y-80808683D01*
X166352460Y-87348683D02*
X166352460Y-80808683D01*
%TO.C,J5*%
X139890000Y-107390000D02*
X141000000Y-107390000D01*
X139890000Y-108500000D02*
X139890000Y-107390000D01*
X139890000Y-109500000D02*
X139890000Y-115610000D01*
X139890000Y-109500000D02*
X142110000Y-109500000D01*
X139890000Y-115610000D02*
X142110000Y-115610000D01*
X142110000Y-109500000D02*
X142110000Y-115610000D01*
%TO.C,J3*%
X148890000Y-82390000D02*
X148890000Y-84610000D01*
X153000000Y-82390000D02*
X148890000Y-82390000D01*
X153000000Y-82390000D02*
X153000000Y-84610000D01*
X153000000Y-84610000D02*
X148890000Y-84610000D01*
X154000000Y-82390000D02*
X155110000Y-82390000D01*
X155110000Y-82390000D02*
X155110000Y-83500000D01*
%TO.C,C3*%
X176212460Y-79568683D02*
X178952460Y-79568683D01*
X176212460Y-88808683D02*
X176212460Y-79568683D01*
X178952460Y-79568683D02*
X178952460Y-88808683D01*
X178952460Y-88808683D02*
X176212460Y-88808683D01*
%TO.C,U2*%
X166910000Y-54920000D02*
X166910000Y-72820000D01*
X166910000Y-72820000D02*
X168560000Y-72820000D01*
X170560000Y-72820000D02*
X172210000Y-72820000D01*
X172210000Y-54920000D02*
X166910000Y-54920000D01*
X172210000Y-72820000D02*
X172210000Y-54920000D01*
X168560000Y-72820000D02*
G75*
G02*
X170560000Y-72820000I1000000J0D01*
G01*
%TO.C,R9*%
X156190881Y-56278531D02*
X156190881Y-56608531D01*
X156190881Y-59018531D02*
X156190881Y-58688531D01*
X162730881Y-56278531D02*
X156190881Y-56278531D01*
X162730881Y-56608531D02*
X162730881Y-56278531D01*
X162730881Y-58688531D02*
X162730881Y-59018531D01*
X162730881Y-59018531D02*
X156190881Y-59018531D01*
%TO.C,C9*%
X160512460Y-79568683D02*
X163252460Y-79568683D01*
X160512460Y-88808683D02*
X160512460Y-79568683D01*
X163252460Y-79568683D02*
X163252460Y-88808683D01*
X163252460Y-88808683D02*
X160512460Y-88808683D01*
%TO.C,R12*%
X146259137Y-72173197D02*
X152799137Y-72173197D01*
X146259137Y-72503197D02*
X146259137Y-72173197D01*
X146259137Y-74583197D02*
X146259137Y-74913197D01*
X146259137Y-74913197D02*
X152799137Y-74913197D01*
X152799137Y-72173197D02*
X152799137Y-72503197D01*
X152799137Y-74913197D02*
X152799137Y-74583197D01*
%TO.C,C1*%
X175200881Y-52853531D02*
X184440881Y-52853531D01*
X175200881Y-55593531D02*
X175200881Y-52853531D01*
X184440881Y-52853531D02*
X184440881Y-55593531D01*
X184440881Y-55593531D02*
X175200881Y-55593531D01*
%TO.C,R19*%
X176549526Y-69189301D02*
X183089526Y-69189301D01*
X176549526Y-69519301D02*
X176549526Y-69189301D01*
X176549526Y-71599301D02*
X176549526Y-71929301D01*
X176549526Y-71929301D02*
X183089526Y-71929301D01*
X183089526Y-69189301D02*
X183089526Y-69519301D01*
X183089526Y-71929301D02*
X183089526Y-71599301D01*
%TO.C,J6*%
X140365934Y-58213986D02*
X140365934Y-54103986D01*
X142585934Y-54103986D02*
X140365934Y-54103986D01*
X142585934Y-58213986D02*
X140365934Y-58213986D01*
X142585934Y-58213986D02*
X142585934Y-54103986D01*
X142585934Y-59213986D02*
X142585934Y-60323986D01*
X142585934Y-60323986D02*
X141475934Y-60323986D01*
%TO.C,J8*%
X197140000Y-67390000D02*
X198250000Y-67390000D01*
X197140000Y-68500000D02*
X197140000Y-67390000D01*
X197140000Y-69500000D02*
X197140000Y-73610000D01*
X197140000Y-69500000D02*
X199360000Y-69500000D01*
X197140000Y-73610000D02*
X199360000Y-73610000D01*
X199360000Y-69500000D02*
X199360000Y-73610000D01*
%TO.C,R4*%
X176660881Y-56514419D02*
X183200881Y-56514419D01*
X176660881Y-56844419D02*
X176660881Y-56514419D01*
X176660881Y-58924419D02*
X176660881Y-59254419D01*
X176660881Y-59254419D02*
X183200881Y-59254419D01*
X183200881Y-56514419D02*
X183200881Y-56844419D01*
X183200881Y-59254419D02*
X183200881Y-58924419D01*
%TO.C,U1*%
X143290000Y-109800000D02*
X143290000Y-92020000D01*
X186850000Y-89050000D02*
X188850000Y-89050000D01*
X191660000Y-89370000D02*
X145940000Y-89370000D01*
X191660000Y-112450000D02*
X145940000Y-112450000D01*
X194310000Y-109800000D02*
X194310000Y-92020000D01*
X143290000Y-92020000D02*
G75*
G02*
X145940000Y-89370000I2650000J0D01*
G01*
X145940000Y-112450000D02*
G75*
G02*
X143290000Y-109800000I0J2650000D01*
G01*
X191660000Y-89370000D02*
G75*
G02*
X194310000Y-92020000I0J-2650000D01*
G01*
X194310000Y-109800000D02*
G75*
G02*
X191660000Y-112450000I-2650000J0D01*
G01*
%TO.C,R20*%
X179262460Y-80808683D02*
X179592460Y-80808683D01*
X179262460Y-87348683D02*
X179262460Y-80808683D01*
X179592460Y-87348683D02*
X179262460Y-87348683D01*
X181672460Y-87348683D02*
X182002460Y-87348683D01*
X182002460Y-80808683D02*
X181672460Y-80808683D01*
X182002460Y-87348683D02*
X182002460Y-80808683D01*
%TO.C,R11*%
X146260473Y-66128900D02*
X146260473Y-66458900D01*
X146260473Y-68868900D02*
X146260473Y-68538900D01*
X152800473Y-66128900D02*
X146260473Y-66128900D01*
X152800473Y-66458900D02*
X152800473Y-66128900D01*
X152800473Y-68538900D02*
X152800473Y-68868900D01*
X152800473Y-68868900D02*
X146260473Y-68868900D01*
%TO.C,C21*%
X192880000Y-85630000D02*
X202120000Y-85630000D01*
X192880000Y-88370000D02*
X192880000Y-85630000D01*
X202120000Y-85630000D02*
X202120000Y-88370000D01*
X202120000Y-88370000D02*
X192880000Y-88370000D01*
%TO.C,C4*%
X154950881Y-52853531D02*
X164190881Y-52853531D01*
X154950881Y-55593531D02*
X154950881Y-52853531D01*
X164190881Y-52853531D02*
X164190881Y-55593531D01*
X164190881Y-55593531D02*
X154950881Y-55593531D01*
%TO.C,R3*%
X186386263Y-56508020D02*
X192926263Y-56508020D01*
X186386263Y-56838020D02*
X186386263Y-56508020D01*
X186386263Y-58918020D02*
X186386263Y-59248020D01*
X186386263Y-59248020D02*
X192926263Y-59248020D01*
X192926263Y-56508020D02*
X192926263Y-56838020D01*
X192926263Y-59248020D02*
X192926263Y-58918020D01*
%TO.C,J7*%
X140140000Y-66890000D02*
X141250000Y-66890000D01*
X140140000Y-68000000D02*
X140140000Y-66890000D01*
X140140000Y-69000000D02*
X140140000Y-73110000D01*
X140140000Y-69000000D02*
X142360000Y-69000000D01*
X140140000Y-73110000D02*
X142360000Y-73110000D01*
X142360000Y-69000000D02*
X142360000Y-73110000D01*
%TO.C,R1*%
X186386263Y-59758020D02*
X192926263Y-59758020D01*
X186386263Y-60088020D02*
X186386263Y-59758020D01*
X186386263Y-62168020D02*
X186386263Y-62498020D01*
X186386263Y-62498020D02*
X192926263Y-62498020D01*
X192926263Y-59758020D02*
X192926263Y-60088020D01*
X192926263Y-62498020D02*
X192926263Y-62168020D01*
%TO.C,R2*%
X186386263Y-52833020D02*
X186386263Y-53163020D01*
X186386263Y-55573020D02*
X186386263Y-55243020D01*
X192926263Y-52833020D02*
X186386263Y-52833020D01*
X192926263Y-53163020D02*
X192926263Y-52833020D01*
X192926263Y-55243020D02*
X192926263Y-55573020D01*
X192926263Y-55573020D02*
X186386263Y-55573020D01*
%TO.C,R5*%
X173012460Y-80808683D02*
X173342460Y-80808683D01*
X173012460Y-87348683D02*
X173012460Y-80808683D01*
X173342460Y-87348683D02*
X173012460Y-87348683D01*
X175422460Y-87348683D02*
X175752460Y-87348683D01*
X175752460Y-80808683D02*
X175422460Y-80808683D01*
X175752460Y-87348683D02*
X175752460Y-80808683D01*
%TD*%
M02*
